G04 #@! TF.GenerationSoftware,KiCad,Pcbnew,6.0.2-378541a8eb~116~ubuntu20.04.1*
G04 #@! TF.CreationDate,2023-01-27T16:27:25+01:00*
G04 #@! TF.ProjectId,BUCKY_IR,4255434b-595f-4495-922e-6b696361645f,rev?*
G04 #@! TF.SameCoordinates,Original*
G04 #@! TF.FileFunction,Profile,NP*
%FSLAX46Y46*%
G04 Gerber Fmt 4.6, Leading zero omitted, Abs format (unit mm)*
G04 Created by KiCad (PCBNEW 6.0.2-378541a8eb~116~ubuntu20.04.1) date 2023-01-27 16:27:25*
%MOMM*%
%LPD*%
G01*
G04 APERTURE LIST*
G04 #@! TA.AperFunction,Profile*
%ADD10C,0.300000*%
G04 #@! TD*
%ADD11C,0.300000*%
G04 APERTURE END LIST*
D10*
X51046760Y-19073906D02*
X50930860Y-19092196D01*
X42554653Y-70945392D02*
X47169101Y-68986675D01*
X51600000Y-63134387D02*
X49545573Y-66884151D01*
X51380860Y-19057933D02*
X51271960Y-19057190D01*
X194049100Y-19876224D02*
X193916120Y-19729203D01*
X50448460Y-19249606D02*
X50323660Y-19315696D01*
X193916120Y-19729203D02*
X193784840Y-19600683D01*
X49675360Y-19876219D02*
G75*
G03*
X48207730Y-21634387I72192286J-61754116D01*
G01*
X51271960Y-19057190D02*
X51160560Y-19062406D01*
X192000000Y-63134387D02*
X194116155Y-66884151D01*
X50571660Y-19195506D02*
X50448460Y-19249606D01*
X51590660Y-19076658D02*
X51487160Y-19064448D01*
X193400900Y-19315701D02*
X193276130Y-19249611D01*
X161835669Y-63134387D02*
X192000000Y-63134387D01*
D11*
X57005132Y-151050114D02*
X60485843Y-154148209D01*
X64077432Y-157046427D01*
X67772506Y-159744768D01*
X71563672Y-162243232D01*
X75443540Y-164541818D01*
X79404718Y-166640528D01*
X83439814Y-168539361D01*
X87541435Y-170238316D01*
X91702191Y-171737394D01*
X95914689Y-173036596D01*
X100171538Y-174135920D01*
X104465346Y-175035367D01*
X108788721Y-175734937D01*
X113134271Y-176234629D01*
X117494605Y-176534445D01*
X121862331Y-176634384D01*
X126230057Y-176534445D01*
X130590391Y-176234629D01*
X134935941Y-175734937D01*
X139259316Y-175035367D01*
X143553124Y-174135920D01*
X147809973Y-173036596D01*
X152022471Y-171737394D01*
X156183227Y-170238316D01*
X160284848Y-168539361D01*
X164319944Y-166640528D01*
X168281122Y-164541818D01*
X172160990Y-162243232D01*
X175952156Y-159744768D01*
X179647230Y-157046427D01*
X183238819Y-154148209D01*
X186719531Y-151050114D01*
D10*
X192793800Y-19092201D02*
X192677880Y-19073911D01*
X49939660Y-19600678D02*
X49808360Y-19729198D01*
X68947310Y-21634387D02*
X51590660Y-19076658D01*
X49050000Y-61460000D02*
G75*
G03*
X49050000Y-61460000I-2150000J0D01*
G01*
X192343770Y-19057938D02*
X192237510Y-19064453D01*
X144020000Y-156630000D02*
G75*
G03*
X144020000Y-156630000I-2150000J0D01*
G01*
X50930860Y-19092196D02*
X50812960Y-19117946D01*
X193655240Y-19489781D02*
X193527270Y-19395261D01*
X192237510Y-19064453D02*
X192134030Y-19076663D01*
X49808360Y-19729198D02*
X49675360Y-19876219D01*
X50323660Y-19315696D02*
X50197260Y-19395256D01*
X192564120Y-19062411D02*
X192452690Y-19057195D01*
X50812960Y-19117946D02*
X50693160Y-19152026D01*
X193784840Y-19600683D02*
X193655240Y-19489781D01*
X164898432Y-149100339D02*
X157198093Y-141400000D01*
D11*
X47169101Y-68986675D02*
X47445728Y-68859178D01*
X47713018Y-68715685D01*
X47970347Y-68556748D01*
X48217093Y-68382917D01*
X48452631Y-68194745D01*
X48676339Y-67992782D01*
X48887593Y-67777580D01*
X49085770Y-67549691D01*
X49270248Y-67309665D01*
X49440402Y-67058055D01*
X49545573Y-66884151D01*
X157198093Y-141400000D02*
X155530427Y-142809890D01*
X153758101Y-144128795D01*
X151888105Y-145356689D01*
X149927433Y-146493547D01*
X147883074Y-147539344D01*
X145762022Y-148494055D01*
X143571268Y-149357656D01*
X141317803Y-150130120D01*
X139008620Y-150811425D01*
X136650709Y-151401543D01*
X134251063Y-151900451D01*
X131816674Y-152308123D01*
X129354533Y-152624535D01*
X126871632Y-152849661D01*
X124374962Y-152983476D01*
X121871516Y-153025956D01*
X119368285Y-152977076D01*
X116872261Y-152836810D01*
X114390435Y-152605134D01*
X111929799Y-152282022D01*
X109497346Y-151867450D01*
X107100066Y-151361393D01*
X104744951Y-150763825D01*
X102438994Y-150074722D01*
X100189186Y-149294059D01*
X98002518Y-148421811D01*
X95885982Y-147457953D01*
X93846571Y-146402459D01*
X91891275Y-145255306D01*
X90027087Y-144016467D01*
X88260998Y-142685918D01*
X86600000Y-141263635D01*
D10*
X50693160Y-19152026D02*
X50571660Y-19195506D01*
X192677880Y-19073911D02*
X192564120Y-19062411D01*
X51487160Y-19064448D02*
X51380860Y-19057933D01*
X104000000Y-156640000D02*
G75*
G03*
X104000000Y-156640000I-2150000J0D01*
G01*
X192452690Y-19057195D02*
X192343770Y-19057938D01*
X193031470Y-19152031D02*
X192911710Y-19117950D01*
X69070000Y-26820000D02*
G75*
G03*
X69070000Y-26820000I-2150000J0D01*
G01*
X198970000Y-61460000D02*
G75*
G03*
X198970000Y-61460000I-2150000J0D01*
G01*
X195516933Y-21634387D02*
G75*
G03*
X194049100Y-19876224I-73656389J-60001514D01*
G01*
X196492626Y-68986675D02*
X201107075Y-70945392D01*
X78763296Y-149100339D02*
X86600000Y-141263635D01*
X51160560Y-19062406D02*
X51046760Y-19073906D01*
X81889011Y-63134387D02*
X51600000Y-63134387D01*
D11*
X186719531Y-151050114D02*
X190046559Y-147787533D01*
X193181690Y-144400775D01*
X196124422Y-140897215D01*
X198874255Y-137284227D01*
X201430687Y-133569185D01*
X203793217Y-129759466D01*
X205961342Y-125862443D01*
X207934563Y-121885491D01*
X209712378Y-117835985D01*
X211294285Y-113721299D01*
X212679783Y-109548809D01*
X213868370Y-105325890D01*
X214859546Y-101059915D01*
X215652810Y-96758261D01*
X216247659Y-92428300D01*
X216643592Y-88077410D01*
X216840109Y-83712963D01*
X216836707Y-79342335D01*
X216632886Y-74972900D01*
X216228144Y-70612034D01*
X215621979Y-66267111D01*
X214813892Y-61945506D01*
X213803379Y-57654594D01*
X212589941Y-53401749D01*
X211173074Y-49194346D01*
X209552280Y-45039760D01*
X207727055Y-40945366D01*
X205696898Y-36918538D01*
X203461309Y-32966651D01*
X201019786Y-29097081D01*
X198371828Y-25317201D01*
X195516933Y-21634387D01*
D10*
X192134030Y-19076663D02*
X174777360Y-21634387D01*
X193527270Y-19395261D02*
X193400900Y-19315701D01*
X81889011Y-63134387D02*
X161835669Y-63134387D01*
X192911710Y-19117950D02*
X192793800Y-19092201D01*
X50069260Y-19489776D02*
X49939660Y-19600678D01*
X124010000Y-56630000D02*
G75*
G03*
X124010000Y-56630000I-2150000J0D01*
G01*
X174777360Y-21634387D02*
X68947310Y-21634387D01*
X193152970Y-19195511D02*
X193031470Y-19152031D01*
X50197260Y-19395256D02*
X50069260Y-19489776D01*
D11*
X194116155Y-66884151D02*
X194276413Y-67143178D01*
X194451411Y-67390988D01*
X194640524Y-67627029D01*
X194843130Y-67850751D01*
X195058604Y-68061601D01*
X195286325Y-68259028D01*
X195525668Y-68442481D01*
X195776010Y-68611409D01*
X196036729Y-68765259D01*
X196307201Y-68903481D01*
X196492626Y-68986675D01*
X201107075Y-70945392D02*
X201445709Y-73838894D01*
X201678178Y-76727718D01*
X201805613Y-79609419D01*
X201829144Y-82481556D01*
X201749906Y-85341686D01*
X201569028Y-88187364D01*
X201287642Y-91016150D01*
X200906881Y-93825600D01*
X200427876Y-96613271D01*
X199851759Y-99376721D01*
X199179662Y-102113506D01*
X198412716Y-104821184D01*
X197552053Y-107497312D01*
X196598804Y-110139448D01*
X195554102Y-112745148D01*
X194419079Y-115311969D01*
X193194865Y-117837470D01*
X191882593Y-120319206D01*
X190483394Y-122754736D01*
X188998401Y-125141616D01*
X187428744Y-127477404D01*
X185775556Y-129759657D01*
X184039969Y-131985932D01*
X182223113Y-134153786D01*
X180326121Y-136260777D01*
X178350125Y-138304461D01*
X176296256Y-140282397D01*
X174165646Y-142192140D01*
X171959427Y-144031249D01*
X169678731Y-145797280D01*
X167324688Y-147487791D01*
X164898432Y-149100339D01*
X78763296Y-149100339D02*
X76337039Y-147487791D01*
X73982996Y-145797280D01*
X71702300Y-144031249D01*
X69496081Y-142192140D01*
X67365471Y-140282397D01*
X65311602Y-138304461D01*
X63335606Y-136260777D01*
X61438614Y-134153786D01*
X59621758Y-131985932D01*
X57886171Y-129759657D01*
X56232983Y-127477404D01*
X54663326Y-125141616D01*
X53178333Y-122754736D01*
X51779134Y-120319206D01*
X50466862Y-117837470D01*
X49242648Y-115311969D01*
X48107625Y-112745148D01*
X47062923Y-110139448D01*
X46109674Y-107497312D01*
X45249011Y-104821184D01*
X44482065Y-102113506D01*
X43809968Y-99376721D01*
X43233851Y-96613271D01*
X42754846Y-93825600D01*
X42374085Y-91016150D01*
X42092699Y-88187364D01*
X41911821Y-85341686D01*
X41832583Y-82481556D01*
X41856114Y-79609419D01*
X41983549Y-76727718D01*
X42216018Y-73838894D01*
X42554653Y-70945392D01*
D10*
X193276130Y-19249611D02*
X193152970Y-19195511D01*
D11*
X48207730Y-21634387D02*
X45352834Y-25317201D01*
X42704876Y-29097081D01*
X40263353Y-32966651D01*
X38027764Y-36918538D01*
X35997607Y-40945366D01*
X34172382Y-45039760D01*
X32551588Y-49194346D01*
X31134722Y-53401749D01*
X29921283Y-57654594D01*
X28910770Y-61945506D01*
X28102683Y-66267111D01*
X27496518Y-70612034D01*
X27091776Y-74972900D01*
X26887955Y-79342335D01*
X26884553Y-83712963D01*
X27081070Y-88077410D01*
X27477003Y-92428300D01*
X28071852Y-96758261D01*
X28865116Y-101059915D01*
X29856292Y-105325890D01*
X31044879Y-109548809D01*
X32430377Y-113721299D01*
X34012284Y-117835985D01*
X35790099Y-121885491D01*
X37763320Y-125862443D01*
X39931445Y-129759466D01*
X42293975Y-133569185D01*
X44850407Y-137284227D01*
X47600240Y-140897215D01*
X50542972Y-144400775D01*
X53678103Y-147787533D01*
X57005132Y-151050114D01*
D10*
X178970000Y-26810000D02*
G75*
G03*
X178970000Y-26810000I-2150000J0D01*
G01*
M02*
