G04 #@! TF.GenerationSoftware,KiCad,Pcbnew,6.0.2-378541a8eb~116~ubuntu20.04.1*
G04 #@! TF.CreationDate,2023-01-27T16:27:25+01:00*
G04 #@! TF.ProjectId,BUCKY_IR,4255434b-595f-4495-922e-6b696361645f,rev?*
G04 #@! TF.SameCoordinates,Original*
G04 #@! TF.FileFunction,Copper,L2,Bot*
G04 #@! TF.FilePolarity,Positive*
%FSLAX46Y46*%
G04 Gerber Fmt 4.6, Leading zero omitted, Abs format (unit mm)*
G04 Created by KiCad (PCBNEW 6.0.2-378541a8eb~116~ubuntu20.04.1) date 2023-01-27 16:27:25*
%MOMM*%
%LPD*%
G01*
G04 APERTURE LIST*
G04 #@! TA.AperFunction,ComponentPad*
%ADD10R,1.700000X1.700000*%
G04 #@! TD*
G04 #@! TA.AperFunction,ComponentPad*
%ADD11O,1.700000X1.700000*%
G04 #@! TD*
G04 #@! TA.AperFunction,ViaPad*
%ADD12C,0.800000*%
G04 #@! TD*
G04 #@! TA.AperFunction,Conductor*
%ADD13C,0.512000*%
G04 #@! TD*
G04 #@! TA.AperFunction,Conductor*
%ADD14C,0.254000*%
G04 #@! TD*
G04 #@! TA.AperFunction,Conductor*
%ADD15C,0.250000*%
G04 #@! TD*
G04 APERTURE END LIST*
D10*
X116725000Y-61425000D03*
D11*
X114185000Y-61425000D03*
D10*
X127475000Y-61675000D03*
D11*
X124935000Y-61675000D03*
D12*
X130300000Y-58400000D03*
X136000000Y-57600000D03*
X138000000Y-34900000D03*
X126600000Y-34900000D03*
X93100000Y-42500000D03*
X79245000Y-54780000D03*
X82134102Y-52599500D03*
X95100000Y-43900000D03*
X125100000Y-46700000D03*
X123200000Y-42900000D03*
X197000000Y-27000000D03*
X123200000Y-44700000D03*
X207000000Y-101500000D03*
X203500000Y-46000000D03*
X53000000Y-136500000D03*
X52000000Y-21000000D03*
X160000000Y-161000000D03*
X121100000Y-42900000D03*
X139000000Y-26500000D03*
X211000000Y-81000000D03*
X36000000Y-101500000D03*
X36000000Y-62500000D03*
X190500000Y-21000000D03*
X83000000Y-162200000D03*
X190500000Y-136500000D03*
X50000000Y-44000000D03*
X123200000Y-46700000D03*
X121100000Y-46600000D03*
X102500000Y-26500000D03*
X125100000Y-44700000D03*
X122000000Y-169000000D03*
X121100000Y-44700000D03*
X125100000Y-42900000D03*
X111500000Y-38400000D03*
X48600000Y-27000000D03*
X117600000Y-33000000D03*
X85000000Y-25700000D03*
X33200000Y-83400000D03*
X111600000Y-42300000D03*
X38900000Y-49700000D03*
X111500000Y-39700000D03*
X89800000Y-164500000D03*
X111600000Y-49900000D03*
X111600000Y-46100000D03*
X61500000Y-146500000D03*
X40900000Y-117500000D03*
X111600000Y-43500000D03*
X121500000Y-32300000D03*
X144000000Y-45300000D03*
X111600000Y-51200000D03*
X123700000Y-170900000D03*
X127600000Y-37850000D03*
D13*
X135200000Y-58400000D02*
X136000000Y-57600000D01*
X130300000Y-58400000D02*
X135200000Y-58400000D01*
D14*
X126600000Y-34900000D02*
X138000000Y-34900000D01*
X92248640Y-41648640D02*
X80351360Y-41648640D01*
X79245000Y-42755000D02*
X79245000Y-54780000D01*
X93100000Y-42500000D02*
X92248640Y-41648640D01*
X80351360Y-41648640D02*
X79245000Y-42755000D01*
X95100000Y-50600000D02*
X93100500Y-52599500D01*
X93100500Y-52599500D02*
X82134102Y-52599500D01*
X95100000Y-43900000D02*
X95100000Y-50600000D01*
D15*
X71750000Y-38500000D02*
X111400000Y-38500000D01*
X111400000Y-38500000D02*
X111500000Y-38400000D01*
X48600000Y-27000000D02*
X60250000Y-27000000D01*
X60250000Y-27000000D02*
X71750000Y-38500000D01*
X85000000Y-25700000D02*
X89600000Y-30300000D01*
X89600000Y-30300000D02*
X114900000Y-30300000D01*
X114900000Y-30300000D02*
X117600000Y-33000000D01*
X39465243Y-61499040D02*
X44362366Y-56601920D01*
X33200000Y-83400000D02*
X39201920Y-77398080D01*
X101655208Y-56601920D02*
X109100960Y-49156168D01*
X109100960Y-44299040D02*
X111100000Y-42300000D01*
X39201920Y-77398080D02*
X39201920Y-61762362D01*
X109100960Y-49156168D02*
X109100960Y-44299040D01*
X39201920Y-61762362D02*
X39465243Y-61499040D01*
X44362366Y-56601920D02*
X101655208Y-56601920D01*
X111100000Y-42300000D02*
X111600000Y-42300000D01*
X38900000Y-49700000D02*
X60964282Y-49700000D01*
X111300000Y-39700000D02*
X111500000Y-39700000D01*
X60964282Y-49700000D02*
X71714762Y-38949520D01*
X71714762Y-38949520D02*
X110549520Y-38949520D01*
X110549520Y-38949520D02*
X111300000Y-39700000D01*
X89800000Y-164500000D02*
X86749520Y-161449520D01*
X40550480Y-104986197D02*
X40550480Y-62320956D01*
X44920957Y-57950480D02*
X102213802Y-57950480D01*
X102213802Y-57950480D02*
X110264282Y-49900000D01*
X83813802Y-161449520D02*
X45350480Y-122986198D01*
X45350480Y-109786198D02*
X40550480Y-104986197D01*
X86749520Y-161449520D02*
X83813802Y-161449520D01*
X40550480Y-62320956D02*
X44920957Y-57950480D01*
X45350480Y-122986198D02*
X45350480Y-109786198D01*
X110264282Y-49900000D02*
X111600000Y-49900000D01*
X40100960Y-105172394D02*
X40100960Y-62134758D01*
X44900960Y-123172395D02*
X44900960Y-109972396D01*
X44734760Y-57500960D02*
X102027604Y-57500960D01*
X110000000Y-49528564D02*
X110000000Y-47700000D01*
X61500000Y-139771436D02*
X44900960Y-123172395D01*
X110000000Y-47700000D02*
X111600000Y-46100000D01*
X44900960Y-109972396D02*
X40100960Y-105172394D01*
X102027604Y-57500960D02*
X110000000Y-49528564D01*
X40100960Y-62134758D02*
X44734760Y-57500960D01*
X61500000Y-146500000D02*
X61500000Y-139771436D01*
X44451440Y-110158594D02*
X39651440Y-105358591D01*
X101841406Y-57051440D02*
X109550480Y-49342366D01*
X109550480Y-44485238D02*
X110535718Y-43500000D01*
X110535718Y-43500000D02*
X111600000Y-43500000D01*
X40900000Y-117500000D02*
X44451440Y-113948560D01*
X44451440Y-113948560D02*
X44451440Y-110158594D01*
X44548563Y-57051440D02*
X101841406Y-57051440D01*
X109550480Y-49342366D02*
X109550480Y-44485238D01*
X39651440Y-105358591D02*
X39651440Y-61948560D01*
X39651440Y-61948560D02*
X44548563Y-57051440D01*
D14*
X144000000Y-36100000D02*
X144000000Y-45300000D01*
X140200000Y-32300000D02*
X144000000Y-36100000D01*
X121500000Y-32300000D02*
X140200000Y-32300000D01*
D15*
X122412307Y-169612307D02*
X123700000Y-170900000D01*
X41000000Y-62507154D02*
X41000000Y-104800000D01*
X109600000Y-51200000D02*
X102400000Y-58400000D01*
X121699897Y-169724511D02*
X122300103Y-169724511D01*
X102400000Y-58400000D02*
X45107154Y-58400000D01*
X45800000Y-109600000D02*
X45800000Y-122800000D01*
X122300103Y-169724511D02*
X122412307Y-169612307D01*
X41000000Y-104800000D02*
X45800000Y-109600000D01*
X45800000Y-122800000D02*
X84000000Y-161000000D01*
X111600000Y-51200000D02*
X109600000Y-51200000D01*
X45107154Y-58400000D02*
X41000000Y-62507154D01*
X84000000Y-161000000D02*
X112975386Y-161000000D01*
X112975386Y-161000000D02*
X121699897Y-169724511D01*
D13*
X127475000Y-61675000D02*
X127600000Y-61550000D01*
X127600000Y-61550000D02*
X127600000Y-37850000D01*
G04 #@! TA.AperFunction,Conductor*
G36*
X51293470Y-19311342D02*
G01*
X51368790Y-19311857D01*
X51375637Y-19312090D01*
X51460965Y-19317320D01*
X51468018Y-19317952D01*
X51540084Y-19326453D01*
X51555449Y-19328266D01*
X51559040Y-19328741D01*
X58111149Y-20294280D01*
X68900867Y-21884286D01*
X68907077Y-21885361D01*
X68916220Y-21887180D01*
X68916230Y-21887181D01*
X68922293Y-21888387D01*
X68928012Y-21888387D01*
X68928689Y-21888470D01*
X68929373Y-21888487D01*
X68935029Y-21889320D01*
X68949201Y-21888610D01*
X68950507Y-21888545D01*
X68956808Y-21888387D01*
X174767861Y-21888387D01*
X174774162Y-21888545D01*
X174775468Y-21888610D01*
X174789640Y-21889320D01*
X174795295Y-21888487D01*
X174795983Y-21888470D01*
X174796659Y-21888387D01*
X174802377Y-21888387D01*
X174817608Y-21885357D01*
X174823796Y-21884286D01*
X185613556Y-20294280D01*
X192165624Y-19328751D01*
X192169227Y-19328273D01*
X192203215Y-19324262D01*
X192256680Y-19317954D01*
X192263717Y-19317324D01*
X192290963Y-19315653D01*
X192348997Y-19312095D01*
X192355846Y-19311862D01*
X192433945Y-19311328D01*
X192444240Y-19311258D01*
X192450990Y-19311393D01*
X192460903Y-19311857D01*
X192541994Y-19315653D01*
X192548775Y-19316154D01*
X192566561Y-19317952D01*
X192641810Y-19325559D01*
X192648754Y-19326458D01*
X192743234Y-19341365D01*
X192750454Y-19342721D01*
X192832986Y-19360744D01*
X192845963Y-19363578D01*
X192853567Y-19365489D01*
X192949809Y-19392877D01*
X192957749Y-19395423D01*
X193054849Y-19430172D01*
X193063013Y-19433422D01*
X193156425Y-19474453D01*
X193161228Y-19476563D01*
X193169532Y-19480580D01*
X193269454Y-19533508D01*
X193277607Y-19538225D01*
X193379988Y-19602683D01*
X193387715Y-19607958D01*
X193493387Y-19686007D01*
X193500428Y-19691607D01*
X193610027Y-19785395D01*
X193616240Y-19791082D01*
X193730191Y-19902637D01*
X193735493Y-19908153D01*
X193832063Y-20014921D01*
X193842267Y-20029113D01*
X193846241Y-20033758D01*
X193852314Y-20044581D01*
X193862066Y-20052255D01*
X193862117Y-20052315D01*
X193880158Y-20069702D01*
X194348397Y-20621483D01*
X194349049Y-20622257D01*
X194836405Y-21206010D01*
X194837051Y-21206790D01*
X195296404Y-21766077D01*
X195310282Y-21786919D01*
X195310335Y-21786984D01*
X195316146Y-21797951D01*
X195325713Y-21805861D01*
X195328910Y-21809785D01*
X195341958Y-21823251D01*
X198165452Y-25465558D01*
X198169066Y-25470460D01*
X200806486Y-29235296D01*
X200809851Y-29240354D01*
X203241630Y-33094480D01*
X203244736Y-33099677D01*
X203892705Y-34245102D01*
X205325020Y-36777027D01*
X205471342Y-37035683D01*
X205474178Y-37040988D01*
X206080047Y-38242733D01*
X207496179Y-41051641D01*
X207498752Y-41057062D01*
X209316620Y-45134952D01*
X209318921Y-45140460D01*
X209819579Y-46423798D01*
X210927601Y-49263992D01*
X210933193Y-49278327D01*
X210935215Y-49283896D01*
X211831489Y-51945392D01*
X212346378Y-53474362D01*
X212348132Y-53480003D01*
X213556692Y-57715750D01*
X213556696Y-57715765D01*
X213558172Y-57721438D01*
X214564635Y-61995148D01*
X214564636Y-61995153D01*
X214565841Y-62000862D01*
X215370698Y-66305197D01*
X215371628Y-66310902D01*
X215778688Y-69228659D01*
X215975369Y-70638447D01*
X215976039Y-70644213D01*
X216379166Y-74987682D01*
X216379568Y-74993455D01*
X216582577Y-79345465D01*
X216582714Y-79351238D01*
X216584436Y-81562997D01*
X216586095Y-83693605D01*
X216586103Y-83704454D01*
X216585975Y-83710210D01*
X216510872Y-85378198D01*
X216390242Y-88057266D01*
X216389853Y-88062998D01*
X216374270Y-88234245D01*
X215995493Y-92396612D01*
X215994839Y-92402342D01*
X215402358Y-96715071D01*
X215401441Y-96720772D01*
X214611342Y-101005264D01*
X214610162Y-101010930D01*
X213707791Y-104894697D01*
X213622944Y-105259874D01*
X213621505Y-105265476D01*
X212975691Y-107559981D01*
X212437662Y-109471538D01*
X212435955Y-109477107D01*
X212179584Y-110249181D01*
X211055996Y-113632913D01*
X211054040Y-113638379D01*
X210378817Y-115394695D01*
X209478466Y-117736590D01*
X209476229Y-117742025D01*
X209295712Y-118153207D01*
X208301156Y-120418607D01*
X207705576Y-121775218D01*
X207703080Y-121780558D01*
X205956152Y-125301428D01*
X205737790Y-125741528D01*
X205735029Y-125746778D01*
X205592745Y-126002522D01*
X203575642Y-129628094D01*
X203572617Y-129633241D01*
X201219601Y-133427619D01*
X201216319Y-133432641D01*
X201012551Y-133728760D01*
X199141674Y-136447544D01*
X198670147Y-137132773D01*
X198666618Y-137137646D01*
X196118106Y-140486120D01*
X195927829Y-140736124D01*
X195924053Y-140740845D01*
X192996698Y-144226098D01*
X192993086Y-144230398D01*
X192989074Y-144234947D01*
X190734346Y-146670641D01*
X189866416Y-147608231D01*
X189862172Y-147612600D01*
X188736280Y-148716682D01*
X187053712Y-150366658D01*
X186548236Y-150862342D01*
X186543790Y-150866496D01*
X183832695Y-153279574D01*
X183076809Y-153952369D01*
X183072166Y-153956305D01*
X182061700Y-154771696D01*
X179494853Y-156843003D01*
X179490035Y-156846703D01*
X175809731Y-159534258D01*
X175804757Y-159537710D01*
X172028812Y-162026143D01*
X172023723Y-162029325D01*
X168159417Y-164318692D01*
X168154219Y-164321606D01*
X164209003Y-166411858D01*
X164203686Y-166414518D01*
X163221564Y-166876684D01*
X160184787Y-168305729D01*
X160179355Y-168308130D01*
X159037044Y-168781293D01*
X156094231Y-170000252D01*
X156088754Y-170002371D01*
X151944689Y-171495435D01*
X151939136Y-171497290D01*
X147743558Y-172791274D01*
X147737945Y-172792864D01*
X146343100Y-173153080D01*
X143498096Y-173887797D01*
X143492423Y-173889122D01*
X139215820Y-174784965D01*
X139210113Y-174786024D01*
X134903979Y-175482804D01*
X134898247Y-175483597D01*
X130570039Y-175981296D01*
X130564288Y-175981824D01*
X127270806Y-176208283D01*
X126221305Y-176280446D01*
X126215552Y-176280710D01*
X123405713Y-176345003D01*
X121865213Y-176380252D01*
X121859449Y-176380252D01*
X120318703Y-176344998D01*
X117509108Y-176280710D01*
X117503355Y-176280446D01*
X116453343Y-176208248D01*
X113160374Y-175981824D01*
X113154623Y-175981296D01*
X108826415Y-175483597D01*
X108820683Y-175482804D01*
X104514549Y-174786024D01*
X104508842Y-174784965D01*
X100232233Y-173889121D01*
X100226560Y-173887796D01*
X97380805Y-173152885D01*
X95986736Y-172792869D01*
X95981123Y-172791279D01*
X91785526Y-171497290D01*
X91779973Y-171495435D01*
X87635893Y-170002365D01*
X87630413Y-170000245D01*
X85423193Y-169085980D01*
X83545308Y-168308130D01*
X83539876Y-168305729D01*
X80484213Y-166867797D01*
X79520988Y-166414523D01*
X79515665Y-166411861D01*
X75570461Y-164321615D01*
X75565227Y-164318681D01*
X74951449Y-163955055D01*
X71700939Y-162029325D01*
X71695850Y-162026143D01*
X67919905Y-159537710D01*
X67914931Y-159534258D01*
X64234627Y-156846703D01*
X64229809Y-156843003D01*
X61852257Y-154924448D01*
X60652497Y-153956307D01*
X60647862Y-153952378D01*
X59844541Y-153237361D01*
X57180873Y-150866496D01*
X57176427Y-150862342D01*
X56826240Y-150518938D01*
X55009414Y-148737307D01*
X53862490Y-147612600D01*
X53858246Y-147608231D01*
X52990316Y-146670641D01*
X50735588Y-144234947D01*
X50731576Y-144230398D01*
X50727965Y-144226098D01*
X47800599Y-140740832D01*
X47796823Y-140736111D01*
X47606556Y-140486120D01*
X45058039Y-137137639D01*
X45054508Y-137132763D01*
X44586768Y-136453036D01*
X42508352Y-133432655D01*
X42505070Y-133427633D01*
X40152050Y-129633250D01*
X40149025Y-129628103D01*
X38131919Y-126002525D01*
X37989637Y-125746784D01*
X37986877Y-125741536D01*
X37768511Y-125301428D01*
X36021586Y-121780567D01*
X36019090Y-121775227D01*
X35423507Y-120418607D01*
X35133760Y-119758623D01*
X34248430Y-117742018D01*
X34246193Y-117736583D01*
X33355100Y-115418768D01*
X32670617Y-113638366D01*
X32668658Y-113632892D01*
X31545079Y-110249182D01*
X31288705Y-109477100D01*
X31286998Y-109471531D01*
X30747360Y-107554259D01*
X30103162Y-105265496D01*
X30101725Y-105259900D01*
X30022695Y-104919756D01*
X29114500Y-101010930D01*
X29113320Y-101005264D01*
X28323221Y-96720772D01*
X28322304Y-96715071D01*
X27729823Y-92402342D01*
X27729169Y-92396612D01*
X27350392Y-88234245D01*
X27334809Y-88062998D01*
X27334420Y-88057266D01*
X27213791Y-85378198D01*
X27138687Y-83710210D01*
X27138559Y-83704454D01*
X27138568Y-83693605D01*
X27138802Y-83393096D01*
X32540729Y-83393096D01*
X32558113Y-83550553D01*
X32612553Y-83699319D01*
X32616789Y-83705622D01*
X32616789Y-83705623D01*
X32642260Y-83743527D01*
X32700908Y-83830805D01*
X32706527Y-83835918D01*
X32706528Y-83835919D01*
X32717903Y-83846269D01*
X32818076Y-83937419D01*
X32957293Y-84013008D01*
X33110522Y-84053207D01*
X33194477Y-84054526D01*
X33261319Y-84055576D01*
X33261322Y-84055576D01*
X33268916Y-84055695D01*
X33423332Y-84020329D01*
X33493742Y-83984917D01*
X33558072Y-83952563D01*
X33558075Y-83952561D01*
X33564855Y-83949151D01*
X33570626Y-83944222D01*
X33570629Y-83944220D01*
X33679536Y-83851204D01*
X33679536Y-83851203D01*
X33685314Y-83846269D01*
X33777755Y-83717624D01*
X33836842Y-83570641D01*
X33859162Y-83413807D01*
X33859307Y-83400000D01*
X33853437Y-83351496D01*
X33865109Y-83281468D01*
X33889429Y-83247265D01*
X39056845Y-78079849D01*
X39119157Y-78045823D01*
X39189972Y-78050888D01*
X39246808Y-78093435D01*
X39271619Y-78159955D01*
X39271940Y-78168944D01*
X39271940Y-105304671D01*
X39269391Y-105328619D01*
X39269312Y-105330284D01*
X39267120Y-105340467D01*
X39268344Y-105350808D01*
X39271067Y-105373814D01*
X39271417Y-105379745D01*
X39271512Y-105379737D01*
X39271940Y-105384915D01*
X39271940Y-105390115D01*
X39272794Y-105395244D01*
X39272794Y-105395247D01*
X39275109Y-105409156D01*
X39275946Y-105415034D01*
X39281970Y-105465932D01*
X39285933Y-105474184D01*
X39287436Y-105483217D01*
X39292383Y-105492386D01*
X39292384Y-105492388D01*
X39311774Y-105528323D01*
X39314471Y-105533616D01*
X39333225Y-105572673D01*
X39333228Y-105572677D01*
X39336659Y-105579823D01*
X39340254Y-105584099D01*
X39342177Y-105586022D01*
X39343949Y-105587954D01*
X39343992Y-105588033D01*
X39343868Y-105588146D01*
X39344344Y-105588686D01*
X39347430Y-105594405D01*
X39355075Y-105601472D01*
X39387026Y-105631007D01*
X39390592Y-105634437D01*
X44035035Y-110278883D01*
X44069061Y-110341195D01*
X44071940Y-110367978D01*
X44071940Y-113739176D01*
X44051938Y-113807297D01*
X44035035Y-113828271D01*
X41054411Y-116808895D01*
X40992099Y-116842921D01*
X40964658Y-116845798D01*
X40824221Y-116845062D01*
X40816841Y-116846834D01*
X40816839Y-116846834D01*
X40677563Y-116880271D01*
X40677560Y-116880272D01*
X40670184Y-116882043D01*
X40529414Y-116954700D01*
X40410039Y-117058838D01*
X40318950Y-117188444D01*
X40261406Y-117336037D01*
X40260414Y-117343570D01*
X40260414Y-117343571D01*
X40254220Y-117390623D01*
X40240729Y-117493096D01*
X40258113Y-117650553D01*
X40260723Y-117657684D01*
X40260723Y-117657686D01*
X40291587Y-117742025D01*
X40312553Y-117799319D01*
X40316789Y-117805622D01*
X40316789Y-117805623D01*
X40386494Y-117909354D01*
X40400908Y-117930805D01*
X40406527Y-117935918D01*
X40406528Y-117935919D01*
X40444835Y-117970775D01*
X40518076Y-118037419D01*
X40657293Y-118113008D01*
X40810522Y-118153207D01*
X40894477Y-118154526D01*
X40961319Y-118155576D01*
X40961322Y-118155576D01*
X40968916Y-118155695D01*
X41123332Y-118120329D01*
X41193742Y-118084917D01*
X41258072Y-118052563D01*
X41258075Y-118052561D01*
X41264855Y-118049151D01*
X41270626Y-118044222D01*
X41270629Y-118044220D01*
X41379536Y-117951204D01*
X41379536Y-117951203D01*
X41385314Y-117946269D01*
X41477755Y-117817624D01*
X41536842Y-117670641D01*
X41559162Y-117513807D01*
X41559307Y-117500000D01*
X41553437Y-117451496D01*
X41565109Y-117381468D01*
X41589429Y-117347265D01*
X44306365Y-114630329D01*
X44368677Y-114596303D01*
X44439492Y-114601368D01*
X44496328Y-114643915D01*
X44521139Y-114710435D01*
X44521460Y-114719424D01*
X44521460Y-123118475D01*
X44518911Y-123142423D01*
X44518832Y-123144088D01*
X44516640Y-123154271D01*
X44517864Y-123164612D01*
X44520587Y-123187618D01*
X44520937Y-123193549D01*
X44521032Y-123193541D01*
X44521460Y-123198719D01*
X44521460Y-123203919D01*
X44522314Y-123209048D01*
X44522314Y-123209051D01*
X44524629Y-123222960D01*
X44525466Y-123228838D01*
X44531490Y-123279736D01*
X44535453Y-123287988D01*
X44536956Y-123297021D01*
X44541903Y-123306190D01*
X44541904Y-123306192D01*
X44561294Y-123342127D01*
X44563991Y-123347420D01*
X44582745Y-123386477D01*
X44582748Y-123386481D01*
X44586179Y-123393627D01*
X44589774Y-123397903D01*
X44591697Y-123399826D01*
X44593469Y-123401758D01*
X44593512Y-123401837D01*
X44593388Y-123401950D01*
X44593864Y-123402490D01*
X44596950Y-123408209D01*
X44604595Y-123415276D01*
X44636546Y-123444811D01*
X44640112Y-123448241D01*
X61083595Y-139891725D01*
X61117621Y-139954037D01*
X61120500Y-139980820D01*
X61120500Y-145905187D01*
X61100498Y-145973308D01*
X61077330Y-146000135D01*
X61010039Y-146058838D01*
X60918950Y-146188444D01*
X60861406Y-146336037D01*
X60840729Y-146493096D01*
X60849421Y-146571825D01*
X60856487Y-146635824D01*
X60858113Y-146650553D01*
X60860723Y-146657684D01*
X60860723Y-146657686D01*
X60884523Y-146722722D01*
X60912553Y-146799319D01*
X61000908Y-146930805D01*
X61006527Y-146935918D01*
X61006528Y-146935919D01*
X61017903Y-146946269D01*
X61118076Y-147037419D01*
X61257293Y-147113008D01*
X61410522Y-147153207D01*
X61494477Y-147154526D01*
X61561319Y-147155576D01*
X61561322Y-147155576D01*
X61568916Y-147155695D01*
X61723332Y-147120329D01*
X61793742Y-147084917D01*
X61858072Y-147052563D01*
X61858075Y-147052561D01*
X61864855Y-147049151D01*
X61870626Y-147044222D01*
X61870629Y-147044220D01*
X61979536Y-146951204D01*
X61979536Y-146951203D01*
X61985314Y-146946269D01*
X62077755Y-146817624D01*
X62136842Y-146670641D01*
X62159162Y-146513807D01*
X62159307Y-146500000D01*
X62140276Y-146342733D01*
X62084280Y-146194546D01*
X61994553Y-146063992D01*
X61921681Y-145999065D01*
X61884126Y-145938816D01*
X61879500Y-145904989D01*
X61879500Y-140356102D01*
X61899502Y-140287981D01*
X61953158Y-140241488D01*
X62023432Y-140231384D01*
X62088012Y-140260878D01*
X62094595Y-140267007D01*
X83507324Y-161679736D01*
X83522466Y-161698484D01*
X83523581Y-161699709D01*
X83529231Y-161708460D01*
X83537409Y-161714907D01*
X83537411Y-161714909D01*
X83555602Y-161729249D01*
X83560043Y-161733195D01*
X83560105Y-161733122D01*
X83564069Y-161736481D01*
X83567746Y-161740158D01*
X83583494Y-161751412D01*
X83588164Y-161754918D01*
X83628449Y-161786676D01*
X83637083Y-161789708D01*
X83644536Y-161795034D01*
X83693652Y-161809723D01*
X83699294Y-161811556D01*
X83740169Y-161825910D01*
X83747653Y-161828538D01*
X83753218Y-161829020D01*
X83755926Y-161829020D01*
X83758560Y-161829134D01*
X83758658Y-161829163D01*
X83758651Y-161829327D01*
X83759355Y-161829371D01*
X83765580Y-161831233D01*
X83819437Y-161829117D01*
X83824384Y-161829020D01*
X86540136Y-161829020D01*
X86608257Y-161849022D01*
X86629231Y-161865925D01*
X89110249Y-164346943D01*
X89144275Y-164409255D01*
X89146076Y-164452482D01*
X89140729Y-164493096D01*
X89158113Y-164650553D01*
X89160723Y-164657684D01*
X89160723Y-164657686D01*
X89202958Y-164773098D01*
X89212553Y-164799319D01*
X89300908Y-164930805D01*
X89306527Y-164935918D01*
X89306528Y-164935919D01*
X89317903Y-164946269D01*
X89418076Y-165037419D01*
X89557293Y-165113008D01*
X89710522Y-165153207D01*
X89794477Y-165154526D01*
X89861319Y-165155576D01*
X89861322Y-165155576D01*
X89868916Y-165155695D01*
X90023332Y-165120329D01*
X90093742Y-165084917D01*
X90158072Y-165052563D01*
X90158075Y-165052561D01*
X90164855Y-165049151D01*
X90170626Y-165044222D01*
X90170629Y-165044220D01*
X90279536Y-164951204D01*
X90279536Y-164951203D01*
X90285314Y-164946269D01*
X90377755Y-164817624D01*
X90436842Y-164670641D01*
X90459162Y-164513807D01*
X90459307Y-164500000D01*
X90457561Y-164485567D01*
X90441188Y-164350273D01*
X90440276Y-164342733D01*
X90384280Y-164194546D01*
X90294553Y-164063992D01*
X90176275Y-163958611D01*
X90036274Y-163884484D01*
X89882633Y-163845892D01*
X89875034Y-163845852D01*
X89875033Y-163845852D01*
X89814626Y-163845536D01*
X89733335Y-163845110D01*
X89665321Y-163824752D01*
X89644901Y-163808207D01*
X87431289Y-161594595D01*
X87397263Y-161532283D01*
X87402328Y-161461468D01*
X87444875Y-161404632D01*
X87511395Y-161379821D01*
X87520384Y-161379500D01*
X112766002Y-161379500D01*
X112834123Y-161399502D01*
X112855097Y-161416405D01*
X121393419Y-169954727D01*
X121408561Y-169973475D01*
X121409676Y-169974700D01*
X121415326Y-169983451D01*
X121423504Y-169989898D01*
X121423506Y-169989900D01*
X121441697Y-170004240D01*
X121446138Y-170008186D01*
X121446200Y-170008113D01*
X121450164Y-170011472D01*
X121453841Y-170015149D01*
X121469589Y-170026403D01*
X121474259Y-170029909D01*
X121514544Y-170061667D01*
X121523178Y-170064699D01*
X121530631Y-170070025D01*
X121579747Y-170084714D01*
X121585389Y-170086547D01*
X121626264Y-170100901D01*
X121633748Y-170103529D01*
X121639313Y-170104011D01*
X121642021Y-170104011D01*
X121644655Y-170104125D01*
X121644753Y-170104154D01*
X121644746Y-170104318D01*
X121645450Y-170104362D01*
X121651675Y-170106224D01*
X121705532Y-170104108D01*
X121710479Y-170104011D01*
X122246183Y-170104011D01*
X122270131Y-170106560D01*
X122271796Y-170106639D01*
X122281979Y-170108831D01*
X122292321Y-170107607D01*
X122292322Y-170107607D01*
X122301902Y-170106473D01*
X122371901Y-170118327D01*
X122405810Y-170142504D01*
X123010249Y-170746943D01*
X123044275Y-170809255D01*
X123046076Y-170852482D01*
X123040729Y-170893096D01*
X123058113Y-171050553D01*
X123112553Y-171199319D01*
X123200908Y-171330805D01*
X123206527Y-171335918D01*
X123206528Y-171335919D01*
X123217903Y-171346269D01*
X123318076Y-171437419D01*
X123457293Y-171513008D01*
X123610522Y-171553207D01*
X123694477Y-171554526D01*
X123761319Y-171555576D01*
X123761322Y-171555576D01*
X123768916Y-171555695D01*
X123923332Y-171520329D01*
X123993742Y-171484917D01*
X124058072Y-171452563D01*
X124058075Y-171452561D01*
X124064855Y-171449151D01*
X124070626Y-171444222D01*
X124070629Y-171444220D01*
X124179536Y-171351204D01*
X124179536Y-171351203D01*
X124185314Y-171346269D01*
X124277755Y-171217624D01*
X124336842Y-171070641D01*
X124359162Y-170913807D01*
X124359307Y-170900000D01*
X124357561Y-170885567D01*
X124341188Y-170750273D01*
X124340276Y-170742733D01*
X124284280Y-170594546D01*
X124194553Y-170463992D01*
X124076275Y-170358611D01*
X123936274Y-170284484D01*
X123782633Y-170245892D01*
X123775034Y-170245852D01*
X123775033Y-170245852D01*
X123714626Y-170245536D01*
X123633335Y-170245110D01*
X123565321Y-170224752D01*
X123544901Y-170208207D01*
X122696316Y-169359622D01*
X122688960Y-169351602D01*
X122668880Y-169327714D01*
X122662180Y-169319743D01*
X122629599Y-169300128D01*
X122625082Y-169297408D01*
X122616813Y-169291976D01*
X122590049Y-169272850D01*
X122581573Y-169266793D01*
X122571595Y-169263809D01*
X122567315Y-169261712D01*
X122562861Y-169259949D01*
X122553942Y-169254579D01*
X122511591Y-169245461D01*
X122502038Y-169243007D01*
X122470509Y-169233578D01*
X122470506Y-169233578D01*
X122460529Y-169230594D01*
X122450120Y-169231003D01*
X122445384Y-169230405D01*
X122440616Y-169230180D01*
X122430431Y-169227987D01*
X122420088Y-169229211D01*
X122420085Y-169229211D01*
X122387425Y-169233077D01*
X122377570Y-169233853D01*
X122334286Y-169235554D01*
X122324572Y-169239312D01*
X122319889Y-169240282D01*
X122315303Y-169241615D01*
X122304966Y-169242838D01*
X122265938Y-169261579D01*
X122256857Y-169265509D01*
X122216455Y-169281139D01*
X122208481Y-169287842D01*
X122201643Y-169291886D01*
X122198219Y-169294097D01*
X122191075Y-169297527D01*
X122186799Y-169301121D01*
X122179814Y-169308106D01*
X122117502Y-169342132D01*
X122090719Y-169345011D01*
X121909282Y-169345011D01*
X121841161Y-169325009D01*
X121820187Y-169308106D01*
X113281864Y-160769784D01*
X113266722Y-160751036D01*
X113265607Y-160749811D01*
X113259957Y-160741060D01*
X113251779Y-160734613D01*
X113251777Y-160734611D01*
X113233586Y-160720271D01*
X113229145Y-160716325D01*
X113229083Y-160716398D01*
X113225119Y-160713039D01*
X113221442Y-160709362D01*
X113205694Y-160698108D01*
X113201024Y-160694602D01*
X113160739Y-160662844D01*
X113152105Y-160659812D01*
X113144652Y-160654486D01*
X113095536Y-160639797D01*
X113089894Y-160637964D01*
X113049019Y-160623610D01*
X113049018Y-160623610D01*
X113041535Y-160620982D01*
X113035970Y-160620500D01*
X113033262Y-160620500D01*
X113030628Y-160620386D01*
X113030530Y-160620357D01*
X113030537Y-160620193D01*
X113029833Y-160620149D01*
X113023608Y-160618287D01*
X112969751Y-160620403D01*
X112964804Y-160620500D01*
X84209384Y-160620500D01*
X84141263Y-160600498D01*
X84120289Y-160583595D01*
X80176694Y-156640000D01*
X99441247Y-156640000D01*
X99460241Y-156941897D01*
X99516922Y-157239033D01*
X99610398Y-157526721D01*
X99612085Y-157530307D01*
X99612087Y-157530311D01*
X99737506Y-157796840D01*
X99737510Y-157796847D01*
X99739194Y-157800426D01*
X99901278Y-158055829D01*
X100094095Y-158288905D01*
X100314603Y-158495976D01*
X100317805Y-158498303D01*
X100317807Y-158498304D01*
X100556117Y-158671446D01*
X100556122Y-158671449D01*
X100559326Y-158673777D01*
X100702654Y-158752573D01*
X100802752Y-158807602D01*
X100824403Y-158819505D01*
X101052062Y-158909642D01*
X101082875Y-158921841D01*
X101105654Y-158930860D01*
X101398645Y-159006087D01*
X101698753Y-159044000D01*
X102001247Y-159044000D01*
X102301355Y-159006087D01*
X102594346Y-158930860D01*
X102617126Y-158921841D01*
X102647938Y-158909642D01*
X102875597Y-158819505D01*
X102897249Y-158807602D01*
X102997346Y-158752573D01*
X103140674Y-158673777D01*
X103143878Y-158671449D01*
X103143883Y-158671446D01*
X103382193Y-158498304D01*
X103382195Y-158498303D01*
X103385397Y-158495976D01*
X103605905Y-158288905D01*
X103798722Y-158055829D01*
X103960806Y-157800426D01*
X103962490Y-157796847D01*
X103962494Y-157796840D01*
X104087913Y-157530311D01*
X104087915Y-157530307D01*
X104089602Y-157526721D01*
X104183078Y-157239033D01*
X104239759Y-156941897D01*
X104258753Y-156640000D01*
X104258124Y-156630000D01*
X139461247Y-156630000D01*
X139480241Y-156931897D01*
X139536922Y-157229033D01*
X139630398Y-157516721D01*
X139632085Y-157520307D01*
X139632087Y-157520311D01*
X139757506Y-157786840D01*
X139757510Y-157786847D01*
X139759194Y-157790426D01*
X139921278Y-158045829D01*
X140114095Y-158278905D01*
X140334603Y-158485976D01*
X140337805Y-158488303D01*
X140337807Y-158488304D01*
X140576117Y-158661446D01*
X140576122Y-158661449D01*
X140579326Y-158663777D01*
X140844403Y-158809505D01*
X141125654Y-158920860D01*
X141418645Y-158996087D01*
X141718753Y-159034000D01*
X142021247Y-159034000D01*
X142321355Y-158996087D01*
X142614346Y-158920860D01*
X142895597Y-158809505D01*
X143160674Y-158663777D01*
X143163878Y-158661449D01*
X143163883Y-158661446D01*
X143402193Y-158488304D01*
X143402195Y-158488303D01*
X143405397Y-158485976D01*
X143625905Y-158278905D01*
X143818722Y-158045829D01*
X143980806Y-157790426D01*
X143982490Y-157786847D01*
X143982494Y-157786840D01*
X144107913Y-157520311D01*
X144107915Y-157520307D01*
X144109602Y-157516721D01*
X144203078Y-157229033D01*
X144259759Y-156931897D01*
X144278753Y-156630000D01*
X144259759Y-156328103D01*
X144203078Y-156030967D01*
X144109602Y-155743279D01*
X144107913Y-155739689D01*
X143982494Y-155473160D01*
X143982490Y-155473153D01*
X143980806Y-155469574D01*
X143818722Y-155214171D01*
X143625905Y-154981095D01*
X143405397Y-154774024D01*
X143402193Y-154771696D01*
X143163883Y-154598554D01*
X143163878Y-154598551D01*
X143160674Y-154596223D01*
X143017346Y-154517427D01*
X142899059Y-154452398D01*
X142899056Y-154452396D01*
X142895597Y-154450495D01*
X142639603Y-154349140D01*
X142618016Y-154340593D01*
X142618015Y-154340593D01*
X142614346Y-154339140D01*
X142321355Y-154263913D01*
X142021247Y-154226000D01*
X141718753Y-154226000D01*
X141418645Y-154263913D01*
X141125654Y-154339140D01*
X141121985Y-154340593D01*
X141121984Y-154340593D01*
X141100397Y-154349140D01*
X140844403Y-154450495D01*
X140840944Y-154452396D01*
X140840941Y-154452398D01*
X140722654Y-154517427D01*
X140579326Y-154596223D01*
X140576122Y-154598551D01*
X140576117Y-154598554D01*
X140337807Y-154771696D01*
X140334603Y-154774024D01*
X140114095Y-154981095D01*
X139921278Y-155214171D01*
X139759194Y-155469574D01*
X139757510Y-155473153D01*
X139757506Y-155473160D01*
X139632087Y-155739689D01*
X139630398Y-155743279D01*
X139536922Y-156030967D01*
X139480241Y-156328103D01*
X139464994Y-156570445D01*
X139461247Y-156630000D01*
X104258124Y-156630000D01*
X104239759Y-156338103D01*
X104183078Y-156040967D01*
X104089602Y-155753279D01*
X104086672Y-155747052D01*
X103962494Y-155483160D01*
X103962490Y-155483153D01*
X103960806Y-155479574D01*
X103798722Y-155224171D01*
X103605905Y-154991095D01*
X103385397Y-154784024D01*
X103368429Y-154771696D01*
X103143883Y-154608554D01*
X103143878Y-154608551D01*
X103140674Y-154606223D01*
X102875597Y-154460495D01*
X102594346Y-154349140D01*
X102301355Y-154273913D01*
X102001247Y-154236000D01*
X101698753Y-154236000D01*
X101398645Y-154273913D01*
X101105654Y-154349140D01*
X100824403Y-154460495D01*
X100559326Y-154606223D01*
X100556122Y-154608551D01*
X100556117Y-154608554D01*
X100331571Y-154771696D01*
X100314603Y-154784024D01*
X100094095Y-154991095D01*
X99901278Y-155224171D01*
X99739194Y-155479574D01*
X99737510Y-155483153D01*
X99737506Y-155483160D01*
X99613328Y-155747052D01*
X99610398Y-155753279D01*
X99516922Y-156040967D01*
X99460241Y-156338103D01*
X99444994Y-156580445D01*
X99441247Y-156640000D01*
X80176694Y-156640000D01*
X46216405Y-122679711D01*
X46182379Y-122617399D01*
X46179500Y-122590616D01*
X46179500Y-109653920D01*
X46182049Y-109629972D01*
X46182128Y-109628307D01*
X46184320Y-109618124D01*
X46180373Y-109584777D01*
X46180023Y-109578846D01*
X46179928Y-109578854D01*
X46179500Y-109573676D01*
X46179500Y-109568476D01*
X46178646Y-109563344D01*
X46176331Y-109549435D01*
X46175494Y-109543557D01*
X46170694Y-109502999D01*
X46170694Y-109502998D01*
X46169470Y-109492659D01*
X46165507Y-109484407D01*
X46164004Y-109475374D01*
X46139665Y-109430266D01*
X46136969Y-109424975D01*
X46118215Y-109385918D01*
X46118212Y-109385914D01*
X46114781Y-109378768D01*
X46111186Y-109374492D01*
X46109263Y-109372569D01*
X46107491Y-109370637D01*
X46107448Y-109370558D01*
X46107572Y-109370445D01*
X46107096Y-109369905D01*
X46104010Y-109364186D01*
X46064413Y-109327583D01*
X46060848Y-109324154D01*
X41416405Y-104679711D01*
X41382379Y-104617399D01*
X41379500Y-104590616D01*
X41379500Y-84396905D01*
X41399502Y-84328784D01*
X41453158Y-84282291D01*
X41523432Y-84272187D01*
X41588012Y-84301681D01*
X41626396Y-84361407D01*
X41631452Y-84393416D01*
X41657313Y-85326905D01*
X41657307Y-85328631D01*
X41656746Y-85332832D01*
X41657139Y-85339010D01*
X41657900Y-85350986D01*
X41658106Y-85355492D01*
X41658611Y-85373727D01*
X41659554Y-85377868D01*
X41659717Y-85379589D01*
X41776209Y-87212286D01*
X41837825Y-88181667D01*
X41837881Y-88183401D01*
X41837470Y-88187612D01*
X41839283Y-88205829D01*
X41839639Y-88210206D01*
X41840798Y-88228443D01*
X41841884Y-88232529D01*
X41842107Y-88234230D01*
X42119169Y-91019538D01*
X42119286Y-91021262D01*
X42119026Y-91025472D01*
X42119857Y-91031603D01*
X42119857Y-91031609D01*
X42121480Y-91043583D01*
X42122002Y-91048026D01*
X42123809Y-91066186D01*
X42125037Y-91070221D01*
X42125318Y-91071894D01*
X42500213Y-93838064D01*
X42500388Y-93839755D01*
X42500278Y-93843959D01*
X42503381Y-93862017D01*
X42504052Y-93866388D01*
X42505675Y-93878368D01*
X42505676Y-93878373D01*
X42506507Y-93884503D01*
X42507874Y-93888481D01*
X42508215Y-93890150D01*
X42979818Y-96634749D01*
X42980052Y-96636424D01*
X42980091Y-96640619D01*
X42981354Y-96646675D01*
X42983821Y-96658507D01*
X42984655Y-96662892D01*
X42987756Y-96680941D01*
X42989260Y-96684859D01*
X42989655Y-96686497D01*
X43016991Y-96817615D01*
X43556854Y-99407164D01*
X43557145Y-99408816D01*
X43557331Y-99413003D01*
X43558808Y-99419016D01*
X43558808Y-99419018D01*
X43561701Y-99430796D01*
X43562676Y-99435092D01*
X43566420Y-99453050D01*
X43568056Y-99456901D01*
X43568509Y-99458523D01*
X44230179Y-102152847D01*
X44230530Y-102154497D01*
X44230862Y-102158658D01*
X44232546Y-102164602D01*
X44232546Y-102164604D01*
X44235861Y-102176307D01*
X44236984Y-102180554D01*
X44241361Y-102198378D01*
X44243129Y-102202162D01*
X44243634Y-102203751D01*
X44621151Y-103536563D01*
X44934494Y-104642806D01*
X44998669Y-104869375D01*
X44999071Y-104870987D01*
X44999549Y-104875134D01*
X45001446Y-104881032D01*
X45001447Y-104881037D01*
X45005168Y-104892606D01*
X45006437Y-104896803D01*
X45011443Y-104914476D01*
X45013341Y-104918191D01*
X45013899Y-104919756D01*
X45861173Y-107554250D01*
X45861635Y-107555859D01*
X45862258Y-107559981D01*
X45864357Y-107565797D01*
X45864357Y-107565799D01*
X45868494Y-107577264D01*
X45869923Y-107581455D01*
X45873634Y-107592995D01*
X45873635Y-107592998D01*
X45875531Y-107598893D01*
X45877556Y-107602534D01*
X45878159Y-107604054D01*
X46606669Y-109623275D01*
X46816574Y-110205072D01*
X46817090Y-110206658D01*
X46817856Y-110210750D01*
X46824706Y-110227837D01*
X46826252Y-110231897D01*
X46832488Y-110249181D01*
X46834636Y-110252745D01*
X46835297Y-110254253D01*
X47863736Y-112819387D01*
X47864298Y-112820929D01*
X47865206Y-112824990D01*
X47867710Y-112830652D01*
X47867710Y-112830653D01*
X47872635Y-112841791D01*
X47874326Y-112845802D01*
X47881177Y-112862890D01*
X47883450Y-112866378D01*
X47884165Y-112867867D01*
X48917702Y-115205178D01*
X49001498Y-115394681D01*
X49002123Y-115396223D01*
X49003173Y-115400251D01*
X49011173Y-115416755D01*
X49011182Y-115416773D01*
X49013034Y-115420772D01*
X49017958Y-115431906D01*
X49020463Y-115437570D01*
X49022853Y-115440970D01*
X49023621Y-115442434D01*
X49686001Y-116808895D01*
X50228757Y-117928577D01*
X50228757Y-117928578D01*
X50229437Y-117930101D01*
X50230626Y-117934086D01*
X50233518Y-117939555D01*
X50233519Y-117939558D01*
X50239214Y-117950329D01*
X50241201Y-117954250D01*
X50249212Y-117970776D01*
X50251721Y-117974093D01*
X50252539Y-117975527D01*
X51426953Y-120196547D01*
X51544372Y-120418607D01*
X51545099Y-120420093D01*
X51546430Y-120424042D01*
X51549514Y-120429410D01*
X51549518Y-120429419D01*
X51555573Y-120439958D01*
X51557705Y-120443824D01*
X51563393Y-120454582D01*
X51563398Y-120454590D01*
X51566287Y-120460053D01*
X51568912Y-120463281D01*
X51569783Y-120464693D01*
X52947198Y-122862303D01*
X52947980Y-122863770D01*
X52949450Y-122867672D01*
X52952719Y-122872926D01*
X52959147Y-122883258D01*
X52961404Y-122887030D01*
X52970553Y-122902956D01*
X52973291Y-122906092D01*
X52974210Y-122907470D01*
X54436109Y-125257230D01*
X54436945Y-125258673D01*
X54438552Y-125262524D01*
X54442005Y-125267662D01*
X54448790Y-125277759D01*
X54451182Y-125281457D01*
X54460874Y-125297035D01*
X54463724Y-125300077D01*
X54464695Y-125301428D01*
X56009977Y-127600942D01*
X56010859Y-127602348D01*
X56012604Y-127606148D01*
X56016240Y-127611167D01*
X56023348Y-127620980D01*
X56025872Y-127624595D01*
X56036116Y-127639840D01*
X56039080Y-127642788D01*
X56040101Y-127644108D01*
X57667657Y-129890977D01*
X57668592Y-129892358D01*
X57670471Y-129896094D01*
X57674269Y-129900966D01*
X57674273Y-129900972D01*
X57681711Y-129910513D01*
X57684379Y-129914063D01*
X57691508Y-129923904D01*
X57691512Y-129923908D01*
X57695144Y-129928922D01*
X57698216Y-129931770D01*
X57699298Y-129933071D01*
X59408006Y-132124869D01*
X59409002Y-132126232D01*
X59411017Y-132129911D01*
X59414990Y-132134651D01*
X59414991Y-132134653D01*
X59422774Y-132143939D01*
X59425557Y-132147381D01*
X59436820Y-132161829D01*
X59439998Y-132164574D01*
X59441113Y-132165821D01*
X60750995Y-133728760D01*
X61229917Y-134300206D01*
X61230959Y-134301532D01*
X61233110Y-134305146D01*
X61245343Y-134318733D01*
X61248218Y-134322042D01*
X61260011Y-134336113D01*
X61263291Y-134338749D01*
X61264473Y-134339981D01*
X63132230Y-136414502D01*
X63133332Y-136415805D01*
X63135613Y-136419348D01*
X63139916Y-136423798D01*
X63139918Y-136423801D01*
X63148309Y-136432480D01*
X63151365Y-136435755D01*
X63159434Y-136444718D01*
X63159438Y-136444722D01*
X63163579Y-136449321D01*
X63166960Y-136451846D01*
X63168187Y-136453038D01*
X65113817Y-138465316D01*
X65114974Y-138466591D01*
X65117391Y-138470063D01*
X65121846Y-138474353D01*
X65130521Y-138482707D01*
X65133698Y-138485877D01*
X65146388Y-138499002D01*
X65149864Y-138501410D01*
X65151143Y-138502567D01*
X66759967Y-140051912D01*
X67173552Y-140450207D01*
X67174762Y-140451447D01*
X67177308Y-140454840D01*
X67190899Y-140467022D01*
X67194134Y-140470028D01*
X67207299Y-140482706D01*
X67210872Y-140484997D01*
X67212201Y-140486116D01*
X68002744Y-141194708D01*
X69310290Y-142366709D01*
X69311554Y-142367915D01*
X69314227Y-142371224D01*
X69328211Y-142382881D01*
X69331610Y-142385819D01*
X69345176Y-142397979D01*
X69348833Y-142400144D01*
X69350215Y-142401225D01*
X70633457Y-143470937D01*
X71518648Y-144208833D01*
X71522905Y-144212382D01*
X71524212Y-144213542D01*
X71527010Y-144216762D01*
X71541383Y-144227891D01*
X71544899Y-144230717D01*
X71558878Y-144242370D01*
X71562624Y-144244409D01*
X71564061Y-144245452D01*
X71956984Y-144549707D01*
X73810238Y-145984753D01*
X73811595Y-145985873D01*
X73814517Y-145989000D01*
X73819550Y-145992614D01*
X73819553Y-145992617D01*
X73829263Y-145999590D01*
X73832908Y-146002308D01*
X73847266Y-146013426D01*
X73851096Y-146015336D01*
X73852561Y-146016321D01*
X76171146Y-147681368D01*
X76172566Y-147682456D01*
X76175609Y-147685484D01*
X76190749Y-147695546D01*
X76194461Y-147698111D01*
X76209200Y-147708696D01*
X76213104Y-147710470D01*
X76214603Y-147711400D01*
X78622313Y-149311620D01*
X78664190Y-149339602D01*
X78677494Y-149342248D01*
X78700843Y-149349299D01*
X78713397Y-149354463D01*
X78725806Y-149354432D01*
X78725809Y-149354433D01*
X78726028Y-149354432D01*
X78750917Y-149356853D01*
X78751123Y-149356894D01*
X78751124Y-149356894D01*
X78763296Y-149359315D01*
X78776606Y-149356668D01*
X78800864Y-149354248D01*
X78802037Y-149354245D01*
X78802038Y-149354245D01*
X78814445Y-149354214D01*
X78826094Y-149349355D01*
X78850016Y-149342066D01*
X78862402Y-149339602D01*
X78873686Y-149332062D01*
X78895182Y-149320538D01*
X78907705Y-149315315D01*
X78943140Y-149279705D01*
X78943148Y-149279713D01*
X78943359Y-149279486D01*
X86530904Y-141691941D01*
X86593216Y-141657915D01*
X86664031Y-141662980D01*
X86701951Y-141685329D01*
X88077407Y-142863107D01*
X88080757Y-142866081D01*
X88084053Y-142869114D01*
X88088177Y-142873734D01*
X88093121Y-142877458D01*
X88093120Y-142877458D01*
X88098683Y-142881649D01*
X88104812Y-142886574D01*
X88114795Y-142895122D01*
X88120190Y-142898152D01*
X88123842Y-142900704D01*
X88127485Y-142903348D01*
X89855588Y-144205279D01*
X89859455Y-144208312D01*
X89861279Y-144209801D01*
X89865668Y-144214168D01*
X89877159Y-144221804D01*
X89883223Y-144226098D01*
X89889289Y-144230669D01*
X89889295Y-144230673D01*
X89894229Y-144234390D01*
X89899795Y-144237075D01*
X89901828Y-144238314D01*
X89905971Y-144240952D01*
X91731730Y-145454252D01*
X91736101Y-145457292D01*
X91736542Y-145457612D01*
X91741166Y-145461726D01*
X91746502Y-145464857D01*
X91746504Y-145464858D01*
X91753581Y-145469010D01*
X91759551Y-145472742D01*
X91766368Y-145477272D01*
X91766376Y-145477276D01*
X91771528Y-145480700D01*
X91777252Y-145483054D01*
X91777722Y-145483304D01*
X91782366Y-145485898D01*
X92497035Y-145905187D01*
X93541376Y-146517891D01*
X93698762Y-146610228D01*
X93702914Y-146612792D01*
X93707605Y-146616539D01*
X93720879Y-146623410D01*
X93726698Y-146626619D01*
X93739617Y-146634198D01*
X93745295Y-146636170D01*
X93749703Y-146638326D01*
X94674427Y-147116916D01*
X95749596Y-147673368D01*
X95753284Y-147675390D01*
X95757946Y-147678744D01*
X95772038Y-147685161D01*
X95777720Y-147687924D01*
X95791452Y-147695031D01*
X95796966Y-147696624D01*
X95800817Y-147698268D01*
X97877293Y-148643883D01*
X97880568Y-148645475D01*
X97885173Y-148648465D01*
X97899988Y-148654375D01*
X97905502Y-148656728D01*
X97920017Y-148663338D01*
X97925358Y-148664594D01*
X97928765Y-148665854D01*
X98906820Y-149055994D01*
X100074823Y-149521903D01*
X100077739Y-149523156D01*
X100082286Y-149525822D01*
X100097729Y-149531181D01*
X100103098Y-149533182D01*
X100112560Y-149536956D01*
X100112562Y-149536957D01*
X100118314Y-149539251D01*
X100123500Y-149540212D01*
X100126554Y-149541183D01*
X100967367Y-149832937D01*
X102335144Y-150307543D01*
X102337814Y-150308552D01*
X102342298Y-150310925D01*
X102358361Y-150315725D01*
X102363550Y-150317400D01*
X102379363Y-150322887D01*
X102384386Y-150323583D01*
X102387110Y-150324316D01*
X104651383Y-151000963D01*
X104653817Y-151001766D01*
X104658234Y-151003871D01*
X104664233Y-151005393D01*
X104674757Y-151008063D01*
X104679852Y-151009470D01*
X104690263Y-151012582D01*
X104690268Y-151012583D01*
X104696194Y-151014354D01*
X104701068Y-151014814D01*
X104703568Y-151015374D01*
X105522689Y-151223211D01*
X107016506Y-151602240D01*
X107018768Y-151602884D01*
X107023126Y-151604749D01*
X107040118Y-151608336D01*
X107045041Y-151609480D01*
X107050938Y-151610976D01*
X107055848Y-151612222D01*
X107055850Y-151612222D01*
X107061847Y-151613744D01*
X107066579Y-151613991D01*
X107068886Y-151614409D01*
X109423608Y-152111481D01*
X109425701Y-152111988D01*
X109430010Y-152113636D01*
X109447328Y-152116588D01*
X109452169Y-152117511D01*
X109469361Y-152121140D01*
X109473972Y-152121194D01*
X109476130Y-152121497D01*
X111865657Y-152528753D01*
X111867660Y-152529156D01*
X111871925Y-152530603D01*
X111889522Y-152532914D01*
X111894280Y-152533632D01*
X111902319Y-152535002D01*
X111911786Y-152536615D01*
X111916294Y-152536491D01*
X111918317Y-152536695D01*
X112115734Y-152562618D01*
X114335765Y-152854136D01*
X114337676Y-152854446D01*
X114341918Y-152855709D01*
X114359728Y-152857372D01*
X114364414Y-152857898D01*
X114382170Y-152860229D01*
X114386588Y-152859938D01*
X114388521Y-152860060D01*
X115457108Y-152959811D01*
X116826954Y-153087685D01*
X116828804Y-153087915D01*
X116833032Y-153089006D01*
X116839212Y-153089353D01*
X116839216Y-153089354D01*
X116850976Y-153090015D01*
X116855607Y-153090361D01*
X116867397Y-153091461D01*
X116867401Y-153091461D01*
X116873562Y-153092036D01*
X116877908Y-153091585D01*
X116879780Y-153091633D01*
X117462860Y-153124400D01*
X119332273Y-153229454D01*
X119334088Y-153229612D01*
X119338314Y-153230539D01*
X119344495Y-153230660D01*
X119344498Y-153230660D01*
X119352498Y-153230816D01*
X119356368Y-153230891D01*
X119360962Y-153231066D01*
X119379011Y-153232080D01*
X119383305Y-153231474D01*
X119385141Y-153231453D01*
X119399429Y-153231732D01*
X121844753Y-153279481D01*
X121846560Y-153279573D01*
X121850812Y-153280344D01*
X121857004Y-153280239D01*
X121857006Y-153280239D01*
X121868897Y-153280037D01*
X121873497Y-153280043D01*
X121874531Y-153280063D01*
X121891569Y-153280396D01*
X121895819Y-153279636D01*
X121897637Y-153279549D01*
X124357459Y-153237809D01*
X124359290Y-153237835D01*
X124363575Y-153238451D01*
X124369755Y-153238120D01*
X124369757Y-153238120D01*
X124381630Y-153237484D01*
X124386227Y-153237322D01*
X124393570Y-153237197D01*
X124404284Y-153237015D01*
X124408514Y-153236099D01*
X124410337Y-153235945D01*
X126863452Y-153104464D01*
X126865318Y-153104421D01*
X126869653Y-153104882D01*
X126887618Y-153103253D01*
X126892209Y-153102923D01*
X126894415Y-153102805D01*
X126910207Y-153101958D01*
X126914432Y-153100880D01*
X126916295Y-153100653D01*
X129355754Y-152879466D01*
X129357690Y-152879349D01*
X129362096Y-152879652D01*
X129374304Y-152878083D01*
X129379883Y-152877366D01*
X129384569Y-152876853D01*
X129396212Y-152875798D01*
X129396217Y-152875797D01*
X129402384Y-152875238D01*
X129406622Y-152873988D01*
X129408502Y-152873688D01*
X131827435Y-152562828D01*
X131829456Y-152562630D01*
X131833952Y-152562767D01*
X131840067Y-152561743D01*
X131851517Y-152559826D01*
X131856270Y-152559123D01*
X131867727Y-152557651D01*
X131867731Y-152557650D01*
X131873863Y-152556862D01*
X131878118Y-152555433D01*
X131880090Y-152555041D01*
X132973100Y-152372001D01*
X134271580Y-152154552D01*
X134273678Y-152154265D01*
X134278273Y-152154225D01*
X134295470Y-152150649D01*
X134300302Y-152149742D01*
X134317688Y-152146831D01*
X134321990Y-152145200D01*
X134324077Y-152144702D01*
X135862708Y-151824807D01*
X136681108Y-151654655D01*
X136683397Y-151654248D01*
X136688108Y-151654017D01*
X136704959Y-151649800D01*
X136709893Y-151648670D01*
X136726905Y-151645133D01*
X136731247Y-151643290D01*
X136733487Y-151642660D01*
X139049186Y-151063107D01*
X139051657Y-151062562D01*
X139056503Y-151062122D01*
X139072891Y-151057286D01*
X139077954Y-151055907D01*
X139088549Y-151053255D01*
X139094555Y-151051752D01*
X139098958Y-151049671D01*
X139101362Y-151048887D01*
X141368801Y-150379897D01*
X141371506Y-150379180D01*
X141376502Y-150378507D01*
X141382360Y-150376499D01*
X141392370Y-150373068D01*
X141397567Y-150371411D01*
X141407737Y-150368410D01*
X141407738Y-150368410D01*
X141413675Y-150366658D01*
X141418140Y-150364315D01*
X141420756Y-150363337D01*
X141557377Y-150316505D01*
X141963831Y-150177177D01*
X143632991Y-149605007D01*
X143635994Y-149604066D01*
X143641145Y-149603133D01*
X143646895Y-149600866D01*
X143646907Y-149600863D01*
X143656427Y-149597110D01*
X143661775Y-149595140D01*
X143671442Y-149591826D01*
X143677297Y-149589819D01*
X143681825Y-149587186D01*
X143684713Y-149585958D01*
X145029109Y-149055994D01*
X145834788Y-148738394D01*
X145838141Y-148737170D01*
X145843464Y-148735942D01*
X145849108Y-148733402D01*
X145849110Y-148733401D01*
X145858062Y-148729372D01*
X145863566Y-148727050D01*
X145872689Y-148723454D01*
X145872699Y-148723449D01*
X145878447Y-148721183D01*
X145883036Y-148718230D01*
X145886254Y-148716682D01*
X147526383Y-147978439D01*
X147967219Y-147780014D01*
X147970992Y-147778424D01*
X147976479Y-147776867D01*
X147990317Y-147769788D01*
X147995962Y-147767076D01*
X148010141Y-147760694D01*
X148014786Y-147757383D01*
X148018398Y-147755424D01*
X150023242Y-146729841D01*
X150027551Y-146727759D01*
X150033199Y-146725830D01*
X150038559Y-146722722D01*
X150046191Y-146718297D01*
X150052002Y-146715128D01*
X150065382Y-146708284D01*
X150070064Y-146704581D01*
X150074148Y-146702087D01*
X151995863Y-145587817D01*
X152000565Y-145585223D01*
X152000873Y-145585061D01*
X152006608Y-145582740D01*
X152011785Y-145579341D01*
X152018704Y-145574798D01*
X152024661Y-145571119D01*
X152037156Y-145563874D01*
X152041801Y-145559785D01*
X152042063Y-145559597D01*
X152046485Y-145556556D01*
X153878078Y-144353878D01*
X153882286Y-144351233D01*
X153884083Y-144350152D01*
X153889669Y-144347499D01*
X153894628Y-144343809D01*
X153894636Y-144343804D01*
X153900781Y-144339231D01*
X153906836Y-144334995D01*
X153907241Y-144334729D01*
X153918428Y-144327383D01*
X153922839Y-144323042D01*
X153924500Y-144321701D01*
X153928430Y-144318654D01*
X154027977Y-144244575D01*
X155662727Y-143028050D01*
X155666429Y-143025398D01*
X155669900Y-143023005D01*
X155675310Y-143020011D01*
X155685413Y-143011470D01*
X155691525Y-143006620D01*
X155702135Y-142998724D01*
X155706280Y-142994136D01*
X155709404Y-142991295D01*
X155712822Y-142988298D01*
X157095180Y-141819614D01*
X157160115Y-141790909D01*
X157230261Y-141801867D01*
X157265623Y-141826740D01*
X164718369Y-149279486D01*
X164718524Y-149279769D01*
X164718588Y-149279705D01*
X164754023Y-149315315D01*
X164766546Y-149320538D01*
X164788042Y-149332062D01*
X164799326Y-149339602D01*
X164811494Y-149342022D01*
X164811500Y-149342025D01*
X164811713Y-149342067D01*
X164835628Y-149349353D01*
X164847283Y-149354214D01*
X164859693Y-149354245D01*
X164859694Y-149354245D01*
X164860858Y-149354248D01*
X164885119Y-149356668D01*
X164898432Y-149359316D01*
X164910603Y-149356895D01*
X164910606Y-149356895D01*
X164910817Y-149356853D01*
X164935706Y-149354432D01*
X164935921Y-149354433D01*
X164935924Y-149354432D01*
X164948330Y-149354463D01*
X164959803Y-149349744D01*
X164959806Y-149349743D01*
X164960879Y-149349301D01*
X164984230Y-149342249D01*
X164997538Y-149339602D01*
X165039419Y-149311618D01*
X166044100Y-148643883D01*
X167447100Y-147711416D01*
X167448625Y-147710469D01*
X167452527Y-147708696D01*
X167467266Y-147698112D01*
X167471001Y-147695530D01*
X167486118Y-147685483D01*
X167489160Y-147682456D01*
X167490564Y-147681380D01*
X169809162Y-146016324D01*
X169810636Y-146015333D01*
X169814461Y-146013426D01*
X169819355Y-146009637D01*
X169819362Y-146009632D01*
X169828816Y-146002311D01*
X169832432Y-145999613D01*
X169847211Y-145989000D01*
X169850136Y-145985871D01*
X169851499Y-145984746D01*
X171704743Y-144549707D01*
X172097666Y-144245452D01*
X172099103Y-144244409D01*
X172102849Y-144242370D01*
X172116828Y-144230717D01*
X172120344Y-144227891D01*
X172134717Y-144216762D01*
X172137515Y-144213542D01*
X172138822Y-144212382D01*
X172143080Y-144208833D01*
X173028270Y-143470937D01*
X174311512Y-142401225D01*
X174312894Y-142400144D01*
X174316551Y-142397979D01*
X174330117Y-142385819D01*
X174333516Y-142382881D01*
X174347500Y-142371224D01*
X174350173Y-142367915D01*
X174351437Y-142366709D01*
X175658983Y-141194708D01*
X176449526Y-140486116D01*
X176450855Y-140484997D01*
X176454428Y-140482706D01*
X176467593Y-140470028D01*
X176470828Y-140467022D01*
X176484419Y-140454840D01*
X176486965Y-140451447D01*
X176488175Y-140450207D01*
X176901761Y-140051912D01*
X178510584Y-138502567D01*
X178511863Y-138501410D01*
X178515339Y-138499002D01*
X178528029Y-138485877D01*
X178531206Y-138482707D01*
X178539881Y-138474353D01*
X178544336Y-138470063D01*
X178546753Y-138466591D01*
X178547910Y-138465316D01*
X180493542Y-136453036D01*
X180494768Y-136451845D01*
X180498148Y-136449321D01*
X180510364Y-136435752D01*
X180513425Y-136432471D01*
X180521811Y-136423798D01*
X180526114Y-136419348D01*
X180528397Y-136415803D01*
X180529494Y-136414505D01*
X182397270Y-134339964D01*
X182398439Y-134338745D01*
X182401716Y-134336112D01*
X182413456Y-134322104D01*
X182416345Y-134318778D01*
X182428618Y-134305146D01*
X182430771Y-134301527D01*
X182431821Y-134300191D01*
X184220616Y-132165821D01*
X184221733Y-132164570D01*
X184224907Y-132161829D01*
X184236170Y-132147382D01*
X184238946Y-132143949D01*
X184246733Y-132134657D01*
X184250711Y-132129911D01*
X184252728Y-132126228D01*
X184253724Y-132124865D01*
X185962441Y-129933057D01*
X185963514Y-129931767D01*
X185966583Y-129928921D01*
X185970211Y-129923912D01*
X185970215Y-129923908D01*
X185977321Y-129914098D01*
X185979989Y-129910549D01*
X185987446Y-129900983D01*
X185987448Y-129900979D01*
X185991256Y-129896095D01*
X185993139Y-129892349D01*
X185994071Y-129890973D01*
X187621626Y-127644108D01*
X187622647Y-127642788D01*
X187625611Y-127639840D01*
X187635855Y-127624595D01*
X187638379Y-127620980D01*
X187645487Y-127611167D01*
X187649123Y-127606148D01*
X187650868Y-127602348D01*
X187651750Y-127600942D01*
X189197032Y-125301428D01*
X189198003Y-125300077D01*
X189200853Y-125297035D01*
X189210545Y-125281457D01*
X189212937Y-125277759D01*
X189219722Y-125267662D01*
X189223175Y-125262524D01*
X189224782Y-125258673D01*
X189225618Y-125257230D01*
X190687519Y-122907466D01*
X190688434Y-122906094D01*
X190691174Y-122902956D01*
X190700318Y-122887038D01*
X190702576Y-122883263D01*
X190709008Y-122872925D01*
X190712277Y-122867671D01*
X190713747Y-122863769D01*
X190714527Y-122862306D01*
X190851239Y-122624338D01*
X192091944Y-120464693D01*
X192092815Y-120463281D01*
X192095440Y-120460053D01*
X192098329Y-120454590D01*
X192098334Y-120454582D01*
X192104022Y-120443824D01*
X192106154Y-120439958D01*
X192112209Y-120429419D01*
X192112213Y-120429410D01*
X192115297Y-120424042D01*
X192116628Y-120420093D01*
X192117355Y-120418607D01*
X192234775Y-120196547D01*
X193409188Y-117975526D01*
X193410006Y-117974092D01*
X193412515Y-117970775D01*
X193420526Y-117954249D01*
X193422513Y-117950328D01*
X193428208Y-117939557D01*
X193428209Y-117939554D01*
X193431101Y-117934085D01*
X193432290Y-117930100D01*
X193432970Y-117928577D01*
X193523400Y-117742025D01*
X194638104Y-115442439D01*
X194638872Y-115440974D01*
X194641264Y-115437571D01*
X194648696Y-115420763D01*
X194650553Y-115416755D01*
X194655851Y-115405826D01*
X194658554Y-115400251D01*
X194659604Y-115396224D01*
X194660223Y-115394695D01*
X194962796Y-114710435D01*
X195777562Y-112867867D01*
X195778277Y-112866378D01*
X195780550Y-112862890D01*
X195787401Y-112845802D01*
X195789092Y-112841791D01*
X195794017Y-112830653D01*
X195794017Y-112830652D01*
X195796521Y-112824990D01*
X195797429Y-112820929D01*
X195797991Y-112819387D01*
X196826429Y-110254255D01*
X196827090Y-110252746D01*
X196829239Y-110249182D01*
X196831335Y-110243372D01*
X196831338Y-110243366D01*
X196835473Y-110231904D01*
X196837042Y-110227782D01*
X196843871Y-110210750D01*
X196844637Y-110206652D01*
X196845140Y-110205107D01*
X197783558Y-107604080D01*
X197784171Y-107602535D01*
X197786196Y-107598893D01*
X197791816Y-107581420D01*
X197793241Y-107577242D01*
X197797368Y-107565801D01*
X197797369Y-107565799D01*
X197799468Y-107559981D01*
X197800090Y-107555865D01*
X197800551Y-107554259D01*
X198647828Y-104919756D01*
X198648386Y-104918191D01*
X198650284Y-104914476D01*
X198655290Y-104896803D01*
X198656559Y-104892606D01*
X198660280Y-104881037D01*
X198660281Y-104881032D01*
X198662178Y-104875134D01*
X198662656Y-104870987D01*
X198663058Y-104869375D01*
X198727234Y-104642806D01*
X199418093Y-102203751D01*
X199418597Y-102202164D01*
X199420366Y-102198378D01*
X199424743Y-102180554D01*
X199425866Y-102176307D01*
X199429181Y-102164604D01*
X199429181Y-102164602D01*
X199430865Y-102158658D01*
X199431197Y-102154497D01*
X199431548Y-102152847D01*
X200093218Y-99458523D01*
X200093671Y-99456901D01*
X200095307Y-99453050D01*
X200099051Y-99435092D01*
X200100026Y-99430796D01*
X200102919Y-99419018D01*
X200102919Y-99419016D01*
X200104396Y-99413003D01*
X200104582Y-99408816D01*
X200104873Y-99407164D01*
X200644737Y-96817615D01*
X200672072Y-96686497D01*
X200672467Y-96684859D01*
X200673971Y-96680941D01*
X200677072Y-96662892D01*
X200677906Y-96658507D01*
X200680373Y-96646675D01*
X200681636Y-96640619D01*
X200681675Y-96636424D01*
X200681909Y-96634749D01*
X201153512Y-93890150D01*
X201153853Y-93888481D01*
X201155220Y-93884503D01*
X201156051Y-93878373D01*
X201156052Y-93878368D01*
X201157675Y-93866388D01*
X201158346Y-93862017D01*
X201161449Y-93843959D01*
X201161339Y-93839755D01*
X201161514Y-93838064D01*
X201536409Y-91071894D01*
X201536690Y-91070221D01*
X201537918Y-91066186D01*
X201539725Y-91048026D01*
X201540247Y-91043583D01*
X201541870Y-91031609D01*
X201541870Y-91031603D01*
X201542701Y-91025472D01*
X201542441Y-91021262D01*
X201542558Y-91019538D01*
X201819618Y-88234245D01*
X201819842Y-88232534D01*
X201820930Y-88228443D01*
X201821323Y-88222261D01*
X201822087Y-88210238D01*
X201822452Y-88205758D01*
X201823644Y-88193776D01*
X201823644Y-88193769D01*
X201824257Y-88187611D01*
X201823847Y-88183402D01*
X201823902Y-88181683D01*
X202002008Y-85379603D01*
X202002173Y-85377865D01*
X202003116Y-85373728D01*
X202003621Y-85355492D01*
X202003827Y-85350986D01*
X202004588Y-85339012D01*
X202004588Y-85339010D01*
X202004981Y-85332831D01*
X202004419Y-85328625D01*
X202004413Y-85326911D01*
X202004414Y-85326905D01*
X202082442Y-82510413D01*
X202082545Y-82508669D01*
X202083340Y-82504491D01*
X202083191Y-82486300D01*
X202083235Y-82481779D01*
X202083568Y-82469768D01*
X202083568Y-82469763D01*
X202083739Y-82463583D01*
X202083025Y-82459387D01*
X202082956Y-82457639D01*
X202059784Y-79629157D01*
X202059824Y-79627401D01*
X202060470Y-79623190D01*
X202059667Y-79605026D01*
X202059549Y-79600525D01*
X202059451Y-79588509D01*
X202059451Y-79588507D01*
X202059400Y-79582322D01*
X202058534Y-79578147D01*
X202058400Y-79576370D01*
X201933126Y-76743532D01*
X201932894Y-76738293D01*
X201932871Y-76736528D01*
X201933366Y-76732281D01*
X201931908Y-76714171D01*
X201931627Y-76709649D01*
X201931099Y-76697693D01*
X201931098Y-76697688D01*
X201930825Y-76691504D01*
X201929805Y-76687347D01*
X201929608Y-76685583D01*
X201700641Y-73840275D01*
X201700553Y-73838488D01*
X201700895Y-73834216D01*
X201698789Y-73816216D01*
X201698787Y-73816203D01*
X201698338Y-73811656D01*
X201697381Y-73799757D01*
X201697380Y-73799754D01*
X201696884Y-73793584D01*
X201695713Y-73789461D01*
X201695451Y-73787694D01*
X201364501Y-70959849D01*
X201364296Y-70956044D01*
X201366041Y-70947652D01*
X201359139Y-70911295D01*
X201357782Y-70902442D01*
X201357165Y-70897166D01*
X201357164Y-70897160D01*
X201356445Y-70891020D01*
X201354541Y-70885135D01*
X201353221Y-70879082D01*
X201353311Y-70879062D01*
X201352172Y-70874604D01*
X201349507Y-70860566D01*
X201349507Y-70860565D01*
X201347193Y-70848378D01*
X201340392Y-70838004D01*
X201338926Y-70834376D01*
X201337016Y-70830954D01*
X201333196Y-70819146D01*
X201315883Y-70798821D01*
X201306430Y-70786202D01*
X201298595Y-70774251D01*
X201298592Y-70774248D01*
X201291790Y-70763873D01*
X201281535Y-70756890D01*
X201278788Y-70754095D01*
X201275715Y-70751666D01*
X201267671Y-70742223D01*
X201256623Y-70736575D01*
X201256621Y-70736574D01*
X201243891Y-70730067D01*
X201239940Y-70727724D01*
X201239895Y-70727806D01*
X201234467Y-70724843D01*
X201229349Y-70721359D01*
X201223654Y-70718942D01*
X201223649Y-70718939D01*
X201218769Y-70716868D01*
X201210648Y-70713074D01*
X201188747Y-70701879D01*
X201188745Y-70701878D01*
X201177697Y-70696231D01*
X201169151Y-70695547D01*
X201165557Y-70694281D01*
X197689979Y-69218986D01*
X196595392Y-68754361D01*
X196593144Y-68753380D01*
X196419934Y-68675667D01*
X196414245Y-68672939D01*
X196162574Y-68544326D01*
X196155887Y-68540648D01*
X195914997Y-68398499D01*
X195908554Y-68394429D01*
X195677265Y-68238358D01*
X195671092Y-68233916D01*
X195449949Y-68064414D01*
X195444063Y-68059614D01*
X195233656Y-67877199D01*
X195228069Y-67872053D01*
X195126186Y-67772357D01*
X195028966Y-67677223D01*
X195023700Y-67671749D01*
X194836506Y-67465045D01*
X194831578Y-67459262D01*
X194656822Y-67241139D01*
X194652245Y-67235057D01*
X194490553Y-67006089D01*
X194486327Y-66999700D01*
X194484357Y-66996515D01*
X194336194Y-66757038D01*
X194333612Y-66752672D01*
X192434999Y-63388387D01*
X192242925Y-63048037D01*
X192241024Y-63044135D01*
X192239263Y-63035281D01*
X192219130Y-63005149D01*
X192214169Y-62997082D01*
X192211956Y-62993160D01*
X192211953Y-62993155D01*
X192208910Y-62987764D01*
X192204871Y-62983066D01*
X192201318Y-62978005D01*
X192201337Y-62977992D01*
X192198400Y-62974125D01*
X192190018Y-62961580D01*
X192190016Y-62961578D01*
X192183124Y-62951263D01*
X192172809Y-62944371D01*
X192170417Y-62941979D01*
X192167751Y-62939891D01*
X192159663Y-62930484D01*
X192148590Y-62924888D01*
X192148588Y-62924886D01*
X192135123Y-62918081D01*
X192121966Y-62910398D01*
X192099106Y-62895124D01*
X192086932Y-62892702D01*
X192083810Y-62891409D01*
X192080555Y-62890502D01*
X192069479Y-62884905D01*
X192042072Y-62882839D01*
X192037251Y-62882179D01*
X192037249Y-62882201D01*
X192031084Y-62881594D01*
X192025017Y-62880387D01*
X192014303Y-62880387D01*
X192004829Y-62880030D01*
X191981092Y-62878240D01*
X191981091Y-62878240D01*
X191968717Y-62877307D01*
X191960142Y-62880125D01*
X191955814Y-62880387D01*
X128629352Y-62880387D01*
X128561231Y-62860385D01*
X128514738Y-62806729D01*
X128504634Y-62736455D01*
X128524587Y-62684385D01*
X128557839Y-62634620D01*
X128564734Y-62624301D01*
X128579500Y-62550067D01*
X128579499Y-61460000D01*
X194411247Y-61460000D01*
X194430241Y-61761897D01*
X194486922Y-62059033D01*
X194580398Y-62346721D01*
X194582085Y-62350307D01*
X194582087Y-62350311D01*
X194707506Y-62616840D01*
X194707510Y-62616847D01*
X194709194Y-62620426D01*
X194871278Y-62875829D01*
X195064095Y-63108905D01*
X195284603Y-63315976D01*
X195287805Y-63318303D01*
X195287807Y-63318304D01*
X195526117Y-63491446D01*
X195526122Y-63491449D01*
X195529326Y-63493777D01*
X195794403Y-63639505D01*
X196075654Y-63750860D01*
X196368645Y-63826087D01*
X196668753Y-63864000D01*
X196971247Y-63864000D01*
X197271355Y-63826087D01*
X197564346Y-63750860D01*
X197845597Y-63639505D01*
X198110674Y-63493777D01*
X198113878Y-63491449D01*
X198113883Y-63491446D01*
X198352193Y-63318304D01*
X198352195Y-63318303D01*
X198355397Y-63315976D01*
X198575905Y-63108905D01*
X198768722Y-62875829D01*
X198930806Y-62620426D01*
X198932490Y-62616847D01*
X198932494Y-62616840D01*
X199057913Y-62350311D01*
X199057915Y-62350307D01*
X199059602Y-62346721D01*
X199153078Y-62059033D01*
X199209759Y-61761897D01*
X199228753Y-61460000D01*
X199209759Y-61158103D01*
X199153078Y-60860967D01*
X199076692Y-60625875D01*
X199060828Y-60577052D01*
X199060828Y-60577051D01*
X199059602Y-60573279D01*
X199048617Y-60549934D01*
X198932494Y-60303160D01*
X198932490Y-60303153D01*
X198930806Y-60299574D01*
X198768722Y-60044171D01*
X198575905Y-59811095D01*
X198355397Y-59604024D01*
X198352193Y-59601696D01*
X198113883Y-59428554D01*
X198113878Y-59428551D01*
X198110674Y-59426223D01*
X197845597Y-59280495D01*
X197564346Y-59169140D01*
X197271355Y-59093913D01*
X196971247Y-59056000D01*
X196668753Y-59056000D01*
X196368645Y-59093913D01*
X196075654Y-59169140D01*
X195794403Y-59280495D01*
X195529326Y-59426223D01*
X195526122Y-59428551D01*
X195526117Y-59428554D01*
X195287807Y-59601696D01*
X195284603Y-59604024D01*
X195064095Y-59811095D01*
X194871278Y-60044171D01*
X194709194Y-60299574D01*
X194707510Y-60303153D01*
X194707506Y-60303160D01*
X194591383Y-60549934D01*
X194580398Y-60573279D01*
X194579172Y-60577051D01*
X194579172Y-60577052D01*
X194563308Y-60625875D01*
X194486922Y-60860967D01*
X194430241Y-61158103D01*
X194414994Y-61400445D01*
X194411247Y-61460000D01*
X128579499Y-61460000D01*
X128579499Y-60799934D01*
X128564734Y-60725699D01*
X128508484Y-60641516D01*
X128424301Y-60585266D01*
X128350067Y-60570500D01*
X128236500Y-60570500D01*
X128168379Y-60550498D01*
X128121886Y-60496842D01*
X128110500Y-60444500D01*
X128110500Y-58393096D01*
X129640729Y-58393096D01*
X129649421Y-58471825D01*
X129651695Y-58492417D01*
X129658113Y-58550553D01*
X129660723Y-58557684D01*
X129660723Y-58557686D01*
X129699780Y-58664414D01*
X129712553Y-58699319D01*
X129716789Y-58705622D01*
X129716789Y-58705623D01*
X129791232Y-58816405D01*
X129800908Y-58830805D01*
X129806527Y-58835918D01*
X129806528Y-58835919D01*
X129898281Y-58919407D01*
X129918076Y-58937419D01*
X130057293Y-59013008D01*
X130210522Y-59053207D01*
X130294477Y-59054526D01*
X130361319Y-59055576D01*
X130361322Y-59055576D01*
X130368916Y-59055695D01*
X130523332Y-59020329D01*
X130593742Y-58984917D01*
X130658072Y-58952563D01*
X130658075Y-58952561D01*
X130664855Y-58949151D01*
X130670628Y-58944220D01*
X130670633Y-58944217D01*
X130674765Y-58940688D01*
X130739555Y-58911657D01*
X130756594Y-58910500D01*
X135128700Y-58910500D01*
X135140897Y-58911863D01*
X135140935Y-58911388D01*
X135149882Y-58912108D01*
X135158638Y-58914089D01*
X135212591Y-58910742D01*
X135220392Y-58910500D01*
X135236660Y-58910500D01*
X135241100Y-58909864D01*
X135241103Y-58909864D01*
X135247066Y-58909010D01*
X135257121Y-58907980D01*
X135304587Y-58905035D01*
X135313036Y-58901984D01*
X135315752Y-58901422D01*
X135333235Y-58897063D01*
X135335873Y-58896292D01*
X135344754Y-58895020D01*
X135388054Y-58875332D01*
X135397405Y-58871526D01*
X135433681Y-58858430D01*
X135433680Y-58858430D01*
X135442130Y-58855380D01*
X135449386Y-58850079D01*
X135451825Y-58848782D01*
X135467399Y-58839681D01*
X135469698Y-58838211D01*
X135477871Y-58834495D01*
X135509082Y-58807602D01*
X135513885Y-58803463D01*
X135521806Y-58797174D01*
X135528922Y-58791976D01*
X135528934Y-58791966D01*
X135532854Y-58789102D01*
X135543882Y-58778074D01*
X135550729Y-58771716D01*
X135581852Y-58744899D01*
X135581854Y-58744897D01*
X135588650Y-58739041D01*
X135593531Y-58731511D01*
X135598829Y-58725437D01*
X135608622Y-58713334D01*
X136039839Y-58282117D01*
X136100804Y-58248392D01*
X136215929Y-58222025D01*
X136215933Y-58222024D01*
X136223332Y-58220329D01*
X136301108Y-58181212D01*
X136358072Y-58152563D01*
X136358075Y-58152561D01*
X136364855Y-58149151D01*
X136370626Y-58144222D01*
X136370629Y-58144220D01*
X136479536Y-58051204D01*
X136479536Y-58051203D01*
X136485314Y-58046269D01*
X136577755Y-57917624D01*
X136636842Y-57770641D01*
X136659162Y-57613807D01*
X136659307Y-57600000D01*
X136658171Y-57590608D01*
X136641188Y-57450273D01*
X136640276Y-57442733D01*
X136584280Y-57294546D01*
X136568954Y-57272247D01*
X136498855Y-57170251D01*
X136498854Y-57170249D01*
X136494553Y-57163992D01*
X136376275Y-57058611D01*
X136368889Y-57054700D01*
X136242988Y-56988039D01*
X136242989Y-56988039D01*
X136236274Y-56984484D01*
X136082633Y-56945892D01*
X136075034Y-56945852D01*
X136075033Y-56945852D01*
X136009181Y-56945507D01*
X135924221Y-56945062D01*
X135916841Y-56946834D01*
X135916839Y-56946834D01*
X135777563Y-56980271D01*
X135777560Y-56980272D01*
X135770184Y-56982043D01*
X135629414Y-57054700D01*
X135510039Y-57158838D01*
X135418950Y-57288444D01*
X135361406Y-57436037D01*
X135360414Y-57443572D01*
X135354769Y-57486452D01*
X135326047Y-57551380D01*
X135318942Y-57559102D01*
X135025449Y-57852595D01*
X134963137Y-57886621D01*
X134936354Y-57889500D01*
X130758605Y-57889500D01*
X130686696Y-57866965D01*
X130681946Y-57863664D01*
X130676275Y-57858611D01*
X130668889Y-57854700D01*
X130542988Y-57788039D01*
X130542989Y-57788039D01*
X130536274Y-57784484D01*
X130382633Y-57745892D01*
X130375034Y-57745852D01*
X130375033Y-57745852D01*
X130309181Y-57745507D01*
X130224221Y-57745062D01*
X130216841Y-57746834D01*
X130216839Y-57746834D01*
X130077563Y-57780271D01*
X130077560Y-57780272D01*
X130070184Y-57782043D01*
X129929414Y-57854700D01*
X129810039Y-57958838D01*
X129718950Y-58088444D01*
X129661406Y-58236037D01*
X129660414Y-58243570D01*
X129660414Y-58243571D01*
X129655340Y-58282117D01*
X129640729Y-58393096D01*
X128110500Y-58393096D01*
X128110500Y-38301794D01*
X128134176Y-38228270D01*
X128177755Y-38167624D01*
X128236842Y-38020641D01*
X128259162Y-37863807D01*
X128259307Y-37850000D01*
X128240276Y-37692733D01*
X128184280Y-37544546D01*
X128094553Y-37413992D01*
X127976275Y-37308611D01*
X127968889Y-37304700D01*
X127842988Y-37238039D01*
X127842989Y-37238039D01*
X127836274Y-37234484D01*
X127682633Y-37195892D01*
X127675034Y-37195852D01*
X127675033Y-37195852D01*
X127609181Y-37195507D01*
X127524221Y-37195062D01*
X127516841Y-37196834D01*
X127516839Y-37196834D01*
X127377563Y-37230271D01*
X127377560Y-37230272D01*
X127370184Y-37232043D01*
X127229414Y-37304700D01*
X127110039Y-37408838D01*
X127018950Y-37538444D01*
X126961406Y-37686037D01*
X126960414Y-37693570D01*
X126960414Y-37693571D01*
X126948767Y-37782043D01*
X126940729Y-37843096D01*
X126949421Y-37921824D01*
X126954768Y-37970251D01*
X126958113Y-38000553D01*
X127012553Y-38149319D01*
X127016790Y-38155625D01*
X127016792Y-38155628D01*
X127068081Y-38231953D01*
X127089500Y-38302229D01*
X127089500Y-60444501D01*
X127069498Y-60512622D01*
X127015842Y-60559115D01*
X126963500Y-60570501D01*
X126599934Y-60570501D01*
X126566997Y-60577052D01*
X126537874Y-60582844D01*
X126537872Y-60582845D01*
X126525699Y-60585266D01*
X126515379Y-60592161D01*
X126515378Y-60592162D01*
X126464924Y-60625875D01*
X126441516Y-60641516D01*
X126385266Y-60725699D01*
X126370500Y-60799933D01*
X126370501Y-62550066D01*
X126385266Y-62624301D01*
X126392161Y-62634620D01*
X126392162Y-62634622D01*
X126425413Y-62684385D01*
X126446628Y-62752138D01*
X126427845Y-62820605D01*
X126375028Y-62868048D01*
X126320648Y-62880387D01*
X51644232Y-62880387D01*
X51637934Y-62880045D01*
X51628048Y-62876934D01*
X51599318Y-62879464D01*
X51594355Y-62879901D01*
X51583302Y-62880387D01*
X51574983Y-62880387D01*
X51568918Y-62881593D01*
X51566698Y-62881812D01*
X51557161Y-62883176D01*
X51539753Y-62884709D01*
X51539752Y-62884709D01*
X51527390Y-62885798D01*
X51516387Y-62891534D01*
X51516246Y-62891575D01*
X51514670Y-62891961D01*
X51513198Y-62892648D01*
X51513065Y-62892703D01*
X51500894Y-62895124D01*
X51476045Y-62911728D01*
X51464289Y-62918692D01*
X51448791Y-62926771D01*
X51448790Y-62926772D01*
X51437786Y-62932508D01*
X51429813Y-62942021D01*
X51429716Y-62942099D01*
X51428392Y-62943070D01*
X51427305Y-62944257D01*
X51427191Y-62944371D01*
X51416876Y-62951263D01*
X51409983Y-62961579D01*
X51400271Y-62976114D01*
X51394500Y-62983813D01*
X51393242Y-62985654D01*
X51389262Y-62990403D01*
X51386287Y-62995834D01*
X51385267Y-62997695D01*
X51379529Y-63007157D01*
X51360737Y-63035281D01*
X51358715Y-63045445D01*
X51355991Y-63051129D01*
X50910634Y-63864000D01*
X49570010Y-66310924D01*
X49326723Y-66754974D01*
X49324038Y-66759636D01*
X49228037Y-66918378D01*
X49224601Y-66923747D01*
X49176965Y-66994187D01*
X49066294Y-67157838D01*
X49061822Y-67164036D01*
X48891398Y-67385776D01*
X48886574Y-67391675D01*
X48703459Y-67602244D01*
X48698297Y-67607830D01*
X48503099Y-67806676D01*
X48497617Y-67811934D01*
X48290930Y-67998531D01*
X48285142Y-68003448D01*
X48067511Y-68177314D01*
X48061432Y-68181877D01*
X47833456Y-68342485D01*
X47827108Y-68346676D01*
X47667263Y-68445403D01*
X47589328Y-68493539D01*
X47582717Y-68497350D01*
X47417308Y-68586148D01*
X47335771Y-68629920D01*
X47328921Y-68633334D01*
X47239871Y-68674377D01*
X47068048Y-68753570D01*
X47064539Y-68755123D01*
X42496171Y-70694281D01*
X42492577Y-70695547D01*
X42484031Y-70696231D01*
X42472983Y-70701878D01*
X42472981Y-70701879D01*
X42451080Y-70713074D01*
X42442959Y-70716868D01*
X42438079Y-70718939D01*
X42438074Y-70718942D01*
X42432379Y-70721359D01*
X42427261Y-70724843D01*
X42421833Y-70727806D01*
X42421788Y-70727724D01*
X42417837Y-70730067D01*
X42405107Y-70736574D01*
X42405105Y-70736575D01*
X42394057Y-70742223D01*
X42386013Y-70751666D01*
X42382940Y-70754095D01*
X42380193Y-70756890D01*
X42369938Y-70763873D01*
X42363134Y-70774251D01*
X42355302Y-70786196D01*
X42345850Y-70798814D01*
X42336580Y-70809697D01*
X42336579Y-70809699D01*
X42328532Y-70819146D01*
X42324713Y-70830952D01*
X42322804Y-70834372D01*
X42321338Y-70838000D01*
X42314534Y-70848378D01*
X42309550Y-70874628D01*
X42308416Y-70879062D01*
X42308506Y-70879082D01*
X42307187Y-70885133D01*
X42305283Y-70891020D01*
X42304564Y-70897166D01*
X42303949Y-70902421D01*
X42302592Y-70911278D01*
X42295686Y-70947652D01*
X42297432Y-70956048D01*
X42297227Y-70959856D01*
X41966278Y-73787685D01*
X41966015Y-73789458D01*
X41964843Y-73793583D01*
X41963389Y-73811656D01*
X41963387Y-73811675D01*
X41962942Y-73816188D01*
X41960832Y-73834217D01*
X41961174Y-73838488D01*
X41961086Y-73840274D01*
X41732119Y-76685581D01*
X41731921Y-76687349D01*
X41730902Y-76691504D01*
X41730100Y-76709648D01*
X41729819Y-76714166D01*
X41728361Y-76732280D01*
X41728856Y-76736528D01*
X41728833Y-76738293D01*
X41728601Y-76743532D01*
X41631377Y-78942081D01*
X41608385Y-79009251D01*
X41552728Y-79053328D01*
X41482076Y-79060318D01*
X41418861Y-79028000D01*
X41383154Y-78966637D01*
X41379500Y-78936514D01*
X41379500Y-62716538D01*
X41399502Y-62648417D01*
X41416405Y-62627443D01*
X42583848Y-61460000D01*
X44491247Y-61460000D01*
X44510241Y-61761897D01*
X44566922Y-62059033D01*
X44660398Y-62346721D01*
X44662085Y-62350307D01*
X44662087Y-62350311D01*
X44787506Y-62616840D01*
X44787510Y-62616847D01*
X44789194Y-62620426D01*
X44951278Y-62875829D01*
X45144095Y-63108905D01*
X45364603Y-63315976D01*
X45367805Y-63318303D01*
X45367807Y-63318304D01*
X45606117Y-63491446D01*
X45606122Y-63491449D01*
X45609326Y-63493777D01*
X45874403Y-63639505D01*
X46155654Y-63750860D01*
X46448645Y-63826087D01*
X46748753Y-63864000D01*
X47051247Y-63864000D01*
X47351355Y-63826087D01*
X47644346Y-63750860D01*
X47925597Y-63639505D01*
X48190674Y-63493777D01*
X48193878Y-63491449D01*
X48193883Y-63491446D01*
X48432193Y-63318304D01*
X48432195Y-63318303D01*
X48435397Y-63315976D01*
X48655905Y-63108905D01*
X48848722Y-62875829D01*
X49010806Y-62620426D01*
X49012490Y-62616847D01*
X49012494Y-62616840D01*
X49137913Y-62350311D01*
X49137915Y-62350307D01*
X49139602Y-62346721D01*
X49233078Y-62059033D01*
X49289759Y-61761897D01*
X49308753Y-61460000D01*
X49289759Y-61158103D01*
X49233078Y-60860967D01*
X49156692Y-60625875D01*
X49140828Y-60577052D01*
X49140828Y-60577051D01*
X49139602Y-60573279D01*
X49128617Y-60549934D01*
X49128617Y-60549933D01*
X115620500Y-60549933D01*
X115620501Y-62300066D01*
X115635266Y-62374301D01*
X115691516Y-62458484D01*
X115775699Y-62514734D01*
X115849933Y-62529500D01*
X116724858Y-62529500D01*
X117600066Y-62529499D01*
X117635818Y-62522388D01*
X117662126Y-62517156D01*
X117662128Y-62517155D01*
X117674301Y-62514734D01*
X117684621Y-62507839D01*
X117684622Y-62507838D01*
X117748168Y-62465377D01*
X117758484Y-62458484D01*
X117814734Y-62374301D01*
X117829500Y-62300067D01*
X117829499Y-60549934D01*
X117822078Y-60512622D01*
X117817156Y-60487874D01*
X117817155Y-60487872D01*
X117814734Y-60475699D01*
X117758484Y-60391516D01*
X117674301Y-60335266D01*
X117600067Y-60320500D01*
X116725142Y-60320500D01*
X115849934Y-60320501D01*
X115814182Y-60327612D01*
X115787874Y-60332844D01*
X115787872Y-60332845D01*
X115775699Y-60335266D01*
X115765379Y-60342161D01*
X115765378Y-60342162D01*
X115704985Y-60382516D01*
X115691516Y-60391516D01*
X115635266Y-60475699D01*
X115620500Y-60549933D01*
X49128617Y-60549933D01*
X49012494Y-60303160D01*
X49012490Y-60303153D01*
X49010806Y-60299574D01*
X48848722Y-60044171D01*
X48655905Y-59811095D01*
X48435397Y-59604024D01*
X48432193Y-59601696D01*
X48193883Y-59428554D01*
X48193878Y-59428551D01*
X48190674Y-59426223D01*
X47925597Y-59280495D01*
X47644346Y-59169140D01*
X47351355Y-59093913D01*
X47051247Y-59056000D01*
X46748753Y-59056000D01*
X46448645Y-59093913D01*
X46155654Y-59169140D01*
X45874403Y-59280495D01*
X45609326Y-59426223D01*
X45606122Y-59428551D01*
X45606117Y-59428554D01*
X45367807Y-59601696D01*
X45364603Y-59604024D01*
X45144095Y-59811095D01*
X44951278Y-60044171D01*
X44789194Y-60299574D01*
X44787510Y-60303153D01*
X44787506Y-60303160D01*
X44671383Y-60549934D01*
X44660398Y-60573279D01*
X44659172Y-60577051D01*
X44659172Y-60577052D01*
X44643308Y-60625875D01*
X44566922Y-60860967D01*
X44510241Y-61158103D01*
X44494994Y-61400445D01*
X44491247Y-61460000D01*
X42583848Y-61460000D01*
X45227443Y-58816405D01*
X45289755Y-58782379D01*
X45316538Y-58779500D01*
X102346080Y-58779500D01*
X102370028Y-58782049D01*
X102371693Y-58782128D01*
X102381876Y-58784320D01*
X102392217Y-58783096D01*
X102415223Y-58780373D01*
X102421154Y-58780023D01*
X102421146Y-58779928D01*
X102426324Y-58779500D01*
X102431524Y-58779500D01*
X102436653Y-58778646D01*
X102436656Y-58778646D01*
X102450565Y-58776331D01*
X102456443Y-58775494D01*
X102497001Y-58770694D01*
X102497002Y-58770694D01*
X102507341Y-58769470D01*
X102515593Y-58765507D01*
X102524626Y-58764004D01*
X102533795Y-58759057D01*
X102533797Y-58759056D01*
X102569732Y-58739666D01*
X102575025Y-58736969D01*
X102614082Y-58718215D01*
X102614086Y-58718212D01*
X102621232Y-58714781D01*
X102625508Y-58711186D01*
X102627431Y-58709263D01*
X102629363Y-58707491D01*
X102629442Y-58707448D01*
X102629555Y-58707572D01*
X102630095Y-58707096D01*
X102635814Y-58704010D01*
X102672417Y-58664413D01*
X102675846Y-58660848D01*
X104706694Y-56630000D01*
X119451247Y-56630000D01*
X119470241Y-56931897D01*
X119526922Y-57229033D01*
X119620398Y-57516721D01*
X119622085Y-57520307D01*
X119622087Y-57520311D01*
X119747506Y-57786840D01*
X119747510Y-57786847D01*
X119749194Y-57790426D01*
X119911278Y-58045829D01*
X120104095Y-58278905D01*
X120324603Y-58485976D01*
X120327805Y-58488303D01*
X120327807Y-58488304D01*
X120566117Y-58661446D01*
X120566122Y-58661449D01*
X120569326Y-58663777D01*
X120668348Y-58718215D01*
X120823413Y-58803463D01*
X120834403Y-58809505D01*
X121115654Y-58920860D01*
X121408645Y-58996087D01*
X121708753Y-59034000D01*
X122011247Y-59034000D01*
X122311355Y-58996087D01*
X122604346Y-58920860D01*
X122885597Y-58809505D01*
X122896588Y-58803463D01*
X123051652Y-58718215D01*
X123150674Y-58663777D01*
X123153878Y-58661449D01*
X123153883Y-58661446D01*
X123392193Y-58488304D01*
X123392195Y-58488303D01*
X123395397Y-58485976D01*
X123615905Y-58278905D01*
X123808722Y-58045829D01*
X123970806Y-57790426D01*
X123972490Y-57786847D01*
X123972494Y-57786840D01*
X124097913Y-57520311D01*
X124097915Y-57520307D01*
X124099602Y-57516721D01*
X124193078Y-57229033D01*
X124249759Y-56931897D01*
X124268753Y-56630000D01*
X124249759Y-56328103D01*
X124193078Y-56030967D01*
X124099602Y-55743279D01*
X124038802Y-55614072D01*
X123972494Y-55473160D01*
X123972490Y-55473153D01*
X123970806Y-55469574D01*
X123808722Y-55214171D01*
X123615905Y-54981095D01*
X123395397Y-54774024D01*
X123383754Y-54765565D01*
X123153883Y-54598554D01*
X123153878Y-54598551D01*
X123150674Y-54596223D01*
X122942266Y-54481649D01*
X122889059Y-54452398D01*
X122889056Y-54452396D01*
X122885597Y-54450495D01*
X122604346Y-54339140D01*
X122311355Y-54263913D01*
X122011247Y-54226000D01*
X121708753Y-54226000D01*
X121408645Y-54263913D01*
X121115654Y-54339140D01*
X120834403Y-54450495D01*
X120830944Y-54452396D01*
X120830941Y-54452398D01*
X120777734Y-54481649D01*
X120569326Y-54596223D01*
X120566122Y-54598551D01*
X120566117Y-54598554D01*
X120336246Y-54765565D01*
X120324603Y-54774024D01*
X120104095Y-54981095D01*
X119911278Y-55214171D01*
X119749194Y-55469574D01*
X119747510Y-55473153D01*
X119747506Y-55473160D01*
X119681198Y-55614072D01*
X119620398Y-55743279D01*
X119526922Y-56030967D01*
X119470241Y-56328103D01*
X119454994Y-56570445D01*
X119451247Y-56630000D01*
X104706694Y-56630000D01*
X109720289Y-51616405D01*
X109782601Y-51582379D01*
X109809384Y-51579500D01*
X111000141Y-51579500D01*
X111068262Y-51599502D01*
X111095522Y-51623169D01*
X111096672Y-51624501D01*
X111100908Y-51630805D01*
X111218076Y-51737419D01*
X111357293Y-51813008D01*
X111510522Y-51853207D01*
X111594477Y-51854526D01*
X111661319Y-51855576D01*
X111661322Y-51855576D01*
X111668916Y-51855695D01*
X111823332Y-51820329D01*
X111893742Y-51784917D01*
X111958072Y-51752563D01*
X111958075Y-51752561D01*
X111964855Y-51749151D01*
X111970626Y-51744222D01*
X111970629Y-51744220D01*
X112079536Y-51651204D01*
X112079536Y-51651203D01*
X112085314Y-51646269D01*
X112177755Y-51517624D01*
X112236842Y-51370641D01*
X112259162Y-51213807D01*
X112259307Y-51200000D01*
X112240276Y-51042733D01*
X112184280Y-50894546D01*
X112133390Y-50820500D01*
X112098855Y-50770251D01*
X112098854Y-50770249D01*
X112094553Y-50763992D01*
X111976275Y-50658611D01*
X111969559Y-50655055D01*
X111967238Y-50653442D01*
X111922713Y-50598142D01*
X111915155Y-50527549D01*
X111946962Y-50464075D01*
X111964112Y-50449525D01*
X111964855Y-50449151D01*
X112085314Y-50346269D01*
X112177755Y-50217624D01*
X112236842Y-50070641D01*
X112259162Y-49913807D01*
X112259307Y-49900000D01*
X112240276Y-49742733D01*
X112184280Y-49594546D01*
X112133353Y-49520446D01*
X112098855Y-49470251D01*
X112098854Y-49470249D01*
X112094553Y-49463992D01*
X111976275Y-49358611D01*
X111968889Y-49354700D01*
X111842988Y-49288039D01*
X111842989Y-49288039D01*
X111836274Y-49284484D01*
X111682633Y-49245892D01*
X111675034Y-49245852D01*
X111675033Y-49245852D01*
X111609181Y-49245507D01*
X111524221Y-49245062D01*
X111516841Y-49246834D01*
X111516839Y-49246834D01*
X111377563Y-49280271D01*
X111377560Y-49280272D01*
X111370184Y-49282043D01*
X111229414Y-49354700D01*
X111110039Y-49458838D01*
X111105672Y-49465051D01*
X111105667Y-49465057D01*
X111104336Y-49466951D01*
X111103013Y-49468005D01*
X111100589Y-49470697D01*
X111100140Y-49470293D01*
X111048802Y-49511183D01*
X111001250Y-49520500D01*
X110505500Y-49520500D01*
X110437379Y-49500498D01*
X110390886Y-49446842D01*
X110379500Y-49394500D01*
X110379500Y-47909384D01*
X110399502Y-47841263D01*
X110416405Y-47820289D01*
X111446178Y-46790516D01*
X111508490Y-46756490D01*
X111537252Y-46753627D01*
X111661318Y-46755576D01*
X111661321Y-46755576D01*
X111668916Y-46755695D01*
X111823332Y-46720329D01*
X111893742Y-46684917D01*
X111958072Y-46652563D01*
X111958075Y-46652561D01*
X111964855Y-46649151D01*
X111970626Y-46644222D01*
X111970629Y-46644220D01*
X112079536Y-46551204D01*
X112079536Y-46551203D01*
X112085314Y-46546269D01*
X112177755Y-46417624D01*
X112236842Y-46270641D01*
X112259162Y-46113807D01*
X112259307Y-46100000D01*
X112240276Y-45942733D01*
X112184280Y-45794546D01*
X112094553Y-45663992D01*
X111976275Y-45558611D01*
X111968889Y-45554700D01*
X111842988Y-45488039D01*
X111842989Y-45488039D01*
X111836274Y-45484484D01*
X111682633Y-45445892D01*
X111675034Y-45445852D01*
X111675033Y-45445852D01*
X111609181Y-45445507D01*
X111524221Y-45445062D01*
X111516841Y-45446834D01*
X111516839Y-45446834D01*
X111377563Y-45480271D01*
X111377560Y-45480272D01*
X111370184Y-45482043D01*
X111229414Y-45554700D01*
X111110039Y-45658838D01*
X111018950Y-45788444D01*
X110998443Y-45841042D01*
X110969634Y-45914934D01*
X110961406Y-45936037D01*
X110960414Y-45943570D01*
X110960414Y-45943571D01*
X110959146Y-45953207D01*
X110940729Y-46093096D01*
X110943544Y-46118591D01*
X110946963Y-46149566D01*
X110934557Y-46219470D01*
X110910819Y-46252487D01*
X110145075Y-47018231D01*
X110082763Y-47052257D01*
X110011948Y-47047192D01*
X109955112Y-47004645D01*
X109930301Y-46938125D01*
X109929980Y-46929136D01*
X109929980Y-44694622D01*
X109949982Y-44626501D01*
X109966885Y-44605527D01*
X110656007Y-43916405D01*
X110718319Y-43882379D01*
X110745102Y-43879500D01*
X111000141Y-43879500D01*
X111068262Y-43899502D01*
X111095522Y-43923169D01*
X111096672Y-43924501D01*
X111100908Y-43930805D01*
X111218076Y-44037419D01*
X111357293Y-44113008D01*
X111510522Y-44153207D01*
X111594477Y-44154526D01*
X111661319Y-44155576D01*
X111661322Y-44155576D01*
X111668916Y-44155695D01*
X111823332Y-44120329D01*
X111908101Y-44077695D01*
X111958072Y-44052563D01*
X111958075Y-44052561D01*
X111964855Y-44049151D01*
X111970626Y-44044222D01*
X111970629Y-44044220D01*
X112079536Y-43951204D01*
X112079536Y-43951203D01*
X112085314Y-43946269D01*
X112177755Y-43817624D01*
X112236842Y-43670641D01*
X112259162Y-43513807D01*
X112259307Y-43500000D01*
X112240276Y-43342733D01*
X112184280Y-43194546D01*
X112130927Y-43116916D01*
X112098855Y-43070251D01*
X112098854Y-43070249D01*
X112094553Y-43063992D01*
X112058993Y-43032309D01*
X112015802Y-42993828D01*
X111978247Y-42933578D01*
X111979226Y-42862588D01*
X112017791Y-42803940D01*
X112079532Y-42751208D01*
X112079535Y-42751205D01*
X112085314Y-42746269D01*
X112177755Y-42617624D01*
X112236842Y-42470641D01*
X112254091Y-42349442D01*
X112258581Y-42317891D01*
X112258581Y-42317888D01*
X112259162Y-42313807D01*
X112259307Y-42300000D01*
X112240276Y-42142733D01*
X112184280Y-41994546D01*
X112175512Y-41981788D01*
X112098855Y-41870251D01*
X112098854Y-41870249D01*
X112094553Y-41863992D01*
X112083167Y-41853847D01*
X112050527Y-41824767D01*
X111976275Y-41758611D01*
X111968889Y-41754700D01*
X111842988Y-41688039D01*
X111842989Y-41688039D01*
X111836274Y-41684484D01*
X111682633Y-41645892D01*
X111675034Y-41645852D01*
X111675033Y-41645852D01*
X111609181Y-41645507D01*
X111524221Y-41645062D01*
X111516841Y-41646834D01*
X111516839Y-41646834D01*
X111377563Y-41680271D01*
X111377560Y-41680272D01*
X111370184Y-41682043D01*
X111229414Y-41754700D01*
X111223695Y-41759689D01*
X111125831Y-41845062D01*
X111110039Y-41858838D01*
X111102018Y-41870251D01*
X111098100Y-41875826D01*
X111042564Y-41920056D01*
X111009827Y-41928498D01*
X111003003Y-41929306D01*
X111002999Y-41929307D01*
X110992659Y-41930531D01*
X110984410Y-41934492D01*
X110975374Y-41935996D01*
X110966205Y-41940943D01*
X110966203Y-41940944D01*
X110930240Y-41960348D01*
X110924951Y-41963043D01*
X110923658Y-41963664D01*
X110878768Y-41985220D01*
X110874492Y-41988814D01*
X110872552Y-41990754D01*
X110870641Y-41992507D01*
X110870551Y-41992556D01*
X110870439Y-41992433D01*
X110869904Y-41992905D01*
X110864186Y-41995990D01*
X110857119Y-42003635D01*
X110827584Y-42035586D01*
X110824154Y-42039152D01*
X108870744Y-43992562D01*
X108851996Y-44007704D01*
X108850771Y-44008819D01*
X108842020Y-44014469D01*
X108835573Y-44022647D01*
X108835571Y-44022649D01*
X108821231Y-44040840D01*
X108817285Y-44045281D01*
X108817358Y-44045343D01*
X108813999Y-44049307D01*
X108810322Y-44052984D01*
X108799068Y-44068732D01*
X108795562Y-44073402D01*
X108763804Y-44113687D01*
X108760772Y-44122321D01*
X108755446Y-44129774D01*
X108747730Y-44155576D01*
X108740759Y-44178884D01*
X108738924Y-44184532D01*
X108721942Y-44232891D01*
X108721460Y-44238456D01*
X108721460Y-44241164D01*
X108721346Y-44243798D01*
X108721317Y-44243896D01*
X108721153Y-44243889D01*
X108721109Y-44244593D01*
X108719247Y-44250818D01*
X108719656Y-44261223D01*
X108721363Y-44304675D01*
X108721460Y-44309622D01*
X108721460Y-48946784D01*
X108701458Y-49014905D01*
X108684555Y-49035879D01*
X101534919Y-56185515D01*
X101472607Y-56219541D01*
X101445824Y-56222420D01*
X44416291Y-56222420D01*
X44392333Y-56219870D01*
X44390674Y-56219792D01*
X44380490Y-56217599D01*
X44370148Y-56218823D01*
X44370145Y-56218823D01*
X44347145Y-56221546D01*
X44341214Y-56221896D01*
X44341222Y-56221992D01*
X44336046Y-56222420D01*
X44330842Y-56222420D01*
X44311778Y-56225593D01*
X44305932Y-56226424D01*
X44294483Y-56227779D01*
X44255025Y-56232450D01*
X44246773Y-56236413D01*
X44237740Y-56237916D01*
X44228571Y-56242863D01*
X44228569Y-56242864D01*
X44192621Y-56262261D01*
X44187368Y-56264938D01*
X44141135Y-56287139D01*
X44136859Y-56290733D01*
X44134919Y-56292673D01*
X44133007Y-56294427D01*
X44132918Y-56294475D01*
X44132806Y-56294352D01*
X44132270Y-56294825D01*
X44126552Y-56297910D01*
X44119485Y-56305555D01*
X44089950Y-56337506D01*
X44086520Y-56341072D01*
X41663108Y-58764482D01*
X39239736Y-61187853D01*
X38971704Y-61455884D01*
X38952956Y-61471026D01*
X38951731Y-61472141D01*
X38942980Y-61477791D01*
X38936533Y-61485969D01*
X38936531Y-61485971D01*
X38922191Y-61504162D01*
X38918242Y-61508606D01*
X38918316Y-61508668D01*
X38914961Y-61512627D01*
X38911283Y-61516305D01*
X38908264Y-61520530D01*
X38908257Y-61520538D01*
X38900059Y-61532011D01*
X38896496Y-61536758D01*
X38864764Y-61577009D01*
X38861731Y-61585646D01*
X38856407Y-61593096D01*
X38853423Y-61603072D01*
X38853423Y-61603073D01*
X38841720Y-61642205D01*
X38839885Y-61647851D01*
X38822902Y-61696213D01*
X38822420Y-61701778D01*
X38822420Y-61704486D01*
X38822306Y-61707119D01*
X38822277Y-61707218D01*
X38822113Y-61707211D01*
X38822069Y-61707913D01*
X38820207Y-61714139D01*
X38820616Y-61724544D01*
X38822323Y-61767996D01*
X38822420Y-61772943D01*
X38822420Y-77188696D01*
X38802418Y-77256817D01*
X38785515Y-77277791D01*
X33354411Y-82708895D01*
X33292099Y-82742921D01*
X33264658Y-82745798D01*
X33124221Y-82745062D01*
X33116841Y-82746834D01*
X33116839Y-82746834D01*
X32977563Y-82780271D01*
X32977560Y-82780272D01*
X32970184Y-82782043D01*
X32829414Y-82854700D01*
X32710039Y-82958838D01*
X32618950Y-83088444D01*
X32561406Y-83236037D01*
X32560414Y-83243570D01*
X32560414Y-83243571D01*
X32554220Y-83290623D01*
X32540729Y-83393096D01*
X27138802Y-83393096D01*
X27140226Y-81562997D01*
X27141948Y-79351238D01*
X27142085Y-79345465D01*
X27345094Y-74993455D01*
X27345496Y-74987682D01*
X27748623Y-70644211D01*
X27749293Y-70638445D01*
X27945893Y-69229241D01*
X28353036Y-66310888D01*
X28353968Y-66305175D01*
X29158822Y-62000857D01*
X29160027Y-61995148D01*
X29175013Y-61931516D01*
X30166490Y-57721436D01*
X30167970Y-57715750D01*
X30223734Y-57520311D01*
X30323614Y-57170251D01*
X31007581Y-54773096D01*
X78585729Y-54773096D01*
X78603113Y-54930553D01*
X78605723Y-54937684D01*
X78605723Y-54937686D01*
X78621609Y-54981095D01*
X78657553Y-55079319D01*
X78745908Y-55210805D01*
X78751527Y-55215918D01*
X78751528Y-55215919D01*
X78762903Y-55226269D01*
X78863076Y-55317419D01*
X79002293Y-55393008D01*
X79155522Y-55433207D01*
X79239477Y-55434526D01*
X79306319Y-55435576D01*
X79306322Y-55435576D01*
X79313916Y-55435695D01*
X79468332Y-55400329D01*
X79538742Y-55364917D01*
X79603072Y-55332563D01*
X79603075Y-55332561D01*
X79609855Y-55329151D01*
X79615626Y-55324222D01*
X79615629Y-55324220D01*
X79724536Y-55231204D01*
X79724536Y-55231203D01*
X79730314Y-55226269D01*
X79822755Y-55097624D01*
X79881842Y-54950641D01*
X79904162Y-54793807D01*
X79904307Y-54780000D01*
X79885276Y-54622733D01*
X79829280Y-54474546D01*
X79739553Y-54343992D01*
X79668681Y-54280847D01*
X79631126Y-54220598D01*
X79626500Y-54186771D01*
X79626500Y-52592596D01*
X81474831Y-52592596D01*
X81492215Y-52750053D01*
X81494825Y-52757184D01*
X81494825Y-52757186D01*
X81533728Y-52863493D01*
X81546655Y-52898819D01*
X81550891Y-52905122D01*
X81550891Y-52905123D01*
X81604312Y-52984621D01*
X81635010Y-53030305D01*
X81752178Y-53136919D01*
X81891395Y-53212508D01*
X82044624Y-53252707D01*
X82128579Y-53254026D01*
X82195421Y-53255076D01*
X82195424Y-53255076D01*
X82203018Y-53255195D01*
X82357434Y-53219829D01*
X82427844Y-53184417D01*
X82492174Y-53152063D01*
X82492177Y-53152061D01*
X82498957Y-53148651D01*
X82504728Y-53143722D01*
X82504731Y-53143720D01*
X82613644Y-53050699D01*
X82613645Y-53050698D01*
X82619416Y-53045769D01*
X82623847Y-53039603D01*
X82628252Y-53033473D01*
X82684247Y-52989826D01*
X82730574Y-52981000D01*
X93046365Y-52981000D01*
X93070664Y-52983586D01*
X93072102Y-52983654D01*
X93082280Y-52985845D01*
X93115841Y-52981873D01*
X93121820Y-52981521D01*
X93121812Y-52981428D01*
X93126990Y-52981000D01*
X93132192Y-52981000D01*
X93151346Y-52977812D01*
X93157204Y-52976978D01*
X93173818Y-52975012D01*
X93198067Y-52972142D01*
X93198068Y-52972142D01*
X93208407Y-52970918D01*
X93216706Y-52966933D01*
X93225783Y-52965422D01*
X93271151Y-52940942D01*
X93276414Y-52938261D01*
X93315750Y-52919373D01*
X93315754Y-52919370D01*
X93322898Y-52915940D01*
X93327192Y-52912330D01*
X93329124Y-52910398D01*
X93331073Y-52908611D01*
X93331126Y-52908582D01*
X93331245Y-52908712D01*
X93331813Y-52908211D01*
X93337557Y-52905112D01*
X93374367Y-52865291D01*
X93377796Y-52861726D01*
X95331479Y-50908044D01*
X95350495Y-50892685D01*
X95351556Y-50891719D01*
X95360304Y-50886071D01*
X95381229Y-50859528D01*
X95385206Y-50855053D01*
X95385135Y-50854992D01*
X95388488Y-50851035D01*
X95392171Y-50847352D01*
X95403455Y-50831561D01*
X95407018Y-50826815D01*
X95432488Y-50794507D01*
X95432489Y-50794506D01*
X95438934Y-50786330D01*
X95441985Y-50777643D01*
X95447334Y-50770157D01*
X95450689Y-50758941D01*
X95462098Y-50720789D01*
X95463933Y-50715141D01*
X95481016Y-50666498D01*
X95481500Y-50660909D01*
X95481500Y-50658198D01*
X95481615Y-50655531D01*
X95481634Y-50655468D01*
X95481808Y-50655475D01*
X95481855Y-50654729D01*
X95483725Y-50648476D01*
X95481597Y-50594322D01*
X95481500Y-50589375D01*
X95481500Y-44493022D01*
X95501502Y-44424901D01*
X95525669Y-44397211D01*
X95579536Y-44351204D01*
X95585314Y-44346269D01*
X95677755Y-44217624D01*
X95736842Y-44070641D01*
X95759162Y-43913807D01*
X95759307Y-43900000D01*
X95740276Y-43742733D01*
X95684280Y-43594546D01*
X95594553Y-43463992D01*
X95476275Y-43358611D01*
X95468889Y-43354700D01*
X95342988Y-43288039D01*
X95342989Y-43288039D01*
X95336274Y-43284484D01*
X95182633Y-43245892D01*
X95175034Y-43245852D01*
X95175033Y-43245852D01*
X95109181Y-43245507D01*
X95024221Y-43245062D01*
X95016841Y-43246834D01*
X95016839Y-43246834D01*
X94877563Y-43280271D01*
X94877560Y-43280272D01*
X94870184Y-43282043D01*
X94729414Y-43354700D01*
X94610039Y-43458838D01*
X94518950Y-43588444D01*
X94516190Y-43595524D01*
X94484153Y-43677695D01*
X94461406Y-43736037D01*
X94460414Y-43743570D01*
X94460414Y-43743571D01*
X94442140Y-43882379D01*
X94440729Y-43893096D01*
X94449421Y-43971824D01*
X94457041Y-44040840D01*
X94458113Y-44050553D01*
X94460723Y-44057684D01*
X94460723Y-44057686D01*
X94507142Y-44184532D01*
X94512553Y-44199319D01*
X94516789Y-44205622D01*
X94516789Y-44205623D01*
X94586674Y-44309622D01*
X94600908Y-44330805D01*
X94606527Y-44335918D01*
X94606528Y-44335919D01*
X94677299Y-44400315D01*
X94714222Y-44460955D01*
X94718500Y-44493509D01*
X94718500Y-50389788D01*
X94698498Y-50457909D01*
X94681595Y-50478883D01*
X92979382Y-52181095D01*
X92917070Y-52215121D01*
X92890287Y-52218000D01*
X82732385Y-52218000D01*
X82664264Y-52197998D01*
X82637870Y-52175324D01*
X82632956Y-52169750D01*
X82628655Y-52163492D01*
X82510377Y-52058111D01*
X82502991Y-52054200D01*
X82377090Y-51987539D01*
X82377091Y-51987539D01*
X82370376Y-51983984D01*
X82216735Y-51945392D01*
X82209136Y-51945352D01*
X82209135Y-51945352D01*
X82143283Y-51945007D01*
X82058323Y-51944562D01*
X82050943Y-51946334D01*
X82050941Y-51946334D01*
X81911665Y-51979771D01*
X81911662Y-51979772D01*
X81904286Y-51981543D01*
X81763516Y-52054200D01*
X81644141Y-52158338D01*
X81553052Y-52287944D01*
X81495508Y-52435537D01*
X81474831Y-52592596D01*
X79626500Y-52592596D01*
X79626500Y-42965213D01*
X79646502Y-42897092D01*
X79663405Y-42876117D01*
X80472479Y-42067044D01*
X80534791Y-42033019D01*
X80561574Y-42030140D01*
X92038428Y-42030140D01*
X92106549Y-42050142D01*
X92127523Y-42067045D01*
X92409920Y-42349442D01*
X92443946Y-42411754D01*
X92445747Y-42454981D01*
X92440729Y-42493096D01*
X92444603Y-42528185D01*
X92456623Y-42637053D01*
X92458113Y-42650553D01*
X92460723Y-42657684D01*
X92460723Y-42657686D01*
X92499316Y-42763146D01*
X92512553Y-42799319D01*
X92600908Y-42930805D01*
X92606527Y-42935918D01*
X92606528Y-42935919D01*
X92638722Y-42965213D01*
X92718076Y-43037419D01*
X92857293Y-43113008D01*
X93010522Y-43153207D01*
X93094477Y-43154526D01*
X93161319Y-43155576D01*
X93161322Y-43155576D01*
X93168916Y-43155695D01*
X93323332Y-43120329D01*
X93445390Y-43058941D01*
X93458072Y-43052563D01*
X93458075Y-43052561D01*
X93464855Y-43049151D01*
X93470626Y-43044222D01*
X93470629Y-43044220D01*
X93579536Y-42951204D01*
X93579536Y-42951203D01*
X93585314Y-42946269D01*
X93677755Y-42817624D01*
X93736842Y-42670641D01*
X93748941Y-42585626D01*
X93758581Y-42517891D01*
X93758581Y-42517888D01*
X93759162Y-42513807D01*
X93759307Y-42500000D01*
X93757561Y-42485567D01*
X93748628Y-42411754D01*
X93740276Y-42342733D01*
X93684280Y-42194546D01*
X93594553Y-42063992D01*
X93476275Y-41958611D01*
X93336274Y-41884484D01*
X93182633Y-41845892D01*
X93175034Y-41845852D01*
X93175033Y-41845852D01*
X93127079Y-41845601D01*
X93036179Y-41845125D01*
X92968165Y-41824767D01*
X92947745Y-41808222D01*
X92556684Y-41417161D01*
X92541325Y-41398145D01*
X92540359Y-41397084D01*
X92534711Y-41388336D01*
X92508168Y-41367411D01*
X92503693Y-41363434D01*
X92503632Y-41363505D01*
X92499675Y-41360152D01*
X92495992Y-41356469D01*
X92480201Y-41345185D01*
X92475455Y-41341622D01*
X92469084Y-41336599D01*
X92434970Y-41309706D01*
X92426283Y-41306655D01*
X92418797Y-41301306D01*
X92408821Y-41298323D01*
X92408820Y-41298322D01*
X92377438Y-41288937D01*
X92369426Y-41286541D01*
X92363797Y-41284712D01*
X92315138Y-41267624D01*
X92309549Y-41267140D01*
X92306838Y-41267140D01*
X92304171Y-41267025D01*
X92304108Y-41267006D01*
X92304115Y-41266832D01*
X92303369Y-41266785D01*
X92297116Y-41264915D01*
X92251386Y-41266712D01*
X92242962Y-41267043D01*
X92238015Y-41267140D01*
X80405496Y-41267140D01*
X80381206Y-41264555D01*
X80379761Y-41264487D01*
X80369580Y-41262295D01*
X80336016Y-41266267D01*
X80330039Y-41266620D01*
X80330047Y-41266712D01*
X80324871Y-41267140D01*
X80319668Y-41267140D01*
X80300496Y-41270331D01*
X80294657Y-41271162D01*
X80243452Y-41277222D01*
X80235153Y-41281207D01*
X80226077Y-41282718D01*
X80180723Y-41307190D01*
X80175433Y-41309885D01*
X80136108Y-41328768D01*
X80136105Y-41328770D01*
X80128962Y-41332200D01*
X80124668Y-41335810D01*
X80122738Y-41337740D01*
X80120787Y-41339529D01*
X80120734Y-41339558D01*
X80120615Y-41339428D01*
X80120047Y-41339929D01*
X80114303Y-41343028D01*
X80107236Y-41350673D01*
X80077494Y-41382848D01*
X80074064Y-41386414D01*
X79013520Y-42446958D01*
X78994511Y-42462311D01*
X78993448Y-42463278D01*
X78984696Y-42468929D01*
X78971580Y-42485567D01*
X78963771Y-42495472D01*
X78959794Y-42499947D01*
X78959865Y-42500008D01*
X78956512Y-42503965D01*
X78952829Y-42507648D01*
X78949803Y-42511883D01*
X78949801Y-42511885D01*
X78941547Y-42523436D01*
X78937984Y-42528182D01*
X78906066Y-42568670D01*
X78903015Y-42577357D01*
X78897666Y-42584843D01*
X78894683Y-42594819D01*
X78894682Y-42594820D01*
X78882902Y-42634211D01*
X78881072Y-42639843D01*
X78863984Y-42688502D01*
X78863500Y-42694091D01*
X78863500Y-42696802D01*
X78863385Y-42699469D01*
X78863366Y-42699532D01*
X78863192Y-42699525D01*
X78863145Y-42700271D01*
X78861275Y-42706524D01*
X78861684Y-42716928D01*
X78863403Y-42760678D01*
X78863500Y-42765625D01*
X78863500Y-54186933D01*
X78843498Y-54255054D01*
X78820330Y-54281881D01*
X78755039Y-54338838D01*
X78663950Y-54468444D01*
X78606406Y-54616037D01*
X78605414Y-54623570D01*
X78605414Y-54623571D01*
X78587803Y-54757343D01*
X78585729Y-54773096D01*
X31007581Y-54773096D01*
X31376526Y-53480022D01*
X31378279Y-53474381D01*
X32260372Y-50854992D01*
X32651647Y-49693096D01*
X38240729Y-49693096D01*
X38258113Y-49850553D01*
X38260723Y-49857684D01*
X38260723Y-49857686D01*
X38299780Y-49964414D01*
X38312553Y-49999319D01*
X38316789Y-50005622D01*
X38316789Y-50005623D01*
X38365859Y-50078646D01*
X38400908Y-50130805D01*
X38406527Y-50135918D01*
X38406528Y-50135919D01*
X38512460Y-50232309D01*
X38518076Y-50237419D01*
X38657293Y-50313008D01*
X38810522Y-50353207D01*
X38894477Y-50354526D01*
X38961319Y-50355576D01*
X38961322Y-50355576D01*
X38968916Y-50355695D01*
X39123332Y-50320329D01*
X39204512Y-50279500D01*
X39258072Y-50252563D01*
X39258075Y-50252561D01*
X39264855Y-50249151D01*
X39270626Y-50244222D01*
X39270629Y-50244220D01*
X39379542Y-50151199D01*
X39379543Y-50151198D01*
X39385314Y-50146269D01*
X39395586Y-50131974D01*
X39451581Y-50088326D01*
X39497909Y-50079500D01*
X60910362Y-50079500D01*
X60934310Y-50082049D01*
X60935975Y-50082128D01*
X60946158Y-50084320D01*
X60956499Y-50083096D01*
X60979505Y-50080373D01*
X60985436Y-50080023D01*
X60985428Y-50079928D01*
X60990606Y-50079500D01*
X60995806Y-50079500D01*
X61000935Y-50078646D01*
X61000938Y-50078646D01*
X61014847Y-50076331D01*
X61020725Y-50075494D01*
X61061283Y-50070694D01*
X61061284Y-50070694D01*
X61071623Y-50069470D01*
X61079875Y-50065507D01*
X61088908Y-50064004D01*
X61098077Y-50059057D01*
X61098079Y-50059056D01*
X61134014Y-50039666D01*
X61139307Y-50036969D01*
X61178364Y-50018215D01*
X61178368Y-50018212D01*
X61185514Y-50014781D01*
X61189790Y-50011186D01*
X61191713Y-50009263D01*
X61193645Y-50007491D01*
X61193724Y-50007448D01*
X61193837Y-50007572D01*
X61194377Y-50007096D01*
X61200096Y-50004010D01*
X61236699Y-49964413D01*
X61240128Y-49960848D01*
X71835051Y-39365925D01*
X71897363Y-39331899D01*
X71924146Y-39329020D01*
X110340136Y-39329020D01*
X110408257Y-39349022D01*
X110429231Y-39365925D01*
X110819906Y-39756600D01*
X110853932Y-39818912D01*
X110856050Y-39831867D01*
X110858113Y-39850553D01*
X110912553Y-39999319D01*
X111000908Y-40130805D01*
X111006527Y-40135918D01*
X111006528Y-40135919D01*
X111017903Y-40146269D01*
X111118076Y-40237419D01*
X111257293Y-40313008D01*
X111410522Y-40353207D01*
X111494477Y-40354526D01*
X111561319Y-40355576D01*
X111561322Y-40355576D01*
X111568916Y-40355695D01*
X111723332Y-40320329D01*
X111793742Y-40284917D01*
X111858072Y-40252563D01*
X111858075Y-40252561D01*
X111864855Y-40249151D01*
X111870626Y-40244222D01*
X111870629Y-40244220D01*
X111979536Y-40151204D01*
X111979536Y-40151203D01*
X111985314Y-40146269D01*
X112077755Y-40017624D01*
X112136842Y-39870641D01*
X112159162Y-39713807D01*
X112159307Y-39700000D01*
X112140276Y-39542733D01*
X112084280Y-39394546D01*
X112041224Y-39331899D01*
X111998855Y-39270251D01*
X111998854Y-39270249D01*
X111994553Y-39263992D01*
X111876275Y-39158611D01*
X111869559Y-39155055D01*
X111867238Y-39153442D01*
X111822713Y-39098142D01*
X111815155Y-39027549D01*
X111846962Y-38964075D01*
X111864112Y-38949525D01*
X111864855Y-38949151D01*
X111985314Y-38846269D01*
X112077755Y-38717624D01*
X112136842Y-38570641D01*
X112159162Y-38413807D01*
X112159307Y-38400000D01*
X112140276Y-38242733D01*
X112084280Y-38094546D01*
X111994553Y-37963992D01*
X111876275Y-37858611D01*
X111868889Y-37854700D01*
X111742988Y-37788039D01*
X111742989Y-37788039D01*
X111736274Y-37784484D01*
X111582633Y-37745892D01*
X111575034Y-37745852D01*
X111575033Y-37745852D01*
X111509181Y-37745507D01*
X111424221Y-37745062D01*
X111416841Y-37746834D01*
X111416839Y-37746834D01*
X111277563Y-37780271D01*
X111277560Y-37780272D01*
X111270184Y-37782043D01*
X111129414Y-37854700D01*
X111010039Y-37958838D01*
X110961646Y-38027695D01*
X110934056Y-38066951D01*
X110878521Y-38111182D01*
X110830969Y-38120500D01*
X71959384Y-38120500D01*
X71891263Y-38100498D01*
X71870289Y-38083595D01*
X68679790Y-34893096D01*
X125940729Y-34893096D01*
X125958113Y-35050553D01*
X126012553Y-35199319D01*
X126100908Y-35330805D01*
X126106527Y-35335918D01*
X126106528Y-35335919D01*
X126111126Y-35340103D01*
X126218076Y-35437419D01*
X126357293Y-35513008D01*
X126510522Y-35553207D01*
X126594477Y-35554526D01*
X126661319Y-35555576D01*
X126661322Y-35555576D01*
X126668916Y-35555695D01*
X126823332Y-35520329D01*
X126893742Y-35484917D01*
X126958072Y-35452563D01*
X126958075Y-35452561D01*
X126964855Y-35449151D01*
X126970626Y-35444222D01*
X126970629Y-35444220D01*
X127079542Y-35351199D01*
X127079543Y-35351198D01*
X127085314Y-35346269D01*
X127089745Y-35340103D01*
X127094150Y-35333973D01*
X127150145Y-35290326D01*
X127196472Y-35281500D01*
X137401868Y-35281500D01*
X137469989Y-35301502D01*
X137496941Y-35324902D01*
X137500908Y-35330805D01*
X137506526Y-35335917D01*
X137506527Y-35335918D01*
X137511126Y-35340103D01*
X137618076Y-35437419D01*
X137757293Y-35513008D01*
X137910522Y-35553207D01*
X137994477Y-35554526D01*
X138061319Y-35555576D01*
X138061322Y-35555576D01*
X138068916Y-35555695D01*
X138223332Y-35520329D01*
X138293742Y-35484917D01*
X138358072Y-35452563D01*
X138358075Y-35452561D01*
X138364855Y-35449151D01*
X138370626Y-35444222D01*
X138370629Y-35444220D01*
X138479536Y-35351204D01*
X138479536Y-35351203D01*
X138485314Y-35346269D01*
X138577755Y-35217624D01*
X138636842Y-35070641D01*
X138659162Y-34913807D01*
X138659307Y-34900000D01*
X138640276Y-34742733D01*
X138584280Y-34594546D01*
X138494553Y-34463992D01*
X138376275Y-34358611D01*
X138368889Y-34354700D01*
X138242988Y-34288039D01*
X138242989Y-34288039D01*
X138236274Y-34284484D01*
X138082633Y-34245892D01*
X138075034Y-34245852D01*
X138075033Y-34245852D01*
X138009181Y-34245507D01*
X137924221Y-34245062D01*
X137916841Y-34246834D01*
X137916839Y-34246834D01*
X137777563Y-34280271D01*
X137777560Y-34280272D01*
X137770184Y-34282043D01*
X137629414Y-34354700D01*
X137510039Y-34458838D01*
X137505668Y-34465057D01*
X137500591Y-34470696D01*
X137499624Y-34469826D01*
X137450203Y-34509185D01*
X137402656Y-34518500D01*
X127198283Y-34518500D01*
X127130162Y-34498498D01*
X127103768Y-34475824D01*
X127098854Y-34470250D01*
X127094553Y-34463992D01*
X126976275Y-34358611D01*
X126968889Y-34354700D01*
X126842988Y-34288039D01*
X126842989Y-34288039D01*
X126836274Y-34284484D01*
X126682633Y-34245892D01*
X126675034Y-34245852D01*
X126675033Y-34245852D01*
X126609181Y-34245507D01*
X126524221Y-34245062D01*
X126516841Y-34246834D01*
X126516839Y-34246834D01*
X126377563Y-34280271D01*
X126377560Y-34280272D01*
X126370184Y-34282043D01*
X126229414Y-34354700D01*
X126110039Y-34458838D01*
X126018950Y-34588444D01*
X125961406Y-34736037D01*
X125940729Y-34893096D01*
X68679790Y-34893096D01*
X60606694Y-26820000D01*
X64511247Y-26820000D01*
X64530241Y-27121897D01*
X64586922Y-27419033D01*
X64680398Y-27706721D01*
X64682085Y-27710307D01*
X64682087Y-27710311D01*
X64807506Y-27976840D01*
X64807510Y-27976847D01*
X64809194Y-27980426D01*
X64971278Y-28235829D01*
X65164095Y-28468905D01*
X65384603Y-28675976D01*
X65387805Y-28678303D01*
X65387807Y-28678304D01*
X65626117Y-28851446D01*
X65626122Y-28851449D01*
X65629326Y-28853777D01*
X65772654Y-28932573D01*
X65872752Y-28987602D01*
X65894403Y-28999505D01*
X66122062Y-29089642D01*
X66152875Y-29101841D01*
X66175654Y-29110860D01*
X66468645Y-29186087D01*
X66768753Y-29224000D01*
X67071247Y-29224000D01*
X67371355Y-29186087D01*
X67664346Y-29110860D01*
X67687126Y-29101841D01*
X67717938Y-29089642D01*
X67945597Y-28999505D01*
X67967249Y-28987602D01*
X68067346Y-28932573D01*
X68210674Y-28853777D01*
X68213878Y-28851449D01*
X68213883Y-28851446D01*
X68452193Y-28678304D01*
X68452195Y-28678303D01*
X68455397Y-28675976D01*
X68675905Y-28468905D01*
X68868722Y-28235829D01*
X69030806Y-27980426D01*
X69032490Y-27976847D01*
X69032494Y-27976840D01*
X69157913Y-27710311D01*
X69157915Y-27710307D01*
X69159602Y-27706721D01*
X69253078Y-27419033D01*
X69309759Y-27121897D01*
X69328753Y-26820000D01*
X69309759Y-26518103D01*
X69253078Y-26220967D01*
X69159602Y-25933279D01*
X69156672Y-25927052D01*
X69046581Y-25693096D01*
X84340729Y-25693096D01*
X84343016Y-25713807D01*
X84353518Y-25808930D01*
X84358113Y-25850553D01*
X84360723Y-25857684D01*
X84360723Y-25857686D01*
X84403974Y-25975875D01*
X84412553Y-25999319D01*
X84416789Y-26005622D01*
X84416789Y-26005623D01*
X84433015Y-26029769D01*
X84500908Y-26130805D01*
X84506527Y-26135918D01*
X84506528Y-26135919D01*
X84612460Y-26232309D01*
X84618076Y-26237419D01*
X84757293Y-26313008D01*
X84910522Y-26353207D01*
X85007138Y-26354725D01*
X85068772Y-26355693D01*
X85136570Y-26376762D01*
X85155888Y-26392582D01*
X89293522Y-30530216D01*
X89308664Y-30548964D01*
X89309779Y-30550189D01*
X89315429Y-30558940D01*
X89323607Y-30565387D01*
X89323609Y-30565389D01*
X89341800Y-30579729D01*
X89346244Y-30583678D01*
X89346306Y-30583604D01*
X89350263Y-30586957D01*
X89353944Y-30590638D01*
X89369654Y-30601865D01*
X89374380Y-30605413D01*
X89414647Y-30637156D01*
X89423284Y-30640189D01*
X89430734Y-30645513D01*
X89440710Y-30648497D01*
X89440711Y-30648497D01*
X89456046Y-30653083D01*
X89479849Y-30660202D01*
X89485486Y-30662034D01*
X89526367Y-30676390D01*
X89533851Y-30679018D01*
X89539416Y-30679500D01*
X89542124Y-30679500D01*
X89544758Y-30679614D01*
X89544856Y-30679643D01*
X89544849Y-30679807D01*
X89545553Y-30679851D01*
X89551778Y-30681713D01*
X89605635Y-30679597D01*
X89610582Y-30679500D01*
X114690616Y-30679500D01*
X114758737Y-30699502D01*
X114779711Y-30716405D01*
X116910249Y-32846943D01*
X116944275Y-32909255D01*
X116946076Y-32952482D01*
X116940729Y-32993096D01*
X116958113Y-33150553D01*
X117012553Y-33299319D01*
X117100908Y-33430805D01*
X117106527Y-33435918D01*
X117106528Y-33435919D01*
X117117903Y-33446269D01*
X117218076Y-33537419D01*
X117357293Y-33613008D01*
X117510522Y-33653207D01*
X117594477Y-33654526D01*
X117661319Y-33655576D01*
X117661322Y-33655576D01*
X117668916Y-33655695D01*
X117823332Y-33620329D01*
X117893742Y-33584917D01*
X117958072Y-33552563D01*
X117958075Y-33552561D01*
X117964855Y-33549151D01*
X117970626Y-33544222D01*
X117970629Y-33544220D01*
X118079536Y-33451204D01*
X118079536Y-33451203D01*
X118085314Y-33446269D01*
X118177755Y-33317624D01*
X118236842Y-33170641D01*
X118259162Y-33013807D01*
X118259307Y-33000000D01*
X118257561Y-32985567D01*
X118253659Y-32953326D01*
X118240276Y-32842733D01*
X118184280Y-32694546D01*
X118123165Y-32605623D01*
X118098855Y-32570251D01*
X118098854Y-32570249D01*
X118094553Y-32563992D01*
X117976275Y-32458611D01*
X117836274Y-32384484D01*
X117682633Y-32345892D01*
X117675034Y-32345852D01*
X117675033Y-32345852D01*
X117614626Y-32345536D01*
X117533335Y-32345110D01*
X117465321Y-32324752D01*
X117444901Y-32308207D01*
X117429790Y-32293096D01*
X120840729Y-32293096D01*
X120858113Y-32450553D01*
X120860723Y-32457684D01*
X120860723Y-32457686D01*
X120901916Y-32570251D01*
X120912553Y-32599319D01*
X120916789Y-32605622D01*
X120916789Y-32605623D01*
X120992576Y-32718405D01*
X121000908Y-32730805D01*
X121118076Y-32837419D01*
X121257293Y-32913008D01*
X121410522Y-32953207D01*
X121494477Y-32954526D01*
X121561319Y-32955576D01*
X121561322Y-32955576D01*
X121568916Y-32955695D01*
X121723332Y-32920329D01*
X121793742Y-32884917D01*
X121858072Y-32852563D01*
X121858075Y-32852561D01*
X121864855Y-32849151D01*
X121870626Y-32844222D01*
X121870629Y-32844220D01*
X121979542Y-32751199D01*
X121979543Y-32751198D01*
X121985314Y-32746269D01*
X121989745Y-32740103D01*
X121994150Y-32733973D01*
X122050145Y-32690326D01*
X122096472Y-32681500D01*
X139989788Y-32681500D01*
X140057909Y-32701502D01*
X140078883Y-32718405D01*
X143581595Y-36221117D01*
X143615621Y-36283429D01*
X143618500Y-36310212D01*
X143618500Y-44706933D01*
X143598498Y-44775054D01*
X143575330Y-44801881D01*
X143510039Y-44858838D01*
X143418950Y-44988444D01*
X143361406Y-45136037D01*
X143340729Y-45293096D01*
X143358113Y-45450553D01*
X143360723Y-45457684D01*
X143360723Y-45457686D01*
X143398051Y-45559689D01*
X143412553Y-45599319D01*
X143416789Y-45605622D01*
X143416789Y-45605623D01*
X143449194Y-45653846D01*
X143500908Y-45730805D01*
X143506527Y-45735918D01*
X143506528Y-45735919D01*
X143517903Y-45746269D01*
X143618076Y-45837419D01*
X143757293Y-45913008D01*
X143910522Y-45953207D01*
X143994477Y-45954526D01*
X144061319Y-45955576D01*
X144061322Y-45955576D01*
X144068916Y-45955695D01*
X144223332Y-45920329D01*
X144293742Y-45884917D01*
X144358072Y-45852563D01*
X144358075Y-45852561D01*
X144364855Y-45849151D01*
X144370626Y-45844222D01*
X144370629Y-45844220D01*
X144479536Y-45751204D01*
X144479536Y-45751203D01*
X144485314Y-45746269D01*
X144577755Y-45617624D01*
X144636842Y-45470641D01*
X144659162Y-45313807D01*
X144659307Y-45300000D01*
X144640276Y-45142733D01*
X144584280Y-44994546D01*
X144575814Y-44982228D01*
X144498855Y-44870251D01*
X144498854Y-44870249D01*
X144494553Y-44863992D01*
X144423681Y-44800847D01*
X144386126Y-44740598D01*
X144381500Y-44706771D01*
X144381500Y-36154140D01*
X144384087Y-36129824D01*
X144384154Y-36128401D01*
X144386346Y-36118220D01*
X144382373Y-36084652D01*
X144382021Y-36078678D01*
X144381928Y-36078686D01*
X144381500Y-36073508D01*
X144381500Y-36068308D01*
X144380646Y-36063176D01*
X144378314Y-36049165D01*
X144377477Y-36043286D01*
X144372642Y-36002433D01*
X144372642Y-36002432D01*
X144371418Y-35992093D01*
X144367433Y-35983794D01*
X144365922Y-35974717D01*
X144341456Y-35929374D01*
X144338760Y-35924083D01*
X144319873Y-35884749D01*
X144319871Y-35884745D01*
X144316441Y-35877603D01*
X144312831Y-35873308D01*
X144310904Y-35871381D01*
X144309109Y-35869424D01*
X144309078Y-35869366D01*
X144309207Y-35869248D01*
X144308710Y-35868684D01*
X144305612Y-35862943D01*
X144265804Y-35826145D01*
X144262239Y-35822716D01*
X140508044Y-32068521D01*
X140492685Y-32049505D01*
X140491719Y-32048444D01*
X140486071Y-32039696D01*
X140459528Y-32018771D01*
X140455053Y-32014794D01*
X140454992Y-32014865D01*
X140451035Y-32011512D01*
X140447352Y-32007829D01*
X140431561Y-31996545D01*
X140426815Y-31992982D01*
X140394507Y-31967512D01*
X140394506Y-31967511D01*
X140386330Y-31961066D01*
X140377643Y-31958015D01*
X140370157Y-31952666D01*
X140360181Y-31949683D01*
X140360180Y-31949682D01*
X140320789Y-31937902D01*
X140315157Y-31936072D01*
X140266498Y-31918984D01*
X140260909Y-31918500D01*
X140258198Y-31918500D01*
X140255531Y-31918385D01*
X140255468Y-31918366D01*
X140255475Y-31918192D01*
X140254729Y-31918145D01*
X140248476Y-31916275D01*
X140199692Y-31918192D01*
X140194322Y-31918403D01*
X140189375Y-31918500D01*
X122098283Y-31918500D01*
X122030162Y-31898498D01*
X122003768Y-31875824D01*
X121998854Y-31870250D01*
X121994553Y-31863992D01*
X121876275Y-31758611D01*
X121868889Y-31754700D01*
X121742988Y-31688039D01*
X121742989Y-31688039D01*
X121736274Y-31684484D01*
X121582633Y-31645892D01*
X121575034Y-31645852D01*
X121575033Y-31645852D01*
X121509181Y-31645507D01*
X121424221Y-31645062D01*
X121416841Y-31646834D01*
X121416839Y-31646834D01*
X121277563Y-31680271D01*
X121277560Y-31680272D01*
X121270184Y-31682043D01*
X121129414Y-31754700D01*
X121010039Y-31858838D01*
X120918950Y-31988444D01*
X120861406Y-32136037D01*
X120840729Y-32293096D01*
X117429790Y-32293096D01*
X115206478Y-30069784D01*
X115191336Y-30051036D01*
X115190221Y-30049811D01*
X115184571Y-30041060D01*
X115176393Y-30034613D01*
X115176391Y-30034611D01*
X115158200Y-30020271D01*
X115153759Y-30016325D01*
X115153697Y-30016398D01*
X115149733Y-30013039D01*
X115146056Y-30009362D01*
X115130308Y-29998108D01*
X115125638Y-29994602D01*
X115085353Y-29962844D01*
X115076719Y-29959812D01*
X115069266Y-29954486D01*
X115020150Y-29939797D01*
X115014508Y-29937964D01*
X114973633Y-29923610D01*
X114973632Y-29923610D01*
X114966149Y-29920982D01*
X114960584Y-29920500D01*
X114957876Y-29920500D01*
X114955242Y-29920386D01*
X114955144Y-29920357D01*
X114955151Y-29920193D01*
X114954447Y-29920149D01*
X114948222Y-29918287D01*
X114894365Y-29920403D01*
X114889418Y-29920500D01*
X89809384Y-29920500D01*
X89741263Y-29900498D01*
X89720289Y-29883595D01*
X86646694Y-26810000D01*
X174411247Y-26810000D01*
X174430241Y-27111897D01*
X174486922Y-27409033D01*
X174580398Y-27696721D01*
X174582085Y-27700307D01*
X174582087Y-27700311D01*
X174707506Y-27966840D01*
X174707510Y-27966847D01*
X174709194Y-27970426D01*
X174871278Y-28225829D01*
X175064095Y-28458905D01*
X175284603Y-28665976D01*
X175287805Y-28668303D01*
X175287807Y-28668304D01*
X175526117Y-28841446D01*
X175526122Y-28841449D01*
X175529326Y-28843777D01*
X175672654Y-28922573D01*
X175734115Y-28956361D01*
X175794403Y-28989505D01*
X176075654Y-29100860D01*
X176368645Y-29176087D01*
X176668753Y-29214000D01*
X176971247Y-29214000D01*
X177271355Y-29176087D01*
X177564346Y-29100860D01*
X177845597Y-28989505D01*
X177905886Y-28956361D01*
X177967346Y-28922573D01*
X178110674Y-28843777D01*
X178113878Y-28841449D01*
X178113883Y-28841446D01*
X178352193Y-28668304D01*
X178352195Y-28668303D01*
X178355397Y-28665976D01*
X178575905Y-28458905D01*
X178768722Y-28225829D01*
X178930806Y-27970426D01*
X178932490Y-27966847D01*
X178932494Y-27966840D01*
X179057913Y-27700311D01*
X179057915Y-27700307D01*
X179059602Y-27696721D01*
X179153078Y-27409033D01*
X179209759Y-27111897D01*
X179228753Y-26810000D01*
X179209759Y-26508103D01*
X179153078Y-26210967D01*
X179059602Y-25923279D01*
X179057913Y-25919689D01*
X178932494Y-25653160D01*
X178932490Y-25653153D01*
X178930806Y-25649574D01*
X178768722Y-25394171D01*
X178575905Y-25161095D01*
X178355397Y-24954024D01*
X178352193Y-24951696D01*
X178113883Y-24778554D01*
X178113878Y-24778551D01*
X178110674Y-24776223D01*
X177967346Y-24697427D01*
X177849059Y-24632398D01*
X177849056Y-24632396D01*
X177845597Y-24630495D01*
X177589603Y-24529140D01*
X177568016Y-24520593D01*
X177568015Y-24520593D01*
X177564346Y-24519140D01*
X177271355Y-24443913D01*
X176971247Y-24406000D01*
X176668753Y-24406000D01*
X176368645Y-24443913D01*
X176075654Y-24519140D01*
X176071985Y-24520593D01*
X176071984Y-24520593D01*
X176050397Y-24529140D01*
X175794403Y-24630495D01*
X175790944Y-24632396D01*
X175790941Y-24632398D01*
X175672654Y-24697427D01*
X175529326Y-24776223D01*
X175526122Y-24778551D01*
X175526117Y-24778554D01*
X175287807Y-24951696D01*
X175284603Y-24954024D01*
X175064095Y-25161095D01*
X174871278Y-25394171D01*
X174709194Y-25649574D01*
X174707510Y-25653153D01*
X174707506Y-25653160D01*
X174582087Y-25919689D01*
X174580398Y-25923279D01*
X174486922Y-26210967D01*
X174430241Y-26508103D01*
X174414994Y-26750445D01*
X174411247Y-26810000D01*
X86646694Y-26810000D01*
X85690143Y-25853449D01*
X85656117Y-25791137D01*
X85654495Y-25746601D01*
X85658581Y-25717892D01*
X85658581Y-25717886D01*
X85659162Y-25713807D01*
X85659307Y-25700000D01*
X85640276Y-25542733D01*
X85584280Y-25394546D01*
X85494553Y-25263992D01*
X85376275Y-25158611D01*
X85368889Y-25154700D01*
X85273979Y-25104448D01*
X85236274Y-25084484D01*
X85082633Y-25045892D01*
X85075034Y-25045852D01*
X85075033Y-25045852D01*
X85009181Y-25045507D01*
X84924221Y-25045062D01*
X84916841Y-25046834D01*
X84916839Y-25046834D01*
X84777563Y-25080271D01*
X84777560Y-25080272D01*
X84770184Y-25082043D01*
X84629414Y-25154700D01*
X84510039Y-25258838D01*
X84418950Y-25388444D01*
X84411515Y-25407515D01*
X84386975Y-25470457D01*
X84361406Y-25536037D01*
X84360414Y-25543570D01*
X84360414Y-25543571D01*
X84345583Y-25656227D01*
X84340729Y-25693096D01*
X69046581Y-25693096D01*
X69032494Y-25663160D01*
X69032490Y-25663153D01*
X69030806Y-25659574D01*
X68868722Y-25404171D01*
X68675905Y-25171095D01*
X68455397Y-24964024D01*
X68438429Y-24951696D01*
X68213883Y-24788554D01*
X68213878Y-24788551D01*
X68210674Y-24786223D01*
X67945597Y-24640495D01*
X67664346Y-24529140D01*
X67371355Y-24453913D01*
X67071247Y-24416000D01*
X66768753Y-24416000D01*
X66468645Y-24453913D01*
X66175654Y-24529140D01*
X65894403Y-24640495D01*
X65629326Y-24786223D01*
X65626122Y-24788551D01*
X65626117Y-24788554D01*
X65401571Y-24951696D01*
X65384603Y-24964024D01*
X65164095Y-25171095D01*
X64971278Y-25404171D01*
X64809194Y-25659574D01*
X64807510Y-25663153D01*
X64807506Y-25663160D01*
X64683328Y-25927052D01*
X64680398Y-25933279D01*
X64586922Y-26220967D01*
X64530241Y-26518103D01*
X64514994Y-26760445D01*
X64511247Y-26820000D01*
X60606694Y-26820000D01*
X60556478Y-26769784D01*
X60541336Y-26751036D01*
X60540221Y-26749811D01*
X60534571Y-26741060D01*
X60526393Y-26734613D01*
X60526391Y-26734611D01*
X60508200Y-26720271D01*
X60503759Y-26716325D01*
X60503697Y-26716398D01*
X60499733Y-26713039D01*
X60496056Y-26709362D01*
X60480308Y-26698108D01*
X60475638Y-26694602D01*
X60435353Y-26662844D01*
X60426719Y-26659812D01*
X60419266Y-26654486D01*
X60370150Y-26639797D01*
X60364508Y-26637964D01*
X60323633Y-26623610D01*
X60323632Y-26623610D01*
X60316149Y-26620982D01*
X60310584Y-26620500D01*
X60307876Y-26620500D01*
X60305242Y-26620386D01*
X60305144Y-26620357D01*
X60305151Y-26620193D01*
X60304447Y-26620149D01*
X60298222Y-26618287D01*
X60244365Y-26620403D01*
X60239418Y-26620500D01*
X49199682Y-26620500D01*
X49131561Y-26600498D01*
X49105114Y-26574860D01*
X49103878Y-26575949D01*
X49098855Y-26570251D01*
X49094553Y-26563992D01*
X48976275Y-26458611D01*
X48968889Y-26454700D01*
X48842988Y-26388039D01*
X48842989Y-26388039D01*
X48836274Y-26384484D01*
X48682633Y-26345892D01*
X48675034Y-26345852D01*
X48675033Y-26345852D01*
X48609181Y-26345507D01*
X48524221Y-26345062D01*
X48516841Y-26346834D01*
X48516839Y-26346834D01*
X48377563Y-26380271D01*
X48377560Y-26380272D01*
X48370184Y-26382043D01*
X48229414Y-26454700D01*
X48110039Y-26558838D01*
X48018950Y-26688444D01*
X47990935Y-26760300D01*
X47967659Y-26820000D01*
X47961406Y-26836037D01*
X47960414Y-26843570D01*
X47960414Y-26843571D01*
X47949161Y-26929051D01*
X47940729Y-26993096D01*
X47941563Y-27000646D01*
X47955380Y-27125797D01*
X47958113Y-27150553D01*
X47960723Y-27157684D01*
X47960723Y-27157686D01*
X48009698Y-27291516D01*
X48012553Y-27299319D01*
X48016789Y-27305622D01*
X48016789Y-27305623D01*
X48092998Y-27419033D01*
X48100908Y-27430805D01*
X48106527Y-27435918D01*
X48106528Y-27435919D01*
X48212460Y-27532309D01*
X48218076Y-27537419D01*
X48357293Y-27613008D01*
X48510522Y-27653207D01*
X48594477Y-27654526D01*
X48661319Y-27655576D01*
X48661322Y-27655576D01*
X48668916Y-27655695D01*
X48823332Y-27620329D01*
X48893742Y-27584917D01*
X48958072Y-27552563D01*
X48958075Y-27552561D01*
X48964855Y-27549151D01*
X48970626Y-27544222D01*
X48970629Y-27544220D01*
X49079542Y-27451199D01*
X49079543Y-27451198D01*
X49085314Y-27446269D01*
X49095586Y-27431974D01*
X49151581Y-27388326D01*
X49197909Y-27379500D01*
X60040616Y-27379500D01*
X60108737Y-27399502D01*
X60129711Y-27416405D01*
X71331352Y-38618046D01*
X71365378Y-38680358D01*
X71360313Y-38751173D01*
X71331352Y-38796236D01*
X60843993Y-49283595D01*
X60781681Y-49317621D01*
X60754898Y-49320500D01*
X39499682Y-49320500D01*
X39431561Y-49300498D01*
X39405114Y-49274860D01*
X39403878Y-49275949D01*
X39398855Y-49270251D01*
X39394553Y-49263992D01*
X39276275Y-49158611D01*
X39268889Y-49154700D01*
X39142988Y-49088039D01*
X39142989Y-49088039D01*
X39136274Y-49084484D01*
X38982633Y-49045892D01*
X38975034Y-49045852D01*
X38975033Y-49045852D01*
X38909181Y-49045507D01*
X38824221Y-49045062D01*
X38816841Y-49046834D01*
X38816839Y-49046834D01*
X38677563Y-49080271D01*
X38677560Y-49080272D01*
X38670184Y-49082043D01*
X38529414Y-49154700D01*
X38410039Y-49258838D01*
X38318950Y-49388444D01*
X38316190Y-49395524D01*
X38267464Y-49520500D01*
X38261406Y-49536037D01*
X38240729Y-49693096D01*
X32651647Y-49693096D01*
X32789447Y-49283896D01*
X32791469Y-49278327D01*
X32797062Y-49263992D01*
X33905083Y-46423798D01*
X34405748Y-45140442D01*
X34408049Y-45134934D01*
X36225910Y-41057062D01*
X36228483Y-41051641D01*
X37343451Y-38840095D01*
X38250489Y-37040979D01*
X38253325Y-37035674D01*
X38374732Y-36821062D01*
X39630258Y-34601649D01*
X40479926Y-33099677D01*
X40483032Y-33094480D01*
X42914811Y-29240354D01*
X42918176Y-29235296D01*
X45555598Y-25470457D01*
X45559212Y-25465555D01*
X48382714Y-21823239D01*
X48395779Y-21809756D01*
X48398965Y-21805845D01*
X48408528Y-21797937D01*
X48414338Y-21786971D01*
X48414387Y-21786910D01*
X48428269Y-21766058D01*
X48887561Y-21206768D01*
X48888207Y-21205988D01*
X49375384Y-20622368D01*
X49376035Y-20621593D01*
X49844319Y-20069680D01*
X49862349Y-20052302D01*
X49862402Y-20052240D01*
X49872157Y-20044562D01*
X49878230Y-20033737D01*
X49882237Y-20029053D01*
X49892404Y-20014912D01*
X49988984Y-19908151D01*
X49994285Y-19902637D01*
X50108259Y-19791075D01*
X50114436Y-19785421D01*
X50224052Y-19691620D01*
X50231109Y-19686007D01*
X50236454Y-19682060D01*
X50336800Y-19607961D01*
X50344497Y-19602708D01*
X50446934Y-19538231D01*
X50455084Y-19533517D01*
X50555026Y-19480590D01*
X50563334Y-19476573D01*
X50661584Y-19433429D01*
X50669790Y-19430163D01*
X50669804Y-19430158D01*
X50766854Y-19395428D01*
X50774815Y-19392875D01*
X50871125Y-19365478D01*
X50878690Y-19363578D01*
X50974187Y-19342721D01*
X50981403Y-19341364D01*
X51075898Y-19326451D01*
X51082848Y-19325552D01*
X51121256Y-19321671D01*
X51175919Y-19316148D01*
X51182692Y-19315648D01*
X51249968Y-19312498D01*
X51273669Y-19311388D01*
X51280417Y-19311253D01*
X51293470Y-19311342D01*
G37*
G04 #@! TD.AperFunction*
M02*
