M48
; DRILL file {KiCad 6.0.2-378541a8eb~116~ubuntu20.04.1} date Fri 27 Jan 2023 04:27:40 PM CET
; FORMAT={-:-/ absolute / metric / decimal}
; #@! TF.CreationDate,2023-01-27T16:27:40+01:00
; #@! TF.GenerationSoftware,Kicad,Pcbnew,6.0.2-378541a8eb~116~ubuntu20.04.1
; #@! TF.FileFunction,Plated,1,2,PTH
FMAT,2
METRIC
; #@! TA.AperFunction,Plated,PTH,ViaDrill
T1C0.400
; #@! TA.AperFunction,Plated,PTH,ComponentDrill
T2C1.000
%
G90
G05
T1
X33.2Y-83.4
X36.0Y-62.5
X36.0Y-101.5
X38.9Y-49.7
X40.9Y-117.5
X48.6Y-27.0
X50.0Y-44.0
X52.0Y-21.0
X53.0Y-136.5
X61.5Y-146.5
X79.245Y-54.78
X82.134Y-52.599
X83.0Y-162.2
X85.0Y-25.7
X89.8Y-164.5
X93.1Y-42.5
X95.1Y-43.9
X102.5Y-26.5
X111.5Y-38.4
X111.5Y-39.7
X111.6Y-42.3
X111.6Y-43.5
X111.6Y-46.1
X111.6Y-49.9
X111.6Y-51.2
X117.6Y-33.0
X121.1Y-42.9
X121.1Y-44.7
X121.1Y-46.6
X121.5Y-32.3
X122.0Y-169.0
X123.2Y-42.9
X123.2Y-44.7
X123.2Y-46.7
X123.7Y-170.9
X125.1Y-42.9
X125.1Y-44.7
X125.1Y-46.7
X126.6Y-34.9
X127.6Y-37.85
X130.3Y-58.4
X136.0Y-57.6
X138.0Y-34.9
X139.0Y-26.5
X144.0Y-45.3
X160.0Y-161.0
X190.5Y-21.0
X190.5Y-136.5
X197.0Y-27.0
X203.5Y-46.0
X207.0Y-101.5
X211.0Y-81.0
T2
X114.185Y-61.425
X116.725Y-61.425
X124.935Y-61.675
X127.475Y-61.675
T0
M30
