G04 #@! TF.GenerationSoftware,KiCad,Pcbnew,6.0.2-378541a8eb~116~ubuntu20.04.1*
G04 #@! TF.CreationDate,2023-01-27T16:27:25+01:00*
G04 #@! TF.ProjectId,BUCKY_IR,4255434b-595f-4495-922e-6b696361645f,rev?*
G04 #@! TF.SameCoordinates,Original*
G04 #@! TF.FileFunction,Soldermask,Top*
G04 #@! TF.FilePolarity,Negative*
%FSLAX46Y46*%
G04 Gerber Fmt 4.6, Leading zero omitted, Abs format (unit mm)*
G04 Created by KiCad (PCBNEW 6.0.2-378541a8eb~116~ubuntu20.04.1) date 2023-01-27 16:27:25*
%MOMM*%
%LPD*%
G01*
G04 APERTURE LIST*
G04 Aperture macros list*
%AMRoundRect*
0 Rectangle with rounded corners*
0 $1 Rounding radius*
0 $2 $3 $4 $5 $6 $7 $8 $9 X,Y pos of 4 corners*
0 Add a 4 corners polygon primitive as box body*
4,1,4,$2,$3,$4,$5,$6,$7,$8,$9,$2,$3,0*
0 Add four circle primitives for the rounded corners*
1,1,$1+$1,$2,$3*
1,1,$1+$1,$4,$5*
1,1,$1+$1,$6,$7*
1,1,$1+$1,$8,$9*
0 Add four rect primitives between the rounded corners*
20,1,$1+$1,$2,$3,$4,$5,0*
20,1,$1+$1,$4,$5,$6,$7,0*
20,1,$1+$1,$6,$7,$8,$9,0*
20,1,$1+$1,$8,$9,$2,$3,0*%
%AMRotRect*
0 Rectangle, with rotation*
0 The origin of the aperture is its center*
0 $1 length*
0 $2 width*
0 $3 Rotation angle, in degrees counterclockwise*
0 Add horizontal line*
21,1,$1,$2,0,0,$3*%
G04 Aperture macros list end*
%ADD10RotRect,0.900000X2.200000X67.500000*%
%ADD11R,1.700000X1.700000*%
%ADD12O,1.700000X1.700000*%
%ADD13RoundRect,0.250000X-0.250000X-1.500000X0.250000X-1.500000X0.250000X1.500000X-0.250000X1.500000X0*%
%ADD14RoundRect,0.250001X-0.499999X-1.449999X0.499999X-1.449999X0.499999X1.449999X-0.499999X1.449999X0*%
%ADD15RotRect,0.900000X2.200000X315.000000*%
%ADD16RoundRect,0.250000X-0.350000X-0.450000X0.350000X-0.450000X0.350000X0.450000X-0.350000X0.450000X0*%
%ADD17RotRect,0.900000X2.200000X230.000000*%
%ADD18R,0.900000X2.200000*%
%ADD19RoundRect,0.250000X0.550000X-1.500000X0.550000X1.500000X-0.550000X1.500000X-0.550000X-1.500000X0*%
%ADD20RotRect,0.900000X2.200000X292.500000*%
%ADD21RoundRect,0.250000X0.350000X0.450000X-0.350000X0.450000X-0.350000X-0.450000X0.350000X-0.450000X0*%
%ADD22RotRect,0.900000X2.200000X45.000000*%
%ADD23R,2.200000X0.900000*%
%ADD24RoundRect,0.250000X-0.475000X0.337500X-0.475000X-0.337500X0.475000X-0.337500X0.475000X0.337500X0*%
%ADD25R,2.000000X0.900000*%
%ADD26R,0.900000X2.000000*%
%ADD27R,5.000000X5.000000*%
%ADD28RoundRect,0.250000X-0.450000X0.350000X-0.450000X-0.350000X0.450000X-0.350000X0.450000X0.350000X0*%
%ADD29RoundRect,0.150000X0.825000X0.150000X-0.825000X0.150000X-0.825000X-0.150000X0.825000X-0.150000X0*%
%ADD30RotRect,0.900000X2.200000X130.000000*%
%ADD31RotRect,0.900000X2.200000X247.500000*%
%ADD32RoundRect,0.250000X-0.325000X-0.450000X0.325000X-0.450000X0.325000X0.450000X-0.325000X0.450000X0*%
%ADD33RotRect,0.900000X2.200000X337.500000*%
%ADD34R,2.000000X1.500000*%
%ADD35R,2.000000X3.800000*%
%ADD36RotRect,0.900000X2.200000X22.500000*%
%ADD37RotRect,0.900000X2.200000X112.500000*%
G04 APERTURE END LIST*
D10*
X205423102Y-118194368D03*
X205909110Y-117021041D03*
X206395118Y-115847714D03*
X206881126Y-114674387D03*
D11*
X116725000Y-61425000D03*
D12*
X114185000Y-61425000D03*
D13*
X136000000Y-54850000D03*
X138000000Y-54850000D03*
X140000000Y-54850000D03*
X142000000Y-54850000D03*
X144000000Y-54850000D03*
X146000000Y-54850000D03*
D14*
X148350000Y-60600000D03*
X133650000Y-60600000D03*
D15*
X55897648Y-144715346D03*
X56795674Y-145613372D03*
X57693699Y-146511397D03*
X58591725Y-147409423D03*
D16*
X93100000Y-43900000D03*
X95100000Y-43900000D03*
D17*
X50424832Y-21965434D03*
X49608492Y-22938310D03*
X48792152Y-23911186D03*
X47975812Y-24884063D03*
D18*
X88761003Y-23500000D03*
X87491003Y-23500000D03*
X86221003Y-23500000D03*
X84951003Y-23500000D03*
D11*
X127475000Y-61675000D03*
D12*
X124935000Y-61675000D03*
D18*
X158638997Y-23500000D03*
X157368997Y-23500000D03*
X156098997Y-23500000D03*
X154828997Y-23500000D03*
D19*
X70500000Y-50300000D03*
X70500000Y-44900000D03*
D20*
X36722700Y-114683626D03*
X37208708Y-115856953D03*
X37694716Y-117030280D03*
X38180724Y-118203607D03*
D21*
X121550000Y-61650000D03*
X119550000Y-61650000D03*
X138100000Y-51500000D03*
X136100000Y-51500000D03*
D18*
X119900000Y-172800000D03*
X121170000Y-172800000D03*
X122440000Y-172800000D03*
X123710000Y-172800000D03*
D22*
X185015346Y-147402352D03*
X185913372Y-146504326D03*
X186811397Y-145606301D03*
X187709423Y-144708275D03*
D19*
X77800000Y-50300000D03*
X77800000Y-44900000D03*
D16*
X138000000Y-34900000D03*
X140000000Y-34900000D03*
D23*
X30500000Y-79600000D03*
X30500000Y-80870000D03*
X30500000Y-82140000D03*
X30500000Y-83410000D03*
D24*
X97300000Y-46562500D03*
X97300000Y-48637500D03*
D25*
X130600000Y-52400000D03*
X130600000Y-51130000D03*
X130600000Y-49860000D03*
X130600000Y-48590000D03*
X130600000Y-47320000D03*
X130600000Y-46050000D03*
X130600000Y-44780000D03*
X130600000Y-43510000D03*
X130600000Y-42240000D03*
X130600000Y-40970000D03*
X130600000Y-39700000D03*
X130600000Y-38430000D03*
X130600000Y-37160000D03*
X130600000Y-35890000D03*
D26*
X127815000Y-34890000D03*
X126545000Y-34890000D03*
X125275000Y-34890000D03*
X124005000Y-34890000D03*
X122735000Y-34890000D03*
X121465000Y-34890000D03*
X120195000Y-34890000D03*
X118925000Y-34890000D03*
X117655000Y-34890000D03*
X116385000Y-34890000D03*
D25*
X113600000Y-35890000D03*
X113600000Y-37160000D03*
X113600000Y-38430000D03*
X113600000Y-39700000D03*
X113600000Y-40970000D03*
X113600000Y-42240000D03*
X113600000Y-43510000D03*
X113600000Y-44780000D03*
X113600000Y-46050000D03*
X113600000Y-47320000D03*
X113600000Y-48590000D03*
X113600000Y-49860000D03*
X113600000Y-51130000D03*
X113600000Y-52400000D03*
D27*
X123100000Y-44900000D03*
D18*
X123700000Y-23500000D03*
X122430000Y-23500000D03*
X121160000Y-23500000D03*
X119890000Y-23500000D03*
D28*
X130450000Y-59900000D03*
X130450000Y-61900000D03*
D29*
X107375000Y-41005000D03*
X107375000Y-39735000D03*
X107375000Y-38465000D03*
X107375000Y-37195000D03*
X102425000Y-37195000D03*
X102425000Y-38465000D03*
X102425000Y-39735000D03*
X102425000Y-41005000D03*
D30*
X195621296Y-24855484D03*
X194804956Y-23882608D03*
X193988616Y-22909732D03*
X193172276Y-21936855D03*
D24*
X68300000Y-53862500D03*
X68300000Y-55937500D03*
D31*
X38176898Y-44805632D03*
X37690890Y-45978959D03*
X37204882Y-47152286D03*
X36718874Y-48325613D03*
D32*
X137975000Y-37400000D03*
X140025000Y-37400000D03*
D19*
X102000000Y-50000000D03*
X102000000Y-44600000D03*
D33*
X85105632Y-165123102D03*
X86278959Y-165609110D03*
X87452286Y-166095118D03*
X88625613Y-166581126D03*
D34*
X84350000Y-44300000D03*
D35*
X90650000Y-46600000D03*
D34*
X84350000Y-46600000D03*
X84350000Y-48900000D03*
D13*
X73245000Y-54780000D03*
X75245000Y-54780000D03*
X77245000Y-54780000D03*
X79245000Y-54780000D03*
X81245000Y-54780000D03*
X83245000Y-54780000D03*
D14*
X85595000Y-60530000D03*
X70895000Y-60530000D03*
D23*
X213100000Y-83400000D03*
X213100000Y-82130000D03*
X213100000Y-80860000D03*
X213100000Y-79590000D03*
D36*
X154983626Y-166577300D03*
X156156953Y-166091292D03*
X157330280Y-165605284D03*
X158503607Y-165119276D03*
D13*
X98000000Y-54750000D03*
X100000000Y-54750000D03*
X102000000Y-54750000D03*
X104000000Y-54750000D03*
X106000000Y-54750000D03*
X108000000Y-54750000D03*
D14*
X95650000Y-60500000D03*
X110350000Y-60500000D03*
D37*
X206877300Y-48316374D03*
X206391292Y-47143047D03*
X205905284Y-45969720D03*
X205419276Y-44796393D03*
M02*
