  0
SECTION
  2
HEADER
  9
$ACADVER
  1
AC1009
  9
$FILLMODE
 70
 0
  9
$SPLFRAME
 70
 1
  9
$EXTMIN
 10
0
 20
0
 30
0.0
  9
$EXTMAX
 10
41.6667
 20
41.6667
 30
0.0
  0
ENDSEC
  0
SECTION
  2
TABLES
  0
TABLE
  2
LAYER
 70
1
  0
LAYER
  2
0
 70
     0
 62
     7
  6
CONTINUOUS
  0
ENDTAB
  0
ENDSEC
  0
SECTION
  2
ENTITIES
  0
POLYLINE
  8
0
 62
     0
 66
     1
 10
0
 20
0
 30
0.0
 40
13
 41
13
  0
VERTEX
  8
0
 10
8.04254
 20
3.94314
 30
0.0
 40
0.180556
 41
0.180556
  0
VERTEX
  8
0
 10
8.14165
 20
3.97314
 30
0.0
 40
0.180556
 41
0.180556
  0
VERTEX
  8
0
 10
8.43153
 20
4.08849
 30
0.0
 40
0.180556
 41
0.180556
  0
VERTEX
  8
0
 10
8.79818
 20
4.28217
 30
0.0
 40
0.180556
 41
0.180556
  0
VERTEX
  8
0
 10
9.14399
 20
4.52442
 30
0.0
 40
0.180556
 41
0.180556
  0
VERTEX
  8
0
 10
9.39328
 20
4.7385
 30
0.0
 40
0.180556
 41
0.180556
  0
VERTEX
  8
0
 10
9.47081
 20
4.81549
 30
0.0
 40
0.180556
 41
0.180556
  0
VERTEX
  8
0
 10
9.53478
 20
4.87907
 30
0.0
 40
0.180556
 41
0.180556
  0
VERTEX
  8
0
 10
9.71397
 20
5.08274
 30
0.0
 40
0.180556
 41
0.180556
  0
VERTEX
  8
0
 10
9.92492
 20
5.36762
 30
0.0
 40
0.180556
 41
0.180556
  0
VERTEX
  8
0
 10
10.1036
 20
5.66764
 30
0.0
 40
0.180556
 41
0.180556
  0
VERTEX
  8
0
 10
10.2501
 20
5.98031
 30
0.0
 40
0.180556
 41
0.180556
  0
VERTEX
  8
0
 10
10.3642
 20
6.30317
 30
0.0
 40
0.180556
 41
0.180556
  0
VERTEX
  8
0
 10
10.4461
 20
6.63363
 30
0.0
 40
0.180556
 41
0.180556
  0
VERTEX
  8
0
 10
10.4957
 20
6.96924
 30
0.0
 40
0.180556
 41
0.180556
  0
VERTEX
  8
0
 10
10.513
 20
7.30746
 30
0.0
 40
0.180556
 41
0.180556
  0
VERTEX
  8
0
 10
10.498
 20
7.64578
 30
0.0
 40
0.180556
 41
0.180556
  0
VERTEX
  8
0
 10
10.4507
 20
7.98172
 30
0.0
 40
0.180556
 41
0.180556
  0
VERTEX
  8
0
 10
10.3711
 20
8.31272
 30
0.0
 40
0.180556
 41
0.180556
  0
VERTEX
  8
0
 10
10.2592
 20
8.63633
 30
0.0
 40
0.180556
 41
0.180556
  0
VERTEX
  8
0
 10
10.1149
 20
8.95003
 30
0.0
 40
0.180556
 41
0.180556
  0
VERTEX
  8
0
 10
9.93826
 20
9.25125
 30
0.0
 40
0.180556
 41
0.180556
  0
VERTEX
  8
0
 10
9.72928
 20
9.5376
 30
0.0
 40
0.180556
 41
0.180556
  0
VERTEX
  8
0
 10
9.55149
 20
9.74246
 30
0.0
 40
0.180556
 41
0.180556
  0
VERTEX
  8
0
 10
9.48796
 20
9.80643
 30
0.0
 40
0.180556
 41
0.180556
  0
VERTEX
  8
0
 10
9.48671
 20
9.80712
 30
0.0
 40
0.180556
 41
0.180556
  0
VERTEX
  8
0
 10
9.48053
 20
9.81342
 30
0.0
 40
0.180556
 41
0.180556
  0
VERTEX
  8
0
 10
9.46169
 20
9.83192
 30
0.0
 40
0.180556
 41
0.180556
  0
VERTEX
  8
0
 10
9.41553
 20
9.87701
 30
0.0
 40
0.180556
 41
0.180556
  0
VERTEX
  8
0
 10
9.35422
 20
9.93647
 30
0.0
 40
0.180556
 41
0.180556
  0
VERTEX
  8
0
 10
9.28381
 20
10.0043
 30
0.0
 40
0.180556
 41
0.180556
  0
VERTEX
  8
0
 10
9.21018
 20
10.0746
 30
0.0
 40
0.180556
 41
0.180556
  0
VERTEX
  8
0
 10
9.13954
 20
10.1413
 30
0.0
 40
0.180556
 41
0.180556
  0
VERTEX
  8
0
 10
9.07781
 20
10.1987
 30
0.0
 40
0.180556
 41
0.180556
  0
VERTEX
  8
0
 10
9.04292
 20
10.2303
 30
0.0
 40
0.180556
 41
0.180556
  0
VERTEX
  8
0
 10
9.03108
 20
10.2406
 30
0.0
 40
0.180556
 41
0.180556
  0
VERTEX
  8
0
 10
9.01465
 20
10.2548
 30
0.0
 40
0.180556
 41
0.180556
  0
VERTEX
  8
0
 10
8.97049
 20
10.3034
 30
0.0
 40
0.180556
 41
0.180556
  0
VERTEX
  8
0
 10
8.93229
 20
10.3694
 30
0.0
 40
0.180556
 41
0.180556
  0
VERTEX
  8
0
 10
8.90831
 20
10.448
 30
0.0
 40
0.180556
 41
0.180556
  0
VERTEX
  8
0
 10
8.89426
 20
10.5234
 30
0.0
 40
0.180556
 41
0.180556
  0
VERTEX
  8
0
 10
8.8904
 20
10.5487
 30
0.0
 40
0.180556
 41
0.180556
  0
VERTEX
  8
0
 10
8.88764
 20
10.5667
 30
0.0
 40
0.180556
 41
0.180556
  0
VERTEX
  8
0
 10
8.88379
 20
10.6212
 30
0.0
 40
0.180556
 41
0.180556
  0
VERTEX
  8
0
 10
8.88103
 20
10.7172
 30
0.0
 40
0.180556
 41
0.180556
  0
VERTEX
  8
0
 10
8.88112
 20
10.8263
 30
0.0
 40
0.180556
 41
0.180556
  0
VERTEX
  8
0
 10
8.88331
 20
10.9384
 30
0.0
 40
0.180556
 41
0.180556
  0
VERTEX
  8
0
 10
8.88661
 20
11.0433
 30
0.0
 40
0.180556
 41
0.180556
  0
VERTEX
  8
0
 10
8.89003
 20
11.1309
 30
0.0
 40
0.180556
 41
0.180556
  0
VERTEX
  8
0
 10
8.89279
 20
11.1909
 30
0.0
 40
0.180556
 41
0.180556
  0
VERTEX
  8
0
 10
8.89393
 20
11.2131
 30
0.0
 40
0.180556
 41
0.180556
  0
VERTEX
  8
0
 10
8.89393
 20
11.2131
 30
0.0
 40
0.180556
 41
0.180556
  0
VERTEX
  8
0
 10
8.89583
 20
11.2356
 30
0.0
 40
0.180556
 41
0.180556
  0
VERTEX
  8
0
 10
8.91949
 20
11.3013
 30
0.0
 40
0.180556
 41
0.180556
  0
VERTEX
  8
0
 10
8.97683
 20
11.3943
 30
0.0
 40
0.180556
 41
0.180556
  0
VERTEX
  8
0
 10
9.05826
 20
11.4871
 30
0.0
 40
0.180556
 41
0.180556
  0
VERTEX
  8
0
 10
9.15619
 20
11.5749
 30
0.0
 40
0.180556
 41
0.180556
  0
VERTEX
  8
0
 10
9.26313
 20
11.6526
 30
0.0
 40
0.180556
 41
0.180556
  0
VERTEX
  8
0
 10
9.37136
 20
11.7153
 30
0.0
 40
0.180556
 41
0.180556
  0
VERTEX
  8
0
 10
9.47336
 20
11.7581
 30
0.0
 40
0.180556
 41
0.180556
  0
VERTEX
  8
0
 10
9.53933
 20
11.775
 30
0.0
 40
0.180556
 41
0.180556
  0
VERTEX
  8
0
 10
9.56158
 20
11.776
 30
0.0
 40
0.180556
 41
0.180556
  0
VERTEX
  8
0
 10
9.59233
 20
11.7775
 30
0.0
 40
0.180556
 41
0.180556
  0
VERTEX
  8
0
 10
9.68599
 20
11.7546
 30
0.0
 40
0.180556
 41
0.180556
  0
VERTEX
  8
0
 10
9.81922
 20
11.6926
 30
0.0
 40
0.180556
 41
0.180556
  0
VERTEX
  8
0
 10
9.949
 20
11.6103
 30
0.0
 40
0.180556
 41
0.180556
  0
VERTEX
  8
0
 10
10.0348
 20
11.5491
 30
0.0
 40
0.180556
 41
0.180556
  0
VERTEX
  8
0
 10
10.063
 20
11.5283
 30
0.0
 40
0.180556
 41
0.180556
  0
VERTEX
  8
0
 10
10.0917
 20
11.508
 30
0.0
 40
0.180556
 41
0.180556
  0
VERTEX
  8
0
 10
10.1762
 20
11.4452
 30
0.0
 40
0.180556
 41
0.180556
  0
VERTEX
  8
0
 10
10.2938
 20
11.3464
 30
0.0
 40
0.180556
 41
0.180556
  0
VERTEX
  8
0
 10
10.3928
 20
11.2377
 30
0.0
 40
0.180556
 41
0.180556
  0
VERTEX
  8
0
 10
10.4429
 20
11.1552
 30
0.0
 40
0.180556
 41
0.180556
  0
VERTEX
  8
0
 10
10.4508
 20
11.1254
 30
0.0
 40
0.180556
 41
0.180556
  0
VERTEX
  8
0
 10
10.4559
 20
11.1061
 30
0.0
 40
0.180556
 41
0.180556
  0
VERTEX
  8
0
 10
10.4564
 20
11.0441
 30
0.0
 40
0.180556
 41
0.180556
  0
VERTEX
  8
0
 10
10.4377
 20
10.9541
 30
0.0
 40
0.180556
 41
0.180556
  0
VERTEX
  8
0
 10
10.4025
 20
10.8581
 30
0.0
 40
0.180556
 41
0.180556
  0
VERTEX
  8
0
 10
10.3585
 20
10.7586
 30
0.0
 40
0.180556
 41
0.180556
  0
VERTEX
  8
0
 10
10.3132
 20
10.6582
 30
0.0
 40
0.180556
 41
0.180556
  0
VERTEX
  8
0
 10
10.2745
 20
10.5593
 30
0.0
 40
0.180556
 41
0.180556
  0
VERTEX
  8
0
 10
10.2499
 20
10.4647
 30
0.0
 40
0.180556
 41
0.180556
  0
VERTEX
  8
0
 10
10.2445
 20
10.3983
 30
0.0
 40
0.180556
 41
0.180556
  0
VERTEX
  8
0
 10
10.2473
 20
10.3767
 30
0.0
 40
0.180556
 41
0.180556
  0
VERTEX
  8
0
 10
10.2486
 20
10.3663
 30
0.0
 40
0.180556
 41
0.180556
  0
VERTEX
  8
0
 10
10.2636
 20
10.3363
 30
0.0
 40
0.180556
 41
0.180556
  0
VERTEX
  8
0
 10
10.3011
 20
10.2733
 30
0.0
 40
0.180556
 41
0.180556
  0
VERTEX
  8
0
 10
10.3525
 20
10.1965
 30
0.0
 40
0.180556
 41
0.180556
  0
VERTEX
  8
0
 10
10.4106
 20
10.1143
 30
0.0
 40
0.180556
 41
0.180556
  0
VERTEX
  8
0
 10
10.4683
 20
10.0354
 30
0.0
 40
0.180556
 41
0.180556
  0
VERTEX
  8
0
 10
10.5184
 20
9.96847
 30
0.0
 40
0.180556
 41
0.180556
  0
VERTEX
  8
0
 10
10.5537
 20
9.92204
 30
0.0
 40
0.180556
 41
0.180556
  0
VERTEX
  8
0
 10
10.5671
 20
9.90463
 30
0.0
 40
0.180556
 41
0.180556
  0
VERTEX
  8
0
 10
10.5671
 20
9.90457
 30
0.0
 40
0.180556
 41
0.180556
  0
VERTEX
  8
0
 10
10.5671
 20
9.90457
 30
0.0
 40
0.180556
 41
0.180556
  0
VERTEX
  8
0
 10
10.5793
 20
9.88644
 30
0.0
 40
0.180556
 41
0.180556
  0
VERTEX
  8
0
 10
10.6123
 20
9.83832
 30
0.0
 40
0.180556
 41
0.180556
  0
VERTEX
  8
0
 10
10.66
 20
9.76975
 30
0.0
 40
0.180556
 41
0.180556
  0
VERTEX
  8
0
 10
10.7166
 20
9.69026
 30
0.0
 40
0.180556
 41
0.180556
  0
VERTEX
  8
0
 10
10.7762
 20
9.60932
 30
0.0
 40
0.180556
 41
0.180556
  0
VERTEX
  8
0
 10
10.833
 20
9.5364
 30
0.0
 40
0.180556
 41
0.180556
  0
VERTEX
  8
0
 10
10.8809
 20
9.48107
 30
0.0
 40
0.180556
 41
0.180556
  0
VERTEX
  8
0
 10
10.9046
 20
9.45736
 30
0.0
 40
0.180556
 41
0.180556
  0
VERTEX
  8
0
 10
10.9142
 20
9.45275
 30
0.0
 40
0.180556
 41
0.180556
  0
VERTEX
  8
0
 10
10.9337
 20
9.44336
 30
0.0
 40
0.180556
 41
0.180556
  0
VERTEX
  8
0
 10
10.9984
 20
9.42757
 30
0.0
 40
0.180556
 41
0.180556
  0
VERTEX
  8
0
 10
11.096
 20
9.42106
 30
0.0
 40
0.180556
 41
0.180556
  0
VERTEX
  8
0
 10
11.202
 20
9.42665
 30
0.0
 40
0.180556
 41
0.180556
  0
VERTEX
  8
0
 10
11.3115
 20
9.43787
 30
0.0
 40
0.180556
 41
0.180556
  0
VERTEX
  8
0
 10
11.4198
 20
9.44829
 30
0.0
 40
0.180556
 41
0.180556
  0
VERTEX
  8
0
 10
11.522
 20
9.45144
 30
0.0
 40
0.180556
 41
0.180556
  0
VERTEX
  8
0
 10
11.6132
 20
9.44081
 30
0.0
 40
0.180556
 41
0.180556
  0
VERTEX
  8
0
 10
11.6719
 20
9.42085
 30
0.0
 40
0.180556
 41
0.180556
  0
VERTEX
  8
0
 10
11.6887
 20
9.40983
 30
0.0
 40
0.180556
 41
0.180556
  0
VERTEX
  8
0
 10
11.7145
 20
9.39296
 30
0.0
 40
0.180556
 41
0.180556
  0
VERTEX
  8
0
 10
11.7768
 20
9.31939
 30
0.0
 40
0.180556
 41
0.180556
  0
VERTEX
  8
0
 10
11.8481
 20
9.19092
 30
0.0
 40
0.180556
 41
0.180556
  0
VERTEX
  8
0
 10
11.9048
 20
9.04813
 30
0.0
 40
0.180556
 41
0.180556
  0
VERTEX
  8
0
 10
11.9382
 20
8.94814
 30
0.0
 40
0.180556
 41
0.180556
  0
VERTEX
  8
0
 10
11.9488
 20
8.91465
 30
0.0
 40
0.180556
 41
0.180556
  0
VERTEX
  8
0
 10
11.9601
 20
8.88146
 30
0.0
 40
0.180556
 41
0.180556
  0
VERTEX
  8
0
 10
11.9916
 20
8.78093
 30
0.0
 40
0.180556
 41
0.180556
  0
VERTEX
  8
0
 10
12.0286
 20
8.63183
 30
0.0
 40
0.180556
 41
0.180556
  0
VERTEX
  8
0
 10
12.0449
 20
8.48574
 30
0.0
 40
0.180556
 41
0.180556
  0
VERTEX
  8
0
 10
12.0369
 20
8.3896
 30
0.0
 40
0.180556
 41
0.180556
  0
VERTEX
  8
0
 10
12.0258
 20
8.36079
 30
0.0
 40
0.180556
 41
0.180556
  0
VERTEX
  8
0
 10
12.0186
 20
8.34213
 30
0.0
 40
0.180556
 41
0.180556
  0
VERTEX
  8
0
 10
11.9824
 20
8.29172
 30
0.0
 40
0.180556
 41
0.180556
  0
VERTEX
  8
0
 10
11.9144
 20
8.22988
 30
0.0
 40
0.180556
 41
0.180556
  0
VERTEX
  8
0
 10
11.8295
 20
8.1729
 30
0.0
 40
0.180556
 41
0.180556
  0
VERTEX
  8
0
 10
11.7354
 20
8.11833
 30
0.0
 40
0.180556
 41
0.180556
  0
VERTEX
  8
0
 10
11.6398
 20
8.06369
 30
0.0
 40
0.180556
 41
0.180556
  0
VERTEX
  8
0
 10
11.5503
 20
8.00651
 30
0.0
 40
0.180556
 41
0.180556
  0
VERTEX
  8
0
 10
11.4749
 20
7.94439
 30
0.0
 40
0.180556
 41
0.180556
  0
VERTEX
  8
0
 10
11.4314
 20
7.89388
 30
0.0
 40
0.180556
 41
0.180556
  0
VERTEX
  8
0
 10
11.4211
 20
7.87478
 30
0.0
 40
0.180556
 41
0.180556
  0
VERTEX
  8
0
 10
11.416
 20
7.8655
 30
0.0
 40
0.180556
 41
0.180556
  0
VERTEX
  8
0
 10
11.4105
 20
7.83242
 30
0.0
 40
0.180556
 41
0.180556
  0
VERTEX
  8
0
 10
11.4038
 20
7.75944
 30
0.0
 40
0.180556
 41
0.180556
  0
VERTEX
  8
0
 10
11.4001
 20
7.66704
 30
0.0
 40
0.180556
 41
0.180556
  0
VERTEX
  8
0
 10
11.3989
 20
7.5664
 30
0.0
 40
0.180556
 41
0.180556
  0
VERTEX
  8
0
 10
11.3992
 20
7.46875
 30
0.0
 40
0.180556
 41
0.180556
  0
VERTEX
  8
0
 10
11.4004
 20
7.38514
 30
0.0
 40
0.180556
 41
0.180556
  0
VERTEX
  8
0
 10
11.4016
 20
7.32682
 30
0.0
 40
0.180556
 41
0.180556
  0
VERTEX
  8
0
 10
11.4022
 20
7.30485
 30
0.0
 40
0.180556
 41
0.180556
  0
VERTEX
  8
0
 10
11.4022
 20
7.30485
 30
0.0
 40
0.180556
 41
0.180556
  0
VERTEX
  8
0
 10
11.4022
 20
7.30479
 30
0.0
 40
0.180556
 41
0.180556
  0
VERTEX
  8
0
 10
11.4022
 20
7.30479
 30
0.0
 40
0.180556
 41
0.180556
  0
VERTEX
  8
0
 10
11.4014
 20
7.28293
 30
0.0
 40
0.180556
 41
0.180556
  0
VERTEX
  8
0
 10
11.3998
 20
7.22461
 30
0.0
 40
0.180556
 41
0.180556
  0
VERTEX
  8
0
 10
11.3981
 20
7.14111
 30
0.0
 40
0.180556
 41
0.180556
  0
VERTEX
  8
0
 10
11.3972
 20
7.04351
 30
0.0
 40
0.180556
 41
0.180556
  0
VERTEX
  8
0
 10
11.3978
 20
6.94299
 30
0.0
 40
0.180556
 41
0.180556
  0
VERTEX
  8
0
 10
11.4009
 20
6.85064
 30
0.0
 40
0.180556
 41
0.180556
  0
VERTEX
  8
0
 10
11.4071
 20
6.77772
 30
0.0
 40
0.180556
 41
0.180556
  0
VERTEX
  8
0
 10
11.4124
 20
6.74457
 30
0.0
 40
0.180556
 41
0.180556
  0
VERTEX
  8
0
 10
11.4174
 20
6.73525
 30
0.0
 40
0.180556
 41
0.180556
  0
VERTEX
  8
0
 10
11.4277
 20
6.71615
 30
0.0
 40
0.180556
 41
0.180556
  0
VERTEX
  8
0
 10
11.4708
 20
6.66536
 30
0.0
 40
0.180556
 41
0.180556
  0
VERTEX
  8
0
 10
11.5458
 20
6.60271
 30
0.0
 40
0.180556
 41
0.180556
  0
VERTEX
  8
0
 10
11.6349
 20
6.54492
 30
0.0
 40
0.180556
 41
0.180556
  0
VERTEX
  8
0
 10
11.7301
 20
6.48958
 30
0.0
 40
0.180556
 41
0.180556
  0
VERTEX
  8
0
 10
11.8239
 20
6.43435
 30
0.0
 40
0.180556
 41
0.180556
  0
VERTEX
  8
0
 10
11.9084
 20
6.37685
 30
0.0
 40
0.180556
 41
0.180556
  0
VERTEX
  8
0
 10
11.976
 20
6.31461
 30
0.0
 40
0.180556
 41
0.180556
  0
VERTEX
  8
0
 10
12.0117
 20
6.26394
 30
0.0
 40
0.180556
 41
0.180556
  0
VERTEX
  8
0
 10
12.0188
 20
6.24522
 30
0.0
 40
0.180556
 41
0.180556
  0
VERTEX
  8
0
 10
12.0297
 20
6.21647
 30
0.0
 40
0.180556
 41
0.180556
  0
VERTEX
  8
0
 10
12.0369
 20
6.12028
 30
0.0
 40
0.180556
 41
0.180556
  0
VERTEX
  8
0
 10
12.0191
 20
5.97439
 30
0.0
 40
0.180556
 41
0.180556
  0
VERTEX
  8
0
 10
11.981
 20
5.82557
 30
0.0
 40
0.180556
 41
0.180556
  0
VERTEX
  8
0
 10
11.9492
 20
5.7251
 30
0.0
 40
0.180556
 41
0.180556
  0
VERTEX
  8
0
 10
11.9382
 20
5.69179
 30
0.0
 40
0.180556
 41
0.180556
  0
VERTEX
  8
0
 10
11.9277
 20
5.65831
 30
0.0
 40
0.180556
 41
0.180556
  0
VERTEX
  8
0
 10
11.8942
 20
5.55843
 30
0.0
 40
0.180556
 41
0.180556
  0
VERTEX
  8
0
 10
11.8365
 20
5.41607
 30
0.0
 40
0.180556
 41
0.180556
  0
VERTEX
  8
0
 10
11.7638
 20
5.28825
 30
0.0
 40
0.180556
 41
0.180556
  0
VERTEX
  8
0
 10
11.7007
 20
5.21517
 30
0.0
 40
0.180556
 41
0.180556
  0
VERTEX
  8
0
 10
11.6748
 20
5.1984
 30
0.0
 40
0.180556
 41
0.180556
  0
VERTEX
  8
0
 10
11.658
 20
5.18756
 30
0.0
 40
0.180556
 41
0.180556
  0
VERTEX
  8
0
 10
11.5992
 20
5.16803
 30
0.0
 40
0.180556
 41
0.180556
  0
VERTEX
  8
0
 10
11.5079
 20
5.15799
 30
0.0
 40
0.180556
 41
0.180556
  0
VERTEX
  8
0
 10
11.4057
 20
5.16178
 30
0.0
 40
0.180556
 41
0.180556
  0
VERTEX
  8
0
 10
11.2975
 20
5.17296
 30
0.0
 40
0.180556
 41
0.180556
  0
VERTEX
  8
0
 10
11.1879
 20
5.18494
 30
0.0
 40
0.180556
 41
0.180556
  0
VERTEX
  8
0
 10
11.082
 20
5.19125
 30
0.0
 40
0.180556
 41
0.180556
  0
VERTEX
  8
0
 10
10.9844
 20
5.18533
 30
0.0
 40
0.180556
 41
0.180556
  0
VERTEX
  8
0
 10
10.9195
 20
5.16997
 30
0.0
 40
0.180556
 41
0.180556
  0
VERTEX
  8
0
 10
10.9
 20
5.16064
 30
0.0
 40
0.180556
 41
0.180556
  0
VERTEX
  8
0
 10
10.8904
 20
5.15614
 30
0.0
 40
0.180556
 41
0.180556
  0
VERTEX
  8
0
 10
10.8665
 20
5.1326
 30
0.0
 40
0.180556
 41
0.180556
  0
VERTEX
  8
0
 10
10.8181
 20
5.07753
 30
0.0
 40
0.180556
 41
0.180556
  0
VERTEX
  8
0
 10
10.761
 20
5.00493
 30
0.0
 40
0.180556
 41
0.180556
  0
VERTEX
  8
0
 10
10.7008
 20
4.92426
 30
0.0
 40
0.180556
 41
0.180556
  0
VERTEX
  8
0
 10
10.6437
 20
4.84506
 30
0.0
 40
0.180556
 41
0.180556
  0
VERTEX
  8
0
 10
10.5955
 20
4.77675
 30
0.0
 40
0.180556
 41
0.180556
  0
VERTEX
  8
0
 10
10.5622
 20
4.72879
 30
0.0
 40
0.180556
 41
0.180556
  0
VERTEX
  8
0
 10
10.5498
 20
4.71067
 30
0.0
 40
0.180556
 41
0.180556
  0
VERTEX
  8
0
 10
10.5498
 20
4.71067
 30
0.0
 40
0.180556
 41
0.180556
  0
VERTEX
  8
0
 10
10.5498
 20
4.71067
 30
0.0
 40
0.180556
 41
0.180556
  0
VERTEX
  8
0
 10
10.5363
 20
4.69342
 30
0.0
 40
0.180556
 41
0.180556
  0
VERTEX
  8
0
 10
10.5008
 20
4.64719
 30
0.0
 40
0.180556
 41
0.180556
  0
VERTEX
  8
0
 10
10.4503
 20
4.58062
 30
0.0
 40
0.180556
 41
0.180556
  0
VERTEX
  8
0
 10
10.3921
 20
4.50217
 30
0.0
 40
0.180556
 41
0.180556
  0
VERTEX
  8
0
 10
10.3336
 20
4.42046
 30
0.0
 40
0.180556
 41
0.180556
  0
VERTEX
  8
0
 10
10.2817
 20
4.34403
 30
0.0
 40
0.180556
 41
0.180556
  0
VERTEX
  8
0
 10
10.2439
 20
4.28131
 30
0.0
 40
0.180556
 41
0.180556
  0
VERTEX
  8
0
 10
10.2288
 20
4.25136
 30
0.0
 40
0.180556
 41
0.180556
  0
VERTEX
  8
0
 10
10.2274
 20
4.24089
 30
0.0
 40
0.180556
 41
0.180556
  0
VERTEX
  8
0
 10
10.2244
 20
4.2194
 30
0.0
 40
0.180556
 41
0.180556
  0
VERTEX
  8
0
 10
10.2294
 20
4.153
 30
0.0
 40
0.180556
 41
0.180556
  0
VERTEX
  8
0
 10
10.2533
 20
4.05817
 30
0.0
 40
0.180556
 41
0.180556
  0
VERTEX
  8
0
 10
10.2913
 20
3.9591
 30
0.0
 40
0.180556
 41
0.180556
  0
VERTEX
  8
0
 10
10.3359
 20
3.8584
 30
0.0
 40
0.180556
 41
0.180556
  0
VERTEX
  8
0
 10
10.3792
 20
3.75863
 30
0.0
 40
0.180556
 41
0.180556
  0
VERTEX
  8
0
 10
10.4138
 20
3.66238
 30
0.0
 40
0.180556
 41
0.180556
  0
VERTEX
  8
0
 10
10.4319
 20
3.57232
 30
0.0
 40
0.180556
 41
0.180556
  0
VERTEX
  8
0
 10
10.431
 20
3.51031
 30
0.0
 40
0.180556
 41
0.180556
  0
VERTEX
  8
0
 10
10.4258
 20
3.491
 30
0.0
 40
0.180556
 41
0.180556
  0
VERTEX
  8
0
 10
10.4177
 20
3.46126
 30
0.0
 40
0.180556
 41
0.180556
  0
VERTEX
  8
0
 10
10.3669
 20
3.37924
 30
0.0
 40
0.180556
 41
0.180556
  0
VERTEX
  8
0
 10
10.2668
 20
3.27165
 30
0.0
 40
0.180556
 41
0.180556
  0
VERTEX
  8
0
 10
10.1485
 20
3.17367
 30
0.0
 40
0.180556
 41
0.180556
  0
VERTEX
  8
0
 10
10.0638
 20
3.11106
 30
0.0
 40
0.180556
 41
0.180556
  0
VERTEX
  8
0
 10
10.0353
 20
3.0906
 30
0.0
 40
0.180556
 41
0.180556
  0
VERTEX
  8
0
 10
10.0072
 20
3.06967
 30
0.0
 40
0.180556
 41
0.180556
  0
VERTEX
  8
0
 10
9.92128
 20
3.00863
 30
0.0
 40
0.180556
 41
0.180556
  0
VERTEX
  8
0
 10
9.79096
 20
2.92736
 30
0.0
 40
0.180556
 41
0.180556
  0
VERTEX
  8
0
 10
9.65701
 20
2.86664
 30
0.0
 40
0.180556
 41
0.180556
  0
VERTEX
  8
0
 10
9.5631
 20
2.84457
 30
0.0
 40
0.180556
 41
0.180556
  0
VERTEX
  8
0
 10
9.53233
 20
2.84625
 30
0.0
 40
0.180556
 41
0.180556
  0
VERTEX
  8
0
 10
9.51232
 20
2.84733
 30
0.0
 40
0.180556
 41
0.180556
  0
VERTEX
  8
0
 10
9.45318
 20
2.86615
 30
0.0
 40
0.180556
 41
0.180556
  0
VERTEX
  8
0
 10
9.37338
 20
2.91168
 30
0.0
 40
0.180556
 41
0.180556
  0
VERTEX
  8
0
 10
9.29292
 20
2.97483
 30
0.0
 40
0.180556
 41
0.180556
  0
VERTEX
  8
0
 10
9.21192
 20
3.04747
 30
0.0
 40
0.180556
 41
0.180556
  0
VERTEX
  8
0
 10
9.13038
 20
3.12158
 30
0.0
 40
0.180556
 41
0.180556
  0
VERTEX
  8
0
 10
9.04833
 20
3.18892
 30
0.0
 40
0.180556
 41
0.180556
  0
VERTEX
  8
0
 10
8.96593
 20
3.24149
 30
0.0
 40
0.180556
 41
0.180556
  0
VERTEX
  8
0
 10
8.90446
 20
3.26719
 30
0.0
 40
0.180556
 41
0.180556
  0
VERTEX
  8
0
 10
8.88314
 20
3.27115
 30
0.0
 40
0.180556
 41
0.180556
  0
VERTEX
  8
0
 10
8.87272
 20
3.27311
 30
0.0
 40
0.180556
 41
0.180556
  0
VERTEX
  8
0
 10
8.83951
 20
3.26818
 30
0.0
 40
0.180556
 41
0.180556
  0
VERTEX
  8
0
 10
8.76807
 20
3.25201
 30
0.0
 40
0.180556
 41
0.180556
  0
VERTEX
  8
0
 10
8.6791
 20
3.22689
 30
0.0
 40
0.180556
 41
0.180556
  0
VERTEX
  8
0
 10
8.58301
 20
3.197
 30
0.0
 40
0.180556
 41
0.180556
  0
VERTEX
  8
0
 10
8.49024
 20
3.1665
 30
0.0
 40
0.180556
 41
0.180556
  0
VERTEX
  8
0
 10
8.41108
 20
3.13954
 30
0.0
 40
0.180556
 41
0.180556
  0
VERTEX
  8
0
 10
8.35601
 20
3.12033
 30
0.0
 40
0.180556
 41
0.180556
  0
VERTEX
  8
0
 10
8.33535
 20
3.11296
 30
0.0
 40
0.180556
 41
0.180556
  0
VERTEX
  8
0
 10
8.33535
 20
3.11296
 30
0.0
 40
0.180556
 41
0.180556
  0
VERTEX
  8
0
 10
8.33535
 20
3.11296
 30
0.0
 40
0.180556
 41
0.180556
  0
VERTEX
  8
0
 10
8.32021
 20
3.10861
 30
0.0
 40
0.180556
 41
0.180556
  0
VERTEX
  8
0
 10
8.27908
 20
3.09657
 30
0.0
 40
0.180556
 41
0.180556
  0
VERTEX
  8
0
 10
8.21853
 20
3.07844
 30
0.0
 40
0.180556
 41
0.180556
  0
VERTEX
  8
0
 10
8.16336
 20
3.06158
 30
0.0
 40
0.180556
 41
0.180556
  0
VERTEX
  8
0
 10
8.14501
 20
3.05583
 30
0.0
 40
0.180556
 41
0.180556
  0
SEQEND
 8
0
  0
POLYLINE
  8
0
 62
     0
 66
     1
 10
0
 20
0
 30
0.0
 40
13
 41
13
  0
VERTEX
  8
0
 10
5.83333
 20
3.98247
 30
0.0
 40
0.180556
 41
0.180556
  0
VERTEX
  8
0
 10
5.74029
 20
4.01449
 30
0.0
 40
0.180556
 41
0.180556
  0
VERTEX
  8
0
 10
5.46837
 20
4.1314
 30
0.0
 40
0.180556
 41
0.180556
  0
VERTEX
  8
0
 10
5.11865
 20
4.32275
 30
0.0
 40
0.180556
 41
0.180556
  0
VERTEX
  8
0
 10
4.78792
 20
4.55653
 30
0.0
 40
0.180556
 41
0.180556
  0
VERTEX
  8
0
 10
4.55268
 20
4.75944
 30
0.0
 40
0.180556
 41
0.180556
  0
VERTEX
  8
0
 10
4.47993
 20
4.83268
 30
0.0
 40
0.180556
 41
0.180556
  0
VERTEX
  8
0
 10
4.41635
 20
4.89671
 30
0.0
 40
0.180556
 41
0.180556
  0
VERTEX
  8
0
 10
4.23856
 20
5.10157
 30
0.0
 40
0.180556
 41
0.180556
  0
VERTEX
  8
0
 10
4.02962
 20
5.38786
 30
0.0
 40
0.180556
 41
0.180556
  0
VERTEX
  8
0
 10
3.85297
 20
5.68913
 30
0.0
 40
0.180556
 41
0.180556
  0
VERTEX
  8
0
 10
3.70871
 20
6.00282
 30
0.0
 40
0.180556
 41
0.180556
  0
VERTEX
  8
0
 10
3.59679
 20
6.32639
 30
0.0
 40
0.180556
 41
0.180556
  0
VERTEX
  8
0
 10
3.51714
 20
6.65744
 30
0.0
 40
0.180556
 41
0.180556
  0
VERTEX
  8
0
 10
3.46983
 20
6.99333
 30
0.0
 40
0.180556
 41
0.180556
  0
VERTEX
  8
0
 10
3.45486
 20
7.33165
 30
0.0
 40
0.180556
 41
0.180556
  0
VERTEX
  8
0
 10
3.47217
 20
7.66986
 30
0.0
 40
0.180556
 41
0.180556
  0
VERTEX
  8
0
 10
3.52181
 20
8.00549
 30
0.0
 40
0.180556
 41
0.180556
  0
VERTEX
  8
0
 10
3.60368
 20
8.33594
 30
0.0
 40
0.180556
 41
0.180556
  0
VERTEX
  8
0
 10
3.71783
 20
8.65881
 30
0.0
 40
0.180556
 41
0.180556
  0
VERTEX
  8
0
 10
3.86426
 20
8.97146
 30
0.0
 40
0.180556
 41
0.180556
  0
VERTEX
  8
0
 10
4.04297
 20
9.27149
 30
0.0
 40
0.180556
 41
0.180556
  0
VERTEX
  8
0
 10
4.2539
 20
9.55638
 30
0.0
 40
0.180556
 41
0.180556
  0
VERTEX
  8
0
 10
4.43311
 20
9.76004
 30
0.0
 40
0.180556
 41
0.180556
  0
VERTEX
  8
0
 10
4.49713
 20
9.82357
 30
0.0
 40
0.180556
 41
0.180556
  0
VERTEX
  8
0
 10
4.50331
 20
9.82981
 30
0.0
 40
0.180556
 41
0.180556
  0
VERTEX
  8
0
 10
4.52225
 20
9.84814
 30
0.0
 40
0.180556
 41
0.180556
  0
VERTEX
  8
0
 10
4.56868
 20
9.8929
 30
0.0
 40
0.180556
 41
0.180556
  0
VERTEX
  8
0
 10
4.63043
 20
9.95187
 30
0.0
 40
0.180556
 41
0.180556
  0
VERTEX
  8
0
 10
4.70133
 20
10.0192
 30
0.0
 40
0.180556
 41
0.180556
  0
VERTEX
  8
0
 10
4.77539
 20
10.089
 30
0.0
 40
0.180556
 41
0.180556
  0
VERTEX
  8
0
 10
4.84646
 20
10.1553
 30
0.0
 40
0.180556
 41
0.180556
  0
VERTEX
  8
0
 10
4.90858
 20
10.2122
 30
0.0
 40
0.180556
 41
0.180556
  0
VERTEX
  8
0
 10
4.94374
 20
10.2436
 30
0.0
 40
0.180556
 41
0.180556
  0
VERTEX
  8
0
 10
4.95568
 20
10.2538
 30
0.0
 40
0.180556
 41
0.180556
  0
VERTEX
  8
0
 10
4.97217
 20
10.2678
 30
0.0
 40
0.180556
 41
0.180556
  0
VERTEX
  8
0
 10
5.01671
 20
10.3162
 30
0.0
 40
0.180556
 41
0.180556
  0
VERTEX
  8
0
 10
5.05533
 20
10.3819
 30
0.0
 40
0.180556
 41
0.180556
  0
VERTEX
  8
0
 10
5.07986
 20
10.4603
 30
0.0
 40
0.180556
 41
0.180556
  0
VERTEX
  8
0
 10
5.09446
 20
10.5356
 30
0.0
 40
0.180556
 41
0.180556
  0
VERTEX
  8
0
 10
5.09853
 20
10.5609
 30
0.0
 40
0.180556
 41
0.180556
  0
VERTEX
  8
0
 10
5.1014
 20
10.5788
 30
0.0
 40
0.180556
 41
0.180556
  0
VERTEX
  8
0
 10
5.10563
 20
10.6334
 30
0.0
 40
0.180556
 41
0.180556
  0
VERTEX
  8
0
 10
5.10906
 20
10.7293
 30
0.0
 40
0.180556
 41
0.180556
  0
VERTEX
  8
0
 10
5.10965
 20
10.8384
 30
0.0
 40
0.180556
 41
0.180556
  0
VERTEX
  8
0
 10
5.10824
 20
10.9505
 30
0.0
 40
0.180556
 41
0.180556
  0
VERTEX
  8
0
 10
5.10568
 20
11.0555
 30
0.0
 40
0.180556
 41
0.180556
  0
VERTEX
  8
0
 10
5.10281
 20
11.1431
 30
0.0
 40
0.180556
 41
0.180556
  0
VERTEX
  8
0
 10
5.10047
 20
11.2031
 30
0.0
 40
0.180556
 41
0.180556
  0
VERTEX
  8
0
 10
5.09956
 20
11.2253
 30
0.0
 40
0.180556
 41
0.180556
  0
VERTEX
  8
0
 10
5.09956
 20
11.2253
 30
0.0
 40
0.180556
 41
0.180556
  0
VERTEX
  8
0
 10
5.09776
 20
11.2478
 30
0.0
 40
0.180556
 41
0.180556
  0
VERTEX
  8
0
 10
5.07449
 20
11.3137
 30
0.0
 40
0.180556
 41
0.180556
  0
VERTEX
  8
0
 10
5.01779
 20
11.4071
 30
0.0
 40
0.180556
 41
0.180556
  0
VERTEX
  8
0
 10
4.93701
 20
11.5005
 30
0.0
 40
0.180556
 41
0.180556
  0
VERTEX
  8
0
 10
4.83968
 20
11.589
 30
0.0
 40
0.180556
 41
0.180556
  0
VERTEX
  8
0
 10
4.73329
 20
11.6674
 30
0.0
 40
0.180556
 41
0.180556
  0
VERTEX
  8
0
 10
4.62549
 20
11.7309
 30
0.0
 40
0.180556
 41
0.180556
  0
VERTEX
  8
0
 10
4.52376
 20
11.7744
 30
0.0
 40
0.180556
 41
0.180556
  0
VERTEX
  8
0
 10
4.4579
 20
11.7916
 30
0.0
 40
0.180556
 41
0.180556
  0
VERTEX
  8
0
 10
4.43571
 20
11.7928
 30
0.0
 40
0.180556
 41
0.180556
  0
VERTEX
  8
0
 10
4.40489
 20
11.7945
 30
0.0
 40
0.180556
 41
0.180556
  0
VERTEX
  8
0
 10
4.31093
 20
11.7724
 30
0.0
 40
0.180556
 41
0.180556
  0
VERTEX
  8
0
 10
4.17697
 20
11.7117
 30
0.0
 40
0.180556
 41
0.180556
  0
VERTEX
  8
0
 10
4.04665
 20
11.6305
 30
0.0
 40
0.180556
 41
0.180556
  0
VERTEX
  8
0
 10
3.96089
 20
11.5694
 30
0.0
 40
0.180556
 41
0.180556
  0
VERTEX
  8
0
 10
3.93278
 20
11.5484
 30
0.0
 40
0.180556
 41
0.180556
  0
VERTEX
  8
0
 10
3.90419
 20
11.5281
 30
0.0
 40
0.180556
 41
0.180556
  0
VERTEX
  8
0
 10
3.81939
 20
11.4654
 30
0.0
 40
0.180556
 41
0.180556
  0
VERTEX
  8
0
 10
3.70111
 20
11.3675
 30
0.0
 40
0.180556
 41
0.180556
  0
VERTEX
  8
0
 10
3.60097
 20
11.2599
 30
0.0
 40
0.180556
 41
0.180556
  0
VERTEX
  8
0
 10
3.55018
 20
11.1778
 30
0.0
 40
0.180556
 41
0.180556
  0
VERTEX
  8
0
 10
3.5421
 20
11.1481
 30
0.0
 40
0.180556
 41
0.180556
  0
VERTEX
  8
0
 10
3.53683
 20
11.1288
 30
0.0
 40
0.180556
 41
0.180556
  0
VERTEX
  8
0
 10
3.53597
 20
11.0668
 30
0.0
 40
0.180556
 41
0.180556
  0
VERTEX
  8
0
 10
3.55404
 20
10.9767
 30
0.0
 40
0.180556
 41
0.180556
  0
VERTEX
  8
0
 10
3.5886
 20
10.8805
 30
0.0
 40
0.180556
 41
0.180556
  0
VERTEX
  8
0
 10
3.632
 20
10.7807
 30
0.0
 40
0.180556
 41
0.180556
  0
VERTEX
  8
0
 10
3.67654
 20
10.68
 30
0.0
 40
0.180556
 41
0.180556
  0
VERTEX
  8
0
 10
3.71463
 20
10.5809
 30
0.0
 40
0.180556
 41
0.180556
  0
VERTEX
  8
0
 10
3.73856
 20
10.4861
 30
0.0
 40
0.180556
 41
0.180556
  0
VERTEX
  8
0
 10
3.74354
 20
10.4197
 30
0.0
 40
0.180556
 41
0.180556
  0
VERTEX
  8
0
 10
3.74067
 20
10.3982
 30
0.0
 40
0.180556
 41
0.180556
  0
VERTEX
  8
0
 10
3.73921
 20
10.3878
 30
0.0
 40
0.180556
 41
0.180556
  0
VERTEX
  8
0
 10
3.72401
 20
10.3578
 30
0.0
 40
0.180556
 41
0.180556
  0
VERTEX
  8
0
 10
3.68619
 20
10.2951
 30
0.0
 40
0.180556
 41
0.180556
  0
VERTEX
  8
0
 10
3.63439
 20
10.2186
 30
0.0
 40
0.180556
 41
0.180556
  0
VERTEX
  8
0
 10
3.57585
 20
10.1369
 30
0.0
 40
0.180556
 41
0.180556
  0
VERTEX
  8
0
 10
3.51768
 20
10.0585
 30
0.0
 40
0.180556
 41
0.180556
  0
VERTEX
  8
0
 10
3.46724
 20
9.99197
 30
0.0
 40
0.180556
 41
0.180556
  0
VERTEX
  8
0
 10
3.43169
 20
9.94575
 30
0.0
 40
0.180556
 41
0.180556
  0
VERTEX
  8
0
 10
3.41824
 20
9.92844
 30
0.0
 40
0.180556
 41
0.180556
  0
VERTEX
  8
0
 10
3.41824
 20
9.92844
 30
0.0
 40
0.180556
 41
0.180556
  0
VERTEX
  8
0
 10
3.41824
 20
9.92844
 30
0.0
 40
0.180556
 41
0.180556
  0
VERTEX
  8
0
 10
3.40582
 20
9.91038
 30
0.0
 40
0.180556
 41
0.180556
  0
VERTEX
  8
0
 10
3.3725
 20
9.86242
 30
0.0
 40
0.180556
 41
0.180556
  0
VERTEX
  8
0
 10
3.32433
 20
9.79411
 30
0.0
 40
0.180556
 41
0.180556
  0
VERTEX
  8
0
 10
3.26714
 20
9.71485
 30
0.0
 40
0.180556
 41
0.180556
  0
VERTEX
  8
0
 10
3.20697
 20
9.63422
 30
0.0
 40
0.180556
 41
0.180556
  0
VERTEX
  8
0
 10
3.14974
 20
9.56164
 30
0.0
 40
0.180556
 41
0.180556
  0
VERTEX
  8
0
 10
3.10146
 20
9.50657
 30
0.0
 40
0.180556
 41
0.180556
  0
VERTEX
  8
0
 10
3.07753
 20
9.48301
 30
0.0
 40
0.180556
 41
0.180556
  0
VERTEX
  8
0
 10
3.06799
 20
9.47846
 30
0.0
 40
0.180556
 41
0.180556
  0
VERTEX
  8
0
 10
3.04833
 20
9.46918
 30
0.0
 40
0.180556
 41
0.180556
  0
VERTEX
  8
0
 10
2.98351
 20
9.45383
 30
0.0
 40
0.180556
 41
0.180556
  0
VERTEX
  8
0
 10
2.8859
 20
9.44792
 30
0.0
 40
0.180556
 41
0.180556
  0
VERTEX
  8
0
 10
2.77994
 20
9.45421
 30
0.0
 40
0.180556
 41
0.180556
  0
VERTEX
  8
0
 10
2.67046
 20
9.46619
 30
0.0
 40
0.180556
 41
0.180556
  0
VERTEX
  8
0
 10
2.56222
 20
9.47737
 30
0.0
 40
0.180556
 41
0.180556
  0
VERTEX
  8
0
 10
2.46001
 20
9.48118
 30
0.0
 40
0.180556
 41
0.180556
  0
VERTEX
  8
0
 10
2.36871
 20
9.47114
 30
0.0
 40
0.180556
 41
0.180556
  0
VERTEX
  8
0
 10
2.30985
 20
9.45156
 30
0.0
 40
0.180556
 41
0.180556
  0
VERTEX
  8
0
 10
2.29308
 20
9.44069
 30
0.0
 40
0.180556
 41
0.180556
  0
VERTEX
  8
0
 10
2.26714
 20
9.42399
 30
0.0
 40
0.180556
 41
0.180556
  0
VERTEX
  8
0
 10
2.2041
 20
9.35086
 30
0.0
 40
0.180556
 41
0.180556
  0
VERTEX
  8
0
 10
2.13146
 20
9.22304
 30
0.0
 40
0.180556
 41
0.180556
  0
VERTEX
  8
0
 10
2.07379
 20
9.08074
 30
0.0
 40
0.180556
 41
0.180556
  0
VERTEX
  8
0
 10
2.04015
 20
8.98085
 30
0.0
 40
0.180556
 41
0.180556
  0
VERTEX
  8
0
 10
2.02979
 20
8.94732
 30
0.0
 40
0.180556
 41
0.180556
  0
VERTEX
  8
0
 10
2.01867
 20
8.91401
 30
0.0
 40
0.180556
 41
0.180556
  0
VERTEX
  8
0
 10
1.98693
 20
8.81353
 30
0.0
 40
0.180556
 41
0.180556
  0
VERTEX
  8
0
 10
1.94883
 20
8.66476
 30
0.0
 40
0.180556
 41
0.180556
  0
VERTEX
  8
0
 10
1.93104
 20
8.51888
 30
0.0
 40
0.180556
 41
0.180556
  0
VERTEX
  8
0
 10
1.93815
 20
8.42275
 30
0.0
 40
0.180556
 41
0.180556
  0
VERTEX
  8
0
 10
1.94906
 20
8.39388
 30
0.0
 40
0.180556
 41
0.180556
  0
VERTEX
  8
0
 10
1.95611
 20
8.37522
 30
0.0
 40
0.180556
 41
0.180556
  0
VERTEX
  8
0
 10
1.99192
 20
8.32454
 30
0.0
 40
0.180556
 41
0.180556
  0
VERTEX
  8
0
 10
2.05946
 20
8.26226
 30
0.0
 40
0.180556
 41
0.180556
  0
VERTEX
  8
0
 10
2.14399
 20
8.20475
 30
0.0
 40
0.180556
 41
0.180556
  0
VERTEX
  8
0
 10
2.23774
 20
8.14953
 30
0.0
 40
0.180556
 41
0.180556
  0
VERTEX
  8
0
 10
2.33301
 20
8.09418
 30
0.0
 40
0.180556
 41
0.180556
  0
VERTEX
  8
0
 10
2.42199
 20
8.0364
 30
0.0
 40
0.180556
 41
0.180556
  0
VERTEX
  8
0
 10
2.49701
 20
7.97374
 30
0.0
 40
0.180556
 41
0.180556
  0
VERTEX
  8
0
 10
2.5401
 20
7.92296
 30
0.0
 40
0.180556
 41
0.180556
  0
VERTEX
  8
0
 10
2.5504
 20
7.90381
 30
0.0
 40
0.180556
 41
0.180556
  0
VERTEX
  8
0
 10
2.55539
 20
7.89453
 30
0.0
 40
0.180556
 41
0.180556
  0
VERTEX
  8
0
 10
2.56071
 20
7.86139
 30
0.0
 40
0.180556
 41
0.180556
  0
VERTEX
  8
0
 10
2.56694
 20
7.78847
 30
0.0
 40
0.180556
 41
0.180556
  0
VERTEX
  8
0
 10
2.56999
 20
7.69612
 30
0.0
 40
0.180556
 41
0.180556
  0
VERTEX
  8
0
 10
2.57064
 20
7.5956
 30
0.0
 40
0.180556
 41
0.180556
  0
VERTEX
  8
0
 10
2.56967
 20
7.49799
 30
0.0
 40
0.180556
 41
0.180556
  0
VERTEX
  8
0
 10
2.56799
 20
7.4145
 30
0.0
 40
0.180556
 41
0.180556
  0
VERTEX
  8
0
 10
2.56635
 20
7.35618
 30
0.0
 40
0.180556
 41
0.180556
  0
VERTEX
  8
0
 10
2.56565
 20
7.33425
 30
0.0
 40
0.180556
 41
0.180556
  0
VERTEX
  8
0
 10
2.56565
 20
7.33425
 30
0.0
 40
0.180556
 41
0.180556
  0
VERTEX
  8
0
 10
2.56565
 20
7.33425
 30
0.0
 40
0.180556
 41
0.180556
  0
VERTEX
  8
0
 10
2.56619
 20
7.31233
 30
0.0
 40
0.180556
 41
0.180556
  0
VERTEX
  8
0
 10
2.56749
 20
7.25401
 30
0.0
 40
0.180556
 41
0.180556
  0
VERTEX
  8
0
 10
2.56862
 20
7.17042
 30
0.0
 40
0.180556
 41
0.180556
  0
VERTEX
  8
0
 10
2.56901
 20
7.07269
 30
0.0
 40
0.180556
 41
0.180556
  0
VERTEX
  8
0
 10
2.56771
 20
6.97211
 30
0.0
 40
0.180556
 41
0.180556
  0
VERTEX
  8
0
 10
2.56413
 20
6.87972
 30
0.0
 40
0.180556
 41
0.180556
  0
VERTEX
  8
0
 10
2.5574
 20
6.80675
 30
0.0
 40
0.180556
 41
0.180556
  0
VERTEX
  8
0
 10
2.55186
 20
6.7736
 30
0.0
 40
0.180556
 41
0.180556
  0
VERTEX
  8
0
 10
2.54682
 20
6.76432
 30
0.0
 40
0.180556
 41
0.180556
  0
VERTEX
  8
0
 10
2.5364
 20
6.74528
 30
0.0
 40
0.180556
 41
0.180556
  0
VERTEX
  8
0
 10
2.49294
 20
6.69482
 30
0.0
 40
0.180556
 41
0.180556
  0
VERTEX
  8
0
 10
2.41749
 20
6.63265
 30
0.0
 40
0.180556
 41
0.180556
  0
VERTEX
  8
0
 10
2.32807
 20
6.57547
 30
0.0
 40
0.180556
 41
0.180556
  0
VERTEX
  8
0
 10
2.23247
 20
6.52083
 30
0.0
 40
0.180556
 41
0.180556
  0
VERTEX
  8
0
 10
2.13835
 20
6.46625
 30
0.0
 40
0.180556
 41
0.180556
  0
VERTEX
  8
0
 10
2.05344
 20
6.40924
 30
0.0
 40
0.180556
 41
0.180556
  0
VERTEX
  8
0
 10
1.98546
 20
6.34744
 30
0.0
 40
0.180556
 41
0.180556
  0
VERTEX
  8
0
 10
1.94933
 20
6.29704
 30
0.0
 40
0.180556
 41
0.180556
  0
VERTEX
  8
0
 10
1.94217
 20
6.27838
 30
0.0
 40
0.180556
 41
0.180556
  0
VERTEX
  8
0
 10
1.93104
 20
6.24962
 30
0.0
 40
0.180556
 41
0.180556
  0
VERTEX
  8
0
 10
1.92296
 20
6.15343
 30
0.0
 40
0.180556
 41
0.180556
  0
VERTEX
  8
0
 10
1.93935
 20
6.00726
 30
0.0
 40
0.180556
 41
0.180556
  0
VERTEX
  8
0
 10
1.97635
 20
5.85824
 30
0.0
 40
0.180556
 41
0.180556
  0
VERTEX
  8
0
 10
2.00786
 20
5.75771
 30
0.0
 40
0.180556
 41
0.180556
  0
VERTEX
  8
0
 10
2.01915
 20
5.72444
 30
0.0
 40
0.180556
 41
0.180556
  0
VERTEX
  8
0
 10
2.02974
 20
5.69103
 30
0.0
 40
0.180556
 41
0.180556
  0
VERTEX
  8
0
 10
2.0631
 20
5.59104
 30
0.0
 40
0.180556
 41
0.180556
  0
VERTEX
  8
0
 10
2.11974
 20
5.44829
 30
0.0
 40
0.180556
 41
0.180556
  0
VERTEX
  8
0
 10
2.19103
 20
5.31982
 30
0.0
 40
0.180556
 41
0.180556
  0
VERTEX
  8
0
 10
2.25331
 20
5.24621
 30
0.0
 40
0.180556
 41
0.180556
  0
VERTEX
  8
0
 10
2.27914
 20
5.22928
 30
0.0
 40
0.180556
 41
0.180556
  0
VERTEX
  8
0
 10
2.29585
 20
5.21832
 30
0.0
 40
0.180556
 41
0.180556
  0
VERTEX
  8
0
 10
2.3546
 20
5.19835
 30
0.0
 40
0.180556
 41
0.180556
  0
VERTEX
  8
0
 10
2.44586
 20
5.18772
 30
0.0
 40
0.180556
 41
0.180556
  0
VERTEX
  8
0
 10
2.54801
 20
5.19081
 30
0.0
 40
0.180556
 41
0.180556
  0
VERTEX
  8
0
 10
2.65636
 20
5.20128
 30
0.0
 40
0.180556
 41
0.180556
  0
VERTEX
  8
0
 10
2.7659
 20
5.21251
 30
0.0
 40
0.180556
 41
0.180556
  0
VERTEX
  8
0
 10
2.8719
 20
5.2181
 30
0.0
 40
0.180556
 41
0.180556
  0
VERTEX
  8
0
 10
2.9694
 20
5.21149
 30
0.0
 40
0.180556
 41
0.180556
  0
VERTEX
  8
0
 10
3.03413
 20
5.19569
 30
0.0
 40
0.180556
 41
0.180556
  0
VERTEX
  8
0
 10
3.05371
 20
5.18625
 30
0.0
 40
0.180556
 41
0.180556
  0
VERTEX
  8
0
 10
3.06321
 20
5.18169
 30
0.0
 40
0.180556
 41
0.180556
  0
VERTEX
  8
0
 10
3.08697
 20
5.15804
 30
0.0
 40
0.180556
 41
0.180556
  0
VERTEX
  8
0
 10
3.13493
 20
5.10271
 30
0.0
 40
0.180556
 41
0.180556
  0
VERTEX
  8
0
 10
3.19162
 20
5.02979
 30
0.0
 40
0.180556
 41
0.180556
  0
VERTEX
  8
0
 10
3.25125
 20
4.94883
 30
0.0
 40
0.180556
 41
0.180556
  0
VERTEX
  8
0
 10
3.30783
 20
4.86936
 30
0.0
 40
0.180556
 41
0.180556
  0
VERTEX
  8
0
 10
3.35558
 20
4.80083
 30
0.0
 40
0.180556
 41
0.180556
  0
VERTEX
  8
0
 10
3.38851
 20
4.75271
 30
0.0
 40
0.180556
 41
0.180556
  0
VERTEX
  8
0
 10
3.40082
 20
4.73454
 30
0.0
 40
0.180556
 41
0.180556
  0
VERTEX
  8
0
 10
3.40082
 20
4.73454
 30
0.0
 40
0.180556
 41
0.180556
  0
VERTEX
  8
0
 10
3.40082
 20
4.73454
 30
0.0
 40
0.180556
 41
0.180556
  0
VERTEX
  8
0
 10
3.41417
 20
4.71718
 30
0.0
 40
0.180556
 41
0.180556
  0
VERTEX
  8
0
 10
3.44949
 20
4.67068
 30
0.0
 40
0.180556
 41
0.180556
  0
VERTEX
  8
0
 10
3.49957
 20
4.60374
 30
0.0
 40
0.180556
 41
0.180556
  0
VERTEX
  8
0
 10
3.55724
 20
4.52485
 30
0.0
 40
0.180556
 41
0.180556
  0
VERTEX
  8
0
 10
3.61535
 20
4.44271
 30
0.0
 40
0.180556
 41
0.180556
  0
VERTEX
  8
0
 10
3.66672
 20
4.36583
 30
0.0
 40
0.180556
 41
0.180556
  0
VERTEX
  8
0
 10
3.70421
 20
4.30279
 30
0.0
 40
0.180556
 41
0.180556
  0
VERTEX
  8
0
 10
3.71924
 20
4.27279
 30
0.0
 40
0.180556
 41
0.180556
  0
VERTEX
  8
0
 10
3.7206
 20
4.26226
 30
0.0
 40
0.180556
 41
0.180556
  0
VERTEX
  8
0
 10
3.72336
 20
4.24078
 30
0.0
 40
0.180556
 41
0.180556
  0
VERTEX
  8
0
 10
3.71789
 20
4.17437
 30
0.0
 40
0.180556
 41
0.180556
  0
VERTEX
  8
0
 10
3.69336
 20
4.07975
 30
0.0
 40
0.180556
 41
0.180556
  0
VERTEX
  8
0
 10
3.65462
 20
3.98096
 30
0.0
 40
0.180556
 41
0.180556
  0
VERTEX
  8
0
 10
3.60943
 20
3.88053
 30
0.0
 40
0.180556
 41
0.180556
  0
VERTEX
  8
0
 10
3.56538
 20
3.78103
 30
0.0
 40
0.180556
 41
0.180556
  0
VERTEX
  8
0
 10
3.53017
 20
3.68506
 30
0.0
 40
0.180556
 41
0.180556
  0
VERTEX
  8
0
 10
3.5115
 20
3.59511
 30
0.0
 40
0.180556
 41
0.180556
  0
VERTEX
  8
0
 10
3.51193
 20
3.5331
 30
0.0
 40
0.180556
 41
0.180556
  0
VERTEX
  8
0
 10
3.51708
 20
3.51372
 30
0.0
 40
0.180556
 41
0.180556
  0
VERTEX
  8
0
 10
3.52501
 20
3.48394
 30
0.0
 40
0.180556
 41
0.180556
  0
VERTEX
  8
0
 10
3.57503
 20
3.40136
 30
0.0
 40
0.180556
 41
0.180556
  0
VERTEX
  8
0
 10
3.67415
 20
3.29275
 30
0.0
 40
0.180556
 41
0.180556
  0
VERTEX
  8
0
 10
3.79172
 20
3.1939
 30
0.0
 40
0.180556
 41
0.180556
  0
VERTEX
  8
0
 10
3.87625
 20
3.13103
 30
0.0
 40
0.180556
 41
0.180556
  0
VERTEX
  8
0
 10
3.90494
 20
3.11074
 30
0.0
 40
0.180556
 41
0.180556
  0
VERTEX
  8
0
 10
3.93317
 20
3.08996
 30
0.0
 40
0.180556
 41
0.180556
  0
VERTEX
  8
0
 10
4.01893
 20
3.02869
 30
0.0
 40
0.180556
 41
0.180556
  0
VERTEX
  8
0
 10
4.14865
 20
2.9465
 30
0.0
 40
0.180556
 41
0.180556
  0
VERTEX
  8
0
 10
4.2819
 20
2.88456
 30
0.0
 40
0.180556
 41
0.180556
  0
VERTEX
  8
0
 10
4.37554
 20
2.86154
 30
0.0
 40
0.180556
 41
0.180556
  0
VERTEX
  8
0
 10
4.40631
 20
2.86301
 30
0.0
 40
0.180556
 41
0.180556
  0
VERTEX
  8
0
 10
4.42626
 20
2.86399
 30
0.0
 40
0.180556
 41
0.180556
  0
VERTEX
  8
0
 10
4.48551
 20
2.88238
 30
0.0
 40
0.180556
 41
0.180556
  0
VERTEX
  8
0
 10
4.5656
 20
2.9274
 30
0.0
 40
0.180556
 41
0.180556
  0
VERTEX
  8
0
 10
4.64649
 20
2.99001
 30
0.0
 40
0.180556
 41
0.180556
  0
VERTEX
  8
0
 10
4.72797
 20
3.06213
 30
0.0
 40
0.180556
 41
0.180556
  0
VERTEX
  8
0
 10
4.80994
 20
3.13564
 30
0.0
 40
0.180556
 41
0.180556
  0
VERTEX
  8
0
 10
4.89242
 20
3.20247
 30
0.0
 40
0.180556
 41
0.180556
  0
VERTEX
  8
0
 10
4.97515
 20
3.2545
 30
0.0
 40
0.180556
 41
0.180556
  0
VERTEX
  8
0
 10
5.03678
 20
3.27979
 30
0.0
 40
0.180556
 41
0.180556
  0
VERTEX
  8
0
 10
5.05817
 20
3.28364
 30
0.0
 40
0.180556
 41
0.180556
  0
VERTEX
  8
0
 10
5.06853
 20
3.28554
 30
0.0
 40
0.180556
 41
0.180556
  0
VERTEX
  8
0
 10
5.10161
 20
3.28039
 30
0.0
 40
0.180556
 41
0.180556
  0
VERTEX
  8
0
 10
5.17264
 20
3.26383
 30
0.0
 40
0.180556
 41
0.180556
  0
VERTEX
  8
0
 10
5.26096
 20
3.23833
 30
0.0
 40
0.180556
 41
0.180556
  0
VERTEX
  8
0
 10
5.35628
 20
3.20801
 30
0.0
 40
0.180556
 41
0.180556
  0
VERTEX
  8
0
 10
5.44829
 20
3.17708
 30
0.0
 40
0.180556
 41
0.180556
  0
VERTEX
  8
0
 10
5.52681
 20
3.14979
 30
0.0
 40
0.180556
 41
0.180556
  0
VERTEX
  8
0
 10
5.58143
 20
3.13032
 30
0.0
 40
0.180556
 41
0.180556
  0
VERTEX
  8
0
 10
5.60194
 20
3.12289
 30
0.0
 40
0.180556
 41
0.180556
  0
VERTEX
  8
0
 10
5.60194
 20
3.12289
 30
0.0
 40
0.180556
 41
0.180556
  0
VERTEX
  8
0
 10
5.60471
 20
3.12207
 30
0.0
 40
0.180556
 41
0.180556
  0
VERTEX
  8
0
 10
5.60471
 20
3.12207
 30
0.0
 40
0.180556
 41
0.180556
  0
VERTEX
  8
0
 10
5.6205
 20
3.1174
 30
0.0
 40
0.180556
 41
0.180556
  0
VERTEX
  8
0
 10
5.65663
 20
3.10672
 30
0.0
 40
0.180556
 41
0.180556
  0
VERTEX
  8
0
 10
5.69586
 20
3.09506
 30
0.0
 40
0.180556
 41
0.180556
  0
VERTEX
  8
0
 10
5.71701
 20
3.08882
 30
0.0
 40
0.180556
 41
0.180556
  0
VERTEX
  8
0
 10
5.72125
 20
3.08751
 30
0.0
 40
0.180556
 41
0.180556
  0
SEQEND
 8
0
  0
POLYLINE
  8
0
 62
     0
 66
     1
 10
0
 20
0
 30
0.0
 40
7
 41
7
  0
VERTEX
  8
0
 10
8.67649
 20
8.9784
 30
0.0
 40
0.0972222
 41
0.0972222
  0
VERTEX
  8
0
 10
6.17085
 20
8.9784
 30
0.0
 40
0.0972222
 41
0.0972222
  0
VERTEX
  8
0
 10
6.00325
 20
8.83594
 30
0.0
 40
0.0972222
 41
0.0972222
  0
VERTEX
  8
0
 10
5.89572
 20
8.22597
 30
0.0
 40
0.0972222
 41
0.0972222
  0
VERTEX
  8
0
 10
6.07172
 20
8.01226
 30
0.0
 40
0.0972222
 41
0.0972222
  0
VERTEX
  8
0
 10
8.17008
 20
8.01226
 30
0.0
 40
0.0972222
 41
0.0972222
  0
SEQEND
 8
0
  0
POLYLINE
  8
0
 62
     0
 66
     1
 10
0
 20
0
 30
0.0
 40
7
 41
7
  0
VERTEX
  8
0
 10
5.77121
 20
7.19069
 30
0.0
 40
0.0972222
 41
0.0972222
  0
VERTEX
  8
0
 10
8.08328
 20
7.19069
 30
0.0
 40
0.0972222
 41
0.0972222
  0
VERTEX
  8
0
 10
8.26074
 20
6.97521
 30
0.0
 40
0.0972222
 41
0.0972222
  0
VERTEX
  8
0
 10
8.11714
 20
6.16069
 30
0.0
 40
0.0972222
 41
0.0972222
  0
VERTEX
  8
0
 10
7.84858
 20
5.9324
 30
0.0
 40
0.0972222
 41
0.0972222
  0
VERTEX
  8
0
 10
5.95475
 20
5.9324
 30
0.0
 40
0.0972222
 41
0.0972222
  0
SEQEND
 8
0
  0
POLYLINE
  8
0
 62
     0
 66
     1
 10
0
 20
0
 30
0.0
 40
13
 41
13
  0
VERTEX
  8
0
 10
9.84744
 20
9.38314
 30
0.0
 40
0.180556
 41
0.180556
  0
VERTEX
  8
0
 10
6.07818
 20
9.38314
 30
0.0
 40
0.180556
 41
0.180556
  0
VERTEX
  8
0
 10
5.67589
 20
9.04118
 30
0.0
 40
0.180556
 41
0.180556
  0
VERTEX
  8
0
 10
5.59429
 20
8.57844
 30
0.0
 40
0.180556
 41
0.180556
  0
VERTEX
  8
0
 10
5.47547
 20
7.90457
 30
0.0
 40
0.180556
 41
0.180556
  0
VERTEX
  8
0
 10
5.73643
 20
7.58768
 30
0.0
 40
0.180556
 41
0.180556
  0
VERTEX
  8
0
 10
8.48747
 20
7.58768
 30
0.0
 40
0.180556
 41
0.180556
  0
VERTEX
  8
0
 10
8.76292
 20
7.25325
 30
0.0
 40
0.180556
 41
0.180556
  0
VERTEX
  8
0
 10
8.53722
 20
5.97331
 30
0.0
 40
0.180556
 41
0.180556
  0
VERTEX
  8
0
 10
7.97374
 20
5.49425
 30
0.0
 40
0.180556
 41
0.180556
  0
VERTEX
  8
0
 10
3.96262
 20
5.49425
 30
0.0
 40
0.180556
 41
0.180556
  0
SEQEND
 8
0
  0
POLYLINE
  8
0
 62
     0
 66
     1
 10
0
 20
0
 30
0.0
 70
     1
 40
8
 41
8
  0
VERTEX
  8
0
 10
5.7971
 20
7.17822
 30
0.0
 40
0.111111
 41
0.111111
  0
VERTEX
  8
0
 10
5.79585
 20
7.16624
 30
0.0
 40
0.111111
 41
0.111111
  0
VERTEX
  8
0
 10
5.7825
 20
7.13112
 30
0.0
 40
0.111111
 41
0.111111
  0
VERTEX
  8
0
 10
5.75206
 20
7.09457
 30
0.0
 40
0.111111
 41
0.111111
  0
VERTEX
  8
0
 10
5.71013
 20
7.07206
 30
0.0
 40
0.111111
 41
0.111111
  0
VERTEX
  8
0
 10
5.67307
 20
7.06592
 30
0.0
 40
0.111111
 41
0.111111
  0
VERTEX
  8
0
 10
5.66108
 20
7.06711
 30
0.0
 40
0.111111
 41
0.111111
  0
VERTEX
  8
0
 10
5.64903
 20
7.06836
 30
0.0
 40
0.111111
 41
0.111111
  0
VERTEX
  8
0
 10
5.61393
 20
7.08171
 30
0.0
 40
0.111111
 41
0.111111
  0
VERTEX
  8
0
 10
5.57731
 20
7.11214
 30
0.0
 40
0.111111
 41
0.111111
  0
VERTEX
  8
0
 10
5.55479
 20
7.15408
 30
0.0
 40
0.111111
 41
0.111111
  0
VERTEX
  8
0
 10
5.54872
 20
7.19114
 30
0.0
 40
0.111111
 41
0.111111
  0
VERTEX
  8
0
 10
5.54997
 20
7.20313
 30
0.0
 40
0.111111
 41
0.111111
  0
VERTEX
  8
0
 10
5.55117
 20
7.21517
 30
0.0
 40
0.111111
 41
0.111111
  0
VERTEX
  8
0
 10
5.56446
 20
7.25028
 30
0.0
 40
0.111111
 41
0.111111
  0
VERTEX
  8
0
 10
5.59494
 20
7.28689
 30
0.0
 40
0.111111
 41
0.111111
  0
VERTEX
  8
0
 10
5.63688
 20
7.3094
 30
0.0
 40
0.111111
 41
0.111111
  0
VERTEX
  8
0
 10
5.67393
 20
7.31549
 30
0.0
 40
0.111111
 41
0.111111
  0
VERTEX
  8
0
 10
5.68599
 20
7.31424
 30
0.0
 40
0.111111
 41
0.111111
  0
VERTEX
  8
0
 10
5.69797
 20
7.31304
 30
0.0
 40
0.111111
 41
0.111111
  0
VERTEX
  8
0
 10
5.73307
 20
7.29975
 30
0.0
 40
0.111111
 41
0.111111
  0
VERTEX
  8
0
 10
5.76964
 20
7.26926
 30
0.0
 40
0.111111
 41
0.111111
  0
VERTEX
  8
0
 10
5.79215
 20
7.22732
 30
0.0
 40
0.111111
 41
0.111111
  0
VERTEX
  8
0
 10
5.79829
 20
7.19026
 30
0.0
 40
0.111111
 41
0.111111
  0
VERTEX
  8
0
 10
5.7971
 20
7.17822
 30
0.0
 40
0.111111
 41
0.111111
  0
SEQEND
 8
0
  0
POLYLINE
  8
0
 62
     0
 66
     1
 10
0
 20
0
 30
0.0
 70
     1
 40
6
 41
6
  0
VERTEX
  8
0
 10
4.55528
 20
8.7399
 30
0.0
 40
0.0833333
 41
0.0833333
  0
VERTEX
  8
0
 10
4.55322
 20
8.71967
 30
0.0
 40
0.0833333
 41
0.0833333
  0
VERTEX
  8
0
 10
4.53071
 20
8.66043
 30
0.0
 40
0.0833333
 41
0.0833333
  0
VERTEX
  8
0
 10
4.47939
 20
8.59868
 30
0.0
 40
0.0833333
 41
0.0833333
  0
VERTEX
  8
0
 10
4.40858
 20
8.56071
 30
0.0
 40
0.0833333
 41
0.0833333
  0
VERTEX
  8
0
 10
4.34608
 20
8.55051
 30
0.0
 40
0.0833333
 41
0.0833333
  0
VERTEX
  8
0
 10
4.32585
 20
8.55251
 30
0.0
 40
0.0833333
 41
0.0833333
  0
VERTEX
  8
0
 10
4.30556
 20
8.55458
 30
0.0
 40
0.0833333
 41
0.0833333
  0
VERTEX
  8
0
 10
4.24636
 20
8.5771
 30
0.0
 40
0.0833333
 41
0.0833333
  0
VERTEX
  8
0
 10
4.18463
 20
8.62842
 30
0.0
 40
0.0833333
 41
0.0833333
  0
VERTEX
  8
0
 10
4.14665
 20
8.69917
 30
0.0
 40
0.0833333
 41
0.0833333
  0
VERTEX
  8
0
 10
4.13639
 20
8.76167
 30
0.0
 40
0.0833333
 41
0.0833333
  0
VERTEX
  8
0
 10
4.13846
 20
8.7819
 30
0.0
 40
0.0833333
 41
0.0833333
  0
VERTEX
  8
0
 10
4.14046
 20
8.80219
 30
0.0
 40
0.0833333
 41
0.0833333
  0
VERTEX
  8
0
 10
4.16297
 20
8.86143
 30
0.0
 40
0.0833333
 41
0.0833333
  0
VERTEX
  8
0
 10
4.21431
 20
8.92318
 30
0.0
 40
0.0833333
 41
0.0833333
  0
VERTEX
  8
0
 10
4.28504
 20
8.96115
 30
0.0
 40
0.0833333
 41
0.0833333
  0
VERTEX
  8
0
 10
4.34754
 20
8.9714
 30
0.0
 40
0.0833333
 41
0.0833333
  0
VERTEX
  8
0
 10
4.36783
 20
8.96935
 30
0.0
 40
0.0833333
 41
0.0833333
  0
VERTEX
  8
0
 10
4.38807
 20
8.96733
 30
0.0
 40
0.0833333
 41
0.0833333
  0
VERTEX
  8
0
 10
4.44732
 20
8.94482
 30
0.0
 40
0.0833333
 41
0.0833333
  0
VERTEX
  8
0
 10
4.50906
 20
8.89344
 30
0.0
 40
0.0833333
 41
0.0833333
  0
VERTEX
  8
0
 10
4.54704
 20
8.82269
 30
0.0
 40
0.0833333
 41
0.0833333
  0
VERTEX
  8
0
 10
4.55729
 20
8.76019
 30
0.0
 40
0.0833333
 41
0.0833333
  0
VERTEX
  8
0
 10
4.55528
 20
8.7399
 30
0.0
 40
0.0833333
 41
0.0833333
  0
SEQEND
 8
0
  0
POLYLINE
  8
0
 62
     0
 66
     1
 10
0
 20
0
 30
0.0
 70
     1
 40
8
 41
8
  0
VERTEX
  8
0
 10
5.9841
 20
5.91992
 30
0.0
 40
0.111111
 41
0.111111
  0
VERTEX
  8
0
 10
5.98286
 20
5.90793
 30
0.0
 40
0.111111
 41
0.111111
  0
VERTEX
  8
0
 10
5.96951
 20
5.87283
 30
0.0
 40
0.111111
 41
0.111111
  0
VERTEX
  8
0
 10
5.93907
 20
5.83626
 30
0.0
 40
0.111111
 41
0.111111
  0
VERTEX
  8
0
 10
5.89714
 20
5.81375
 30
0.0
 40
0.111111
 41
0.111111
  0
VERTEX
  8
0
 10
5.86008
 20
5.80761
 30
0.0
 40
0.111111
 41
0.111111
  0
VERTEX
  8
0
 10
5.8481
 20
5.80881
 30
0.0
 40
0.111111
 41
0.111111
  0
VERTEX
  8
0
 10
5.83604
 20
5.81006
 30
0.0
 40
0.111111
 41
0.111111
  0
VERTEX
  8
0
 10
5.80094
 20
5.8234
 30
0.0
 40
0.111111
 41
0.111111
  0
VERTEX
  8
0
 10
5.76432
 20
5.85385
 30
0.0
 40
0.111111
 41
0.111111
  0
VERTEX
  8
0
 10
5.74181
 20
5.89578
 30
0.0
 40
0.111111
 41
0.111111
  0
VERTEX
  8
0
 10
5.73574
 20
5.93283
 30
0.0
 40
0.111111
 41
0.111111
  0
VERTEX
  8
0
 10
5.73699
 20
5.94482
 30
0.0
 40
0.111111
 41
0.111111
  0
VERTEX
  8
0
 10
5.73817
 20
5.95687
 30
0.0
 40
0.111111
 41
0.111111
  0
VERTEX
  8
0
 10
5.75151
 20
5.99197
 30
0.0
 40
0.111111
 41
0.111111
  0
VERTEX
  8
0
 10
5.78196
 20
6.0286
 30
0.0
 40
0.111111
 41
0.111111
  0
VERTEX
  8
0
 10
5.82389
 20
6.05111
 30
0.0
 40
0.111111
 41
0.111111
  0
VERTEX
  8
0
 10
5.86094
 20
6.05718
 30
0.0
 40
0.111111
 41
0.111111
  0
VERTEX
  8
0
 10
5.87299
 20
6.05593
 30
0.0
 40
0.111111
 41
0.111111
  0
VERTEX
  8
0
 10
5.88499
 20
6.05474
 30
0.0
 40
0.111111
 41
0.111111
  0
VERTEX
  8
0
 10
5.92008
 20
6.04144
 30
0.0
 40
0.111111
 41
0.111111
  0
VERTEX
  8
0
 10
5.95671
 20
6.01096
 30
0.0
 40
0.111111
 41
0.111111
  0
VERTEX
  8
0
 10
5.97922
 20
5.96903
 30
0.0
 40
0.111111
 41
0.111111
  0
VERTEX
  8
0
 10
5.98529
 20
5.93197
 30
0.0
 40
0.111111
 41
0.111111
  0
VERTEX
  8
0
 10
5.9841
 20
5.91992
 30
0.0
 40
0.111111
 41
0.111111
  0
SEQEND
 8
0
  0
POLYLINE
  8
0
 62
     0
 66
     1
 10
0
 20
0
 30
0.0
 70
     1
 40
8
 41
8
  0
VERTEX
  8
0
 10
8.39188
 20
7.96924
 30
0.0
 40
0.111111
 41
0.111111
  0
VERTEX
  8
0
 10
8.39063
 20
7.95725
 30
0.0
 40
0.111111
 41
0.111111
  0
VERTEX
  8
0
 10
8.37728
 20
7.92215
 30
0.0
 40
0.111111
 41
0.111111
  0
VERTEX
  8
0
 10
8.34685
 20
7.88558
 30
0.0
 40
0.111111
 41
0.111111
  0
VERTEX
  8
0
 10
8.3049
 20
7.86307
 30
0.0
 40
0.111111
 41
0.111111
  0
VERTEX
  8
0
 10
8.26785
 20
7.85693
 30
0.0
 40
0.111111
 41
0.111111
  0
VERTEX
  8
0
 10
8.25586
 20
7.85812
 30
0.0
 40
0.111111
 41
0.111111
  0
VERTEX
  8
0
 10
8.24382
 20
7.85938
 30
0.0
 40
0.111111
 41
0.111111
  0
VERTEX
  8
0
 10
8.20871
 20
7.87272
 30
0.0
 40
0.111111
 41
0.111111
  0
VERTEX
  8
0
 10
8.1721
 20
7.90315
 30
0.0
 40
0.111111
 41
0.111111
  0
VERTEX
  8
0
 10
8.14958
 20
7.9451
 30
0.0
 40
0.111111
 41
0.111111
  0
VERTEX
  8
0
 10
8.1435
 20
7.98215
 30
0.0
 40
0.111111
 41
0.111111
  0
VERTEX
  8
0
 10
8.14475
 20
7.99414
 30
0.0
 40
0.111111
 41
0.111111
  0
VERTEX
  8
0
 10
8.14594
 20
8.00618
 30
0.0
 40
0.111111
 41
0.111111
  0
VERTEX
  8
0
 10
8.15924
 20
8.04129
 30
0.0
 40
0.111111
 41
0.111111
  0
VERTEX
  8
0
 10
8.18972
 20
8.0779
 30
0.0
 40
0.111111
 41
0.111111
  0
VERTEX
  8
0
 10
8.23167
 20
8.10042
 30
0.0
 40
0.111111
 41
0.111111
  0
VERTEX
  8
0
 10
8.26872
 20
8.1065
 30
0.0
 40
0.111111
 41
0.111111
  0
VERTEX
  8
0
 10
8.28076
 20
8.10525
 30
0.0
 40
0.111111
 41
0.111111
  0
VERTEX
  8
0
 10
8.29275
 20
8.10406
 30
0.0
 40
0.111111
 41
0.111111
  0
VERTEX
  8
0
 10
8.32785
 20
8.09076
 30
0.0
 40
0.111111
 41
0.111111
  0
VERTEX
  8
0
 10
8.36442
 20
8.06028
 30
0.0
 40
0.111111
 41
0.111111
  0
VERTEX
  8
0
 10
8.38693
 20
8.01833
 30
0.0
 40
0.111111
 41
0.111111
  0
VERTEX
  8
0
 10
8.39307
 20
7.98128
 30
0.0
 40
0.111111
 41
0.111111
  0
VERTEX
  8
0
 10
8.39188
 20
7.96924
 30
0.0
 40
0.111111
 41
0.111111
  0
SEQEND
 8
0
  0
POLYLINE
  8
0
 62
     0
 66
     1
 10
0
 20
0
 30
0.0
 70
     1
 40
6
 41
6
  0
VERTEX
  8
0
 10
9.20269
 20
4.89811
 30
0.0
 40
0.0833333
 41
0.0833333
  0
VERTEX
  8
0
 10
9.20057
 20
4.8775
 30
0.0
 40
0.0833333
 41
0.0833333
  0
VERTEX
  8
0
 10
9.17763
 20
4.81717
 30
0.0
 40
0.0833333
 41
0.0833333
  0
VERTEX
  8
0
 10
9.12532
 20
4.75429
 30
0.0
 40
0.0833333
 41
0.0833333
  0
VERTEX
  8
0
 10
9.05328
 20
4.71556
 30
0.0
 40
0.0833333
 41
0.0833333
  0
VERTEX
  8
0
 10
8.98958
 20
4.70514
 30
0.0
 40
0.0833333
 41
0.0833333
  0
VERTEX
  8
0
 10
8.96897
 20
4.70719
 30
0.0
 40
0.0833333
 41
0.0833333
  0
VERTEX
  8
0
 10
8.94829
 20
4.70931
 30
0.0
 40
0.0833333
 41
0.0833333
  0
VERTEX
  8
0
 10
8.88797
 20
4.73226
 30
0.0
 40
0.0833333
 41
0.0833333
  0
VERTEX
  8
0
 10
8.82508
 20
4.78456
 30
0.0
 40
0.0833333
 41
0.0833333
  0
VERTEX
  8
0
 10
8.78635
 20
4.85661
 30
0.0
 40
0.0833333
 41
0.0833333
  0
VERTEX
  8
0
 10
8.77593
 20
4.92031
 30
0.0
 40
0.0833333
 41
0.0833333
  0
VERTEX
  8
0
 10
8.77806
 20
4.94092
 30
0.0
 40
0.0833333
 41
0.0833333
  0
VERTEX
  8
0
 10
8.78011
 20
4.96158
 30
0.0
 40
0.0833333
 41
0.0833333
  0
VERTEX
  8
0
 10
8.80306
 20
5.02192
 30
0.0
 40
0.0833333
 41
0.0833333
  0
VERTEX
  8
0
 10
8.85536
 20
5.08479
 30
0.0
 40
0.0833333
 41
0.0833333
  0
VERTEX
  8
0
 10
8.9274
 20
5.12354
 30
0.0
 40
0.0833333
 41
0.0833333
  0
VERTEX
  8
0
 10
8.9911
 20
5.13396
 30
0.0
 40
0.0833333
 41
0.0833333
  0
VERTEX
  8
0
 10
9.01178
 20
5.13183
 30
0.0
 40
0.0833333
 41
0.0833333
  0
VERTEX
  8
0
 10
9.03239
 20
5.12978
 30
0.0
 40
0.0833333
 41
0.0833333
  0
VERTEX
  8
0
 10
9.09272
 20
5.10682
 30
0.0
 40
0.0833333
 41
0.0833333
  0
VERTEX
  8
0
 10
9.1556
 20
5.05453
 30
0.0
 40
0.0833333
 41
0.0833333
  0
VERTEX
  8
0
 10
9.19433
 20
4.98247
 30
0.0
 40
0.0833333
 41
0.0833333
  0
VERTEX
  8
0
 10
9.20475
 20
4.91878
 30
0.0
 40
0.0833333
 41
0.0833333
  0
VERTEX
  8
0
 10
9.20269
 20
4.89811
 30
0.0
 40
0.0833333
 41
0.0833333
  0
SEQEND
 8
0
  0
POLYLINE
  8
0
 62
     0
 66
     1
 10
0
 20
0
 30
0.0
 70
     1
 40
8
 41
8
  0
VERTEX
  8
0
 10
8.9005
 20
8.93533
 30
0.0
 40
0.111111
 41
0.111111
  0
VERTEX
  8
0
 10
8.89931
 20
8.92333
 30
0.0
 40
0.111111
 41
0.111111
  0
VERTEX
  8
0
 10
8.88596
 20
8.88824
 30
0.0
 40
0.111111
 41
0.111111
  0
VERTEX
  8
0
 10
8.85553
 20
8.85161
 30
0.0
 40
0.111111
 41
0.111111
  0
VERTEX
  8
0
 10
8.81353
 20
8.8291
 30
0.0
 40
0.111111
 41
0.111111
  0
VERTEX
  8
0
 10
8.77647
 20
8.82303
 30
0.0
 40
0.111111
 41
0.111111
  0
VERTEX
  8
0
 10
8.76449
 20
8.82422
 30
0.0
 40
0.111111
 41
0.111111
  0
VERTEX
  8
0
 10
8.75244
 20
8.82547
 30
0.0
 40
0.111111
 41
0.111111
  0
VERTEX
  8
0
 10
8.71733
 20
8.83882
 30
0.0
 40
0.111111
 41
0.111111
  0
VERTEX
  8
0
 10
8.68078
 20
8.86925
 30
0.0
 40
0.111111
 41
0.111111
  0
VERTEX
  8
0
 10
8.65826
 20
8.91118
 30
0.0
 40
0.111111
 41
0.111111
  0
VERTEX
  8
0
 10
8.65218
 20
8.94824
 30
0.0
 40
0.111111
 41
0.111111
  0
VERTEX
  8
0
 10
8.65338
 20
8.96024
 30
0.0
 40
0.111111
 41
0.111111
  0
VERTEX
  8
0
 10
8.65457
 20
8.97228
 30
0.0
 40
0.111111
 41
0.111111
  0
VERTEX
  8
0
 10
8.66792
 20
9.00738
 30
0.0
 40
0.111111
 41
0.111111
  0
VERTEX
  8
0
 10
8.69835
 20
9.044
 30
0.0
 40
0.111111
 41
0.111111
  0
VERTEX
  8
0
 10
8.74029
 20
9.06651
 30
0.0
 40
0.111111
 41
0.111111
  0
VERTEX
  8
0
 10
8.77735
 20
9.0726
 30
0.0
 40
0.111111
 41
0.111111
  0
VERTEX
  8
0
 10
8.78939
 20
9.07135
 30
0.0
 40
0.111111
 41
0.111111
  0
VERTEX
  8
0
 10
8.80137
 20
9.07015
 30
0.0
 40
0.111111
 41
0.111111
  0
VERTEX
  8
0
 10
8.83649
 20
9.05681
 30
0.0
 40
0.111111
 41
0.111111
  0
VERTEX
  8
0
 10
8.8731
 20
9.02636
 30
0.0
 40
0.111111
 41
0.111111
  0
VERTEX
  8
0
 10
8.89561
 20
8.98443
 30
0.0
 40
0.111111
 41
0.111111
  0
VERTEX
  8
0
 10
8.90169
 20
8.94738
 30
0.0
 40
0.111111
 41
0.111111
  0
VERTEX
  8
0
 10
8.9005
 20
8.93533
 30
0.0
 40
0.111111
 41
0.111111
  0
SEQEND
 8
0
  0
POLYLINE
  8
0
 62
     0
 66
     1
 10
0
 20
0
 30
0.0
 40
13
 41
13
  0
VERTEX
  8
0
 10
7.97374
 20
5.49425
 30
0.0
 40
0.180556
 41
0.180556
  0
VERTEX
  8
0
 10
8.26828
 20
4.91954
 30
0.0
 40
0.180556
 41
0.180556
  0
VERTEX
  8
0
 10
8.82487
 20
4.91954
 30
0.0
 40
0.180556
 41
0.180556
  0
SEQEND
 8
0
  0
POLYLINE
  8
0
 62
     0
 66
     1
 10
0
 20
0
 30
0.0
 40
13
 41
13
  0
VERTEX
  8
0
 10
5.67589
 20
9.04118
 30
0.0
 40
0.180556
 41
0.180556
  0
VERTEX
  8
0
 10
4.95133
 20
9.38319
 30
0.0
 40
0.180556
 41
0.180556
  0
VERTEX
  8
0
 10
4.48551
 20
8.91732
 30
0.0
 40
0.180556
 41
0.180556
  0
SEQEND
 8
0
  0
POLYLINE
  8
0
 62
     0
 66
     1
 10
0
 20
0
 30
0.0
 40
13
 41
13
  0
VERTEX
  8
0
 10
5.61458
 20
3.5816
 30
0.0
 40
0.180556
 41
0.180556
  0
VERTEX
  8
0
 10
5.54357
 20
3.60906
 30
0.0
 40
0.180556
 41
0.180556
  0
VERTEX
  8
0
 10
5.33475
 20
3.7021
 30
0.0
 40
0.180556
 41
0.180556
  0
VERTEX
  8
0
 10
5.06619
 20
3.84239
 30
0.0
 40
0.180556
 41
0.180556
  0
VERTEX
  8
0
 10
4.8099
 20
4.00174
 30
0.0
 40
0.180556
 41
0.180556
  0
VERTEX
  8
0
 10
4.56679
 20
4.17904
 30
0.0
 40
0.180556
 41
0.180556
  0
VERTEX
  8
0
 10
4.33772
 20
4.37349
 30
0.0
 40
0.180556
 41
0.180556
  0
VERTEX
  8
0
 10
4.12369
 20
4.58404
 30
0.0
 40
0.180556
 41
0.180556
  0
VERTEX
  8
0
 10
3.92562
 20
4.80985
 30
0.0
 40
0.180556
 41
0.180556
  0
VERTEX
  8
0
 10
3.74447
 20
5.04997
 30
0.0
 40
0.180556
 41
0.180556
  0
VERTEX
  8
0
 10
3.58111
 20
5.30344
 30
0.0
 40
0.180556
 41
0.180556
  0
VERTEX
  8
0
 10
3.43653
 20
5.56939
 30
0.0
 40
0.180556
 41
0.180556
  0
VERTEX
  8
0
 10
3.31164
 20
5.84679
 30
0.0
 40
0.180556
 41
0.180556
  0
VERTEX
  8
0
 10
3.20731
 20
6.13476
 30
0.0
 40
0.180556
 41
0.180556
  0
VERTEX
  8
0
 10
3.12457
 20
6.4324
 30
0.0
 40
0.180556
 41
0.180556
  0
VERTEX
  8
0
 10
3.06435
 20
6.73872
 30
0.0
 40
0.180556
 41
0.180556
  0
VERTEX
  8
0
 10
3.0275
 20
7.05279
 30
0.0
 40
0.180556
 41
0.180556
  0
VERTEX
  8
0
 10
3.01503
 20
7.29351
 30
0.0
 40
0.180556
 41
0.180556
  0
VERTEX
  8
0
 10
3.01503
 20
7.37369
 30
0.0
 40
0.180556
 41
0.180556
  0
VERTEX
  8
0
 10
3.01503
 20
7.44667
 30
0.0
 40
0.180556
 41
0.180556
  0
VERTEX
  8
0
 10
3.02414
 20
7.66542
 30
0.0
 40
0.180556
 41
0.180556
  0
VERTEX
  8
0
 10
3.05138
 20
7.95074
 30
0.0
 40
0.180556
 41
0.180556
  0
VERTEX
  8
0
 10
3.09631
 20
8.22911
 30
0.0
 40
0.180556
 41
0.180556
  0
VERTEX
  8
0
 10
3.15847
 20
8.49994
 30
0.0
 40
0.180556
 41
0.180556
  0
VERTEX
  8
0
 10
3.23753
 20
8.76258
 30
0.0
 40
0.180556
 41
0.180556
  0
VERTEX
  8
0
 10
3.33306
 20
9.01654
 30
0.0
 40
0.180556
 41
0.180556
  0
VERTEX
  8
0
 10
3.44472
 20
9.26113
 30
0.0
 40
0.180556
 41
0.180556
  0
VERTEX
  8
0
 10
3.57206
 20
9.49582
 30
0.0
 40
0.180556
 41
0.180556
  0
VERTEX
  8
0
 10
3.71468
 20
9.72006
 30
0.0
 40
0.180556
 41
0.180556
  0
VERTEX
  8
0
 10
3.87224
 20
9.93317
 30
0.0
 40
0.180556
 41
0.180556
  0
VERTEX
  8
0
 10
4.04428
 20
10.1346
 30
0.0
 40
0.180556
 41
0.180556
  0
VERTEX
  8
0
 10
4.23042
 20
10.3238
 30
0.0
 40
0.180556
 41
0.180556
  0
VERTEX
  8
0
 10
4.43033
 20
10.5002
 30
0.0
 40
0.180556
 41
0.180556
  0
VERTEX
  8
0
 10
4.6435
 20
10.6631
 30
0.0
 40
0.180556
 41
0.180556
  0
VERTEX
  8
0
 10
4.86963
 20
10.812
 30
0.0
 40
0.180556
 41
0.180556
  0
VERTEX
  8
0
 10
5.04758
 20
10.9148
 30
0.0
 40
0.180556
 41
0.180556
  0
VERTEX
  8
0
 10
5.10835
 20
10.9462
 30
0.0
 40
0.180556
 41
0.180556
  0
SEQEND
 8
0
  0
POLYLINE
  8
0
 62
     0
 66
     1
 10
0
 20
0
 30
0.0
 40
13
 41
13
  0
VERTEX
  8
0
 10
8.8559
 20
11.0201
 30
0.0
 40
0.180556
 41
0.180556
  0
VERTEX
  8
0
 10
8.91812
 20
10.989
 30
0.0
 40
0.180556
 41
0.180556
  0
VERTEX
  8
0
 10
9.10069
 20
10.8869
 30
0.0
 40
0.180556
 41
0.180556
  0
VERTEX
  8
0
 10
9.33464
 20
10.7377
 30
0.0
 40
0.180556
 41
0.180556
  0
VERTEX
  8
0
 10
9.55701
 20
10.5733
 30
0.0
 40
0.180556
 41
0.180556
  0
VERTEX
  8
0
 10
9.76714
 20
10.3945
 30
0.0
 40
0.180556
 41
0.180556
  0
VERTEX
  8
0
 10
9.96436
 20
10.2018
 30
0.0
 40
0.180556
 41
0.180556
  0
VERTEX
  8
0
 10
10.148
 20
9.99615
 30
0.0
 40
0.180556
 41
0.180556
  0
VERTEX
  8
0
 10
10.3173
 20
9.77815
 30
0.0
 40
0.180556
 41
0.180556
  0
VERTEX
  8
0
 10
10.4717
 20
9.54861
 30
0.0
 40
0.180556
 41
0.180556
  0
VERTEX
  8
0
 10
10.6105
 20
9.30821
 30
0.0
 40
0.180556
 41
0.180556
  0
VERTEX
  8
0
 10
10.733
 20
9.05767
 30
0.0
 40
0.180556
 41
0.180556
  0
VERTEX
  8
0
 10
10.8384
 20
8.79775
 30
0.0
 40
0.180556
 41
0.180556
  0
VERTEX
  8
0
 10
10.9263
 20
8.52919
 30
0.0
 40
0.180556
 41
0.180556
  0
VERTEX
  8
0
 10
10.9958
 20
8.25265
 30
0.0
 40
0.180556
 41
0.180556
  0
VERTEX
  8
0
 10
11.0462
 20
7.96897
 30
0.0
 40
0.180556
 41
0.180556
  0
VERTEX
  8
0
 10
11.077
 20
7.67876
 30
0.0
 40
0.180556
 41
0.180556
  0
VERTEX
  8
0
 10
11.0875
 20
7.45682
 30
0.0
 40
0.180556
 41
0.180556
  0
VERTEX
  8
0
 10
11.0875
 20
7.38282
 30
0.0
 40
0.180556
 41
0.180556
  0
VERTEX
  8
0
 10
11.0875
 20
7.29883
 30
0.0
 40
0.180556
 41
0.180556
  0
VERTEX
  8
0
 10
11.0736
 20
7.04676
 30
0.0
 40
0.180556
 41
0.180556
  0
VERTEX
  8
0
 10
11.033
 20
6.7181
 30
0.0
 40
0.180556
 41
0.180556
  0
VERTEX
  8
0
 10
10.9665
 20
6.39789
 30
0.0
 40
0.180556
 41
0.180556
  0
VERTEX
  8
0
 10
10.8754
 20
6.08735
 30
0.0
 40
0.180556
 41
0.180556
  0
VERTEX
  8
0
 10
10.7607
 20
5.78743
 30
0.0
 40
0.180556
 41
0.180556
  0
VERTEX
  8
0
 10
10.6236
 20
5.49935
 30
0.0
 40
0.180556
 41
0.180556
  0
VERTEX
  8
0
 10
10.4651
 20
5.22407
 30
0.0
 40
0.180556
 41
0.180556
  0
VERTEX
  8
0
 10
10.2863
 20
4.96278
 30
0.0
 40
0.180556
 41
0.180556
  0
VERTEX
  8
0
 10
10.0884
 20
4.71658
 30
0.0
 40
0.180556
 41
0.180556
  0
VERTEX
  8
0
 10
9.87244
 20
4.48643
 30
0.0
 40
0.180556
 41
0.180556
  0
VERTEX
  8
0
 10
9.63949
 20
4.2736
 30
0.0
 40
0.180556
 41
0.180556
  0
VERTEX
  8
0
 10
9.39063
 20
4.0791
 30
0.0
 40
0.180556
 41
0.180556
  0
VERTEX
  8
0
 10
9.12706
 20
3.90397
 30
0.0
 40
0.180556
 41
0.180556
  0
VERTEX
  8
0
 10
8.84978
 20
3.7494
 30
0.0
 40
0.180556
 41
0.180556
  0
VERTEX
  8
0
 10
8.55994
 20
3.61643
 30
0.0
 40
0.180556
 41
0.180556
  0
VERTEX
  8
0
 10
8.33496
 20
3.53065
 30
0.0
 40
0.180556
 41
0.180556
  0
VERTEX
  8
0
 10
8.25868
 20
3.50612
 30
0.0
 40
0.180556
 41
0.180556
  0
SEQEND
 8
0
  0
POLYLINE
  8
0
 62
     0
 66
     1
 10
0
 20
0
 30
0.0
 40
13
 41
13
  0
VERTEX
  8
0
 10
2.88656
 20
9.44069
 30
0.0
 40
0.180556
 41
0.180556
  0
VERTEX
  8
0
 10
3.50831
 20
9.38314
 30
0.0
 40
0.180556
 41
0.180556
  0
SEQEND
 8
0
  0
POLYLINE
  8
0
 62
     0
 66
     1
 10
0
 20
0
 30
0.0
 40
13
 41
13
  0
VERTEX
  8
0
 10
3.72754
 20
10.5378
 30
0.0
 40
0.180556
 41
0.180556
  0
VERTEX
  8
0
 10
3.91428
 20
9.98508
 30
0.0
 40
0.180556
 41
0.180556
  0
SEQEND
 8
0
  0
POLYLINE
  8
0
 62
     0
 66
     1
 10
0
 20
0
 30
0.0
 40
13
 41
13
  0
VERTEX
  8
0
 10
2.43838
 20
8.02431
 30
0.0
 40
0.180556
 41
0.180556
  0
VERTEX
  8
0
 10
3.02165
 20
7.62175
 30
0.0
 40
0.180556
 41
0.180556
  0
SEQEND
 8
0
  0
POLYLINE
  8
0
 62
     0
 66
     1
 10
0
 20
0
 30
0.0
 40
13
 41
13
  0
VERTEX
  8
0
 10
2.46658
 20
6.67063
 30
0.0
 40
0.180556
 41
0.180556
  0
VERTEX
  8
0
 10
3.01503
 20
7.08333
 30
0.0
 40
0.180556
 41
0.180556
  0
SEQEND
 8
0
  0
POLYLINE
  8
0
 62
     0
 66
     1
 10
0
 20
0
 30
0.0
 40
13
 41
13
  0
VERTEX
  8
0
 10
2.46658
 20
5.18744
 30
0.0
 40
0.180556
 41
0.180556
  0
VERTEX
  8
0
 10
3.5765
 20
5.31119
 30
0.0
 40
0.180556
 41
0.180556
  0
SEQEND
 8
0
  0
POLYLINE
  8
0
 62
     0
 66
     1
 10
0
 20
0
 30
0.0
 40
13
 41
13
  0
VERTEX
  8
0
 10
3.67768
 20
4.03678
 30
0.0
 40
0.180556
 41
0.180556
  0
VERTEX
  8
0
 10
3.94174
 20
4.79021
 30
0.0
 40
0.180556
 41
0.180556
  0
SEQEND
 8
0
  0
POLYLINE
  8
0
 62
     0
 66
     1
 10
0
 20
0
 30
0.0
 40
13
 41
13
  0
VERTEX
  8
0
 10
4.87543
 20
3.18961
 30
0.0
 40
0.180556
 41
0.180556
  0
VERTEX
  8
0
 10
5.43012
 20
3.65815
 30
0.0
 40
0.180556
 41
0.180556
  0
SEQEND
 8
0
  0
POLYLINE
  8
0
 62
     0
 66
     1
 10
0
 20
0
 30
0.0
 40
13
 41
13
  0
VERTEX
  8
0
 10
10.2671
 20
4.01942
 30
0.0
 40
0.180556
 41
0.180556
  0
VERTEX
  8
0
 10
10.0328
 20
4.66883
 30
0.0
 40
0.180556
 41
0.180556
  0
SEQEND
 8
0
  0
POLYLINE
  8
0
 62
     0
 66
     1
 10
0
 20
0
 30
0.0
 40
13
 41
13
  0
VERTEX
  8
0
 10
9.07129
 20
3.17128
 30
0.0
 40
0.180556
 41
0.180556
  0
VERTEX
  8
0
 10
8.52121
 20
3.60678
 30
0.0
 40
0.180556
 41
0.180556
  0
SEQEND
 8
0
  0
POLYLINE
  8
0
 62
     0
 66
     1
 10
0
 20
0
 30
0.0
 40
13
 41
13
  0
VERTEX
  8
0
 10
11.1251
 20
5.18967
 30
0.0
 40
0.180556
 41
0.180556
  0
VERTEX
  8
0
 10
10.4751
 20
5.25489
 30
0.0
 40
0.180556
 41
0.180556
  0
SEQEND
 8
0
  0
POLYLINE
  8
0
 62
     0
 66
     1
 10
0
 20
0
 30
0.0
 40
13
 41
13
  0
VERTEX
  8
0
 10
11.6077
 20
6.56153
 30
0.0
 40
0.180556
 41
0.180556
  0
VERTEX
  8
0
 10
11.0874
 20
6.94444
 30
0.0
 40
0.180556
 41
0.180556
  0
SEQEND
 8
0
  0
POLYLINE
  8
0
 62
     0
 66
     1
 10
0
 20
0
 30
0.0
 40
13
 41
13
  0
VERTEX
  8
0
 10
11.5802
 20
8.02669
 30
0.0
 40
0.180556
 41
0.180556
  0
VERTEX
  8
0
 10
11.0766
 20
7.68506
 30
0.0
 40
0.180556
 41
0.180556
  0
SEQEND
 8
0
  0
POLYLINE
  8
0
 62
     0
 66
     1
 10
0
 20
0
 30
0.0
 40
13
 41
13
  0
VERTEX
  8
0
 10
11.2103
 20
9.42736
 30
0.0
 40
0.180556
 41
0.180556
  0
VERTEX
  8
0
 10
10.5444
 20
9.42736
 30
0.0
 40
0.180556
 41
0.180556
  0
SEQEND
 8
0
  0
POLYLINE
  8
0
 62
     0
 66
     1
 10
0
 20
0
 30
0.0
 40
13
 41
13
  0
VERTEX
  8
0
 10
10.2913
 20
10.6052
 30
0.0
 40
0.180556
 41
0.180556
  0
VERTEX
  8
0
 10
10.117
 20
10.0329
 30
0.0
 40
0.180556
 41
0.180556
  0
SEQEND
 8
0
  0
POLYLINE
  8
0
 62
     0
 66
     1
 10
0
 20
0
 30
0.0
 70
     1
 40
13
 41
13
  0
VERTEX
  8
0
 10
7.53629
 20
4.70486
 30
0.0
 40
0.180556
 41
0.180556
  0
VERTEX
  8
0
 10
6.38282
 20
4.70486
 30
0.0
 40
0.180556
 41
0.180556
  0
VERTEX
  8
0
 10
6.37468
 20
4.69075
 30
0.0
 40
0.180556
 41
0.180556
  0
VERTEX
  8
0
 10
6.34267
 20
4.65272
 30
0.0
 40
0.180556
 41
0.180556
  0
VERTEX
  8
0
 10
6.29129
 20
4.61339
 30
0.0
 40
0.180556
 41
0.180556
  0
VERTEX
  8
0
 10
6.2315
 20
4.58854
 30
0.0
 40
0.180556
 41
0.180556
  0
VERTEX
  8
0
 10
6.18257
 20
4.57986
 30
0.0
 40
0.180556
 41
0.180556
  0
VERTEX
  8
0
 10
6.16629
 20
4.57986
 30
0.0
 40
0.180556
 41
0.180556
  0
VERTEX
  8
0
 10
5.58957
 20
3.58089
 30
0.0
 40
0.180556
 41
0.180556
  0
VERTEX
  8
0
 10
5.60069
 20
3.56158
 30
0.0
 40
0.180556
 41
0.180556
  0
VERTEX
  8
0
 10
5.62304
 20
3.45589
 30
0.0
 40
0.180556
 41
0.180556
  0
VERTEX
  8
0
 10
5.60069
 20
3.35026
 30
0.0
 40
0.180556
 41
0.180556
  0
VERTEX
  8
0
 10
5.58957
 20
3.33089
 30
0.0
 40
0.180556
 41
0.180556
  0
VERTEX
  8
0
 10
6.16629
 20
2.33192
 30
0.0
 40
0.180556
 41
0.180556
  0
VERTEX
  8
0
 10
6.18257
 20
2.33192
 30
0.0
 40
0.180556
 41
0.180556
  0
VERTEX
  8
0
 10
6.2315
 20
2.32329
 30
0.0
 40
0.180556
 41
0.180556
  0
VERTEX
  8
0
 10
6.29129
 20
2.29844
 30
0.0
 40
0.180556
 41
0.180556
  0
VERTEX
  8
0
 10
6.34267
 20
2.25911
 30
0.0
 40
0.180556
 41
0.180556
  0
VERTEX
  8
0
 10
6.37462
 20
2.22108
 30
0.0
 40
0.180556
 41
0.180556
  0
VERTEX
  8
0
 10
6.38282
 20
2.20692
 30
0.0
 40
0.180556
 41
0.180556
  0
VERTEX
  8
0
 10
7.53629
 20
2.20692
 30
0.0
 40
0.180556
 41
0.180556
  0
VERTEX
  8
0
 10
7.54443
 20
2.22108
 30
0.0
 40
0.180556
 41
0.180556
  0
VERTEX
  8
0
 10
7.57639
 20
2.25911
 30
0.0
 40
0.180556
 41
0.180556
  0
VERTEX
  8
0
 10
7.62782
 20
2.29844
 30
0.0
 40
0.180556
 41
0.180556
  0
VERTEX
  8
0
 10
7.68756
 20
2.32329
 30
0.0
 40
0.180556
 41
0.180556
  0
VERTEX
  8
0
 10
7.73649
 20
2.33192
 30
0.0
 40
0.180556
 41
0.180556
  0
VERTEX
  8
0
 10
7.75282
 20
2.33192
 30
0.0
 40
0.180556
 41
0.180556
  0
VERTEX
  8
0
 10
8.32958
 20
3.33089
 30
0.0
 40
0.180556
 41
0.180556
  0
VERTEX
  8
0
 10
8.31842
 20
3.35026
 30
0.0
 40
0.180556
 41
0.180556
  0
VERTEX
  8
0
 10
8.29606
 20
3.45589
 30
0.0
 40
0.180556
 41
0.180556
  0
VERTEX
  8
0
 10
8.31842
 20
3.56158
 30
0.0
 40
0.180556
 41
0.180556
  0
VERTEX
  8
0
 10
8.32958
 20
3.58089
 30
0.0
 40
0.180556
 41
0.180556
  0
VERTEX
  8
0
 10
7.75282
 20
4.57986
 30
0.0
 40
0.180556
 41
0.180556
  0
VERTEX
  8
0
 10
7.73649
 20
4.57986
 30
0.0
 40
0.180556
 41
0.180556
  0
VERTEX
  8
0
 10
7.68756
 20
4.58854
 30
0.0
 40
0.180556
 41
0.180556
  0
VERTEX
  8
0
 10
7.62782
 20
4.61339
 30
0.0
 40
0.180556
 41
0.180556
  0
VERTEX
  8
0
 10
7.57639
 20
4.65272
 30
0.0
 40
0.180556
 41
0.180556
  0
VERTEX
  8
0
 10
7.54443
 20
4.69075
 30
0.0
 40
0.180556
 41
0.180556
  0
VERTEX
  8
0
 10
7.53629
 20
4.70486
 30
0.0
 40
0.180556
 41
0.180556
  0
SEQEND
 8
0
  0
POLYLINE
  8
0
 62
     0
 66
     1
 10
0
 20
0
 30
0.0
 70
     1
 40
0
 41
0
  0
VERTEX
  8
0
 10
6.99978
 20
4.5
 30
0.0
 40
0
 41
0
  0
VERTEX
  8
0
 10
6.98801
 20
4.5
 30
0.0
 40
0
 41
0
  0
VERTEX
  8
0
 10
6.95269
 20
4.49744
 30
0.0
 40
0
 41
0
  0
VERTEX
  8
0
 10
6.91433
 20
4.48953
 30
0.0
 40
0
 41
0
  0
VERTEX
  8
0
 10
6.884
 20
4.47564
 30
0.0
 40
0
 41
0
  0
VERTEX
  8
0
 10
6.86089
 20
4.4554
 30
0.0
 40
0
 41
0
  0
VERTEX
  8
0
 10
6.84424
 20
4.42833
 30
0.0
 40
0
 41
0
  0
VERTEX
  8
0
 10
6.83328
 20
4.39399
 30
0.0
 40
0
 41
0
  0
VERTEX
  8
0
 10
6.82726
 20
4.35178
 30
0.0
 40
0
 41
0
  0
VERTEX
  8
0
 10
6.82547
 20
4.31396
 30
0.0
 40
0
 41
0
  0
VERTEX
  8
0
 10
6.82547
 20
4.30132
 30
0.0
 40
0
 41
0
  0
VERTEX
  8
0
 10
6.82547
 20
4.27344
 30
0.0
 40
0
 41
0
  0
VERTEX
  8
0
 10
6.83328
 20
4.18972
 30
0.0
 40
0
 41
0
  0
VERTEX
  8
0
 10
6.86089
 20
4.08643
 30
0.0
 40
0
 41
0
  0
VERTEX
  8
0
 10
6.91433
 20
4.01058
 30
0.0
 40
0
 41
0
  0
VERTEX
  8
0
 10
6.9784
 20
3.98101
 30
0.0
 40
0
 41
0
  0
VERTEX
  8
0
 10
6.99978
 20
3.98101
 30
0.0
 40
0
 41
0
  0
VERTEX
  8
0
 10
7.02382
 20
3.98101
 30
0.0
 40
0
 41
0
  0
VERTEX
  8
0
 10
7.09597
 20
4.01058
 30
0.0
 40
0
 41
0
  0
VERTEX
  8
0
 10
7.17313
 20
4.08643
 30
0.0
 40
0
 41
0
  0
VERTEX
  8
0
 10
7.22444
 20
4.18972
 30
0.0
 40
0
 41
0
  0
VERTEX
  8
0
 10
7.24311
 20
4.27344
 30
0.0
 40
0
 41
0
  0
VERTEX
  8
0
 10
7.24311
 20
4.30132
 30
0.0
 40
0
 41
0
  0
VERTEX
  8
0
 10
7.24311
 20
4.32449
 30
0.0
 40
0
 41
0
  0
VERTEX
  8
0
 10
7.22444
 20
4.39399
 30
0.0
 40
0
 41
0
  0
VERTEX
  8
0
 10
7.17313
 20
4.4554
 30
0.0
 40
0
 41
0
  0
VERTEX
  8
0
 10
7.09597
 20
4.48953
 30
0.0
 40
0
 41
0
  0
VERTEX
  8
0
 10
7.02382
 20
4.5
 30
0.0
 40
0
 41
0
  0
VERTEX
  8
0
 10
6.99978
 20
4.5
 30
0.0
 40
0
 41
0
  0
SEQEND
 8
0
  0
POLYLINE
  8
0
 62
     0
 66
     1
 10
0
 20
0
 30
0.0
 70
     1
 40
0
 41
0
  0
VERTEX
  8
0
 10
6.73221
 20
3.28765
 30
0.0
 40
0
 41
0
  0
VERTEX
  8
0
 10
6.73118
 20
3.28261
 30
0.0
 40
0
 41
0
  0
VERTEX
  8
0
 10
6.73118
 20
3.25319
 30
0.0
 40
0
 41
0
  0
VERTEX
  8
0
 10
6.73525
 20
3.22379
 30
0.0
 40
0
 41
0
  0
VERTEX
  8
0
 10
6.73628
 20
3.21869
 30
0.0
 40
0
 41
0
  0
VERTEX
  8
0
 10
6.74283
 20
3.19162
 30
0.0
 40
0
 41
0
  0
VERTEX
  8
0
 10
6.75456
 20
3.1084
 30
0.0
 40
0
 41
0
  0
VERTEX
  8
0
 10
6.75499
 20
3.02968
 30
0.0
 40
0
 41
0
  0
VERTEX
  8
0
 10
6.75618
 20
2.95014
 30
0.0
 40
0
 41
0
  0
VERTEX
  8
0
 10
6.76958
 20
2.86518
 30
0.0
 40
0
 41
0
  0
VERTEX
  8
0
 10
6.77681
 20
2.83757
 30
0.0
 40
0
 41
0
  0
VERTEX
  8
0
 10
6.77735
 20
2.83469
 30
0.0
 40
0
 41
0
  0
VERTEX
  8
0
 10
6.78825
 20
2.82775
 30
0.0
 40
0
 41
0
  0
VERTEX
  8
0
 10
6.81076
 20
2.8259
 30
0.0
 40
0
 41
0
  0
VERTEX
  8
0
 10
6.8355
 20
2.82785
 30
0.0
 40
0
 41
0
  0
VERTEX
  8
0
 10
6.84924
 20
2.82943
 30
0.0
 40
0
 41
0
  0
VERTEX
  8
0
 10
6.85385
 20
2.82943
 30
0.0
 40
0
 41
0
  0
VERTEX
  8
0
 10
6.8725
 20
2.82943
 30
0.0
 40
0
 41
0
  0
VERTEX
  8
0
 10
6.9285
 20
2.82693
 30
0.0
 40
0
 41
0
  0
VERTEX
  8
0
 10
6.98004
 20
2.82135
 30
0.0
 40
0
 41
0
  0
VERTEX
  8
0
 10
7.03228
 20
2.81575
 30
0.0
 40
0
 41
0
  0
VERTEX
  8
0
 10
7.09006
 20
2.81321
 30
0.0
 40
0
 41
0
  0
VERTEX
  8
0
 10
7.10932
 20
2.81321
 30
0.0
 40
0
 41
0
  0
VERTEX
  8
0
 10
7.11208
 20
2.81321
 30
0.0
 40
0
 41
0
  0
VERTEX
  8
0
 10
7.12044
 20
2.82639
 30
0.0
 40
0
 41
0
  0
VERTEX
  8
0
 10
7.12451
 20
2.85172
 30
0.0
 40
0
 41
0
  0
VERTEX
  8
0
 10
7.12554
 20
2.85781
 30
0.0
 40
0
 41
0
  0
VERTEX
  8
0
 10
7.13217
 20
2.88499
 30
0.0
 40
0
 41
0
  0
VERTEX
  8
0
 10
7.15896
 20
2.9649
 30
0.0
 40
0
 41
0
  0
VERTEX
  8
0
 10
7.19243
 20
3.03624
 30
0.0
 40
0
 41
0
  0
VERTEX
  8
0
 10
7.22586
 20
3.10758
 30
0.0
 40
0
 41
0
  0
VERTEX
  8
0
 10
7.25265
 20
3.18744
 30
0.0
 40
0
 41
0
  0
VERTEX
  8
0
 10
7.25933
 20
3.21463
 30
0.0
 40
0
 41
0
  0
VERTEX
  8
0
 10
7.26019
 20
3.21924
 30
0.0
 40
0
 41
0
  0
VERTEX
  8
0
 10
7.25971
 20
3.23367
 30
0.0
 40
0
 41
0
  0
VERTEX
  8
0
 10
7.25624
 20
3.25722
 30
0.0
 40
0
 41
0
  0
VERTEX
  8
0
 10
7.25131
 20
3.28082
 30
0.0
 40
0
 41
0
  0
VERTEX
  8
0
 10
7.2481
 20
3.29508
 30
0.0
 40
0
 41
0
  0
VERTEX
  8
0
 10
7.24718
 20
3.29981
 30
0.0
 40
0
 41
0
  0
VERTEX
  8
0
 10
7.24115
 20
3.32747
 30
0.0
 40
0
 41
0
  0
VERTEX
  8
0
 10
7.22624
 20
3.41114
 30
0.0
 40
0
 41
0
  0
VERTEX
  8
0
 10
7.21674
 20
3.48785
 30
0.0
 40
0
 41
0
  0
VERTEX
  8
0
 10
7.20725
 20
3.56381
 30
0.0
 40
0
 41
0
  0
VERTEX
  8
0
 10
7.19233
 20
3.64572
 30
0.0
 40
0
 41
0
  0
VERTEX
  8
0
 10
7.18636
 20
3.67279
 30
0.0
 40
0
 41
0
  0
VERTEX
  8
0
 10
7.18582
 20
3.67551
 30
0.0
 40
0
 41
0
  0
VERTEX
  8
0
 10
7.17611
 20
3.68201
 30
0.0
 40
0
 41
0
  0
VERTEX
  8
0
 10
7.15642
 20
3.68246
 30
0.0
 40
0
 41
0
  0
VERTEX
  8
0
 10
7.13444
 20
3.6791
 30
0.0
 40
0
 41
0
  0
VERTEX
  8
0
 10
7.12164
 20
3.67686
 30
0.0
 40
0
 41
0
  0
VERTEX
  8
0
 10
7.1174
 20
3.67686
 30
0.0
 40
0
 41
0
  0
VERTEX
  8
0
 10
7.09868
 20
3.67686
 30
0.0
 40
0
 41
0
  0
VERTEX
  8
0
 10
7.04269
 20
3.68386
 30
0.0
 40
0
 41
0
  0
VERTEX
  8
0
 10
6.99115
 20
3.69917
 30
0.0
 40
0
 41
0
  0
VERTEX
  8
0
 10
6.93892
 20
3.71451
 30
0.0
 40
0
 41
0
  0
VERTEX
  8
0
 10
6.88113
 20
3.72146
 30
0.0
 40
0
 41
0
  0
VERTEX
  8
0
 10
6.86193
 20
3.72146
 30
0.0
 40
0
 41
0
  0
VERTEX
  8
0
 10
6.859
 20
3.72146
 30
0.0
 40
0
 41
0
  0
VERTEX
  8
0
 10
6.85037
 20
3.7155
 30
0.0
 40
0
 41
0
  0
VERTEX
  8
0
 10
6.83658
 20
3.70068
 30
0.0
 40
0
 41
0
  0
VERTEX
  8
0
 10
6.82428
 20
3.68213
 30
0.0
 40
0
 41
0
  0
VERTEX
  8
0
 10
6.81819
 20
3.66928
 30
0.0
 40
0
 41
0
  0
VERTEX
  8
0
 10
6.81733
 20
3.66471
 30
0.0
 40
0
 41
0
  0
VERTEX
  8
0
 10
6.80892
 20
3.63721
 30
0.0
 40
0
 41
0
  0
VERTEX
  8
0
 10
6.78635
 20
3.55393
 30
0.0
 40
0
 41
0
  0
VERTEX
  8
0
 10
6.77018
 20
3.47771
 30
0.0
 40
0
 41
0
  0
VERTEX
  8
0
 10
6.75629
 20
3.40076
 30
0.0
 40
0
 41
0
  0
VERTEX
  8
0
 10
6.73876
 20
3.31581
 30
0.0
 40
0
 41
0
  0
VERTEX
  8
0
 10
6.73221
 20
3.28765
 30
0.0
 40
0
 41
0
  0
SEQEND
 8
0
  0
POLYLINE
  8
0
 62
     0
 66
     1
 10
0
 20
0
 30
0.0
 70
     1
 40
0
 41
0
  0
VERTEX
  8
0
 10
7.43365
 20
3.13351
 30
0.0
 40
0
 41
0
  0
VERTEX
  8
0
 10
7.42757
 20
3.10656
 30
0.0
 40
0
 41
0
  0
VERTEX
  8
0
 10
7.40554
 20
3.02636
 30
0.0
 40
0
 41
0
  0
VERTEX
  8
0
 10
7.37631
 20
2.94287
 30
0.0
 40
0
 41
0
  0
VERTEX
  8
0
 10
7.34619
 20
2.87517
 30
0.0
 40
0
 41
0
  0
VERTEX
  8
0
 10
7.31554
 20
2.81526
 30
0.0
 40
0
 41
0
  0
VERTEX
  8
0
 10
7.28472
 20
2.75543
 30
0.0
 40
0
 41
0
  0
VERTEX
  8
0
 10
7.25401
 20
2.68772
 30
0.0
 40
0
 41
0
  0
VERTEX
  8
0
 10
7.22379
 20
2.60417
 30
0.0
 40
0
 41
0
  0
VERTEX
  8
0
 10
7.20085
 20
2.52399
 30
0.0
 40
0
 41
0
  0
VERTEX
  8
0
 10
7.19444
 20
2.49696
 30
0.0
 40
0
 41
0
  0
VERTEX
  8
0
 10
7.19254
 20
2.4904
 30
0.0
 40
0
 41
0
  0
VERTEX
  8
0
 10
7.18332
 20
2.47168
 30
0.0
 40
0
 41
0
  0
VERTEX
  8
0
 10
7.16351
 20
2.44374
 30
0.0
 40
0
 41
0
  0
VERTEX
  8
0
 10
7.13683
 20
2.42111
 30
0.0
 40
0
 41
0
  0
VERTEX
  8
0
 10
7.11313
 20
2.41178
 30
0.0
 40
0
 41
0
  0
VERTEX
  8
0
 10
7.10525
 20
2.41178
 30
0.0
 40
0
 41
0
  0
VERTEX
  8
0
 10
7.10129
 20
2.41178
 30
0.0
 40
0
 41
0
  0
VERTEX
  8
0
 10
7.08946
 20
2.41986
 30
0.0
 40
0
 41
0
  0
VERTEX
  8
0
 10
7.07026
 20
2.43967
 30
0.0
 40
0
 41
0
  0
VERTEX
  8
0
 10
7.05333
 20
2.46485
 30
0.0
 40
0
 41
0
  0
VERTEX
  8
0
 10
7.04531
 20
2.48264
 30
0.0
 40
0
 41
0
  0
VERTEX
  8
0
 10
7.04443
 20
2.48882
 30
0.0
 40
0
 41
0
  0
VERTEX
  8
0
 10
7.04406
 20
2.49149
 30
0.0
 40
0
 41
0
  0
VERTEX
  8
0
 10
7.04471
 20
2.49972
 30
0.0
 40
0
 41
0
  0
VERTEX
  8
0
 10
7.04693
 20
2.49696
 30
0.0
 40
0
 41
0
  0
VERTEX
  8
0
 10
7.04383
 20
2.49115
 30
0.0
 40
0
 41
0
  0
VERTEX
  8
0
 10
7.03174
 20
2.4916
 30
0.0
 40
0
 41
0
  0
VERTEX
  8
0
 10
7.02821
 20
2.49289
 30
0.0
 40
0
 41
0
  0
VERTEX
  8
0
 10
7.02143
 20
2.49501
 30
0.0
 40
0
 41
0
  0
VERTEX
  8
0
 10
7.00244
 20
2.50526
 30
0.0
 40
0
 41
0
  0
VERTEX
  8
0
 10
6.98172
 20
2.52246
 30
0.0
 40
0
 41
0
  0
VERTEX
  8
0
 10
6.96442
 20
2.5421
 30
0.0
 40
0
 41
0
  0
VERTEX
  8
0
 10
6.94862
 20
2.56185
 30
0.0
 40
0
 41
0
  0
VERTEX
  8
0
 10
6.93261
 20
2.57932
 30
0.0
 40
0
 41
0
  0
VERTEX
  8
0
 10
6.91471
 20
2.59212
 30
0.0
 40
0
 41
0
  0
VERTEX
  8
0
 10
6.89307
 20
2.59793
 30
0.0
 40
0
 41
0
  0
VERTEX
  8
0
 10
6.87244
 20
2.59619
 30
0.0
 40
0
 41
0
  0
VERTEX
  8
0
 10
6.866
 20
2.59424
 30
0.0
 40
0
 41
0
  0
VERTEX
  8
0
 10
6.86149
 20
2.59278
 30
0.0
 40
0
 41
0
  0
VERTEX
  8
0
 10
6.85172
 20
2.57731
 30
0.0
 40
0
 41
0
  0
VERTEX
  8
0
 10
6.85536
 20
2.54969
 30
0.0
 40
0
 41
0
  0
VERTEX
  8
0
 10
6.86426
 20
2.51904
 30
0.0
 40
0
 41
0
  0
VERTEX
  8
0
 10
6.86768
 20
2.49881
 30
0.0
 40
0
 41
0
  0
VERTEX
  8
0
 10
6.866
 20
2.49289
 30
0.0
 40
0
 41
0
  0
VERTEX
  8
0
 10
6.86546
 20
2.48936
 30
0.0
 40
0
 41
0
  0
VERTEX
  8
0
 10
6.86199
 20
2.47906
 30
0.0
 40
0
 41
0
  0
VERTEX
  8
0
 10
6.85531
 20
2.47618
 30
0.0
 40
0
 41
0
  0
VERTEX
  8
0
 10
6.84489
 20
2.47868
 30
0.0
 40
0
 41
0
  0
VERTEX
  8
0
 10
6.83333
 20
2.48074
 30
0.0
 40
0
 41
0
  0
VERTEX
  8
0
 10
6.82954
 20
2.48074
 30
0.0
 40
0
 41
0
  0
VERTEX
  8
0
 10
6.82232
 20
2.48074
 30
0.0
 40
0
 41
0
  0
VERTEX
  8
0
 10
6.80067
 20
2.48454
 30
0.0
 40
0
 41
0
  0
VERTEX
  8
0
 10
6.78136
 20
2.49289
 30
0.0
 40
0
 41
0
  0
VERTEX
  8
0
 10
6.76281
 20
2.50125
 30
0.0
 40
0
 41
0
  0
VERTEX
  8
0
 10
6.74289
 20
2.50504
 30
0.0
 40
0
 41
0
  0
VERTEX
  8
0
 10
6.73628
 20
2.50504
 30
0.0
 40
0
 41
0
  0
VERTEX
  8
0
 10
6.73421
 20
2.50504
 30
0.0
 40
0
 41
0
  0
VERTEX
  8
0
 10
6.72814
 20
2.51932
 30
0.0
 40
0
 41
0
  0
VERTEX
  8
0
 10
6.71631
 20
2.55963
 30
0.0
 40
0
 41
0
  0
VERTEX
  8
0
 10
6.70111
 20
2.62244
 30
0.0
 40
0
 41
0
  0
VERTEX
  8
0
 10
6.68306
 20
2.70426
 30
0.0
 40
0
 41
0
  0
VERTEX
  8
0
 10
6.66249
 20
2.80149
 30
0.0
 40
0
 41
0
  0
VERTEX
  8
0
 10
6.63986
 20
2.91049
 30
0.0
 40
0
 41
0
  0
VERTEX
  8
0
 10
6.61567
 20
3.02778
 30
0.0
 40
0
 41
0
  0
VERTEX
  8
0
 10
6.59663
 20
3.11931
 30
0.0
 40
0
 41
0
  0
VERTEX
  8
0
 10
6.59028
 20
3.14974
 30
0.0
 40
0
 41
0
  0
VERTEX
  8
0
 10
6.58946
 20
3.15369
 30
0.0
 40
0
 41
0
  0
VERTEX
  8
0
 10
6.5715
 20
3.16249
 30
0.0
 40
0
 41
0
  0
VERTEX
  8
0
 10
6.5345
 20
3.17258
 30
0.0
 40
0
 41
0
  0
VERTEX
  8
0
 10
6.49903
 20
3.18343
 30
0.0
 40
0
 41
0
  0
VERTEX
  8
0
 10
6.48432
 20
3.19536
 30
0.0
 40
0
 41
0
  0
VERTEX
  8
0
 10
6.48486
 20
3.1984
 30
0.0
 40
0
 41
0
  0
VERTEX
  8
0
 10
6.49121
 20
3.22803
 30
0.0
 40
0
 41
0
  0
VERTEX
  8
0
 10
6.51042
 20
3.31689
 30
0.0
 40
0
 41
0
  0
VERTEX
  8
0
 10
6.5306
 20
3.41021
 30
0.0
 40
0
 41
0
  0
VERTEX
  8
0
 10
6.54715
 20
3.48676
 30
0.0
 40
0
 41
0
  0
VERTEX
  8
0
 10
6.5619
 20
3.55474
 30
0.0
 40
0
 41
0
  0
VERTEX
  8
0
 10
6.57661
 20
3.62256
 30
0.0
 40
0
 41
0
  0
VERTEX
  8
0
 10
6.59315
 20
3.69851
 30
0.0
 40
0
 41
0
  0
VERTEX
  8
0
 10
6.61333
 20
3.79085
 30
0.0
 40
0
 41
0
  0
VERTEX
  8
0
 10
6.63254
 20
3.87875
 30
0.0
 40
0
 41
0
  0
VERTEX
  8
0
 10
6.63894
 20
3.90799
 30
0.0
 40
0
 41
0
  0
VERTEX
  8
0
 10
6.64014
 20
3.91222
 30
0.0
 40
0
 41
0
  0
VERTEX
  8
0
 10
6.65593
 20
3.92128
 30
0.0
 40
0
 41
0
  0
VERTEX
  8
0
 10
6.68707
 20
3.92275
 30
0.0
 40
0
 41
0
  0
VERTEX
  8
0
 10
6.72043
 20
3.91889
 30
0.0
 40
0
 41
0
  0
VERTEX
  8
0
 10
6.73833
 20
3.91613
 30
0.0
 40
0
 41
0
  0
VERTEX
  8
0
 10
6.74436
 20
3.91613
 30
0.0
 40
0
 41
0
  0
VERTEX
  8
0
 10
6.75151
 20
3.91613
 30
0.0
 40
0
 41
0
  0
VERTEX
  8
0
 10
6.77317
 20
3.92882
 30
0.0
 40
0
 41
0
  0
VERTEX
  8
0
 10
6.79249
 20
3.95665
 30
0.0
 40
0
 41
0
  0
VERTEX
  8
0
 10
6.81104
 20
3.98454
 30
0.0
 40
0
 41
0
  0
VERTEX
  8
0
 10
6.83094
 20
3.99718
 30
0.0
 40
0
 41
0
  0
VERTEX
  8
0
 10
6.83762
 20
3.99718
 30
0.0
 40
0
 41
0
  0
VERTEX
  8
0
 10
6.84011
 20
3.99718
 30
0.0
 40
0
 41
0
  0
VERTEX
  8
0
 10
6.84765
 20
3.98529
 30
0.0
 40
0
 41
0
  0
VERTEX
  8
0
 10
6.85433
 20
3.95665
 30
0.0
 40
0
 41
0
  0
VERTEX
  8
0
 10
6.85867
 20
3.92193
 30
0.0
 40
0
 41
0
  0
VERTEX
  8
0
 10
6.861
 20
3.89931
 30
0.0
 40
0
 41
0
  0
VERTEX
  8
0
 10
6.86193
 20
3.89176
 30
0.0
 40
0
 41
0
  0
VERTEX
  8
0
 10
6.86339
 20
3.88346
 30
0.0
 40
0
 41
0
  0
VERTEX
  8
0
 10
6.85851
 20
3.85682
 30
0.0
 40
0
 41
0
  0
VERTEX
  8
0
 10
6.84674
 20
3.82183
 30
0.0
 40
0
 41
0
  0
VERTEX
  8
0
 10
6.84256
 20
3.79144
 30
0.0
 40
0
 41
0
  0
VERTEX
  8
0
 10
6.8559
 20
3.77268
 30
0.0
 40
0
 41
0
  0
VERTEX
  8
0
 10
6.86193
 20
3.77013
 30
0.0
 40
0
 41
0
  0
VERTEX
  8
0
 10
6.87315
 20
3.76378
 30
0.0
 40
0
 41
0
  0
VERTEX
  8
0
 10
6.91118
 20
3.75206
 30
0.0
 40
0
 41
0
  0
VERTEX
  8
0
 10
6.96126
 20
3.75038
 30
0.0
 40
0
 41
0
  0
VERTEX
  8
0
 10
7.01133
 20
3.76161
 30
0.0
 40
0
 41
0
  0
VERTEX
  8
0
 10
7.04872
 20
3.77636
 30
0.0
 40
0
 41
0
  0
VERTEX
  8
0
 10
7.06065
 20
3.78228
 30
0.0
 40
0
 41
0
  0
VERTEX
  8
0
 10
7.06728
 20
3.78504
 30
0.0
 40
0
 41
0
  0
VERTEX
  8
0
 10
7.08382
 20
3.80171
 30
0.0
 40
0
 41
0
  0
VERTEX
  8
0
 10
7.088
 20
3.8279
 30
0.0
 40
0
 41
0
  0
VERTEX
  8
0
 10
7.08458
 20
3.85872
 30
0.0
 40
0
 41
0
  0
VERTEX
  8
0
 10
7.0835
 20
3.88379
 30
0.0
 40
0
 41
0
  0
VERTEX
  8
0
 10
7.08496
 20
3.89176
 30
0.0
 40
0
 41
0
  0
VERTEX
  8
0
 10
7.08599
 20
3.8954
 30
0.0
 40
0
 41
0
  0
VERTEX
  8
0
 10
7.0886
 20
3.90631
 30
0.0
 40
0
 41
0
  0
VERTEX
  8
0
 10
7.09
 20
3.91054
 30
0.0
 40
0
 41
0
  0
VERTEX
  8
0
 10
7.09293
 20
3.90944
 30
0.0
 40
0
 41
0
  0
VERTEX
  8
0
 10
7.09912
 20
3.90799
 30
0.0
 40
0
 41
0
  0
VERTEX
  8
0
 10
7.10118
 20
3.90799
 30
0.0
 40
0
 41
0
  0
VERTEX
  8
0
 10
7.10835
 20
3.90799
 30
0.0
 40
0
 41
0
  0
VERTEX
  8
0
 10
7.12999
 20
3.90989
 30
0.0
 40
0
 41
0
  0
VERTEX
  8
0
 10
7.14931
 20
3.91407
 30
0.0
 40
0
 41
0
  0
VERTEX
  8
0
 10
7.16786
 20
3.91824
 30
0.0
 40
0
 41
0
  0
VERTEX
  8
0
 10
7.18778
 20
3.92014
 30
0.0
 40
0
 41
0
  0
VERTEX
  8
0
 10
7.19444
 20
3.92014
 30
0.0
 40
0
 41
0
  0
VERTEX
  8
0
 10
7.19835
 20
3.92014
 30
0.0
 40
0
 41
0
  0
VERTEX
  8
0
 10
7.21024
 20
3.92101
 30
0.0
 40
0
 41
0
  0
VERTEX
  8
0
 10
7.22988
 20
3.92068
 30
0.0
 40
0
 41
0
  0
VERTEX
  8
0
 10
7.24799
 20
3.91504
 30
0.0
 40
0
 41
0
  0
VERTEX
  8
0
 10
7.25808
 20
3.90419
 30
0.0
 40
0
 41
0
  0
VERTEX
  8
0
 10
7.25933
 20
3.8999
 30
0.0
 40
0
 41
0
  0
VERTEX
  8
0
 10
7.26503
 20
3.87272
 30
0.0
 40
0
 41
0
  0
VERTEX
  8
0
 10
7.28011
 20
3.79069
 30
0.0
 40
0
 41
0
  0
VERTEX
  8
0
 10
7.29264
 20
3.70426
 30
0.0
 40
0
 41
0
  0
VERTEX
  8
0
 10
7.29964
 20
3.63308
 30
0.0
 40
0
 41
0
  0
VERTEX
  8
0
 10
7.30393
 20
3.56944
 30
0.0
 40
0
 41
0
  0
VERTEX
  8
0
 10
7.30817
 20
3.50581
 30
0.0
 40
0
 41
0
  0
VERTEX
  8
0
 10
7.31515
 20
3.43463
 30
0.0
 40
0
 41
0
  0
VERTEX
  8
0
 10
7.32769
 20
3.34819
 30
0.0
 40
0
 41
0
  0
VERTEX
  8
0
 10
7.34283
 20
3.26617
 30
0.0
 40
0
 41
0
  0
VERTEX
  8
0
 10
7.34853
 20
3.23893
 30
0.0
 40
0
 41
0
  0
VERTEX
  8
0
 10
7.35504
 20
3.23335
 30
0.0
 40
0
 41
0
  0
VERTEX
  8
0
 10
7.37489
 20
3.21679
 30
0.0
 40
0
 41
0
  0
VERTEX
  8
0
 10
7.40474
 20
3.18929
 30
0.0
 40
0
 41
0
  0
VERTEX
  8
0
 10
7.42774
 20
3.16026
 30
0.0
 40
0
 41
0
  0
VERTEX
  8
0
 10
7.43511
 20
3.13949
 30
0.0
 40
0
 41
0
  0
VERTEX
  8
0
 10
7.43365
 20
3.13351
 30
0.0
 40
0
 41
0
  0
SEQEND
 8
0
  0
ENDSEC
  0
EOF
