0
SECTION
2
HEADER
9
$INSUNITS
70
4
9
$ACADVER
1
AC1014
9
$HANDSEED
5
FFFF
0
ENDSEC
0
SECTION
2
TABLES
0
TABLE
2
VPORT
5
8
100
AcDbSymbolTable
0
ENDTAB
0
TABLE
2
LTYPE
5
5
100
AcDbSymbolTable
0
LTYPE
5
14
100
AcDbSymbolTableRecord
100
AcDbLinetypeTableRecord
2
BYBLOCK
70
0
0
LTYPE
5
15
100
AcDbSymbolTableRecord
100
AcDbLinetypeTableRecord
2
BYLAYER
70
0
0
ENDTAB
0
TABLE
2
LAYER
5
2
100
AcDbSymbolTable
70
2
0
LAYER
5
50
100
AcDbSymbolTableRecord
100
AcDbLayerTableRecord
2
0
70
0
6
CONTINUOUS
0
ENDTAB
0
TABLE
2
STYLE
5
3
100
AcDbSymbolTable
70
1
0
STYLE
5
11
100
AcDbSymbolTableRecord
100
AcDbTextStyleTableRecord
2
STANDARD
70
0
0
ENDTAB
0
TABLE
2
VIEW
5
6
100
AcDbSymbolTable
70
0
0
ENDTAB
0
TABLE
2
UCS
5
7
100
AcDbSymbolTable
70
0
0
ENDTAB
0
TABLE
2
APPID
5
9
100
AcDbSymbolTable
70
2
0
APPID
5
12
100
AcDbSymbolTableRecord
100
AcDbRegAppTableRecord
2
ACAD
70
0
0
ENDTAB
0
TABLE
2
DIMSTYLE
5
A
100
AcDbSymbolTable
70
1
0
ENDTAB
0
TABLE
2
BLOCK_RECORD
5
1
100
AcDbSymbolTable
70
1
0
BLOCK_RECORD
5
1F
100
AcDbSymbolTableRecord
100
AcDbBlockTableRecord
2
*MODEL_SPACE
0
BLOCK_RECORD
5
1B
100
AcDbSymbolTableRecord
100
AcDbBlockTableRecord
2
*PAPER_SPACE
0
ENDTAB
0
ENDSEC
0
SECTION
2
BLOCKS
0
BLOCK
5
20
100
AcDbEntity
100
AcDbBlockBegin
2
*MODEL_SPACE
0
ENDBLK
5
21
100
AcDbEntity
100
AcDbBlockEnd
0
BLOCK
5
1C
100
AcDbEntity
100
AcDbBlockBegin
2
*PAPER_SPACE
0
ENDBLK
5
1D
100
AcDbEntity
100
AcDbBlockEnd
0
ENDSEC
0
SECTION
2
ENTITIES
0
LINE
5
100
100
AcDbEntity
8
0
100
AcDbLine
10
-80.388289999999998
20
172.38204999999999
30
0
11
-80.506200000000007
21
172.40779900000004
31
0
0
LINE
5
101
100
AcDbEntity
8
0
100
AcDbLine
10
-80.506200000000007
20
172.40779900000004
30
0
11
-80.62212000000001
21
172.42608899999999
31
0
0
LINE
5
102
100
AcDbEntity
8
0
100
AcDbLine
10
-80.62212000000001
20
172.42608899999999
30
0
11
-80.735879999999995
21
172.437589
31
0
0
LINE
5
103
100
AcDbEntity
8
0
100
AcDbLine
10
-80.735879999999995
20
172.437589
30
0
11
-80.847309999999993
21
172.44280499999999
31
0
0
LINE
5
104
100
AcDbEntity
8
0
100
AcDbLine
10
-80.847309999999993
20
172.44280499999999
30
0
11
-80.956230000000019
21
172.44206200000002
31
0
0
LINE
5
105
100
AcDbEntity
8
0
100
AcDbLine
10
-80.956230000000019
20
172.44206200000002
30
0
11
-81.062489999999997
21
172.43554700000001
31
0
0
LINE
5
106
100
AcDbEntity
8
0
100
AcDbLine
10
-81.062489999999997
20
172.43554700000001
30
0
11
-81.165970000000002
21
172.423337
31
0
0
LINE
5
107
100
AcDbEntity
8
0
100
AcDbLine
10
-81.165970000000002
20
172.423337
30
0
11
-98.522639999999996
21
169.86561300000002
31
0
0
LINE
5
108
100
AcDbEntity
8
0
100
AcDbLine
10
-98.522639999999996
20
169.86561300000002
30
0
11
-204.35269000000002
21
169.86561300000002
31
0
0
LINE
5
109
100
AcDbEntity
8
0
100
AcDbLine
10
-204.35269000000002
20
169.86561300000002
30
0
11
-221.70934000000003
21
172.42334199999999
31
0
0
LINE
5
110
100
AcDbEntity
8
0
100
AcDbLine
10
-221.70934000000003
20
172.42334199999999
30
0
11
-221.81284000000002
21
172.435552
31
0
0
LINE
5
111
100
AcDbEntity
8
0
100
AcDbLine
10
-221.81284000000002
20
172.435552
30
0
11
-221.91914
21
172.44206700000004
31
0
0
LINE
5
112
100
AcDbEntity
8
0
100
AcDbLine
10
-221.91914
20
172.44206700000004
30
0
11
-222.02804
21
172.44281000000001
31
0
0
LINE
5
113
100
AcDbEntity
8
0
100
AcDbLine
10
-222.02804
20
172.44281000000001
30
0
11
-222.13944000000001
21
172.43759399999999
31
0
0
LINE
5
114
100
AcDbEntity
8
0
100
AcDbLine
10
-222.13944000000001
20
172.43759399999999
30
0
11
-222.25324000000001
21
172.42609400000003
31
0
0
LINE
5
115
100
AcDbEntity
8
0
100
AcDbLine
10
-222.25324000000001
20
172.42609400000003
30
0
11
-222.36913999999999
21
172.40780400000003
31
0
0
LINE
5
116
100
AcDbEntity
8
0
100
AcDbLine
10
-222.36913999999999
20
172.40780400000003
30
0
11
-222.48704000000004
21
172.38205400000001
31
0
0
LINE
5
117
100
AcDbEntity
8
0
100
AcDbLine
10
-222.48704000000004
20
172.38205400000001
30
0
11
-222.60684000000001
21
172.34797400000002
31
0
0
LINE
5
118
100
AcDbEntity
8
0
100
AcDbLine
10
-222.60684000000001
20
172.34797400000002
30
0
11
-222.72834000000003
21
172.30449400000001
31
0
0
LINE
5
119
100
AcDbEntity
8
0
100
AcDbLine
10
-222.72834000000003
20
172.30449400000001
30
0
11
-222.85154000000003
21
172.250394
31
0
0
LINE
5
120
100
AcDbEntity
8
0
100
AcDbLine
10
-222.85154000000003
20
172.250394
30
0
11
-222.97634000000002
21
172.184304
31
0
0
LINE
5
121
100
AcDbEntity
8
0
100
AcDbLine
10
-222.97634000000002
20
172.184304
30
0
11
-223.10274000000004
21
172.10474400000004
31
0
0
LINE
5
122
100
AcDbEntity
8
0
100
AcDbLine
10
-223.10274000000004
20
172.10474400000004
30
0
11
-223.23074000000003
21
172.01022399999999
31
0
0
LINE
5
123
100
AcDbEntity
8
0
100
AcDbLine
10
-223.23074000000003
20
172.01022399999999
30
0
11
-223.36034000000001
21
171.89932200000001
31
0
0
LINE
5
124
100
AcDbEntity
8
0
100
AcDbLine
10
-223.36034000000001
20
171.89932200000001
30
0
11
-223.49164000000002
21
171.77080200000003
31
0
0
LINE
5
125
100
AcDbEntity
8
0
100
AcDbLine
10
-223.49164000000002
20
171.77080200000003
30
0
11
-223.62464000000003
21
171.62378100000001
31
0
0
ARC
5
126
100
AcDbEntity
8
0
100
AcDbCircle
10
-151.4337031426459
20
109.87079099761826
30
0
40
94.99980599231111
210
0
220
0
230
1
100
AcDbArc
50
139.45592501126617
51
140.83722182017684
0
SPLINE
5
127
100
AcDbEntity
8
0
100
AcDbSpline
70
0
71
3
72
8
73
4
74
0
42
0.000000001
43
0.0000000001
44
0.0000000001
40
0
40
0
40
0
40
0
40
1
40
1
40
1
40
1
10
-225.09227000000004
20
169.86561300000002
30
0
10
-256.64992999999998
20
131.12616400000002
30
0
10
-252.80483599999999
20
74.562242999999995
30
0
10
-216.29486800000001
20
40.449885999999999
30
0
0
SPLINE
5
128
100
AcDbEntity
8
0
100
AcDbSpline
70
0
71
3
72
8
73
4
74
0
42
0.000000001
43
0.0000000001
44
0.0000000001
40
0
40
0
40
0
40
0
40
1
40
1
40
1
40
1
10
-216.29486800000001
20
40.449885999999999
30
0
10
-179.784899
20
6.3375259999999978
30
0
10
-123.09043800000001
20
6.3375259999999978
30
0
10
-86.580469000000008
20
40.449885999999999
30
0
0
SPLINE
5
129
100
AcDbEntity
8
0
100
AcDbSpline
70
0
71
3
72
8
73
4
74
0
42
0.000000001
43
0.0000000001
44
0.0000000001
40
0
40
0
40
0
40
0
40
1
40
1
40
1
40
1
10
-86.580469000000008
20
40.449885999999999
30
0
10
-50.070501000000007
20
74.562242999999995
30
0
10
-46.225407000000004
20
131.12616400000002
30
0
10
-77.783067000000003
20
169.86561300000002
30
0
0
ARC
5
130
100
AcDbEntity
8
0
100
AcDbCircle
10
-151.43742814974172
20
109.86579133143206
30
0
40
94.999702718674541
210
0
220
-0
230
1
100
AcDbArc
50
39.166718047985299
51
40.548092510269186
0
LINE
5
131
100
AcDbEntity
8
0
100
AcDbLine
10
-79.250900000000001
20
171.62377599999996
30
0
11
-79.383880000000005
21
171.77079700000002
31
0
0
LINE
5
132
100
AcDbEntity
8
0
100
AcDbLine
10
-79.383880000000005
20
171.77079700000002
30
0
11
-79.515159999999995
21
171.899317
31
0
0
LINE
5
133
100
AcDbEntity
8
0
100
AcDbLine
10
-79.515159999999995
20
171.899317
30
0
11
-79.644760000000019
21
172.01021900000001
31
0
0
LINE
5
134
100
AcDbEntity
8
0
100
AcDbLine
10
-79.644760000000019
20
172.01021900000001
30
0
11
-79.772729999999996
21
172.104739
31
0
0
LINE
5
135
100
AcDbEntity
8
0
100
AcDbLine
10
-79.772729999999996
20
172.104739
30
0
11
-79.899100000000004
21
172.18429900000001
31
0
0
LINE
5
136
100
AcDbEntity
8
0
100
AcDbLine
10
-79.899100000000004
20
172.18429900000001
30
0
11
-80.023870000000002
21
172.25038900000001
31
0
0
LINE
5
137
100
AcDbEntity
8
0
100
AcDbLine
10
-80.023870000000002
20
172.25038900000001
30
0
11
-80.147030000000001
21
172.30448899999999
31
0
0
LINE
5
138
100
AcDbEntity
8
0
100
AcDbLine
10
-80.147030000000001
20
172.30448899999999
30
0
11
-80.268530000000013
21
172.34796900000003
31
0
0
LINE
5
139
100
AcDbEntity
8
0
100
AcDbLine
10
-80.268530000000013
20
172.34796900000003
30
0
11
-80.388289999999998
21
172.38204999999999
31
0
0
LINE
5
140
100
AcDbEntity
8
0
100
AcDbLine
10
-191.41098906455801
20
128.365613
30
2.7755575615628914e-16
11
-111.46433093544201
21
128.365613
31
0
0
SPLINE
5
141
100
AcDbEntity
8
0
100
AcDbSpline
70
0
71
3
72
16
73
12
74
0
42
0.000000001
43
0.0000000001
44
0.0000000001
40
0
40
0
40
0
40
0
40
0.97661118346731957
40
0.97661118346731957
40
1.9532223669346385
40
1.9532223669346385
40
2.9298335504019568
40
2.9298335504019568
40
3.4812710179198021
40
3.4812710179198021
40
4.032708485437646
40
4.032708485437646
40
4.032708485437646
40
4.032708485437646
10
-86.482534240969983
20
102.41176085418914
30
0
10
-86.35832855124022
20
105.66476112551291
30
0
10
-86.870693624561014
20
108.91092107434875
30
0
10
-89.110886310076594
20
115.02412710769474
30
0
10
-90.817296459198502
20
117.83272761057134
30
0
10
-95.21064694917051
20
122.63774818770081
30
0
10
-97.855584464775461
20
124.58822964629775
30
0
10
-102.46240309880446
20
126.76099712468478
30
0
10
-104.2063149320601
20
127.35936024406828
30
0
10
-107.79367483806531
20
128.16289081294499
30
0
10
-109.62620604371585
20
128.36561299999997
30
0
10
-111.46433093544201
20
128.36561299999997
30
0
0
SPLINE
5
142
100
AcDbEntity
8
0
100
AcDbSpline
70
0
71
3
72
8
73
4
74
0
42
0.000000001
43
0.0000000001
44
0.0000000001
40
0.42476425268362467
40
0.42476425268362467
40
0.42476425268362467
40
0.42476425268362467
40
1
40
1
40
1
40
1
10
-86.482534240970011
20
102.41176085418822
30
0
10
-87.149237035373403
20
84.950528797874384
30
0
10
-94.829514201449285
20
67.904976712937142
30
0
10
-108.88061200000001
20
55.734087000000009
30
0
0
SPLINE
5
143
100
AcDbEntity
8
0
100
AcDbSpline
70
0
71
3
72
8
73
4
74
0
42
0.000000001
43
0.0000000001
44
0.0000000001
40
0
40
0
40
0
40
0
40
1
40
1
40
1
40
1
10
-108.88061200000001
20
55.734087000000009
30
0
10
-133.307289
20
34.575997000000001
30
0
10
-169.56803099999999
20
34.575997000000001
30
0
10
-193.99470800000003
20
55.734087000000009
30
0
0
SPLINE
5
144
100
AcDbEntity
8
0
100
AcDbSpline
70
0
71
3
72
8
73
4
74
0
42
0.000000001
43
0.0000000001
44
0.0000000001
40
0
40
0
40
0
40
0
40
0.57523574731637617
40
0.57523574731637617
40
0.57523574731637617
40
0.57523574731637617
10
-193.99470800000003
20
55.734087000000009
30
0
10
-208.04580579855076
20
67.904976712937156
30
0
10
-215.72608296462661
20
84.950528797874426
30
0
10
-216.39278575903001
20
102.41176085418827
30
0
0
SPLINE
5
145
100
AcDbEntity
8
0
100
AcDbSpline
70
0
71
3
72
16
73
12
74
0
42
0.000000001
43
0.0000000001
44
0.0000000001
40
0
40
0
40
0
40
0
40
0.97661118346732112
40
0.97661118346732112
40
1.9532223669346371
40
1.9532223669346371
40
2.9298335504019555
40
2.9298335504019555
40
3.4812710179197985
40
3.4812710179197985
40
4.032708485437638
40
4.032708485437638
40
4.032708485437638
40
4.032708485437638
10
-191.41098906455801
20
128.365613
30
1.0547118733938987e-14
10
-194.66635967611577
20
128.365613
30
1.0547118733938987e-14
10
-197.89060717031293
20
127.72976673088436
30
9.7144514654701197e-15
10
-203.91388947736732
20
125.257961414137
30
9.7144514654701197e-15
10
-206.6553384284266
20
123.44563417257135
30
9.7144514654701197e-15
10
-211.28923604356433
20
118.87215145512336
30
9.7144514654701197e-15
10
-213.1373821207728
20
116.15472096676049
30
9.7144514654701197e-15
10
-215.13279858357259
20
111.46835674895149
30
9.7144514654701197e-15
10
-215.66418865371872
20
109.70288471627654
30
9.7144514654701197e-15
10
-216.33026170833205
20
106.08747890831376
30
9.7144514654701197e-15
10
-216.46291773391968
20
104.24854734795524
30
-3.3306690738754696e-15
10
-216.39278575903003
20
102.41176085418921
30
-3.3306690738754696e-15
0
CIRCLE
5
146
100
AcDbEntity
8
0
100
AcDbCircle
10
-85.147808351283999
20
166.02212399980002
30
0
40
0.45000000000000007
210
0
220
0
230
1
0
CIRCLE
5
147
100
AcDbEntity
8
0
100
AcDbCircle
10
-83.563154175642012
20
164.0370619999
30
0
40
0.45000000000000007
210
0
220
0
230
1
0
CIRCLE
5
148
100
AcDbEntity
8
0
100
AcDbCircle
10
-81.978500000000011
20
162.05200000000002
30
0
40
0.45000000000000007
210
0
220
0
230
1
0
CIRCLE
5
149
100
AcDbEntity
8
0
100
AcDbCircle
10
-96.480000000000018
20
164.69
30
0
40
2.1499999999999999
210
0
220
0
230
1
0
CIRCLE
5
150
100
AcDbEntity
8
0
100
AcDbCircle
10
-67.364610589335996
20
131.69778686640001
30
0
40
0.45000000000000007
210
0
220
0
230
1
0
CIRCLE
5
151
100
AcDbEntity
8
0
100
AcDbCircle
10
-113.919
20
163.38550000000001
30
0
40
0.45000000000000007
210
0
220
0
230
1
0
CIRCLE
5
152
100
AcDbEntity
8
0
100
AcDbCircle
10
-116.459
20
163.38550000000001
30
0
40
0.45000000000000007
210
0
220
0
230
1
0
CIRCLE
5
153
100
AcDbEntity
8
0
100
AcDbCircle
10
-118.99900000000001
20
163.38550000000001
30
0
40
0.45000000000000007
210
0
220
0
230
1
0
CIRCLE
5
154
100
AcDbEntity
8
0
100
AcDbCircle
10
-148.9075
20
163.38550000000001
30
0
40
0.45000000000000007
210
0
220
0
230
1
0
CIRCLE
5
155
100
AcDbEntity
8
0
100
AcDbCircle
10
-111.8
20
148
30
0
40
0.5
210
0
220
0
230
1
0
CIRCLE
5
156
100
AcDbEntity
8
0
100
AcDbCircle
10
-114.3
20
148
30
0
40
0.5
210
0
220
0
230
1
0
CIRCLE
5
157
100
AcDbEntity
8
0
100
AcDbCircle
10
-116.8
20
148
30
0
40
0.5
210
0
220
0
230
1
0
CIRCLE
5
158
100
AcDbEntity
8
0
100
AcDbCircle
10
-144.30000000000001
20
147.5
30
0
40
0.42500000000000004
210
0
220
0
230
1
0
CIRCLE
5
159
100
AcDbEntity
8
0
100
AcDbCircle
10
-144.30000000000001
20
145.5
30
0
40
0.42500000000000004
210
0
220
0
230
1
0
CIRCLE
5
160
100
AcDbEntity
8
0
100
AcDbCircle
10
-146.30000000000001
20
147.5
30
0
40
0.42500000000000004
210
0
220
0
230
1
0
CIRCLE
5
161
100
AcDbEntity
8
0
100
AcDbCircle
10
-148.30000000000001
20
147.5
30
0
40
0.42500000000000004
210
0
220
0
230
1
0
CIRCLE
5
162
100
AcDbEntity
8
0
100
AcDbCircle
10
-150.30000000000001
20
147.5
30
0
40
0.42500000000000004
210
0
220
0
230
1
0
CIRCLE
5
163
100
AcDbEntity
8
0
100
AcDbCircle
10
-146.30000000000001
20
145.5
30
0
40
0.42500000000000004
210
0
220
0
230
1
0
CIRCLE
5
164
100
AcDbEntity
8
0
100
AcDbCircle
10
-148.30000000000001
20
145.5
30
0
40
0.42500000000000004
210
0
220
0
230
1
0
CIRCLE
5
165
100
AcDbEntity
8
0
100
AcDbCircle
10
-150.30000000000001
20
145.5
30
0
40
0.42500000000000004
210
0
220
0
230
1
0
CIRCLE
5
166
100
AcDbEntity
8
0
100
AcDbCircle
10
-151.44
20
134.87
30
0
40
2.1499999999999999
210
0
220
0
230
1
0
CIRCLE
5
167
100
AcDbEntity
8
0
100
AcDbCircle
10
-66.797555294668001
20
129.22189343319999
30
0
40
0.45000000000000007
210
0
220
0
230
1
0
CIRCLE
5
168
100
AcDbEntity
8
0
100
AcDbCircle
10
-66.230500000000006
20
126.746
30
0
40
0.45000000000000007
210
0
220
0
230
1
0
CIRCLE
5
169
100
AcDbEntity
8
0
100
AcDbCircle
10
-76.480000000000004
20
130.03999999999999
30
0
40
2.1499999999999999
210
0
220
0
230
1
0
CIRCLE
5
170
100
AcDbEntity
8
0
100
AcDbCircle
10
-151.44749999999999
20
163.38550000000001
30
0
40
0.45000000000000007
210
0
220
0
230
1
0
CIRCLE
5
171
100
AcDbEntity
8
0
100
AcDbCircle
10
-153.98750000000001
20
163.38550000000001
30
0
40
0.45000000000000007
210
0
220
0
230
1
0
CIRCLE
5
172
100
AcDbEntity
8
0
100
AcDbCircle
10
-183.89599999999999
20
163.38550000000001
30
0
40
0.45000000000000007
210
0
220
0
230
1
0
CIRCLE
5
173
100
AcDbEntity
8
0
100
AcDbCircle
10
-186.43600000000004
20
163.38550000000001
30
0
40
0.45000000000000007
210
0
220
0
230
1
0
CIRCLE
5
174
100
AcDbEntity
8
0
100
AcDbCircle
10
-188.976
20
163.38550000000001
30
0
40
0.45000000000000007
210
0
220
0
230
1
0
CIRCLE
5
175
100
AcDbEntity
8
0
100
AcDbCircle
10
-152.30000000000001
20
147.5
30
0
40
0.42500000000000004
210
0
220
0
230
1
0
CIRCLE
5
176
100
AcDbEntity
8
0
100
AcDbCircle
10
-154.30000000000001
20
147.5
30
0
40
0.42500000000000004
210
0
220
0
230
1
0
CIRCLE
5
177
100
AcDbEntity
8
0
100
AcDbCircle
10
-156.30000000000001
20
147.5
30
0
40
0.42500000000000004
210
0
220
0
230
1
0
CIRCLE
5
178
100
AcDbEntity
8
0
100
AcDbCircle
10
-152.30000000000001
20
145.5
30
0
40
0.42500000000000004
210
0
220
0
230
1
0
CIRCLE
5
179
100
AcDbEntity
8
0
100
AcDbCircle
10
-154.30000000000001
20
145.5
30
0
40
0.42500000000000004
210
0
220
0
230
1
0
CIRCLE
5
180
100
AcDbEntity
8
0
100
AcDbCircle
10
-156.30000000000001
20
145.5
30
0
40
0.42500000000000004
210
0
220
0
230
1
0
CIRCLE
5
181
100
AcDbEntity
8
0
100
AcDbCircle
10
-158.30000000000001
20
147.5
30
0
40
0.42500000000000004
210
0
220
0
230
1
0
CIRCLE
5
182
100
AcDbEntity
8
0
100
AcDbCircle
10
-158.30000000000001
20
145.5
30
0
40
0.42500000000000004
210
0
220
0
230
1
0
CIRCLE
5
183
100
AcDbEntity
8
0
100
AcDbCircle
10
-206.38000000000002
20
164.68000000000001
30
0
40
2.1499999999999999
210
0
220
0
230
1
0
CIRCLE
5
184
100
AcDbEntity
8
0
100
AcDbCircle
10
-217.77960000000002
20
165.96360000000001
30
0
40
0.45000000000000007
210
0
220
0
230
1
0
CIRCLE
5
185
100
AcDbEntity
8
0
100
AcDbCircle
10
-219.36425417564004
20
163.97853800000001
30
0
40
0.45000000000000007
210
0
220
0
230
1
0
CIRCLE
5
186
100
AcDbEntity
8
0
100
AcDbCircle
10
-220.94890835128001
20
161.9934760001
30
0
40
0.45000000000000007
210
0
220
0
230
1
0
CIRCLE
5
187
100
AcDbEntity
8
0
100
AcDbCircle
10
-235.50880000000004
20
131.62280000000004
30
0
40
0.45000000000000007
210
0
220
0
230
1
0
CIRCLE
5
188
100
AcDbEntity
8
0
100
AcDbCircle
10
-226.40000000000001
20
130.03999999999999
30
0
40
2.1499999999999999
210
0
220
0
230
1
0
CIRCLE
5
189
100
AcDbEntity
8
0
100
AcDbCircle
10
-236.07585529466002
20
129.14690656670001
30
0
40
0.45000000000000007
210
0
220
0
230
1
0
CIRCLE
5
190
100
AcDbEntity
8
0
100
AcDbCircle
10
-236.64291058933003
20
126.67101313350001
30
0
40
0.45000000000000007
210
0
220
0
230
1
0
CIRCLE
5
191
100
AcDbEntity
8
0
100
AcDbCircle
10
-66.239389410664003
20
93.089786866490002
30
0
40
0.45000000000000007
210
0
220
0
230
1
0
CIRCLE
5
192
100
AcDbEntity
8
0
100
AcDbCircle
10
-66.806444705331998
20
90.613893433240008
30
0
40
0.45000000000000007
210
0
220
0
230
1
0
CIRCLE
5
193
100
AcDbEntity
8
0
100
AcDbCircle
10
-67.373500000000007
20
88.138000000000005
30
0
40
0.45000000000000007
210
0
220
0
230
1
0
CIRCLE
5
194
100
AcDbEntity
8
0
100
AcDbCircle
10
-81.920691648716002
20
57.75462399988001
30
0
40
0.45000000000000007
210
0
220
0
230
1
0
CIRCLE
5
195
100
AcDbEntity
8
0
100
AcDbCircle
10
-83.505345824358002
20
55.769561999940009
30
0
40
0.45000000000000007
210
0
220
0
230
1
0
CIRCLE
5
196
100
AcDbEntity
8
0
100
AcDbCircle
10
-85.090000000000003
20
53.784500000000008
30
0
40
0.45000000000000007
210
0
220
0
230
1
0
CIRCLE
5
197
100
AcDbEntity
8
0
100
AcDbCircle
10
-111.43702873168002
20
32.746488149699999
30
0
40
0.45000000000000007
210
0
220
0
230
1
0
CIRCLE
5
198
100
AcDbEntity
8
0
100
AcDbCircle
10
-113.72576436584001
20
31.64499407485
30
0
40
0.45000000000000007
210
0
220
0
230
1
0
CIRCLE
5
199
100
AcDbEntity
8
0
100
AcDbCircle
10
-116.0145
20
30.543500000000002
30
0
40
0.45000000000000007
210
0
220
0
230
1
0
CIRCLE
5
200
100
AcDbEntity
8
0
100
AcDbCircle
10
-131.43000000000001
20
34.870000000000005
30
0
40
2.1499999999999999
210
0
220
0
230
1
0
CIRCLE
5
201
100
AcDbEntity
8
0
100
AcDbCircle
10
-148.86940000000004
20
23.0505
30
0
40
0.45000000000000007
210
0
220
0
230
1
0
CIRCLE
5
202
100
AcDbEntity
8
0
100
AcDbCircle
10
-151.40940000000001
20
23.0505
30
0
40
0.45000000000000007
210
0
220
0
230
1
0
CIRCLE
5
203
100
AcDbEntity
8
0
100
AcDbCircle
10
-236.65180000000004
20
92.989400000000003
30
0
40
0.45000000000000007
210
0
220
0
230
1
0
CIRCLE
5
204
100
AcDbEntity
8
0
100
AcDbCircle
10
-236.08474470533
20
90.513506566749996
30
0
40
0.45000000000000007
210
0
220
0
230
1
0
CIRCLE
5
205
100
AcDbEntity
8
0
100
AcDbCircle
10
-235.51768941066001
20
88.037613133500003
30
0
40
0.45000000000000007
210
0
220
0
230
1
0
CIRCLE
5
206
100
AcDbEntity
8
0
100
AcDbCircle
10
-171.44999999999999
20
34.859999999999999
30
0
40
2.1499999999999999
210
0
220
0
230
1
0
CIRCLE
5
207
100
AcDbEntity
8
0
100
AcDbCircle
10
-153.9494
20
23.0505
30
0
40
0.45000000000000007
210
0
220
0
230
1
0
CIRCLE
5
208
100
AcDbEntity
8
0
100
AcDbCircle
10
-191.36359999999999
20
32.71520000000001
30
0
40
0.45000000000000007
210
0
220
0
230
1
0
CIRCLE
5
209
100
AcDbEntity
8
0
100
AcDbCircle
10
-186.78612873168004
20
30.512211850290001
30
0
40
0.45000000000000007
210
0
220
0
230
1
0
CIRCLE
5
210
100
AcDbEntity
8
0
100
AcDbCircle
10
-189.07486436584003
20
31.613705925140003
30
0
40
0.45000000000000007
210
0
220
0
230
1
0
CIRCLE
5
211
100
AcDbEntity
8
0
100
AcDbCircle
10
-220.8784
20
57.683400000000006
30
0
40
0.45000000000000007
210
0
220
0
230
1
0
CIRCLE
5
212
100
AcDbEntity
8
0
100
AcDbCircle
10
-219.29374582435003
20
55.698338000050001
30
0
40
0.45000000000000007
210
0
220
0
230
1
0
CIRCLE
5
213
100
AcDbEntity
8
0
100
AcDbCircle
10
-217.70909164871
20
53.71327600011
30
0
40
0.45000000000000007
210
0
220
0
230
1
0
ENDSEC
0
SECTION
2
OBJECTS
0
DICTIONARY
5
C
100
AcDbDictionary
3
ACAD_GROUP
350
D
3
ACAD_MLINESTYLE
350
17
0
DICTIONARY
5
D
100
AcDbDictionary
0
DICTIONARY
5
1A
330
C
100
AcDbDictionary
0
DICTIONARY
5
17
100
AcDbDictionary
0
ENDSEC
0
EOF
