M48
; DRILL file {KiCad 6.0.2-378541a8eb~116~ubuntu20.04.1} date Fri 27 Jan 2023 04:36:06 PM CET
; FORMAT={-:-/ absolute / metric / decimal}
; #@! TF.CreationDate,2023-01-27T16:36:06+01:00
; #@! TF.GenerationSoftware,Kicad,Pcbnew,6.0.2-378541a8eb~116~ubuntu20.04.1
; #@! TF.FileFunction,Plated,1,2,PTH
FMAT,2
METRIC
; #@! TA.AperFunction,Plated,PTH,ViaDrill
T1C0.200
; #@! TA.AperFunction,Plated,PTH,ViaDrill
T2C0.300
; #@! TA.AperFunction,Plated,PTH,ComponentDrill
T3C0.300
; #@! TA.AperFunction,Plated,PTH,ViaDrill
T4C0.400
; #@! TA.AperFunction,Plated,PTH,ComponentDrill
T5C1.000
; #@! TA.AperFunction,Plated,PTH,ComponentDrill
T6C1.270
%
G90
G05
T1
X63.0Y-98.026
X65.6Y-95.9
X80.826Y-95.7
X81.8Y-91.45
X89.13Y-99.927
X90.75Y-103.0
X91.25Y-99.95
X97.3Y-103.45
X106.0Y-103.6
T2
X70.4Y-98.0
X72.95Y-96.45
X74.7Y-103.0
X75.2Y-100.9
X76.2Y-96.5
X77.95Y-96.5
X79.5Y-105.8
X80.6Y-98.8
X89.675Y-99.175
X92.6Y-102.55
X101.8Y-99.1
T3
X88.39Y-101.023
X88.39Y-101.983
X89.25Y-101.503
X90.11Y-101.023
X90.11Y-101.983
T4
X97.75Y-87.1
X105.35Y-87.1
X105.6Y-110.4
T5
X36.8Y-90.05
X36.8Y-99.0
X39.3Y-90.05
X39.3Y-99.0
X51.1Y-115.335
X51.1Y-117.875
X53.64Y-115.335
X53.64Y-117.875
X56.18Y-115.335
X56.18Y-117.875
X58.72Y-115.335
X58.72Y-117.875
X61.26Y-115.335
X61.26Y-117.875
X63.8Y-115.335
X63.8Y-117.875
X69.55Y-87.8
X72.05Y-87.8
X74.55Y-87.8
X76.15Y-107.525
X76.15Y-110.025
X76.15Y-112.525
X83.3Y-115.335
X83.3Y-117.875
X85.84Y-115.335
X85.84Y-117.875
X88.38Y-115.335
X88.38Y-117.875
X90.92Y-115.335
X90.92Y-117.875
X93.46Y-115.335
X93.46Y-117.875
X96.0Y-115.335
X96.0Y-117.875
X101.0Y-107.525
X101.0Y-110.025
X101.0Y-112.525
X110.4Y-87.3
X110.4Y-89.84
X110.4Y-92.38
X110.4Y-94.92
X110.4Y-97.46
X110.4Y-100.0
X112.94Y-87.3
X112.94Y-89.84
X112.94Y-92.38
X112.94Y-94.92
X112.94Y-97.46
X112.94Y-100.0
T6
X45.073Y-98.71
X48.527Y-91.09
T0
M30
