G04 #@! TF.GenerationSoftware,KiCad,Pcbnew,6.0.2-378541a8eb~116~ubuntu20.04.1*
G04 #@! TF.CreationDate,2023-01-27T16:36:08+01:00*
G04 #@! TF.ProjectId,BUCKY_POWER,4255434b-595f-4504-9f57-45522e6b6963,rev?*
G04 #@! TF.SameCoordinates,Original*
G04 #@! TF.FileFunction,Soldermask,Bot*
G04 #@! TF.FilePolarity,Negative*
%FSLAX46Y46*%
G04 Gerber Fmt 4.6, Leading zero omitted, Abs format (unit mm)*
G04 Created by KiCad (PCBNEW 6.0.2-378541a8eb~116~ubuntu20.04.1) date 2023-01-27 16:36:08*
%MOMM*%
%LPD*%
G01*
G04 APERTURE LIST*
G04 Aperture macros list*
%AMRoundRect*
0 Rectangle with rounded corners*
0 $1 Rounding radius*
0 $2 $3 $4 $5 $6 $7 $8 $9 X,Y pos of 4 corners*
0 Add a 4 corners polygon primitive as box body*
4,1,4,$2,$3,$4,$5,$6,$7,$8,$9,$2,$3,0*
0 Add four circle primitives for the rounded corners*
1,1,$1+$1,$2,$3*
1,1,$1+$1,$4,$5*
1,1,$1+$1,$6,$7*
1,1,$1+$1,$8,$9*
0 Add four rect primitives between the rounded corners*
20,1,$1+$1,$2,$3,$4,$5,0*
20,1,$1+$1,$4,$5,$6,$7,0*
20,1,$1+$1,$6,$7,$8,$9,0*
20,1,$1+$1,$8,$9,$2,$3,0*%
G04 Aperture macros list end*
%ADD10C,1.500000*%
%ADD11RoundRect,0.250000X0.600000X0.750000X-0.600000X0.750000X-0.600000X-0.750000X0.600000X-0.750000X0*%
%ADD12O,1.700000X2.000000*%
%ADD13C,3.784600*%
%ADD14C,3.000000*%
%ADD15R,1.700000X1.700000*%
%ADD16O,1.700000X1.700000*%
G04 APERTURE END LIST*
D10*
X69550000Y-87800000D03*
X72050000Y-87800000D03*
X74550000Y-87800000D03*
X101000000Y-112525000D03*
X101000000Y-110025000D03*
X101000000Y-107525000D03*
X76150000Y-112525000D03*
X76150000Y-110025000D03*
X76150000Y-107525000D03*
D11*
X39300000Y-90050000D03*
D12*
X36800000Y-90050000D03*
D13*
X46800000Y-94900000D03*
D14*
X48527200Y-91090000D03*
X45072800Y-98710000D03*
D11*
X39300000Y-99000000D03*
D12*
X36800000Y-99000000D03*
D15*
X63800000Y-117875000D03*
D16*
X63800000Y-115335000D03*
X61260000Y-117875000D03*
X61260000Y-115335000D03*
X58720000Y-117875000D03*
X58720000Y-115335000D03*
X56180000Y-117875000D03*
X56180000Y-115335000D03*
X53640000Y-117875000D03*
X53640000Y-115335000D03*
X51100000Y-117875000D03*
X51100000Y-115335000D03*
D15*
X110400000Y-100000000D03*
D16*
X112940000Y-100000000D03*
X110400000Y-97460000D03*
X112940000Y-97460000D03*
X110400000Y-94920000D03*
X112940000Y-94920000D03*
X110400000Y-92380000D03*
X112940000Y-92380000D03*
X110400000Y-89840000D03*
X112940000Y-89840000D03*
X110400000Y-87300000D03*
X112940000Y-87300000D03*
D15*
X96000000Y-117875000D03*
D16*
X96000000Y-115335000D03*
X93460000Y-117875000D03*
X93460000Y-115335000D03*
X90920000Y-117875000D03*
X90920000Y-115335000D03*
X88380000Y-117875000D03*
X88380000Y-115335000D03*
X85840000Y-117875000D03*
X85840000Y-115335000D03*
X83300000Y-117875000D03*
X83300000Y-115335000D03*
M02*
