G04 #@! TF.GenerationSoftware,KiCad,Pcbnew,6.0.2-378541a8eb~116~ubuntu20.04.1*
G04 #@! TF.CreationDate,2023-01-27T16:36:07+01:00*
G04 #@! TF.ProjectId,BUCKY_POWER,4255434b-595f-4504-9f57-45522e6b6963,rev?*
G04 #@! TF.SameCoordinates,Original*
G04 #@! TF.FileFunction,Legend,Top*
G04 #@! TF.FilePolarity,Positive*
%FSLAX46Y46*%
G04 Gerber Fmt 4.6, Leading zero omitted, Abs format (unit mm)*
G04 Created by KiCad (PCBNEW 6.0.2-378541a8eb~116~ubuntu20.04.1) date 2023-01-27 16:36:07*
%MOMM*%
%LPD*%
G01*
G04 APERTURE LIST*
G04 Aperture macros list*
%AMRoundRect*
0 Rectangle with rounded corners*
0 $1 Rounding radius*
0 $2 $3 $4 $5 $6 $7 $8 $9 X,Y pos of 4 corners*
0 Add a 4 corners polygon primitive as box body*
4,1,4,$2,$3,$4,$5,$6,$7,$8,$9,$2,$3,0*
0 Add four circle primitives for the rounded corners*
1,1,$1+$1,$2,$3*
1,1,$1+$1,$4,$5*
1,1,$1+$1,$6,$7*
1,1,$1+$1,$8,$9*
0 Add four rect primitives between the rounded corners*
20,1,$1+$1,$2,$3,$4,$5,0*
20,1,$1+$1,$4,$5,$6,$7,0*
20,1,$1+$1,$6,$7,$8,$9,0*
20,1,$1+$1,$8,$9,$2,$3,0*%
G04 Aperture macros list end*
%ADD10C,0.150000*%
%ADD11C,0.254000*%
%ADD12C,0.200000*%
%ADD13C,0.300000*%
%ADD14C,0.130000*%
%ADD15C,0.120000*%
%ADD16C,0.100000*%
%ADD17RoundRect,0.150000X-0.150000X0.587500X-0.150000X-0.587500X0.150000X-0.587500X0.150000X0.587500X0*%
%ADD18RoundRect,0.250000X-0.450000X0.350000X-0.450000X-0.350000X0.450000X-0.350000X0.450000X0.350000X0*%
%ADD19RoundRect,0.250000X0.350000X0.450000X-0.350000X0.450000X-0.350000X-0.450000X0.350000X-0.450000X0*%
%ADD20R,1.000000X3.000000*%
%ADD21R,1.200000X2.200000*%
%ADD22R,5.800000X6.400000*%
%ADD23RoundRect,0.243750X0.243750X0.456250X-0.243750X0.456250X-0.243750X-0.456250X0.243750X-0.456250X0*%
%ADD24RoundRect,0.243750X-0.243750X-0.456250X0.243750X-0.456250X0.243750X0.456250X-0.243750X0.456250X0*%
%ADD25RoundRect,0.250000X-0.350000X-0.450000X0.350000X-0.450000X0.350000X0.450000X-0.350000X0.450000X0*%
%ADD26RoundRect,0.243750X-0.456250X0.243750X-0.456250X-0.243750X0.456250X-0.243750X0.456250X0.243750X0*%
%ADD27R,0.900000X1.200000*%
%ADD28RoundRect,0.250000X0.450000X-0.350000X0.450000X0.350000X-0.450000X0.350000X-0.450000X-0.350000X0*%
%ADD29RoundRect,0.250000X-0.650000X0.412500X-0.650000X-0.412500X0.650000X-0.412500X0.650000X0.412500X0*%
%ADD30RoundRect,0.150000X0.150000X-0.825000X0.150000X0.825000X-0.150000X0.825000X-0.150000X-0.825000X0*%
%ADD31C,1.500000*%
%ADD32R,0.280000X0.850000*%
%ADD33R,0.700000X0.280000*%
%ADD34R,2.400000X1.650000*%
%ADD35R,1.310000X0.450000*%
%ADD36R,2.650000X4.000000*%
%ADD37RoundRect,0.250000X-0.475000X0.337500X-0.475000X-0.337500X0.475000X-0.337500X0.475000X0.337500X0*%
%ADD38RoundRect,0.250000X0.550000X-1.500000X0.550000X1.500000X-0.550000X1.500000X-0.550000X-1.500000X0*%
%ADD39RoundRect,0.243750X0.456250X-0.243750X0.456250X0.243750X-0.456250X0.243750X-0.456250X-0.243750X0*%
%ADD40RoundRect,0.250000X0.600000X0.750000X-0.600000X0.750000X-0.600000X-0.750000X0.600000X-0.750000X0*%
%ADD41O,1.700000X2.000000*%
%ADD42C,3.784600*%
%ADD43C,3.000000*%
%ADD44R,1.700000X1.700000*%
%ADD45O,1.700000X1.700000*%
G04 APERTURE END LIST*
D10*
X40900053Y-107562260D02*
X40941840Y-107521976D01*
X47552988Y-109018694D02*
X47476578Y-109069976D01*
X39756153Y-111971639D02*
X39807075Y-112043162D01*
X43695066Y-114356990D02*
X43748832Y-114334625D01*
X39995940Y-107372936D02*
X39950544Y-107432813D01*
X42994344Y-113879099D02*
X42998493Y-113879099D01*
X38575443Y-111019052D02*
X38608743Y-111153170D01*
X47010378Y-107931503D02*
X47107848Y-107922125D01*
X44471244Y-113575736D02*
X44400000Y-113600000D01*
X41936565Y-109841645D02*
X41947419Y-109842770D01*
X46652808Y-107918111D02*
X46670358Y-107926562D01*
X45988608Y-106124906D02*
X46094448Y-106213826D01*
X42760542Y-113587265D02*
X42744378Y-113579345D01*
X46035948Y-112599362D02*
X46034688Y-112608785D01*
X40741500Y-108730127D02*
X40723293Y-108728327D01*
X41247750Y-107234606D02*
X41279394Y-107206346D01*
X46057998Y-112773233D02*
X46092198Y-112862396D01*
X39220752Y-111744434D02*
X39319338Y-111734327D01*
X41418012Y-106302566D02*
X41397069Y-106243256D01*
X46528608Y-107777198D02*
X46579728Y-107842826D01*
X42989844Y-112440089D02*
X42979980Y-112470995D01*
X47118288Y-109321094D02*
X47109018Y-109338284D01*
X42761280Y-113590820D02*
X42760542Y-113587265D01*
X42034278Y-110007578D02*
X42006882Y-110040473D01*
X38813718Y-108009812D02*
X38748342Y-108124850D01*
X45409125Y-113863961D02*
X45391116Y-113862989D01*
X41823876Y-109953560D02*
X41825001Y-109942769D01*
X44400000Y-113600000D02*
X44350437Y-113617289D01*
X40173195Y-106902776D02*
X40194732Y-106988096D01*
X43297752Y-113120075D02*
X43297266Y-113117627D01*
X39414738Y-111729296D02*
X39502488Y-111735245D01*
X39608301Y-111783350D02*
X39651465Y-111833147D01*
X43467429Y-113530475D02*
X43494294Y-113555225D01*
X47656758Y-110830763D02*
X47663238Y-110917334D01*
X38656839Y-108372998D02*
X38646831Y-108402977D01*
X43316553Y-113218157D02*
X43303125Y-113144438D01*
X46213248Y-113283686D02*
X46205958Y-113310452D01*
X44238531Y-109135208D02*
X44271876Y-109129736D01*
X41920995Y-113629538D02*
X41956302Y-113640032D01*
X42672117Y-113520359D02*
X42689406Y-113440385D01*
X46584588Y-108507611D02*
X46663698Y-108749315D01*
X42071529Y-110979587D02*
X42104874Y-110974124D01*
X41363130Y-113473775D02*
X41382381Y-113470310D01*
X40098828Y-106722956D02*
X40138914Y-106813586D01*
X42958056Y-113152097D02*
X42937743Y-113227049D01*
X44748390Y-112571633D02*
X45059619Y-112353608D01*
X42820365Y-112896434D02*
X42848391Y-112895111D01*
X44281200Y-113638673D02*
X44226705Y-113654990D01*
X43413663Y-113334419D02*
X43424949Y-113412215D01*
X40817325Y-106975406D02*
X41009178Y-106828796D01*
X40002537Y-113290040D02*
X40047555Y-113364362D01*
X38748342Y-108124850D02*
X38696439Y-108252920D01*
X42017916Y-111157121D02*
X41997657Y-111119384D01*
X41935791Y-110066258D02*
X41925000Y-110065187D01*
X41996289Y-112812545D02*
X41751561Y-112707326D01*
X43151466Y-112842677D02*
X43216401Y-112816064D01*
X39009819Y-109192826D02*
X39077337Y-109249220D01*
X38567964Y-110800928D02*
X38560692Y-110887499D01*
X42929157Y-113871773D02*
X42929643Y-113874365D01*
X44794830Y-113051126D02*
X44533974Y-113170799D01*
X41191842Y-107285816D02*
X41247750Y-107234606D01*
X39821925Y-107610887D02*
X39770454Y-107682221D01*
X43005765Y-113032469D02*
X43015863Y-113038184D01*
X46796268Y-110083502D02*
X46759728Y-110379296D01*
X44973525Y-113555558D02*
X44899365Y-113508245D01*
X46231518Y-110455319D02*
X46276158Y-110153270D01*
X40683738Y-113829482D02*
X40768014Y-113850200D01*
X44994189Y-113571434D02*
X44499117Y-113179484D01*
X41870649Y-113220164D02*
X41890764Y-113315285D01*
X44304438Y-109348823D02*
X44271093Y-109354349D01*
X43065678Y-113881349D02*
X43112064Y-113886371D01*
X42379689Y-114326858D02*
X42394341Y-114326858D01*
X39122166Y-110337698D02*
X39112788Y-110354834D01*
X39543555Y-109861427D02*
X39543555Y-109789265D01*
X39890766Y-112164500D02*
X39890766Y-112164500D01*
X43807566Y-112303712D02*
X43792869Y-112303712D01*
X42996576Y-114106007D02*
X42999852Y-114130865D01*
X47622468Y-108522749D02*
X47655768Y-108656939D01*
X42047418Y-109965188D02*
X42047418Y-109965188D01*
X38949168Y-111747071D02*
X39031302Y-111756638D01*
X47187138Y-111783395D02*
X47095158Y-111779984D01*
X41865474Y-109867385D02*
X41903220Y-109847126D01*
X39142137Y-110060165D02*
X39140967Y-110150687D01*
X43303215Y-113692970D02*
X43333302Y-113628764D01*
X42006882Y-110040473D02*
X41969145Y-110060732D01*
X47583948Y-108402401D02*
X47594118Y-108432272D01*
X44707224Y-108482663D02*
X44675625Y-108470648D01*
X40048293Y-107302376D02*
X39995940Y-107372936D01*
X47670438Y-108788420D02*
X47663238Y-108874946D01*
X42665916Y-113549762D02*
X42666402Y-113547026D01*
X43251024Y-113114396D02*
X43239504Y-113116412D01*
X43382127Y-113013965D02*
X43393404Y-113091752D01*
X40644732Y-111834173D02*
X40456686Y-111576512D01*
X47107848Y-107922125D02*
X47199828Y-107919290D01*
X42805074Y-112908395D02*
X42806154Y-112904588D01*
X40176075Y-108632657D02*
X40307862Y-108351272D01*
X38759619Y-109041311D02*
X38843994Y-109091009D01*
X41345067Y-107141006D02*
X41379825Y-107081876D01*
X43403565Y-113213090D02*
X43407381Y-113270357D01*
X41903220Y-109847126D02*
X41936565Y-109841645D01*
X46911828Y-107941601D02*
X47010378Y-107931503D01*
X39140274Y-109415963D02*
X39143019Y-109499078D01*
X47269308Y-111774359D02*
X47187138Y-111783395D01*
X42215718Y-111097658D02*
X42215718Y-111097658D01*
X47153748Y-110426762D02*
X47221248Y-110483147D01*
X38666163Y-108342821D02*
X38656839Y-108372998D01*
X46324848Y-112185983D02*
X46324848Y-112185983D01*
X46644168Y-107913962D02*
X46652808Y-107918111D01*
X41304981Y-107184566D02*
X41345067Y-107141006D01*
X44782869Y-108274457D02*
X44815818Y-108301862D01*
X40047555Y-113364362D02*
X40136763Y-113462111D01*
X42136176Y-109022213D02*
X42294576Y-109214552D01*
X39939402Y-109827101D02*
X39954981Y-109522712D01*
X41650680Y-113538377D02*
X41733489Y-113566214D01*
X43238424Y-113881835D02*
X43242087Y-113859038D01*
X42983886Y-112828124D02*
X42986127Y-112828124D01*
X39902781Y-112180124D02*
X39934569Y-112221974D01*
X46054938Y-107007356D02*
X46050078Y-107067116D01*
X40861965Y-112076174D02*
X40804743Y-112018547D01*
X43004928Y-112916207D02*
X43005765Y-112923002D01*
X40794429Y-105810536D02*
X40709865Y-105830426D01*
X41391705Y-113468600D02*
X41421477Y-113473235D01*
X47334738Y-107946821D02*
X47349858Y-107956739D01*
X44157513Y-112849760D02*
X44418405Y-112745945D01*
X45185457Y-107421716D02*
X45119190Y-107358446D01*
X41853315Y-113608298D02*
X41871774Y-113614985D01*
X45369192Y-107599799D02*
X45368067Y-107599178D01*
X40119186Y-112842722D02*
X40078515Y-112933109D01*
X42974562Y-112508984D02*
X42972951Y-112543022D01*
X41993319Y-111075248D02*
X41994381Y-111064403D01*
X41992194Y-111086039D02*
X41993319Y-111075248D01*
X44825439Y-106866506D02*
X44822955Y-106780106D01*
X39930276Y-108090569D02*
X40044882Y-107879348D01*
X42910590Y-113770460D02*
X42922650Y-113846924D01*
X41217915Y-113554937D02*
X41717136Y-113133251D01*
X43193262Y-114229883D02*
X43178025Y-114207221D01*
X42933252Y-114181985D02*
X42916557Y-114174461D01*
X44468751Y-109596674D02*
X44716656Y-109897661D01*
X42202587Y-111140039D02*
X42175191Y-111172952D01*
X38870454Y-107943995D02*
X38813718Y-108009812D01*
X43248981Y-113829095D02*
X43273092Y-113757176D01*
X46101018Y-107179616D02*
X46147278Y-107248736D01*
X41956302Y-113640032D02*
X41975337Y-113645648D01*
X43449564Y-113515571D02*
X43467429Y-113530475D01*
X42232953Y-108473240D02*
X42136176Y-109022213D01*
X43000338Y-113030174D02*
X43005765Y-113032469D01*
X43159080Y-113891411D02*
X43211082Y-113893697D01*
X41838042Y-109900334D02*
X41865474Y-109867385D01*
X43209228Y-112980476D02*
X43206150Y-112952738D01*
X44958000Y-107209046D02*
X44943213Y-107196266D01*
X47653248Y-108900875D02*
X47646768Y-108917669D01*
X45715224Y-112387799D02*
X45505569Y-112579346D01*
X40025190Y-106365566D02*
X40017918Y-106392296D01*
X40651752Y-108706196D02*
X40596195Y-108660008D01*
X45120756Y-113682863D02*
X45047370Y-113616164D01*
X46631388Y-111785060D02*
X46609878Y-111806246D01*
X42093318Y-111197657D02*
X42082464Y-111196532D01*
X45070068Y-111876509D02*
X45104925Y-111941363D01*
X46657578Y-111772613D02*
X46640028Y-111781010D01*
X42033792Y-110999846D02*
X42071529Y-110979587D01*
X44638869Y-108345026D02*
X42383793Y-108345026D01*
X43468707Y-113777003D02*
X43441599Y-113837933D01*
X42763863Y-113096927D02*
X42782025Y-113013821D01*
X39999657Y-109220645D02*
X40073340Y-108923240D01*
X45337890Y-113846051D02*
X45266070Y-113805074D01*
X39024570Y-109203707D02*
X39549513Y-109566011D01*
X39543555Y-109789265D02*
X39543555Y-109723583D01*
X40637406Y-107134166D02*
X40817325Y-106975406D01*
X41860641Y-113427785D02*
X42379689Y-114326858D01*
X41346039Y-106159196D02*
X41273337Y-106075136D01*
X44369580Y-109295651D02*
X44342193Y-109328564D01*
X47088048Y-110176895D02*
X47090838Y-110260010D01*
X44943213Y-107196266D02*
X44903469Y-107152526D01*
X47099478Y-109376408D02*
X47093448Y-109442090D01*
X39979641Y-112282220D02*
X40031544Y-112353221D01*
X44658543Y-108285986D02*
X44696289Y-108265727D01*
X41127879Y-107345486D02*
X41191842Y-107285816D01*
X47429148Y-108038135D02*
X47493318Y-108153758D01*
X40394829Y-106013126D02*
X40369530Y-106032026D01*
X42972951Y-112579490D02*
X42979980Y-112654838D01*
X41089989Y-105924926D02*
X40992969Y-105867776D01*
X47373078Y-107971922D02*
X47429148Y-108038135D01*
X39331974Y-107916797D02*
X39233442Y-107906015D01*
X39621342Y-107869673D02*
X39599805Y-107890877D01*
X44135454Y-110880965D02*
X43893750Y-111086426D01*
X43050090Y-113048732D02*
X43095162Y-113050244D01*
X46566318Y-111855809D02*
X46514928Y-111921149D01*
X44342193Y-109328564D02*
X44304438Y-109348823D01*
X43172265Y-114178322D02*
X43169475Y-114183551D01*
X46248618Y-111723923D02*
X46087698Y-111959084D01*
X40705032Y-108726464D02*
X40651752Y-108706196D01*
X47646768Y-108917669D02*
X47614188Y-108963038D01*
X39995454Y-110433890D02*
X39952875Y-110131589D01*
X47391888Y-109119089D02*
X47305848Y-109168265D01*
X45104925Y-111941363D02*
X45114303Y-111998684D01*
X45345549Y-107576858D02*
X45304005Y-107536277D01*
X44902101Y-112189115D02*
X44883489Y-112187207D01*
X44217867Y-109340138D02*
X44184918Y-109312751D01*
X44331843Y-113623922D02*
X44318217Y-113627837D01*
X40369530Y-106032026D02*
X40343799Y-106050296D01*
X47089308Y-109703711D02*
X47090388Y-109778960D01*
X44840478Y-108383789D02*
X44840478Y-108383789D01*
X44533974Y-113170799D02*
X44331492Y-113248001D01*
X46726248Y-108998201D02*
X46771608Y-109253513D01*
X44619141Y-108350534D02*
X44631156Y-108318944D01*
X40038870Y-113022659D02*
X40007181Y-113109032D01*
X39136026Y-107895953D02*
X39044037Y-107892524D01*
X47105688Y-110363861D02*
X47114958Y-110381051D01*
X43228416Y-113893697D02*
X43230900Y-113893697D01*
X40070901Y-106291676D02*
X40025190Y-106365566D01*
X40181637Y-107103566D02*
X40147599Y-107159996D01*
X40456686Y-111576512D02*
X40297701Y-111305369D01*
X43348827Y-112554398D02*
X43348827Y-112533545D01*
X43495014Y-113701862D02*
X43468707Y-113777003D01*
X40541349Y-112299950D02*
X40363086Y-112096721D01*
X40031544Y-112353221D02*
X40083843Y-112427147D01*
X44513526Y-111049607D02*
X44006394Y-111480761D01*
X46340418Y-107511419D02*
X46340418Y-107511473D01*
X44622462Y-108405524D02*
X44616990Y-108372170D01*
X39116118Y-109294922D02*
X39125388Y-109312157D01*
X38646831Y-108402977D02*
X38618265Y-108493409D01*
X39131688Y-110299511D02*
X39126702Y-110329346D01*
X42805902Y-113806145D02*
X42784131Y-113700584D01*
X44834565Y-106333796D02*
X44834565Y-106333796D01*
X46115598Y-107625251D02*
X46254558Y-107831837D01*
X43325094Y-113286521D02*
X43316553Y-113218157D01*
X47655768Y-108656939D02*
X47670438Y-108788420D01*
X40181052Y-112608884D02*
X40176129Y-112668653D01*
X42977874Y-112828124D02*
X42983886Y-112828124D01*
X40596195Y-108660008D02*
X40562013Y-108596333D01*
X38616942Y-110712890D02*
X38584425Y-110758250D01*
X42046293Y-109975970D02*
X42034278Y-110007578D01*
X47281908Y-107928857D02*
X47334738Y-107946821D01*
X42910689Y-113364902D02*
X42894912Y-113441357D01*
X46067268Y-107122916D02*
X46101018Y-107179616D01*
X42916557Y-114174461D02*
X42898629Y-114171050D01*
X40315044Y-107485733D02*
X40469880Y-107304446D01*
X44730282Y-111978758D02*
X44732127Y-111960164D01*
X41829339Y-109986914D02*
X41823876Y-109953560D01*
X47349858Y-107956739D02*
X47373078Y-107971922D01*
X38683542Y-108989552D02*
X38759619Y-109041311D01*
X40922364Y-108485165D02*
X40931589Y-108541415D01*
X42878415Y-112898585D02*
X42894525Y-112901069D01*
X42894525Y-112901069D02*
X42899952Y-112901069D01*
X40184814Y-106941566D02*
X40352880Y-107439014D01*
X43358637Y-114006638D02*
X43331439Y-114081833D01*
X45368067Y-107599178D02*
X45362505Y-107593508D01*
X45759180Y-113717819D02*
X45641892Y-113790962D01*
X43695066Y-112273535D02*
X43648779Y-112238138D01*
X44177052Y-113670164D02*
X44160537Y-113675339D01*
X41139156Y-112324709D02*
X40927440Y-112142090D01*
X47109018Y-109338284D02*
X47104428Y-109346636D01*
X43297266Y-113117627D02*
X43288527Y-113111777D01*
X43005819Y-114194432D02*
X42999807Y-114197024D01*
X42995361Y-113081636D02*
X42982950Y-113094974D01*
X43352490Y-113455757D02*
X43347063Y-113430863D01*
X41938329Y-108288524D02*
X41864889Y-108704990D01*
X41401902Y-107011316D02*
X41415042Y-106943546D01*
X44721291Y-113498777D02*
X44641218Y-113521385D01*
X39112788Y-110354834D02*
X39073674Y-110400248D01*
X40552779Y-108540083D02*
X40554642Y-108521876D01*
X45000057Y-107246756D02*
X44968656Y-107218316D01*
X42689406Y-113440385D02*
X42707568Y-113356397D01*
X40819827Y-107641550D02*
X40877445Y-107584373D01*
X44104980Y-109953965D02*
X44264694Y-110147897D01*
X39143019Y-109499078D02*
X39143604Y-109589546D01*
X40554642Y-108521876D02*
X40556442Y-108503615D01*
X40589301Y-105885056D02*
X40472013Y-105958136D01*
X43386276Y-113945699D02*
X43358637Y-114006638D01*
X40196631Y-107067206D02*
X40195317Y-107076566D01*
X47337348Y-111747026D02*
X47322228Y-111756782D01*
X42048489Y-109954352D02*
X42047418Y-109965188D01*
X45435450Y-105827186D02*
X45463125Y-105825836D01*
X39918549Y-107474411D02*
X39906444Y-107489990D01*
X42923190Y-113295647D02*
X42910689Y-113364902D01*
X39599805Y-107890877D02*
X39591219Y-107894972D01*
X39865278Y-107549408D02*
X39821925Y-107610887D01*
X42982950Y-113094974D02*
X42971880Y-113111669D01*
X40797750Y-108720947D02*
X40741500Y-108730127D01*
X42890817Y-114171050D02*
X42885354Y-114158198D01*
X42980025Y-114192920D02*
X42976614Y-114192920D01*
X46235658Y-109242038D02*
X46164018Y-108944138D01*
X39049950Y-111756890D02*
X40048878Y-111645515D01*
X44822955Y-106780106D02*
X44823036Y-106681916D01*
X46183548Y-106311656D02*
X46228638Y-106385906D01*
X43052925Y-112385009D02*
X43025628Y-112397510D01*
X44418405Y-112745945D02*
X44748390Y-112571633D01*
X43319244Y-112896677D02*
X43336920Y-112896974D01*
X42990429Y-114194774D02*
X42980025Y-114192920D01*
X43356207Y-113472848D02*
X43353318Y-113460014D01*
X47646948Y-110804888D02*
X47656758Y-110830763D01*
X41874267Y-113615723D02*
X41874267Y-113615723D01*
X40139940Y-112792484D02*
X40377594Y-112114397D01*
X43299030Y-112897460D02*
X43305024Y-112897460D01*
X46087698Y-111959084D02*
X45909588Y-112180664D01*
X47087508Y-110086427D02*
X47088048Y-110176895D01*
X42294576Y-109214552D02*
X44183100Y-109214552D01*
X44740479Y-108261371D02*
X44751261Y-108262451D01*
X44922018Y-111805022D02*
X44940630Y-111806939D01*
X39990378Y-113189987D02*
X39990765Y-113245796D01*
X41992815Y-109596674D02*
X44468751Y-109596674D01*
X41415042Y-106943546D02*
X41418705Y-106920776D01*
X45667326Y-105902246D02*
X45784128Y-105976316D01*
X40901412Y-105828626D02*
X40842138Y-105813146D01*
X46182918Y-112373633D02*
X46130268Y-112447172D01*
X40795707Y-113848877D02*
X40813662Y-113847995D01*
X43023045Y-113076272D02*
X43005765Y-113076272D01*
X46808778Y-109781048D02*
X46808778Y-109856639D01*
X44827977Y-106486616D02*
X44831055Y-106407776D01*
X40686564Y-108360551D02*
X40742814Y-108351326D01*
X44828904Y-106915556D02*
X44825439Y-106866506D01*
X41864889Y-108704990D02*
X41757951Y-109311473D01*
X47360658Y-111731933D02*
X47337348Y-111747026D01*
X45266070Y-113805074D02*
X45193656Y-113748239D01*
X42922650Y-113846924D02*
X42929157Y-113871773D01*
X39140769Y-109896977D02*
X39141786Y-109972208D01*
X44350437Y-113617289D02*
X44331843Y-113623922D01*
X45248826Y-107482763D02*
X45185457Y-107421716D01*
X40723293Y-108728327D02*
X40705032Y-108726464D01*
X44836275Y-106313546D02*
X44857569Y-106254416D01*
X42971880Y-113111669D02*
X42966399Y-113123234D01*
X40297701Y-111305369D02*
X40167867Y-111023048D01*
X46228638Y-106385906D02*
X46235748Y-106412726D01*
X41185740Y-105995486D02*
X41089989Y-105924926D01*
X41372850Y-106602266D02*
X41427543Y-106574006D01*
X42909519Y-113698874D02*
X42910590Y-113770460D01*
X46728588Y-107940773D02*
X46816428Y-107946632D01*
X46351398Y-107527790D02*
X46381098Y-107571098D01*
X46808778Y-109856639D02*
X46796268Y-110083502D01*
X42979980Y-112470995D02*
X42974562Y-112508984D01*
X47093448Y-109442090D02*
X47090118Y-109525250D01*
X44968656Y-107218316D02*
X44958000Y-107209046D01*
X40779291Y-108354989D02*
X40832616Y-108375248D01*
X42844782Y-113991752D02*
X42826269Y-113904245D01*
X43140225Y-113040137D02*
X43173876Y-113026862D01*
X39829782Y-108310700D02*
X39930276Y-108090569D01*
X42981978Y-113880521D02*
X42994344Y-113879099D01*
X40194732Y-106988096D02*
X40199214Y-107047856D01*
X39702486Y-111898775D02*
X39756153Y-111971639D01*
X44834862Y-106954526D02*
X44831388Y-106931756D01*
X43213665Y-112907090D02*
X43219236Y-112908395D01*
X46218738Y-113210498D02*
X46217928Y-113266307D01*
X43281102Y-112899170D02*
X43299030Y-112897460D01*
X42438378Y-112295900D02*
X42394341Y-112303712D01*
X42126519Y-110976320D02*
X42158100Y-110988290D01*
X40927926Y-108577883D02*
X40907667Y-108631199D01*
X47534808Y-111422999D02*
X47482878Y-111551123D01*
X38590527Y-108887888D02*
X38622756Y-108933500D01*
X43098006Y-114137696D02*
X43083786Y-114119921D01*
X43305024Y-114178322D02*
X43303314Y-114184226D01*
X42889017Y-113466701D02*
X42888090Y-113471237D01*
X44631156Y-108318944D02*
X44658543Y-108285986D01*
X40167867Y-111023048D02*
X40067139Y-110731835D01*
X43178025Y-114207221D02*
X43170807Y-114191210D01*
X41085201Y-113669669D02*
X41158974Y-113603510D01*
X43333644Y-113355560D02*
X43325094Y-113286521D01*
X40997415Y-107468903D02*
X41061225Y-107408306D01*
X44800338Y-106507496D02*
X44856336Y-106535486D01*
X43264407Y-112902923D02*
X43281102Y-112899170D01*
X44834565Y-106333796D02*
X44836275Y-106313546D01*
X39642141Y-110636426D02*
X39587943Y-110360738D01*
X45047370Y-113616164D02*
X44973525Y-113555558D01*
X41826081Y-109931933D02*
X41838042Y-109900334D01*
X39890766Y-112164500D02*
X39902781Y-112180124D01*
X45193656Y-113748239D02*
X45120756Y-113682863D01*
X39139113Y-109824761D02*
X39139599Y-109844489D01*
X40822167Y-105812066D02*
X40794429Y-105810536D01*
X46409358Y-112065032D02*
X46365978Y-112126511D01*
X42115719Y-110975249D02*
X42126519Y-110976320D01*
X43184613Y-113021534D02*
X43190580Y-113019050D01*
X39129879Y-109320509D02*
X39134667Y-109350335D01*
X38696439Y-108252920D02*
X38666163Y-108342821D01*
X44641218Y-113521385D02*
X44554737Y-113548286D01*
X45909588Y-112180664D02*
X45715224Y-112387799D01*
X46340418Y-107511473D02*
X46351398Y-107527790D01*
X41989791Y-109855811D02*
X42022704Y-109883252D01*
X43004829Y-112747799D02*
X43052925Y-112816064D01*
X40154052Y-112753811D02*
X40119186Y-112842722D01*
X42492189Y-112273535D02*
X42438378Y-112295900D01*
X46276158Y-110153270D02*
X46291728Y-109848872D01*
X40073340Y-108923240D02*
X40176075Y-108632657D01*
X42999807Y-114197024D02*
X42990429Y-114194774D01*
X43053267Y-114092678D02*
X43033791Y-114087449D01*
X44909175Y-106170716D02*
X44982462Y-106087196D01*
X44825007Y-106581026D02*
X44827977Y-106486616D01*
X41421477Y-113473235D02*
X41485404Y-113488139D01*
X43052925Y-112816064D02*
X43110588Y-112842677D01*
X47305848Y-109168265D02*
X47225298Y-109219727D01*
X44226705Y-113654990D02*
X44177052Y-113670164D01*
X44815818Y-108301862D02*
X44836077Y-108339599D01*
X43009428Y-114090770D02*
X43005369Y-114092084D01*
X46164018Y-108944138D02*
X46063308Y-108652889D01*
X44249466Y-109352144D02*
X44217867Y-109340138D01*
X47614188Y-108963038D02*
X47552988Y-109018694D01*
X42666402Y-113547026D02*
X42672117Y-113520359D01*
X43009428Y-114181985D02*
X43008942Y-114185162D01*
X42394341Y-112303712D02*
X42379689Y-112303712D01*
X43399704Y-113155814D02*
X43403565Y-113213090D01*
X40053027Y-111652490D02*
X39922905Y-111413135D01*
X38678124Y-110657270D02*
X38616942Y-110712890D01*
X45304005Y-107536277D02*
X45248826Y-107482763D01*
X38754543Y-110605961D02*
X38678124Y-110657270D01*
X45963228Y-107429051D02*
X46115598Y-107625251D01*
X44728365Y-111997307D02*
X44730282Y-111978758D01*
X43336920Y-112896974D02*
X43353219Y-112902050D01*
X44006394Y-111480761D02*
X44271480Y-111998000D01*
X47574408Y-111302975D02*
X47564958Y-111333107D01*
X44799852Y-111849275D02*
X44864688Y-111814400D01*
X46899138Y-111759140D02*
X46803828Y-111753461D01*
X46324848Y-112185983D02*
X46324848Y-112185983D01*
X43424949Y-113412215D02*
X43438575Y-113486033D01*
X43305024Y-112897460D02*
X43308543Y-112897460D01*
X41419632Y-106322816D02*
X41419632Y-106322816D01*
X47417448Y-111666161D02*
X47360658Y-111731933D01*
X46640028Y-111781010D02*
X46631388Y-111785060D01*
X44271093Y-109354349D02*
X44260302Y-109353278D01*
X39005769Y-110456201D02*
X38925291Y-110507663D01*
X42888090Y-113471237D02*
X42888090Y-113497715D01*
X45411330Y-112034423D02*
X45572601Y-111851120D01*
X43132224Y-114170852D02*
X43113576Y-114155372D01*
X47322228Y-111756782D02*
X47269308Y-111774359D01*
X39770454Y-107682221D02*
X39716301Y-107754788D01*
X43209768Y-112909907D02*
X43211028Y-112906100D01*
X45119190Y-107358446D02*
X45055614Y-107298416D01*
X40163817Y-112553075D02*
X40177344Y-112580075D01*
X47301438Y-110535158D02*
X47387118Y-110584964D01*
X43129830Y-112842677D02*
X43151466Y-112842677D01*
X40768014Y-113850200D02*
X40795707Y-113848877D01*
X45887448Y-113625632D02*
X45861798Y-113644046D01*
X39143604Y-109589546D02*
X39142731Y-109677395D01*
X40369881Y-113644622D02*
X40447065Y-113699765D01*
X42104874Y-110974124D02*
X42115719Y-110975249D01*
X40709865Y-105830426D02*
X40589301Y-105885056D01*
X43520313Y-113605427D02*
X43520313Y-113605427D01*
X43205466Y-113004047D02*
X43209228Y-112980476D01*
X42082464Y-111196532D02*
X42050874Y-111184526D01*
X43129830Y-112375586D02*
X43129830Y-112375586D01*
X46365978Y-112126511D02*
X46336008Y-112169675D01*
X39922905Y-111413135D02*
X39810504Y-111163475D01*
X47089848Y-109923437D02*
X47088318Y-109998587D01*
X44326650Y-113427785D02*
X44316606Y-113410352D01*
X41925000Y-110065187D02*
X41914155Y-110064062D01*
X39044037Y-107892524D02*
X38961867Y-107901560D01*
X46130268Y-112447172D02*
X46083558Y-112515959D01*
X42215718Y-111097658D02*
X42214602Y-111108449D01*
X43303125Y-113144438D02*
X43297752Y-113120075D01*
X46240788Y-106485896D02*
X46223958Y-106566896D01*
X43242087Y-113859038D02*
X43243014Y-113853557D01*
X41009178Y-106828796D02*
X41212695Y-106694786D01*
X43612689Y-112191212D02*
X42574566Y-112191212D01*
X43521627Y-113600045D02*
X43520313Y-113605427D01*
X40761075Y-108353171D02*
X40779291Y-108354989D01*
X41427444Y-106570136D02*
X41425140Y-106475636D01*
X39578367Y-111757961D02*
X39586917Y-111762065D01*
X46291728Y-109848872D02*
X46278228Y-109544384D01*
X44899365Y-113508245D02*
X44844042Y-113485115D01*
X42999852Y-114130865D02*
X43007862Y-114158450D01*
X45044382Y-112912013D02*
X44794830Y-113051126D01*
X46799328Y-109514702D02*
X46808778Y-109714448D01*
X43169475Y-114183551D02*
X43158594Y-114183146D01*
X47276958Y-110520209D02*
X46808688Y-110175590D01*
X43393404Y-113091752D02*
X43399704Y-113155814D01*
X44326650Y-113202785D02*
X43807566Y-112303712D01*
X43295016Y-114201074D02*
X43277187Y-114226220D01*
X43010940Y-114176657D02*
X43009428Y-114181985D01*
X40083843Y-112427147D02*
X40130076Y-112496339D01*
X44982462Y-106087196D02*
X45070599Y-106008176D01*
X39591219Y-107894972D02*
X39573525Y-107903324D01*
X47594118Y-108432272D02*
X47622468Y-108522749D01*
X43007079Y-112930472D02*
X43002687Y-112954448D01*
X42784131Y-113700584D02*
X42766995Y-113618207D01*
X45923268Y-111324710D02*
X46055118Y-111043307D01*
X45505569Y-112579346D02*
X45281595Y-112754396D01*
X41233206Y-113543363D02*
X41307663Y-113496536D01*
X39810504Y-111163475D02*
X39716607Y-110904302D01*
X38686818Y-111393650D02*
X38737794Y-111522125D01*
X43227543Y-112908395D02*
X43247019Y-112906685D01*
X42735738Y-113226320D02*
X42748977Y-113165282D01*
X43083786Y-114119921D02*
X43069377Y-114104198D01*
X42950631Y-114189500D02*
X42933252Y-114181985D01*
X47092008Y-109851275D02*
X47092008Y-109851275D01*
X38584425Y-110758250D02*
X38577981Y-110775044D01*
X43110588Y-112842677D02*
X43129830Y-112842677D01*
X44831388Y-106931756D02*
X44828904Y-106915556D01*
X41882565Y-110052047D02*
X41849607Y-110024660D01*
X43362300Y-112911815D02*
X43363425Y-112915676D01*
X42024117Y-109953965D02*
X44104980Y-109953965D01*
X39141219Y-109752536D02*
X39139743Y-109805024D01*
X45353757Y-112091645D02*
X45411330Y-112034423D01*
X39137745Y-110233838D02*
X39131688Y-110299511D01*
X39576270Y-109269920D02*
X39616707Y-109019387D01*
X47640558Y-110788040D02*
X47646948Y-110804888D01*
X40130076Y-112496339D02*
X40163817Y-112553075D01*
X43514994Y-113581352D02*
X43521627Y-113600045D01*
X44883489Y-112187207D02*
X44829201Y-112166552D01*
X43494294Y-113555225D02*
X43514994Y-113581352D01*
X40307862Y-108351272D02*
X40468701Y-108081245D01*
X42943269Y-112864601D02*
X42959964Y-112839500D01*
X42861027Y-114065390D02*
X42844782Y-113991752D01*
X39319338Y-111734327D02*
X39414738Y-111729296D01*
X44184918Y-109312751D02*
X44164650Y-109274996D01*
X46132338Y-112953026D02*
X46171308Y-113042819D01*
X46280748Y-112243115D02*
X46235298Y-112303028D01*
X43333302Y-113628764D02*
X43357413Y-113556890D01*
X42899952Y-112901069D02*
X42906387Y-112901069D01*
X47471538Y-110634671D02*
X47547588Y-110686421D01*
X44823036Y-106681916D02*
X44825007Y-106581026D01*
X46152678Y-106742846D02*
X46111908Y-106833206D01*
X44857569Y-106254416D02*
X44909175Y-106170716D01*
X46663698Y-108749315D02*
X46726248Y-108998201D01*
X43514841Y-113629682D02*
X43495014Y-113701862D01*
X43620015Y-114426614D02*
X43648779Y-114392387D01*
X44903469Y-107152526D02*
X44869089Y-107093126D01*
X41958201Y-109843850D02*
X41989791Y-109855811D01*
X44318217Y-113627837D02*
X44281200Y-113638673D01*
X42211326Y-111053459D02*
X42216789Y-111086813D01*
X40173240Y-107677532D02*
X40315044Y-107485733D01*
X39716607Y-110904302D02*
X39642141Y-110636426D01*
X44732127Y-111960164D02*
X44752782Y-111905858D01*
X43520313Y-113605427D02*
X43514841Y-113629682D01*
X45836508Y-113662883D02*
X45759180Y-113717819D01*
X43075056Y-113082527D02*
X43023045Y-113076272D01*
X44827392Y-108426170D02*
X44800005Y-108459137D01*
X39743805Y-108539264D02*
X39829782Y-108310700D01*
X46083558Y-112515959D02*
X46049538Y-112572407D01*
X42137454Y-111193211D02*
X42104100Y-111198737D01*
X43170267Y-114175838D02*
X43172265Y-114178322D01*
X44959179Y-111808784D02*
X45013476Y-111829448D01*
X43285845Y-112747799D02*
X43332024Y-112654838D01*
X40888182Y-108421490D02*
X40922364Y-108485165D01*
X42972951Y-112554398D02*
X42972951Y-112579490D01*
X43243014Y-113853557D02*
X43248981Y-113829095D01*
X46199568Y-107322716D02*
X46251498Y-107393726D01*
X38618265Y-108493409D02*
X38583975Y-108627302D01*
X47584308Y-111272996D02*
X47574408Y-111302975D01*
X47092008Y-109851275D02*
X47091288Y-109870949D01*
X45886728Y-106050116D02*
X45912558Y-106068386D01*
X46514928Y-111921149D02*
X46460748Y-111993752D01*
X43288527Y-113111777D02*
X43270806Y-113111372D01*
X44728851Y-108484859D02*
X44718069Y-108483788D01*
X40832616Y-108375248D02*
X40888182Y-108421490D01*
X41290140Y-107197166D02*
X41304981Y-107184566D01*
X44696289Y-108265727D02*
X44729643Y-108260246D01*
X46049538Y-112572407D02*
X46035948Y-112599362D01*
X44554737Y-113548286D02*
X44471244Y-113575736D01*
X44841549Y-108372944D02*
X44840478Y-108383789D01*
X44839407Y-108394589D02*
X44827392Y-108426170D01*
X40195317Y-107076566D02*
X40181637Y-107103566D01*
X42972951Y-112543022D02*
X42972951Y-112554398D01*
X39139113Y-109824761D02*
X39139113Y-109824761D01*
X46474968Y-107704352D02*
X46528608Y-107777198D01*
X43270806Y-113111372D02*
X43251024Y-113114396D01*
X43173876Y-113026862D02*
X43184613Y-113021534D01*
X44831055Y-106407776D02*
X44833539Y-106353776D01*
X42538431Y-114392387D02*
X42567186Y-114426614D01*
X40178568Y-112589552D02*
X40181052Y-112608884D01*
X42214602Y-111108449D02*
X42202587Y-111140039D01*
X39134667Y-109350335D02*
X39140274Y-109415963D01*
X46157808Y-110752733D02*
X46231518Y-110455319D01*
X43230900Y-113893697D02*
X43238424Y-113881835D01*
X41733489Y-113566214D02*
X41804157Y-113590775D01*
X44160303Y-109230860D02*
X44161374Y-109220024D01*
X42988332Y-113013290D02*
X43000338Y-113030174D01*
X44856336Y-106535486D02*
X45020649Y-106627376D01*
X39616707Y-109019387D02*
X39672651Y-108775640D01*
X40059768Y-106633136D02*
X40098828Y-106722956D01*
X40866987Y-113831444D02*
X40939068Y-113790926D01*
X42394341Y-114326858D02*
X42438378Y-114334625D01*
X39995400Y-113263238D02*
X40002537Y-113290040D01*
X47647218Y-111048635D02*
X47612928Y-111182573D01*
X46202448Y-113129444D02*
X46218738Y-113210498D01*
X42574566Y-112191212D02*
X42567240Y-112203911D01*
X39990765Y-113245796D02*
X39995400Y-113263238D01*
X43792869Y-114326858D02*
X43807566Y-114326858D01*
X41428182Y-106769216D02*
X41428713Y-106671026D01*
X40100979Y-107228846D02*
X40048293Y-107302376D01*
X46205958Y-113310452D02*
X46160238Y-113384270D01*
X47090118Y-109525250D02*
X47089038Y-109615826D01*
X43015863Y-113038184D02*
X43050090Y-113048732D01*
X42158100Y-110988290D02*
X42191067Y-111015722D01*
X42722463Y-113287502D02*
X42735738Y-113226320D01*
X46699878Y-110667485D02*
X46617888Y-110946971D01*
X43129830Y-112375586D02*
X43119237Y-112375586D01*
X43170807Y-114191210D02*
X43170015Y-114185648D01*
X41420451Y-106342796D02*
X41419632Y-106322816D01*
X42888090Y-113497715D02*
X42891753Y-113524175D01*
X44800005Y-108459137D02*
X44762205Y-108479396D01*
X46147278Y-107248736D02*
X46199568Y-107322716D01*
X40242576Y-113551076D02*
X40318653Y-113607659D01*
X40176129Y-112668653D02*
X40154052Y-112753811D01*
X42970116Y-114192920D02*
X42950631Y-114189500D01*
X40136763Y-113462111D02*
X40242576Y-113551076D01*
X45586380Y-107841746D02*
X45426369Y-107657372D01*
X42050874Y-111184526D02*
X42017916Y-111157121D01*
X47663238Y-110917334D02*
X47647218Y-111048635D01*
X40861479Y-108686774D02*
X40797750Y-108720947D01*
X45641892Y-113790962D02*
X45521337Y-113845610D01*
X41564892Y-113511089D02*
X41650680Y-113538377D01*
X46055118Y-111043307D02*
X46157808Y-110752733D01*
X43113576Y-114155372D02*
X43098006Y-114137696D01*
X43069377Y-114104198D02*
X43053267Y-114092678D01*
X45436818Y-113865473D02*
X45409125Y-113863961D01*
X39672651Y-108775640D02*
X39743805Y-108539264D01*
X41158938Y-112824020D02*
X40940139Y-112664450D01*
X39716301Y-107754788D02*
X39664794Y-107820110D01*
X43221090Y-112908395D02*
X43227543Y-112908395D01*
X39031302Y-111756638D02*
X39123237Y-111753857D01*
X41888478Y-113619926D02*
X41920995Y-113629538D01*
X41158974Y-113603510D02*
X41233206Y-113543363D01*
X44869089Y-107093126D02*
X44847507Y-107022386D01*
X44383791Y-109242434D02*
X44382720Y-109253270D01*
X47157438Y-109275635D02*
X47118288Y-109321094D01*
X46808778Y-109714448D02*
X46808778Y-109781048D01*
X45391116Y-113862989D02*
X45337890Y-113846051D01*
X42438378Y-114334625D02*
X42492189Y-114356990D01*
X44833539Y-106353776D02*
X44834565Y-106333796D01*
X47114958Y-110381051D02*
X47153748Y-110426762D01*
X44836077Y-108339599D02*
X44841549Y-108372944D01*
X39934569Y-112221974D02*
X39979641Y-112282220D01*
X42992094Y-112985939D02*
X42988332Y-113013290D01*
X43348827Y-112579490D02*
X43348827Y-112554398D01*
X47252208Y-109201565D02*
X46798968Y-109509032D01*
X39123237Y-111753857D02*
X39220752Y-111744434D01*
X47387118Y-110584964D02*
X47471538Y-110634671D01*
X39543555Y-109723583D02*
X39551754Y-109526708D01*
X39807075Y-112043162D02*
X39850050Y-112104839D01*
X42998493Y-113879099D02*
X43015278Y-113879099D01*
X43149315Y-114180077D02*
X43132224Y-114170852D01*
X46036488Y-112687886D02*
X46057998Y-112773233D01*
X45463125Y-105825836D02*
X45547419Y-105846446D01*
X43210542Y-114247712D02*
X43193262Y-114229883D01*
X41804157Y-113590775D02*
X41853315Y-113608298D01*
X47482878Y-111551123D02*
X47417448Y-111666161D01*
X41307663Y-113496536D02*
X41363130Y-113473775D01*
X40929780Y-108559676D02*
X40929780Y-108559676D01*
X39142731Y-109677395D02*
X39141219Y-109752536D01*
X47092008Y-109851221D02*
X47092008Y-109851275D01*
X43004829Y-112415726D02*
X42989844Y-112440089D01*
X46235298Y-112303028D02*
X46182918Y-112373633D01*
X45283980Y-112160936D02*
X45353757Y-112091645D01*
X41825001Y-109942769D02*
X41826081Y-109931933D01*
X46424028Y-107632811D02*
X46474968Y-107704352D01*
X41422557Y-106396796D02*
X41420451Y-106342796D01*
X44264694Y-110147897D02*
X44135454Y-110880965D01*
X41419632Y-106322816D02*
X41418012Y-106302566D01*
X40200051Y-111880613D02*
X40053027Y-111652490D01*
X45112449Y-112017287D02*
X45112449Y-112017287D01*
X39906444Y-107489990D02*
X39895266Y-107506244D01*
X38929737Y-109140824D02*
X39009819Y-109192826D01*
X43005765Y-112923002D02*
X43007079Y-112930472D01*
X39850050Y-112104839D02*
X39879687Y-112148147D01*
X41871774Y-113614985D02*
X41871774Y-113614985D01*
X46235748Y-106412726D02*
X46240338Y-106430096D01*
X47476578Y-109069976D02*
X47391888Y-109119089D01*
X43219236Y-112908395D02*
X43221090Y-112908395D01*
X43211082Y-113893697D02*
X43228416Y-113893697D01*
X39139599Y-109844489D02*
X39140769Y-109896977D01*
X39906444Y-107489990D02*
X39906444Y-107489990D01*
X40472013Y-105958136D02*
X40394829Y-106013126D01*
X45572601Y-111851120D02*
X45762456Y-111594728D01*
X43748832Y-114334625D02*
X43792869Y-114326858D01*
X43231845Y-114254984D02*
X43224753Y-114254984D01*
X44382720Y-109253270D02*
X44382720Y-109253270D01*
X46251498Y-107393726D02*
X46296588Y-107453963D01*
X38574363Y-108845111D02*
X38584182Y-108871094D01*
X44331843Y-113623922D02*
X44331843Y-113623922D01*
X42567186Y-114426614D02*
X42574566Y-114439358D01*
X46997778Y-111769922D02*
X46899138Y-111759140D01*
X44752782Y-111905858D02*
X44799852Y-111849275D01*
X45166845Y-105938246D02*
X45264252Y-105881816D01*
X42383793Y-108345026D02*
X42232953Y-108473240D01*
X45933438Y-108370559D02*
X45774462Y-108099461D01*
X44977980Y-112181582D02*
X44920650Y-112190960D01*
X47221248Y-110483147D02*
X47301438Y-110535158D01*
X47096418Y-110325638D02*
X47101188Y-110355473D01*
X42894912Y-113441357D02*
X42889017Y-113466701D01*
X44762205Y-108479396D02*
X44728851Y-108484859D01*
X43015278Y-113879099D02*
X43065678Y-113881349D01*
X40067139Y-110731835D02*
X39995454Y-110433890D01*
X45912558Y-106068386D02*
X45988608Y-106124906D01*
X47095158Y-111779984D02*
X46997778Y-111769922D01*
X40007181Y-113109032D02*
X39990378Y-113189987D01*
X42707568Y-113356397D02*
X42722463Y-113287502D01*
X42892680Y-113528765D02*
X42898575Y-113553128D01*
X40931589Y-108541415D02*
X40929780Y-108559676D01*
X44381595Y-109264061D02*
X44369580Y-109295651D01*
X46622838Y-107892623D02*
X46644168Y-107913962D01*
X42992913Y-112838825D02*
X42998925Y-112864601D01*
X42042963Y-109920998D02*
X42048489Y-109954352D01*
X46328358Y-107495750D02*
X46340418Y-107511419D01*
X44864688Y-111814400D02*
X44922018Y-111805022D01*
X47564958Y-111333107D02*
X47534808Y-111422999D01*
X38908893Y-107919182D02*
X38893800Y-107928965D01*
X38893800Y-107928965D02*
X38870454Y-107943995D01*
X44718069Y-108483788D02*
X44707224Y-108482663D01*
X42711078Y-113570264D02*
X42679155Y-113560499D01*
X40927440Y-112142090D02*
X40861965Y-112076174D01*
X42909132Y-113628026D02*
X42909519Y-113698874D01*
X42874707Y-114121919D02*
X42861027Y-114065390D01*
X46192278Y-106653296D02*
X46152678Y-106742846D01*
X43310793Y-114153995D02*
X43305024Y-114178322D01*
X41425095Y-106855526D02*
X41428182Y-106769216D01*
X46460748Y-111993752D02*
X46409358Y-112065032D01*
X46381098Y-107571098D02*
X46424028Y-107632811D01*
X43792869Y-112303712D02*
X43748832Y-112295900D01*
X45431337Y-106909616D02*
X45620454Y-107070536D01*
X47088318Y-109998587D02*
X47087508Y-110086427D01*
X38801955Y-111637748D02*
X38858007Y-111703997D01*
X42889017Y-113466701D02*
X42889017Y-113466701D01*
X40658538Y-107824844D02*
X40819827Y-107641550D01*
X40562013Y-108596333D02*
X40552779Y-108540083D01*
X43807566Y-114326858D02*
X44326650Y-113427785D01*
X46052598Y-107086556D02*
X46053768Y-107095916D01*
X43363425Y-112915676D02*
X43368555Y-112940138D01*
X39502488Y-111735245D02*
X39560745Y-111749465D01*
X43247019Y-112906685D02*
X43264407Y-112902923D01*
X38637102Y-111243647D02*
X38647263Y-111273590D01*
X46070148Y-113481101D02*
X45963678Y-113569283D01*
X43155417Y-114181985D02*
X43149315Y-114180077D01*
X43612689Y-112191212D02*
X43612689Y-112191212D01*
X45797952Y-107243966D02*
X45963228Y-107429051D01*
X42929643Y-113874365D02*
X42939453Y-113880611D01*
X42939453Y-113880611D02*
X42959712Y-113882276D01*
X41061225Y-107408306D02*
X41127879Y-107345486D01*
X41975337Y-113645648D02*
X41979153Y-113646827D01*
X45264252Y-105881816D02*
X45356052Y-105843296D01*
X43443705Y-113510549D02*
X43449564Y-113515571D01*
X43332024Y-112654838D02*
X43348827Y-112579490D01*
X41938329Y-108288524D02*
X41286225Y-107980715D01*
X44159178Y-109241651D02*
X44160303Y-109230860D01*
X43332024Y-112470995D02*
X43285845Y-112415726D01*
X47574408Y-108372260D02*
X47583948Y-108402401D01*
X46609878Y-111806246D02*
X46566318Y-111855809D01*
X38881254Y-111719234D02*
X38896293Y-111729098D01*
X44293503Y-109131932D02*
X44325093Y-109143902D01*
X44920650Y-112190960D02*
X44902101Y-112189115D01*
X43119237Y-112375586D02*
X43087449Y-112377890D01*
X43331439Y-114081833D02*
X43310793Y-114153995D01*
X40343799Y-106050296D02*
X40267479Y-106106726D01*
X41969145Y-110060732D02*
X41935791Y-110066258D01*
X43235688Y-113116412D02*
X43218840Y-113116412D01*
X43285845Y-112415726D02*
X43216401Y-112385009D01*
X42538431Y-112238138D02*
X42492189Y-112273535D01*
X46617888Y-110946971D02*
X46514658Y-111216899D01*
X44358006Y-109171334D02*
X44378265Y-109209089D01*
X39587943Y-110360738D02*
X39554778Y-110078075D01*
X43008942Y-114185162D02*
X43005819Y-114194432D01*
X43007862Y-114158450D02*
X43010940Y-114176657D01*
X44173344Y-109188425D02*
X44200776Y-109155476D01*
X45547419Y-105846446D02*
X45667326Y-105902246D01*
X43748832Y-112295900D02*
X43695066Y-112273535D01*
X46715988Y-111758789D02*
X46657578Y-111772613D01*
X38839251Y-110556839D02*
X38754543Y-110605961D01*
X44675625Y-108470648D02*
X44642730Y-108443261D01*
X41011869Y-113734577D02*
X41085201Y-113669669D01*
X45774462Y-108099461D02*
X45586380Y-107841746D01*
X43308543Y-112897460D02*
X43319244Y-112896677D01*
X43033791Y-114087449D02*
X43015224Y-114089015D01*
X43348827Y-112533545D02*
X43332024Y-112470995D01*
X46050078Y-107067116D02*
X46052598Y-107086556D01*
X44200776Y-109155476D02*
X44238531Y-109135208D01*
X46063308Y-108652889D02*
X45933438Y-108370559D01*
X38737794Y-111522125D02*
X38801955Y-111637748D01*
X43005765Y-113076272D02*
X43003128Y-113076272D01*
X40318653Y-113607659D02*
X40344474Y-113625920D01*
X39126702Y-110329346D02*
X39122166Y-110337698D01*
X47225298Y-109219727D02*
X47157438Y-109275635D01*
X46160238Y-113384270D02*
X46070148Y-113481101D01*
X44840478Y-108383789D02*
X44839407Y-108394589D01*
X39664794Y-107820110D02*
X39621342Y-107869673D01*
X42080025Y-112841363D02*
X41996289Y-112812545D01*
X42937743Y-113227049D02*
X42923190Y-113295647D01*
X38608743Y-111153170D02*
X38637102Y-111243647D01*
X46223958Y-106566896D02*
X46192278Y-106653296D01*
X47101188Y-110355473D02*
X47105688Y-110363861D01*
X42492189Y-114356990D02*
X42538431Y-114392387D01*
X44316606Y-113220164D02*
X44326650Y-113202785D01*
X45620454Y-107070536D02*
X45797952Y-107243966D01*
X43003128Y-113076272D02*
X42995361Y-113081636D01*
X43207419Y-112919726D02*
X43209768Y-112909907D01*
X46092198Y-112862396D02*
X46132338Y-112953026D01*
X42979980Y-112654838D02*
X43004829Y-112747799D01*
X45231204Y-106761656D02*
X45431337Y-106909616D01*
X41286225Y-107980715D02*
X40866987Y-108399998D01*
X46336008Y-112169675D02*
X46324848Y-112185983D01*
X46278228Y-109544384D02*
X46235658Y-109242038D01*
X40177344Y-112580075D02*
X40178568Y-112589552D01*
X47090388Y-109778960D02*
X47091468Y-109831448D01*
X40468701Y-108081245D02*
X40658538Y-107824844D01*
X42986127Y-112828124D02*
X42992913Y-112838825D01*
X43277187Y-114226220D02*
X43253175Y-114246587D01*
X41418705Y-106920776D02*
X41421288Y-106904666D01*
X44824854Y-113481551D02*
X44815476Y-113479787D01*
X46171308Y-113042819D02*
X46202448Y-113129444D01*
X45362505Y-107593508D02*
X45345549Y-107576858D01*
X47547588Y-110686421D02*
X47608428Y-110742437D01*
X40199214Y-107047856D02*
X40196631Y-107067206D01*
X40907667Y-108631199D02*
X40861479Y-108686774D01*
X38577981Y-110775044D02*
X38567964Y-110800928D01*
X39952875Y-110131589D02*
X39939402Y-109827101D01*
X45521337Y-113845610D02*
X45436818Y-113865473D01*
X46070418Y-112808108D02*
X45859548Y-112223639D01*
X40078515Y-112933109D02*
X40038870Y-113022659D01*
X39895266Y-107506244D02*
X39865278Y-107549408D01*
X43648779Y-114392387D02*
X43695066Y-114356990D01*
X39879687Y-112148147D02*
X39890766Y-112164500D01*
X40556442Y-108503615D02*
X40576701Y-108450299D01*
X43170015Y-114185648D02*
X43169682Y-114183245D01*
X43303314Y-114184226D02*
X43295016Y-114201074D01*
X44844042Y-113485115D02*
X44824854Y-113481551D01*
X43224753Y-114254984D02*
X43221189Y-114254984D01*
X40044882Y-107879348D02*
X40173240Y-107677532D01*
X39586917Y-111762065D02*
X39608301Y-111783350D01*
X43095162Y-113050244D02*
X43140225Y-113040137D01*
X40804743Y-112018547D02*
X40644732Y-111834173D01*
X41997657Y-111119384D02*
X41992194Y-111086039D01*
X40883007Y-107578757D02*
X40900053Y-107562260D01*
X39140967Y-110150687D02*
X39137745Y-110233838D01*
X43221189Y-114254984D02*
X43210542Y-114247712D01*
X43364199Y-113528270D02*
X43363767Y-113515283D01*
X42826269Y-113904245D02*
X42805902Y-113806145D01*
X43169682Y-114183245D02*
X43170267Y-114175838D01*
X40842138Y-105813146D02*
X40822167Y-105812066D01*
X39560745Y-111749465D02*
X39578367Y-111757961D01*
X44642730Y-108443261D02*
X44622462Y-108405524D01*
X45114303Y-111998684D02*
X45112449Y-112017287D01*
X41914155Y-110064062D02*
X41882565Y-110052047D01*
X45415425Y-105828086D02*
X45435450Y-105827186D01*
X39573525Y-107903324D02*
X39515187Y-107917139D01*
X44940630Y-111806939D02*
X44959179Y-111808784D01*
X46919298Y-107940962D02*
X46319988Y-107940962D01*
X39125388Y-109312157D02*
X39129879Y-109320509D01*
X40733976Y-112489445D02*
X40541349Y-112299950D01*
X41397069Y-106243256D02*
X41346039Y-106159196D01*
X43438575Y-113486033D02*
X43443705Y-113510549D01*
X41389599Y-112967435D02*
X41158938Y-112824020D01*
X38925291Y-110507663D02*
X38839251Y-110556839D01*
X46803828Y-111753461D02*
X46715988Y-111758789D01*
X46379478Y-108048197D02*
X46489728Y-108273683D01*
X42766995Y-113618207D02*
X42761280Y-113590820D01*
X43206150Y-112952738D02*
X43205178Y-112930175D01*
X43002831Y-112895849D02*
X43004928Y-112916207D01*
X46324848Y-112185983D02*
X46312698Y-112201508D01*
X46092198Y-106880906D02*
X45935328Y-107395976D01*
X39906444Y-107489990D02*
X39906444Y-107489990D01*
X45784128Y-105976316D02*
X45861348Y-106031396D01*
X40344474Y-113625920D02*
X40369881Y-113644622D01*
X44847507Y-107022386D02*
X44834862Y-106954526D01*
X39954981Y-109522712D02*
X39999657Y-109220645D01*
X46489728Y-108273683D02*
X46584588Y-108507611D01*
X40469880Y-107304446D02*
X40637406Y-107134166D01*
X45281595Y-112754396D02*
X45044382Y-112912013D01*
X42892680Y-114171050D02*
X42890817Y-114171050D01*
X40939068Y-113790926D02*
X41011869Y-113734577D01*
X46111908Y-106833206D02*
X46077078Y-106922216D01*
X38843994Y-109091009D02*
X38929737Y-109140824D01*
X40028664Y-106546556D02*
X40059768Y-106633136D01*
X46312698Y-112201508D02*
X46280748Y-112243115D01*
X40563813Y-113773736D02*
X40683738Y-113829482D01*
X38858007Y-111703997D02*
X38881254Y-111719234D01*
X43206492Y-112923002D02*
X43207419Y-112919726D01*
X46771608Y-109253513D02*
X46799328Y-109514702D01*
X40147599Y-107159996D02*
X40100979Y-107228846D01*
X43441599Y-113837933D02*
X43414014Y-113891852D01*
X45013476Y-111829448D02*
X45070068Y-111876509D01*
X42379689Y-112303712D02*
X41860641Y-113202785D01*
X46579728Y-107842826D02*
X46622838Y-107892623D01*
X42959712Y-113882276D02*
X42981978Y-113880521D01*
X44829201Y-112166552D02*
X44772600Y-112119482D01*
X43205178Y-112930175D02*
X43206492Y-112923002D01*
X39049950Y-110422019D02*
X39543555Y-110050589D01*
X40013175Y-106409666D02*
X40012401Y-106465466D01*
X42567240Y-112203911D02*
X42538431Y-112238138D01*
X45762456Y-111594728D02*
X45923268Y-111324710D01*
X44378265Y-109209089D02*
X44383791Y-109242434D01*
X38560692Y-110887499D02*
X38575443Y-111019052D01*
X41871774Y-113614985D02*
X41874267Y-113615723D01*
X43216401Y-112816064D02*
X43285845Y-112747799D01*
X39515187Y-107917139D02*
X39427338Y-107922458D01*
X38647263Y-111273590D02*
X38656794Y-111303659D01*
X42799314Y-112934711D02*
X42805074Y-112908395D01*
X47608428Y-110742437D02*
X47640558Y-110788040D01*
X46254558Y-107831837D02*
X46379478Y-108048197D01*
X41849607Y-110024660D02*
X41829339Y-109986914D01*
X41425140Y-106475636D02*
X41422557Y-106396796D01*
X38583975Y-108627302D02*
X38567964Y-108758594D01*
X42906387Y-112901069D02*
X42925881Y-112889648D01*
X41751561Y-112707326D02*
X41436813Y-112535111D01*
X40742814Y-108351326D02*
X40761075Y-108353171D01*
X43087449Y-112377890D02*
X43052925Y-112385009D01*
X40012401Y-106465466D02*
X40028664Y-106546556D01*
X39139743Y-109805024D02*
X39139113Y-109824761D01*
X45356052Y-105843296D02*
X45415425Y-105828086D01*
X40992969Y-105867776D02*
X40901412Y-105828626D01*
X40940139Y-112664450D02*
X40733976Y-112489445D01*
X41994381Y-111064403D02*
X42006387Y-111032813D01*
X43190580Y-113019050D02*
X43205466Y-113004047D01*
X45042816Y-112146725D02*
X44977980Y-112181582D01*
X44729643Y-108260246D02*
X44740479Y-108261371D01*
X41819241Y-113177432D02*
X41631303Y-113093696D01*
X43368555Y-112940138D02*
X43382127Y-113013965D01*
X42574566Y-114439358D02*
X43612689Y-114439358D01*
X44716656Y-109897661D02*
X44513526Y-111049607D01*
X38896293Y-111729098D02*
X38949168Y-111747071D01*
X42806154Y-112904588D02*
X42820365Y-112896434D01*
X43360644Y-113494088D02*
X43356207Y-113472848D01*
X40447065Y-113699765D02*
X40563813Y-113773736D01*
X41436813Y-112535111D02*
X41139156Y-112324709D01*
X45059619Y-112353608D02*
X45283980Y-112160936D01*
X42744378Y-113579345D02*
X42711078Y-113570264D01*
X43005369Y-114092084D02*
X42996576Y-114106007D01*
X41874267Y-113615723D02*
X41888478Y-113619926D01*
X42848391Y-112895111D02*
X42878415Y-112898585D01*
X43407381Y-113270357D02*
X43413663Y-113334419D01*
X41382381Y-113470310D02*
X41391705Y-113468600D01*
X44161374Y-109220024D02*
X44173344Y-109188425D01*
X47091288Y-109870949D02*
X47089848Y-109923437D01*
X41757951Y-109311473D02*
X41992815Y-109596674D01*
X46296588Y-107453963D02*
X46328358Y-107495750D01*
X42925881Y-112889648D02*
X42943269Y-112864601D01*
X43357413Y-113556890D02*
X43363425Y-113532419D01*
X43648779Y-112238138D02*
X43620015Y-112203911D01*
X47089038Y-109615826D02*
X47089308Y-109703711D01*
X46240338Y-106430096D02*
X46240788Y-106485896D01*
X45070599Y-106008176D02*
X45166845Y-105938246D01*
X43211028Y-112906100D02*
X43213665Y-112907090D01*
X43218840Y-113116412D02*
X43168449Y-113110112D01*
X38961867Y-107901560D02*
X38908893Y-107919182D01*
X41631303Y-113093696D02*
X41389599Y-112967435D01*
X47091468Y-109831448D02*
X47092008Y-109851221D01*
X38567964Y-108758594D02*
X38574363Y-108845111D01*
X42006387Y-111032813D02*
X42033792Y-110999846D01*
X43158594Y-114183146D02*
X43155417Y-114181985D01*
X47090838Y-110260010D02*
X47096418Y-110325638D01*
X43620015Y-112203911D02*
X43612689Y-112191212D01*
X44271876Y-109129736D02*
X44282712Y-109130861D01*
X41273337Y-106075136D02*
X41185740Y-105995486D01*
X43363767Y-113515283D02*
X43360644Y-113494088D01*
X46670358Y-107926562D02*
X46728588Y-107940773D01*
X40363086Y-112096721D02*
X40200051Y-111880613D01*
X43414014Y-113891852D02*
X43386276Y-113945699D01*
X42300390Y-107980760D02*
X41938329Y-108288524D01*
X44271480Y-111998000D02*
X44772411Y-111998000D01*
X41870649Y-113410352D02*
X41860641Y-113427785D01*
X47544348Y-108282269D02*
X47574408Y-108372260D01*
X44331843Y-113623922D02*
X44331843Y-113623922D01*
X45426369Y-107657372D02*
X45369192Y-107599799D01*
X44325093Y-109143902D02*
X44358006Y-109171334D01*
X41212695Y-106694786D02*
X41372850Y-106602266D01*
X44282712Y-109130861D02*
X44293503Y-109131932D01*
X40017918Y-106392296D02*
X40013175Y-106409666D01*
X41485404Y-113488139D02*
X41564892Y-113511089D01*
X46816428Y-107946632D02*
X46911828Y-107941601D01*
X46034688Y-112608785D02*
X46031988Y-112628126D01*
X42679155Y-113560499D02*
X42665916Y-113549762D01*
X39890766Y-112164500D02*
X39890766Y-112164500D01*
X39551754Y-109526708D02*
X39576270Y-109269920D01*
X47663238Y-108874946D02*
X47653248Y-108900875D01*
X39427338Y-107922458D02*
X39331974Y-107916797D01*
X46094448Y-106213826D02*
X46183548Y-106311656D01*
X46842618Y-111754883D02*
X46257618Y-111696185D01*
X45112449Y-112017287D02*
X45110541Y-112035836D01*
X47493318Y-108153758D02*
X47544348Y-108282269D01*
X40161027Y-106194836D02*
X40070901Y-106291676D01*
X41421288Y-106904666D02*
X41425095Y-106855526D01*
X43363425Y-113532419D02*
X43364199Y-113528270D01*
X42976614Y-114192920D02*
X42970116Y-114192920D01*
X42104100Y-111198737D02*
X42093318Y-111197657D01*
X43015224Y-114089015D02*
X43009428Y-114090770D01*
X42998925Y-112864601D02*
X43002831Y-112895849D01*
X44296482Y-113315285D02*
X44316606Y-113220164D01*
X39077337Y-109249220D02*
X39116118Y-109294922D01*
X43025628Y-112397510D02*
X43004829Y-112415726D01*
X43151466Y-112375586D02*
X43129830Y-112375586D01*
X44616990Y-108372170D02*
X44618070Y-108361370D01*
X43002687Y-112954448D02*
X42992094Y-112985939D01*
X42175191Y-111172952D02*
X42137454Y-111193211D01*
X46217928Y-113266307D02*
X46213248Y-113283686D01*
X40576701Y-108450299D02*
X40622907Y-108394724D01*
X44164650Y-109274996D02*
X44159178Y-109241651D01*
X43239504Y-113116412D02*
X43235688Y-113116412D01*
X41860641Y-113202785D02*
X41870649Y-113220164D01*
X42898629Y-114171050D02*
X42892680Y-114171050D01*
X43253175Y-114246587D02*
X43231845Y-114254984D01*
X41428713Y-106671026D02*
X41427444Y-106570136D01*
X40941840Y-107521976D02*
X40997415Y-107468903D01*
X45020649Y-106627376D02*
X45231204Y-106761656D01*
X42748977Y-113165282D02*
X42763863Y-113096927D01*
X41947419Y-109842770D02*
X41958201Y-109843850D01*
X44316606Y-113410352D02*
X44296482Y-113315285D01*
X42891753Y-113524175D02*
X42892680Y-113528765D01*
X46031988Y-112628126D02*
X46036488Y-112687886D01*
X39139113Y-109824761D02*
X39139113Y-109824761D01*
X44260302Y-109353278D02*
X44249466Y-109352144D01*
X41890764Y-113315285D02*
X41870649Y-113410352D01*
X43347063Y-113430863D02*
X43333644Y-113355560D01*
X40813662Y-113847995D02*
X40866987Y-113831444D01*
X45110541Y-112035836D02*
X45089895Y-112090133D01*
X46053768Y-107095916D02*
X46067268Y-107122916D01*
X44382720Y-109253270D02*
X44381595Y-109264061D01*
X44815476Y-113479787D02*
X44785587Y-113484224D01*
X42782025Y-113013821D02*
X42799314Y-112934711D01*
X40929780Y-108559676D02*
X40927926Y-108577883D01*
X42047418Y-109965188D02*
X42046293Y-109975970D01*
X41279394Y-107206346D02*
X41290140Y-107197166D01*
X46514658Y-111216899D02*
X46391268Y-111476171D01*
X43112064Y-113886371D02*
X43159080Y-113891411D01*
X40622907Y-108394724D02*
X40686564Y-108360551D01*
X43353318Y-113460014D02*
X43352490Y-113455757D01*
X45692724Y-107980760D02*
X42300390Y-107980760D01*
X46340418Y-107511473D02*
X46340418Y-107511473D01*
X42191067Y-111015722D02*
X42211326Y-111053459D01*
X43893750Y-111086426D02*
X42189303Y-111086426D01*
X44772600Y-112119482D02*
X44737743Y-112054637D01*
X43168449Y-113110112D02*
X43122063Y-113096333D01*
X45055614Y-107298416D02*
X45000057Y-107246756D01*
X42216789Y-111086813D02*
X42215718Y-111097658D01*
X47199828Y-107919290D02*
X47281908Y-107928857D01*
X44785587Y-113484224D02*
X44721291Y-113498777D01*
X44737743Y-112054637D02*
X44728365Y-111997307D01*
X43612689Y-114439358D02*
X43620015Y-114426614D01*
X42966399Y-113123234D02*
X42965625Y-113127347D01*
X45861798Y-113644046D02*
X45836508Y-113662883D01*
X47092008Y-109851221D02*
X47092008Y-109851221D01*
X39073674Y-110400248D02*
X39005769Y-110456201D01*
X44331492Y-113248001D02*
X44262840Y-113270078D01*
X43122063Y-113096333D02*
X43075056Y-113082527D01*
X47612928Y-111182573D02*
X47584308Y-111272996D01*
X42898575Y-113553128D02*
X42909132Y-113628026D01*
X45089895Y-112090133D02*
X45042816Y-112146725D01*
X43273092Y-113757176D02*
X43303215Y-113692970D01*
X39233442Y-107906015D02*
X39136026Y-107895953D01*
X42022704Y-109883252D02*
X42042963Y-109920998D01*
X39554778Y-110078075D02*
X39543555Y-109861427D01*
X44006394Y-111480761D02*
X40396386Y-111480761D01*
X45963678Y-113569283D02*
X45887448Y-113625632D01*
X46391268Y-111476171D02*
X46248618Y-111723923D01*
X46759728Y-110379296D02*
X46699878Y-110667485D01*
X47104428Y-109346636D02*
X47099478Y-109376408D01*
X39651465Y-111833147D02*
X39702486Y-111898775D01*
X44068314Y-112876760D02*
X44157513Y-112849760D01*
X41379825Y-107081876D02*
X41401902Y-107011316D01*
X43216401Y-112385009D02*
X43151466Y-112375586D01*
X39950544Y-107432813D02*
X39918549Y-107474411D01*
X42959964Y-112839500D02*
X42977874Y-112828124D01*
X41883150Y-113202146D02*
X41819241Y-113177432D01*
X46077078Y-106922216D02*
X46054938Y-107007356D01*
X44751261Y-108262451D02*
X44782869Y-108274457D01*
X42965625Y-113127347D02*
X42958056Y-113152097D01*
X38656794Y-111303659D02*
X38686818Y-111393650D01*
X40877445Y-107584373D02*
X40883007Y-107578757D01*
X39141786Y-109972208D02*
X39142137Y-110060165D01*
X42885354Y-114158198D02*
X42874707Y-114121919D01*
X43353219Y-112902050D02*
X43362300Y-112911815D01*
X40267479Y-106106726D02*
X40161027Y-106194836D01*
X38622756Y-108933500D02*
X38683542Y-108989552D01*
X45861348Y-106031396D02*
X45886728Y-106050116D01*
X40138914Y-106813586D02*
X40173195Y-106902776D01*
X44618070Y-108361370D02*
X44619141Y-108350534D01*
X38584182Y-108871094D02*
X38590527Y-108887888D01*
X39427932Y-107928965D02*
X39987507Y-107980760D01*
D11*
X67704523Y-84859523D02*
X67704523Y-84617619D01*
X67765000Y-84496666D01*
X67885952Y-84375714D01*
X68127857Y-84315238D01*
X68551190Y-84315238D01*
X68793095Y-84375714D01*
X68914047Y-84496666D01*
X68974523Y-84617619D01*
X68974523Y-84859523D01*
X68914047Y-84980476D01*
X68793095Y-85101428D01*
X68551190Y-85161904D01*
X68127857Y-85161904D01*
X67885952Y-85101428D01*
X67765000Y-84980476D01*
X67704523Y-84859523D01*
X68309285Y-83347619D02*
X68309285Y-83770952D01*
X68974523Y-83770952D02*
X67704523Y-83770952D01*
X67704523Y-83166190D01*
X68309285Y-82259047D02*
X68309285Y-82682380D01*
X68974523Y-82682380D02*
X67704523Y-82682380D01*
X67704523Y-82077619D01*
D10*
X34319047Y-93621428D02*
X35080952Y-93621428D01*
D11*
X74854523Y-84436190D02*
X74854523Y-84194285D01*
X74915000Y-84073333D01*
X75035952Y-83952380D01*
X75277857Y-83891904D01*
X75701190Y-83891904D01*
X75943095Y-83952380D01*
X76064047Y-84073333D01*
X76124523Y-84194285D01*
X76124523Y-84436190D01*
X76064047Y-84557142D01*
X75943095Y-84678095D01*
X75701190Y-84738571D01*
X75277857Y-84738571D01*
X75035952Y-84678095D01*
X74915000Y-84557142D01*
X74854523Y-84436190D01*
X76124523Y-83347619D02*
X74854523Y-83347619D01*
X76124523Y-82621904D01*
X74854523Y-82621904D01*
D12*
X107652380Y-104697619D02*
X107861904Y-104697619D01*
X107966666Y-104750000D01*
X108071428Y-104854761D01*
X108123809Y-105064285D01*
X108123809Y-105430952D01*
X108071428Y-105640476D01*
X107966666Y-105745238D01*
X107861904Y-105797619D01*
X107652380Y-105797619D01*
X107547619Y-105745238D01*
X107442857Y-105640476D01*
X107390476Y-105430952D01*
X107390476Y-105064285D01*
X107442857Y-104854761D01*
X107547619Y-104750000D01*
X107652380Y-104697619D01*
X108961904Y-105221428D02*
X108595238Y-105221428D01*
X108595238Y-105797619D02*
X108595238Y-104697619D01*
X109119047Y-104697619D01*
X109904761Y-105221428D02*
X109538095Y-105221428D01*
X109538095Y-105797619D02*
X109538095Y-104697619D01*
X110061904Y-104697619D01*
D11*
X71113809Y-112954523D02*
X71355714Y-112954523D01*
X71476666Y-113015000D01*
X71597619Y-113135952D01*
X71658095Y-113377857D01*
X71658095Y-113801190D01*
X71597619Y-114043095D01*
X71476666Y-114164047D01*
X71355714Y-114224523D01*
X71113809Y-114224523D01*
X70992857Y-114164047D01*
X70871904Y-114043095D01*
X70811428Y-113801190D01*
X70811428Y-113377857D01*
X70871904Y-113135952D01*
X70992857Y-113015000D01*
X71113809Y-112954523D01*
X72202380Y-114224523D02*
X72202380Y-112954523D01*
X72928095Y-114224523D01*
X72928095Y-112954523D01*
D10*
X35888095Y-83211904D02*
X35888095Y-82678571D01*
X35888095Y-82411904D02*
X35850000Y-82450000D01*
X35888095Y-82488095D01*
X35926190Y-82450000D01*
X35888095Y-82411904D01*
X35888095Y-82488095D01*
X36154761Y-82678571D02*
X36459523Y-82678571D01*
X36269047Y-82411904D02*
X36269047Y-83097619D01*
X36307142Y-83173809D01*
X36383333Y-83211904D01*
X36459523Y-83211904D01*
X37259523Y-82678571D02*
X37411904Y-83211904D01*
X37564285Y-82830952D01*
X37716666Y-83211904D01*
X37869047Y-82678571D01*
X38288095Y-83211904D02*
X38211904Y-83173809D01*
X38173809Y-83135714D01*
X38135714Y-83059523D01*
X38135714Y-82830952D01*
X38173809Y-82754761D01*
X38211904Y-82716666D01*
X38288095Y-82678571D01*
X38402380Y-82678571D01*
X38478571Y-82716666D01*
X38516666Y-82754761D01*
X38554761Y-82830952D01*
X38554761Y-83059523D01*
X38516666Y-83135714D01*
X38478571Y-83173809D01*
X38402380Y-83211904D01*
X38288095Y-83211904D01*
X38897619Y-82678571D02*
X38897619Y-83211904D01*
X38897619Y-82754761D02*
X38935714Y-82716666D01*
X39011904Y-82678571D01*
X39126190Y-82678571D01*
X39202380Y-82716666D01*
X39240476Y-82792857D01*
X39240476Y-83211904D01*
X39507142Y-82678571D02*
X39811904Y-82678571D01*
X39621428Y-82411904D02*
X39621428Y-83097619D01*
X39659523Y-83173809D01*
X39735714Y-83211904D01*
X39811904Y-83211904D01*
X41030952Y-83173809D02*
X40954761Y-83211904D01*
X40802380Y-83211904D01*
X40726190Y-83173809D01*
X40688095Y-83135714D01*
X40650000Y-83059523D01*
X40650000Y-82830952D01*
X40688095Y-82754761D01*
X40726190Y-82716666D01*
X40802380Y-82678571D01*
X40954761Y-82678571D01*
X41030952Y-82716666D01*
X41716666Y-83211904D02*
X41716666Y-82792857D01*
X41678571Y-82716666D01*
X41602380Y-82678571D01*
X41450000Y-82678571D01*
X41373809Y-82716666D01*
X41716666Y-83173809D02*
X41640476Y-83211904D01*
X41450000Y-83211904D01*
X41373809Y-83173809D01*
X41335714Y-83097619D01*
X41335714Y-83021428D01*
X41373809Y-82945238D01*
X41450000Y-82907142D01*
X41640476Y-82907142D01*
X41716666Y-82869047D01*
X41983333Y-82678571D02*
X42288095Y-82678571D01*
X42097619Y-82411904D02*
X42097619Y-83097619D01*
X42135714Y-83173809D01*
X42211904Y-83211904D01*
X42288095Y-83211904D01*
X42897619Y-83173809D02*
X42821428Y-83211904D01*
X42669047Y-83211904D01*
X42592857Y-83173809D01*
X42554761Y-83135714D01*
X42516666Y-83059523D01*
X42516666Y-82830952D01*
X42554761Y-82754761D01*
X42592857Y-82716666D01*
X42669047Y-82678571D01*
X42821428Y-82678571D01*
X42897619Y-82716666D01*
X43240476Y-83211904D02*
X43240476Y-82411904D01*
X43583333Y-83211904D02*
X43583333Y-82792857D01*
X43545238Y-82716666D01*
X43469047Y-82678571D01*
X43354761Y-82678571D01*
X43278571Y-82716666D01*
X43240476Y-82754761D01*
X44459523Y-82678571D02*
X44764285Y-82678571D01*
X44573809Y-83211904D02*
X44573809Y-82526190D01*
X44611904Y-82450000D01*
X44688095Y-82411904D01*
X44764285Y-82411904D01*
X45030952Y-83211904D02*
X45030952Y-82678571D01*
X45030952Y-82411904D02*
X44992857Y-82450000D01*
X45030952Y-82488095D01*
X45069047Y-82450000D01*
X45030952Y-82411904D01*
X45030952Y-82488095D01*
X45411904Y-83211904D02*
X45411904Y-82678571D01*
X45411904Y-82830952D02*
X45449999Y-82754761D01*
X45488095Y-82716666D01*
X45564285Y-82678571D01*
X45640476Y-82678571D01*
X46211904Y-83173809D02*
X46135714Y-83211904D01*
X45983333Y-83211904D01*
X45907142Y-83173809D01*
X45869047Y-83097619D01*
X45869047Y-82792857D01*
X45907142Y-82716666D01*
X45983333Y-82678571D01*
X46135714Y-82678571D01*
X46211904Y-82716666D01*
X46249999Y-82792857D01*
X46249999Y-82869047D01*
X45869047Y-82945238D01*
X34319047Y-102571428D02*
X35080952Y-102571428D01*
D12*
X69414285Y-118542857D02*
X70100000Y-118542857D01*
X69757142Y-119742857D02*
X69757142Y-118542857D01*
X70500000Y-119114285D02*
X70900000Y-119114285D01*
X71071428Y-119742857D02*
X70500000Y-119742857D01*
X70500000Y-118542857D01*
X71071428Y-118542857D01*
X71528571Y-119400000D02*
X72100000Y-119400000D01*
X71414285Y-119742857D02*
X71814285Y-118542857D01*
X72214285Y-119742857D01*
X72614285Y-119742857D02*
X72614285Y-118542857D01*
X73014285Y-119400000D01*
X73414285Y-118542857D01*
X73414285Y-119742857D01*
X75300000Y-119114285D02*
X75471428Y-119171428D01*
X75528571Y-119228571D01*
X75585714Y-119342857D01*
X75585714Y-119514285D01*
X75528571Y-119628571D01*
X75471428Y-119685714D01*
X75357142Y-119742857D01*
X74900000Y-119742857D01*
X74900000Y-118542857D01*
X75300000Y-118542857D01*
X75414285Y-118600000D01*
X75471428Y-118657142D01*
X75528571Y-118771428D01*
X75528571Y-118885714D01*
X75471428Y-119000000D01*
X75414285Y-119057142D01*
X75300000Y-119114285D01*
X74900000Y-119114285D01*
X76100000Y-118542857D02*
X76100000Y-119514285D01*
X76157142Y-119628571D01*
X76214285Y-119685714D01*
X76328571Y-119742857D01*
X76557142Y-119742857D01*
X76671428Y-119685714D01*
X76728571Y-119628571D01*
X76785714Y-119514285D01*
X76785714Y-118542857D01*
X78042857Y-119628571D02*
X77985714Y-119685714D01*
X77814285Y-119742857D01*
X77700000Y-119742857D01*
X77528571Y-119685714D01*
X77414285Y-119571428D01*
X77357142Y-119457142D01*
X77300000Y-119228571D01*
X77300000Y-119057142D01*
X77357142Y-118828571D01*
X77414285Y-118714285D01*
X77528571Y-118600000D01*
X77700000Y-118542857D01*
X77814285Y-118542857D01*
X77985714Y-118600000D01*
X78042857Y-118657142D01*
X78557142Y-119742857D02*
X78557142Y-118542857D01*
X79242857Y-119742857D02*
X78728571Y-119057142D01*
X79242857Y-118542857D02*
X78557142Y-119228571D01*
X79985714Y-119171428D02*
X79985714Y-119742857D01*
X79585714Y-118542857D02*
X79985714Y-119171428D01*
X80385714Y-118542857D01*
D13*
X94942857Y-82978571D02*
X95800000Y-82978571D01*
X95371428Y-84478571D02*
X95371428Y-82978571D01*
X96300000Y-83692857D02*
X96800000Y-83692857D01*
X97014285Y-84478571D02*
X96300000Y-84478571D01*
X96300000Y-82978571D01*
X97014285Y-82978571D01*
X97585714Y-84050000D02*
X98300000Y-84050000D01*
X97442857Y-84478571D02*
X97942857Y-82978571D01*
X98442857Y-84478571D01*
X98942857Y-84478571D02*
X98942857Y-82978571D01*
X99442857Y-84050000D01*
X99942857Y-82978571D01*
X99942857Y-84478571D01*
X102300000Y-83692857D02*
X102514285Y-83764285D01*
X102585714Y-83835714D01*
X102657142Y-83978571D01*
X102657142Y-84192857D01*
X102585714Y-84335714D01*
X102514285Y-84407142D01*
X102371428Y-84478571D01*
X101800000Y-84478571D01*
X101800000Y-82978571D01*
X102300000Y-82978571D01*
X102442857Y-83050000D01*
X102514285Y-83121428D01*
X102585714Y-83264285D01*
X102585714Y-83407142D01*
X102514285Y-83550000D01*
X102442857Y-83621428D01*
X102300000Y-83692857D01*
X101800000Y-83692857D01*
X103300000Y-82978571D02*
X103300000Y-84192857D01*
X103371428Y-84335714D01*
X103442857Y-84407142D01*
X103585714Y-84478571D01*
X103871428Y-84478571D01*
X104014285Y-84407142D01*
X104085714Y-84335714D01*
X104157142Y-84192857D01*
X104157142Y-82978571D01*
X105728571Y-84335714D02*
X105657142Y-84407142D01*
X105442857Y-84478571D01*
X105300000Y-84478571D01*
X105085714Y-84407142D01*
X104942857Y-84264285D01*
X104871428Y-84121428D01*
X104800000Y-83835714D01*
X104800000Y-83621428D01*
X104871428Y-83335714D01*
X104942857Y-83192857D01*
X105085714Y-83050000D01*
X105300000Y-82978571D01*
X105442857Y-82978571D01*
X105657142Y-83050000D01*
X105728571Y-83121428D01*
X106371428Y-84478571D02*
X106371428Y-82978571D01*
X107228571Y-84478571D02*
X106585714Y-83621428D01*
X107228571Y-82978571D02*
X106371428Y-83835714D01*
X108157142Y-83764285D02*
X108157142Y-84478571D01*
X107657142Y-82978571D02*
X108157142Y-83764285D01*
X108657142Y-82978571D01*
D14*
X48484500Y-110623000D02*
X48584500Y-110656333D01*
X48617833Y-110689666D01*
X48651166Y-110756333D01*
X48651166Y-110856333D01*
X48617833Y-110923000D01*
X48584500Y-110956333D01*
X48517833Y-110989666D01*
X48251166Y-110989666D01*
X48251166Y-110289666D01*
X48484500Y-110289666D01*
X48551166Y-110323000D01*
X48584500Y-110356333D01*
X48617833Y-110423000D01*
X48617833Y-110489666D01*
X48584500Y-110556333D01*
X48551166Y-110589666D01*
X48484500Y-110623000D01*
X48251166Y-110623000D01*
X48951166Y-110289666D02*
X48951166Y-110856333D01*
X48984500Y-110923000D01*
X49017833Y-110956333D01*
X49084500Y-110989666D01*
X49217833Y-110989666D01*
X49284500Y-110956333D01*
X49317833Y-110923000D01*
X49351166Y-110856333D01*
X49351166Y-110289666D01*
X50084500Y-110923000D02*
X50051166Y-110956333D01*
X49951166Y-110989666D01*
X49884500Y-110989666D01*
X49784500Y-110956333D01*
X49717833Y-110889666D01*
X49684500Y-110823000D01*
X49651166Y-110689666D01*
X49651166Y-110589666D01*
X49684500Y-110456333D01*
X49717833Y-110389666D01*
X49784500Y-110323000D01*
X49884500Y-110289666D01*
X49951166Y-110289666D01*
X50051166Y-110323000D01*
X50084500Y-110356333D01*
X50384500Y-110989666D02*
X50384500Y-110289666D01*
X50784500Y-110989666D02*
X50484500Y-110589666D01*
X50784500Y-110289666D02*
X50384500Y-110689666D01*
X51217833Y-110656333D02*
X51217833Y-110989666D01*
X50984500Y-110289666D02*
X51217833Y-110656333D01*
X51451166Y-110289666D01*
X52217833Y-110989666D02*
X52217833Y-110289666D01*
X52484500Y-110289666D01*
X52551166Y-110323000D01*
X52584500Y-110356333D01*
X52617833Y-110423000D01*
X52617833Y-110523000D01*
X52584500Y-110589666D01*
X52551166Y-110623000D01*
X52484500Y-110656333D01*
X52217833Y-110656333D01*
X53051166Y-110289666D02*
X53184500Y-110289666D01*
X53251166Y-110323000D01*
X53317833Y-110389666D01*
X53351166Y-110523000D01*
X53351166Y-110756333D01*
X53317833Y-110889666D01*
X53251166Y-110956333D01*
X53184500Y-110989666D01*
X53051166Y-110989666D01*
X52984500Y-110956333D01*
X52917833Y-110889666D01*
X52884500Y-110756333D01*
X52884500Y-110523000D01*
X52917833Y-110389666D01*
X52984500Y-110323000D01*
X53051166Y-110289666D01*
X53584500Y-110289666D02*
X53751166Y-110989666D01*
X53884500Y-110489666D01*
X54017833Y-110989666D01*
X54184500Y-110289666D01*
X54451166Y-110623000D02*
X54684500Y-110623000D01*
X54784500Y-110989666D02*
X54451166Y-110989666D01*
X54451166Y-110289666D01*
X54784500Y-110289666D01*
X55484500Y-110989666D02*
X55251166Y-110656333D01*
X55084500Y-110989666D02*
X55084500Y-110289666D01*
X55351166Y-110289666D01*
X55417833Y-110323000D01*
X55451166Y-110356333D01*
X55484500Y-110423000D01*
X55484500Y-110523000D01*
X55451166Y-110589666D01*
X55417833Y-110623000D01*
X55351166Y-110656333D01*
X55084500Y-110656333D01*
X56317833Y-110989666D02*
X56317833Y-110289666D01*
X56584500Y-110289666D01*
X56651166Y-110323000D01*
X56684500Y-110356333D01*
X56717833Y-110423000D01*
X56717833Y-110523000D01*
X56684500Y-110589666D01*
X56651166Y-110623000D01*
X56584500Y-110656333D01*
X56317833Y-110656333D01*
X57417833Y-110989666D02*
X57184500Y-110656333D01*
X57017833Y-110989666D02*
X57017833Y-110289666D01*
X57284500Y-110289666D01*
X57351166Y-110323000D01*
X57384500Y-110356333D01*
X57417833Y-110423000D01*
X57417833Y-110523000D01*
X57384500Y-110589666D01*
X57351166Y-110623000D01*
X57284500Y-110656333D01*
X57017833Y-110656333D01*
X57851166Y-110289666D02*
X57984500Y-110289666D01*
X58051166Y-110323000D01*
X58117833Y-110389666D01*
X58151166Y-110523000D01*
X58151166Y-110756333D01*
X58117833Y-110889666D01*
X58051166Y-110956333D01*
X57984500Y-110989666D01*
X57851166Y-110989666D01*
X57784500Y-110956333D01*
X57717833Y-110889666D01*
X57684500Y-110756333D01*
X57684500Y-110523000D01*
X57717833Y-110389666D01*
X57784500Y-110323000D01*
X57851166Y-110289666D01*
X58351166Y-110289666D02*
X58751166Y-110289666D01*
X58551166Y-110989666D02*
X58551166Y-110289666D01*
X58984500Y-110623000D02*
X59217833Y-110623000D01*
X59317833Y-110989666D02*
X58984500Y-110989666D01*
X58984500Y-110289666D01*
X59317833Y-110289666D01*
X60017833Y-110923000D02*
X59984500Y-110956333D01*
X59884500Y-110989666D01*
X59817833Y-110989666D01*
X59717833Y-110956333D01*
X59651166Y-110889666D01*
X59617833Y-110823000D01*
X59584500Y-110689666D01*
X59584500Y-110589666D01*
X59617833Y-110456333D01*
X59651166Y-110389666D01*
X59717833Y-110323000D01*
X59817833Y-110289666D01*
X59884500Y-110289666D01*
X59984500Y-110323000D01*
X60017833Y-110356333D01*
X60217833Y-110289666D02*
X60617833Y-110289666D01*
X60417833Y-110989666D02*
X60417833Y-110289666D01*
X60851166Y-110989666D02*
X60851166Y-110289666D01*
X61317833Y-110289666D02*
X61451166Y-110289666D01*
X61517833Y-110323000D01*
X61584500Y-110389666D01*
X61617833Y-110523000D01*
X61617833Y-110756333D01*
X61584500Y-110889666D01*
X61517833Y-110956333D01*
X61451166Y-110989666D01*
X61317833Y-110989666D01*
X61251166Y-110956333D01*
X61184500Y-110889666D01*
X61151166Y-110756333D01*
X61151166Y-110523000D01*
X61184500Y-110389666D01*
X61251166Y-110323000D01*
X61317833Y-110289666D01*
X61917833Y-110989666D02*
X61917833Y-110289666D01*
X62317833Y-110989666D01*
X62317833Y-110289666D01*
X63417833Y-110623000D02*
X63517833Y-110656333D01*
X63551166Y-110689666D01*
X63584500Y-110756333D01*
X63584500Y-110856333D01*
X63551166Y-110923000D01*
X63517833Y-110956333D01*
X63451166Y-110989666D01*
X63184500Y-110989666D01*
X63184500Y-110289666D01*
X63417833Y-110289666D01*
X63484500Y-110323000D01*
X63517833Y-110356333D01*
X63551166Y-110423000D01*
X63551166Y-110489666D01*
X63517833Y-110556333D01*
X63484500Y-110589666D01*
X63417833Y-110623000D01*
X63184500Y-110623000D01*
X64017833Y-110289666D02*
X64151166Y-110289666D01*
X64217833Y-110323000D01*
X64284500Y-110389666D01*
X64317833Y-110523000D01*
X64317833Y-110756333D01*
X64284500Y-110889666D01*
X64217833Y-110956333D01*
X64151166Y-110989666D01*
X64017833Y-110989666D01*
X63951166Y-110956333D01*
X63884500Y-110889666D01*
X63851166Y-110756333D01*
X63851166Y-110523000D01*
X63884500Y-110389666D01*
X63951166Y-110323000D01*
X64017833Y-110289666D01*
X64584500Y-110789666D02*
X64917833Y-110789666D01*
X64517833Y-110989666D02*
X64751166Y-110289666D01*
X64984500Y-110989666D01*
X65617833Y-110989666D02*
X65384500Y-110656333D01*
X65217833Y-110989666D02*
X65217833Y-110289666D01*
X65484500Y-110289666D01*
X65551166Y-110323000D01*
X65584500Y-110356333D01*
X65617833Y-110423000D01*
X65617833Y-110523000D01*
X65584500Y-110589666D01*
X65551166Y-110623000D01*
X65484500Y-110656333D01*
X65217833Y-110656333D01*
X65917833Y-110989666D02*
X65917833Y-110289666D01*
X66084500Y-110289666D01*
X66184500Y-110323000D01*
X66251166Y-110389666D01*
X66284500Y-110456333D01*
X66317833Y-110589666D01*
X66317833Y-110689666D01*
X66284500Y-110823000D01*
X66251166Y-110889666D01*
X66184500Y-110956333D01*
X66084500Y-110989666D01*
X65917833Y-110989666D01*
X48251166Y-112116666D02*
X48251166Y-111416666D01*
X48417833Y-111416666D01*
X48517833Y-111450000D01*
X48584500Y-111516666D01*
X48617833Y-111583333D01*
X48651166Y-111716666D01*
X48651166Y-111816666D01*
X48617833Y-111950000D01*
X48584500Y-112016666D01*
X48517833Y-112083333D01*
X48417833Y-112116666D01*
X48251166Y-112116666D01*
X48951166Y-111750000D02*
X49184500Y-111750000D01*
X49284500Y-112116666D02*
X48951166Y-112116666D01*
X48951166Y-111416666D01*
X49284500Y-111416666D01*
X49551166Y-112083333D02*
X49651166Y-112116666D01*
X49817833Y-112116666D01*
X49884500Y-112083333D01*
X49917833Y-112050000D01*
X49951166Y-111983333D01*
X49951166Y-111916666D01*
X49917833Y-111850000D01*
X49884500Y-111816666D01*
X49817833Y-111783333D01*
X49684500Y-111750000D01*
X49617833Y-111716666D01*
X49584500Y-111683333D01*
X49551166Y-111616666D01*
X49551166Y-111550000D01*
X49584500Y-111483333D01*
X49617833Y-111450000D01*
X49684500Y-111416666D01*
X49851166Y-111416666D01*
X49951166Y-111450000D01*
X50251166Y-112116666D02*
X50251166Y-111416666D01*
X50951166Y-111450000D02*
X50884500Y-111416666D01*
X50784500Y-111416666D01*
X50684500Y-111450000D01*
X50617833Y-111516666D01*
X50584500Y-111583333D01*
X50551166Y-111716666D01*
X50551166Y-111816666D01*
X50584500Y-111950000D01*
X50617833Y-112016666D01*
X50684500Y-112083333D01*
X50784500Y-112116666D01*
X50851166Y-112116666D01*
X50951166Y-112083333D01*
X50984500Y-112050000D01*
X50984500Y-111816666D01*
X50851166Y-111816666D01*
X51284500Y-112116666D02*
X51284500Y-111416666D01*
X51684500Y-112116666D01*
X51684500Y-111416666D01*
X52017833Y-111750000D02*
X52251166Y-111750000D01*
X52351166Y-112116666D02*
X52017833Y-112116666D01*
X52017833Y-111416666D01*
X52351166Y-111416666D01*
X52651166Y-112116666D02*
X52651166Y-111416666D01*
X52817833Y-111416666D01*
X52917833Y-111450000D01*
X52984500Y-111516666D01*
X53017833Y-111583333D01*
X53051166Y-111716666D01*
X53051166Y-111816666D01*
X53017833Y-111950000D01*
X52984500Y-112016666D01*
X52917833Y-112083333D01*
X52817833Y-112116666D01*
X52651166Y-112116666D01*
X54117833Y-111750000D02*
X54217833Y-111783333D01*
X54251166Y-111816666D01*
X54284500Y-111883333D01*
X54284500Y-111983333D01*
X54251166Y-112050000D01*
X54217833Y-112083333D01*
X54151166Y-112116666D01*
X53884500Y-112116666D01*
X53884500Y-111416666D01*
X54117833Y-111416666D01*
X54184500Y-111450000D01*
X54217833Y-111483333D01*
X54251166Y-111550000D01*
X54251166Y-111616666D01*
X54217833Y-111683333D01*
X54184500Y-111716666D01*
X54117833Y-111750000D01*
X53884500Y-111750000D01*
X54717833Y-111783333D02*
X54717833Y-112116666D01*
X54484500Y-111416666D02*
X54717833Y-111783333D01*
X54951166Y-111416666D01*
X55717833Y-112116666D02*
X55717833Y-111416666D01*
X55984500Y-111416666D01*
X56051166Y-111450000D01*
X56084500Y-111483333D01*
X56117833Y-111550000D01*
X56117833Y-111650000D01*
X56084500Y-111716666D01*
X56051166Y-111750000D01*
X55984500Y-111783333D01*
X55717833Y-111783333D01*
X56417833Y-112116666D02*
X56417833Y-111416666D01*
X56684500Y-111416666D02*
X57151166Y-112116666D01*
X57151166Y-111416666D02*
X56684500Y-112116666D01*
X57417833Y-111750000D02*
X57651166Y-111750000D01*
X57751166Y-112116666D02*
X57417833Y-112116666D01*
X57417833Y-111416666D01*
X57751166Y-111416666D01*
X58384500Y-112116666D02*
X58051166Y-112116666D01*
X58051166Y-111416666D01*
X58817833Y-111416666D02*
X58817833Y-111916666D01*
X58784500Y-112016666D01*
X58717833Y-112083333D01*
X58617833Y-112116666D01*
X58551166Y-112116666D01*
X59284500Y-111416666D02*
X59417833Y-111416666D01*
X59484500Y-111450000D01*
X59551166Y-111516666D01*
X59584500Y-111650000D01*
X59584500Y-111883333D01*
X59551166Y-112016666D01*
X59484500Y-112083333D01*
X59417833Y-112116666D01*
X59284500Y-112116666D01*
X59217833Y-112083333D01*
X59151166Y-112016666D01*
X59117833Y-111883333D01*
X59117833Y-111650000D01*
X59151166Y-111516666D01*
X59217833Y-111450000D01*
X59284500Y-111416666D01*
X60284500Y-112050000D02*
X60251166Y-112083333D01*
X60151166Y-112116666D01*
X60084500Y-112116666D01*
X59984500Y-112083333D01*
X59917833Y-112016666D01*
X59884500Y-111950000D01*
X59851166Y-111816666D01*
X59851166Y-111716666D01*
X59884500Y-111583333D01*
X59917833Y-111516666D01*
X59984500Y-111450000D01*
X60084500Y-111416666D01*
X60151166Y-111416666D01*
X60251166Y-111450000D01*
X60284500Y-111483333D01*
X60584500Y-112116666D02*
X60584500Y-111416666D01*
X60584500Y-111750000D02*
X60984500Y-111750000D01*
X60984500Y-112116666D02*
X60984500Y-111416666D01*
X61984500Y-111416666D02*
X62051166Y-111416666D01*
X62117833Y-111450000D01*
X62151166Y-111483333D01*
X62184500Y-111550000D01*
X62217833Y-111683333D01*
X62217833Y-111850000D01*
X62184500Y-111983333D01*
X62151166Y-112050000D01*
X62117833Y-112083333D01*
X62051166Y-112116666D01*
X61984500Y-112116666D01*
X61917833Y-112083333D01*
X61884500Y-112050000D01*
X61851166Y-111983333D01*
X61817833Y-111850000D01*
X61817833Y-111683333D01*
X61851166Y-111550000D01*
X61884500Y-111483333D01*
X61917833Y-111450000D01*
X61984500Y-111416666D01*
X62884500Y-112116666D02*
X62484500Y-112116666D01*
X62684500Y-112116666D02*
X62684500Y-111416666D01*
X62617833Y-111516666D01*
X62551166Y-111583333D01*
X62484500Y-111616666D01*
X63184500Y-111850000D02*
X63717833Y-111850000D01*
X64017833Y-111483333D02*
X64051166Y-111450000D01*
X64117833Y-111416666D01*
X64284500Y-111416666D01*
X64351166Y-111450000D01*
X64384500Y-111483333D01*
X64417833Y-111550000D01*
X64417833Y-111616666D01*
X64384500Y-111716666D01*
X63984500Y-112116666D01*
X64417833Y-112116666D01*
X64851166Y-111416666D02*
X64917833Y-111416666D01*
X64984500Y-111450000D01*
X65017833Y-111483333D01*
X65051166Y-111550000D01*
X65084500Y-111683333D01*
X65084500Y-111850000D01*
X65051166Y-111983333D01*
X65017833Y-112050000D01*
X64984500Y-112083333D01*
X64917833Y-112116666D01*
X64851166Y-112116666D01*
X64784500Y-112083333D01*
X64751166Y-112050000D01*
X64717833Y-111983333D01*
X64684500Y-111850000D01*
X64684500Y-111683333D01*
X64717833Y-111550000D01*
X64751166Y-111483333D01*
X64784500Y-111450000D01*
X64851166Y-111416666D01*
X65351166Y-111483333D02*
X65384500Y-111450000D01*
X65451166Y-111416666D01*
X65617833Y-111416666D01*
X65684500Y-111450000D01*
X65717833Y-111483333D01*
X65751166Y-111550000D01*
X65751166Y-111616666D01*
X65717833Y-111716666D01*
X65317833Y-112116666D01*
X65751166Y-112116666D01*
X65984500Y-111416666D02*
X66417833Y-111416666D01*
X66184500Y-111683333D01*
X66284500Y-111683333D01*
X66351166Y-111716666D01*
X66384500Y-111750000D01*
X66417833Y-111816666D01*
X66417833Y-111983333D01*
X66384500Y-112050000D01*
X66351166Y-112083333D01*
X66284500Y-112116666D01*
X66084500Y-112116666D01*
X66017833Y-112083333D01*
X65984500Y-112050000D01*
X48151166Y-112543666D02*
X48384500Y-113243666D01*
X48617833Y-112543666D01*
X48851166Y-112977000D02*
X49384500Y-112977000D01*
X50084500Y-113243666D02*
X49684500Y-113243666D01*
X49884500Y-113243666D02*
X49884500Y-112543666D01*
X49817833Y-112643666D01*
X49751166Y-112710333D01*
X49684500Y-112743666D01*
X50384500Y-113177000D02*
X50417833Y-113210333D01*
X50384500Y-113243666D01*
X50351166Y-113210333D01*
X50384500Y-113177000D01*
X50384500Y-113243666D01*
X50851166Y-112543666D02*
X50917833Y-112543666D01*
X50984500Y-112577000D01*
X51017833Y-112610333D01*
X51051166Y-112677000D01*
X51084500Y-112810333D01*
X51084500Y-112977000D01*
X51051166Y-113110333D01*
X51017833Y-113177000D01*
X50984500Y-113210333D01*
X50917833Y-113243666D01*
X50851166Y-113243666D01*
X50784500Y-113210333D01*
X50751166Y-113177000D01*
X50717833Y-113110333D01*
X50684500Y-112977000D01*
X50684500Y-112810333D01*
X50717833Y-112677000D01*
X50751166Y-112610333D01*
X50784500Y-112577000D01*
X50851166Y-112543666D01*
D10*
X40919047Y-93621428D02*
X41680952Y-93621428D01*
X41300000Y-94002380D02*
X41300000Y-93240476D01*
D12*
X108290476Y-108297619D02*
X107766666Y-108297619D01*
X107714285Y-108821428D01*
X107766666Y-108769047D01*
X107871428Y-108716666D01*
X108133333Y-108716666D01*
X108238095Y-108769047D01*
X108290476Y-108821428D01*
X108342857Y-108926190D01*
X108342857Y-109188095D01*
X108290476Y-109292857D01*
X108238095Y-109345238D01*
X108133333Y-109397619D01*
X107871428Y-109397619D01*
X107766666Y-109345238D01*
X107714285Y-109292857D01*
X108657142Y-108297619D02*
X109023809Y-109397619D01*
X109390476Y-108297619D01*
D11*
X70690476Y-105804523D02*
X70932380Y-105804523D01*
X71053333Y-105865000D01*
X71174285Y-105985952D01*
X71234761Y-106227857D01*
X71234761Y-106651190D01*
X71174285Y-106893095D01*
X71053333Y-107014047D01*
X70932380Y-107074523D01*
X70690476Y-107074523D01*
X70569523Y-107014047D01*
X70448571Y-106893095D01*
X70388095Y-106651190D01*
X70388095Y-106227857D01*
X70448571Y-105985952D01*
X70569523Y-105865000D01*
X70690476Y-105804523D01*
X72202380Y-106409285D02*
X71779047Y-106409285D01*
X71779047Y-107074523D02*
X71779047Y-105804523D01*
X72383809Y-105804523D01*
X73290952Y-106409285D02*
X72867619Y-106409285D01*
X72867619Y-107074523D02*
X72867619Y-105804523D01*
X73472380Y-105804523D01*
D10*
X37142857Y-82111904D02*
X37142857Y-81311904D01*
X37409523Y-81883333D01*
X37676190Y-81311904D01*
X37676190Y-82111904D01*
X38171428Y-82111904D02*
X38095238Y-82073809D01*
X38057142Y-82035714D01*
X38019047Y-81959523D01*
X38019047Y-81730952D01*
X38057142Y-81654761D01*
X38095238Y-81616666D01*
X38171428Y-81578571D01*
X38285714Y-81578571D01*
X38361904Y-81616666D01*
X38400000Y-81654761D01*
X38438095Y-81730952D01*
X38438095Y-81959523D01*
X38400000Y-82035714D01*
X38361904Y-82073809D01*
X38285714Y-82111904D01*
X38171428Y-82111904D01*
X38780952Y-82111904D02*
X38780952Y-81578571D01*
X38780952Y-81654761D02*
X38819047Y-81616666D01*
X38895238Y-81578571D01*
X39009523Y-81578571D01*
X39085714Y-81616666D01*
X39123809Y-81692857D01*
X39123809Y-82111904D01*
X39123809Y-81692857D02*
X39161904Y-81616666D01*
X39238095Y-81578571D01*
X39352380Y-81578571D01*
X39428571Y-81616666D01*
X39466666Y-81692857D01*
X39466666Y-82111904D01*
X40457142Y-82111904D02*
X40457142Y-81578571D01*
X40457142Y-81311904D02*
X40419047Y-81350000D01*
X40457142Y-81388095D01*
X40495238Y-81350000D01*
X40457142Y-81311904D01*
X40457142Y-81388095D01*
X41409523Y-82073809D02*
X41485714Y-82111904D01*
X41638095Y-82111904D01*
X41714285Y-82073809D01*
X41752380Y-81997619D01*
X41752380Y-81959523D01*
X41714285Y-81883333D01*
X41638095Y-81845238D01*
X41523809Y-81845238D01*
X41447619Y-81807142D01*
X41409523Y-81730952D01*
X41409523Y-81692857D01*
X41447619Y-81616666D01*
X41523809Y-81578571D01*
X41638095Y-81578571D01*
X41714285Y-81616666D01*
X42019047Y-81578571D02*
X42171428Y-82111904D01*
X42323809Y-81730952D01*
X42476190Y-82111904D01*
X42628571Y-81578571D01*
X43238095Y-82073809D02*
X43161904Y-82111904D01*
X43009523Y-82111904D01*
X42933333Y-82073809D01*
X42895238Y-81997619D01*
X42895238Y-81692857D01*
X42933333Y-81616666D01*
X43009523Y-81578571D01*
X43161904Y-81578571D01*
X43238095Y-81616666D01*
X43276190Y-81692857D01*
X43276190Y-81769047D01*
X42895238Y-81845238D01*
X43961904Y-82111904D02*
X43961904Y-81692857D01*
X43923809Y-81616666D01*
X43847619Y-81578571D01*
X43695238Y-81578571D01*
X43619047Y-81616666D01*
X43961904Y-82073809D02*
X43885714Y-82111904D01*
X43695238Y-82111904D01*
X43619047Y-82073809D01*
X43580952Y-81997619D01*
X43580952Y-81921428D01*
X43619047Y-81845238D01*
X43695238Y-81807142D01*
X43885714Y-81807142D01*
X43961904Y-81769047D01*
X44342857Y-82111904D02*
X44342857Y-81578571D01*
X44342857Y-81730952D02*
X44380952Y-81654761D01*
X44419047Y-81616666D01*
X44495238Y-81578571D01*
X44571428Y-81578571D01*
X40919047Y-102571428D02*
X41680952Y-102571428D01*
X41300000Y-102952380D02*
X41300000Y-102190476D01*
X65652380Y-108761904D02*
X66461904Y-108761904D01*
X66557142Y-108714285D01*
X66604761Y-108666666D01*
X66652380Y-108571428D01*
X66652380Y-108380952D01*
X66604761Y-108285714D01*
X66557142Y-108238095D01*
X66461904Y-108190476D01*
X65652380Y-108190476D01*
X66652380Y-107190476D02*
X66652380Y-107761904D01*
X66652380Y-107476190D02*
X65652380Y-107476190D01*
X65795238Y-107571428D01*
X65890476Y-107666666D01*
X65938095Y-107761904D01*
D15*
X85766666Y-99961904D02*
X85500000Y-99580952D01*
X85309523Y-99961904D02*
X85309523Y-99161904D01*
X85614285Y-99161904D01*
X85690476Y-99200000D01*
X85728571Y-99238095D01*
X85766666Y-99314285D01*
X85766666Y-99428571D01*
X85728571Y-99504761D01*
X85690476Y-99542857D01*
X85614285Y-99580952D01*
X85309523Y-99580952D01*
X86147619Y-99961904D02*
X86300000Y-99961904D01*
X86376190Y-99923809D01*
X86414285Y-99885714D01*
X86490476Y-99771428D01*
X86528571Y-99619047D01*
X86528571Y-99314285D01*
X86490476Y-99238095D01*
X86452380Y-99200000D01*
X86376190Y-99161904D01*
X86223809Y-99161904D01*
X86147619Y-99200000D01*
X86109523Y-99238095D01*
X86071428Y-99314285D01*
X86071428Y-99504761D01*
X86109523Y-99580952D01*
X86147619Y-99619047D01*
X86223809Y-99657142D01*
X86376190Y-99657142D01*
X86452380Y-99619047D01*
X86490476Y-99580952D01*
X86528571Y-99504761D01*
D10*
X80552380Y-113742857D02*
X80076190Y-114076190D01*
X80552380Y-114314285D02*
X79552380Y-114314285D01*
X79552380Y-113933333D01*
X79600000Y-113838095D01*
X79647619Y-113790476D01*
X79742857Y-113742857D01*
X79885714Y-113742857D01*
X79980952Y-113790476D01*
X80028571Y-113838095D01*
X80076190Y-113933333D01*
X80076190Y-114314285D01*
X80552380Y-112790476D02*
X80552380Y-113361904D01*
X80552380Y-113076190D02*
X79552380Y-113076190D01*
X79695238Y-113171428D01*
X79790476Y-113266666D01*
X79838095Y-113361904D01*
X79552380Y-111933333D02*
X79552380Y-112123809D01*
X79600000Y-112219047D01*
X79647619Y-112266666D01*
X79790476Y-112361904D01*
X79980952Y-112409523D01*
X80361904Y-112409523D01*
X80457142Y-112361904D01*
X80504761Y-112314285D01*
X80552380Y-112219047D01*
X80552380Y-112028571D01*
X80504761Y-111933333D01*
X80457142Y-111885714D01*
X80361904Y-111838095D01*
X80123809Y-111838095D01*
X80028571Y-111885714D01*
X79980952Y-111933333D01*
X79933333Y-112028571D01*
X79933333Y-112219047D01*
X79980952Y-112314285D01*
X80028571Y-112361904D01*
X80123809Y-112409523D01*
X68057142Y-92402380D02*
X67723809Y-91926190D01*
X67485714Y-92402380D02*
X67485714Y-91402380D01*
X67866666Y-91402380D01*
X67961904Y-91450000D01*
X68009523Y-91497619D01*
X68057142Y-91592857D01*
X68057142Y-91735714D01*
X68009523Y-91830952D01*
X67961904Y-91878571D01*
X67866666Y-91926190D01*
X67485714Y-91926190D01*
X69009523Y-92402380D02*
X68438095Y-92402380D01*
X68723809Y-92402380D02*
X68723809Y-91402380D01*
X68628571Y-91545238D01*
X68533333Y-91640476D01*
X68438095Y-91688095D01*
X69580952Y-91830952D02*
X69485714Y-91783333D01*
X69438095Y-91735714D01*
X69390476Y-91640476D01*
X69390476Y-91592857D01*
X69438095Y-91497619D01*
X69485714Y-91450000D01*
X69580952Y-91402380D01*
X69771428Y-91402380D01*
X69866666Y-91450000D01*
X69914285Y-91497619D01*
X69961904Y-91592857D01*
X69961904Y-91640476D01*
X69914285Y-91735714D01*
X69866666Y-91783333D01*
X69771428Y-91830952D01*
X69580952Y-91830952D01*
X69485714Y-91878571D01*
X69438095Y-91926190D01*
X69390476Y-92021428D01*
X69390476Y-92211904D01*
X69438095Y-92307142D01*
X69485714Y-92354761D01*
X69580952Y-92402380D01*
X69771428Y-92402380D01*
X69866666Y-92354761D01*
X69914285Y-92307142D01*
X69961904Y-92211904D01*
X69961904Y-92021428D01*
X69914285Y-91926190D01*
X69866666Y-91878571D01*
X69771428Y-91830952D01*
X87004761Y-108052380D02*
X86528571Y-108052380D01*
X86480952Y-108528571D01*
X86528571Y-108480952D01*
X86623809Y-108433333D01*
X86861904Y-108433333D01*
X86957142Y-108480952D01*
X87004761Y-108528571D01*
X87052380Y-108623809D01*
X87052380Y-108861904D01*
X87004761Y-108957142D01*
X86957142Y-109004761D01*
X86861904Y-109052380D01*
X86623809Y-109052380D01*
X86528571Y-109004761D01*
X86480952Y-108957142D01*
X87338095Y-108052380D02*
X87671428Y-109052380D01*
X88004761Y-108052380D01*
X89433333Y-108528571D02*
X89576190Y-108576190D01*
X89623809Y-108623809D01*
X89671428Y-108719047D01*
X89671428Y-108861904D01*
X89623809Y-108957142D01*
X89576190Y-109004761D01*
X89480952Y-109052380D01*
X89100000Y-109052380D01*
X89100000Y-108052380D01*
X89433333Y-108052380D01*
X89528571Y-108100000D01*
X89576190Y-108147619D01*
X89623809Y-108242857D01*
X89623809Y-108338095D01*
X89576190Y-108433333D01*
X89528571Y-108480952D01*
X89433333Y-108528571D01*
X89100000Y-108528571D01*
X90100000Y-108052380D02*
X90100000Y-108861904D01*
X90147619Y-108957142D01*
X90195238Y-109004761D01*
X90290476Y-109052380D01*
X90480952Y-109052380D01*
X90576190Y-109004761D01*
X90623809Y-108957142D01*
X90671428Y-108861904D01*
X90671428Y-108052380D01*
X91719047Y-108957142D02*
X91671428Y-109004761D01*
X91528571Y-109052380D01*
X91433333Y-109052380D01*
X91290476Y-109004761D01*
X91195238Y-108909523D01*
X91147619Y-108814285D01*
X91100000Y-108623809D01*
X91100000Y-108480952D01*
X91147619Y-108290476D01*
X91195238Y-108195238D01*
X91290476Y-108100000D01*
X91433333Y-108052380D01*
X91528571Y-108052380D01*
X91671428Y-108100000D01*
X91719047Y-108147619D01*
X92147619Y-109052380D02*
X92147619Y-108052380D01*
X92719047Y-109052380D02*
X92290476Y-108480952D01*
X92719047Y-108052380D02*
X92147619Y-108623809D01*
X94247619Y-87645238D02*
X94200000Y-87740476D01*
X94104761Y-87835714D01*
X93961904Y-87978571D01*
X93914285Y-88073809D01*
X93914285Y-88169047D01*
X94152380Y-88121428D02*
X94104761Y-88216666D01*
X94009523Y-88311904D01*
X93819047Y-88359523D01*
X93485714Y-88359523D01*
X93295238Y-88311904D01*
X93200000Y-88216666D01*
X93152380Y-88121428D01*
X93152380Y-87930952D01*
X93200000Y-87835714D01*
X93295238Y-87740476D01*
X93485714Y-87692857D01*
X93819047Y-87692857D01*
X94009523Y-87740476D01*
X94104761Y-87835714D01*
X94152380Y-87930952D01*
X94152380Y-88121428D01*
X93247619Y-87311904D02*
X93200000Y-87264285D01*
X93152380Y-87169047D01*
X93152380Y-86930952D01*
X93200000Y-86835714D01*
X93247619Y-86788095D01*
X93342857Y-86740476D01*
X93438095Y-86740476D01*
X93580952Y-86788095D01*
X94152380Y-87359523D01*
X94152380Y-86740476D01*
X51961904Y-104852380D02*
X51961904Y-103852380D01*
X52200000Y-103852380D01*
X52342857Y-103900000D01*
X52438095Y-103995238D01*
X52485714Y-104090476D01*
X52533333Y-104280952D01*
X52533333Y-104423809D01*
X52485714Y-104614285D01*
X52438095Y-104709523D01*
X52342857Y-104804761D01*
X52200000Y-104852380D01*
X51961904Y-104852380D01*
X52914285Y-103947619D02*
X52961904Y-103900000D01*
X53057142Y-103852380D01*
X53295238Y-103852380D01*
X53390476Y-103900000D01*
X53438095Y-103947619D01*
X53485714Y-104042857D01*
X53485714Y-104138095D01*
X53438095Y-104280952D01*
X52866666Y-104852380D01*
X53485714Y-104852380D01*
X80261904Y-91452380D02*
X80261904Y-90452380D01*
X80500000Y-90452380D01*
X80642857Y-90500000D01*
X80738095Y-90595238D01*
X80785714Y-90690476D01*
X80833333Y-90880952D01*
X80833333Y-91023809D01*
X80785714Y-91214285D01*
X80738095Y-91309523D01*
X80642857Y-91404761D01*
X80500000Y-91452380D01*
X80261904Y-91452380D01*
X81166666Y-90452380D02*
X81785714Y-90452380D01*
X81452380Y-90833333D01*
X81595238Y-90833333D01*
X81690476Y-90880952D01*
X81738095Y-90928571D01*
X81785714Y-91023809D01*
X81785714Y-91261904D01*
X81738095Y-91357142D01*
X81690476Y-91404761D01*
X81595238Y-91452380D01*
X81309523Y-91452380D01*
X81214285Y-91404761D01*
X81166666Y-91357142D01*
D14*
X80761904Y-93914285D02*
X80380952Y-94180952D01*
X80761904Y-94371428D02*
X79961904Y-94371428D01*
X79961904Y-94066666D01*
X80000000Y-93990476D01*
X80038095Y-93952380D01*
X80114285Y-93914285D01*
X80228571Y-93914285D01*
X80304761Y-93952380D01*
X80342857Y-93990476D01*
X80380952Y-94066666D01*
X80380952Y-94371428D01*
X80761904Y-93152380D02*
X80761904Y-93609523D01*
X80761904Y-93380952D02*
X79961904Y-93380952D01*
X80076190Y-93457142D01*
X80152380Y-93533333D01*
X80190476Y-93609523D01*
X79961904Y-92428571D02*
X79961904Y-92809523D01*
X80342857Y-92847619D01*
X80304761Y-92809523D01*
X80266666Y-92733333D01*
X80266666Y-92542857D01*
X80304761Y-92466666D01*
X80342857Y-92428571D01*
X80419047Y-92390476D01*
X80609523Y-92390476D01*
X80685714Y-92428571D01*
X80723809Y-92466666D01*
X80761904Y-92542857D01*
X80761904Y-92733333D01*
X80723809Y-92809523D01*
X80685714Y-92847619D01*
D10*
X102252380Y-99138095D02*
X101252380Y-99138095D01*
X101252380Y-98900000D01*
X101300000Y-98757142D01*
X101395238Y-98661904D01*
X101490476Y-98614285D01*
X101680952Y-98566666D01*
X101823809Y-98566666D01*
X102014285Y-98614285D01*
X102109523Y-98661904D01*
X102204761Y-98757142D01*
X102252380Y-98900000D01*
X102252380Y-99138095D01*
X101585714Y-97709523D02*
X102252380Y-97709523D01*
X101204761Y-97947619D02*
X101919047Y-98185714D01*
X101919047Y-97566666D01*
X57611904Y-96852380D02*
X57611904Y-95852380D01*
X57850000Y-95852380D01*
X57992857Y-95900000D01*
X58088095Y-95995238D01*
X58135714Y-96090476D01*
X58183333Y-96280952D01*
X58183333Y-96423809D01*
X58135714Y-96614285D01*
X58088095Y-96709523D01*
X57992857Y-96804761D01*
X57850000Y-96852380D01*
X57611904Y-96852380D01*
X59135714Y-96852380D02*
X58564285Y-96852380D01*
X58850000Y-96852380D02*
X58850000Y-95852380D01*
X58754761Y-95995238D01*
X58659523Y-96090476D01*
X58564285Y-96138095D01*
X71802380Y-102166666D02*
X71326190Y-102500000D01*
X71802380Y-102738095D02*
X70802380Y-102738095D01*
X70802380Y-102357142D01*
X70850000Y-102261904D01*
X70897619Y-102214285D01*
X70992857Y-102166666D01*
X71135714Y-102166666D01*
X71230952Y-102214285D01*
X71278571Y-102261904D01*
X71326190Y-102357142D01*
X71326190Y-102738095D01*
X70802380Y-101833333D02*
X70802380Y-101166666D01*
X71802380Y-101595238D01*
X94733333Y-98657142D02*
X94685714Y-98704761D01*
X94542857Y-98752380D01*
X94447619Y-98752380D01*
X94304761Y-98704761D01*
X94209523Y-98609523D01*
X94161904Y-98514285D01*
X94114285Y-98323809D01*
X94114285Y-98180952D01*
X94161904Y-97990476D01*
X94209523Y-97895238D01*
X94304761Y-97800000D01*
X94447619Y-97752380D01*
X94542857Y-97752380D01*
X94685714Y-97800000D01*
X94733333Y-97847619D01*
X95685714Y-98752380D02*
X95114285Y-98752380D01*
X95400000Y-98752380D02*
X95400000Y-97752380D01*
X95304761Y-97895238D01*
X95209523Y-97990476D01*
X95114285Y-98038095D01*
X56583333Y-104852380D02*
X56250000Y-104376190D01*
X56011904Y-104852380D02*
X56011904Y-103852380D01*
X56392857Y-103852380D01*
X56488095Y-103900000D01*
X56535714Y-103947619D01*
X56583333Y-104042857D01*
X56583333Y-104185714D01*
X56535714Y-104280952D01*
X56488095Y-104328571D01*
X56392857Y-104376190D01*
X56011904Y-104376190D01*
X56964285Y-103947619D02*
X57011904Y-103900000D01*
X57107142Y-103852380D01*
X57345238Y-103852380D01*
X57440476Y-103900000D01*
X57488095Y-103947619D01*
X57535714Y-104042857D01*
X57535714Y-104138095D01*
X57488095Y-104280952D01*
X56916666Y-104852380D01*
X57535714Y-104852380D01*
X62988095Y-92202380D02*
X62988095Y-93011904D01*
X63035714Y-93107142D01*
X63083333Y-93154761D01*
X63178571Y-93202380D01*
X63369047Y-93202380D01*
X63464285Y-93154761D01*
X63511904Y-93107142D01*
X63559523Y-93011904D01*
X63559523Y-92202380D01*
X63988095Y-92297619D02*
X64035714Y-92250000D01*
X64130952Y-92202380D01*
X64369047Y-92202380D01*
X64464285Y-92250000D01*
X64511904Y-92297619D01*
X64559523Y-92392857D01*
X64559523Y-92488095D01*
X64511904Y-92630952D01*
X63940476Y-93202380D01*
X64559523Y-93202380D01*
D11*
X72574523Y-85343333D02*
X71304523Y-85343333D01*
X71304523Y-84859523D01*
X71365000Y-84738571D01*
X71425476Y-84678095D01*
X71546428Y-84617619D01*
X71727857Y-84617619D01*
X71848809Y-84678095D01*
X71909285Y-84738571D01*
X71969761Y-84859523D01*
X71969761Y-85343333D01*
X71304523Y-84194285D02*
X72574523Y-83891904D01*
X71667380Y-83650000D01*
X72574523Y-83408095D01*
X71304523Y-83105714D01*
X72574523Y-81896190D02*
X71969761Y-82319523D01*
X72574523Y-82621904D02*
X71304523Y-82621904D01*
X71304523Y-82138095D01*
X71365000Y-82017142D01*
X71425476Y-81956666D01*
X71546428Y-81896190D01*
X71727857Y-81896190D01*
X71848809Y-81956666D01*
X71909285Y-82017142D01*
X71969761Y-82138095D01*
X71969761Y-82621904D01*
D10*
X52107142Y-100602380D02*
X51773809Y-100126190D01*
X51535714Y-100602380D02*
X51535714Y-99602380D01*
X51916666Y-99602380D01*
X52011904Y-99650000D01*
X52059523Y-99697619D01*
X52107142Y-99792857D01*
X52107142Y-99935714D01*
X52059523Y-100030952D01*
X52011904Y-100078571D01*
X51916666Y-100126190D01*
X51535714Y-100126190D01*
X53059523Y-100602380D02*
X52488095Y-100602380D01*
X52773809Y-100602380D02*
X52773809Y-99602380D01*
X52678571Y-99745238D01*
X52583333Y-99840476D01*
X52488095Y-99888095D01*
X53392857Y-99602380D02*
X54059523Y-99602380D01*
X53630952Y-100602380D01*
X73352380Y-98416666D02*
X72876190Y-98750000D01*
X73352380Y-98988095D02*
X72352380Y-98988095D01*
X72352380Y-98607142D01*
X72400000Y-98511904D01*
X72447619Y-98464285D01*
X72542857Y-98416666D01*
X72685714Y-98416666D01*
X72780952Y-98464285D01*
X72828571Y-98511904D01*
X72876190Y-98607142D01*
X72876190Y-98988095D01*
X72352380Y-97559523D02*
X72352380Y-97750000D01*
X72400000Y-97845238D01*
X72447619Y-97892857D01*
X72590476Y-97988095D01*
X72780952Y-98035714D01*
X73161904Y-98035714D01*
X73257142Y-97988095D01*
X73304761Y-97940476D01*
X73352380Y-97845238D01*
X73352380Y-97654761D01*
X73304761Y-97559523D01*
X73257142Y-97511904D01*
X73161904Y-97464285D01*
X72923809Y-97464285D01*
X72828571Y-97511904D01*
X72780952Y-97559523D01*
X72733333Y-97654761D01*
X72733333Y-97845238D01*
X72780952Y-97940476D01*
X72828571Y-97988095D01*
X72923809Y-98035714D01*
X83402380Y-88742857D02*
X82926190Y-89076190D01*
X83402380Y-89314285D02*
X82402380Y-89314285D01*
X82402380Y-88933333D01*
X82450000Y-88838095D01*
X82497619Y-88790476D01*
X82592857Y-88742857D01*
X82735714Y-88742857D01*
X82830952Y-88790476D01*
X82878571Y-88838095D01*
X82926190Y-88933333D01*
X82926190Y-89314285D01*
X83402380Y-87790476D02*
X83402380Y-88361904D01*
X83402380Y-88076190D02*
X82402380Y-88076190D01*
X82545238Y-88171428D01*
X82640476Y-88266666D01*
X82688095Y-88361904D01*
X83402380Y-87314285D02*
X83402380Y-87123809D01*
X83354761Y-87028571D01*
X83307142Y-86980952D01*
X83164285Y-86885714D01*
X82973809Y-86838095D01*
X82592857Y-86838095D01*
X82497619Y-86885714D01*
X82450000Y-86933333D01*
X82402380Y-87028571D01*
X82402380Y-87219047D01*
X82450000Y-87314285D01*
X82497619Y-87361904D01*
X82592857Y-87409523D01*
X82830952Y-87409523D01*
X82926190Y-87361904D01*
X82973809Y-87314285D01*
X83021428Y-87219047D01*
X83021428Y-87028571D01*
X82973809Y-86933333D01*
X82926190Y-86885714D01*
X82830952Y-86838095D01*
X70902380Y-98416666D02*
X70426190Y-98750000D01*
X70902380Y-98988095D02*
X69902380Y-98988095D01*
X69902380Y-98607142D01*
X69950000Y-98511904D01*
X69997619Y-98464285D01*
X70092857Y-98416666D01*
X70235714Y-98416666D01*
X70330952Y-98464285D01*
X70378571Y-98511904D01*
X70426190Y-98607142D01*
X70426190Y-98988095D01*
X69902380Y-97511904D02*
X69902380Y-97988095D01*
X70378571Y-98035714D01*
X70330952Y-97988095D01*
X70283333Y-97892857D01*
X70283333Y-97654761D01*
X70330952Y-97559523D01*
X70378571Y-97511904D01*
X70473809Y-97464285D01*
X70711904Y-97464285D01*
X70807142Y-97511904D01*
X70854761Y-97559523D01*
X70902380Y-97654761D01*
X70902380Y-97892857D01*
X70854761Y-97988095D01*
X70807142Y-98035714D01*
D15*
X91490476Y-98761904D02*
X91490476Y-99409523D01*
X91528571Y-99485714D01*
X91566666Y-99523809D01*
X91642857Y-99561904D01*
X91795238Y-99561904D01*
X91871428Y-99523809D01*
X91909523Y-99485714D01*
X91947619Y-99409523D01*
X91947619Y-98761904D01*
X92671428Y-99028571D02*
X92671428Y-99561904D01*
X92480952Y-98723809D02*
X92290476Y-99295238D01*
X92785714Y-99295238D01*
D10*
X93252380Y-97411904D02*
X94061904Y-97411904D01*
X94157142Y-97364285D01*
X94204761Y-97316666D01*
X94252380Y-97221428D01*
X94252380Y-97030952D01*
X94204761Y-96935714D01*
X94157142Y-96888095D01*
X94061904Y-96840476D01*
X93252380Y-96840476D01*
X93252380Y-95888095D02*
X93252380Y-96364285D01*
X93728571Y-96411904D01*
X93680952Y-96364285D01*
X93633333Y-96269047D01*
X93633333Y-96030952D01*
X93680952Y-95935714D01*
X93728571Y-95888095D01*
X93823809Y-95840476D01*
X94061904Y-95840476D01*
X94157142Y-95888095D01*
X94204761Y-95935714D01*
X94252380Y-96030952D01*
X94252380Y-96269047D01*
X94204761Y-96364285D01*
X94157142Y-96411904D01*
X76338095Y-92052380D02*
X76338095Y-92861904D01*
X76385714Y-92957142D01*
X76433333Y-93004761D01*
X76528571Y-93052380D01*
X76719047Y-93052380D01*
X76814285Y-93004761D01*
X76861904Y-92957142D01*
X76909523Y-92861904D01*
X76909523Y-92052380D01*
X77290476Y-92052380D02*
X77909523Y-92052380D01*
X77576190Y-92433333D01*
X77719047Y-92433333D01*
X77814285Y-92480952D01*
X77861904Y-92528571D01*
X77909523Y-92623809D01*
X77909523Y-92861904D01*
X77861904Y-92957142D01*
X77814285Y-93004761D01*
X77719047Y-93052380D01*
X77433333Y-93052380D01*
X77338095Y-93004761D01*
X77290476Y-92957142D01*
D12*
X103719047Y-111897619D02*
X103928571Y-111897619D01*
X104033333Y-111950000D01*
X104138095Y-112054761D01*
X104190476Y-112264285D01*
X104190476Y-112630952D01*
X104138095Y-112840476D01*
X104033333Y-112945238D01*
X103928571Y-112997619D01*
X103719047Y-112997619D01*
X103614285Y-112945238D01*
X103509523Y-112840476D01*
X103457142Y-112630952D01*
X103457142Y-112264285D01*
X103509523Y-112054761D01*
X103614285Y-111950000D01*
X103719047Y-111897619D01*
X104661904Y-112997619D02*
X104661904Y-111897619D01*
X105290476Y-112997619D01*
X105290476Y-111897619D01*
D10*
X97133333Y-98957142D02*
X97085714Y-99004761D01*
X96942857Y-99052380D01*
X96847619Y-99052380D01*
X96704761Y-99004761D01*
X96609523Y-98909523D01*
X96561904Y-98814285D01*
X96514285Y-98623809D01*
X96514285Y-98480952D01*
X96561904Y-98290476D01*
X96609523Y-98195238D01*
X96704761Y-98100000D01*
X96847619Y-98052380D01*
X96942857Y-98052380D01*
X97085714Y-98100000D01*
X97133333Y-98147619D01*
X97514285Y-98147619D02*
X97561904Y-98100000D01*
X97657142Y-98052380D01*
X97895238Y-98052380D01*
X97990476Y-98100000D01*
X98038095Y-98147619D01*
X98085714Y-98242857D01*
X98085714Y-98338095D01*
X98038095Y-98480952D01*
X97466666Y-99052380D01*
X98085714Y-99052380D01*
X98107142Y-86616666D02*
X98154761Y-86664285D01*
X98202380Y-86807142D01*
X98202380Y-86902380D01*
X98154761Y-87045238D01*
X98059523Y-87140476D01*
X97964285Y-87188095D01*
X97773809Y-87235714D01*
X97630952Y-87235714D01*
X97440476Y-87188095D01*
X97345238Y-87140476D01*
X97250000Y-87045238D01*
X97202380Y-86902380D01*
X97202380Y-86807142D01*
X97250000Y-86664285D01*
X97297619Y-86616666D01*
X97202380Y-85711904D02*
X97202380Y-86188095D01*
X97678571Y-86235714D01*
X97630952Y-86188095D01*
X97583333Y-86092857D01*
X97583333Y-85854761D01*
X97630952Y-85759523D01*
X97678571Y-85711904D01*
X97773809Y-85664285D01*
X98011904Y-85664285D01*
X98107142Y-85711904D01*
X98154761Y-85759523D01*
X98202380Y-85854761D01*
X98202380Y-86092857D01*
X98154761Y-86188095D01*
X98107142Y-86235714D01*
X56533333Y-100602380D02*
X56200000Y-100126190D01*
X55961904Y-100602380D02*
X55961904Y-99602380D01*
X56342857Y-99602380D01*
X56438095Y-99650000D01*
X56485714Y-99697619D01*
X56533333Y-99792857D01*
X56533333Y-99935714D01*
X56485714Y-100030952D01*
X56438095Y-100078571D01*
X56342857Y-100126190D01*
X55961904Y-100126190D01*
X56866666Y-99602380D02*
X57485714Y-99602380D01*
X57152380Y-99983333D01*
X57295238Y-99983333D01*
X57390476Y-100030952D01*
X57438095Y-100078571D01*
X57485714Y-100173809D01*
X57485714Y-100411904D01*
X57438095Y-100507142D01*
X57390476Y-100554761D01*
X57295238Y-100602380D01*
X57009523Y-100602380D01*
X56914285Y-100554761D01*
X56866666Y-100507142D01*
X79857142Y-106366666D02*
X79904761Y-106414285D01*
X79952380Y-106557142D01*
X79952380Y-106652380D01*
X79904761Y-106795238D01*
X79809523Y-106890476D01*
X79714285Y-106938095D01*
X79523809Y-106985714D01*
X79380952Y-106985714D01*
X79190476Y-106938095D01*
X79095238Y-106890476D01*
X79000000Y-106795238D01*
X78952380Y-106652380D01*
X78952380Y-106557142D01*
X79000000Y-106414285D01*
X79047619Y-106366666D01*
X78952380Y-106033333D02*
X78952380Y-105414285D01*
X79333333Y-105747619D01*
X79333333Y-105604761D01*
X79380952Y-105509523D01*
X79428571Y-105461904D01*
X79523809Y-105414285D01*
X79761904Y-105414285D01*
X79857142Y-105461904D01*
X79904761Y-105509523D01*
X79952380Y-105604761D01*
X79952380Y-105890476D01*
X79904761Y-105985714D01*
X79857142Y-106033333D01*
X106552380Y-106492857D02*
X106076190Y-106826190D01*
X106552380Y-107064285D02*
X105552380Y-107064285D01*
X105552380Y-106683333D01*
X105600000Y-106588095D01*
X105647619Y-106540476D01*
X105742857Y-106492857D01*
X105885714Y-106492857D01*
X105980952Y-106540476D01*
X106028571Y-106588095D01*
X106076190Y-106683333D01*
X106076190Y-107064285D01*
X105647619Y-106111904D02*
X105600000Y-106064285D01*
X105552380Y-105969047D01*
X105552380Y-105730952D01*
X105600000Y-105635714D01*
X105647619Y-105588095D01*
X105742857Y-105540476D01*
X105838095Y-105540476D01*
X105980952Y-105588095D01*
X106552380Y-106159523D01*
X106552380Y-105540476D01*
X106552380Y-104588095D02*
X106552380Y-105159523D01*
X106552380Y-104873809D02*
X105552380Y-104873809D01*
X105695238Y-104969047D01*
X105790476Y-105064285D01*
X105838095Y-105159523D01*
X106357142Y-98266666D02*
X106404761Y-98314285D01*
X106452380Y-98457142D01*
X106452380Y-98552380D01*
X106404761Y-98695238D01*
X106309523Y-98790476D01*
X106214285Y-98838095D01*
X106023809Y-98885714D01*
X105880952Y-98885714D01*
X105690476Y-98838095D01*
X105595238Y-98790476D01*
X105500000Y-98695238D01*
X105452380Y-98552380D01*
X105452380Y-98457142D01*
X105500000Y-98314285D01*
X105547619Y-98266666D01*
X105785714Y-97409523D02*
X106452380Y-97409523D01*
X105404761Y-97647619D02*
X106119047Y-97885714D01*
X106119047Y-97266666D01*
D11*
X71113809Y-110724523D02*
X70388095Y-110724523D01*
X70750952Y-110724523D02*
X70750952Y-109454523D01*
X70630000Y-109635952D01*
X70509047Y-109756904D01*
X70388095Y-109817380D01*
X71597619Y-109575476D02*
X71658095Y-109515000D01*
X71779047Y-109454523D01*
X72081428Y-109454523D01*
X72202380Y-109515000D01*
X72262857Y-109575476D01*
X72323333Y-109696428D01*
X72323333Y-109817380D01*
X72262857Y-109998809D01*
X71537142Y-110724523D01*
X72323333Y-110724523D01*
X72686190Y-109454523D02*
X73109523Y-110724523D01*
X73532857Y-109454523D01*
D10*
X106552380Y-110188095D02*
X105552380Y-110188095D01*
X105552380Y-109950000D01*
X105600000Y-109807142D01*
X105695238Y-109711904D01*
X105790476Y-109664285D01*
X105980952Y-109616666D01*
X106123809Y-109616666D01*
X106314285Y-109664285D01*
X106409523Y-109711904D01*
X106504761Y-109807142D01*
X106552380Y-109950000D01*
X106552380Y-110188095D01*
X105552380Y-108711904D02*
X105552380Y-109188095D01*
X106028571Y-109235714D01*
X105980952Y-109188095D01*
X105933333Y-109092857D01*
X105933333Y-108854761D01*
X105980952Y-108759523D01*
X106028571Y-108711904D01*
X106123809Y-108664285D01*
X106361904Y-108664285D01*
X106457142Y-108711904D01*
X106504761Y-108759523D01*
X106552380Y-108854761D01*
X106552380Y-109092857D01*
X106504761Y-109188095D01*
X106457142Y-109235714D01*
X60247619Y-85545238D02*
X60200000Y-85640476D01*
X60104761Y-85735714D01*
X59961904Y-85878571D01*
X59914285Y-85973809D01*
X59914285Y-86069047D01*
X60152380Y-86021428D02*
X60104761Y-86116666D01*
X60009523Y-86211904D01*
X59819047Y-86259523D01*
X59485714Y-86259523D01*
X59295238Y-86211904D01*
X59200000Y-86116666D01*
X59152380Y-86021428D01*
X59152380Y-85830952D01*
X59200000Y-85735714D01*
X59295238Y-85640476D01*
X59485714Y-85592857D01*
X59819047Y-85592857D01*
X60009523Y-85640476D01*
X60104761Y-85735714D01*
X60152380Y-85830952D01*
X60152380Y-86021428D01*
X60152380Y-84640476D02*
X60152380Y-85211904D01*
X60152380Y-84926190D02*
X59152380Y-84926190D01*
X59295238Y-85021428D01*
X59390476Y-85116666D01*
X59438095Y-85211904D01*
X66852380Y-102116666D02*
X66376190Y-102450000D01*
X66852380Y-102688095D02*
X65852380Y-102688095D01*
X65852380Y-102307142D01*
X65900000Y-102211904D01*
X65947619Y-102164285D01*
X66042857Y-102116666D01*
X66185714Y-102116666D01*
X66280952Y-102164285D01*
X66328571Y-102211904D01*
X66376190Y-102307142D01*
X66376190Y-102688095D01*
X66280952Y-101545238D02*
X66233333Y-101640476D01*
X66185714Y-101688095D01*
X66090476Y-101735714D01*
X66042857Y-101735714D01*
X65947619Y-101688095D01*
X65900000Y-101640476D01*
X65852380Y-101545238D01*
X65852380Y-101354761D01*
X65900000Y-101259523D01*
X65947619Y-101211904D01*
X66042857Y-101164285D01*
X66090476Y-101164285D01*
X66185714Y-101211904D01*
X66233333Y-101259523D01*
X66280952Y-101354761D01*
X66280952Y-101545238D01*
X66328571Y-101640476D01*
X66376190Y-101688095D01*
X66471428Y-101735714D01*
X66661904Y-101735714D01*
X66757142Y-101688095D01*
X66804761Y-101640476D01*
X66852380Y-101545238D01*
X66852380Y-101354761D01*
X66804761Y-101259523D01*
X66757142Y-101211904D01*
X66661904Y-101164285D01*
X66471428Y-101164285D01*
X66376190Y-101211904D01*
X66328571Y-101259523D01*
X66280952Y-101354761D01*
X36073809Y-93528571D02*
X36216666Y-93576190D01*
X36264285Y-93623809D01*
X36311904Y-93719047D01*
X36311904Y-93861904D01*
X36264285Y-93957142D01*
X36216666Y-94004761D01*
X36121428Y-94052380D01*
X35740476Y-94052380D01*
X35740476Y-93052380D01*
X36073809Y-93052380D01*
X36169047Y-93100000D01*
X36216666Y-93147619D01*
X36264285Y-93242857D01*
X36264285Y-93338095D01*
X36216666Y-93433333D01*
X36169047Y-93480952D01*
X36073809Y-93528571D01*
X35740476Y-93528571D01*
X36692857Y-93766666D02*
X37169047Y-93766666D01*
X36597619Y-94052380D02*
X36930952Y-93052380D01*
X37264285Y-94052380D01*
X37454761Y-93052380D02*
X38026190Y-93052380D01*
X37740476Y-94052380D02*
X37740476Y-93052380D01*
X38216666Y-93052380D02*
X38788095Y-93052380D01*
X38502380Y-94052380D02*
X38502380Y-93052380D01*
X38883333Y-94147619D02*
X39645238Y-94147619D01*
X39835714Y-93147619D02*
X39883333Y-93100000D01*
X39978571Y-93052380D01*
X40216666Y-93052380D01*
X40311904Y-93100000D01*
X40359523Y-93147619D01*
X40407142Y-93242857D01*
X40407142Y-93338095D01*
X40359523Y-93480952D01*
X39788095Y-94052380D01*
X40407142Y-94052380D01*
D15*
X80761904Y-98614285D02*
X80380952Y-98880952D01*
X80761904Y-99071428D02*
X79961904Y-99071428D01*
X79961904Y-98766666D01*
X80000000Y-98690476D01*
X80038095Y-98652380D01*
X80114285Y-98614285D01*
X80228571Y-98614285D01*
X80304761Y-98652380D01*
X80342857Y-98690476D01*
X80380952Y-98766666D01*
X80380952Y-99071428D01*
X80761904Y-97852380D02*
X80761904Y-98309523D01*
X80761904Y-98080952D02*
X79961904Y-98080952D01*
X80076190Y-98157142D01*
X80152380Y-98233333D01*
X80190476Y-98309523D01*
X80038095Y-97547619D02*
X80000000Y-97509523D01*
X79961904Y-97433333D01*
X79961904Y-97242857D01*
X80000000Y-97166666D01*
X80038095Y-97128571D01*
X80114285Y-97090476D01*
X80190476Y-97090476D01*
X80304761Y-97128571D01*
X80761904Y-97585714D01*
X80761904Y-97090476D01*
X80738050Y-96215754D02*
X80357098Y-96482421D01*
X80738050Y-96672897D02*
X79938050Y-96672897D01*
X79938050Y-96368135D01*
X79976146Y-96291945D01*
X80014241Y-96253849D01*
X80090431Y-96215754D01*
X80204717Y-96215754D01*
X80280907Y-96253849D01*
X80319003Y-96291945D01*
X80357098Y-96368135D01*
X80357098Y-96672897D01*
X80738050Y-95453849D02*
X80738050Y-95910992D01*
X80738050Y-95682421D02*
X79938050Y-95682421D01*
X80052336Y-95758611D01*
X80128526Y-95834802D01*
X80166622Y-95910992D01*
X80738050Y-94691945D02*
X80738050Y-95149088D01*
X80738050Y-94920516D02*
X79938050Y-94920516D01*
X80052336Y-94996707D01*
X80128526Y-95072897D01*
X80166622Y-95149088D01*
D11*
X46426666Y-104559285D02*
X46003333Y-104559285D01*
X46003333Y-105224523D02*
X46003333Y-103954523D01*
X46608095Y-103954523D01*
X47757142Y-105224523D02*
X47031428Y-105224523D01*
X47394285Y-105224523D02*
X47394285Y-103954523D01*
X47273333Y-104135952D01*
X47152380Y-104256904D01*
X47031428Y-104317380D01*
D10*
X93102380Y-105492857D02*
X92626190Y-105826190D01*
X93102380Y-106064285D02*
X92102380Y-106064285D01*
X92102380Y-105683333D01*
X92150000Y-105588095D01*
X92197619Y-105540476D01*
X92292857Y-105492857D01*
X92435714Y-105492857D01*
X92530952Y-105540476D01*
X92578571Y-105588095D01*
X92626190Y-105683333D01*
X92626190Y-106064285D01*
X93102380Y-104540476D02*
X93102380Y-105111904D01*
X93102380Y-104826190D02*
X92102380Y-104826190D01*
X92245238Y-104921428D01*
X92340476Y-105016666D01*
X92388095Y-105111904D01*
X92435714Y-103683333D02*
X93102380Y-103683333D01*
X92054761Y-103921428D02*
X92769047Y-104159523D01*
X92769047Y-103540476D01*
D15*
X80761904Y-101014285D02*
X80380952Y-101280952D01*
X80761904Y-101471428D02*
X79961904Y-101471428D01*
X79961904Y-101166666D01*
X80000000Y-101090476D01*
X80038095Y-101052380D01*
X80114285Y-101014285D01*
X80228571Y-101014285D01*
X80304761Y-101052380D01*
X80342857Y-101090476D01*
X80380952Y-101166666D01*
X80380952Y-101471428D01*
X80761904Y-100252380D02*
X80761904Y-100709523D01*
X80761904Y-100480952D02*
X79961904Y-100480952D01*
X80076190Y-100557142D01*
X80152380Y-100633333D01*
X80190476Y-100709523D01*
X79961904Y-99757142D02*
X79961904Y-99680952D01*
X80000000Y-99604761D01*
X80038095Y-99566666D01*
X80114285Y-99528571D01*
X80266666Y-99490476D01*
X80457142Y-99490476D01*
X80609523Y-99528571D01*
X80685714Y-99566666D01*
X80723809Y-99604761D01*
X80761904Y-99680952D01*
X80761904Y-99757142D01*
X80723809Y-99833333D01*
X80685714Y-99871428D01*
X80609523Y-99909523D01*
X80457142Y-99947619D01*
X80266666Y-99947619D01*
X80114285Y-99909523D01*
X80038095Y-99871428D01*
X80000000Y-99833333D01*
X79961904Y-99757142D01*
D10*
X36073809Y-102478571D02*
X36216666Y-102526190D01*
X36264285Y-102573809D01*
X36311904Y-102669047D01*
X36311904Y-102811904D01*
X36264285Y-102907142D01*
X36216666Y-102954761D01*
X36121428Y-103002380D01*
X35740476Y-103002380D01*
X35740476Y-102002380D01*
X36073809Y-102002380D01*
X36169047Y-102050000D01*
X36216666Y-102097619D01*
X36264285Y-102192857D01*
X36264285Y-102288095D01*
X36216666Y-102383333D01*
X36169047Y-102430952D01*
X36073809Y-102478571D01*
X35740476Y-102478571D01*
X36692857Y-102716666D02*
X37169047Y-102716666D01*
X36597619Y-103002380D02*
X36930952Y-102002380D01*
X37264285Y-103002380D01*
X37454761Y-102002380D02*
X38026190Y-102002380D01*
X37740476Y-103002380D02*
X37740476Y-102002380D01*
X38216666Y-102002380D02*
X38788095Y-102002380D01*
X38502380Y-103002380D02*
X38502380Y-102002380D01*
X38883333Y-103097619D02*
X39645238Y-103097619D01*
X40407142Y-103002380D02*
X39835714Y-103002380D01*
X40121428Y-103002380D02*
X40121428Y-102002380D01*
X40026190Y-102145238D01*
X39930952Y-102240476D01*
X39835714Y-102288095D01*
X68452380Y-98466666D02*
X67976190Y-98800000D01*
X68452380Y-99038095D02*
X67452380Y-99038095D01*
X67452380Y-98657142D01*
X67500000Y-98561904D01*
X67547619Y-98514285D01*
X67642857Y-98466666D01*
X67785714Y-98466666D01*
X67880952Y-98514285D01*
X67928571Y-98561904D01*
X67976190Y-98657142D01*
X67976190Y-99038095D01*
X67785714Y-97609523D02*
X68452380Y-97609523D01*
X67404761Y-97847619D02*
X68119047Y-98085714D01*
X68119047Y-97466666D01*
X53683333Y-96652380D02*
X53350000Y-96176190D01*
X53111904Y-96652380D02*
X53111904Y-95652380D01*
X53492857Y-95652380D01*
X53588095Y-95700000D01*
X53635714Y-95747619D01*
X53683333Y-95842857D01*
X53683333Y-95985714D01*
X53635714Y-96080952D01*
X53588095Y-96128571D01*
X53492857Y-96176190D01*
X53111904Y-96176190D01*
X54635714Y-96652380D02*
X54064285Y-96652380D01*
X54350000Y-96652380D02*
X54350000Y-95652380D01*
X54254761Y-95795238D01*
X54159523Y-95890476D01*
X54064285Y-95938095D01*
X105657142Y-86616666D02*
X105704761Y-86664285D01*
X105752380Y-86807142D01*
X105752380Y-86902380D01*
X105704761Y-87045238D01*
X105609523Y-87140476D01*
X105514285Y-87188095D01*
X105323809Y-87235714D01*
X105180952Y-87235714D01*
X104990476Y-87188095D01*
X104895238Y-87140476D01*
X104800000Y-87045238D01*
X104752380Y-86902380D01*
X104752380Y-86807142D01*
X104800000Y-86664285D01*
X104847619Y-86616666D01*
X104752380Y-85759523D02*
X104752380Y-85950000D01*
X104800000Y-86045238D01*
X104847619Y-86092857D01*
X104990476Y-86188095D01*
X105180952Y-86235714D01*
X105561904Y-86235714D01*
X105657142Y-86188095D01*
X105704761Y-86140476D01*
X105752380Y-86045238D01*
X105752380Y-85854761D01*
X105704761Y-85759523D01*
X105657142Y-85711904D01*
X105561904Y-85664285D01*
X105323809Y-85664285D01*
X105228571Y-85711904D01*
X105180952Y-85759523D01*
X105133333Y-85854761D01*
X105133333Y-86045238D01*
X105180952Y-86140476D01*
X105228571Y-86188095D01*
X105323809Y-86235714D01*
D15*
X104261904Y-98564285D02*
X103880952Y-98830952D01*
X104261904Y-99021428D02*
X103461904Y-99021428D01*
X103461904Y-98716666D01*
X103500000Y-98640476D01*
X103538095Y-98602380D01*
X103614285Y-98564285D01*
X103728571Y-98564285D01*
X103804761Y-98602380D01*
X103842857Y-98640476D01*
X103880952Y-98716666D01*
X103880952Y-99021428D01*
X103538095Y-98259523D02*
X103500000Y-98221428D01*
X103461904Y-98145238D01*
X103461904Y-97954761D01*
X103500000Y-97878571D01*
X103538095Y-97840476D01*
X103614285Y-97802380D01*
X103690476Y-97802380D01*
X103804761Y-97840476D01*
X104261904Y-98297619D01*
X104261904Y-97802380D01*
X103461904Y-97307142D02*
X103461904Y-97230952D01*
X103500000Y-97154761D01*
X103538095Y-97116666D01*
X103614285Y-97078571D01*
X103766666Y-97040476D01*
X103957142Y-97040476D01*
X104109523Y-97078571D01*
X104185714Y-97116666D01*
X104223809Y-97154761D01*
X104261904Y-97230952D01*
X104261904Y-97307142D01*
X104223809Y-97383333D01*
X104185714Y-97421428D01*
X104109523Y-97459523D01*
X103957142Y-97497619D01*
X103766666Y-97497619D01*
X103614285Y-97459523D01*
X103538095Y-97421428D01*
X103500000Y-97383333D01*
X103461904Y-97307142D01*
X81561904Y-105514285D02*
X81180952Y-105780952D01*
X81561904Y-105971428D02*
X80761904Y-105971428D01*
X80761904Y-105666666D01*
X80800000Y-105590476D01*
X80838095Y-105552380D01*
X80914285Y-105514285D01*
X81028571Y-105514285D01*
X81104761Y-105552380D01*
X81142857Y-105590476D01*
X81180952Y-105666666D01*
X81180952Y-105971428D01*
X81561904Y-104752380D02*
X81561904Y-105209523D01*
X81561904Y-104980952D02*
X80761904Y-104980952D01*
X80876190Y-105057142D01*
X80952380Y-105133333D01*
X80990476Y-105209523D01*
X80761904Y-104485714D02*
X80761904Y-103990476D01*
X81066666Y-104257142D01*
X81066666Y-104142857D01*
X81104761Y-104066666D01*
X81142857Y-104028571D01*
X81219047Y-103990476D01*
X81409523Y-103990476D01*
X81485714Y-104028571D01*
X81523809Y-104066666D01*
X81561904Y-104142857D01*
X81561904Y-104371428D01*
X81523809Y-104447619D01*
X81485714Y-104485714D01*
X65900000Y-119271428D02*
X65861904Y-119347619D01*
X65861904Y-119461904D01*
X65900000Y-119576190D01*
X65976190Y-119652380D01*
X66052380Y-119690476D01*
X66204761Y-119728571D01*
X66319047Y-119728571D01*
X66471428Y-119690476D01*
X66547619Y-119652380D01*
X66623809Y-119576190D01*
X66661904Y-119461904D01*
X66661904Y-119385714D01*
X66623809Y-119271428D01*
X66585714Y-119233333D01*
X66319047Y-119233333D01*
X66319047Y-119385714D01*
X66661904Y-118890476D02*
X65861904Y-118890476D01*
X66661904Y-118433333D01*
X65861904Y-118433333D01*
X66661904Y-118052380D02*
X65861904Y-118052380D01*
X65861904Y-117861904D01*
X65900000Y-117747619D01*
X65976190Y-117671428D01*
X66052380Y-117633333D01*
X66204761Y-117595238D01*
X66319047Y-117595238D01*
X66471428Y-117633333D01*
X66547619Y-117671428D01*
X66623809Y-117747619D01*
X66661904Y-117861904D01*
X66661904Y-118052380D01*
X66585714Y-116185714D02*
X66623809Y-116223809D01*
X66661904Y-116338095D01*
X66661904Y-116414285D01*
X66623809Y-116528571D01*
X66547619Y-116604761D01*
X66471428Y-116642857D01*
X66319047Y-116680952D01*
X66204761Y-116680952D01*
X66052380Y-116642857D01*
X65976190Y-116604761D01*
X65900000Y-116528571D01*
X65861904Y-116414285D01*
X65861904Y-116338095D01*
X65900000Y-116223809D01*
X65938095Y-116185714D01*
X65861904Y-115690476D02*
X65861904Y-115538095D01*
X65900000Y-115461904D01*
X65976190Y-115385714D01*
X66128571Y-115347619D01*
X66395238Y-115347619D01*
X66547619Y-115385714D01*
X66623809Y-115461904D01*
X66661904Y-115538095D01*
X66661904Y-115690476D01*
X66623809Y-115766666D01*
X66547619Y-115842857D01*
X66395238Y-115880952D01*
X66128571Y-115880952D01*
X65976190Y-115842857D01*
X65900000Y-115766666D01*
X65861904Y-115690476D01*
X66661904Y-115004761D02*
X65861904Y-115004761D01*
X66661904Y-114547619D01*
X65861904Y-114547619D01*
X66661904Y-114166666D02*
X65861904Y-114166666D01*
X66661904Y-113709523D01*
X65861904Y-113709523D01*
X109212857Y-102691904D02*
X108755714Y-102691904D01*
X108984285Y-102691904D02*
X108984285Y-101891904D01*
X108908095Y-102006190D01*
X108831904Y-102082380D01*
X108755714Y-102120476D01*
X109517619Y-101968095D02*
X109555714Y-101930000D01*
X109631904Y-101891904D01*
X109822380Y-101891904D01*
X109898571Y-101930000D01*
X109936666Y-101968095D01*
X109974761Y-102044285D01*
X109974761Y-102120476D01*
X109936666Y-102234761D01*
X109479523Y-102691904D01*
X109974761Y-102691904D01*
X110203333Y-101891904D02*
X110470000Y-102691904D01*
X110736666Y-101891904D01*
X112070000Y-102615714D02*
X112031904Y-102653809D01*
X111917619Y-102691904D01*
X111841428Y-102691904D01*
X111727142Y-102653809D01*
X111650952Y-102577619D01*
X111612857Y-102501428D01*
X111574761Y-102349047D01*
X111574761Y-102234761D01*
X111612857Y-102082380D01*
X111650952Y-102006190D01*
X111727142Y-101930000D01*
X111841428Y-101891904D01*
X111917619Y-101891904D01*
X112031904Y-101930000D01*
X112070000Y-101968095D01*
X112565238Y-101891904D02*
X112717619Y-101891904D01*
X112793809Y-101930000D01*
X112870000Y-102006190D01*
X112908095Y-102158571D01*
X112908095Y-102425238D01*
X112870000Y-102577619D01*
X112793809Y-102653809D01*
X112717619Y-102691904D01*
X112565238Y-102691904D01*
X112489047Y-102653809D01*
X112412857Y-102577619D01*
X112374761Y-102425238D01*
X112374761Y-102158571D01*
X112412857Y-102006190D01*
X112489047Y-101930000D01*
X112565238Y-101891904D01*
X113250952Y-102691904D02*
X113250952Y-101891904D01*
X113708095Y-102691904D01*
X113708095Y-101891904D01*
X114089047Y-102691904D02*
X114089047Y-101891904D01*
X114546190Y-102691904D01*
X114546190Y-101891904D01*
X97961904Y-119214285D02*
X97961904Y-119595238D01*
X98342857Y-119633333D01*
X98304761Y-119595238D01*
X98266666Y-119519047D01*
X98266666Y-119328571D01*
X98304761Y-119252380D01*
X98342857Y-119214285D01*
X98419047Y-119176190D01*
X98609523Y-119176190D01*
X98685714Y-119214285D01*
X98723809Y-119252380D01*
X98761904Y-119328571D01*
X98761904Y-119519047D01*
X98723809Y-119595238D01*
X98685714Y-119633333D01*
X97961904Y-118947619D02*
X98761904Y-118680952D01*
X97961904Y-118414285D01*
X98685714Y-117080952D02*
X98723809Y-117119047D01*
X98761904Y-117233333D01*
X98761904Y-117309523D01*
X98723809Y-117423809D01*
X98647619Y-117500000D01*
X98571428Y-117538095D01*
X98419047Y-117576190D01*
X98304761Y-117576190D01*
X98152380Y-117538095D01*
X98076190Y-117500000D01*
X98000000Y-117423809D01*
X97961904Y-117309523D01*
X97961904Y-117233333D01*
X98000000Y-117119047D01*
X98038095Y-117080952D01*
X97961904Y-116585714D02*
X97961904Y-116433333D01*
X98000000Y-116357142D01*
X98076190Y-116280952D01*
X98228571Y-116242857D01*
X98495238Y-116242857D01*
X98647619Y-116280952D01*
X98723809Y-116357142D01*
X98761904Y-116433333D01*
X98761904Y-116585714D01*
X98723809Y-116661904D01*
X98647619Y-116738095D01*
X98495238Y-116776190D01*
X98228571Y-116776190D01*
X98076190Y-116738095D01*
X98000000Y-116661904D01*
X97961904Y-116585714D01*
X98761904Y-115900000D02*
X97961904Y-115900000D01*
X98761904Y-115442857D01*
X97961904Y-115442857D01*
X98761904Y-115061904D02*
X97961904Y-115061904D01*
X98761904Y-114604761D01*
X97961904Y-114604761D01*
X65360000Y-108000000D02*
X65360000Y-108650000D01*
X62240000Y-108000000D02*
X62240000Y-108650000D01*
X65360000Y-108000000D02*
X65360000Y-106325000D01*
X62240000Y-108000000D02*
X62240000Y-107350000D01*
X86635000Y-101672936D02*
X86635000Y-102127064D01*
X85165000Y-101672936D02*
X85165000Y-102127064D01*
X80835000Y-116172936D02*
X80835000Y-116627064D01*
X79365000Y-116172936D02*
X79365000Y-116627064D01*
X72377064Y-92685000D02*
X71922936Y-92685000D01*
X72377064Y-91215000D02*
X71922936Y-91215000D01*
X81920000Y-106017500D02*
X81920000Y-111217500D01*
X92650000Y-106017500D02*
X91630000Y-106017500D01*
X97280000Y-106017500D02*
X97280000Y-111217500D01*
X95190000Y-106017500D02*
X94170000Y-106017500D01*
X90110000Y-106017500D02*
X89090000Y-106017500D01*
X85030000Y-106017500D02*
X84010000Y-106017500D01*
X82490000Y-111217500D02*
X81920000Y-111217500D01*
X90110000Y-111217500D02*
X89090000Y-111217500D01*
X95190000Y-111217500D02*
X94170000Y-111217500D01*
X82490000Y-106017500D02*
X81920000Y-106017500D01*
X97280000Y-106017500D02*
X96710000Y-106017500D01*
X85030000Y-111217500D02*
X84010000Y-111217500D01*
X87570000Y-111217500D02*
X86550000Y-111217500D01*
X96710000Y-111217500D02*
X96710000Y-112577500D01*
X87570000Y-106017500D02*
X86550000Y-106017500D01*
X97280000Y-111217500D02*
X96710000Y-111217500D01*
X92650000Y-111217500D02*
X91630000Y-111217500D01*
X92380000Y-85080000D02*
X92380000Y-82250000D01*
X92650000Y-86580000D02*
X92650000Y-85080000D01*
X85750000Y-86580000D02*
X85750000Y-85080000D01*
X86020000Y-85080000D02*
X86020000Y-83980000D01*
X85750000Y-85080000D02*
X86020000Y-85080000D01*
X92650000Y-85080000D02*
X92380000Y-85080000D01*
X51700000Y-103710000D02*
X54385000Y-103710000D01*
X54385000Y-103710000D02*
X54385000Y-101790000D01*
X54385000Y-101790000D02*
X51700000Y-101790000D01*
X84850000Y-90040000D02*
X82165000Y-90040000D01*
X82165000Y-90040000D02*
X82165000Y-91960000D01*
X82165000Y-91960000D02*
X84850000Y-91960000D01*
X82572936Y-92615000D02*
X83027064Y-92615000D01*
X82572936Y-94085000D02*
X83027064Y-94085000D01*
X102760000Y-99365000D02*
X100840000Y-99365000D01*
X102760000Y-102050000D02*
X102760000Y-99365000D01*
X100840000Y-99365000D02*
X100840000Y-102050000D01*
X60550000Y-93550000D02*
X56650000Y-93550000D01*
X60550000Y-95550000D02*
X56650000Y-95550000D01*
X60550000Y-95550000D02*
X60550000Y-93550000D01*
X73735000Y-102227064D02*
X73735000Y-101772936D01*
X72265000Y-102227064D02*
X72265000Y-101772936D01*
X95810000Y-100688748D02*
X95810000Y-102111252D01*
X93990000Y-100688748D02*
X93990000Y-102111252D01*
X56977064Y-102015000D02*
X56522936Y-102015000D01*
X56977064Y-103485000D02*
X56522936Y-103485000D01*
X61190000Y-97100000D02*
X61190000Y-100550000D01*
X61190000Y-97100000D02*
X61190000Y-95150000D01*
X66310000Y-97100000D02*
X66310000Y-99050000D01*
X66310000Y-97100000D02*
X66310000Y-95150000D01*
D16*
X77850000Y-85800000D02*
X77850000Y-89800000D01*
X66250000Y-85800000D02*
X77850000Y-85800000D01*
D12*
X65850000Y-87800000D02*
X65850000Y-87800000D01*
D16*
X77850000Y-89800000D02*
X66250000Y-89800000D01*
X66250000Y-89800000D02*
X66250000Y-85800000D01*
D12*
X65650000Y-87800000D02*
X65650000Y-87800000D01*
X65850000Y-87800000D02*
G75*
G03*
X65650000Y-87800000I-100000J0D01*
G01*
X65650000Y-87800000D02*
G75*
G03*
X65850000Y-87800000I100000J0D01*
G01*
D15*
X52572936Y-97765000D02*
X53027064Y-97765000D01*
X52572936Y-99235000D02*
X53027064Y-99235000D01*
X73685000Y-95222936D02*
X73685000Y-95677064D01*
X72215000Y-95222936D02*
X72215000Y-95677064D01*
X85335000Y-88327064D02*
X85335000Y-87872936D01*
X83865000Y-88327064D02*
X83865000Y-87872936D01*
X69715000Y-95222936D02*
X69715000Y-95677064D01*
X71185000Y-95222936D02*
X71185000Y-95677064D01*
X87650000Y-99903022D02*
X87650000Y-100703022D01*
X90850000Y-102303022D02*
X90850000Y-103103022D01*
X90850000Y-100703022D02*
X90850000Y-99903022D01*
X90850000Y-99903022D02*
X90750000Y-99903022D01*
X87750000Y-99903022D02*
X87650000Y-99903022D01*
X90850000Y-103103022D02*
X90750000Y-103103022D01*
X87650000Y-103103022D02*
X87750000Y-103103022D01*
X87650000Y-102303022D02*
X87650000Y-103103022D01*
X90750000Y-99903022D02*
X90750000Y-99503022D01*
D10*
X87225000Y-93525000D02*
X91375000Y-93525000D01*
X91375000Y-98675000D02*
X91375000Y-98530000D01*
X87225000Y-93525000D02*
X87225000Y-93575000D01*
X87225000Y-93575000D02*
X85825000Y-93575000D01*
X87225000Y-98675000D02*
X91375000Y-98675000D01*
X87225000Y-98675000D02*
X87225000Y-98530000D01*
X91375000Y-93525000D02*
X91375000Y-93670000D01*
D15*
X79660000Y-96950000D02*
X79660000Y-95000000D01*
X74540000Y-96950000D02*
X74540000Y-100400000D01*
X79660000Y-96950000D02*
X79660000Y-98900000D01*
X74540000Y-96950000D02*
X74540000Y-95000000D01*
D16*
X99000000Y-115825000D02*
X99000000Y-104225000D01*
X103000000Y-104225000D02*
X103000000Y-115825000D01*
X99000000Y-104225000D02*
X103000000Y-104225000D01*
D12*
X101000000Y-116425000D02*
X101000000Y-116425000D01*
D16*
X103000000Y-115825000D02*
X99000000Y-115825000D01*
D12*
X101000000Y-116225000D02*
X101000000Y-116225000D01*
X101000000Y-116425000D02*
G75*
G03*
X101000000Y-116225000I0J100000D01*
G01*
X101000000Y-116225000D02*
G75*
G03*
X101000000Y-116425000I0J-100000D01*
G01*
D15*
X98035000Y-100838748D02*
X98035000Y-101361252D01*
X96565000Y-100838748D02*
X96565000Y-101361252D01*
X94340000Y-88840000D02*
X96690000Y-88840000D01*
X95404437Y-95660000D02*
X96690000Y-95660000D01*
X95508750Y-96293750D02*
X96296250Y-96293750D01*
X94340000Y-94595563D02*
X94340000Y-88840000D01*
X100095563Y-95660000D02*
X101160000Y-94595563D01*
X100095563Y-95660000D02*
X98810000Y-95660000D01*
X101160000Y-88840000D02*
X98810000Y-88840000D01*
X95902500Y-96687500D02*
X95902500Y-95900000D01*
X95404437Y-95660000D02*
X94340000Y-94595563D01*
X101160000Y-94595563D02*
X101160000Y-88840000D01*
X56522936Y-99235000D02*
X56977064Y-99235000D01*
X56522936Y-97765000D02*
X56977064Y-97765000D01*
X80235000Y-103038748D02*
X80235000Y-103561252D01*
X78765000Y-103038748D02*
X78765000Y-103561252D01*
X103615000Y-106077064D02*
X103615000Y-105622936D01*
X105085000Y-106077064D02*
X105085000Y-105622936D01*
X106735000Y-100738748D02*
X106735000Y-101261252D01*
X105265000Y-100738748D02*
X105265000Y-101261252D01*
D16*
X74150000Y-115825000D02*
X74150000Y-104225000D01*
X78150000Y-115825000D02*
X74150000Y-115825000D01*
D12*
X76150000Y-116225000D02*
X76150000Y-116225000D01*
D16*
X74150000Y-104225000D02*
X78150000Y-104225000D01*
D12*
X76150000Y-116425000D02*
X76150000Y-116425000D01*
D16*
X78150000Y-104225000D02*
X78150000Y-115825000D01*
D12*
X76150000Y-116425000D02*
G75*
G03*
X76150000Y-116225000I0J100000D01*
G01*
X76150000Y-116225000D02*
G75*
G03*
X76150000Y-116425000I0J-100000D01*
G01*
D15*
X103390000Y-111135000D02*
X105310000Y-111135000D01*
X103390000Y-108450000D02*
X103390000Y-111135000D01*
X105310000Y-111135000D02*
X105310000Y-108450000D01*
X58630000Y-89995000D02*
X58630000Y-91095000D01*
X58900000Y-88495000D02*
X58900000Y-89995000D01*
X52000000Y-88495000D02*
X52000000Y-89995000D01*
X58900000Y-89995000D02*
X58630000Y-89995000D01*
X52270000Y-89995000D02*
X52270000Y-92825000D01*
X52000000Y-89995000D02*
X52270000Y-89995000D01*
X67265000Y-101772936D02*
X67265000Y-102227064D01*
X68735000Y-101772936D02*
X68735000Y-102227064D01*
X40050000Y-92500000D02*
X41850000Y-92500000D01*
X41850000Y-92500000D02*
X41850000Y-91750000D01*
X41100000Y-90250000D02*
X41100000Y-87300000D01*
X41850000Y-90250000D02*
X41100000Y-90250000D01*
X42150000Y-92800000D02*
X42150000Y-91550000D01*
X35000000Y-90250000D02*
X35000000Y-87300000D01*
X40050000Y-91750000D02*
X40050000Y-92500000D01*
X34240000Y-86540000D02*
X34240000Y-92510000D01*
X37550000Y-91750000D02*
X37550000Y-92500000D01*
X34240000Y-92510000D02*
X41860000Y-92510000D01*
X41850000Y-91750000D02*
X40050000Y-91750000D01*
X35000000Y-87300000D02*
X38050000Y-87300000D01*
X34250000Y-92500000D02*
X36050000Y-92500000D01*
X38550000Y-91750000D02*
X37550000Y-91750000D01*
X41860000Y-86540000D02*
X34240000Y-86540000D01*
X36050000Y-92500000D02*
X36050000Y-91750000D01*
X34250000Y-91750000D02*
X34250000Y-92500000D01*
X38550000Y-92500000D02*
X38550000Y-91750000D01*
X36050000Y-91750000D02*
X34250000Y-91750000D01*
X41860000Y-92510000D02*
X41860000Y-86540000D01*
X37550000Y-92500000D02*
X38550000Y-92500000D01*
X41100000Y-87300000D02*
X38050000Y-87300000D01*
X34250000Y-90250000D02*
X35000000Y-90250000D01*
X40900000Y-92800000D02*
X42150000Y-92800000D01*
X83027064Y-98835000D02*
X82572936Y-98835000D01*
X83027064Y-97365000D02*
X82572936Y-97365000D01*
X83027064Y-96435000D02*
X82572936Y-96435000D01*
X83027064Y-94965000D02*
X82572936Y-94965000D01*
D12*
X50610000Y-103536000D02*
X50610000Y-86264000D01*
X42990000Y-103536000D02*
X50610000Y-103536000D01*
X42990000Y-86264000D02*
X42990000Y-103536000D01*
X50610000Y-86264000D02*
X42990000Y-86264000D01*
D15*
X93335000Y-101272936D02*
X93335000Y-101727064D01*
X91865000Y-101272936D02*
X91865000Y-101727064D01*
X82572936Y-101235000D02*
X83027064Y-101235000D01*
X82572936Y-99765000D02*
X83027064Y-99765000D01*
X34250000Y-100700000D02*
X34250000Y-101450000D01*
X40900000Y-101750000D02*
X42150000Y-101750000D01*
X35000000Y-96250000D02*
X38050000Y-96250000D01*
X38550000Y-100700000D02*
X37550000Y-100700000D01*
X34250000Y-99200000D02*
X35000000Y-99200000D01*
X41850000Y-101450000D02*
X41850000Y-100700000D01*
X41850000Y-99200000D02*
X41100000Y-99200000D01*
X40050000Y-100700000D02*
X40050000Y-101450000D01*
X34240000Y-95490000D02*
X34240000Y-101460000D01*
X41860000Y-95490000D02*
X34240000Y-95490000D01*
X40050000Y-101450000D02*
X41850000Y-101450000D01*
X41100000Y-99200000D02*
X41100000Y-96250000D01*
X42150000Y-101750000D02*
X42150000Y-100500000D01*
X38550000Y-101450000D02*
X38550000Y-100700000D01*
X41100000Y-96250000D02*
X38050000Y-96250000D01*
X34250000Y-101450000D02*
X36050000Y-101450000D01*
X35000000Y-99200000D02*
X35000000Y-96250000D01*
X41850000Y-100700000D02*
X40050000Y-100700000D01*
X37550000Y-101450000D02*
X38550000Y-101450000D01*
X37550000Y-100700000D02*
X37550000Y-101450000D01*
X41860000Y-101460000D02*
X41860000Y-95490000D01*
X36050000Y-100700000D02*
X34250000Y-100700000D01*
X34240000Y-101460000D02*
X41860000Y-101460000D01*
X36050000Y-101450000D02*
X36050000Y-100700000D01*
X68735000Y-95677064D02*
X68735000Y-95222936D01*
X67265000Y-95677064D02*
X67265000Y-95222936D01*
X53522936Y-93765000D02*
X53977064Y-93765000D01*
X53522936Y-95235000D02*
X53977064Y-95235000D01*
X103502500Y-96687500D02*
X103502500Y-95900000D01*
X108760000Y-94595563D02*
X108760000Y-88840000D01*
X101940000Y-94595563D02*
X101940000Y-88840000D01*
X101940000Y-88840000D02*
X104290000Y-88840000D01*
X103004437Y-95660000D02*
X104290000Y-95660000D01*
X103108750Y-96293750D02*
X103896250Y-96293750D01*
X107695563Y-95660000D02*
X108760000Y-94595563D01*
X108760000Y-88840000D02*
X106410000Y-88840000D01*
X107695563Y-95660000D02*
X106410000Y-95660000D01*
X103004437Y-95660000D02*
X101940000Y-94595563D01*
X104635000Y-101227064D02*
X104635000Y-100772936D01*
X103165000Y-101227064D02*
X103165000Y-100772936D01*
X82572936Y-103535000D02*
X83027064Y-103535000D01*
X82572936Y-102065000D02*
X83027064Y-102065000D01*
%LPC*%
D17*
X64750000Y-107062500D03*
X62850000Y-107062500D03*
X63800000Y-108937500D03*
D18*
X85900000Y-100900000D03*
X85900000Y-102900000D03*
X80100000Y-115400000D03*
X80100000Y-117400000D03*
D19*
X73150000Y-91950000D03*
X71150000Y-91950000D03*
D20*
X95950000Y-111137500D03*
X95950000Y-106097500D03*
X93410000Y-111137500D03*
X93410000Y-106097500D03*
X90870000Y-111137500D03*
X90870000Y-106097500D03*
X88330000Y-111137500D03*
X88330000Y-106097500D03*
X85790000Y-111137500D03*
X85790000Y-106097500D03*
X83250000Y-111137500D03*
X83250000Y-106097500D03*
D21*
X91480000Y-83350000D03*
D22*
X89200000Y-89650000D03*
D21*
X86920000Y-83350000D03*
D23*
X53637500Y-102750000D03*
X51762500Y-102750000D03*
D24*
X82912500Y-91000000D03*
X84787500Y-91000000D03*
D25*
X81800000Y-93350000D03*
X83800000Y-93350000D03*
D26*
X101800000Y-100112500D03*
X101800000Y-101987500D03*
D27*
X59950000Y-94550000D03*
X56650000Y-94550000D03*
D28*
X73000000Y-103000000D03*
X73000000Y-101000000D03*
D29*
X94900000Y-99837500D03*
X94900000Y-102962500D03*
D19*
X57750000Y-102750000D03*
X55750000Y-102750000D03*
D30*
X61845000Y-99575000D03*
X63115000Y-99575000D03*
X64385000Y-99575000D03*
X65655000Y-99575000D03*
X65655000Y-94625000D03*
X64385000Y-94625000D03*
X63115000Y-94625000D03*
X61845000Y-94625000D03*
D31*
X69550000Y-87800000D03*
X72050000Y-87800000D03*
X74550000Y-87800000D03*
D25*
X51800000Y-98500000D03*
X53800000Y-98500000D03*
D18*
X72950000Y-94450000D03*
X72950000Y-96450000D03*
D28*
X84600000Y-89100000D03*
X84600000Y-87100000D03*
D18*
X70450000Y-94450000D03*
X70450000Y-96450000D03*
D32*
X90250000Y-100028022D03*
X89750000Y-100028022D03*
X89250000Y-100028022D03*
X88750000Y-100028022D03*
X88250000Y-100028022D03*
X88250000Y-102978022D03*
X88750000Y-102978022D03*
X89250000Y-102978022D03*
X89750000Y-102978022D03*
X90250000Y-102978022D03*
D33*
X90800000Y-101253022D03*
X87700000Y-101753022D03*
D34*
X89250000Y-101503022D03*
D33*
X87700000Y-101253022D03*
X90800000Y-101753022D03*
D35*
X86450000Y-94150000D03*
X86450000Y-94800000D03*
X86450000Y-95450000D03*
X86455000Y-96100000D03*
X86450000Y-96750000D03*
X86450000Y-97400000D03*
X86450000Y-98050000D03*
X92150000Y-98050000D03*
X92150000Y-97400000D03*
X92150000Y-96750000D03*
X92150000Y-96100000D03*
X92150000Y-95450000D03*
X92150000Y-94800000D03*
X92150000Y-94150000D03*
D36*
X89300000Y-96100000D03*
D30*
X75195000Y-99425000D03*
X76465000Y-99425000D03*
X77735000Y-99425000D03*
X79005000Y-99425000D03*
X79005000Y-94475000D03*
X77735000Y-94475000D03*
X76465000Y-94475000D03*
X75195000Y-94475000D03*
D31*
X101000000Y-112525000D03*
X101000000Y-110025000D03*
X101000000Y-107525000D03*
D37*
X97300000Y-100062500D03*
X97300000Y-102137500D03*
D38*
X97750000Y-94950000D03*
X97750000Y-89550000D03*
D25*
X55750000Y-98500000D03*
X57750000Y-98500000D03*
D37*
X79500000Y-102262500D03*
X79500000Y-104337500D03*
D28*
X104350000Y-106850000D03*
X104350000Y-104850000D03*
D37*
X106000000Y-99962500D03*
X106000000Y-102037500D03*
D31*
X76150000Y-112525000D03*
X76150000Y-110025000D03*
X76150000Y-107525000D03*
D39*
X104350000Y-110387500D03*
X104350000Y-108512500D03*
D21*
X53170000Y-91725000D03*
D22*
X55450000Y-85425000D03*
D21*
X57730000Y-91725000D03*
D18*
X68000000Y-101000000D03*
X68000000Y-103000000D03*
D40*
X39300000Y-90050000D03*
D41*
X36800000Y-90050000D03*
D19*
X83800000Y-98100000D03*
X81800000Y-98100000D03*
X83800000Y-95700000D03*
X81800000Y-95700000D03*
D42*
X46800000Y-94900000D03*
D43*
X48527200Y-91090000D03*
X45072800Y-98710000D03*
D18*
X92600000Y-100500000D03*
X92600000Y-102500000D03*
D25*
X81800000Y-100500000D03*
X83800000Y-100500000D03*
D40*
X39300000Y-99000000D03*
D41*
X36800000Y-99000000D03*
D28*
X68000000Y-96450000D03*
X68000000Y-94450000D03*
D25*
X52750000Y-94500000D03*
X54750000Y-94500000D03*
D38*
X105350000Y-94950000D03*
X105350000Y-89550000D03*
D28*
X103900000Y-102000000D03*
X103900000Y-100000000D03*
D25*
X81800000Y-102800000D03*
X83800000Y-102800000D03*
D44*
X63800000Y-117875000D03*
D45*
X63800000Y-115335000D03*
X61260000Y-117875000D03*
X61260000Y-115335000D03*
X58720000Y-117875000D03*
X58720000Y-115335000D03*
X56180000Y-117875000D03*
X56180000Y-115335000D03*
X53640000Y-117875000D03*
X53640000Y-115335000D03*
X51100000Y-117875000D03*
X51100000Y-115335000D03*
D44*
X110400000Y-100000000D03*
D45*
X112940000Y-100000000D03*
X110400000Y-97460000D03*
X112940000Y-97460000D03*
X110400000Y-94920000D03*
X112940000Y-94920000D03*
X110400000Y-92380000D03*
X112940000Y-92380000D03*
X110400000Y-89840000D03*
X112940000Y-89840000D03*
X110400000Y-87300000D03*
X112940000Y-87300000D03*
D44*
X96000000Y-117875000D03*
D45*
X96000000Y-115335000D03*
X93460000Y-117875000D03*
X93460000Y-115335000D03*
X90920000Y-117875000D03*
X90920000Y-115335000D03*
X88380000Y-117875000D03*
X88380000Y-115335000D03*
X85840000Y-117875000D03*
X85840000Y-115335000D03*
X83300000Y-117875000D03*
X83300000Y-115335000D03*
M02*
