G04 #@! TF.GenerationSoftware,KiCad,Pcbnew,6.0.2-378541a8eb~116~ubuntu20.04.1*
G04 #@! TF.CreationDate,2023-01-27T16:36:07+01:00*
G04 #@! TF.ProjectId,BUCKY_POWER,4255434b-595f-4504-9f57-45522e6b6963,rev?*
G04 #@! TF.SameCoordinates,Original*
G04 #@! TF.FileFunction,Copper,L2,Bot*
G04 #@! TF.FilePolarity,Positive*
%FSLAX46Y46*%
G04 Gerber Fmt 4.6, Leading zero omitted, Abs format (unit mm)*
G04 Created by KiCad (PCBNEW 6.0.2-378541a8eb~116~ubuntu20.04.1) date 2023-01-27 16:36:07*
%MOMM*%
%LPD*%
G01*
G04 APERTURE LIST*
G04 Aperture macros list*
%AMRoundRect*
0 Rectangle with rounded corners*
0 $1 Rounding radius*
0 $2 $3 $4 $5 $6 $7 $8 $9 X,Y pos of 4 corners*
0 Add a 4 corners polygon primitive as box body*
4,1,4,$2,$3,$4,$5,$6,$7,$8,$9,$2,$3,0*
0 Add four circle primitives for the rounded corners*
1,1,$1+$1,$2,$3*
1,1,$1+$1,$4,$5*
1,1,$1+$1,$6,$7*
1,1,$1+$1,$8,$9*
0 Add four rect primitives between the rounded corners*
20,1,$1+$1,$2,$3,$4,$5,0*
20,1,$1+$1,$4,$5,$6,$7,0*
20,1,$1+$1,$6,$7,$8,$9,0*
20,1,$1+$1,$8,$9,$2,$3,0*%
G04 Aperture macros list end*
G04 #@! TA.AperFunction,ComponentPad*
%ADD10C,1.500000*%
G04 #@! TD*
G04 #@! TA.AperFunction,ComponentPad*
%ADD11C,0.600000*%
G04 #@! TD*
G04 #@! TA.AperFunction,SMDPad,CuDef*
%ADD12R,2.400000X1.650000*%
G04 #@! TD*
G04 #@! TA.AperFunction,ComponentPad*
%ADD13RoundRect,0.250000X0.600000X0.750000X-0.600000X0.750000X-0.600000X-0.750000X0.600000X-0.750000X0*%
G04 #@! TD*
G04 #@! TA.AperFunction,ComponentPad*
%ADD14O,1.700000X2.000000*%
G04 #@! TD*
G04 #@! TA.AperFunction,ComponentPad*
%ADD15C,3.000000*%
G04 #@! TD*
G04 #@! TA.AperFunction,ComponentPad*
%ADD16R,1.700000X1.700000*%
G04 #@! TD*
G04 #@! TA.AperFunction,ComponentPad*
%ADD17O,1.700000X1.700000*%
G04 #@! TD*
G04 #@! TA.AperFunction,ViaPad*
%ADD18C,0.400000*%
G04 #@! TD*
G04 #@! TA.AperFunction,ViaPad*
%ADD19C,0.600000*%
G04 #@! TD*
G04 #@! TA.AperFunction,ViaPad*
%ADD20C,0.800000*%
G04 #@! TD*
G04 #@! TA.AperFunction,Conductor*
%ADD21C,0.254000*%
G04 #@! TD*
G04 #@! TA.AperFunction,Conductor*
%ADD22C,0.200000*%
G04 #@! TD*
G04 APERTURE END LIST*
D10*
X69550000Y-87800000D03*
X72050000Y-87800000D03*
X74550000Y-87800000D03*
D11*
X89250000Y-101503022D03*
X90110000Y-101023022D03*
D12*
X89250000Y-101503022D03*
D11*
X88390000Y-101983022D03*
X90110000Y-101983022D03*
X88390000Y-101023022D03*
D10*
X101000000Y-112525000D03*
X101000000Y-110025000D03*
X101000000Y-107525000D03*
X76150000Y-112525000D03*
X76150000Y-110025000D03*
X76150000Y-107525000D03*
D13*
X39300000Y-90050000D03*
D14*
X36800000Y-90050000D03*
D15*
X48527200Y-91090000D03*
X45072800Y-98710000D03*
D13*
X39300000Y-99000000D03*
D14*
X36800000Y-99000000D03*
D16*
X63800000Y-117875000D03*
D17*
X63800000Y-115335000D03*
X61260000Y-117875000D03*
X61260000Y-115335000D03*
X58720000Y-117875000D03*
X58720000Y-115335000D03*
X56180000Y-117875000D03*
X56180000Y-115335000D03*
X53640000Y-117875000D03*
X53640000Y-115335000D03*
X51100000Y-117875000D03*
X51100000Y-115335000D03*
D16*
X110400000Y-100000000D03*
D17*
X112940000Y-100000000D03*
X110400000Y-97460000D03*
X112940000Y-97460000D03*
X110400000Y-94920000D03*
X112940000Y-94920000D03*
X110400000Y-92380000D03*
X112940000Y-92380000D03*
X110400000Y-89840000D03*
X112940000Y-89840000D03*
X110400000Y-87300000D03*
X112940000Y-87300000D03*
D16*
X96000000Y-117875000D03*
D17*
X96000000Y-115335000D03*
X93460000Y-117875000D03*
X93460000Y-115335000D03*
X90920000Y-117875000D03*
X90920000Y-115335000D03*
X88380000Y-117875000D03*
X88380000Y-115335000D03*
X85840000Y-117875000D03*
X85840000Y-115335000D03*
X83300000Y-117875000D03*
X83300000Y-115335000D03*
D18*
X89130244Y-99926511D03*
X91250000Y-99950000D03*
D19*
X75200000Y-100900000D03*
X74700000Y-103000000D03*
X76200000Y-96500000D03*
X72950000Y-96450000D03*
D20*
X105600000Y-110400000D03*
D19*
X101800000Y-99100000D03*
D18*
X81800000Y-91450000D03*
D19*
X77950000Y-96500000D03*
D18*
X97300000Y-103450000D03*
D19*
X70400000Y-98000000D03*
X79500000Y-105800000D03*
D20*
X97750000Y-87100000D03*
D18*
X106000000Y-103600000D03*
D20*
X105350000Y-87100000D03*
D18*
X65600000Y-95900000D03*
X63000000Y-98026500D03*
X80826500Y-95700000D03*
D19*
X80600000Y-98800000D03*
X92600000Y-102550000D03*
D18*
X90750000Y-103000000D03*
D19*
X89675000Y-99175000D03*
D21*
X91250000Y-99950000D02*
X89153733Y-99950000D01*
X89153733Y-99950000D02*
X89130244Y-99926511D01*
D22*
X75200000Y-100900000D02*
X75200000Y-102500000D01*
X75200000Y-102500000D02*
X74700000Y-103000000D01*
X73000000Y-96500000D02*
X72950000Y-96450000D01*
X76200000Y-96500000D02*
X73000000Y-96500000D01*
D21*
X63473500Y-98026500D02*
X63000000Y-98026500D01*
X65600000Y-95900000D02*
X63473500Y-98026500D01*
X76150000Y-107525000D02*
X76150000Y-100376500D01*
X76150000Y-100376500D02*
X80826500Y-95700000D01*
D22*
X80600000Y-112635000D02*
X80600000Y-98800000D01*
X83300000Y-115335000D02*
X80600000Y-112635000D01*
D21*
X92150000Y-103000000D02*
X92600000Y-102550000D01*
X90750000Y-103000000D02*
X92150000Y-103000000D01*
D22*
X98950000Y-100500000D02*
X98950000Y-109050000D01*
X99925000Y-110025000D02*
X101000000Y-110025000D01*
X97625000Y-99175000D02*
X98950000Y-100500000D01*
X98950000Y-109050000D02*
X99925000Y-110025000D01*
X89675000Y-99175000D02*
X97625000Y-99175000D01*
G04 #@! TA.AperFunction,Conductor*
G36*
X110910721Y-81274002D02*
G01*
X110931695Y-81290905D01*
X114709095Y-85068306D01*
X114743121Y-85130618D01*
X114746000Y-85157401D01*
X114746000Y-104842599D01*
X114725998Y-104910720D01*
X114709095Y-104931694D01*
X99931695Y-119709095D01*
X99869383Y-119743121D01*
X99842600Y-119746000D01*
X46157401Y-119746000D01*
X46089280Y-119725998D01*
X46068306Y-119709095D01*
X44205175Y-117845964D01*
X82191148Y-117845964D01*
X82204424Y-118048522D01*
X82205845Y-118054118D01*
X82205846Y-118054123D01*
X82226119Y-118133945D01*
X82254392Y-118245269D01*
X82256809Y-118250512D01*
X82294010Y-118331208D01*
X82339377Y-118429616D01*
X82456533Y-118595389D01*
X82601938Y-118737035D01*
X82770720Y-118849812D01*
X82776023Y-118852090D01*
X82776026Y-118852092D01*
X82907283Y-118908484D01*
X82957228Y-118929942D01*
X83030244Y-118946464D01*
X83149579Y-118973467D01*
X83149584Y-118973468D01*
X83155216Y-118974742D01*
X83160987Y-118974969D01*
X83160989Y-118974969D01*
X83220756Y-118977317D01*
X83358053Y-118982712D01*
X83465348Y-118967155D01*
X83553231Y-118954413D01*
X83553236Y-118954412D01*
X83558945Y-118953584D01*
X83564409Y-118951729D01*
X83564414Y-118951728D01*
X83745693Y-118890192D01*
X83745698Y-118890190D01*
X83751165Y-118888334D01*
X83928276Y-118789147D01*
X83967969Y-118756135D01*
X84079913Y-118663031D01*
X84084345Y-118659345D01*
X84214147Y-118503276D01*
X84313334Y-118326165D01*
X84315190Y-118320698D01*
X84315192Y-118320693D01*
X84376728Y-118139414D01*
X84376729Y-118139409D01*
X84378584Y-118133945D01*
X84379412Y-118128236D01*
X84379413Y-118128231D01*
X84407179Y-117936727D01*
X84407712Y-117933053D01*
X84409232Y-117875000D01*
X84406564Y-117845964D01*
X84731148Y-117845964D01*
X84744424Y-118048522D01*
X84745845Y-118054118D01*
X84745846Y-118054123D01*
X84766119Y-118133945D01*
X84794392Y-118245269D01*
X84796809Y-118250512D01*
X84834010Y-118331208D01*
X84879377Y-118429616D01*
X84996533Y-118595389D01*
X85141938Y-118737035D01*
X85310720Y-118849812D01*
X85316023Y-118852090D01*
X85316026Y-118852092D01*
X85447283Y-118908484D01*
X85497228Y-118929942D01*
X85570244Y-118946464D01*
X85689579Y-118973467D01*
X85689584Y-118973468D01*
X85695216Y-118974742D01*
X85700987Y-118974969D01*
X85700989Y-118974969D01*
X85760756Y-118977317D01*
X85898053Y-118982712D01*
X86005348Y-118967155D01*
X86093231Y-118954413D01*
X86093236Y-118954412D01*
X86098945Y-118953584D01*
X86104409Y-118951729D01*
X86104414Y-118951728D01*
X86285693Y-118890192D01*
X86285698Y-118890190D01*
X86291165Y-118888334D01*
X86468276Y-118789147D01*
X86507969Y-118756135D01*
X86619913Y-118663031D01*
X86624345Y-118659345D01*
X86754147Y-118503276D01*
X86853334Y-118326165D01*
X86855190Y-118320698D01*
X86855192Y-118320693D01*
X86916728Y-118139414D01*
X86916729Y-118139409D01*
X86918584Y-118133945D01*
X86919412Y-118128236D01*
X86919413Y-118128231D01*
X86947179Y-117936727D01*
X86947712Y-117933053D01*
X86949232Y-117875000D01*
X86946564Y-117845964D01*
X87271148Y-117845964D01*
X87284424Y-118048522D01*
X87285845Y-118054118D01*
X87285846Y-118054123D01*
X87306119Y-118133945D01*
X87334392Y-118245269D01*
X87336809Y-118250512D01*
X87374010Y-118331208D01*
X87419377Y-118429616D01*
X87536533Y-118595389D01*
X87681938Y-118737035D01*
X87850720Y-118849812D01*
X87856023Y-118852090D01*
X87856026Y-118852092D01*
X87987283Y-118908484D01*
X88037228Y-118929942D01*
X88110244Y-118946464D01*
X88229579Y-118973467D01*
X88229584Y-118973468D01*
X88235216Y-118974742D01*
X88240987Y-118974969D01*
X88240989Y-118974969D01*
X88300756Y-118977317D01*
X88438053Y-118982712D01*
X88545348Y-118967155D01*
X88633231Y-118954413D01*
X88633236Y-118954412D01*
X88638945Y-118953584D01*
X88644409Y-118951729D01*
X88644414Y-118951728D01*
X88825693Y-118890192D01*
X88825698Y-118890190D01*
X88831165Y-118888334D01*
X89008276Y-118789147D01*
X89047969Y-118756135D01*
X89159913Y-118663031D01*
X89164345Y-118659345D01*
X89294147Y-118503276D01*
X89393334Y-118326165D01*
X89395190Y-118320698D01*
X89395192Y-118320693D01*
X89456728Y-118139414D01*
X89456729Y-118139409D01*
X89458584Y-118133945D01*
X89459412Y-118128236D01*
X89459413Y-118128231D01*
X89487179Y-117936727D01*
X89487712Y-117933053D01*
X89489232Y-117875000D01*
X89486564Y-117845964D01*
X89811148Y-117845964D01*
X89824424Y-118048522D01*
X89825845Y-118054118D01*
X89825846Y-118054123D01*
X89846119Y-118133945D01*
X89874392Y-118245269D01*
X89876809Y-118250512D01*
X89914010Y-118331208D01*
X89959377Y-118429616D01*
X90076533Y-118595389D01*
X90221938Y-118737035D01*
X90390720Y-118849812D01*
X90396023Y-118852090D01*
X90396026Y-118852092D01*
X90527283Y-118908484D01*
X90577228Y-118929942D01*
X90650244Y-118946464D01*
X90769579Y-118973467D01*
X90769584Y-118973468D01*
X90775216Y-118974742D01*
X90780987Y-118974969D01*
X90780989Y-118974969D01*
X90840756Y-118977317D01*
X90978053Y-118982712D01*
X91085348Y-118967155D01*
X91173231Y-118954413D01*
X91173236Y-118954412D01*
X91178945Y-118953584D01*
X91184409Y-118951729D01*
X91184414Y-118951728D01*
X91365693Y-118890192D01*
X91365698Y-118890190D01*
X91371165Y-118888334D01*
X91548276Y-118789147D01*
X91587969Y-118756135D01*
X91699913Y-118663031D01*
X91704345Y-118659345D01*
X91834147Y-118503276D01*
X91933334Y-118326165D01*
X91935190Y-118320698D01*
X91935192Y-118320693D01*
X91996728Y-118139414D01*
X91996729Y-118139409D01*
X91998584Y-118133945D01*
X91999412Y-118128236D01*
X91999413Y-118128231D01*
X92027179Y-117936727D01*
X92027712Y-117933053D01*
X92029232Y-117875000D01*
X92026564Y-117845964D01*
X92351148Y-117845964D01*
X92364424Y-118048522D01*
X92365845Y-118054118D01*
X92365846Y-118054123D01*
X92386119Y-118133945D01*
X92414392Y-118245269D01*
X92416809Y-118250512D01*
X92454010Y-118331208D01*
X92499377Y-118429616D01*
X92616533Y-118595389D01*
X92761938Y-118737035D01*
X92930720Y-118849812D01*
X92936023Y-118852090D01*
X92936026Y-118852092D01*
X93067283Y-118908484D01*
X93117228Y-118929942D01*
X93190244Y-118946464D01*
X93309579Y-118973467D01*
X93309584Y-118973468D01*
X93315216Y-118974742D01*
X93320987Y-118974969D01*
X93320989Y-118974969D01*
X93380756Y-118977317D01*
X93518053Y-118982712D01*
X93625348Y-118967155D01*
X93713231Y-118954413D01*
X93713236Y-118954412D01*
X93718945Y-118953584D01*
X93724409Y-118951729D01*
X93724414Y-118951728D01*
X93905693Y-118890192D01*
X93905698Y-118890190D01*
X93911165Y-118888334D01*
X94088276Y-118789147D01*
X94127969Y-118756135D01*
X94239913Y-118663031D01*
X94244345Y-118659345D01*
X94374147Y-118503276D01*
X94473334Y-118326165D01*
X94475190Y-118320698D01*
X94475192Y-118320693D01*
X94536728Y-118139414D01*
X94536729Y-118139409D01*
X94538584Y-118133945D01*
X94539412Y-118128236D01*
X94539413Y-118128231D01*
X94567179Y-117936727D01*
X94567712Y-117933053D01*
X94569232Y-117875000D01*
X94550658Y-117672859D01*
X94549090Y-117667299D01*
X94497125Y-117483046D01*
X94497124Y-117483044D01*
X94495557Y-117477487D01*
X94484978Y-117456033D01*
X94408331Y-117300609D01*
X94405776Y-117295428D01*
X94284320Y-117132779D01*
X94140609Y-116999933D01*
X94895500Y-116999933D01*
X94895501Y-118750066D01*
X94910266Y-118824301D01*
X94917161Y-118834620D01*
X94917162Y-118834622D01*
X94957516Y-118895015D01*
X94966516Y-118908484D01*
X95050699Y-118964734D01*
X95124933Y-118979500D01*
X95999858Y-118979500D01*
X96875066Y-118979499D01*
X96910818Y-118972388D01*
X96937126Y-118967156D01*
X96937128Y-118967155D01*
X96949301Y-118964734D01*
X96959621Y-118957839D01*
X96959622Y-118957838D01*
X97023168Y-118915377D01*
X97033484Y-118908484D01*
X97089734Y-118824301D01*
X97104500Y-118750067D01*
X97104499Y-116999934D01*
X97089734Y-116925699D01*
X97063654Y-116886667D01*
X97040377Y-116851832D01*
X97033484Y-116841516D01*
X96949301Y-116785266D01*
X96875067Y-116770500D01*
X96000142Y-116770500D01*
X95124934Y-116770501D01*
X95089182Y-116777612D01*
X95062874Y-116782844D01*
X95062872Y-116782845D01*
X95050699Y-116785266D01*
X95040379Y-116792161D01*
X95040378Y-116792162D01*
X94979985Y-116832516D01*
X94966516Y-116841516D01*
X94910266Y-116925699D01*
X94895500Y-116999933D01*
X94140609Y-116999933D01*
X94135258Y-116994987D01*
X94130375Y-116991906D01*
X94130371Y-116991903D01*
X93968464Y-116889748D01*
X93963581Y-116886667D01*
X93775039Y-116811446D01*
X93769379Y-116810320D01*
X93769375Y-116810319D01*
X93581613Y-116772971D01*
X93581610Y-116772971D01*
X93575946Y-116771844D01*
X93570171Y-116771768D01*
X93570167Y-116771768D01*
X93468793Y-116770441D01*
X93372971Y-116769187D01*
X93367274Y-116770166D01*
X93367273Y-116770166D01*
X93279397Y-116785266D01*
X93172910Y-116803564D01*
X92982463Y-116873824D01*
X92808010Y-116977612D01*
X92803670Y-116981418D01*
X92803666Y-116981421D01*
X92659733Y-117107648D01*
X92655392Y-117111455D01*
X92529720Y-117270869D01*
X92527031Y-117275980D01*
X92527029Y-117275983D01*
X92514073Y-117300609D01*
X92435203Y-117450515D01*
X92375007Y-117644378D01*
X92351148Y-117845964D01*
X92026564Y-117845964D01*
X92010658Y-117672859D01*
X92009090Y-117667299D01*
X91957125Y-117483046D01*
X91957124Y-117483044D01*
X91955557Y-117477487D01*
X91944978Y-117456033D01*
X91868331Y-117300609D01*
X91865776Y-117295428D01*
X91744320Y-117132779D01*
X91595258Y-116994987D01*
X91590375Y-116991906D01*
X91590371Y-116991903D01*
X91428464Y-116889748D01*
X91423581Y-116886667D01*
X91235039Y-116811446D01*
X91229379Y-116810320D01*
X91229375Y-116810319D01*
X91041613Y-116772971D01*
X91041610Y-116772971D01*
X91035946Y-116771844D01*
X91030171Y-116771768D01*
X91030167Y-116771768D01*
X90928793Y-116770441D01*
X90832971Y-116769187D01*
X90827274Y-116770166D01*
X90827273Y-116770166D01*
X90739397Y-116785266D01*
X90632910Y-116803564D01*
X90442463Y-116873824D01*
X90268010Y-116977612D01*
X90263670Y-116981418D01*
X90263666Y-116981421D01*
X90119733Y-117107648D01*
X90115392Y-117111455D01*
X89989720Y-117270869D01*
X89987031Y-117275980D01*
X89987029Y-117275983D01*
X89974073Y-117300609D01*
X89895203Y-117450515D01*
X89835007Y-117644378D01*
X89811148Y-117845964D01*
X89486564Y-117845964D01*
X89470658Y-117672859D01*
X89469090Y-117667299D01*
X89417125Y-117483046D01*
X89417124Y-117483044D01*
X89415557Y-117477487D01*
X89404978Y-117456033D01*
X89328331Y-117300609D01*
X89325776Y-117295428D01*
X89204320Y-117132779D01*
X89055258Y-116994987D01*
X89050375Y-116991906D01*
X89050371Y-116991903D01*
X88888464Y-116889748D01*
X88883581Y-116886667D01*
X88695039Y-116811446D01*
X88689379Y-116810320D01*
X88689375Y-116810319D01*
X88501613Y-116772971D01*
X88501610Y-116772971D01*
X88495946Y-116771844D01*
X88490171Y-116771768D01*
X88490167Y-116771768D01*
X88388793Y-116770441D01*
X88292971Y-116769187D01*
X88287274Y-116770166D01*
X88287273Y-116770166D01*
X88199397Y-116785266D01*
X88092910Y-116803564D01*
X87902463Y-116873824D01*
X87728010Y-116977612D01*
X87723670Y-116981418D01*
X87723666Y-116981421D01*
X87579733Y-117107648D01*
X87575392Y-117111455D01*
X87449720Y-117270869D01*
X87447031Y-117275980D01*
X87447029Y-117275983D01*
X87434073Y-117300609D01*
X87355203Y-117450515D01*
X87295007Y-117644378D01*
X87271148Y-117845964D01*
X86946564Y-117845964D01*
X86930658Y-117672859D01*
X86929090Y-117667299D01*
X86877125Y-117483046D01*
X86877124Y-117483044D01*
X86875557Y-117477487D01*
X86864978Y-117456033D01*
X86788331Y-117300609D01*
X86785776Y-117295428D01*
X86664320Y-117132779D01*
X86515258Y-116994987D01*
X86510375Y-116991906D01*
X86510371Y-116991903D01*
X86348464Y-116889748D01*
X86343581Y-116886667D01*
X86155039Y-116811446D01*
X86149379Y-116810320D01*
X86149375Y-116810319D01*
X85961613Y-116772971D01*
X85961610Y-116772971D01*
X85955946Y-116771844D01*
X85950171Y-116771768D01*
X85950167Y-116771768D01*
X85848793Y-116770441D01*
X85752971Y-116769187D01*
X85747274Y-116770166D01*
X85747273Y-116770166D01*
X85659397Y-116785266D01*
X85552910Y-116803564D01*
X85362463Y-116873824D01*
X85188010Y-116977612D01*
X85183670Y-116981418D01*
X85183666Y-116981421D01*
X85039733Y-117107648D01*
X85035392Y-117111455D01*
X84909720Y-117270869D01*
X84907031Y-117275980D01*
X84907029Y-117275983D01*
X84894073Y-117300609D01*
X84815203Y-117450515D01*
X84755007Y-117644378D01*
X84731148Y-117845964D01*
X84406564Y-117845964D01*
X84390658Y-117672859D01*
X84389090Y-117667299D01*
X84337125Y-117483046D01*
X84337124Y-117483044D01*
X84335557Y-117477487D01*
X84324978Y-117456033D01*
X84248331Y-117300609D01*
X84245776Y-117295428D01*
X84124320Y-117132779D01*
X83975258Y-116994987D01*
X83970375Y-116991906D01*
X83970371Y-116991903D01*
X83808464Y-116889748D01*
X83803581Y-116886667D01*
X83615039Y-116811446D01*
X83609379Y-116810320D01*
X83609375Y-116810319D01*
X83421613Y-116772971D01*
X83421610Y-116772971D01*
X83415946Y-116771844D01*
X83410171Y-116771768D01*
X83410167Y-116771768D01*
X83308793Y-116770441D01*
X83212971Y-116769187D01*
X83207274Y-116770166D01*
X83207273Y-116770166D01*
X83119397Y-116785266D01*
X83012910Y-116803564D01*
X82822463Y-116873824D01*
X82648010Y-116977612D01*
X82643670Y-116981418D01*
X82643666Y-116981421D01*
X82499733Y-117107648D01*
X82495392Y-117111455D01*
X82369720Y-117270869D01*
X82367031Y-117275980D01*
X82367029Y-117275983D01*
X82354073Y-117300609D01*
X82275203Y-117450515D01*
X82215007Y-117644378D01*
X82191148Y-117845964D01*
X44205175Y-117845964D01*
X38870117Y-112510907D01*
X75140738Y-112510907D01*
X75141254Y-112517051D01*
X75155602Y-112687916D01*
X75157222Y-112707209D01*
X75172527Y-112760582D01*
X75209453Y-112889357D01*
X75211521Y-112896570D01*
X75301566Y-113071779D01*
X75305389Y-113076603D01*
X75305392Y-113076607D01*
X75333045Y-113111496D01*
X75423927Y-113226160D01*
X75428620Y-113230154D01*
X75428621Y-113230155D01*
X75453447Y-113251283D01*
X75573945Y-113353835D01*
X75579323Y-113356841D01*
X75579325Y-113356842D01*
X75609019Y-113373437D01*
X75745904Y-113449940D01*
X75933255Y-113510814D01*
X76128862Y-113534139D01*
X76134997Y-113533667D01*
X76134999Y-113533667D01*
X76194801Y-113529065D01*
X76325274Y-113519026D01*
X76515009Y-113466050D01*
X76520513Y-113463270D01*
X76685341Y-113380010D01*
X76685343Y-113380009D01*
X76690842Y-113377231D01*
X76846074Y-113255950D01*
X76850100Y-113251286D01*
X76850103Y-113251283D01*
X76970764Y-113111496D01*
X76970765Y-113111494D01*
X76974793Y-113106828D01*
X77072096Y-112935544D01*
X77134277Y-112748622D01*
X77158966Y-112553183D01*
X77159360Y-112525000D01*
X77140137Y-112328948D01*
X77083200Y-112140363D01*
X76990717Y-111966429D01*
X76866212Y-111813770D01*
X76800894Y-111759734D01*
X76719177Y-111692132D01*
X76719174Y-111692130D01*
X76714427Y-111688203D01*
X76541143Y-111594508D01*
X76352960Y-111536256D01*
X76346835Y-111535612D01*
X76346834Y-111535612D01*
X76163176Y-111516309D01*
X76163174Y-111516309D01*
X76157047Y-111515665D01*
X76075018Y-111523130D01*
X75967004Y-111532960D01*
X75967001Y-111532961D01*
X75960865Y-111533519D01*
X75954959Y-111535257D01*
X75954955Y-111535258D01*
X75814775Y-111576516D01*
X75771887Y-111589138D01*
X75766427Y-111591992D01*
X75766428Y-111591992D01*
X75602772Y-111677549D01*
X75602768Y-111677552D01*
X75597312Y-111680404D01*
X75443788Y-111803840D01*
X75317163Y-111954745D01*
X75222262Y-112127371D01*
X75220398Y-112133246D01*
X75220397Y-112133249D01*
X75216269Y-112146263D01*
X75162697Y-112315142D01*
X75140738Y-112510907D01*
X38870117Y-112510907D01*
X33290905Y-106931695D01*
X33256879Y-106869383D01*
X33254000Y-106842600D01*
X33254000Y-103000000D01*
X74140715Y-103000000D01*
X74141793Y-103008188D01*
X74152736Y-103091306D01*
X74159772Y-103144754D01*
X74215645Y-103279642D01*
X74240504Y-103312039D01*
X74295788Y-103384086D01*
X74304526Y-103395474D01*
X74311076Y-103400500D01*
X74311079Y-103400503D01*
X74382737Y-103455488D01*
X74420357Y-103484355D01*
X74555246Y-103540228D01*
X74700000Y-103559285D01*
X74708188Y-103558207D01*
X74836566Y-103541306D01*
X74844754Y-103540228D01*
X74979643Y-103484355D01*
X75017263Y-103455488D01*
X75088921Y-103400503D01*
X75088924Y-103400500D01*
X75095474Y-103395474D01*
X75104213Y-103384086D01*
X75159496Y-103312039D01*
X75184355Y-103279642D01*
X75240228Y-103144754D01*
X75247265Y-103091306D01*
X75258207Y-103008188D01*
X75259285Y-103000000D01*
X75258526Y-102994235D01*
X75278209Y-102927201D01*
X75295112Y-102906227D01*
X75414423Y-102786916D01*
X75429909Y-102774408D01*
X75433134Y-102771474D01*
X75441882Y-102765825D01*
X75461003Y-102741570D01*
X75464561Y-102737567D01*
X75464461Y-102737482D01*
X75467814Y-102733525D01*
X75471495Y-102729844D01*
X75481864Y-102715335D01*
X75485426Y-102710591D01*
X75508497Y-102681325D01*
X75508499Y-102681321D01*
X75514946Y-102673143D01*
X75517779Y-102665075D01*
X75522753Y-102658115D01*
X75525737Y-102648137D01*
X75529348Y-102640766D01*
X75577280Y-102588391D01*
X75645918Y-102570244D01*
X75713471Y-102592087D01*
X75758491Y-102646984D01*
X75768500Y-102696198D01*
X75768500Y-106514601D01*
X75748498Y-106582722D01*
X75700876Y-106626262D01*
X75597312Y-106680404D01*
X75443788Y-106803840D01*
X75317163Y-106954745D01*
X75310740Y-106966429D01*
X75237801Y-107099106D01*
X75222262Y-107127371D01*
X75220398Y-107133246D01*
X75220397Y-107133249D01*
X75216269Y-107146263D01*
X75162697Y-107315142D01*
X75140738Y-107510907D01*
X75157222Y-107707209D01*
X75211521Y-107896570D01*
X75301566Y-108071779D01*
X75305389Y-108076603D01*
X75305392Y-108076607D01*
X75333045Y-108111496D01*
X75423927Y-108226160D01*
X75428620Y-108230154D01*
X75428621Y-108230155D01*
X75453447Y-108251283D01*
X75573945Y-108353835D01*
X75579323Y-108356841D01*
X75579325Y-108356842D01*
X75609019Y-108373437D01*
X75745904Y-108449940D01*
X75933255Y-108510814D01*
X76128862Y-108534139D01*
X76134997Y-108533667D01*
X76134999Y-108533667D01*
X76194801Y-108529065D01*
X76325274Y-108519026D01*
X76515009Y-108466050D01*
X76520513Y-108463270D01*
X76685341Y-108380010D01*
X76685343Y-108380009D01*
X76690842Y-108377231D01*
X76846074Y-108255950D01*
X76850100Y-108251286D01*
X76850103Y-108251283D01*
X76970764Y-108111496D01*
X76970765Y-108111494D01*
X76974793Y-108106828D01*
X77072096Y-107935544D01*
X77134277Y-107748622D01*
X77158966Y-107553183D01*
X77159360Y-107525000D01*
X77140137Y-107328948D01*
X77083200Y-107140363D01*
X77008567Y-107000000D01*
X76993611Y-106971871D01*
X76993609Y-106971868D01*
X76990717Y-106966429D01*
X76866212Y-106813770D01*
X76800893Y-106759734D01*
X76719177Y-106692132D01*
X76719174Y-106692130D01*
X76714427Y-106688203D01*
X76597570Y-106625018D01*
X76547162Y-106575024D01*
X76531500Y-106514183D01*
X76531500Y-100586712D01*
X76551502Y-100518591D01*
X76568405Y-100497617D01*
X78266022Y-98800000D01*
X80040715Y-98800000D01*
X80041793Y-98808188D01*
X80057641Y-98928564D01*
X80059772Y-98944754D01*
X80068786Y-98966516D01*
X80108699Y-99062872D01*
X80115645Y-99079642D01*
X80204526Y-99195474D01*
X80209137Y-99199012D01*
X80242621Y-99260332D01*
X80245500Y-99287115D01*
X80245500Y-112583743D01*
X80243394Y-112603537D01*
X80243189Y-112607890D01*
X80240997Y-112618070D01*
X80242221Y-112628408D01*
X80244627Y-112648737D01*
X80244942Y-112654083D01*
X80245072Y-112654072D01*
X80245500Y-112659252D01*
X80245500Y-112664451D01*
X80246353Y-112669575D01*
X80246354Y-112669588D01*
X80248427Y-112682041D01*
X80249264Y-112687916D01*
X80254869Y-112735270D01*
X80258570Y-112742978D01*
X80259975Y-112751417D01*
X80282629Y-112793401D01*
X80285310Y-112798664D01*
X80305955Y-112841658D01*
X80309311Y-112845650D01*
X80311258Y-112847597D01*
X80312748Y-112849222D01*
X80312981Y-112849654D01*
X80312945Y-112849687D01*
X80313084Y-112849845D01*
X80316017Y-112855280D01*
X80323664Y-112862349D01*
X80352881Y-112889357D01*
X80356447Y-112892786D01*
X82245064Y-114781403D01*
X82279090Y-114843715D01*
X82273167Y-114909883D01*
X82275203Y-114910515D01*
X82215007Y-115104378D01*
X82191148Y-115305964D01*
X82204424Y-115508522D01*
X82205845Y-115514118D01*
X82205846Y-115514123D01*
X82226119Y-115593945D01*
X82254392Y-115705269D01*
X82256809Y-115710512D01*
X82294010Y-115791208D01*
X82339377Y-115889616D01*
X82456533Y-116055389D01*
X82601938Y-116197035D01*
X82770720Y-116309812D01*
X82776023Y-116312090D01*
X82776026Y-116312092D01*
X82864707Y-116350192D01*
X82957228Y-116389942D01*
X83030244Y-116406464D01*
X83149579Y-116433467D01*
X83149584Y-116433468D01*
X83155216Y-116434742D01*
X83160987Y-116434969D01*
X83160989Y-116434969D01*
X83220756Y-116437317D01*
X83358053Y-116442712D01*
X83458499Y-116428148D01*
X83553231Y-116414413D01*
X83553236Y-116414412D01*
X83558945Y-116413584D01*
X83564409Y-116411729D01*
X83564414Y-116411728D01*
X83745693Y-116350192D01*
X83745698Y-116350190D01*
X83751165Y-116348334D01*
X83928276Y-116249147D01*
X83990934Y-116197035D01*
X84079913Y-116123031D01*
X84084345Y-116119345D01*
X84214147Y-115963276D01*
X84313334Y-115786165D01*
X84315190Y-115780698D01*
X84315192Y-115780693D01*
X84376728Y-115599414D01*
X84376729Y-115599409D01*
X84378584Y-115593945D01*
X84379412Y-115588236D01*
X84379413Y-115588231D01*
X84407179Y-115396727D01*
X84407712Y-115393053D01*
X84409232Y-115335000D01*
X84406564Y-115305964D01*
X84731148Y-115305964D01*
X84744424Y-115508522D01*
X84745845Y-115514118D01*
X84745846Y-115514123D01*
X84766119Y-115593945D01*
X84794392Y-115705269D01*
X84796809Y-115710512D01*
X84834010Y-115791208D01*
X84879377Y-115889616D01*
X84996533Y-116055389D01*
X85141938Y-116197035D01*
X85310720Y-116309812D01*
X85316023Y-116312090D01*
X85316026Y-116312092D01*
X85404707Y-116350192D01*
X85497228Y-116389942D01*
X85570244Y-116406464D01*
X85689579Y-116433467D01*
X85689584Y-116433468D01*
X85695216Y-116434742D01*
X85700987Y-116434969D01*
X85700989Y-116434969D01*
X85760756Y-116437317D01*
X85898053Y-116442712D01*
X85998499Y-116428148D01*
X86093231Y-116414413D01*
X86093236Y-116414412D01*
X86098945Y-116413584D01*
X86104409Y-116411729D01*
X86104414Y-116411728D01*
X86285693Y-116350192D01*
X86285698Y-116350190D01*
X86291165Y-116348334D01*
X86468276Y-116249147D01*
X86530934Y-116197035D01*
X86619913Y-116123031D01*
X86624345Y-116119345D01*
X86754147Y-115963276D01*
X86853334Y-115786165D01*
X86855190Y-115780698D01*
X86855192Y-115780693D01*
X86916728Y-115599414D01*
X86916729Y-115599409D01*
X86918584Y-115593945D01*
X86919412Y-115588236D01*
X86919413Y-115588231D01*
X86947179Y-115396727D01*
X86947712Y-115393053D01*
X86949232Y-115335000D01*
X86946564Y-115305964D01*
X87271148Y-115305964D01*
X87284424Y-115508522D01*
X87285845Y-115514118D01*
X87285846Y-115514123D01*
X87306119Y-115593945D01*
X87334392Y-115705269D01*
X87336809Y-115710512D01*
X87374010Y-115791208D01*
X87419377Y-115889616D01*
X87536533Y-116055389D01*
X87681938Y-116197035D01*
X87850720Y-116309812D01*
X87856023Y-116312090D01*
X87856026Y-116312092D01*
X87944707Y-116350192D01*
X88037228Y-116389942D01*
X88110244Y-116406464D01*
X88229579Y-116433467D01*
X88229584Y-116433468D01*
X88235216Y-116434742D01*
X88240987Y-116434969D01*
X88240989Y-116434969D01*
X88300756Y-116437317D01*
X88438053Y-116442712D01*
X88538499Y-116428148D01*
X88633231Y-116414413D01*
X88633236Y-116414412D01*
X88638945Y-116413584D01*
X88644409Y-116411729D01*
X88644414Y-116411728D01*
X88825693Y-116350192D01*
X88825698Y-116350190D01*
X88831165Y-116348334D01*
X89008276Y-116249147D01*
X89070934Y-116197035D01*
X89159913Y-116123031D01*
X89164345Y-116119345D01*
X89294147Y-115963276D01*
X89393334Y-115786165D01*
X89395190Y-115780698D01*
X89395192Y-115780693D01*
X89456728Y-115599414D01*
X89456729Y-115599409D01*
X89458584Y-115593945D01*
X89459412Y-115588236D01*
X89459413Y-115588231D01*
X89487179Y-115396727D01*
X89487712Y-115393053D01*
X89489232Y-115335000D01*
X89486564Y-115305964D01*
X89811148Y-115305964D01*
X89824424Y-115508522D01*
X89825845Y-115514118D01*
X89825846Y-115514123D01*
X89846119Y-115593945D01*
X89874392Y-115705269D01*
X89876809Y-115710512D01*
X89914010Y-115791208D01*
X89959377Y-115889616D01*
X90076533Y-116055389D01*
X90221938Y-116197035D01*
X90390720Y-116309812D01*
X90396023Y-116312090D01*
X90396026Y-116312092D01*
X90484707Y-116350192D01*
X90577228Y-116389942D01*
X90650244Y-116406464D01*
X90769579Y-116433467D01*
X90769584Y-116433468D01*
X90775216Y-116434742D01*
X90780987Y-116434969D01*
X90780989Y-116434969D01*
X90840756Y-116437317D01*
X90978053Y-116442712D01*
X91078499Y-116428148D01*
X91173231Y-116414413D01*
X91173236Y-116414412D01*
X91178945Y-116413584D01*
X91184409Y-116411729D01*
X91184414Y-116411728D01*
X91365693Y-116350192D01*
X91365698Y-116350190D01*
X91371165Y-116348334D01*
X91548276Y-116249147D01*
X91610934Y-116197035D01*
X91699913Y-116123031D01*
X91704345Y-116119345D01*
X91834147Y-115963276D01*
X91933334Y-115786165D01*
X91935190Y-115780698D01*
X91935192Y-115780693D01*
X91996728Y-115599414D01*
X91996729Y-115599409D01*
X91998584Y-115593945D01*
X91999412Y-115588236D01*
X91999413Y-115588231D01*
X92027179Y-115396727D01*
X92027712Y-115393053D01*
X92029232Y-115335000D01*
X92026564Y-115305964D01*
X92351148Y-115305964D01*
X92364424Y-115508522D01*
X92365845Y-115514118D01*
X92365846Y-115514123D01*
X92386119Y-115593945D01*
X92414392Y-115705269D01*
X92416809Y-115710512D01*
X92454010Y-115791208D01*
X92499377Y-115889616D01*
X92616533Y-116055389D01*
X92761938Y-116197035D01*
X92930720Y-116309812D01*
X92936023Y-116312090D01*
X92936026Y-116312092D01*
X93024707Y-116350192D01*
X93117228Y-116389942D01*
X93190244Y-116406464D01*
X93309579Y-116433467D01*
X93309584Y-116433468D01*
X93315216Y-116434742D01*
X93320987Y-116434969D01*
X93320989Y-116434969D01*
X93380756Y-116437317D01*
X93518053Y-116442712D01*
X93618499Y-116428148D01*
X93713231Y-116414413D01*
X93713236Y-116414412D01*
X93718945Y-116413584D01*
X93724409Y-116411729D01*
X93724414Y-116411728D01*
X93905693Y-116350192D01*
X93905698Y-116350190D01*
X93911165Y-116348334D01*
X94088276Y-116249147D01*
X94150934Y-116197035D01*
X94239913Y-116123031D01*
X94244345Y-116119345D01*
X94374147Y-115963276D01*
X94473334Y-115786165D01*
X94475190Y-115780698D01*
X94475192Y-115780693D01*
X94536728Y-115599414D01*
X94536729Y-115599409D01*
X94538584Y-115593945D01*
X94539412Y-115588236D01*
X94539413Y-115588231D01*
X94567179Y-115396727D01*
X94567712Y-115393053D01*
X94569232Y-115335000D01*
X94566564Y-115305964D01*
X94891148Y-115305964D01*
X94904424Y-115508522D01*
X94905845Y-115514118D01*
X94905846Y-115514123D01*
X94926119Y-115593945D01*
X94954392Y-115705269D01*
X94956809Y-115710512D01*
X94994010Y-115791208D01*
X95039377Y-115889616D01*
X95156533Y-116055389D01*
X95301938Y-116197035D01*
X95470720Y-116309812D01*
X95476023Y-116312090D01*
X95476026Y-116312092D01*
X95564707Y-116350192D01*
X95657228Y-116389942D01*
X95730244Y-116406464D01*
X95849579Y-116433467D01*
X95849584Y-116433468D01*
X95855216Y-116434742D01*
X95860987Y-116434969D01*
X95860989Y-116434969D01*
X95920756Y-116437317D01*
X96058053Y-116442712D01*
X96158499Y-116428148D01*
X96253231Y-116414413D01*
X96253236Y-116414412D01*
X96258945Y-116413584D01*
X96264409Y-116411729D01*
X96264414Y-116411728D01*
X96445693Y-116350192D01*
X96445698Y-116350190D01*
X96451165Y-116348334D01*
X96628276Y-116249147D01*
X96690934Y-116197035D01*
X96779913Y-116123031D01*
X96784345Y-116119345D01*
X96914147Y-115963276D01*
X97013334Y-115786165D01*
X97015190Y-115780698D01*
X97015192Y-115780693D01*
X97076728Y-115599414D01*
X97076729Y-115599409D01*
X97078584Y-115593945D01*
X97079412Y-115588236D01*
X97079413Y-115588231D01*
X97107179Y-115396727D01*
X97107712Y-115393053D01*
X97109232Y-115335000D01*
X97090658Y-115132859D01*
X97089090Y-115127299D01*
X97037125Y-114943046D01*
X97037124Y-114943044D01*
X97035557Y-114937487D01*
X97024978Y-114916033D01*
X96948331Y-114760609D01*
X96945776Y-114755428D01*
X96824320Y-114592779D01*
X96675258Y-114454987D01*
X96670375Y-114451906D01*
X96670371Y-114451903D01*
X96508464Y-114349748D01*
X96503581Y-114346667D01*
X96315039Y-114271446D01*
X96309379Y-114270320D01*
X96309375Y-114270319D01*
X96121613Y-114232971D01*
X96121610Y-114232971D01*
X96115946Y-114231844D01*
X96110171Y-114231768D01*
X96110167Y-114231768D01*
X96008793Y-114230441D01*
X95912971Y-114229187D01*
X95907274Y-114230166D01*
X95907273Y-114230166D01*
X95718607Y-114262585D01*
X95712910Y-114263564D01*
X95522463Y-114333824D01*
X95348010Y-114437612D01*
X95343670Y-114441418D01*
X95343666Y-114441421D01*
X95323723Y-114458911D01*
X95195392Y-114571455D01*
X95069720Y-114730869D01*
X95067031Y-114735980D01*
X95067029Y-114735983D01*
X95019128Y-114827027D01*
X94975203Y-114910515D01*
X94915007Y-115104378D01*
X94891148Y-115305964D01*
X94566564Y-115305964D01*
X94550658Y-115132859D01*
X94549090Y-115127299D01*
X94497125Y-114943046D01*
X94497124Y-114943044D01*
X94495557Y-114937487D01*
X94484978Y-114916033D01*
X94408331Y-114760609D01*
X94405776Y-114755428D01*
X94284320Y-114592779D01*
X94135258Y-114454987D01*
X94130375Y-114451906D01*
X94130371Y-114451903D01*
X93968464Y-114349748D01*
X93963581Y-114346667D01*
X93775039Y-114271446D01*
X93769379Y-114270320D01*
X93769375Y-114270319D01*
X93581613Y-114232971D01*
X93581610Y-114232971D01*
X93575946Y-114231844D01*
X93570171Y-114231768D01*
X93570167Y-114231768D01*
X93468793Y-114230441D01*
X93372971Y-114229187D01*
X93367274Y-114230166D01*
X93367273Y-114230166D01*
X93178607Y-114262585D01*
X93172910Y-114263564D01*
X92982463Y-114333824D01*
X92808010Y-114437612D01*
X92803670Y-114441418D01*
X92803666Y-114441421D01*
X92783723Y-114458911D01*
X92655392Y-114571455D01*
X92529720Y-114730869D01*
X92527031Y-114735980D01*
X92527029Y-114735983D01*
X92479128Y-114827027D01*
X92435203Y-114910515D01*
X92375007Y-115104378D01*
X92351148Y-115305964D01*
X92026564Y-115305964D01*
X92010658Y-115132859D01*
X92009090Y-115127299D01*
X91957125Y-114943046D01*
X91957124Y-114943044D01*
X91955557Y-114937487D01*
X91944978Y-114916033D01*
X91868331Y-114760609D01*
X91865776Y-114755428D01*
X91744320Y-114592779D01*
X91595258Y-114454987D01*
X91590375Y-114451906D01*
X91590371Y-114451903D01*
X91428464Y-114349748D01*
X91423581Y-114346667D01*
X91235039Y-114271446D01*
X91229379Y-114270320D01*
X91229375Y-114270319D01*
X91041613Y-114232971D01*
X91041610Y-114232971D01*
X91035946Y-114231844D01*
X91030171Y-114231768D01*
X91030167Y-114231768D01*
X90928793Y-114230441D01*
X90832971Y-114229187D01*
X90827274Y-114230166D01*
X90827273Y-114230166D01*
X90638607Y-114262585D01*
X90632910Y-114263564D01*
X90442463Y-114333824D01*
X90268010Y-114437612D01*
X90263670Y-114441418D01*
X90263666Y-114441421D01*
X90243723Y-114458911D01*
X90115392Y-114571455D01*
X89989720Y-114730869D01*
X89987031Y-114735980D01*
X89987029Y-114735983D01*
X89939128Y-114827027D01*
X89895203Y-114910515D01*
X89835007Y-115104378D01*
X89811148Y-115305964D01*
X89486564Y-115305964D01*
X89470658Y-115132859D01*
X89469090Y-115127299D01*
X89417125Y-114943046D01*
X89417124Y-114943044D01*
X89415557Y-114937487D01*
X89404978Y-114916033D01*
X89328331Y-114760609D01*
X89325776Y-114755428D01*
X89204320Y-114592779D01*
X89055258Y-114454987D01*
X89050375Y-114451906D01*
X89050371Y-114451903D01*
X88888464Y-114349748D01*
X88883581Y-114346667D01*
X88695039Y-114271446D01*
X88689379Y-114270320D01*
X88689375Y-114270319D01*
X88501613Y-114232971D01*
X88501610Y-114232971D01*
X88495946Y-114231844D01*
X88490171Y-114231768D01*
X88490167Y-114231768D01*
X88388793Y-114230441D01*
X88292971Y-114229187D01*
X88287274Y-114230166D01*
X88287273Y-114230166D01*
X88098607Y-114262585D01*
X88092910Y-114263564D01*
X87902463Y-114333824D01*
X87728010Y-114437612D01*
X87723670Y-114441418D01*
X87723666Y-114441421D01*
X87703723Y-114458911D01*
X87575392Y-114571455D01*
X87449720Y-114730869D01*
X87447031Y-114735980D01*
X87447029Y-114735983D01*
X87399128Y-114827027D01*
X87355203Y-114910515D01*
X87295007Y-115104378D01*
X87271148Y-115305964D01*
X86946564Y-115305964D01*
X86930658Y-115132859D01*
X86929090Y-115127299D01*
X86877125Y-114943046D01*
X86877124Y-114943044D01*
X86875557Y-114937487D01*
X86864978Y-114916033D01*
X86788331Y-114760609D01*
X86785776Y-114755428D01*
X86664320Y-114592779D01*
X86515258Y-114454987D01*
X86510375Y-114451906D01*
X86510371Y-114451903D01*
X86348464Y-114349748D01*
X86343581Y-114346667D01*
X86155039Y-114271446D01*
X86149379Y-114270320D01*
X86149375Y-114270319D01*
X85961613Y-114232971D01*
X85961610Y-114232971D01*
X85955946Y-114231844D01*
X85950171Y-114231768D01*
X85950167Y-114231768D01*
X85848793Y-114230441D01*
X85752971Y-114229187D01*
X85747274Y-114230166D01*
X85747273Y-114230166D01*
X85558607Y-114262585D01*
X85552910Y-114263564D01*
X85362463Y-114333824D01*
X85188010Y-114437612D01*
X85183670Y-114441418D01*
X85183666Y-114441421D01*
X85163723Y-114458911D01*
X85035392Y-114571455D01*
X84909720Y-114730869D01*
X84907031Y-114735980D01*
X84907029Y-114735983D01*
X84859128Y-114827027D01*
X84815203Y-114910515D01*
X84755007Y-115104378D01*
X84731148Y-115305964D01*
X84406564Y-115305964D01*
X84390658Y-115132859D01*
X84389090Y-115127299D01*
X84337125Y-114943046D01*
X84337124Y-114943044D01*
X84335557Y-114937487D01*
X84324978Y-114916033D01*
X84248331Y-114760609D01*
X84245776Y-114755428D01*
X84124320Y-114592779D01*
X83975258Y-114454987D01*
X83970375Y-114451906D01*
X83970371Y-114451903D01*
X83808464Y-114349748D01*
X83803581Y-114346667D01*
X83615039Y-114271446D01*
X83609379Y-114270320D01*
X83609375Y-114270319D01*
X83421613Y-114232971D01*
X83421610Y-114232971D01*
X83415946Y-114231844D01*
X83410171Y-114231768D01*
X83410167Y-114231768D01*
X83308793Y-114230441D01*
X83212971Y-114229187D01*
X83207274Y-114230166D01*
X83207273Y-114230166D01*
X83018607Y-114262585D01*
X83012910Y-114263564D01*
X82881844Y-114311917D01*
X82811012Y-114316729D01*
X82749139Y-114282800D01*
X80991405Y-112525067D01*
X80983673Y-112510907D01*
X99990738Y-112510907D01*
X99991254Y-112517051D01*
X100005602Y-112687916D01*
X100007222Y-112707209D01*
X100022527Y-112760582D01*
X100059453Y-112889357D01*
X100061521Y-112896570D01*
X100151566Y-113071779D01*
X100155389Y-113076603D01*
X100155392Y-113076607D01*
X100183045Y-113111496D01*
X100273927Y-113226160D01*
X100278620Y-113230154D01*
X100278621Y-113230155D01*
X100303447Y-113251283D01*
X100423945Y-113353835D01*
X100429323Y-113356841D01*
X100429325Y-113356842D01*
X100459019Y-113373437D01*
X100595904Y-113449940D01*
X100783255Y-113510814D01*
X100978862Y-113534139D01*
X100984997Y-113533667D01*
X100984999Y-113533667D01*
X101044801Y-113529065D01*
X101175274Y-113519026D01*
X101365009Y-113466050D01*
X101370513Y-113463270D01*
X101535341Y-113380010D01*
X101535343Y-113380009D01*
X101540842Y-113377231D01*
X101696074Y-113255950D01*
X101700100Y-113251286D01*
X101700103Y-113251283D01*
X101820764Y-113111496D01*
X101820765Y-113111494D01*
X101824793Y-113106828D01*
X101922096Y-112935544D01*
X101984277Y-112748622D01*
X102008966Y-112553183D01*
X102009360Y-112525000D01*
X101990137Y-112328948D01*
X101933200Y-112140363D01*
X101840717Y-111966429D01*
X101716212Y-111813770D01*
X101650894Y-111759734D01*
X101569177Y-111692132D01*
X101569174Y-111692130D01*
X101564427Y-111688203D01*
X101391143Y-111594508D01*
X101202960Y-111536256D01*
X101196835Y-111535612D01*
X101196834Y-111535612D01*
X101013176Y-111516309D01*
X101013174Y-111516309D01*
X101007047Y-111515665D01*
X100925018Y-111523130D01*
X100817004Y-111532960D01*
X100817001Y-111532961D01*
X100810865Y-111533519D01*
X100804959Y-111535257D01*
X100804955Y-111535258D01*
X100664775Y-111576516D01*
X100621887Y-111589138D01*
X100616427Y-111591992D01*
X100616428Y-111591992D01*
X100452772Y-111677549D01*
X100452768Y-111677552D01*
X100447312Y-111680404D01*
X100293788Y-111803840D01*
X100167163Y-111954745D01*
X100072262Y-112127371D01*
X100070398Y-112133246D01*
X100070397Y-112133249D01*
X100066269Y-112146263D01*
X100012697Y-112315142D01*
X99990738Y-112510907D01*
X80983673Y-112510907D01*
X80957380Y-112462755D01*
X80954500Y-112435972D01*
X80954500Y-102994390D01*
X90290860Y-102994390D01*
X90292024Y-103003292D01*
X90292024Y-103003295D01*
X90306577Y-103114582D01*
X90307741Y-103123481D01*
X90360174Y-103242645D01*
X90443946Y-103342303D01*
X90451414Y-103347274D01*
X90451415Y-103347275D01*
X90544850Y-103409472D01*
X90544853Y-103409473D01*
X90552320Y-103414444D01*
X90560887Y-103417120D01*
X90560888Y-103417121D01*
X90582171Y-103423770D01*
X90676587Y-103453267D01*
X90685560Y-103453431D01*
X90685563Y-103453432D01*
X90742790Y-103454481D01*
X90806755Y-103455653D01*
X90858917Y-103441432D01*
X90923701Y-103423770D01*
X90923703Y-103423769D01*
X90932360Y-103421409D01*
X90967025Y-103400125D01*
X91032953Y-103381500D01*
X92095865Y-103381500D01*
X92120164Y-103384086D01*
X92121602Y-103384154D01*
X92131780Y-103386345D01*
X92165341Y-103382373D01*
X92171320Y-103382021D01*
X92171312Y-103381928D01*
X92176490Y-103381500D01*
X92181692Y-103381500D01*
X92200846Y-103378312D01*
X92206704Y-103377478D01*
X92223318Y-103375512D01*
X92247567Y-103372642D01*
X92247568Y-103372642D01*
X92257907Y-103371418D01*
X92266206Y-103367433D01*
X92275283Y-103365922D01*
X92320651Y-103341442D01*
X92325914Y-103338761D01*
X92365250Y-103319873D01*
X92365254Y-103319870D01*
X92372398Y-103316440D01*
X92376692Y-103312830D01*
X92378624Y-103310898D01*
X92380573Y-103309111D01*
X92380626Y-103309082D01*
X92380745Y-103309212D01*
X92381313Y-103308711D01*
X92387057Y-103305612D01*
X92423866Y-103265792D01*
X92427295Y-103262227D01*
X92546996Y-103142526D01*
X92609308Y-103108500D01*
X92619645Y-103106699D01*
X92708441Y-103095009D01*
X92744754Y-103090228D01*
X92879643Y-103034355D01*
X92886196Y-103029327D01*
X92988921Y-102950503D01*
X92988924Y-102950500D01*
X92995474Y-102945474D01*
X93009496Y-102927201D01*
X93049842Y-102874620D01*
X93084355Y-102829642D01*
X93140228Y-102694754D01*
X93143496Y-102669936D01*
X93158207Y-102558188D01*
X93159285Y-102550000D01*
X93147822Y-102462931D01*
X93141306Y-102413432D01*
X93141305Y-102413430D01*
X93140228Y-102405246D01*
X93118653Y-102353161D01*
X93087515Y-102277986D01*
X93087514Y-102277984D01*
X93084355Y-102270358D01*
X92995474Y-102154526D01*
X92988924Y-102149500D01*
X92988921Y-102149497D01*
X92886196Y-102070673D01*
X92886194Y-102070672D01*
X92879643Y-102065645D01*
X92744754Y-102009772D01*
X92600000Y-101990715D01*
X92591812Y-101991793D01*
X92463432Y-102008694D01*
X92463430Y-102008695D01*
X92455246Y-102009772D01*
X92407430Y-102029578D01*
X92327986Y-102062485D01*
X92327984Y-102062486D01*
X92320358Y-102065645D01*
X92204526Y-102154526D01*
X92115645Y-102270358D01*
X92112486Y-102277984D01*
X92112485Y-102277986D01*
X92081347Y-102353161D01*
X92059772Y-102405246D01*
X92058695Y-102413430D01*
X92058694Y-102413432D01*
X92046120Y-102508946D01*
X92017398Y-102573873D01*
X91958133Y-102612965D01*
X91921198Y-102618500D01*
X91034370Y-102618500D01*
X90965839Y-102598233D01*
X90950137Y-102588056D01*
X90950134Y-102588055D01*
X90942601Y-102583172D01*
X90817870Y-102545870D01*
X90808894Y-102545815D01*
X90808893Y-102545815D01*
X90755678Y-102545490D01*
X90687683Y-102545074D01*
X90562505Y-102580850D01*
X90554918Y-102585637D01*
X90554916Y-102585638D01*
X90524981Y-102604526D01*
X90452400Y-102650321D01*
X90446458Y-102657049D01*
X90446457Y-102657050D01*
X90443807Y-102660051D01*
X90366219Y-102747903D01*
X90362404Y-102756028D01*
X90362403Y-102756030D01*
X90331424Y-102822014D01*
X90310890Y-102865751D01*
X90309509Y-102874620D01*
X90297694Y-102950503D01*
X90290860Y-102994390D01*
X80954500Y-102994390D01*
X80954500Y-99920901D01*
X88671104Y-99920901D01*
X88672268Y-99929803D01*
X88672268Y-99929806D01*
X88681702Y-100001946D01*
X88687985Y-100049992D01*
X88740418Y-100169156D01*
X88824190Y-100268814D01*
X88831658Y-100273785D01*
X88831659Y-100273786D01*
X88925094Y-100335983D01*
X88925097Y-100335984D01*
X88932564Y-100340955D01*
X88941131Y-100343631D01*
X88941132Y-100343632D01*
X88962415Y-100350281D01*
X89056831Y-100379778D01*
X89065804Y-100379942D01*
X89065807Y-100379943D01*
X89123034Y-100380992D01*
X89186999Y-100382164D01*
X89273086Y-100358694D01*
X89303945Y-100350281D01*
X89303947Y-100350280D01*
X89312604Y-100347920D01*
X89320250Y-100343226D01*
X89323401Y-100341862D01*
X89373439Y-100331500D01*
X90964727Y-100331500D01*
X91034547Y-100352614D01*
X91044845Y-100359469D01*
X91044850Y-100359471D01*
X91052320Y-100364444D01*
X91060887Y-100367120D01*
X91060888Y-100367121D01*
X91082171Y-100373770D01*
X91176587Y-100403267D01*
X91185560Y-100403431D01*
X91185563Y-100403432D01*
X91242790Y-100404481D01*
X91306755Y-100405653D01*
X91375984Y-100386779D01*
X91423701Y-100373770D01*
X91423703Y-100373769D01*
X91432360Y-100371409D01*
X91497358Y-100331500D01*
X91535658Y-100307984D01*
X91535659Y-100307984D01*
X91543306Y-100303288D01*
X91564639Y-100279720D01*
X91624644Y-100213427D01*
X91624645Y-100213426D01*
X91630672Y-100206767D01*
X91636664Y-100194401D01*
X91683522Y-100097685D01*
X91683522Y-100097684D01*
X91687437Y-100089604D01*
X91709037Y-99961219D01*
X91709174Y-99950000D01*
X91690718Y-99821125D01*
X91687003Y-99812955D01*
X91687001Y-99812947D01*
X91639125Y-99707652D01*
X91629137Y-99637361D01*
X91658738Y-99572830D01*
X91718527Y-99534545D01*
X91753825Y-99529500D01*
X97425971Y-99529500D01*
X97494092Y-99549502D01*
X97515066Y-99566405D01*
X98558595Y-100609933D01*
X98592620Y-100672245D01*
X98595500Y-100699028D01*
X98595500Y-108998743D01*
X98593394Y-109018537D01*
X98593189Y-109022890D01*
X98590997Y-109033070D01*
X98592221Y-109043408D01*
X98594627Y-109063737D01*
X98594942Y-109069083D01*
X98595072Y-109069072D01*
X98595500Y-109074252D01*
X98595500Y-109079451D01*
X98596353Y-109084575D01*
X98596354Y-109084588D01*
X98598427Y-109097041D01*
X98599264Y-109102916D01*
X98604869Y-109150270D01*
X98608570Y-109157978D01*
X98609975Y-109166417D01*
X98632629Y-109208401D01*
X98635310Y-109213664D01*
X98655955Y-109256658D01*
X98659311Y-109260650D01*
X98661258Y-109262597D01*
X98662748Y-109264222D01*
X98662981Y-109264654D01*
X98662945Y-109264687D01*
X98663084Y-109264845D01*
X98666017Y-109270280D01*
X98673664Y-109277349D01*
X98702881Y-109304357D01*
X98706447Y-109307786D01*
X99638084Y-110239423D01*
X99650592Y-110254909D01*
X99653526Y-110258134D01*
X99659175Y-110266882D01*
X99667352Y-110273328D01*
X99683430Y-110286003D01*
X99687431Y-110289559D01*
X99687516Y-110289459D01*
X99691473Y-110292812D01*
X99695155Y-110296494D01*
X99709691Y-110306882D01*
X99714378Y-110310401D01*
X99751857Y-110339946D01*
X99759925Y-110342779D01*
X99766885Y-110347753D01*
X99776863Y-110350737D01*
X99812586Y-110361420D01*
X99818235Y-110363256D01*
X99863208Y-110379050D01*
X99868404Y-110379500D01*
X99871109Y-110379500D01*
X99873365Y-110379597D01*
X99873841Y-110379740D01*
X99873839Y-110379786D01*
X99874038Y-110379799D01*
X99879955Y-110381568D01*
X99930124Y-110379597D01*
X99935070Y-110379500D01*
X99975837Y-110379500D01*
X100043958Y-110399502D01*
X100087903Y-110447906D01*
X100148746Y-110566294D01*
X100148751Y-110566302D01*
X100151566Y-110571779D01*
X100155389Y-110576603D01*
X100155392Y-110576607D01*
X100183045Y-110611496D01*
X100273927Y-110726160D01*
X100278620Y-110730154D01*
X100278621Y-110730155D01*
X100303447Y-110751283D01*
X100423945Y-110853835D01*
X100429323Y-110856841D01*
X100429325Y-110856842D01*
X100459019Y-110873437D01*
X100595904Y-110949940D01*
X100783255Y-111010814D01*
X100978862Y-111034139D01*
X100984997Y-111033667D01*
X100984999Y-111033667D01*
X101044801Y-111029065D01*
X101175274Y-111019026D01*
X101365009Y-110966050D01*
X101370513Y-110963270D01*
X101535341Y-110880010D01*
X101535343Y-110880009D01*
X101540842Y-110877231D01*
X101696074Y-110755950D01*
X101700100Y-110751286D01*
X101700103Y-110751283D01*
X101820764Y-110611496D01*
X101820765Y-110611494D01*
X101824793Y-110606828D01*
X101922096Y-110435544D01*
X101984277Y-110248622D01*
X102008966Y-110053183D01*
X102009360Y-110025000D01*
X101990137Y-109828948D01*
X101933200Y-109640363D01*
X101840717Y-109466429D01*
X101716212Y-109313770D01*
X101638540Y-109249514D01*
X101569177Y-109192132D01*
X101569174Y-109192130D01*
X101564427Y-109188203D01*
X101391143Y-109094508D01*
X101202960Y-109036256D01*
X101196835Y-109035612D01*
X101196834Y-109035612D01*
X101013176Y-109016309D01*
X101013174Y-109016309D01*
X101007047Y-109015665D01*
X100925018Y-109023130D01*
X100817004Y-109032960D01*
X100817001Y-109032961D01*
X100810865Y-109033519D01*
X100804959Y-109035257D01*
X100804955Y-109035258D01*
X100664775Y-109076516D01*
X100621887Y-109089138D01*
X100616427Y-109091992D01*
X100616428Y-109091992D01*
X100452772Y-109177549D01*
X100452768Y-109177552D01*
X100447312Y-109180404D01*
X100293788Y-109303840D01*
X100167163Y-109454745D01*
X100160740Y-109466429D01*
X100137658Y-109508415D01*
X100087313Y-109558474D01*
X100017896Y-109573368D01*
X99951447Y-109548367D01*
X99938148Y-109536810D01*
X99341405Y-108940067D01*
X99307379Y-108877755D01*
X99304500Y-108850972D01*
X99304500Y-100551257D01*
X99306606Y-100531463D01*
X99306811Y-100527110D01*
X99309003Y-100516930D01*
X99305373Y-100486260D01*
X99305058Y-100480917D01*
X99304928Y-100480928D01*
X99304500Y-100475748D01*
X99304500Y-100470549D01*
X99303647Y-100465425D01*
X99303646Y-100465412D01*
X99301573Y-100452959D01*
X99300736Y-100447084D01*
X99296355Y-100410071D01*
X99295131Y-100399730D01*
X99291430Y-100392022D01*
X99290025Y-100383583D01*
X99267371Y-100341599D01*
X99264690Y-100336336D01*
X99255230Y-100316635D01*
X99244045Y-100293342D01*
X99240689Y-100289350D01*
X99238742Y-100287403D01*
X99237252Y-100285778D01*
X99237019Y-100285346D01*
X99237055Y-100285313D01*
X99236916Y-100285155D01*
X99233983Y-100279720D01*
X99226145Y-100272474D01*
X99197119Y-100245643D01*
X99193553Y-100242214D01*
X98076271Y-99124933D01*
X109295500Y-99124933D01*
X109295501Y-100875066D01*
X109310266Y-100949301D01*
X109317161Y-100959620D01*
X109317162Y-100959622D01*
X109357516Y-101020015D01*
X109366516Y-101033484D01*
X109450699Y-101089734D01*
X109524933Y-101104500D01*
X110399858Y-101104500D01*
X111275066Y-101104499D01*
X111310818Y-101097388D01*
X111337126Y-101092156D01*
X111337128Y-101092155D01*
X111349301Y-101089734D01*
X111359621Y-101082839D01*
X111359622Y-101082838D01*
X111423168Y-101040377D01*
X111433484Y-101033484D01*
X111489734Y-100949301D01*
X111504500Y-100875067D01*
X111504499Y-99970964D01*
X111831148Y-99970964D01*
X111844424Y-100173522D01*
X111845845Y-100179118D01*
X111845846Y-100179123D01*
X111882904Y-100325035D01*
X111894392Y-100370269D01*
X111896809Y-100375512D01*
X111932513Y-100452959D01*
X111979377Y-100554616D01*
X111982710Y-100559332D01*
X112081437Y-100699028D01*
X112096533Y-100720389D01*
X112241938Y-100862035D01*
X112410720Y-100974812D01*
X112416023Y-100977090D01*
X112416026Y-100977092D01*
X112547283Y-101033484D01*
X112597228Y-101054942D01*
X112670244Y-101071464D01*
X112789579Y-101098467D01*
X112789584Y-101098468D01*
X112795216Y-101099742D01*
X112800987Y-101099969D01*
X112800989Y-101099969D01*
X112860756Y-101102317D01*
X112998053Y-101107712D01*
X113105348Y-101092155D01*
X113193231Y-101079413D01*
X113193236Y-101079412D01*
X113198945Y-101078584D01*
X113204409Y-101076729D01*
X113204414Y-101076728D01*
X113385693Y-101015192D01*
X113385698Y-101015190D01*
X113391165Y-101013334D01*
X113568276Y-100914147D01*
X113607969Y-100881135D01*
X113719913Y-100788031D01*
X113724345Y-100784345D01*
X113854147Y-100628276D01*
X113936672Y-100480917D01*
X113950510Y-100456208D01*
X113950511Y-100456206D01*
X113953334Y-100451165D01*
X113955190Y-100445698D01*
X113955192Y-100445693D01*
X114016728Y-100264414D01*
X114016729Y-100264409D01*
X114018584Y-100258945D01*
X114019412Y-100253236D01*
X114019413Y-100253231D01*
X114040121Y-100110404D01*
X114047712Y-100058053D01*
X114049232Y-100000000D01*
X114036997Y-99866843D01*
X114031187Y-99803613D01*
X114031186Y-99803610D01*
X114030658Y-99797859D01*
X114029090Y-99792299D01*
X113977125Y-99608046D01*
X113977124Y-99608044D01*
X113975557Y-99602487D01*
X113964978Y-99581033D01*
X113888331Y-99425609D01*
X113885776Y-99420428D01*
X113764320Y-99257779D01*
X113615258Y-99119987D01*
X113610375Y-99116906D01*
X113610371Y-99116903D01*
X113448464Y-99014748D01*
X113443581Y-99011667D01*
X113255039Y-98936446D01*
X113249379Y-98935320D01*
X113249375Y-98935319D01*
X113061613Y-98897971D01*
X113061610Y-98897971D01*
X113055946Y-98896844D01*
X113050171Y-98896768D01*
X113050167Y-98896768D01*
X112948793Y-98895441D01*
X112852971Y-98894187D01*
X112847274Y-98895166D01*
X112847273Y-98895166D01*
X112677032Y-98924419D01*
X112652910Y-98928564D01*
X112462463Y-98998824D01*
X112288010Y-99102612D01*
X112283670Y-99106418D01*
X112283666Y-99106421D01*
X112155302Y-99218994D01*
X112135392Y-99236455D01*
X112009720Y-99395869D01*
X112007031Y-99400980D01*
X112007029Y-99400983D01*
X111967141Y-99476798D01*
X111915203Y-99575515D01*
X111855007Y-99769378D01*
X111831148Y-99970964D01*
X111504499Y-99970964D01*
X111504499Y-99124934D01*
X111495491Y-99079642D01*
X111492156Y-99062874D01*
X111492155Y-99062872D01*
X111489734Y-99050699D01*
X111481538Y-99038432D01*
X111440377Y-98976832D01*
X111433484Y-98966516D01*
X111349301Y-98910266D01*
X111275067Y-98895500D01*
X110400142Y-98895500D01*
X109524934Y-98895501D01*
X109489182Y-98902612D01*
X109462874Y-98907844D01*
X109462872Y-98907845D01*
X109450699Y-98910266D01*
X109440379Y-98917161D01*
X109440378Y-98917162D01*
X109399085Y-98944754D01*
X109366516Y-98966516D01*
X109310266Y-99050699D01*
X109295500Y-99124933D01*
X98076271Y-99124933D01*
X97911918Y-98960580D01*
X97899413Y-98945098D01*
X97896477Y-98941871D01*
X97890825Y-98933118D01*
X97866562Y-98913991D01*
X97862567Y-98910441D01*
X97862483Y-98910540D01*
X97858520Y-98907182D01*
X97854844Y-98903506D01*
X97845522Y-98896844D01*
X97840348Y-98893146D01*
X97835605Y-98889585D01*
X97806325Y-98866503D01*
X97806321Y-98866501D01*
X97798143Y-98860054D01*
X97790075Y-98857221D01*
X97783115Y-98852247D01*
X97737414Y-98838580D01*
X97731765Y-98836744D01*
X97694269Y-98823576D01*
X97694270Y-98823576D01*
X97686792Y-98820950D01*
X97681596Y-98820500D01*
X97678891Y-98820500D01*
X97676635Y-98820403D01*
X97676159Y-98820260D01*
X97676161Y-98820214D01*
X97675962Y-98820201D01*
X97670045Y-98818432D01*
X97620411Y-98820382D01*
X97619876Y-98820403D01*
X97614930Y-98820500D01*
X90162114Y-98820500D01*
X90093993Y-98800498D01*
X90074532Y-98784814D01*
X90070474Y-98779526D01*
X89954643Y-98690645D01*
X89819754Y-98634772D01*
X89675000Y-98615715D01*
X89666812Y-98616793D01*
X89538432Y-98633694D01*
X89538430Y-98633695D01*
X89530246Y-98634772D01*
X89482430Y-98654578D01*
X89402986Y-98687485D01*
X89402984Y-98687486D01*
X89395358Y-98690645D01*
X89279526Y-98779526D01*
X89190645Y-98895358D01*
X89187486Y-98902984D01*
X89187485Y-98902986D01*
X89173575Y-98936568D01*
X89134772Y-99030246D01*
X89133695Y-99038430D01*
X89133694Y-99038432D01*
X89122441Y-99123911D01*
X89115715Y-99175000D01*
X89134772Y-99319754D01*
X89136733Y-99324489D01*
X89135077Y-99394016D01*
X89095282Y-99452811D01*
X89049686Y-99476798D01*
X88988134Y-99494390D01*
X88942749Y-99507361D01*
X88832644Y-99576832D01*
X88746463Y-99674414D01*
X88691134Y-99792262D01*
X88689753Y-99801131D01*
X88680673Y-99859448D01*
X88671104Y-99920901D01*
X80954500Y-99920901D01*
X80954500Y-99287115D01*
X80974502Y-99218994D01*
X80990188Y-99199530D01*
X80995474Y-99195474D01*
X81084355Y-99079642D01*
X81091302Y-99062872D01*
X81131214Y-98966516D01*
X81140228Y-98944754D01*
X81142360Y-98928564D01*
X81158207Y-98808188D01*
X81159285Y-98800000D01*
X81155928Y-98774500D01*
X81141306Y-98663432D01*
X81141305Y-98663430D01*
X81140228Y-98655246D01*
X81103876Y-98567485D01*
X81087515Y-98527986D01*
X81087514Y-98527984D01*
X81084355Y-98520358D01*
X81012431Y-98426625D01*
X81000501Y-98411077D01*
X81000500Y-98411076D01*
X80995474Y-98404526D01*
X80988924Y-98399500D01*
X80988921Y-98399497D01*
X80886196Y-98320673D01*
X80886194Y-98320672D01*
X80879643Y-98315645D01*
X80744754Y-98259772D01*
X80600000Y-98240715D01*
X80591812Y-98241793D01*
X80463432Y-98258694D01*
X80463430Y-98258695D01*
X80455246Y-98259772D01*
X80432618Y-98269145D01*
X80327986Y-98312485D01*
X80327984Y-98312486D01*
X80320358Y-98315645D01*
X80244117Y-98374147D01*
X80211543Y-98399142D01*
X80204526Y-98404526D01*
X80115645Y-98520358D01*
X80112486Y-98527984D01*
X80112485Y-98527986D01*
X80096124Y-98567485D01*
X80059772Y-98655246D01*
X80058695Y-98663430D01*
X80058694Y-98663432D01*
X80044072Y-98774500D01*
X80040715Y-98800000D01*
X78266022Y-98800000D01*
X79635058Y-97430964D01*
X109291148Y-97430964D01*
X109304424Y-97633522D01*
X109305845Y-97639118D01*
X109305846Y-97639123D01*
X109334565Y-97752202D01*
X109354392Y-97830269D01*
X109356809Y-97835512D01*
X109391720Y-97911240D01*
X109439377Y-98014616D01*
X109442710Y-98019332D01*
X109540849Y-98158196D01*
X109556533Y-98180389D01*
X109560675Y-98184424D01*
X109575481Y-98198847D01*
X109701938Y-98322035D01*
X109706742Y-98325245D01*
X109717019Y-98332112D01*
X109870720Y-98434812D01*
X109876023Y-98437090D01*
X109876026Y-98437092D01*
X109980525Y-98481988D01*
X110057228Y-98514942D01*
X110130244Y-98531464D01*
X110249579Y-98558467D01*
X110249584Y-98558468D01*
X110255216Y-98559742D01*
X110260987Y-98559969D01*
X110260989Y-98559969D01*
X110320756Y-98562317D01*
X110458053Y-98567712D01*
X110558499Y-98553148D01*
X110653231Y-98539413D01*
X110653236Y-98539412D01*
X110658945Y-98538584D01*
X110664409Y-98536729D01*
X110664414Y-98536728D01*
X110845693Y-98475192D01*
X110845698Y-98475190D01*
X110851165Y-98473334D01*
X110884630Y-98454593D01*
X110962333Y-98411077D01*
X111028276Y-98374147D01*
X111034702Y-98368803D01*
X111179913Y-98248031D01*
X111184345Y-98244345D01*
X111255995Y-98158196D01*
X111310453Y-98092718D01*
X111310455Y-98092715D01*
X111314147Y-98088276D01*
X111413334Y-97911165D01*
X111415190Y-97905698D01*
X111415192Y-97905693D01*
X111476728Y-97724414D01*
X111476729Y-97724409D01*
X111478584Y-97718945D01*
X111479412Y-97713236D01*
X111479413Y-97713231D01*
X111499952Y-97571574D01*
X111507712Y-97518053D01*
X111509232Y-97460000D01*
X111506564Y-97430964D01*
X111831148Y-97430964D01*
X111844424Y-97633522D01*
X111845845Y-97639118D01*
X111845846Y-97639123D01*
X111874565Y-97752202D01*
X111894392Y-97830269D01*
X111896809Y-97835512D01*
X111931720Y-97911240D01*
X111979377Y-98014616D01*
X111982710Y-98019332D01*
X112080849Y-98158196D01*
X112096533Y-98180389D01*
X112100675Y-98184424D01*
X112115481Y-98198847D01*
X112241938Y-98322035D01*
X112246742Y-98325245D01*
X112257019Y-98332112D01*
X112410720Y-98434812D01*
X112416023Y-98437090D01*
X112416026Y-98437092D01*
X112520525Y-98481988D01*
X112597228Y-98514942D01*
X112670244Y-98531464D01*
X112789579Y-98558467D01*
X112789584Y-98558468D01*
X112795216Y-98559742D01*
X112800987Y-98559969D01*
X112800989Y-98559969D01*
X112860756Y-98562317D01*
X112998053Y-98567712D01*
X113098499Y-98553148D01*
X113193231Y-98539413D01*
X113193236Y-98539412D01*
X113198945Y-98538584D01*
X113204409Y-98536729D01*
X113204414Y-98536728D01*
X113385693Y-98475192D01*
X113385698Y-98475190D01*
X113391165Y-98473334D01*
X113424630Y-98454593D01*
X113502333Y-98411077D01*
X113568276Y-98374147D01*
X113574702Y-98368803D01*
X113719913Y-98248031D01*
X113724345Y-98244345D01*
X113795995Y-98158196D01*
X113850453Y-98092718D01*
X113850455Y-98092715D01*
X113854147Y-98088276D01*
X113953334Y-97911165D01*
X113955190Y-97905698D01*
X113955192Y-97905693D01*
X114016728Y-97724414D01*
X114016729Y-97724409D01*
X114018584Y-97718945D01*
X114019412Y-97713236D01*
X114019413Y-97713231D01*
X114039952Y-97571574D01*
X114047712Y-97518053D01*
X114049232Y-97460000D01*
X114030658Y-97257859D01*
X114029090Y-97252299D01*
X113977125Y-97068046D01*
X113977124Y-97068044D01*
X113975557Y-97062487D01*
X113967822Y-97046800D01*
X113888331Y-96885609D01*
X113885776Y-96880428D01*
X113881603Y-96874839D01*
X113782819Y-96742552D01*
X113764320Y-96717779D01*
X113615258Y-96579987D01*
X113610375Y-96576906D01*
X113610371Y-96576903D01*
X113448464Y-96474748D01*
X113443581Y-96471667D01*
X113255039Y-96396446D01*
X113249379Y-96395320D01*
X113249375Y-96395319D01*
X113061613Y-96357971D01*
X113061610Y-96357971D01*
X113055946Y-96356844D01*
X113050171Y-96356768D01*
X113050167Y-96356768D01*
X112948793Y-96355441D01*
X112852971Y-96354187D01*
X112847274Y-96355166D01*
X112847273Y-96355166D01*
X112658607Y-96387585D01*
X112652910Y-96388564D01*
X112462463Y-96458824D01*
X112288010Y-96562612D01*
X112283670Y-96566418D01*
X112283666Y-96566421D01*
X112139733Y-96692648D01*
X112135392Y-96696455D01*
X112009720Y-96855869D01*
X112007031Y-96860980D01*
X112007029Y-96860983D01*
X111986238Y-96900500D01*
X111915203Y-97035515D01*
X111855007Y-97229378D01*
X111831148Y-97430964D01*
X111506564Y-97430964D01*
X111490658Y-97257859D01*
X111489090Y-97252299D01*
X111437125Y-97068046D01*
X111437124Y-97068044D01*
X111435557Y-97062487D01*
X111427822Y-97046800D01*
X111348331Y-96885609D01*
X111345776Y-96880428D01*
X111341603Y-96874839D01*
X111242819Y-96742552D01*
X111224320Y-96717779D01*
X111075258Y-96579987D01*
X111070375Y-96576906D01*
X111070371Y-96576903D01*
X110908464Y-96474748D01*
X110903581Y-96471667D01*
X110715039Y-96396446D01*
X110709379Y-96395320D01*
X110709375Y-96395319D01*
X110521613Y-96357971D01*
X110521610Y-96357971D01*
X110515946Y-96356844D01*
X110510171Y-96356768D01*
X110510167Y-96356768D01*
X110408793Y-96355441D01*
X110312971Y-96354187D01*
X110307274Y-96355166D01*
X110307273Y-96355166D01*
X110118607Y-96387585D01*
X110112910Y-96388564D01*
X109922463Y-96458824D01*
X109748010Y-96562612D01*
X109743670Y-96566418D01*
X109743666Y-96566421D01*
X109599733Y-96692648D01*
X109595392Y-96696455D01*
X109469720Y-96855869D01*
X109467031Y-96860980D01*
X109467029Y-96860983D01*
X109446238Y-96900500D01*
X109375203Y-97035515D01*
X109315007Y-97229378D01*
X109291148Y-97430964D01*
X79635058Y-97430964D01*
X80896867Y-96169155D01*
X80952821Y-96136687D01*
X81000200Y-96123770D01*
X81008860Y-96121409D01*
X81119806Y-96053288D01*
X81132192Y-96039604D01*
X81201144Y-95963427D01*
X81201145Y-95963426D01*
X81207172Y-95956767D01*
X81218526Y-95933334D01*
X81260022Y-95847685D01*
X81260022Y-95847684D01*
X81263937Y-95839604D01*
X81285537Y-95711219D01*
X81285674Y-95700000D01*
X81267218Y-95571125D01*
X81226172Y-95480850D01*
X81217048Y-95460782D01*
X81217047Y-95460780D01*
X81213332Y-95452610D01*
X81128350Y-95353983D01*
X81019101Y-95283172D01*
X80894370Y-95245870D01*
X80885394Y-95245815D01*
X80885393Y-95245815D01*
X80832178Y-95245490D01*
X80764183Y-95245074D01*
X80639005Y-95280850D01*
X80631418Y-95285637D01*
X80631416Y-95285638D01*
X80615767Y-95295512D01*
X80528900Y-95350321D01*
X80522958Y-95357049D01*
X80522957Y-95357050D01*
X80468418Y-95418804D01*
X80442719Y-95447903D01*
X80438904Y-95456028D01*
X80438903Y-95456030D01*
X80423868Y-95488054D01*
X80387390Y-95565751D01*
X80386009Y-95574621D01*
X80383591Y-95582529D01*
X80352192Y-95634785D01*
X75918521Y-100068456D01*
X75899505Y-100083815D01*
X75898444Y-100084781D01*
X75889696Y-100090429D01*
X75883250Y-100098606D01*
X75868771Y-100116972D01*
X75864794Y-100121447D01*
X75864865Y-100121508D01*
X75861512Y-100125465D01*
X75857829Y-100129148D01*
X75854803Y-100133383D01*
X75854801Y-100133385D01*
X75846547Y-100144936D01*
X75842984Y-100149682D01*
X75811066Y-100190170D01*
X75808015Y-100198857D01*
X75802666Y-100206343D01*
X75788375Y-100254131D01*
X75787902Y-100255711D01*
X75786072Y-100261343D01*
X75768984Y-100310002D01*
X75768500Y-100315591D01*
X75768500Y-100318302D01*
X75768385Y-100320969D01*
X75768366Y-100321032D01*
X75768192Y-100321025D01*
X75768145Y-100321771D01*
X75766275Y-100328024D01*
X75767935Y-100370269D01*
X75768187Y-100376677D01*
X75750875Y-100445531D01*
X75699087Y-100494095D01*
X75629264Y-100506950D01*
X75565580Y-100481587D01*
X75524450Y-100450027D01*
X75479643Y-100415645D01*
X75361511Y-100366713D01*
X75352383Y-100362932D01*
X75344754Y-100359772D01*
X75200000Y-100340715D01*
X75191812Y-100341793D01*
X75063432Y-100358694D01*
X75063430Y-100358695D01*
X75055246Y-100359772D01*
X75043967Y-100364444D01*
X74927986Y-100412485D01*
X74927984Y-100412486D01*
X74920358Y-100415645D01*
X74804526Y-100504526D01*
X74799503Y-100511072D01*
X74783857Y-100531463D01*
X74715645Y-100620358D01*
X74712486Y-100627984D01*
X74712485Y-100627986D01*
X74694152Y-100672245D01*
X74659772Y-100755246D01*
X74658695Y-100763430D01*
X74658694Y-100763432D01*
X74644812Y-100868877D01*
X74640715Y-100900000D01*
X74641793Y-100908188D01*
X74655636Y-101013334D01*
X74659772Y-101044754D01*
X74715645Y-101179642D01*
X74804526Y-101295474D01*
X74809137Y-101299012D01*
X74842621Y-101360332D01*
X74845500Y-101387115D01*
X74845500Y-102300971D01*
X74825498Y-102369092D01*
X74808595Y-102390066D01*
X74793773Y-102404888D01*
X74731461Y-102438914D01*
X74706611Y-102441585D01*
X74700000Y-102440715D01*
X74691812Y-102441793D01*
X74563432Y-102458694D01*
X74563430Y-102458695D01*
X74555246Y-102459772D01*
X74547619Y-102462931D01*
X74547620Y-102462931D01*
X74427986Y-102512485D01*
X74427984Y-102512486D01*
X74420358Y-102515645D01*
X74304526Y-102604526D01*
X74299503Y-102611072D01*
X74293803Y-102618500D01*
X74215645Y-102720358D01*
X74212486Y-102727984D01*
X74212485Y-102727986D01*
X74192005Y-102777430D01*
X74159772Y-102855246D01*
X74140715Y-103000000D01*
X33254000Y-103000000D01*
X33254000Y-99797756D01*
X38195500Y-99797756D01*
X38195869Y-99801152D01*
X38195869Y-99801153D01*
X38199005Y-99830015D01*
X38202202Y-99859448D01*
X38252929Y-99994764D01*
X38258309Y-100001943D01*
X38258311Y-100001946D01*
X38303115Y-100061727D01*
X38339596Y-100110404D01*
X38346776Y-100115785D01*
X38448054Y-100191689D01*
X38448057Y-100191691D01*
X38455236Y-100197071D01*
X38544954Y-100230704D01*
X38583157Y-100245026D01*
X38583159Y-100245026D01*
X38590552Y-100247798D01*
X38598402Y-100248651D01*
X38598403Y-100248651D01*
X38648847Y-100254131D01*
X38652244Y-100254500D01*
X39947756Y-100254500D01*
X39951153Y-100254131D01*
X40001597Y-100248651D01*
X40001598Y-100248651D01*
X40009448Y-100247798D01*
X40016841Y-100245026D01*
X40016843Y-100245026D01*
X40055046Y-100230704D01*
X40144764Y-100197071D01*
X40151943Y-100191691D01*
X40151946Y-100191689D01*
X40253224Y-100115785D01*
X40260404Y-100110404D01*
X40296885Y-100061727D01*
X40341689Y-100001946D01*
X40341691Y-100001943D01*
X40347071Y-99994764D01*
X40397798Y-99859448D01*
X40400996Y-99830015D01*
X40404131Y-99801153D01*
X40404131Y-99801152D01*
X40404500Y-99797756D01*
X40404500Y-98663944D01*
X43313983Y-98663944D01*
X43314207Y-98668611D01*
X43314207Y-98668616D01*
X43315265Y-98690645D01*
X43326494Y-98924419D01*
X43377369Y-99180185D01*
X43465490Y-99425621D01*
X43467706Y-99429745D01*
X43579262Y-99637361D01*
X43588920Y-99655336D01*
X43591715Y-99659079D01*
X43591717Y-99659082D01*
X43742157Y-99860545D01*
X43742162Y-99860551D01*
X43744949Y-99864283D01*
X43748258Y-99867563D01*
X43748263Y-99867569D01*
X43926831Y-100044585D01*
X43930148Y-100047873D01*
X43933910Y-100050631D01*
X43933913Y-100050634D01*
X44133627Y-100197071D01*
X44140449Y-100202073D01*
X44144580Y-100204247D01*
X44144581Y-100204247D01*
X44367098Y-100321319D01*
X44367104Y-100321321D01*
X44371233Y-100323494D01*
X44552454Y-100386779D01*
X44606502Y-100405653D01*
X44617429Y-100409469D01*
X44622022Y-100410341D01*
X44869039Y-100457239D01*
X44869042Y-100457239D01*
X44873628Y-100458110D01*
X44997525Y-100462978D01*
X45129535Y-100468165D01*
X45129540Y-100468165D01*
X45134203Y-100468348D01*
X45227685Y-100458110D01*
X45388776Y-100440468D01*
X45388781Y-100440467D01*
X45393429Y-100439958D01*
X45466683Y-100420672D01*
X45641091Y-100374754D01*
X45645611Y-100373564D01*
X45815706Y-100300486D01*
X45880907Y-100272474D01*
X45880910Y-100272472D01*
X45885210Y-100270625D01*
X45889190Y-100268162D01*
X45889194Y-100268160D01*
X46102988Y-100135860D01*
X46102992Y-100135857D01*
X46106961Y-100133401D01*
X46305994Y-99964907D01*
X46477935Y-99768845D01*
X46619008Y-99549523D01*
X46726114Y-99311757D01*
X46796899Y-99060772D01*
X46812700Y-98936568D01*
X46829411Y-98805212D01*
X46829411Y-98805206D01*
X46829809Y-98802081D01*
X46832220Y-98710000D01*
X46826549Y-98633694D01*
X46813240Y-98454593D01*
X46813239Y-98454589D01*
X46812894Y-98449941D01*
X46755342Y-98195595D01*
X46687403Y-98020890D01*
X62540860Y-98020890D01*
X62542024Y-98029792D01*
X62542024Y-98029795D01*
X62555541Y-98133157D01*
X62557741Y-98149981D01*
X62610174Y-98269145D01*
X62693946Y-98368803D01*
X62701414Y-98373774D01*
X62701415Y-98373775D01*
X62794850Y-98435972D01*
X62794853Y-98435973D01*
X62802320Y-98440944D01*
X62810887Y-98443620D01*
X62810888Y-98443621D01*
X62857757Y-98458263D01*
X62926587Y-98479767D01*
X62935560Y-98479931D01*
X62935563Y-98479932D01*
X62992790Y-98480981D01*
X63056755Y-98482153D01*
X63108917Y-98467932D01*
X63173701Y-98450270D01*
X63173703Y-98450269D01*
X63182360Y-98447909D01*
X63217025Y-98426625D01*
X63282953Y-98408000D01*
X63419365Y-98408000D01*
X63443664Y-98410586D01*
X63445102Y-98410654D01*
X63455280Y-98412845D01*
X63484984Y-98409330D01*
X63488842Y-98408873D01*
X63494820Y-98408521D01*
X63494812Y-98408428D01*
X63499990Y-98408000D01*
X63505192Y-98408000D01*
X63524346Y-98404812D01*
X63530204Y-98403978D01*
X63546818Y-98402012D01*
X63571067Y-98399142D01*
X63571068Y-98399142D01*
X63581407Y-98397918D01*
X63589706Y-98393933D01*
X63598783Y-98392422D01*
X63644151Y-98367942D01*
X63649414Y-98365261D01*
X63688750Y-98346373D01*
X63688754Y-98346370D01*
X63695898Y-98342940D01*
X63700192Y-98339330D01*
X63702124Y-98337398D01*
X63704073Y-98335611D01*
X63704126Y-98335582D01*
X63704245Y-98335712D01*
X63704813Y-98335211D01*
X63710557Y-98332112D01*
X63747367Y-98292291D01*
X63750796Y-98288726D01*
X65589523Y-96450000D01*
X72390715Y-96450000D01*
X72391793Y-96458188D01*
X72408345Y-96583911D01*
X72409772Y-96594754D01*
X72412931Y-96602380D01*
X72459106Y-96713855D01*
X72465645Y-96729642D01*
X72554526Y-96845474D01*
X72561076Y-96850500D01*
X72561079Y-96850503D01*
X72663804Y-96929327D01*
X72670357Y-96934355D01*
X72805246Y-96990228D01*
X72950000Y-97009285D01*
X72958188Y-97008207D01*
X73086566Y-96991306D01*
X73094754Y-96990228D01*
X73229643Y-96934355D01*
X73273760Y-96900503D01*
X73299778Y-96880538D01*
X73365998Y-96854937D01*
X73376482Y-96854500D01*
X75712886Y-96854500D01*
X75781007Y-96874502D01*
X75800468Y-96890186D01*
X75804526Y-96895474D01*
X75811076Y-96900500D01*
X75906104Y-96973418D01*
X75920357Y-96984355D01*
X76055246Y-97040228D01*
X76200000Y-97059285D01*
X76208188Y-97058207D01*
X76215025Y-97057307D01*
X76344754Y-97040228D01*
X76479643Y-96984355D01*
X76486196Y-96979327D01*
X76588921Y-96900503D01*
X76588924Y-96900500D01*
X76595474Y-96895474D01*
X76611567Y-96874502D01*
X76679328Y-96786193D01*
X76684355Y-96779642D01*
X76699719Y-96742552D01*
X76737069Y-96652380D01*
X76740228Y-96644754D01*
X76759285Y-96500000D01*
X76753601Y-96456826D01*
X76741306Y-96363432D01*
X76741305Y-96363430D01*
X76740228Y-96355246D01*
X76716358Y-96297620D01*
X76687515Y-96227986D01*
X76687514Y-96227984D01*
X76684355Y-96220358D01*
X76627686Y-96146506D01*
X76600501Y-96111077D01*
X76600500Y-96111076D01*
X76595474Y-96104526D01*
X76588924Y-96099500D01*
X76588921Y-96099497D01*
X76486196Y-96020673D01*
X76486194Y-96020672D01*
X76479643Y-96015645D01*
X76344754Y-95959772D01*
X76321929Y-95956767D01*
X76208188Y-95941793D01*
X76200000Y-95940715D01*
X76191812Y-95941793D01*
X76063432Y-95958694D01*
X76063430Y-95958695D01*
X76055246Y-95959772D01*
X76028929Y-95970673D01*
X75927986Y-96012485D01*
X75927984Y-96012486D01*
X75920358Y-96015645D01*
X75804526Y-96104526D01*
X75800989Y-96109135D01*
X75739673Y-96142620D01*
X75712886Y-96145500D01*
X73477417Y-96145500D01*
X73409296Y-96125498D01*
X73377455Y-96096204D01*
X73350500Y-96061076D01*
X73345474Y-96054526D01*
X73300143Y-96019742D01*
X73236196Y-95970673D01*
X73236194Y-95970672D01*
X73229643Y-95965645D01*
X73094754Y-95909772D01*
X73068830Y-95906359D01*
X72958188Y-95891793D01*
X72950000Y-95890715D01*
X72941812Y-95891793D01*
X72813432Y-95908694D01*
X72813430Y-95908695D01*
X72805246Y-95909772D01*
X72790179Y-95916013D01*
X72677986Y-95962485D01*
X72677984Y-95962486D01*
X72670358Y-95965645D01*
X72554526Y-96054526D01*
X72465645Y-96170358D01*
X72462486Y-96177984D01*
X72462485Y-96177986D01*
X72431294Y-96253288D01*
X72409772Y-96305246D01*
X72408695Y-96313430D01*
X72408694Y-96313432D01*
X72400465Y-96375940D01*
X72390715Y-96450000D01*
X65589523Y-96450000D01*
X65670368Y-96369155D01*
X65726320Y-96336687D01*
X65745379Y-96331491D01*
X65773701Y-96323770D01*
X65773703Y-96323769D01*
X65782360Y-96321409D01*
X65893306Y-96253288D01*
X65980672Y-96156767D01*
X65985644Y-96146506D01*
X66033522Y-96047685D01*
X66033522Y-96047684D01*
X66037437Y-96039604D01*
X66059037Y-95911219D01*
X66059174Y-95900000D01*
X66040718Y-95771125D01*
X65986832Y-95652610D01*
X65926447Y-95582529D01*
X65907713Y-95560787D01*
X65907712Y-95560786D01*
X65901850Y-95553983D01*
X65792601Y-95483172D01*
X65667870Y-95445870D01*
X65658894Y-95445815D01*
X65658893Y-95445815D01*
X65605678Y-95445490D01*
X65537683Y-95445074D01*
X65529051Y-95447541D01*
X65525895Y-95448443D01*
X65412505Y-95480850D01*
X65302400Y-95550321D01*
X65296458Y-95557049D01*
X65296457Y-95557050D01*
X65276175Y-95580015D01*
X65216219Y-95647903D01*
X65212404Y-95656028D01*
X65212403Y-95656030D01*
X65164705Y-95757625D01*
X65160890Y-95765751D01*
X65159509Y-95774619D01*
X65157090Y-95782532D01*
X65125691Y-95834787D01*
X63360673Y-97599804D01*
X63298361Y-97633830D01*
X63227545Y-97628765D01*
X63203047Y-97616442D01*
X63200136Y-97614555D01*
X63200131Y-97614553D01*
X63192601Y-97609672D01*
X63067870Y-97572370D01*
X63058894Y-97572315D01*
X63058893Y-97572315D01*
X63005678Y-97571990D01*
X62937683Y-97571574D01*
X62812505Y-97607350D01*
X62804918Y-97612137D01*
X62804916Y-97612138D01*
X62762148Y-97639123D01*
X62702400Y-97676821D01*
X62696458Y-97683549D01*
X62696457Y-97683550D01*
X62658839Y-97726145D01*
X62616219Y-97774403D01*
X62612404Y-97782528D01*
X62612403Y-97782530D01*
X62564705Y-97884125D01*
X62560890Y-97892251D01*
X62559509Y-97901120D01*
X62542654Y-98009371D01*
X62540860Y-98020890D01*
X46687403Y-98020890D01*
X46660827Y-97952550D01*
X46637174Y-97911165D01*
X46575311Y-97802929D01*
X46531425Y-97726145D01*
X46369980Y-97521353D01*
X46180039Y-97342674D01*
X45965773Y-97194032D01*
X45961583Y-97191966D01*
X45961580Y-97191964D01*
X45736078Y-97080759D01*
X45736075Y-97080758D01*
X45731890Y-97078694D01*
X45667889Y-97058207D01*
X45572956Y-97027819D01*
X45483528Y-96999193D01*
X45478921Y-96998443D01*
X45478918Y-96998442D01*
X45230755Y-96958026D01*
X45230756Y-96958026D01*
X45226144Y-96957275D01*
X45099675Y-96955620D01*
X44970067Y-96953923D01*
X44970064Y-96953923D01*
X44965390Y-96953862D01*
X44706996Y-96989028D01*
X44702510Y-96990336D01*
X44702508Y-96990336D01*
X44672121Y-96999193D01*
X44456638Y-97062000D01*
X44219816Y-97171177D01*
X44215911Y-97173737D01*
X44215906Y-97173740D01*
X44005646Y-97311592D01*
X44005641Y-97311596D01*
X44001733Y-97314158D01*
X43904456Y-97400981D01*
X43842471Y-97456305D01*
X43807179Y-97487804D01*
X43640429Y-97688300D01*
X43505145Y-97911240D01*
X43503338Y-97915548D01*
X43503338Y-97915549D01*
X43430908Y-98088276D01*
X43404300Y-98151728D01*
X43340110Y-98404480D01*
X43313983Y-98663944D01*
X40404500Y-98663944D01*
X40404500Y-98202244D01*
X40397798Y-98140552D01*
X40347071Y-98005236D01*
X40341691Y-97998057D01*
X40341689Y-97998054D01*
X40265785Y-97896776D01*
X40260404Y-97889596D01*
X40181244Y-97830269D01*
X40151946Y-97808311D01*
X40151943Y-97808309D01*
X40144764Y-97802929D01*
X40050723Y-97767675D01*
X40016843Y-97754974D01*
X40016841Y-97754974D01*
X40009448Y-97752202D01*
X40001598Y-97751349D01*
X40001597Y-97751349D01*
X39951153Y-97745869D01*
X39951152Y-97745869D01*
X39947756Y-97745500D01*
X38652244Y-97745500D01*
X38648848Y-97745869D01*
X38648847Y-97745869D01*
X38598403Y-97751349D01*
X38598402Y-97751349D01*
X38590552Y-97752202D01*
X38583159Y-97754974D01*
X38583157Y-97754974D01*
X38549277Y-97767675D01*
X38455236Y-97802929D01*
X38448057Y-97808309D01*
X38448054Y-97808311D01*
X38418756Y-97830269D01*
X38339596Y-97889596D01*
X38334215Y-97896776D01*
X38258311Y-97998054D01*
X38258309Y-97998057D01*
X38252929Y-98005236D01*
X38202202Y-98140552D01*
X38195500Y-98202244D01*
X38195500Y-99797756D01*
X33254000Y-99797756D01*
X33254000Y-95035114D01*
X44652430Y-95035114D01*
X44652989Y-95039358D01*
X44652989Y-95039362D01*
X44660857Y-95099123D01*
X44690637Y-95325322D01*
X44691770Y-95329462D01*
X44691770Y-95329464D01*
X44697142Y-95349100D01*
X44767876Y-95607661D01*
X44769560Y-95611609D01*
X44865686Y-95836972D01*
X44882718Y-95876904D01*
X44954431Y-95996728D01*
X45018947Y-96104526D01*
X45033038Y-96128071D01*
X45035716Y-96131414D01*
X45035719Y-96131418D01*
X45101726Y-96213807D01*
X45216055Y-96356513D01*
X45428381Y-96558003D01*
X45666088Y-96728813D01*
X45774460Y-96786193D01*
X45906056Y-96855869D01*
X45924778Y-96865782D01*
X45928801Y-96867254D01*
X45928805Y-96867256D01*
X46174628Y-96957214D01*
X46199662Y-96966375D01*
X46485656Y-97028732D01*
X46514957Y-97031038D01*
X46712775Y-97046607D01*
X46712784Y-97046607D01*
X46715232Y-97046800D01*
X46873577Y-97046800D01*
X46875713Y-97046654D01*
X46875724Y-97046654D01*
X47087758Y-97032199D01*
X47087764Y-97032198D01*
X47092035Y-97031907D01*
X47096230Y-97031038D01*
X47096232Y-97031038D01*
X47250006Y-96999193D01*
X47378666Y-96972549D01*
X47654589Y-96874839D01*
X47658393Y-96872875D01*
X47658399Y-96872873D01*
X47910892Y-96742552D01*
X47910893Y-96742552D01*
X47914699Y-96740587D01*
X47918200Y-96738126D01*
X47918204Y-96738124D01*
X48150677Y-96574739D01*
X48150683Y-96574734D01*
X48154182Y-96572275D01*
X48343396Y-96396446D01*
X48365463Y-96375940D01*
X48365465Y-96375937D01*
X48368606Y-96373019D01*
X48554005Y-96146506D01*
X48606359Y-96061072D01*
X48704711Y-95900578D01*
X48704715Y-95900570D01*
X48706947Y-95896928D01*
X48709675Y-95890715D01*
X48795507Y-95695183D01*
X48824602Y-95628902D01*
X48841061Y-95571125D01*
X48903618Y-95351516D01*
X48904794Y-95347388D01*
X48946037Y-95057595D01*
X48946059Y-95053306D01*
X48946060Y-95053299D01*
X48946910Y-94890964D01*
X109291148Y-94890964D01*
X109304424Y-95093522D01*
X109305845Y-95099118D01*
X109305846Y-95099123D01*
X109326119Y-95178945D01*
X109354392Y-95290269D01*
X109356809Y-95295512D01*
X109425758Y-95445074D01*
X109439377Y-95474616D01*
X109442710Y-95479332D01*
X109552573Y-95634785D01*
X109556533Y-95640389D01*
X109701938Y-95782035D01*
X109870720Y-95894812D01*
X109876023Y-95897090D01*
X109876026Y-95897092D01*
X110051921Y-95972662D01*
X110057228Y-95974942D01*
X110130244Y-95991464D01*
X110249579Y-96018467D01*
X110249584Y-96018468D01*
X110255216Y-96019742D01*
X110260987Y-96019969D01*
X110260989Y-96019969D01*
X110320756Y-96022317D01*
X110458053Y-96027712D01*
X110563072Y-96012485D01*
X110653231Y-95999413D01*
X110653236Y-95999412D01*
X110658945Y-95998584D01*
X110664409Y-95996729D01*
X110664414Y-95996728D01*
X110845693Y-95935192D01*
X110845698Y-95935190D01*
X110851165Y-95933334D01*
X110887596Y-95912932D01*
X111004102Y-95847685D01*
X111028276Y-95834147D01*
X111090934Y-95782035D01*
X111179913Y-95708031D01*
X111184345Y-95704345D01*
X111247091Y-95628902D01*
X111310453Y-95552718D01*
X111310455Y-95552715D01*
X111314147Y-95548276D01*
X111413334Y-95371165D01*
X111415190Y-95365698D01*
X111415192Y-95365693D01*
X111476728Y-95184414D01*
X111476729Y-95184409D01*
X111478584Y-95178945D01*
X111479412Y-95173236D01*
X111479413Y-95173231D01*
X111498823Y-95039362D01*
X111507712Y-94978053D01*
X111509232Y-94920000D01*
X111506564Y-94890964D01*
X111831148Y-94890964D01*
X111844424Y-95093522D01*
X111845845Y-95099118D01*
X111845846Y-95099123D01*
X111866119Y-95178945D01*
X111894392Y-95290269D01*
X111896809Y-95295512D01*
X111965758Y-95445074D01*
X111979377Y-95474616D01*
X111982710Y-95479332D01*
X112092573Y-95634785D01*
X112096533Y-95640389D01*
X112241938Y-95782035D01*
X112410720Y-95894812D01*
X112416023Y-95897090D01*
X112416026Y-95897092D01*
X112591921Y-95972662D01*
X112597228Y-95974942D01*
X112670244Y-95991464D01*
X112789579Y-96018467D01*
X112789584Y-96018468D01*
X112795216Y-96019742D01*
X112800987Y-96019969D01*
X112800989Y-96019969D01*
X112860756Y-96022317D01*
X112998053Y-96027712D01*
X113103072Y-96012485D01*
X113193231Y-95999413D01*
X113193236Y-95999412D01*
X113198945Y-95998584D01*
X113204409Y-95996729D01*
X113204414Y-95996728D01*
X113385693Y-95935192D01*
X113385698Y-95935190D01*
X113391165Y-95933334D01*
X113427596Y-95912932D01*
X113544102Y-95847685D01*
X113568276Y-95834147D01*
X113630934Y-95782035D01*
X113719913Y-95708031D01*
X113724345Y-95704345D01*
X113787091Y-95628902D01*
X113850453Y-95552718D01*
X113850455Y-95552715D01*
X113854147Y-95548276D01*
X113953334Y-95371165D01*
X113955190Y-95365698D01*
X113955192Y-95365693D01*
X114016728Y-95184414D01*
X114016729Y-95184409D01*
X114018584Y-95178945D01*
X114019412Y-95173236D01*
X114019413Y-95173231D01*
X114038823Y-95039362D01*
X114047712Y-94978053D01*
X114049232Y-94920000D01*
X114033308Y-94746701D01*
X114031187Y-94723613D01*
X114031186Y-94723610D01*
X114030658Y-94717859D01*
X114029090Y-94712299D01*
X113977125Y-94528046D01*
X113977124Y-94528044D01*
X113975557Y-94522487D01*
X113964978Y-94501033D01*
X113888331Y-94345609D01*
X113885776Y-94340428D01*
X113764320Y-94177779D01*
X113615258Y-94039987D01*
X113610375Y-94036906D01*
X113610371Y-94036903D01*
X113448464Y-93934748D01*
X113443581Y-93931667D01*
X113255039Y-93856446D01*
X113249379Y-93855320D01*
X113249375Y-93855319D01*
X113061613Y-93817971D01*
X113061610Y-93817971D01*
X113055946Y-93816844D01*
X113050171Y-93816768D01*
X113050167Y-93816768D01*
X112948793Y-93815441D01*
X112852971Y-93814187D01*
X112847274Y-93815166D01*
X112847273Y-93815166D01*
X112658607Y-93847585D01*
X112652910Y-93848564D01*
X112462463Y-93918824D01*
X112288010Y-94022612D01*
X112283670Y-94026418D01*
X112283666Y-94026421D01*
X112263723Y-94043911D01*
X112135392Y-94156455D01*
X112009720Y-94315869D01*
X112007031Y-94320980D01*
X112007029Y-94320983D01*
X111994073Y-94345609D01*
X111915203Y-94495515D01*
X111855007Y-94689378D01*
X111831148Y-94890964D01*
X111506564Y-94890964D01*
X111493308Y-94746701D01*
X111491187Y-94723613D01*
X111491186Y-94723610D01*
X111490658Y-94717859D01*
X111489090Y-94712299D01*
X111437125Y-94528046D01*
X111437124Y-94528044D01*
X111435557Y-94522487D01*
X111424978Y-94501033D01*
X111348331Y-94345609D01*
X111345776Y-94340428D01*
X111224320Y-94177779D01*
X111075258Y-94039987D01*
X111070375Y-94036906D01*
X111070371Y-94036903D01*
X110908464Y-93934748D01*
X110903581Y-93931667D01*
X110715039Y-93856446D01*
X110709379Y-93855320D01*
X110709375Y-93855319D01*
X110521613Y-93817971D01*
X110521610Y-93817971D01*
X110515946Y-93816844D01*
X110510171Y-93816768D01*
X110510167Y-93816768D01*
X110408793Y-93815441D01*
X110312971Y-93814187D01*
X110307274Y-93815166D01*
X110307273Y-93815166D01*
X110118607Y-93847585D01*
X110112910Y-93848564D01*
X109922463Y-93918824D01*
X109748010Y-94022612D01*
X109743670Y-94026418D01*
X109743666Y-94026421D01*
X109723723Y-94043911D01*
X109595392Y-94156455D01*
X109469720Y-94315869D01*
X109467031Y-94320980D01*
X109467029Y-94320983D01*
X109454073Y-94345609D01*
X109375203Y-94495515D01*
X109315007Y-94689378D01*
X109291148Y-94890964D01*
X48946910Y-94890964D01*
X48947548Y-94769172D01*
X48947548Y-94769165D01*
X48947570Y-94764886D01*
X48944611Y-94742405D01*
X48914975Y-94517307D01*
X48909363Y-94474678D01*
X48903327Y-94452612D01*
X48833256Y-94196478D01*
X48832124Y-94192339D01*
X48717282Y-93923096D01*
X48566962Y-93671929D01*
X48555121Y-93657148D01*
X48418712Y-93486883D01*
X48383945Y-93443487D01*
X48171619Y-93241997D01*
X47933912Y-93071187D01*
X47675222Y-92934218D01*
X47671199Y-92932746D01*
X47671195Y-92932744D01*
X47404369Y-92835100D01*
X47404367Y-92835099D01*
X47400338Y-92833625D01*
X47114344Y-92771268D01*
X47070292Y-92767801D01*
X46887225Y-92753393D01*
X46887216Y-92753393D01*
X46884768Y-92753200D01*
X46726423Y-92753200D01*
X46724287Y-92753346D01*
X46724276Y-92753346D01*
X46512242Y-92767801D01*
X46512236Y-92767802D01*
X46507965Y-92768093D01*
X46503770Y-92768962D01*
X46503768Y-92768962D01*
X46404743Y-92789469D01*
X46221334Y-92827451D01*
X45945411Y-92925161D01*
X45941607Y-92927125D01*
X45941601Y-92927127D01*
X45775771Y-93012718D01*
X45685301Y-93059413D01*
X45681800Y-93061874D01*
X45681796Y-93061876D01*
X45449323Y-93225261D01*
X45449317Y-93225266D01*
X45445818Y-93227725D01*
X45231394Y-93426981D01*
X45045995Y-93653494D01*
X45043756Y-93657148D01*
X44895289Y-93899422D01*
X44895285Y-93899430D01*
X44893053Y-93903072D01*
X44891334Y-93906989D01*
X44891332Y-93906992D01*
X44884263Y-93923096D01*
X44775398Y-94171098D01*
X44695206Y-94452612D01*
X44653963Y-94742405D01*
X44653941Y-94746694D01*
X44653940Y-94746701D01*
X44652452Y-95030828D01*
X44652430Y-95035114D01*
X33254000Y-95035114D01*
X33254000Y-90847756D01*
X38195500Y-90847756D01*
X38202202Y-90909448D01*
X38204974Y-90916841D01*
X38204974Y-90916843D01*
X38213644Y-90939969D01*
X38252929Y-91044764D01*
X38258309Y-91051943D01*
X38258311Y-91051946D01*
X38324287Y-91139977D01*
X38339596Y-91160404D01*
X38346776Y-91165785D01*
X38448054Y-91241689D01*
X38448057Y-91241691D01*
X38455236Y-91247071D01*
X38537663Y-91277971D01*
X38583157Y-91295026D01*
X38583159Y-91295026D01*
X38590552Y-91297798D01*
X38598402Y-91298651D01*
X38598403Y-91298651D01*
X38648847Y-91304131D01*
X38652244Y-91304500D01*
X39947756Y-91304500D01*
X39951153Y-91304131D01*
X40001597Y-91298651D01*
X40001598Y-91298651D01*
X40009448Y-91297798D01*
X40016841Y-91295026D01*
X40016843Y-91295026D01*
X40062337Y-91277971D01*
X40144764Y-91247071D01*
X40151943Y-91241691D01*
X40151946Y-91241689D01*
X40253224Y-91165785D01*
X40260404Y-91160404D01*
X40275713Y-91139977D01*
X40341689Y-91051946D01*
X40341691Y-91051943D01*
X40347071Y-91044764D01*
X40347378Y-91043944D01*
X46768383Y-91043944D01*
X46780894Y-91304419D01*
X46831769Y-91560185D01*
X46919890Y-91805621D01*
X47043320Y-92035336D01*
X47046115Y-92039079D01*
X47046117Y-92039082D01*
X47196557Y-92240545D01*
X47196562Y-92240551D01*
X47199349Y-92244283D01*
X47202658Y-92247563D01*
X47202663Y-92247569D01*
X47303901Y-92347927D01*
X47384548Y-92427873D01*
X47388310Y-92430631D01*
X47388313Y-92430634D01*
X47563549Y-92559123D01*
X47594849Y-92582073D01*
X47598980Y-92584247D01*
X47598981Y-92584247D01*
X47821498Y-92701319D01*
X47821504Y-92701321D01*
X47825633Y-92703494D01*
X48071829Y-92789469D01*
X48076422Y-92790341D01*
X48323439Y-92837239D01*
X48323442Y-92837239D01*
X48328028Y-92838110D01*
X48451925Y-92842978D01*
X48583935Y-92848165D01*
X48583940Y-92848165D01*
X48588603Y-92848348D01*
X48682085Y-92838110D01*
X48843176Y-92820468D01*
X48843181Y-92820467D01*
X48847829Y-92819958D01*
X49100011Y-92753564D01*
X49221616Y-92701319D01*
X49335307Y-92652474D01*
X49335310Y-92652472D01*
X49339610Y-92650625D01*
X49343590Y-92648162D01*
X49343594Y-92648160D01*
X49557388Y-92515860D01*
X49557392Y-92515857D01*
X49561361Y-92513401D01*
X49753239Y-92350964D01*
X109291148Y-92350964D01*
X109304424Y-92553522D01*
X109305845Y-92559118D01*
X109305846Y-92559123D01*
X109342904Y-92705035D01*
X109354392Y-92750269D01*
X109356809Y-92755512D01*
X109392398Y-92832711D01*
X109439377Y-92934616D01*
X109442710Y-92939332D01*
X109534478Y-93069181D01*
X109556533Y-93100389D01*
X109701938Y-93242035D01*
X109870720Y-93354812D01*
X109876023Y-93357090D01*
X109876026Y-93357092D01*
X109964707Y-93395192D01*
X110057228Y-93434942D01*
X110130244Y-93451464D01*
X110249579Y-93478467D01*
X110249584Y-93478468D01*
X110255216Y-93479742D01*
X110260987Y-93479969D01*
X110260989Y-93479969D01*
X110320756Y-93482317D01*
X110458053Y-93487712D01*
X110558499Y-93473148D01*
X110653231Y-93459413D01*
X110653236Y-93459412D01*
X110658945Y-93458584D01*
X110664409Y-93456729D01*
X110664414Y-93456728D01*
X110845693Y-93395192D01*
X110845698Y-93395190D01*
X110851165Y-93393334D01*
X111028276Y-93294147D01*
X111090934Y-93242035D01*
X111179913Y-93168031D01*
X111184345Y-93164345D01*
X111314147Y-93008276D01*
X111409445Y-92838110D01*
X111410510Y-92836208D01*
X111410511Y-92836206D01*
X111413334Y-92831165D01*
X111415190Y-92825698D01*
X111415192Y-92825693D01*
X111476728Y-92644414D01*
X111476729Y-92644409D01*
X111478584Y-92638945D01*
X111479412Y-92633236D01*
X111479413Y-92633231D01*
X111507179Y-92441727D01*
X111507712Y-92438053D01*
X111509232Y-92380000D01*
X111506564Y-92350964D01*
X111831148Y-92350964D01*
X111844424Y-92553522D01*
X111845845Y-92559118D01*
X111845846Y-92559123D01*
X111882904Y-92705035D01*
X111894392Y-92750269D01*
X111896809Y-92755512D01*
X111932398Y-92832711D01*
X111979377Y-92934616D01*
X111982710Y-92939332D01*
X112074478Y-93069181D01*
X112096533Y-93100389D01*
X112241938Y-93242035D01*
X112410720Y-93354812D01*
X112416023Y-93357090D01*
X112416026Y-93357092D01*
X112504707Y-93395192D01*
X112597228Y-93434942D01*
X112670244Y-93451464D01*
X112789579Y-93478467D01*
X112789584Y-93478468D01*
X112795216Y-93479742D01*
X112800987Y-93479969D01*
X112800989Y-93479969D01*
X112860756Y-93482317D01*
X112998053Y-93487712D01*
X113098499Y-93473148D01*
X113193231Y-93459413D01*
X113193236Y-93459412D01*
X113198945Y-93458584D01*
X113204409Y-93456729D01*
X113204414Y-93456728D01*
X113385693Y-93395192D01*
X113385698Y-93395190D01*
X113391165Y-93393334D01*
X113568276Y-93294147D01*
X113630934Y-93242035D01*
X113719913Y-93168031D01*
X113724345Y-93164345D01*
X113854147Y-93008276D01*
X113949445Y-92838110D01*
X113950510Y-92836208D01*
X113950511Y-92836206D01*
X113953334Y-92831165D01*
X113955190Y-92825698D01*
X113955192Y-92825693D01*
X114016728Y-92644414D01*
X114016729Y-92644409D01*
X114018584Y-92638945D01*
X114019412Y-92633236D01*
X114019413Y-92633231D01*
X114047179Y-92441727D01*
X114047712Y-92438053D01*
X114049232Y-92380000D01*
X114037063Y-92247569D01*
X114031187Y-92183613D01*
X114031186Y-92183610D01*
X114030658Y-92177859D01*
X114029090Y-92172299D01*
X113977125Y-91988046D01*
X113977124Y-91988044D01*
X113975557Y-91982487D01*
X113964978Y-91961033D01*
X113888331Y-91805609D01*
X113885776Y-91800428D01*
X113764320Y-91637779D01*
X113615258Y-91499987D01*
X113610375Y-91496906D01*
X113610371Y-91496903D01*
X113448464Y-91394748D01*
X113443581Y-91391667D01*
X113255039Y-91316446D01*
X113249379Y-91315320D01*
X113249375Y-91315319D01*
X113061613Y-91277971D01*
X113061610Y-91277971D01*
X113055946Y-91276844D01*
X113050171Y-91276768D01*
X113050167Y-91276768D01*
X112948793Y-91275441D01*
X112852971Y-91274187D01*
X112847274Y-91275166D01*
X112847273Y-91275166D01*
X112678708Y-91304131D01*
X112652910Y-91308564D01*
X112462463Y-91378824D01*
X112288010Y-91482612D01*
X112283670Y-91486418D01*
X112283666Y-91486421D01*
X112199555Y-91560185D01*
X112135392Y-91616455D01*
X112009720Y-91775869D01*
X112007031Y-91780980D01*
X112007029Y-91780983D01*
X111991897Y-91809745D01*
X111915203Y-91955515D01*
X111855007Y-92149378D01*
X111831148Y-92350964D01*
X111506564Y-92350964D01*
X111497063Y-92247569D01*
X111491187Y-92183613D01*
X111491186Y-92183610D01*
X111490658Y-92177859D01*
X111489090Y-92172299D01*
X111437125Y-91988046D01*
X111437124Y-91988044D01*
X111435557Y-91982487D01*
X111424978Y-91961033D01*
X111348331Y-91805609D01*
X111345776Y-91800428D01*
X111224320Y-91637779D01*
X111075258Y-91499987D01*
X111070375Y-91496906D01*
X111070371Y-91496903D01*
X110908464Y-91394748D01*
X110903581Y-91391667D01*
X110715039Y-91316446D01*
X110709379Y-91315320D01*
X110709375Y-91315319D01*
X110521613Y-91277971D01*
X110521610Y-91277971D01*
X110515946Y-91276844D01*
X110510171Y-91276768D01*
X110510167Y-91276768D01*
X110408793Y-91275441D01*
X110312971Y-91274187D01*
X110307274Y-91275166D01*
X110307273Y-91275166D01*
X110138708Y-91304131D01*
X110112910Y-91308564D01*
X109922463Y-91378824D01*
X109748010Y-91482612D01*
X109743670Y-91486418D01*
X109743666Y-91486421D01*
X109659555Y-91560185D01*
X109595392Y-91616455D01*
X109469720Y-91775869D01*
X109467031Y-91780980D01*
X109467029Y-91780983D01*
X109451897Y-91809745D01*
X109375203Y-91955515D01*
X109315007Y-92149378D01*
X109291148Y-92350964D01*
X49753239Y-92350964D01*
X49760394Y-92344907D01*
X49932335Y-92148845D01*
X50073408Y-91929523D01*
X50180514Y-91691757D01*
X50251299Y-91440772D01*
X50266843Y-91318586D01*
X50283811Y-91185212D01*
X50283811Y-91185206D01*
X50284209Y-91182081D01*
X50286620Y-91090000D01*
X50276029Y-90947485D01*
X50267640Y-90834593D01*
X50267639Y-90834589D01*
X50267294Y-90829941D01*
X50209742Y-90575595D01*
X50115227Y-90332550D01*
X50091574Y-90291165D01*
X49988145Y-90110205D01*
X49985825Y-90106145D01*
X49824380Y-89901353D01*
X49728294Y-89810964D01*
X109291148Y-89810964D01*
X109304424Y-90013522D01*
X109305845Y-90019118D01*
X109305846Y-90019123D01*
X109352971Y-90204674D01*
X109354392Y-90210269D01*
X109356809Y-90215512D01*
X109391720Y-90291240D01*
X109439377Y-90394616D01*
X109442710Y-90399332D01*
X109539483Y-90536263D01*
X109556533Y-90560389D01*
X109560675Y-90564424D01*
X109576820Y-90580152D01*
X109701938Y-90702035D01*
X109870720Y-90814812D01*
X109876023Y-90817090D01*
X109876026Y-90817092D01*
X109964707Y-90855192D01*
X110057228Y-90894942D01*
X110130244Y-90911464D01*
X110249579Y-90938467D01*
X110249584Y-90938468D01*
X110255216Y-90939742D01*
X110260987Y-90939969D01*
X110260989Y-90939969D01*
X110320756Y-90942317D01*
X110458053Y-90947712D01*
X110558499Y-90933148D01*
X110653231Y-90919413D01*
X110653236Y-90919412D01*
X110658945Y-90918584D01*
X110664409Y-90916729D01*
X110664414Y-90916728D01*
X110845693Y-90855192D01*
X110845698Y-90855190D01*
X110851165Y-90853334D01*
X110861126Y-90847756D01*
X110965795Y-90789138D01*
X111028276Y-90754147D01*
X111090934Y-90702035D01*
X111179913Y-90628031D01*
X111184345Y-90624345D01*
X111241463Y-90555669D01*
X111310453Y-90472718D01*
X111310455Y-90472715D01*
X111314147Y-90468276D01*
X111413334Y-90291165D01*
X111415190Y-90285698D01*
X111415192Y-90285693D01*
X111476728Y-90104414D01*
X111476729Y-90104409D01*
X111478584Y-90098945D01*
X111479412Y-90093236D01*
X111479413Y-90093231D01*
X111496991Y-89971996D01*
X111507712Y-89898053D01*
X111509232Y-89840000D01*
X111506564Y-89810964D01*
X111831148Y-89810964D01*
X111844424Y-90013522D01*
X111845845Y-90019118D01*
X111845846Y-90019123D01*
X111892971Y-90204674D01*
X111894392Y-90210269D01*
X111896809Y-90215512D01*
X111931720Y-90291240D01*
X111979377Y-90394616D01*
X111982710Y-90399332D01*
X112079483Y-90536263D01*
X112096533Y-90560389D01*
X112100675Y-90564424D01*
X112116820Y-90580152D01*
X112241938Y-90702035D01*
X112410720Y-90814812D01*
X112416023Y-90817090D01*
X112416026Y-90817092D01*
X112504707Y-90855192D01*
X112597228Y-90894942D01*
X112670244Y-90911464D01*
X112789579Y-90938467D01*
X112789584Y-90938468D01*
X112795216Y-90939742D01*
X112800987Y-90939969D01*
X112800989Y-90939969D01*
X112860756Y-90942317D01*
X112998053Y-90947712D01*
X113098499Y-90933148D01*
X113193231Y-90919413D01*
X113193236Y-90919412D01*
X113198945Y-90918584D01*
X113204409Y-90916729D01*
X113204414Y-90916728D01*
X113385693Y-90855192D01*
X113385698Y-90855190D01*
X113391165Y-90853334D01*
X113401126Y-90847756D01*
X113505795Y-90789138D01*
X113568276Y-90754147D01*
X113630934Y-90702035D01*
X113719913Y-90628031D01*
X113724345Y-90624345D01*
X113781463Y-90555669D01*
X113850453Y-90472718D01*
X113850455Y-90472715D01*
X113854147Y-90468276D01*
X113953334Y-90291165D01*
X113955190Y-90285698D01*
X113955192Y-90285693D01*
X114016728Y-90104414D01*
X114016729Y-90104409D01*
X114018584Y-90098945D01*
X114019412Y-90093236D01*
X114019413Y-90093231D01*
X114036991Y-89971996D01*
X114047712Y-89898053D01*
X114049232Y-89840000D01*
X114030658Y-89637859D01*
X114029090Y-89632299D01*
X113977125Y-89448046D01*
X113977124Y-89448044D01*
X113975557Y-89442487D01*
X113964978Y-89421033D01*
X113888331Y-89265609D01*
X113885776Y-89260428D01*
X113764320Y-89097779D01*
X113615258Y-88959987D01*
X113610375Y-88956906D01*
X113610371Y-88956903D01*
X113448464Y-88854748D01*
X113443581Y-88851667D01*
X113255039Y-88776446D01*
X113249379Y-88775320D01*
X113249375Y-88775319D01*
X113061613Y-88737971D01*
X113061610Y-88737971D01*
X113055946Y-88736844D01*
X113050171Y-88736768D01*
X113050167Y-88736768D01*
X112948793Y-88735441D01*
X112852971Y-88734187D01*
X112847274Y-88735166D01*
X112847273Y-88735166D01*
X112658607Y-88767585D01*
X112652910Y-88768564D01*
X112462463Y-88838824D01*
X112288010Y-88942612D01*
X112283670Y-88946418D01*
X112283666Y-88946421D01*
X112150005Y-89063640D01*
X112135392Y-89076455D01*
X112009720Y-89235869D01*
X112007031Y-89240980D01*
X112007029Y-89240983D01*
X111994073Y-89265609D01*
X111915203Y-89415515D01*
X111855007Y-89609378D01*
X111831148Y-89810964D01*
X111506564Y-89810964D01*
X111490658Y-89637859D01*
X111489090Y-89632299D01*
X111437125Y-89448046D01*
X111437124Y-89448044D01*
X111435557Y-89442487D01*
X111424978Y-89421033D01*
X111348331Y-89265609D01*
X111345776Y-89260428D01*
X111224320Y-89097779D01*
X111075258Y-88959987D01*
X111070375Y-88956906D01*
X111070371Y-88956903D01*
X110908464Y-88854748D01*
X110903581Y-88851667D01*
X110715039Y-88776446D01*
X110709379Y-88775320D01*
X110709375Y-88775319D01*
X110521613Y-88737971D01*
X110521610Y-88737971D01*
X110515946Y-88736844D01*
X110510171Y-88736768D01*
X110510167Y-88736768D01*
X110408793Y-88735441D01*
X110312971Y-88734187D01*
X110307274Y-88735166D01*
X110307273Y-88735166D01*
X110118607Y-88767585D01*
X110112910Y-88768564D01*
X109922463Y-88838824D01*
X109748010Y-88942612D01*
X109743670Y-88946418D01*
X109743666Y-88946421D01*
X109610005Y-89063640D01*
X109595392Y-89076455D01*
X109469720Y-89235869D01*
X109467031Y-89240980D01*
X109467029Y-89240983D01*
X109454073Y-89265609D01*
X109375203Y-89415515D01*
X109315007Y-89609378D01*
X109291148Y-89810964D01*
X49728294Y-89810964D01*
X49634439Y-89722674D01*
X49420173Y-89574032D01*
X49415983Y-89571966D01*
X49415980Y-89571964D01*
X49190478Y-89460759D01*
X49190475Y-89460758D01*
X49186290Y-89458694D01*
X48937928Y-89379193D01*
X48933321Y-89378443D01*
X48933318Y-89378442D01*
X48685155Y-89338026D01*
X48685156Y-89338026D01*
X48680544Y-89337275D01*
X48554075Y-89335620D01*
X48424467Y-89333923D01*
X48424464Y-89333923D01*
X48419790Y-89333862D01*
X48161396Y-89369028D01*
X48156910Y-89370336D01*
X48156908Y-89370336D01*
X48126521Y-89379193D01*
X47911038Y-89442000D01*
X47674216Y-89551177D01*
X47670311Y-89553737D01*
X47670306Y-89553740D01*
X47460046Y-89691592D01*
X47460041Y-89691596D01*
X47456133Y-89694158D01*
X47358856Y-89780981D01*
X47296871Y-89836305D01*
X47261579Y-89867804D01*
X47094829Y-90068300D01*
X46959545Y-90291240D01*
X46957738Y-90295548D01*
X46957738Y-90295549D01*
X46885308Y-90468276D01*
X46858700Y-90531728D01*
X46794510Y-90784480D01*
X46768383Y-91043944D01*
X40347378Y-91043944D01*
X40386356Y-90939969D01*
X40395026Y-90916843D01*
X40395026Y-90916841D01*
X40397798Y-90909448D01*
X40404500Y-90847756D01*
X40404500Y-89252244D01*
X40397798Y-89190552D01*
X40347071Y-89055236D01*
X40341691Y-89048057D01*
X40341689Y-89048054D01*
X40265785Y-88946776D01*
X40260404Y-88939596D01*
X40239977Y-88924287D01*
X40151946Y-88858311D01*
X40151943Y-88858309D01*
X40144764Y-88852929D01*
X40026694Y-88808667D01*
X40016843Y-88804974D01*
X40016841Y-88804974D01*
X40009448Y-88802202D01*
X40001598Y-88801349D01*
X40001597Y-88801349D01*
X39951153Y-88795869D01*
X39951152Y-88795869D01*
X39947756Y-88795500D01*
X38652244Y-88795500D01*
X38648848Y-88795869D01*
X38648847Y-88795869D01*
X38598403Y-88801349D01*
X38598402Y-88801349D01*
X38590552Y-88802202D01*
X38583159Y-88804974D01*
X38583157Y-88804974D01*
X38573306Y-88808667D01*
X38455236Y-88852929D01*
X38448057Y-88858309D01*
X38448054Y-88858311D01*
X38360023Y-88924287D01*
X38339596Y-88939596D01*
X38334215Y-88946776D01*
X38258311Y-89048054D01*
X38258309Y-89048057D01*
X38252929Y-89055236D01*
X38202202Y-89190552D01*
X38195500Y-89252244D01*
X38195500Y-90847756D01*
X33254000Y-90847756D01*
X33254000Y-87785907D01*
X68540738Y-87785907D01*
X68557222Y-87982209D01*
X68584372Y-88076890D01*
X68608787Y-88162035D01*
X68611521Y-88171570D01*
X68656544Y-88259175D01*
X68685333Y-88315192D01*
X68701566Y-88346779D01*
X68705389Y-88351603D01*
X68705392Y-88351607D01*
X68733045Y-88386496D01*
X68823927Y-88501160D01*
X68828620Y-88505154D01*
X68828621Y-88505155D01*
X68853447Y-88526283D01*
X68973945Y-88628835D01*
X68979323Y-88631841D01*
X68979325Y-88631842D01*
X69009019Y-88648437D01*
X69145904Y-88724940D01*
X69333255Y-88785814D01*
X69528862Y-88809139D01*
X69534997Y-88808667D01*
X69534999Y-88808667D01*
X69594801Y-88804065D01*
X69725274Y-88794026D01*
X69915009Y-88741050D01*
X69920513Y-88738270D01*
X70085341Y-88655010D01*
X70085343Y-88655009D01*
X70090842Y-88652231D01*
X70246074Y-88530950D01*
X70250100Y-88526286D01*
X70250103Y-88526283D01*
X70370764Y-88386496D01*
X70370765Y-88386494D01*
X70374793Y-88381828D01*
X70472096Y-88210544D01*
X70534277Y-88023622D01*
X70558966Y-87828183D01*
X70559360Y-87800000D01*
X70557978Y-87785907D01*
X71040738Y-87785907D01*
X71057222Y-87982209D01*
X71084372Y-88076890D01*
X71108787Y-88162035D01*
X71111521Y-88171570D01*
X71156544Y-88259175D01*
X71185333Y-88315192D01*
X71201566Y-88346779D01*
X71205389Y-88351603D01*
X71205392Y-88351607D01*
X71233045Y-88386496D01*
X71323927Y-88501160D01*
X71328620Y-88505154D01*
X71328621Y-88505155D01*
X71353447Y-88526283D01*
X71473945Y-88628835D01*
X71479323Y-88631841D01*
X71479325Y-88631842D01*
X71509019Y-88648437D01*
X71645904Y-88724940D01*
X71833255Y-88785814D01*
X72028862Y-88809139D01*
X72034997Y-88808667D01*
X72034999Y-88808667D01*
X72094801Y-88804065D01*
X72225274Y-88794026D01*
X72415009Y-88741050D01*
X72420513Y-88738270D01*
X72585341Y-88655010D01*
X72585343Y-88655009D01*
X72590842Y-88652231D01*
X72746074Y-88530950D01*
X72750100Y-88526286D01*
X72750103Y-88526283D01*
X72870764Y-88386496D01*
X72870765Y-88386494D01*
X72874793Y-88381828D01*
X72972096Y-88210544D01*
X73034277Y-88023622D01*
X73058966Y-87828183D01*
X73059360Y-87800000D01*
X73057978Y-87785907D01*
X73540738Y-87785907D01*
X73557222Y-87982209D01*
X73584372Y-88076890D01*
X73608787Y-88162035D01*
X73611521Y-88171570D01*
X73656544Y-88259175D01*
X73685333Y-88315192D01*
X73701566Y-88346779D01*
X73705389Y-88351603D01*
X73705392Y-88351607D01*
X73733045Y-88386496D01*
X73823927Y-88501160D01*
X73828620Y-88505154D01*
X73828621Y-88505155D01*
X73853447Y-88526283D01*
X73973945Y-88628835D01*
X73979323Y-88631841D01*
X73979325Y-88631842D01*
X74009019Y-88648437D01*
X74145904Y-88724940D01*
X74333255Y-88785814D01*
X74528862Y-88809139D01*
X74534997Y-88808667D01*
X74534999Y-88808667D01*
X74594801Y-88804065D01*
X74725274Y-88794026D01*
X74915009Y-88741050D01*
X74920513Y-88738270D01*
X75085341Y-88655010D01*
X75085343Y-88655009D01*
X75090842Y-88652231D01*
X75246074Y-88530950D01*
X75250100Y-88526286D01*
X75250103Y-88526283D01*
X75370764Y-88386496D01*
X75370765Y-88386494D01*
X75374793Y-88381828D01*
X75472096Y-88210544D01*
X75534277Y-88023622D01*
X75558966Y-87828183D01*
X75559360Y-87800000D01*
X75540137Y-87603948D01*
X75483200Y-87415363D01*
X75452728Y-87358053D01*
X75406422Y-87270964D01*
X109291148Y-87270964D01*
X109304424Y-87473522D01*
X109305845Y-87479118D01*
X109305846Y-87479123D01*
X109334042Y-87590142D01*
X109354392Y-87670269D01*
X109356809Y-87675512D01*
X109394010Y-87756208D01*
X109439377Y-87854616D01*
X109442710Y-87859332D01*
X109525212Y-87976070D01*
X109556533Y-88020389D01*
X109701938Y-88162035D01*
X109870720Y-88274812D01*
X109876023Y-88277090D01*
X109876026Y-88277092D01*
X110051921Y-88352662D01*
X110057228Y-88354942D01*
X110130244Y-88371464D01*
X110249579Y-88398467D01*
X110249584Y-88398468D01*
X110255216Y-88399742D01*
X110260987Y-88399969D01*
X110260989Y-88399969D01*
X110320756Y-88402317D01*
X110458053Y-88407712D01*
X110558499Y-88393148D01*
X110653231Y-88379413D01*
X110653236Y-88379412D01*
X110658945Y-88378584D01*
X110664409Y-88376729D01*
X110664414Y-88376728D01*
X110845693Y-88315192D01*
X110845698Y-88315190D01*
X110851165Y-88313334D01*
X111028276Y-88214147D01*
X111090934Y-88162035D01*
X111179913Y-88088031D01*
X111184345Y-88084345D01*
X111208172Y-88055696D01*
X111310453Y-87932718D01*
X111310455Y-87932715D01*
X111314147Y-87928276D01*
X111413334Y-87751165D01*
X111415190Y-87745698D01*
X111415192Y-87745693D01*
X111476728Y-87564414D01*
X111476729Y-87564409D01*
X111478584Y-87558945D01*
X111479412Y-87553236D01*
X111479413Y-87553231D01*
X111507179Y-87361727D01*
X111507712Y-87358053D01*
X111509232Y-87300000D01*
X111506564Y-87270964D01*
X111831148Y-87270964D01*
X111844424Y-87473522D01*
X111845845Y-87479118D01*
X111845846Y-87479123D01*
X111874042Y-87590142D01*
X111894392Y-87670269D01*
X111896809Y-87675512D01*
X111934010Y-87756208D01*
X111979377Y-87854616D01*
X111982710Y-87859332D01*
X112065212Y-87976070D01*
X112096533Y-88020389D01*
X112241938Y-88162035D01*
X112410720Y-88274812D01*
X112416023Y-88277090D01*
X112416026Y-88277092D01*
X112591921Y-88352662D01*
X112597228Y-88354942D01*
X112670244Y-88371464D01*
X112789579Y-88398467D01*
X112789584Y-88398468D01*
X112795216Y-88399742D01*
X112800987Y-88399969D01*
X112800989Y-88399969D01*
X112860756Y-88402317D01*
X112998053Y-88407712D01*
X113098499Y-88393148D01*
X113193231Y-88379413D01*
X113193236Y-88379412D01*
X113198945Y-88378584D01*
X113204409Y-88376729D01*
X113204414Y-88376728D01*
X113385693Y-88315192D01*
X113385698Y-88315190D01*
X113391165Y-88313334D01*
X113568276Y-88214147D01*
X113630934Y-88162035D01*
X113719913Y-88088031D01*
X113724345Y-88084345D01*
X113748172Y-88055696D01*
X113850453Y-87932718D01*
X113850455Y-87932715D01*
X113854147Y-87928276D01*
X113953334Y-87751165D01*
X113955190Y-87745698D01*
X113955192Y-87745693D01*
X114016728Y-87564414D01*
X114016729Y-87564409D01*
X114018584Y-87558945D01*
X114019412Y-87553236D01*
X114019413Y-87553231D01*
X114047179Y-87361727D01*
X114047712Y-87358053D01*
X114049232Y-87300000D01*
X114030658Y-87097859D01*
X114026988Y-87084845D01*
X113977125Y-86908046D01*
X113977124Y-86908044D01*
X113975557Y-86902487D01*
X113964978Y-86881033D01*
X113888331Y-86725609D01*
X113885776Y-86720428D01*
X113764320Y-86557779D01*
X113615258Y-86419987D01*
X113610375Y-86416906D01*
X113610371Y-86416903D01*
X113448464Y-86314748D01*
X113443581Y-86311667D01*
X113255039Y-86236446D01*
X113249379Y-86235320D01*
X113249375Y-86235319D01*
X113061613Y-86197971D01*
X113061610Y-86197971D01*
X113055946Y-86196844D01*
X113050171Y-86196768D01*
X113050167Y-86196768D01*
X112948793Y-86195441D01*
X112852971Y-86194187D01*
X112847274Y-86195166D01*
X112847273Y-86195166D01*
X112658607Y-86227585D01*
X112652910Y-86228564D01*
X112462463Y-86298824D01*
X112288010Y-86402612D01*
X112283670Y-86406418D01*
X112283666Y-86406421D01*
X112263723Y-86423911D01*
X112135392Y-86536455D01*
X112009720Y-86695869D01*
X112007031Y-86700980D01*
X112007029Y-86700983D01*
X111994073Y-86725609D01*
X111915203Y-86875515D01*
X111855007Y-87069378D01*
X111831148Y-87270964D01*
X111506564Y-87270964D01*
X111490658Y-87097859D01*
X111486988Y-87084845D01*
X111437125Y-86908046D01*
X111437124Y-86908044D01*
X111435557Y-86902487D01*
X111424978Y-86881033D01*
X111348331Y-86725609D01*
X111345776Y-86720428D01*
X111224320Y-86557779D01*
X111075258Y-86419987D01*
X111070375Y-86416906D01*
X111070371Y-86416903D01*
X110908464Y-86314748D01*
X110903581Y-86311667D01*
X110715039Y-86236446D01*
X110709379Y-86235320D01*
X110709375Y-86235319D01*
X110521613Y-86197971D01*
X110521610Y-86197971D01*
X110515946Y-86196844D01*
X110510171Y-86196768D01*
X110510167Y-86196768D01*
X110408793Y-86195441D01*
X110312971Y-86194187D01*
X110307274Y-86195166D01*
X110307273Y-86195166D01*
X110118607Y-86227585D01*
X110112910Y-86228564D01*
X109922463Y-86298824D01*
X109748010Y-86402612D01*
X109743670Y-86406418D01*
X109743666Y-86406421D01*
X109723723Y-86423911D01*
X109595392Y-86536455D01*
X109469720Y-86695869D01*
X109467031Y-86700980D01*
X109467029Y-86700983D01*
X109454073Y-86725609D01*
X109375203Y-86875515D01*
X109315007Y-87069378D01*
X109291148Y-87270964D01*
X75406422Y-87270964D01*
X75393611Y-87246871D01*
X75393609Y-87246868D01*
X75390717Y-87241429D01*
X75266212Y-87088770D01*
X75200894Y-87034734D01*
X75119177Y-86967132D01*
X75119174Y-86967130D01*
X75114427Y-86963203D01*
X74941143Y-86869508D01*
X74752960Y-86811256D01*
X74746835Y-86810612D01*
X74746834Y-86810612D01*
X74563176Y-86791309D01*
X74563174Y-86791309D01*
X74557047Y-86790665D01*
X74475018Y-86798130D01*
X74367004Y-86807960D01*
X74367001Y-86807961D01*
X74360865Y-86808519D01*
X74354959Y-86810257D01*
X74354955Y-86810258D01*
X74214775Y-86851516D01*
X74171887Y-86864138D01*
X74166427Y-86866992D01*
X74166428Y-86866992D01*
X74002772Y-86952549D01*
X74002768Y-86952552D01*
X73997312Y-86955404D01*
X73843788Y-87078840D01*
X73717163Y-87229745D01*
X73622262Y-87402371D01*
X73620398Y-87408246D01*
X73620397Y-87408249D01*
X73585719Y-87517569D01*
X73562697Y-87590142D01*
X73540738Y-87785907D01*
X73057978Y-87785907D01*
X73040137Y-87603948D01*
X72983200Y-87415363D01*
X72952728Y-87358053D01*
X72893611Y-87246871D01*
X72893609Y-87246868D01*
X72890717Y-87241429D01*
X72766212Y-87088770D01*
X72700894Y-87034734D01*
X72619177Y-86967132D01*
X72619174Y-86967130D01*
X72614427Y-86963203D01*
X72441143Y-86869508D01*
X72252960Y-86811256D01*
X72246835Y-86810612D01*
X72246834Y-86810612D01*
X72063176Y-86791309D01*
X72063174Y-86791309D01*
X72057047Y-86790665D01*
X71975018Y-86798130D01*
X71867004Y-86807960D01*
X71867001Y-86807961D01*
X71860865Y-86808519D01*
X71854959Y-86810257D01*
X71854955Y-86810258D01*
X71714775Y-86851516D01*
X71671887Y-86864138D01*
X71666427Y-86866992D01*
X71666428Y-86866992D01*
X71502772Y-86952549D01*
X71502768Y-86952552D01*
X71497312Y-86955404D01*
X71343788Y-87078840D01*
X71217163Y-87229745D01*
X71122262Y-87402371D01*
X71120398Y-87408246D01*
X71120397Y-87408249D01*
X71085719Y-87517569D01*
X71062697Y-87590142D01*
X71040738Y-87785907D01*
X70557978Y-87785907D01*
X70540137Y-87603948D01*
X70483200Y-87415363D01*
X70452728Y-87358053D01*
X70393611Y-87246871D01*
X70393609Y-87246868D01*
X70390717Y-87241429D01*
X70266212Y-87088770D01*
X70200894Y-87034734D01*
X70119177Y-86967132D01*
X70119174Y-86967130D01*
X70114427Y-86963203D01*
X69941143Y-86869508D01*
X69752960Y-86811256D01*
X69746835Y-86810612D01*
X69746834Y-86810612D01*
X69563176Y-86791309D01*
X69563174Y-86791309D01*
X69557047Y-86790665D01*
X69475018Y-86798130D01*
X69367004Y-86807960D01*
X69367001Y-86807961D01*
X69360865Y-86808519D01*
X69354959Y-86810257D01*
X69354955Y-86810258D01*
X69214775Y-86851516D01*
X69171887Y-86864138D01*
X69166427Y-86866992D01*
X69166428Y-86866992D01*
X69002772Y-86952549D01*
X69002768Y-86952552D01*
X68997312Y-86955404D01*
X68843788Y-87078840D01*
X68717163Y-87229745D01*
X68622262Y-87402371D01*
X68620398Y-87408246D01*
X68620397Y-87408249D01*
X68585719Y-87517569D01*
X68562697Y-87590142D01*
X68540738Y-87785907D01*
X33254000Y-87785907D01*
X33254000Y-85157400D01*
X33274002Y-85089279D01*
X33290905Y-85068305D01*
X37068306Y-81290905D01*
X37130618Y-81256879D01*
X37157401Y-81254000D01*
X110842600Y-81254000D01*
X110910721Y-81274002D01*
G37*
G04 #@! TD.AperFunction*
M02*
