G04 #@! TF.GenerationSoftware,KiCad,Pcbnew,6.0.2-378541a8eb~116~ubuntu20.04.1*
G04 #@! TF.CreationDate,2023-01-27T16:36:07+01:00*
G04 #@! TF.ProjectId,BUCKY_POWER,4255434b-595f-4504-9f57-45522e6b6963,rev?*
G04 #@! TF.SameCoordinates,Original*
G04 #@! TF.FileFunction,Paste,Top*
G04 #@! TF.FilePolarity,Positive*
%FSLAX46Y46*%
G04 Gerber Fmt 4.6, Leading zero omitted, Abs format (unit mm)*
G04 Created by KiCad (PCBNEW 6.0.2-378541a8eb~116~ubuntu20.04.1) date 2023-01-27 16:36:07*
%MOMM*%
%LPD*%
G01*
G04 APERTURE LIST*
G04 Aperture macros list*
%AMRoundRect*
0 Rectangle with rounded corners*
0 $1 Rounding radius*
0 $2 $3 $4 $5 $6 $7 $8 $9 X,Y pos of 4 corners*
0 Add a 4 corners polygon primitive as box body*
4,1,4,$2,$3,$4,$5,$6,$7,$8,$9,$2,$3,0*
0 Add four circle primitives for the rounded corners*
1,1,$1+$1,$2,$3*
1,1,$1+$1,$4,$5*
1,1,$1+$1,$6,$7*
1,1,$1+$1,$8,$9*
0 Add four rect primitives between the rounded corners*
20,1,$1+$1,$2,$3,$4,$5,0*
20,1,$1+$1,$4,$5,$6,$7,0*
20,1,$1+$1,$6,$7,$8,$9,0*
20,1,$1+$1,$8,$9,$2,$3,0*%
G04 Aperture macros list end*
%ADD10RoundRect,0.150000X-0.150000X0.587500X-0.150000X-0.587500X0.150000X-0.587500X0.150000X0.587500X0*%
%ADD11RoundRect,0.250000X-0.450000X0.350000X-0.450000X-0.350000X0.450000X-0.350000X0.450000X0.350000X0*%
%ADD12RoundRect,0.250000X0.350000X0.450000X-0.350000X0.450000X-0.350000X-0.450000X0.350000X-0.450000X0*%
%ADD13R,1.000000X3.000000*%
%ADD14R,2.750000X3.050000*%
%ADD15R,1.200000X2.200000*%
%ADD16RoundRect,0.243750X0.243750X0.456250X-0.243750X0.456250X-0.243750X-0.456250X0.243750X-0.456250X0*%
%ADD17RoundRect,0.243750X-0.243750X-0.456250X0.243750X-0.456250X0.243750X0.456250X-0.243750X0.456250X0*%
%ADD18RoundRect,0.250000X-0.350000X-0.450000X0.350000X-0.450000X0.350000X0.450000X-0.350000X0.450000X0*%
%ADD19RoundRect,0.243750X-0.456250X0.243750X-0.456250X-0.243750X0.456250X-0.243750X0.456250X0.243750X0*%
%ADD20R,0.900000X1.200000*%
%ADD21RoundRect,0.250000X0.450000X-0.350000X0.450000X0.350000X-0.450000X0.350000X-0.450000X-0.350000X0*%
%ADD22RoundRect,0.250000X-0.650000X0.412500X-0.650000X-0.412500X0.650000X-0.412500X0.650000X0.412500X0*%
%ADD23RoundRect,0.150000X0.150000X-0.825000X0.150000X0.825000X-0.150000X0.825000X-0.150000X-0.825000X0*%
%ADD24R,0.640000X0.640000*%
%ADD25R,0.280000X0.850000*%
%ADD26R,0.700000X0.280000*%
%ADD27R,2.650000X1.850000*%
%ADD28R,1.310000X0.450000*%
%ADD29RoundRect,0.250000X-0.475000X0.337500X-0.475000X-0.337500X0.475000X-0.337500X0.475000X0.337500X0*%
%ADD30RoundRect,0.250000X0.550000X-1.500000X0.550000X1.500000X-0.550000X1.500000X-0.550000X-1.500000X0*%
%ADD31RoundRect,0.243750X0.456250X-0.243750X0.456250X0.243750X-0.456250X0.243750X-0.456250X-0.243750X0*%
G04 APERTURE END LIST*
D10*
X64750000Y-107062500D03*
X62850000Y-107062500D03*
X63800000Y-108937500D03*
D11*
X85900000Y-100900000D03*
X85900000Y-102900000D03*
X80100000Y-115400000D03*
X80100000Y-117400000D03*
D12*
X73150000Y-91950000D03*
X71150000Y-91950000D03*
D13*
X95950000Y-111137500D03*
X95950000Y-106097500D03*
X93410000Y-111137500D03*
X93410000Y-106097500D03*
X90870000Y-111137500D03*
X90870000Y-106097500D03*
X88330000Y-111137500D03*
X88330000Y-106097500D03*
X85790000Y-111137500D03*
X85790000Y-106097500D03*
X83250000Y-111137500D03*
X83250000Y-106097500D03*
D14*
X87675000Y-91325000D03*
X90725000Y-91325000D03*
X90725000Y-87975000D03*
X87675000Y-87975000D03*
D15*
X91480000Y-83350000D03*
X86920000Y-83350000D03*
D16*
X53637500Y-102750000D03*
X51762500Y-102750000D03*
D17*
X82912500Y-91000000D03*
X84787500Y-91000000D03*
D18*
X81800000Y-93350000D03*
X83800000Y-93350000D03*
D19*
X101800000Y-100112500D03*
X101800000Y-101987500D03*
D20*
X59950000Y-94550000D03*
X56650000Y-94550000D03*
D21*
X73000000Y-103000000D03*
X73000000Y-101000000D03*
D22*
X94900000Y-99837500D03*
X94900000Y-102962500D03*
D12*
X57750000Y-102750000D03*
X55750000Y-102750000D03*
D23*
X61845000Y-99575000D03*
X63115000Y-99575000D03*
X64385000Y-99575000D03*
X65655000Y-99575000D03*
X65655000Y-94625000D03*
X64385000Y-94625000D03*
X63115000Y-94625000D03*
X61845000Y-94625000D03*
D18*
X51800000Y-98500000D03*
X53800000Y-98500000D03*
D11*
X72950000Y-94450000D03*
X72950000Y-96450000D03*
D21*
X84600000Y-89100000D03*
X84600000Y-87100000D03*
D11*
X70450000Y-94450000D03*
X70450000Y-96450000D03*
D24*
X89250000Y-101983022D03*
X90110000Y-101983022D03*
X88390000Y-101023022D03*
X90110000Y-101023022D03*
X88390000Y-101983022D03*
X89250000Y-101023022D03*
D25*
X90250000Y-100028022D03*
X89750000Y-100028022D03*
X89250000Y-100028022D03*
X88750000Y-100028022D03*
X88250000Y-100028022D03*
X88250000Y-102978022D03*
X88750000Y-102978022D03*
X89250000Y-102978022D03*
X89750000Y-102978022D03*
X90250000Y-102978022D03*
D26*
X90800000Y-101253022D03*
X87700000Y-101753022D03*
X87700000Y-101253022D03*
X90800000Y-101753022D03*
D27*
X89300000Y-95025000D03*
X89300000Y-97175000D03*
D28*
X86450000Y-94150000D03*
X86450000Y-94800000D03*
X86450000Y-95450000D03*
X86455000Y-96100000D03*
X86450000Y-96750000D03*
X86450000Y-97400000D03*
X86450000Y-98050000D03*
X92150000Y-98050000D03*
X92150000Y-97400000D03*
X92150000Y-96750000D03*
X92150000Y-96100000D03*
X92150000Y-95450000D03*
X92150000Y-94800000D03*
X92150000Y-94150000D03*
D23*
X75195000Y-99425000D03*
X76465000Y-99425000D03*
X77735000Y-99425000D03*
X79005000Y-99425000D03*
X79005000Y-94475000D03*
X77735000Y-94475000D03*
X76465000Y-94475000D03*
X75195000Y-94475000D03*
D29*
X97300000Y-100062500D03*
X97300000Y-102137500D03*
D30*
X97750000Y-94950000D03*
X97750000Y-89550000D03*
D18*
X55750000Y-98500000D03*
X57750000Y-98500000D03*
D29*
X79500000Y-102262500D03*
X79500000Y-104337500D03*
D21*
X104350000Y-106850000D03*
X104350000Y-104850000D03*
D29*
X106000000Y-99962500D03*
X106000000Y-102037500D03*
D31*
X104350000Y-110387500D03*
X104350000Y-108512500D03*
D14*
X53925000Y-87100000D03*
X56975000Y-83750000D03*
X56975000Y-87100000D03*
X53925000Y-83750000D03*
D15*
X53170000Y-91725000D03*
X57730000Y-91725000D03*
D11*
X68000000Y-101000000D03*
X68000000Y-103000000D03*
D12*
X83800000Y-98100000D03*
X81800000Y-98100000D03*
X83800000Y-95700000D03*
X81800000Y-95700000D03*
D11*
X92600000Y-100500000D03*
X92600000Y-102500000D03*
D18*
X81800000Y-100500000D03*
X83800000Y-100500000D03*
D21*
X68000000Y-96450000D03*
X68000000Y-94450000D03*
D18*
X52750000Y-94500000D03*
X54750000Y-94500000D03*
D30*
X105350000Y-94950000D03*
X105350000Y-89550000D03*
D21*
X103900000Y-102000000D03*
X103900000Y-100000000D03*
D18*
X81800000Y-102800000D03*
X83800000Y-102800000D03*
M02*
