0
SECTION
2
HEADER
9
$INSUNITS
70
4
9
$ACADVER
1
AC1014
9
$HANDSEED
5
FFFF
0
ENDSEC
0
SECTION
2
TABLES
0
TABLE
2
VPORT
5
8
100
AcDbSymbolTable
0
ENDTAB
0
TABLE
2
LTYPE
5
5
100
AcDbSymbolTable
0
LTYPE
5
14
100
AcDbSymbolTableRecord
100
AcDbLinetypeTableRecord
2
BYBLOCK
70
0
0
LTYPE
5
15
100
AcDbSymbolTableRecord
100
AcDbLinetypeTableRecord
2
BYLAYER
70
0
0
ENDTAB
0
TABLE
2
LAYER
5
2
100
AcDbSymbolTable
70
2
0
LAYER
5
50
100
AcDbSymbolTableRecord
100
AcDbLayerTableRecord
2
0
70
0
6
CONTINUOUS
0
ENDTAB
0
TABLE
2
STYLE
5
3
100
AcDbSymbolTable
70
1
0
STYLE
5
11
100
AcDbSymbolTableRecord
100
AcDbTextStyleTableRecord
2
STANDARD
70
0
0
ENDTAB
0
TABLE
2
VIEW
5
6
100
AcDbSymbolTable
70
0
0
ENDTAB
0
TABLE
2
UCS
5
7
100
AcDbSymbolTable
70
0
0
ENDTAB
0
TABLE
2
APPID
5
9
100
AcDbSymbolTable
70
2
0
APPID
5
12
100
AcDbSymbolTableRecord
100
AcDbRegAppTableRecord
2
ACAD
70
0
0
ENDTAB
0
TABLE
2
DIMSTYLE
5
A
100
AcDbSymbolTable
70
1
0
ENDTAB
0
TABLE
2
BLOCK_RECORD
5
1
100
AcDbSymbolTable
70
1
0
BLOCK_RECORD
5
1F
100
AcDbSymbolTableRecord
100
AcDbBlockTableRecord
2
*MODEL_SPACE
0
BLOCK_RECORD
5
1B
100
AcDbSymbolTableRecord
100
AcDbBlockTableRecord
2
*PAPER_SPACE
0
ENDTAB
0
ENDSEC
0
SECTION
2
BLOCKS
0
BLOCK
5
20
100
AcDbEntity
100
AcDbBlockBegin
2
*MODEL_SPACE
0
ENDBLK
5
21
100
AcDbEntity
100
AcDbBlockEnd
0
BLOCK
5
1C
100
AcDbEntity
100
AcDbBlockBegin
2
*PAPER_SPACE
0
ENDBLK
5
1D
100
AcDbEntity
100
AcDbBlockEnd
0
ENDSEC
0
SECTION
2
ENTITIES
0
LWPOLYLINE
5
100
100
AcDbEntity
8
0
100
AcDbPolyline
90
6
70
1
43
0.0
10
8.6902155883030119
20
46.952172023607588
42
0.48062484748656897
10
8.6902155883030119
20
43.047827976392426
10
20.938262381113933
20
33.249390542143686
42
0.62887965634452636
10
25.000000000000004
20
35.20156256575126
10
24.999999999999993
20
54.79843743424874
42
0.62887965634452825
10
20.938262381113944
20
56.750609457856321
0
LWPOLYLINE
5
101
100
AcDbEntity
8
0
100
AcDbPolyline
90
6
70
1
43
0.0
10
-25.000000064591099
20
35.201562483034301
42
0.62887965201235763
10
-20.938262445705035
20
33.249390490470809
10
-8.6902155034582655
20
43.047828044268222
42
0.48062483704727327
10
-8.6902154372379687
20
46.952172038507143
10
-20.93826262283158
20
56.750610468353166
42
0.62887967251091659
10
-25.000000307937938
20
54.798438466677737
0
LWPOLYLINE
5
102
100
AcDbEntity
8
0
100
AcDbPolyline
90
6
70
1
43
0.0
10
14.434785268513755
20
60.547827976392426
42
0.70895822537387077
10
12.873047649627686
20
65
10
-12.873047985713749
20
65
42
0.70895822964041477
10
-14.434785582427828
20
60.547827958654857
10
-1.5617376148951041
20
50.249389824407878
42
0.35078105616943361
10
1.5617376007050421
20
50.249389842145447
0
LWPOLYLINE
5
103
100
AcDbEntity
8
0
100
AcDbPolyline
90
6
70
1
43
0.0
10
-14.434785185545104
20
29.452172089982493
42
0.70895822887243642
10
-12.873047543375984
20
25.000000066374923
10
12.873047626304125
20
25.00000030615411
42
0.70895822614184723
10
14.434785199735156
20
29.452172347499275
10
1.5617376148951054
20
39.750610175592122
42
0.35078105616943378
10
-1.5617376007050421
20
39.750610157854545
0
LWPOLYLINE
5
104
100
AcDbEntity
8
0
100
AcDbPolyline
90
6
70
1
43
0.0
10
45.218564537269117
20
-42.774804728902481
42
0.70895822537387332
10
49.855127421174686
20
-43.648386288705126
10
62.728175238845395
20
-21.351613420235786
42
0.70895822964041499
10
59.653349947378722
20
-17.773022966763559
10
44.29811692005206
20
-23.772190463659054
42
0.35078105616943356
10
42.736379327613179
20
-26.477199357328637
0
LWPOLYLINE
5
105
100
AcDbEntity
8
0
100
AcDbPolyline
90
6
70
1
43
0.0
10
32.723721819328418
20
-2.2251953761379046
42
0.70895822887243676
10
28.087158923781324
20
-1.3516138364989905
10
15.214111546596156
20
-23.648386421583393
42
0.70895822614184789
10
18.288936849704367
20
-27.226976854891909
10
33.644169420547442
20
-21.227809536340935
42
0.35078105616943395
10
35.205907012986316
20
-18.522800642671339
0
LWPOLYLINE
5
106
100
AcDbEntity
8
0
100
AcDbPolyline
90
6
70
1
43
0.0
10
41.625620415809607
20
-13.997966631777864
42
0.48062483704727438
10
45.006881466823572
20
-15.950138686245786
10
59.61660165728474
20
-10.242237891694225
42
0.62887967251091625
10
59.956839953830269
20
-5.7485838720458071
10
42.98544739550848
20
4.0498539090313628
42
0.62887965201235796
10
39.263948047948972
20
1.5083719438508547
0
LWPOLYLINE
5
107
100
AcDbEntity
8
0
100
AcDbPolyline
90
6
70
1
43
0.0
10
36.316665941149694
20
-31.00203347563772
10
38.678338280196051
20
-46.508371862076878
42
-0.62887965634452747
10
34.956838905751582
20
-49.049853811735325
10
17.98544743484792
20
-39.251416377486592
42
-0.62887965634452614
10
18.325685679289524
20
-34.757762404220557
10
32.93540481114681
20
-29.049861452030143
42
-0.48062484748656836
0
LWPOLYLINE
5
108
100
AcDbEntity
8
0
100
AcDbPolyline
90
6
70
1
43
0.0
10
-59.653349805782838
20
-17.773023247489945
42
0.70895822537387232
10
-62.728175070802337
20
-21.351613711294881
10
-49.855127253131606
20
-43.648386579764214
42
0.70895822964041433
10
-45.218564364950858
20
-42.774804991891301
10
-42.73637930515693
20
-26.477199360748834
42
0.35078105616943445
10
-44.298116928318194
20
-23.772190484816814
0
LWPOLYLINE
5
109
100
AcDbEntity
8
0
100
AcDbPolyline
90
6
70
1
43
0.0
10
-18.288936633783297
20
-27.226976713844579
42
0.7089582288724352
10
-15.214111380405331
20
-23.648386229875928
10
-28.087159172900257
20
-1.351613884570726
42
0.70895822614184756
10
-32.723722049439516
20
-2.2251954926073703
10
-35.205907035442529
20
-18.522800639251191
42
0.35078105616943367
10
-33.644169412281258
20
-21.227809515183207
0
LWPOLYLINE
5
110
100
AcDbEntity
8
0
100
AcDbPolyline
90
6
70
1
43
0.0
10
-32.935404912351316
20
-29.049861412490351
42
0.48062483704727393
10
-36.316666029585583
20
-31.00203335226135
10
-38.678339034453138
20
-46.508372576658928
42
0.62887967251091659
10
-34.956839645892316
20
-49.049854594631917
10
-17.985447330917367
20
-39.251416392065643
42
0.62887965201235729
10
-18.325685602243929
20
-34.757762434321656
0
LWPOLYLINE
5
111
100
AcDbEntity
8
0
100
AcDbPolyline
90
6
70
1
43
0.0
10
-45.006881529452684
20
-15.950138547969869
10
-59.616600661309967
20
-10.242237595779454
42
-0.62887965634452747
10
-59.956838905751553
20
-5.7485836225134346
10
-42.985447434847913
20
4.0498538117353258
42
-0.62887965634452625
10
-39.263948060403443
20
1.5083718620768627
10
-41.625620399449801
20
-13.997966524362289
42
-0.48062484748656875
0
LWPOLYLINE
5
112
100
AcDbEntity
8
0
100
AcDbPolyline
90
4
70
1
43
0.0
10
7.5
20
77.50000111758709
10
7.5
20
72.50000111758709
10
-7.5
20
72.50000111758709
10
-7.5
20
77.50000111758709
0
LWPOLYLINE
5
113
100
AcDbEntity
8
0
100
AcDbPolyline
90
4
70
1
43
0.0
10
66.536842742230618
20
-29.754810030410237
10
70.866969761152816
20
-32.254810030410241
10
63.366969761152816
20
-45.245191087176821
10
59.036842742230618
20
-42.745191087176821
0
LWPOLYLINE
5
114
100
AcDbEntity
8
0
100
AcDbPolyline
90
4
70
1
43
0.0
10
-59.036842742230597
20
-42.745191087176849
10
-63.366969761152781
20
-45.245191087176849
10
-70.866969761152788
20
-32.254810030410269
10
-66.53684274223059
20
-29.754810030410273
0
LWPOLYLINE
5
115
100
AcDbEntity
8
0
100
AcDbPolyline
90
6
70
1
43
0.0
10
-23.535898831897089
20
-51.267950011994998
42
0.76732698797896359
10
-22.535898831897093
20
-55.000000819563866
10
22.535898831897082
20
-55.000000819563866
42
0.76732698797895926
10
23.535898831897079
20
-51.267950011994984
10
3.749999999999992
20
-39.844555995240505
42
0.26794919243112403
10
-3.7499999999999889
20
-39.844555995240505
0
SPLINE
5
116
100
AcDbEntity
8
0
100
AcDbSpline
70
0
71
3
72
16
73
12
74
0
42
0.000000001
43
0.0000000001
44
0.0000000001
40
0
40
0
40
0
40
0
40
0.19532223669346363
40
0.19532223669346363
40
0.39064447338692809
40
0.39064447338692809
40
0.58596671008039103
40
0.58596671008039103
40
0.70100417073491672
40
0.70100417073491672
40
0.81604163138944119
40
0.81604163138944119
40
0.81604163138944119
40
0.81604163138944119
10
44.873652504651233
20
83.725627382002855
30
0
10
44.300244530010076
20
84.034011569927074
30
0
10
43.672084358791736
20
84.227448108787598
30
0
10
42.37697412810914
20
84.362649962903177
30
0
10
41.722406028339833
20
84.303122674742184
30
0
10
40.472931211077807
20
83.936512893090054
30
0
10
39.889970153854499
20
83.632935388929297
30
0
10
39.082186815281375
20
82.986604816895792
30
0
10
38.811325733897121
20
82.713386570274977
30
0
10
38.33739645585549
20
82.110433992789154
30
0
10
38.135897507880301
20
81.782696125492606
30
0
10
37.973841069024033
20
81.435164970852227
30
0
0
SPLINE
5
117
100
AcDbEntity
8
0
100
AcDbSpline
70
4
71
5
72
16
73
10
74
0
42
0.000000001
43
0.0000000001
44
0.0000000001
40
-0.88628968332917635
40
-0.88628968332917635
40
-0.88628968332917635
40
-0.88628968332917635
40
-0.88628968332917635
40
-0.88628968332917635
40
-0.80000000000000004
40
-0.60000000000000009
40
-0.40000000000000002
40
-0.20000000000000001
40
-0.16700705610674263
40
-0.16700705610674263
40
-0.16700705610674263
40
-0.16700705610674263
40
-0.16700705610674263
40
-0.16700705610674263
41
1
41
1
41
1
41
1
41
1
41
1
41
1
41
1
41
1
41
1
10
66.395974301288049
20
67.967165925446849
30
0
10
65.84918332262896
20
68.506112428776788
30
0
10
64.042996400279307
20
70.250501484890833
30
0
10
61.018689379265147
20
72.973541580896352
30
0
10
56.84440735759091
20
76.305100938217564
30
0
10
52.576299177166916
20
79.235115422136758
30
0
10
48.887550127744518
20
81.492330747179679
30
0
10
46.394685232864589
20
82.902947089186867
30
0
10
45.062165331165914
20
83.624243415457201
30
0
10
44.873652504650885
20
83.72562738200304
30
0
0
SPLINE
5
118
100
AcDbEntity
8
0
100
AcDbSpline
70
0
71
3
72
16
73
12
74
0
42
0.000000001
43
0.0000000001
44
0.0000000001
40
0
40
0
40
0
40
0
40
0.19532223669346366
40
0.19532223669346366
40
0.39064447338692776
40
0.39064447338692776
40
0.58596671008039136
40
0.58596671008039136
40
0.69943779089136915
40
0.69943779089136915
40
0.81290887170234694
40
0.81290887170234694
40
0.81290887170234694
40
0.81290887170234694
10
66.264027346367826
20
60.719793973419875
30
0
10
66.744049541331677
20
61.159653274885521
30
0
10
67.133568159886664
20
61.689066290470151
30
0
10
67.68774857410142
20
62.867401607549198
30
0
10
67.847112102949609
20
63.50505838116996
30
0
10
67.912445613776072
20
64.805566583119528
30
0
10
67.817790971781292
20
65.455984444205953
30
0
10
67.475282501214352
20
66.426638451784171
30
0
10
67.309354560970263
20
66.767890351557398
30
0
10
66.903736724517643
20
67.406425307437573
30
0
10
66.665353532694255
20
67.701651312912304
30
0
10
66.395974301288078
20
67.967165925446864
30
0
0
LINE
5
119
100
AcDbEntity
8
0
100
AcDbLine
10
66.264027346367826
20
60.719793973419875
30
0
11
62.566695642342438
21
57.331813672338441
31
0
0
SPLINE
5
120
100
AcDbEntity
8
0
100
AcDbSpline
70
0
71
3
72
14
73
10
74
0
42
0.000000001
43
0.0000000001
44
0.0000000001
40
0
40
0
40
0
40
0
40
0.19532223669346402
40
0.19532223669346402
40
0.39064447338692776
40
0.39064447338692776
40
0.57505522993338209
40
0.57505522993338209
40
0.75946598647983699
40
0.75946598647983699
40
0.75946598647983699
40
0.75946598647983699
10
55.698575127126624
20
57.437876764748538
30
0
10
56.164786335130358
20
56.983404958939367
30
0
10
56.715308759505596
20
56.624339567218854
30
0
10
57.923001528025424
20
56.137443040388028
30
0
10
58.568625671059536
20
56.014266901453318
30
0
10
59.834378076552511
20
56.022100216300316
30
0
10
60.443130155326664
20
56.139227505509524
30
0
10
61.587561083015956
20
56.588354005599591
30
0
10
62.113489404123428
20
56.91652666799915
30
0
10
62.566695642342466
20
57.331813672338413
30
0
0
SPLINE
5
121
100
AcDbEntity
8
0
100
AcDbSpline
70
4
71
5
72
16
73
10
74
0
42
0.000000001
43
0.0000000001
44
0.0000000001
40
0.15226593808358616
40
0.15226593808358616
40
0.15226593808358616
40
0.15226593808358616
40
0.15226593808358616
40
0.15226593808358616
40
0.20000000000000001
40
0.40000000000000002
40
0.60000000000000009
40
0.80000000000000004
40
0.86378997649932521
40
0.86378997649932521
40
0.86378997649932521
40
0.86378997649932521
40
0.86378997649932521
40
0.86378997649932521
41
1
41
1
41
1
41
1
41
1
41
1
41
1
41
1
41
1
41
1
10
38.020072382248571
20
70.390999454860832
30
0
10
38.276733174092158
20
70.252615158058362
30
0
10
39.603128109852854
20
69.529628825512788
30
0
10
41.948585041465066
20
68.177921714297156
30
0
10
45.223898161618479
20
66.102071803234054
30
0
10
48.697985457313628
20
63.605173116662399
30
0
10
51.893207190153127
20
60.981677218739179
30
0
10
54.122498436272579
20
58.957542105568088
30
0
10
55.391590038798306
20
57.737131834240564
30
0
10
55.698575127141851
20
57.437876764733673
30
0
0
SPLINE
5
122
100
AcDbEntity
8
0
100
AcDbSpline
70
0
71
3
72
14
73
10
74
0
42
0.000000001
43
0.0000000001
44
0.0000000001
40
0
40
0
40
0
40
0
40
0.19532223669346169
40
0.19532223669346169
40
0.39064447338692404
40
0.39064447338692404
40
0.57460742297692313
40
0.57460742297692313
40
0.75857037256692239
40
0.75857037256692239
40
0.75857037256692239
40
0.75857037256692239
10
35.86145596382238
20
76.905140493965888
30
0
10
35.586300149986727
20
76.315066946976884
30
0
10
35.429029460714382
20
75.67689077571444
30
0
10
35.367962922319563
20
74.376175230768723
30
0
10
35.464750902587966
20
73.726071406639861
30
0
10
35.889356941404472
20
72.53522144596225
30
0
10
36.199811156631256
20
72.000412317632993
30
0
10
36.998678805417605
20
71.06986641774148
30
0
10
37.480318989117308
20
70.682019338414989
30
0
10
38.020072382248607
20
70.390999454860889
30
0
0
LINE
5
123
100
AcDbEntity
8
0
100
AcDbLine
10
35.86145596382238
20
76.905140493965888
30
0
11
37.973841069024033
21
81.435164970852227
31
0
0
CIRCLE
5
124
100
AcDbEntity
8
0
100
AcDbCircle
10
96.999998134996247
20
7.0000027000799214
30
0
40
2.1000000000000085
210
0
220
-0
230
1
0
CIRCLE
5
125
100
AcDbEntity
8
0
100
AcDbCircle
10
-97.000000000000014
20
7.0000000000000009
30
0
40
2.1000000000000085
210
0
220
-0
230
1
0
SPLINE
5
126
100
AcDbEntity
8
0
100
AcDbSpline
70
0
71
3
72
16
73
12
74
0
42
0.000000001
43
0.0000000001
44
0.0000000001
40
0
40
0
40
0
40
0
40
0.19532223669346377
40
0.19532223669346377
40
0.39064447338692809
40
0.39064447338692809
40
0.58596671008039225
40
0.58596671008039225
40
0.70118581780975586
40
0.70118581780975586
40
0.81640492553912081
40
0.81640492553912081
40
0.81640492553912081
40
0.81640492553912081
10
78.5009738149962
20
53.569306680968552
30
0
10
78.135140640404771
20
54.107882210594731
30
0
10
77.667609253281995
20
54.569853310693475
30
0
10
76.581781933682706
20
55.288580715894383
30
0
10
75.973867102203187
20
55.538465595266118
30
0
10
74.696470501859324
20
55.791147166428217
30
0
10
74.039201340729207
20
55.791528084676173
30
0
10
73.023507608946844
20
55.59183697639034
30
0
10
72.656446605700694
20
55.474572105162842
30
0
10
71.956435719362943
20
55.158337321522211
30
0
10
71.625811005720863
20
54.960417820570029
30
0
10
71.321112792445973
20
54.726614658335244
30
0
0
SPLINE
5
127
100
AcDbEntity
8
0
100
AcDbSpline
70
4
71
5
72
16
73
10
74
0
42
0.000000001
43
0.0000000001
44
0.0000000001
40
-0.87518587341691123
40
-0.87518587341691123
40
-0.87518587341691123
40
-0.87518587341691123
40
-0.87518587341691123
40
-0.87518587341691123
40
-0.80000000000000004
40
-0.60000000000000009
40
-0.40000000000000002
40
-0.20000000000000001
40
-0.15652438418565986
40
-0.15652438418565986
40
-0.15652438418565986
40
-0.15652438418565986
40
-0.15652438418565986
40
-0.15652438418565986
41
1
41
1
41
1
41
1
41
1
41
1
41
1
41
1
41
1
41
1
10
90.151017936655904
20
29.679083077398509
30
0
10
89.94894610983421
20
30.271255189211217
30
0
10
89.200833940875697
20
32.415936092599054
30
0
10
87.85593650586101
20
35.978906813605917
30
0
10
85.822279338837944
20
40.73013705983599
30
0
10
83.487177311320849
20
45.41538927209988
30
0
10
81.237584552257601
20
49.351206602141232
30
0
10
79.597564798308468
20
51.940277623829381
30
0
10
78.667918401446983
20
53.323532718105902
30
0
10
78.500973814996186
20
53.569306680968573
30
0
0
SPLINE
5
128
100
AcDbEntity
8
0
100
AcDbSpline
70
0
71
3
72
16
73
12
74
0
42
0.000000001
43
0.0000000001
44
0.0000000001
40
0
40
0
40
0
40
0
40
0.19532223669346307
40
0.19532223669346307
40
0.39064447338692437
40
0.39064447338692437
40
0.58596671008038692
40
0.58596671008038692
40
0.70349888375079883
40
0.70349888375079883
40
0.82103105742121008
40
0.82103105742121008
40
0.82103105742121008
40
0.82103105742121008
10
86.71303826802658
20
23.234688577166761
30
0
10
87.341927577595797
20
23.403198959794395
30
0
10
87.931890537753446
20
23.692934357896522
30
0
10
88.967549267284227
20
24.482238511516442
30
0
10
89.403343574725426
20
24.974261089121637
30
0
10
90.061802965349045
20
26.097658294866136
30
0
10
90.278172817869006
20
26.718292633419743
30
0
10
90.424461172234714
20
27.750829189931881
30
0
10
90.433637625746201
20
28.14384779857097
30
0
10
90.360051128899045
20
28.923932550833516
30
0
10
90.277542525829958
20
29.308302378545367
30
0
10
90.151017936655848
20
29.679083077398488
30
0
0
LINE
5
129
100
AcDbEntity
8
0
100
AcDbLine
10
86.71303826802658
20
23.234688577166761
30
0
11
81.969321824872594
21
21.963613587101413
31
0
0
SPLINE
5
130
100
AcDbEntity
8
0
100
AcDbSpline
70
0
71
3
72
14
73
10
74
0
42
0.000000001
43
0.0000000001
44
0.0000000001
40
0
40
0
40
0
40
0
40
0.19532223669346396
40
0.19532223669346396
40
0.39064447338692787
40
0.39064447338692787
40
0.57490003938074952
40
0.57490003938074952
40
0.75915560537457316
40
0.75915560537457316
40
0.75915560537457316
40
0.75915560537457316
10
75.927162816385817
20
25.226114672467208
30
0
10
76.131226119816034
20
24.607846380431376
30
0
10
76.454100012519433
20
24.035347171102714
30
0
10
77.301121769953454
20
23.046335445485475
30
0
10
77.81717164502048
20
22.639278420346848
30
0
10
78.94341959189407
20
22.062696452698226
30
0
10
79.537046013391844
20
21.885924872903708
30
0
10
80.758563324672224
20
21.756350971183526
30
0
10
81.376064458769463
20
21.80465075495022
30
0
10
81.969321824872608
20
21.963613587101378
30
0
0
SPLINE
5
131
100
AcDbEntity
8
0
100
AcDbSpline
70
4
71
5
72
16
73
10
74
0
42
0.000000001
43
0.0000000001
44
0.0000000001
40
0.1847419825998764
40
0.1847419825998764
40
0.1847419825998764
40
0.1847419825998764
40
0.1847419825998764
40
0.1847419825998764
40
0.20000000000000001
40
0.40000000000000002
40
0.60000000000000009
40
0.80000000000000004
40
0.87926286119909147
40
0.87926286119909147
40
0.87926286119909147
40
0.87926286119909147
40
0.87926286119909147
40
0.87926286119909147
41
1
41
1
41
1
41
1
41
1
41
1
41
1
41
1
41
1
41
1
10
66.190651248567335
20
44.893011318497116
30
0
10
66.235988058575984
20
44.825316076080469
30
0
10
66.875735604373602
20
43.867549716979831
30
0
10
68.113542017365177
20
41.945712761174086
30
0
10
69.949320158156624
20
38.891560211258295
30
0
10
71.984904751750989
20
35.103975842686644
30
0
10
73.851276797912661
20
30.959740106064491
30
0
10
75.069338481406078
20
27.760496489930592
30
0
10
75.740044910743649
20
25.793042022882627
30
0
10
75.927162816385817
20
25.226114672467208
30
0
0
SPLINE
5
132
100
AcDbEntity
8
0
100
AcDbSpline
70
0
71
3
72
14
73
10
74
0
42
0.000000001
43
0.0000000001
44
0.0000000001
40
0
40
0
40
0
40
0
40
0.1953222366934651
40
0.1953222366934651
40
0.39064447338692909
40
0.39064447338692909
40
0.57303803602563508
40
0.57303803602563508
40
0.75543159866434151
40
0.75543159866434151
40
0.75543159866434151
40
0.75543159866434151
10
67.301233170309487
20
51.642052535843284
30
0
10
66.784701340596428
20
51.245703722754314
30
0
10
66.350523573390376
20
50.752254068042333
30
0
10
65.695753293197527
20
49.626702678211025
30
0
10
65.481420740966755
20
49.005361827851381
30
0
10
65.308894416058195
20
47.758185705947007
30
0
10
65.336123589572637
20
47.145766106816644
30
0
10
65.608982719126288
20
45.960819050540906
30
0
10
65.852338607773106
20
45.398167200148329
30
0
10
66.190651248567931
20
44.893011318496164
30
0
0
LINE
5
133
100
AcDbEntity
8
0
100
AcDbLine
10
67.301233170309487
20
51.642052535843284
30
0
11
71.321112792445973
21
54.726614658335244
31
0
0
SPLINE
5
134
100
AcDbEntity
8
0
100
AcDbSpline
70
0
71
3
72
14
73
10
74
0
42
0.000000001
43
0.0000000001
44
0.0000000001
40
0
40
0
40
0
40
0
40
0.19532223669346432
40
0.19532223669346432
40
0.39064447338692798
40
0.39064447338692798
40
0.57460742297692446
40
0.57460742297692446
40
0.75857037256692239
40
0.75857037256692239
40
0.75857037256692239
40
0.75857037256692239
10
-38.020076011796242
20
70.39099839653872
30
0
10
-37.446994102303108
20
70.699988101473139
30
0
10
-36.939743728501554
20
71.117959336786754
30
0
10
-36.114009257310407
20
72.124812173134586
30
0
10
-35.803419631525465
20
72.704067712276142
30
0
10
-35.432857942358837
20
73.912826559841392
30
0
10
-35.362503545332899
20
74.527198501189218
30
0
10
-35.447588315433826
20
75.750663161070804
30
0
10
-35.60230608595883
20
76.349382657145668
30
0
10
-35.861459774696868
20
76.905139495730722
30
0
0
SPLINE
5
135
100
AcDbEntity
8
0
100
AcDbSpline
70
4
71
5
72
16
73
10
74
0
42
0.000000001
43
0.0000000001
44
0.0000000001
40
-0.86378997649932443
40
-0.86378997649932443
40
-0.86378997649932443
40
-0.86378997649932443
40
-0.86378997649932443
40
-0.86378997649932443
40
-0.80000000000000004
40
-0.60000000000000009
40
-0.40000000000000002
40
-0.20000000000000001
40
-0.15226593808358685
40
-0.15226593808358685
40
-0.15226593808358685
40
-0.15226593808358685
40
-0.15226593808358685
40
-0.15226593808358685
41
1
41
1
41
1
41
1
41
1
41
1
41
1
41
1
41
1
41
1
10
-55.698578396127957
20
57.437875214315007
30
0
10
-55.391593316114452
20
57.737130292367098
30
0
10
-54.122501747559909
20
58.957540599020874
30
0
10
-51.893210557784037
20
60.981675774246241
30
0
10
-48.697988897971847
20
63.605171761111244
30
0
10
-45.223901671780084
20
66.102070544387146
30
0
10
-41.948588609409754
20
68.177920546621465
30
0
10
-39.603131715423501
20
69.529627723124918
30
0
10
-38.276736799787784
20
70.252614092591884
30
0
10
-38.020076011796242
20
70.390998396538734
30
0
0
SPLINE
5
136
100
AcDbEntity
8
0
100
AcDbSpline
70
0
71
3
72
14
73
10
74
0
42
0.000000001
43
0.0000000001
44
0.0000000001
40
0
40
0
40
0
40
0
40
0.19532223669346363
40
0.19532223669346363
40
0.39064447338692637
40
0.39064447338692637
40
0.57505522993337921
40
0.57505522993337921
40
0.7594659864798321
40
0.7594659864798321
40
0.7594659864798321
40
0.7594659864798321
10
-62.566698908376182
20
57.331811930739612
30
0
10
-62.086676701168464
20
56.891952642635815
30
0
10
-61.525329467911149
20
56.550057660242459
30
0
10
-60.303178054336975
20
56.100684793600912
30
0
10
-59.654058307657877
20
55.997503158884953
30
0
10
-58.389151353031593
20
56.044417005143679
30
0
10
-57.784306246589409
20
56.180285664157708
30
0
10
-56.654289295718058
20
56.664536066406718
30
0
10
-56.138745172312532
20
57.008792006241258
30
0
10
-55.698578396112744
20
57.437875214329857
30
0
0
LINE
5
137
100
AcDbEntity
8
0
100
AcDbLine
10
-62.566698908376182
20
57.331811930739612
30
0
11
-66.264030706708965
21
60.719792128902569
31
0
0
SPLINE
5
138
100
AcDbEntity
8
0
100
AcDbSpline
70
0
71
3
72
16
73
12
74
0
42
0.000000001
43
0.0000000001
44
0.0000000001
40
0
40
0
40
0
40
0
40
0.19532223669346407
40
0.19532223669346407
40
0.39064447338692754
40
0.39064447338692754
40
0.58596671008039136
40
0.58596671008039136
40
0.69943779089136948
40
0.69943779089136948
40
0.81290887170234793
40
0.81290887170234793
40
0.81290887170234793
40
0.81290887170234793
10
-66.39597786336617
20
67.967164077256697
30
0
10
-66.859670922226442
20
67.510123313310487
30
0
10
-67.229660598437718
20
66.966882542778222
30
0
10
-67.740581966695885
20
65.7691557765948
30
0
10
-67.87662897198858
20
65.126120701639877
30
0
10
-67.894580268938881
20
63.824096200367805
30
0
10
-67.776312936413419
20
63.177554837940988
30
0
10
-67.398699332169926
20
62.220011512170295
30
0
10
-67.220459675393172
20
61.885025594250465
30
0
10
-66.7918677688005
20
61.261678422336885
30
0
10
-66.542896234706234
20
60.975325291284975
30
0
10
-66.264030706708965
20
60.719792128902569
30
0
0
SPLINE
5
139
100
AcDbEntity
8
0
100
AcDbSpline
70
4
71
5
72
16
73
10
74
0
42
0.000000001
43
0.0000000001
44
0.0000000001
40
0.16700705610674324
40
0.16700705610674324
40
0.16700705610674324
40
0.16700705610674324
40
0.16700705610674324
40
0.16700705610674324
40
0.20000000000000001
40
0.40000000000000002
40
0.60000000000000009
40
0.80000000000000004
40
0.88628968332917557
40
0.88628968332917557
40
0.88628968332917557
40
0.88628968332917557
40
0.88628968332917557
40
0.88628968332917557
41
1
41
1
41
1
41
1
41
1
41
1
41
1
41
1
41
1
41
1
10
-44.8736565053796
20
83.725626132905518
30
0
10
-45.06216932907251
20
83.62424216111225
30
0
10
-46.394689210693265
20
82.902945797750078
30
0
10
-48.887554066307445
20
81.492329386351798
30
0
10
-52.576303052898268
20
79.235113958629327
30
0
10
-56.844411151762742
20
76.305099355903607
30
0
10
-61.018693080700103
20
72.973539882387612
30
0
10
-64.043000025916058
20
70.250499702197871
30
0
10
-65.849186899709096
20
68.506110595807058
30
0
10
-66.395977863366156
20
67.967164077256697
30
0
0
SPLINE
5
140
100
AcDbEntity
8
0
100
AcDbSpline
70
0
71
3
72
16
73
12
74
0
42
0.000000001
43
0.0000000001
44
0.0000000001
40
0
40
0
40
0
40
0
40
0.19532223669346124
40
0.19532223669346124
40
0.39064447338692343
40
0.39064447338692343
40
0.58596671008038548
40
0.58596671008038548
40
0.70100417073491028
40
0.70100417073491028
40
0.81604163138943631
40
0.81604163138943631
40
0.81604163138943631
40
0.81604163138943631
10
-37.973845005995713
20
81.435163913817007
30
0
10
-38.249000836256585
20
82.025237453146801
30
0
10
-38.636780510324165
20
82.555925515619876
30
0
10
-39.593933635936949
20
83.43878900739233
30
0
10
-40.154156181912526
20
83.782523780512577
30
0
10
-41.374826745711665
20
84.235903781890329
30
0
10
-42.023604487628425
20
84.341214450223447
30
0
10
-43.057546235996313
20
84.306263178380249
30
0
10
-43.438026266422412
20
84.249264212230457
30
0
10
-44.178449348568599
20
84.04942820269514
30
0
10
-44.535940751910431
20
83.907252845365264
30
0
10
-44.873656505379898
20
83.72562613290529
30
0
0
LINE
5
141
100
AcDbEntity
8
0
100
AcDbLine
10
-37.973845005995713
20
81.435163913817007
30
0
11
-35.861459774696868
21
76.905139495730722
31
0
0
SPLINE
5
142
100
AcDbEntity
8
0
100
AcDbSpline
70
0
71
3
72
14
73
10
74
0
42
0.000000001
43
0.0000000001
44
0.0000000001
40
0
40
0
40
0
40
0
40
0.1953222366934646
40
0.1953222366934646
40
0.39064447338692893
40
0.39064447338692893
40
0.57490003938074863
40
0.57490003938074863
40
0.75915560537456728
40
0.75915560537456728
40
0.75915560537456728
40
0.75915560537456728
10
-81.969324106401515
20
21.963611305413519
30
0
10
-81.340434792141679
20
21.795100940291565
30
0
10
-80.684644181075655
20
21.751037693599272
30
0
10
-79.393085339454089
20
21.916765813132987
30
0
10
-78.769665115378402
20
22.124972728207439
30
0
10
-77.669791031120056
20
22.750399144367957
30
0
10
-77.19636794748925
20
23.149787556329034
30
0
10
-76.417995438192094
20
24.100066554589539
30
0
10
-76.11966654923782
20
24.64287443380519
30
0
10
-75.927165188729305
20
25.226112558968072
30
0
0
LINE
5
143
100
AcDbEntity
8
0
100
AcDbLine
10
-81.969324106401515
20
21.963611305413519
30
0
11
-86.713040584937019
21
23.234686163433373
31
0
0
SPLINE
5
144
100
AcDbEntity
8
0
100
AcDbSpline
70
0
71
3
72
16
73
12
74
0
42
0.000000001
43
0.0000000001
44
0.0000000001
40
0
40
0
40
0
40
0
40
0.19532223669346405
40
0.19532223669346405
40
0.39064447338692865
40
0.39064447338692865
40
0.58596671008039225
40
0.58596671008039225
40
0.70349888375079916
40
0.70349888375079916
40
0.82103105742120874
40
0.82103105742120874
40
0.82103105742120874
40
0.82103105742120874
10
-90.151020432951697
20
29.679080567965897
30
0
10
-90.361286804843942
20
29.062894260429758
30
0
10
-90.449188027809015
20
28.411529331781736
30
0
10
-90.370364783359776
20
27.111768989599568
30
0
10
-90.204393909124377
20
26.475799993360805
30
0
10
-89.638017662302133
20
25.303277926186563
30
0
10
-89.243027155333834
20
24.77793480528717
30
0
10
-88.466890478818129
20
24.081412097456244
30
0
10
-88.145567329879455
20
23.854918680351517
30
0
10
-87.456664078020466
20
23.48160982322538
30
0
10
-87.091465127653322
20
23.336084702760257
30
0
10
-86.713040584937019
20
23.23468616343337
30
0
0
SPLINE
5
145
100
AcDbEntity
8
0
100
AcDbSpline
70
4
71
5
72
16
73
10
74
0
42
0.000000001
43
0.0000000001
44
0.0000000001
40
0.15652438418566098
40
0.15652438418566098
40
0.15652438418566098
40
0.15652438418566098
40
0.15652438418566098
40
0.15652438418566098
40
0.20000000000000001
40
0.40000000000000002
40
0.60000000000000009
40
0.80000000000000004
40
0.87518587341691134
40
0.87518587341691134
40
0.87518587341691134
40
0.87518587341691134
40
0.87518587341691134
40
0.87518587341691134
41
1
41
1
41
1
41
1
41
1
41
1
41
1
41
1
41
1
41
1
10
-78.500976976297295
20
53.569304495825094
30
0
10
-78.667921555906759
20
53.323530528315374
30
0
10
-79.59756791426409
20
51.940275408161355
30
0
10
-81.237587596144166
20
49.351204340821823
30
0
10
-83.487180245650521
20
45.4153869481611
30
0
10
-85.822282142749501
20
40.730134670897598
30
0
10
-87.855939177517911
20
35.978904368058899
30
0
10
-89.20083651335419
20
32.415933609615649
30
0
10
-89.948948622613628
20
30.271252685403457
30
0
10
-90.151020432951668
20
29.679080567965897
30
0
0
SPLINE
5
146
100
AcDbEntity
8
0
100
AcDbSpline
70
0
71
3
72
16
73
12
74
0
42
0.000000001
43
0.0000000001
44
0.0000000001
40
0
40
0
40
0
40
0
40
0.19532223669346382
40
0.19532223669346382
40
0.39064447338692709
40
0.39064447338692709
40
0.58596671008039047
40
0.58596671008039047
40
0.70118581780975786
40
0.70118581780975786
40
0.81640492553912647
40
0.81640492553912647
40
0.81640492553912647
40
0.81640492553912647
10
-71.321115985961711
20
54.726612673049573
30
0
10
-71.837647826707482
20
55.122961471760433
30
0
10
-72.426657075399092
20
55.414630805470971
30
0
10
-73.683323259829805
20
55.755776158485403
30
0
10
-74.338965781909764
20
55.801990642275896
30
0
10
-75.631061382646038
20
55.640500674993241
30
0
10
-76.255161323112802
20
55.434340156026138
30
0
10
-77.156667477653457
20
54.925619261196985
30
0
10
-77.468291750359512
20
54.6989584070812
30
0
10
-78.033484071744837
20
54.178787935771368
30
0
10
-78.285174766879408
20
53.887006126690068
30
0
10
-78.500976976297281
20
53.569304495825079
30
0
0
LINE
5
147
100
AcDbEntity
8
0
100
AcDbLine
10
-71.321115985961711
20
54.726612673049573
30
0
11
-67.301236277963753
21
51.642050662454473
31
0
0
SPLINE
5
148
100
AcDbEntity
8
0
100
AcDbSpline
70
0
71
3
72
14
73
10
74
0
42
0.000000001
43
0.0000000001
44
0.0000000001
40
0
40
0
40
0
40
0
40
0.19532223669346391
40
0.19532223669346391
40
0.39064447338692831
40
0.39064447338692831
40
0.57303803602563641
40
0.57303803602563641
40
0.75543159866434428
40
0.75543159866434428
40
0.75543159866434428
40
0.75543159866434428
10
-66.190654168356758
20
44.893009476021362
30
0
10
-65.828360795722233
20
45.433972529185674
30
0
10
-65.575193258707827
20
46.040527632596294
30
0
10
-65.315609938954026
20
47.316539603966703
30
0
10
-65.311675914235323
20
47.973797101999942
30
0
10
-65.547881038893905
20
49.210494619956513
30
0
10
-65.769912954415986
20
49.781897299140709
30
0
10
-66.408078972455641
20
50.816931484168805
30
0
10
-66.818894460437846
20
51.271936789767778
30
0
10
-67.301236277963753
20
51.64205066245448
30
0
0
SPLINE
5
149
100
AcDbEntity
8
0
100
AcDbSpline
70
4
71
5
72
16
73
10
74
0
42
0.000000001
43
0.0000000001
44
0.0000000001
40
-0.87926286119909125
40
-0.87926286119909125
40
-0.87926286119909125
40
-0.87926286119909125
40
-0.87926286119909125
40
-0.87926286119909125
40
-0.80000000000000004
40
-0.60000000000000009
40
-0.40000000000000002
40
-0.20000000000000001
40
-0.1847419825998754
40
-0.1847419825998754
40
-0.1847419825998754
40
-0.1847419825998754
40
-0.1847419825998754
40
-0.1847419825998754
41
1
41
1
41
1
41
1
41
1
41
1
41
1
41
1
41
1
41
1
10
-75.927165188729333
20
25.226112558968076
30
0
10
-75.740047298868078
20
25.793039914592086
30
0
10
-75.069340924296327
20
27.760494400309746
30
0
10
-73.851279329856652
20
30.959738050349461
30
0
10
-71.984907399053412
20
35.103973838923707
30
0
10
-69.949322910889776
20
38.891558264157638
30
0
10
-68.113544855113332
20
41.945710865173915
30
0
10
-66.875738495617796
20
43.867547855435092
30
0
10
-66.235990976480409
20
44.825314232343672
30
0
10
-66.190654168356104
20
44.893009476022314
30
0
0
LWPOLYLINE
5
150
100
AcDbEntity
8
0
100
AcDbPolyline
90
4
70
1
43
0.0
10
62.100000894069673
20
-77.900001192092887
10
62.100000894069673
20
-82.100001192092904
10
57.90000089406967
20
-82.100001192092904
10
57.90000089406967
20
-77.900001192092887
0
LWPOLYLINE
5
151
100
AcDbEntity
8
0
100
AcDbPolyline
90
4
70
1
43
0.0
10
-57.900000395807425
20
-77.900002803790116
10
-57.900000278896748
20
-82.100002803790133
10
-62.100000278896744
20
-82.100002920700803
10
-62.10000039580742
20
-77.900002920700786
0
CIRCLE
5
152
100
AcDbEntity
8
0
100
AcDbCircle
10
60.000000894069672
20
-74.000001102685928
30
0
40
2.0999999999999996
210
0
220
-0
230
1
0
LWPOLYLINE
5
153
100
AcDbEntity
8
0
100
AcDbPolyline
90
8
70
1
43
0.0
10
-6.5000000000000018
20
15.000000000000002
42
0.4142135623730957
10
-7.5
20
14.000000000000004
10
-7.4999999999999991
20
-17.500000052154068
42
0.4142135623730947
10
-6.5000000000000018
20
-18.500000052154068
10
6.5000000000000018
20
-18.500000052154068
42
0.4142135623730947
10
7.5000000000000009
20
-17.500000052154064
10
7.5000000000000009
20
14.000000000000002
42
0.41421356237309598
10
6.5000000000000018
20
15.000000000000002
0
CIRCLE
5
154
100
AcDbEntity
8
0
100
AcDbCircle
10
-60.000000504367335
20
-74.000002772838499
30
0
40
2.0999999999999996
210
0
220
-0
230
1
0
LWPOLYLINE
5
155
100
AcDbEntity
8
0
100
AcDbPolyline
90
8
70
1
43
0.0
10
20.000000357627865
20
82.500001341104507
10
-20.000000357627865
20
82.500001341104507
42
-0.41421356237309243
10
-24.000000357627869
20
86.500001341104507
10
-24.000000357627872
20
93.500001341104507
42
-0.41421356237309243
10
-20.000000357627869
20
97.500001341104507
10
20.000000357627869
20
97.500001341104507
42
-0.41421356237309243
10
24.000000357627872
20
93.500001341104507
10
24.000000357627869
20
86.500001341104507
42
-0.41421356237309243
0
LWPOLYLINE
5
156
100
AcDbEntity
8
0
100
AcDbPolyline
90
8
70
1
43
0.0
10
61.447096794832852
20
-58.570509055955839
10
81.447097152460714
20
-23.929492285148648
42
-0.41421356237309243
10
86.911198767598449
20
-22.465390670010898
10
92.97337659408953
20
-25.965390670010887
42
-0.41421356237309331
10
94.437478209227265
20
-31.429492285148651
10
74.437477851599411
20
-66.070509055955839
42
-0.41421356237309209
10
68.973376236461661
20
-67.534610671093589
10
62.911198409970609
20
-64.034610671093589
42
-0.41421356237309209
0
LWPOLYLINE
5
157
100
AcDbEntity
8
0
100
AcDbPolyline
90
8
70
1
43
0.0
10
-81.447097152460685
20
-23.92949228514869
10
-61.44709679483281
20
-58.570509055955853
42
-0.4142135623730927
10
-62.911198409970559
20
-64.034610671093603
10
-68.973376236461633
20
-67.534610671093617
42
-0.41421356237309126
10
-74.437477851599368
20
-66.070509055955867
10
-94.437478209227251
20
-31.429492285148683
42
-0.41421356237309209
10
-92.973376594089501
20
-25.965390670010919
10
-86.911198767598435
20
-22.465390670010944
42
-0.41421356237309209
0
CIRCLE
5
158
100
AcDbEntity
8
0
100
AcDbCircle
10
0
20
-25.00000037252903
30
0
40
2.1000000000000001
210
0
220
-0
230
1
0
CIRCLE
5
159
100
AcDbEntity
8
0
100
AcDbCircle
10
21.650635417230561
20
12.500000186264522
30
0
40
2.0999999999999996
210
0
220
-0
230
1
0
CIRCLE
5
160
100
AcDbEntity
8
0
100
AcDbCircle
10
-21.650635417230575
20
12.500000186264508
30
0
40
2.0999999999999996
210
0
220
-0
230
1
0
CIRCLE
5
161
100
AcDbEntity
8
0
100
AcDbCircle
10
-74.951906400703308
20
-20.179492225009106
30
0
40
2.0999999999999996
210
0
220
-0
230
1
0
CIRCLE
5
162
100
AcDbEntity
8
0
100
AcDbCircle
10
-54.951906102680077
20
-54.820508892578019
30
0
40
2.0999999999999996
210
0
220
-0
230
1
0
CIRCLE
5
163
100
AcDbEntity
8
0
100
AcDbCircle
10
74.951906400703336
20
-20.179492225009071
30
0
40
2.0999999999999996
210
0
220
-0
230
1
0
CIRCLE
5
164
100
AcDbEntity
8
0
100
AcDbCircle
10
54.951906102680113
20
-54.820508892577983
30
0
40
2.0999999999999996
210
0
220
-0
230
1
0
CIRCLE
5
165
100
AcDbEntity
8
0
100
AcDbCircle
10
-20.000000298023224
20
75.000001117587104
30
0
40
2.0999999999999996
210
0
220
-0
230
1
0
CIRCLE
5
166
100
AcDbEntity
8
0
100
AcDbCircle
10
20.000000298023224
20
75.000001117587075
30
0
40
2.0999999999999996
210
0
220
-0
230
1
0
ARC
5
167
100
AcDbEntity
8
0
100
AcDbCircle
10
-8.8817841970012523e-15
20
-6.6613381477509392e-15
30
0
40
105.00000000000001
210
0
220
0
230
1
100
AcDbArc
50
-58.41186396979748
51
238.41186449479886
0
LINE
5
168
100
AcDbEntity
8
0
100
AcDbLine
10
-54.999999999999993
20
-89.442719099991621
30
0
11
-55
21
-70
31
0
0
SPLINE
5
169
100
AcDbEntity
8
0
100
AcDbSpline
70
4
71
5
72
21
73
15
74
0
42
0.000000001
43
0.0000000001
44
0.0000000001
40
0
40
0
40
0
40
0
40
0
40
0
40
0.10000000000000001
40
0.20000000000000001
40
0.30000000000000004
40
0.40000000000000002
40
0.5
40
0.59999999999999998
40
0.69999999999999996
40
0.79999999999999993
40
0.89999999999999991
40
1
40
1
40
1
40
1
40
1
40
1
41
1
41
1
41
1
41
1
41
1
41
1
41
1
41
1
41
1
41
1
41
1
41
1
41
1
41
1
41
1
10
-55
20
-70
30
0
10
-54.458031966292623
20
-69.458031917836919
30
0
10
-52.950877869535574
20
-68.364195171696423
30
0
10
-49.420572341235186
20
-66.693754018016932
30
0
10
-42.303594346508334
20
-64.468274513921131
30
0
10
-30.126705659691339
20
-62.023535695347846
30
0
10
-15.65246079225658
20
-60.315180753500641
30
0
10
2.3674901664105796e-07
20
-59.6903565366636
30
0
10
15.652461422386647
20
-60.315180681803398
30
0
10
30.126706655419898
20
-62.023535566948887
30
0
10
42.303595691994886
20
-64.468274363572164
30
0
10
49.420573741367633
20
-66.693753892841997
30
0
10
52.950879081202075
20
-68.364195096296157
30
0
10
54.458032935952929
20
-69.458031890262447
30
0
10
55.000000819563866
20
-70
30
0
0
LINE
5
170
100
AcDbEntity
8
0
100
AcDbLine
10
55.000000819563866
20
-70
30
0
11
55.000000819563823
21
-89.442718596026481
31
0
0
ENDSEC
0
SECTION
2
OBJECTS
0
DICTIONARY
5
C
100
AcDbDictionary
3
ACAD_GROUP
350
D
3
ACAD_MLINESTYLE
350
17
0
DICTIONARY
5
D
100
AcDbDictionary
0
DICTIONARY
5
1A
330
C
100
AcDbDictionary
0
DICTIONARY
5
17
100
AcDbDictionary
0
ENDSEC
0
EOF
