0
SECTION
2
HEADER
9
$INSUNITS
70
4
9
$ACADVER
1
AC1014
9
$HANDSEED
5
FFFF
0
ENDSEC
0
SECTION
2
TABLES
0
TABLE
2
VPORT
5
8
100
AcDbSymbolTable
0
ENDTAB
0
TABLE
2
LTYPE
5
5
100
AcDbSymbolTable
0
LTYPE
5
14
100
AcDbSymbolTableRecord
100
AcDbLinetypeTableRecord
2
BYBLOCK
70
0
0
LTYPE
5
15
100
AcDbSymbolTableRecord
100
AcDbLinetypeTableRecord
2
BYLAYER
70
0
0
ENDTAB
0
TABLE
2
LAYER
5
2
100
AcDbSymbolTable
70
2
0
LAYER
5
50
100
AcDbSymbolTableRecord
100
AcDbLayerTableRecord
2
0
70
0
6
CONTINUOUS
0
ENDTAB
0
TABLE
2
STYLE
5
3
100
AcDbSymbolTable
70
1
0
STYLE
5
11
100
AcDbSymbolTableRecord
100
AcDbTextStyleTableRecord
2
STANDARD
70
0
0
ENDTAB
0
TABLE
2
VIEW
5
6
100
AcDbSymbolTable
70
0
0
ENDTAB
0
TABLE
2
UCS
5
7
100
AcDbSymbolTable
70
0
0
ENDTAB
0
TABLE
2
APPID
5
9
100
AcDbSymbolTable
70
2
0
APPID
5
12
100
AcDbSymbolTableRecord
100
AcDbRegAppTableRecord
2
ACAD
70
0
0
ENDTAB
0
TABLE
2
DIMSTYLE
5
A
100
AcDbSymbolTable
70
1
0
ENDTAB
0
TABLE
2
BLOCK_RECORD
5
1
100
AcDbSymbolTable
70
1
0
BLOCK_RECORD
5
1F
100
AcDbSymbolTableRecord
100
AcDbBlockTableRecord
2
*MODEL_SPACE
0
BLOCK_RECORD
5
1B
100
AcDbSymbolTableRecord
100
AcDbBlockTableRecord
2
*PAPER_SPACE
0
ENDTAB
0
ENDSEC
0
SECTION
2
BLOCKS
0
BLOCK
5
20
100
AcDbEntity
100
AcDbBlockBegin
2
*MODEL_SPACE
0
ENDBLK
5
21
100
AcDbEntity
100
AcDbBlockEnd
0
BLOCK
5
1C
100
AcDbEntity
100
AcDbBlockBegin
2
*PAPER_SPACE
0
ENDBLK
5
1D
100
AcDbEntity
100
AcDbBlockEnd
0
ENDSEC
0
SECTION
2
ENTITIES
0
CIRCLE
5
100
100
AcDbEntity
8
0
100
AcDbCircle
10
0
20
0
30
0
40
105
210
0
220
0
230
1
0
LWPOLYLINE
5
101
100
AcDbEntity
8
0
100
AcDbPolyline
90
5
70
1
43
0.0
10
0
20
70
10
55.000000819563866
20
70
10
55.000000819563866
20
89.442718596026438
10
-55
20
89.442719099991592
10
-55
20
70
0
SPLINE
5
102
100
AcDbEntity
8
0
100
AcDbSpline
70
4
71
5
72
21
73
15
74
0
42
0.000000001
43
0.0000000001
44
0.0000000001
40
0
40
0
40
0
40
0
40
0
40
0
40
0.10000000000000001
40
0.20000000000000001
40
0.30000000000000004
40
0.40000000000000002
40
0.5
40
0.59999999999999998
40
0.69999999999999996
40
0.79999999999999993
40
0.89999999999999991
40
1
40
1
40
1
40
1
40
1
40
1
41
1
41
1
41
1
41
1
41
1
41
1
41
1
41
1
41
1
41
1
41
1
41
1
41
1
41
1
41
1
10
-55
20
70
30
0
10
-54.458031966292623
20
69.458031917836919
30
0
10
-52.950877869535574
20
68.364195171696423
30
0
10
-49.420572341235186
20
66.693754018016932
30
0
10
-42.303594346508334
20
64.468274513921131
30
0
10
-30.126705659691339
20
62.023535695347846
30
0
10
-15.65246079225658
20
60.315180753500641
30
0
10
2.3674901664105796e-07
20
59.6903565366636
30
0
10
15.652461422386647
20
60.315180681803398
30
0
10
30.126706655419898
20
62.023535566948887
30
0
10
42.303595691994886
20
64.468274363572164
30
0
10
49.420573741367633
20
66.693753892841997
30
0
10
52.950879081202075
20
68.364195096296157
30
0
10
54.458032935952929
20
69.458031890262447
30
0
10
55.000000819563866
20
70
30
0
0
LINE
5
103
100
AcDbEntity
8
0
100
AcDbLine
10
4.0978193283081055e-07
20
89.442718848009008
30
0
11
0
21
60
31
0
0
CIRCLE
5
104
100
AcDbEntity
8
0
100
AcDbCircle
10
0
20
25.00000037252903
30
0
40
2.1000000000000001
210
0
220
0
230
1
0
CIRCLE
5
105
100
AcDbEntity
8
0
100
AcDbCircle
10
-21.650635417230575
20
-12.500000186264508
30
0
40
2.1000000000000001
210
0
220
0
230
1
0
CIRCLE
5
106
100
AcDbEntity
8
0
100
AcDbCircle
10
21.650635417230561
20
-12.500000186264522
30
0
40
2.1000000000000001
210
0
220
0
230
1
0
CIRCLE
5
107
100
AcDbEntity
8
0
100
AcDbCircle
10
20.000000298023224
20
-75.000001117587075
30
0
40
2.0999999999999996
210
0
220
0
230
1
0
CIRCLE
5
108
100
AcDbEntity
8
0
100
AcDbCircle
10
-20.000000298023224
20
-75.000001117587104
30
0
40
2.0999999999999996
210
0
220
0
230
1
0
CIRCLE
5
109
100
AcDbEntity
8
0
100
AcDbCircle
10
54.951906102680113
20
54.820508892577983
30
0
40
2.0999999999999996
210
0
220
0
230
1
0
CIRCLE
5
110
100
AcDbEntity
8
0
100
AcDbCircle
10
74.951906400703336
20
20.179492225009071
30
0
40
2.0999999999999996
210
0
220
0
230
1
0
CIRCLE
5
111
100
AcDbEntity
8
0
100
AcDbCircle
10
-74.951906400703308
20
20.179492225009106
30
0
40
2.0999999999999996
210
0
220
0
230
1
0
CIRCLE
5
112
100
AcDbEntity
8
0
100
AcDbCircle
10
-54.951906102680077
20
54.820508892578019
30
0
40
2.0999999999999996
210
0
220
0
230
1
0
LWPOLYLINE
5
113
100
AcDbEntity
8
0
100
AcDbPolyline
90
4
70
1
43
0.0
10
25
20
-65
10
-25
20
-25
10
25
20
-25
10
-25
20
-65
0
LWPOLYLINE
5
114
100
AcDbEntity
8
0
100
AcDbPolyline
90
6
70
1
43
0.0
10
-20.938262445705035
20
-33.249390490470809
10
-8.6902155034582691
20
-43.047828044268222
42
-0.48062483704727393
10
-8.6902154372379687
20
-46.952172038507143
10
-20.93826262283158
20
-56.750610468353166
42
-0.62887967251091659
10
-25.000000307937938
20
-54.798438466677737
10
-25.000000064591102
20
-35.201562483034301
42
-0.62887965201235796
0
LWPOLYLINE
5
115
100
AcDbEntity
8
0
100
AcDbPolyline
90
6
70
1
43
0.0
10
20.938262381113937
20
-33.249390542143686
10
8.6902155883030119
20
-43.047827976392426
42
0.48062484748656847
10
8.6902155883030083
20
-46.952172023607588
10
20.938262381113944
20
-56.750609457856321
42
0.62887965634452825
10
24.999999999999993
20
-54.79843743424874
10
25.000000000000004
20
-35.20156256575126
42
0.62887965634452592
0
LWPOLYLINE
5
116
100
AcDbEntity
8
0
100
AcDbPolyline
90
6
70
1
43
0.0
10
-14.434785185545106
20
-29.452172089982493
10
-1.5617376007050421
20
-39.750610157854545
42
0.35078105616943378
10
1.561737614895105
20
-39.750610175592122
10
14.434785199735156
20
-29.452172347499275
42
0.70895822614184723
10
12.873047626304125
20
-25.00000030615411
10
-12.873047543375984
20
-25.000000066374923
42
0.7089582288724362
0
LWPOLYLINE
5
117
100
AcDbEntity
8
0
100
AcDbPolyline
90
6
70
1
43
0.0
10
14.43478526851375
20
-60.547827976392419
10
1.5617376007050421
20
-50.249389842145447
42
0.35078105616943361
10
-1.5617376148951041
20
-50.249389824407878
10
-14.434785582427828
20
-60.547827958654857
42
0.70895822964041477
10
-12.873047985713747
20
-65
10
12.87304764962769
20
-65
42
0.70895822537387176
0
LINE
5
118
100
AcDbEntity
8
0
100
AcDbLine
10
25
20
-25
30
0
11
25
21
-65
31
0
0
LINE
5
119
100
AcDbEntity
8
0
100
AcDbLine
10
-25
20
-65
30
0
11
-25
21
-25
31
0
0
LWPOLYLINE
5
120
100
AcDbEntity
8
0
100
AcDbPolyline
90
6
70
1
43
0.0
10
34.956838905751582
20
49.049853811735318
10
17.98544743484792
20
39.251416377486592
42
0.62887965634452614
10
18.325685679289524
20
34.757762404220557
10
32.93540481114681
20
29.049861452030147
42
0.48062484748656836
10
36.316665941149694
20
31.00203347563772
10
38.678338280196051
20
46.508371862076878
42
0.62887965634452792
0
LWPOLYLINE
5
121
100
AcDbEntity
8
0
100
AcDbPolyline
90
6
70
1
43
0.0
10
59.653349947378722
20
17.773022966763559
42
0.70895822964041499
10
62.728175238845395
20
21.351613420235786
10
49.855127421174686
20
43.648386288705126
42
0.70895822537387332
10
45.218564537269117
20
42.774804728902481
10
42.736379327613179
20
26.477199357328637
42
0.35078105616943395
10
44.29811692005206
20
23.772190463659047
0
LWPOLYLINE
5
122
100
AcDbEntity
8
0
100
AcDbPolyline
90
4
70
1
43
0.0
10
43.791651245988525
20
54.150635094610955
10
68.791651245988533
20
10.849364905389013
10
9.1506350946109762
20
34.150635094610969
10
34.150635094610969
20
-9.1506350946109727
0
LWPOLYLINE
5
123
100
AcDbEntity
8
0
100
AcDbPolyline
90
6
70
1
43
0.0
10
59.956839953830269
20
5.7485838720458071
42
0.62887967251091648
10
59.61660165728474
20
10.242237891694227
10
45.006881466823572
20
15.950138686245786
42
0.48062483704727421
10
41.625620415809614
20
13.997966631777864
10
39.263948047948972
20
-1.5083719438508547
42
0.62887965201235774
10
42.98544739550848
20
-4.0498539090313646
0
LWPOLYLINE
5
124
100
AcDbEntity
8
0
100
AcDbPolyline
90
6
70
1
43
0.0
10
33.644169420547442
20
21.227809536340931
10
18.288936849704367
20
27.226976854891909
42
0.708958226141848
10
15.214111546596151
20
23.648386421583389
10
28.087158923781324
20
1.3516138364989905
42
0.70895822887243654
10
32.723721819328418
20
2.2251953761379029
10
35.205907012986316
20
18.522800642671339
42
0.35078105616943378
0
LINE
5
125
100
AcDbEntity
8
0
100
AcDbLine
10
9.1506350946109762
20
34.150635094610969
30
0
11
43.791651245988525
21
54.150635094610955
31
0
0
LINE
5
126
100
AcDbEntity
8
0
100
AcDbLine
10
68.791651245988533
20
10.849364905389013
30
0
11
34.150635094610969
21
-9.1506350946109762
31
0
0
LWPOLYLINE
5
127
100
AcDbEntity
8
0
100
AcDbPolyline
90
6
70
1
43
0.0
10
-59.956838905751553
20
5.7485836225134346
10
-42.985447434847913
20
-4.0498538117353275
42
0.62887965634452625
10
-39.263948060403443
20
-1.5083718620768627
10
-41.625620399449801
20
13.997966524362289
42
0.48062484748656875
10
-45.006881529452684
20
15.950138547969869
10
-59.616600661309967
20
10.242237595779454
42
0.62887965634452747
0
LWPOLYLINE
5
128
100
AcDbEntity
8
0
100
AcDbPolyline
90
6
70
1
43
0.0
10
-45.218564364950858
20
42.774804991891301
42
0.70895822964041499
10
-49.855127253131613
20
43.648386579764214
10
-62.728175070802337
20
21.351613711294881
42
0.7089582253738721
10
-59.653349805782838
20
17.773023247489942
10
-44.298116928318194
20
23.772190484816814
42
0.35078105616943445
10
-42.73637930515693
20
26.477199360748834
0
LWPOLYLINE
5
129
100
AcDbEntity
8
0
100
AcDbPolyline
90
4
70
1
43
0.0
10
-68.79165124598849
20
10.849364905389054
10
-43.79165124598849
20
54.150635094610976
10
-34.150635094610962
20
-9.1506350946109549
10
-9.1506350946109549
20
34.150635094610962
0
LWPOLYLINE
5
130
100
AcDbEntity
8
0
100
AcDbPolyline
90
6
70
1
43
0.0
10
-34.956839645892316
20
49.049854594631917
42
0.62887967251091681
10
-38.678339034453131
20
46.508372576658928
10
-36.316666029585583
20
31.002033352261353
42
0.48062483704727377
10
-32.935404912351324
20
29.049861412490358
10
-18.325685602243929
20
34.757762434321656
42
0.62887965201235752
10
-17.985447330917363
20
39.251416392065657
0
LWPOLYLINE
5
131
100
AcDbEntity
8
0
100
AcDbPolyline
90
6
70
1
43
0.0
10
-35.205907035442522
20
18.522800639251191
10
-32.723722049439516
20
2.2251954926073703
42
0.70895822614184756
10
-28.087159172900261
20
1.3516138845707282
10
-15.214111380405333
20
23.648386229875928
42
0.70895822887243543
10
-18.288936633783301
20
27.226976713844586
10
-33.644169412281258
20
21.227809515183207
42
0.35078105616943378
0
LINE
5
132
100
AcDbEntity
8
0
100
AcDbLine
10
-34.150635094610962
20
-9.1506350946109549
30
0
11
-68.79165124598849
21
10.849364905389054
31
0
0
LINE
5
133
100
AcDbEntity
8
0
100
AcDbLine
10
-43.79165124598849
20
54.150635094610976
30
0
11
-9.1506350946109549
21
34.150635094610962
31
0
0
LINE
5
134
100
AcDbEntity
8
0
100
AcDbLine
10
-2.2204460492503131e-15
20
-105
30
0
11
90.932667397366075
21
52.499999999999993
31
0
0
LINE
5
135
100
AcDbEntity
8
0
100
AcDbLine
10
-2.2204460492503131e-15
20
-105
30
0
11
181.86533479473212
21
-105
31
0
0
LINE
5
136
100
AcDbEntity
8
0
100
AcDbLine
10
-2.2204460492503131e-15
20
-105
30
0
11
-90.932667397366032
21
52.500000000000043
31
0
0
LINE
5
137
100
AcDbEntity
8
0
100
AcDbLine
10
-2.2204460492503131e-15
20
-105
30
0
11
181.86533479473212
21
-105
31
0
0
LWPOLYLINE
5
138
100
AcDbEntity
8
0
100
AcDbPolyline
90
4
70
1
43
0.0
10
7.5
20
-72.50000111758709
10
-7.5
20
-72.50000111758709
10
-7.5
20
-77.50000111758709
10
7.5
20
-77.50000111758709
0
LINE
5
139
100
AcDbEntity
8
0
100
AcDbLine
10
7.5
20
-72.50000111758709
30
0
11
-7.5
21
-77.50000111758709
31
0
0
LINE
5
140
100
AcDbEntity
8
0
100
AcDbLine
10
-7.5
20
-72.50000111758709
30
0
11
7.5
21
-77.50000111758709
31
0
0
LWPOLYLINE
5
141
100
AcDbEntity
8
0
100
AcDbPolyline
90
4
70
1
43
0.0
10
59.036842742230618
20
42.745191087176821
10
66.536842742230618
20
29.754810030410237
10
70.866969761152816
20
32.254810030410241
10
63.366969761152816
20
45.245191087176821
0
LWPOLYLINE
5
142
100
AcDbEntity
8
0
100
AcDbPolyline
90
4
70
1
43
0.0
10
-66.53684274223059
20
29.754810030410273
10
-59.036842742230597
20
42.745191087176849
10
-63.366969761152781
20
45.245191087176849
10
-70.866969761152788
20
32.254810030410269
0
LWPOLYLINE
5
143
100
AcDbEntity
8
0
100
AcDbPolyline
90
7
70
1
43
0.0
10
0
20
55.000000819563866
10
22.535898831897082
20
55.000000819563859
42
-0.76732698797895926
10
23.535898831897079
20
51.267950011994984
10
3.7499999999999889
20
39.844555995240512
42
-0.26794919243112392
10
-3.7499999999999889
20
39.844555995240505
10
-23.535898831897089
20
51.267950011994998
42
-0.76732698797896359
10
-22.535898831897086
20
55.000000819563866
0
CIRCLE
5
144
100
AcDbEntity
8
0
100
AcDbCircle
10
-97.000000000000014
20
-7.0000000000000009
30
0
40
2.1000000000000085
210
0
220
0
230
1
0
CIRCLE
5
145
100
AcDbEntity
8
0
100
AcDbCircle
10
96.999998134996247
20
-7.0000027000799214
30
0
40
2.1000000000000085
210
0
220
0
230
1
0
LINE
5
146
100
AcDbEntity
8
0
100
AcDbLine
10
0
20
0
30
0
11
-26.791251272516092
21
0
31
0
0
LINE
5
147
100
AcDbEntity
8
0
100
AcDbLine
10
-26.791251272516092
20
0
30
0
11
-26.791251272516092
21
-59.605002831085585
31
0
0
LINE
5
148
100
AcDbEntity
8
0
100
AcDbLine
10
0
20
0
30
0
11
95
21
0
31
0
0
LINE
5
149
100
AcDbEntity
8
0
100
AcDbLine
10
0
20
0
30
0
11
95
21
0
31
0
0
LINE
5
150
100
AcDbEntity
8
0
100
AcDbLine
10
0
20
0
30
0
11
95
21
0
31
0
0
LINE
5
151
100
AcDbEntity
8
0
100
AcDbLine
10
40.148734865366443
20
-86.099239768481738
30
0
11
33.809460939255956
21
-72.504622962932004
31
0
0
LINE
5
152
100
AcDbEntity
8
0
100
AcDbLine
10
0
20
0
30
0
11
95
21
0
31
0
0
LINE
5
153
100
AcDbEntity
8
0
100
AcDbLine
10
0
20
0
30
0
11
95
21
0
31
0
0
LINE
5
154
100
AcDbEntity
8
0
100
AcDbLine
10
70.041346996961792
20
-64.181069723487724
30
0
11
58.982186944809925
21
-54.047216609252814
31
0
0
LINE
5
155
100
AcDbEntity
8
0
100
AcDbLine
10
63.46826722329881
20
-48.700914320697663
30
0
11
75.368567327667336
21
-57.832335755828467
31
0
0
LINE
5
156
100
AcDbEntity
8
0
100
AcDbLine
10
77.274066103125477
20
-20.705523608201663
30
0
11
91.762953497461481
21
-24.587809284739471
31
0
0
SPLINE
5
157
100
AcDbEntity
8
0
100
AcDbSpline
70
4
71
5
72
16
73
10
74
0
42
0.000000001
43
0.0000000001
44
0.0000000001
40
0
40
0
40
0
40
0
40
0
40
0
40
0.20000000000000001
40
0.40000000000000002
40
0.60000000000000009
40
0.80000000000000004
40
1
40
1
40
1
40
1
40
1
40
1
41
1
41
1
41
1
41
1
41
1
41
1
41
1
41
1
41
1
41
1
10
33.809460939255956
20
-72.504622962932004
30
0
10
34.947527806721922
20
-71.973933667140159
30
0
10
37.180841349946903
20
-70.880270928437866
30
0
10
40.402470972305224
20
-69.142984567547344
30
0
10
44.480444486826116
20
-66.63640739877772
30
0
10
49.363044522982939
20
-63.127181354734027
30
0
10
53.202600794028932
20
-59.892607944132401
30
0
10
56.086308016401162
20
-57.123490858102066
30
0
10
58.015732477073513
20
-55.101916585789951
30
0
10
58.982186944809925
20
-54.047216609252814
30
0
0
SPLINE
5
158
100
AcDbEntity
8
0
100
AcDbSpline
70
4
71
5
72
16
73
10
74
0
42
0.000000001
43
0.0000000001
44
0.0000000001
40
0
40
0
40
0
40
0
40
0
40
0
40
0.20000000000000001
40
0.40000000000000002
40
0.60000000000000009
40
0.80000000000000004
40
1
40
1
40
1
40
1
40
1
40
1
41
1
41
1
41
1
41
1
41
1
41
1
41
1
41
1
41
1
41
1
10
40.148734865366443
20
-86.099239768481738
30
0
10
41.269213240287634
20
-85.576752121458924
30
0
10
43.52366128359094
20
-84.476617370416136
30
0
10
46.945778873885935
20
-82.661039839237006
30
0
10
51.585305991205686
20
-79.915422543134596
30
0
10
57.519146207680308
20
-75.841899322875989
30
0
10
62.404749301169531
20
-71.854826296684138
30
0
10
66.175644451485411
20
-68.279662530576431
30
0
10
68.743743477186314
20
-65.5971554756361
30
0
10
70.041346996961792
20
-64.181069723487724
30
0
0
SPLINE
5
159
100
AcDbEntity
8
0
100
AcDbSpline
70
4
71
5
72
16
73
10
74
0
42
0.000000001
43
0.0000000001
44
0.0000000001
40
0
40
0
40
0
40
0
40
0
40
0
40
0.20000000000000001
40
0.40000000000000002
40
0.60000000000000009
40
0.80000000000000004
40
1
40
1
40
1
40
1
40
1
40
1
41
1
41
1
41
1
41
1
41
1
41
1
41
1
41
1
41
1
41
1
10
63.46826722329881
20
-48.700914320697663
30
0
10
64.051758270126271
20
-47.940493983646448
30
0
10
65.225828228318846
20
-46.349496213635426
30
0
10
67.008162203621595
20
-43.752684552615307
30
0
10
69.407856330130514
20
-39.899054538751393
30
0
10
72.338775552746185
20
-34.445533290821643
30
0
10
74.510828747943975
20
-29.472589667354431
30
0
10
75.970514207046691
20
-25.28931078701218
30
0
10
76.854430681543434
20
-22.271624322201461
30
0
10
77.274066103125477
20
-20.705523608201663
30
0
0
SPLINE
5
160
100
AcDbEntity
8
0
100
AcDbSpline
70
4
71
5
72
16
73
10
74
0
42
0.000000001
43
0.0000000001
44
0.0000000001
40
0
40
0
40
0
40
0
40
0
40
0
40
0.20000000000000001
40
0.40000000000000002
40
0.60000000000000009
40
0.80000000000000004
40
1
40
1
40
1
40
1
40
1
40
1
41
1
41
1
41
1
41
1
41
1
41
1
41
1
41
1
41
1
41
1
10
75.368567327667336
20
-57.832335755828467
30
0
10
76.202453945704747
20
-56.784675756516378
30
0
10
77.826913360609353
20
-54.63556198262004
30
0
10
80.133769663021553
20
-51.250628007434344
30
0
10
82.978592376209377
20
-46.43583662912129
30
0
10
86.227830108448146
20
-39.916422019503514
30
0
10
88.602341933385219
20
-34.210351849632048
30
0
10
90.242599705503252
20
-29.562157449528268
30
0
10
91.267596001626401
20
-26.277010516631382
30
0
10
91.762953497461481
20
-24.587809284739471
30
0
0
SPLINE
5
161
100
AcDbEntity
8
0
100
AcDbSpline
70
4
71
5
72
16
73
10
74
0
42
0.000000001
43
0.0000000001
44
0.0000000001
40
0
40
0
40
0
40
0
40
0
40
0
40
0.20000000000000001
40
0.40000000000000002
40
0.60000000000000009
40
0.80000000000000004
40
1
40
1
40
1
40
1
40
1
40
1
41
1
41
1
41
1
41
1
41
1
41
1
41
1
41
1
41
1
41
1
10
-40.148738932166722
20
-86.099238650906443
30
0
10
-41.269217292544013
20
-85.576750972694128
30
0
10
-43.5236653052241
20
-84.476616158896832
30
0
10
-46.945782844980911
20
-82.661038532460054
30
0
10
-51.585309885873997
20
-79.915421107212339
30
0
10
-57.519149988958524
20
-75.8418977217801
30
0
10
-62.404752971464077
20
-71.854824559593197
30
0
10
-66.175648022262138
20
-68.279660688519328
30
0
10
-68.743746973293113
20
-65.597153562093709
30
0
10
-70.041350453650594
20
-64.181067773825404
30
0
0
LINE
5
162
100
AcDbEntity
8
0
100
AcDbLine
10
-40.148738932166708
20
-86.0992386509065
30
0
11
-33.809464627638171
21
-72.504622021815976
31
0
0
SPLINE
5
163
100
AcDbEntity
8
0
100
AcDbSpline
70
4
71
5
72
16
73
10
74
0
42
0.000000001
43
0.0000000001
44
0.0000000001
40
0
40
0
40
0
40
0
40
0
40
0
40
0.20000000000000001
40
0.40000000000000002
40
0.60000000000000009
40
0.80000000000000004
40
1
40
1
40
1
40
1
40
1
40
1
41
1
41
1
41
1
41
1
41
1
41
1
41
1
41
1
41
1
41
1
10
-33.809464627638178
20
-72.504622021815962
30
0
10
-34.947531480331939
20
-71.973932694345024
30
0
10
-37.180844993113851
20
-70.880269893476495
30
0
10
-40.402474567113281
20
-69.142983442909099
30
0
10
-44.480448011861412
20
-66.636406160625498
30
0
10
-49.363047950335854
20
-63.12717998067037
30
0
10
-53.202604131344657
20
-59.892606463191328
30
0
10
-56.086311276636074
20
-57.123489296890483
30
0
10
-58.015735681036141
20
-55.101914970871142
30
0
10
-58.982190119414064
20
-54.047214967431898
30
0
0
LINE
5
164
100
AcDbEntity
8
0
100
AcDbLine
10
-70.041350453650594
20
-64.181067773825447
30
0
11
-58.982190119414042
21
-54.047214967431927
31
0
0
LINE
5
165
100
AcDbEntity
8
0
100
AcDbLine
10
-63.468270249083929
20
-48.700912554002826
30
0
11
-75.368570607633572
21
-57.83233365787833
31
0
0
SPLINE
5
166
100
AcDbEntity
8
0
100
AcDbSpline
70
4
71
5
72
16
73
10
74
0
42
0.000000001
43
0.0000000001
44
0.0000000001
40
0
40
0
40
0
40
0
40
0
40
0
40
0.20000000000000001
40
0.40000000000000002
40
0.60000000000000009
40
0.80000000000000004
40
1
40
1
40
1
40
1
40
1
40
1
41
1
41
1
41
1
41
1
41
1
41
1
41
1
41
1
41
1
41
1
10
-75.368570607633558
20
-57.832333657878301
30
0
10
-76.202457196508448
20
-56.784673635354252
30
0
10
-77.826916551590585
20
-54.635559816239663
30
0
10
-80.133772759780186
20
-51.250625776840593
30
0
10
-82.978595338944075
20
-46.435834319339421
30
0
10
-86.227832889709234
20
-39.916419619276276
30
0
10
-88.602344555812849
20
-34.210349383308191
30
0
10
-90.242602198544319
20
-29.562154937546403
30
0
10
-91.267598403222507
20
-26.277007976117844
30
0
10
-91.762955852037194
20
-24.587806730437229
30
0
0
SPLINE
5
167
100
AcDbEntity
8
0
100
AcDbSpline
70
4
71
5
72
16
73
10
74
0
42
0.000000001
43
0.0000000001
44
0.0000000001
40
0
40
0
40
0
40
0
40
0
40
0
40
0.20000000000000001
40
0.40000000000000002
40
0.60000000000000009
40
0.80000000000000004
40
1
40
1
40
1
40
1
40
1
40
1
41
1
41
1
41
1
41
1
41
1
41
1
41
1
41
1
41
1
41
1
10
-63.468270249083936
20
-48.700912554002784
30
0
10
-64.051761274744436
20
-47.940492200709592
30
0
10
-65.225831188650176
20
-46.349494398017299
30
0
10
-67.008165091668403
20
-43.75268268738435
30
0
10
-69.407859110908163
20
-39.899052606722847
30
0
10
-72.338778181720301
20
-34.445531277208403
30
0
10
-74.510831238491832
20
-29.472587593280188
30
0
10
-75.970516581149326
20
-25.289308672306312
30
0
10
-76.854432971646119
20
-22.271622182891015
30
0
10
-77.274068349634376
20
-20.705521457210292
30
0
0
LINE
5
168
100
AcDbEntity
8
0
100
AcDbLine
10
-77.274068349634376
20
-20.705521457210327
30
0
11
-91.76295585203718
21
-24.587806730437265
31
0
0
LWPOLYLINE
5
169
100
AcDbEntity
8
0
100
AcDbPolyline
90
4
70
1
43
0.0
10
62.100000894069673
20
82.100001192092904
10
57.90000089406967
20
82.100001192092904
10
57.90000089406967
20
77.900001192092887
10
62.100000894069673
20
77.900001192092887
0
LINE
5
170
100
AcDbEntity
8
0
100
AcDbLine
10
62.100000894069673
20
82.100001192092904
30
0
11
57.90000089406967
21
77.900001192092887
31
0
0
LINE
5
171
100
AcDbEntity
8
0
100
AcDbLine
10
57.90000089406967
20
82.100001192092904
30
0
11
62.100000894069673
21
77.900001192092887
31
0
0
LINE
5
172
100
AcDbEntity
8
0
100
AcDbLine
10
60.000000894069672
20
77.900001192092887
30
0
11
60.000000894069672
21
74.000001102685928
31
0
0
CIRCLE
5
173
100
AcDbEntity
8
0
100
AcDbCircle
10
60.000000894069672
20
74.000001102685928
30
0
40
2.0999999999999996
210
0
220
0
230
1
0
LWPOLYLINE
5
174
100
AcDbEntity
8
0
100
AcDbPolyline
90
4
70
1
43
0.0
10
-62.10000039580742
20
77.900002920700786
10
-62.100000278896744
20
82.100002920700803
10
-57.900000278896748
20
82.100002803790133
10
-57.900000395807425
20
77.900002803790116
0
CIRCLE
5
175
100
AcDbEntity
8
0
100
AcDbCircle
10
-60.000000504367335
20
74.000002772838499
30
0
40
2.0999999999999996
210
0
220
0
230
1
0
LINE
5
176
100
AcDbEntity
8
0
100
AcDbLine
10
0
20
0
30
0
11
-71.5
21
0
31
0
0
LINE
5
177
100
AcDbEntity
8
0
100
AcDbLine
10
-71.5
20
0
30
0
11
-71.5
21
2.7999999999999998
31
0
0
LINE
5
178
100
AcDbEntity
8
0
100
AcDbLine
10
0
20
2.5
30
0
11
0
21
20
31
0
0
LINE
5
179
100
AcDbEntity
8
0
100
AcDbLine
10
2.2204460492503131e-15
20
-82.500001341104507
30
0
11
20.000000357627865
21
-82.500001341104507
31
0
0
LINE
5
180
100
AcDbEntity
8
0
100
AcDbLine
10
24.000000357627869
20
-86.500001341104507
30
0
11
24.000000357627869
21
-93.500001341104507
31
0
0
LINE
5
181
100
AcDbEntity
8
0
100
AcDbLine
10
20.000000357627869
20
-97.500001341104507
30
0
11
-2.2204460492503131e-15
21
-97.500001341104507
31
0
0
ARC
5
182
100
AcDbEntity
8
0
100
AcDbCircle
10
20.000000357627851
20
-93.500001341104479
30
0
40
4.0000000000000213
210
-0
220
0
230
1
100
AcDbArc
50
270.00000000000023
51
360
0
ARC
5
183
100
AcDbEntity
8
0
100
AcDbCircle
10
20.000000357627847
20
-86.500001341104536
30
0
40
4.0000000000000213
210
0
220
-0
230
1
100
AcDbArc
50
0
51
89.999999999999744
0
LINE
5
184
100
AcDbEntity
8
0
100
AcDbLine
10
0
20
-45
30
0
11
0
21
-47.500000707805157
31
0
0
LINE
5
185
100
AcDbEntity
8
0
100
AcDbLine
10
-2.2204460492503131e-15
20
-82.500001341104507
30
0
11
-20.000000357627865
21
-82.500001341104507
31
0
0
ARC
5
186
100
AcDbEntity
8
0
100
AcDbCircle
10
-20.000000357627847
20
-86.500001341104536
30
0
40
4.0000000000000213
210
0
220
0
230
1
100
AcDbArc
50
90.000000000000256
51
180
0
LINE
5
187
100
AcDbEntity
8
0
100
AcDbLine
10
-24.000000357627869
20
-86.500001341104507
30
0
11
-24.000000357627869
21
-93.500001341104507
31
0
0
ARC
5
188
100
AcDbEntity
8
0
100
AcDbCircle
10
-20.000000357627851
20
-93.500001341104479
30
0
40
4.0000000000000169
210
0
220
0
230
1
100
AcDbArc
50
180
51
269.99999999999972
0
LINE
5
189
100
AcDbEntity
8
0
100
AcDbLine
10
-20.000000357627869
20
-97.500001341104507
30
0
11
2.2204460492503131e-15
21
-97.500001341104507
31
0
0
LINE
5
190
100
AcDbEntity
8
0
100
AcDbLine
10
71.447096973646779
20
41.25000067055224
30
0
11
81.447097152460714
21
23.929492285148648
31
0
0
LINE
5
191
100
AcDbEntity
8
0
100
AcDbLine
10
71.447096973646779
20
41.25000067055224
30
0
11
61.447096794832845
21
58.570509055955824
31
0
0
ARC
5
192
100
AcDbEntity
8
0
100
AcDbCircle
10
64.911198409970638
20
60.570509055955824
30
0
40
4.0000000000000204
210
0
220
0
230
1
100
AcDbArc
50
120.0000000000003
51
209.99999999999972
0
LINE
5
193
100
AcDbEntity
8
0
100
AcDbLine
10
62.911198409970609
20
64.034610671093589
30
0
11
68.973376236461661
21
67.534610671093589
31
0
0
ARC
5
194
100
AcDbEntity
8
0
100
AcDbCircle
10
70.973376236461661
20
64.07050905595581
30
0
40
4.0000000000000204
210
0
220
-0
230
1
100
AcDbArc
50
30.000000000000373
51
119.99999999999984
0
LINE
5
195
100
AcDbEntity
8
0
100
AcDbLine
10
74.437477851599411
20
66.070509055955839
30
0
11
84.437478030413345
21
48.75000067055224
31
0
0
LINE
5
196
100
AcDbEntity
8
0
100
AcDbLine
10
94.437478209227265
20
31.429492285148637
30
0
11
84.437478030413345
21
48.75000067055224
31
0
0
ARC
5
197
100
AcDbEntity
8
0
100
AcDbCircle
10
90.973376594089501
20
29.429492285148644
30
0
40
4.0000000000000204
210
0
220
0
230
1
100
AcDbArc
50
-59.99999999999968
51
29.99999999999984
0
LINE
5
198
100
AcDbEntity
8
0
100
AcDbLine
10
86.911198767598449
20
22.465390670010883
30
0
11
92.97337659408953
21
25.965390670010883
31
0
0
ARC
5
199
100
AcDbEntity
8
0
100
AcDbCircle
10
84.911198767598464
20
25.929492285148669
30
0
40
4.0000000000000115
210
0
220
0
230
1
100
AcDbArc
50
210.00000000000026
51
299.9999999999996
0
LINE
5
200
100
AcDbEntity
8
0
100
AcDbLine
10
-71.447096973646737
20
41.250000670552268
30
0
11
-61.44709679483281
21
58.570509055955853
31
0
0
LINE
5
201
100
AcDbEntity
8
0
100
AcDbLine
10
-71.447096973646737
20
41.250000670552268
30
0
11
-81.447097152460671
21
23.92949228514869
31
0
0
ARC
5
202
100
AcDbEntity
8
0
100
AcDbCircle
10
-84.911198767598449
20
25.929492285148715
30
0
40
4.0000000000000187
210
0
220
0
230
1
100
AcDbArc
50
240.00000000000034
51
329.99999999999989
0
LINE
5
203
100
AcDbEntity
8
0
100
AcDbLine
10
-86.911198767598435
20
22.465390670010933
30
0
11
-92.973376594089501
21
25.96539067001093
31
0
0
ARC
5
204
100
AcDbEntity
8
0
100
AcDbCircle
10
-90.973376594089473
20
29.42949228514869
30
0
40
4.0000000000000266
210
0
220
0
230
1
100
AcDbArc
50
150.00000000000026
51
239.99999999999969
0
LINE
5
205
100
AcDbEntity
8
0
100
AcDbLine
10
-94.437478209227251
20
31.429492285148683
30
0
11
-84.437478030413317
21
48.750000670552268
31
0
0
LINE
5
206
100
AcDbEntity
8
0
100
AcDbLine
10
-74.437477851599368
20
66.070509055955867
30
0
11
-84.437478030413317
21
48.750000670552268
31
0
0
ARC
5
207
100
AcDbEntity
8
0
100
AcDbCircle
10
-70.973376236461604
20
64.070509055955839
30
0
40
4.0000000000000142
210
0
220
-0
230
1
100
AcDbArc
50
60.000000000000519
51
149.99999999999972
0
LINE
5
208
100
AcDbEntity
8
0
100
AcDbLine
10
-62.911198409970552
20
64.034610671093617
30
0
11
-68.973376236461633
21
67.534610671093617
31
0
0
ARC
5
209
100
AcDbEntity
8
0
100
AcDbCircle
10
-64.911198409970581
20
60.570509055955846
30
0
40
4.0000000000000107
210
0
220
0
230
1
100
AcDbArc
50
-29.999999999999762
51
59.999999999999773
0
LWPOLYLINE
5
210
100
AcDbEntity
8
0
100
AcDbPolyline
90
6
70
1
43
0.0
10
-7.500000111758709
20
18.500000052154068
10
7.500000111758709
20
18.500000052154064
10
19.771470071058211
20
-2.7548094009078685
10
12.271469959299498
20
-15.745190651246208
10
-12.271469959299512
20
-15.745190651246201
10
-19.771470071058218
20
-2.7548094009078539
0
ENDSEC
0
SECTION
2
OBJECTS
0
DICTIONARY
5
C
100
AcDbDictionary
3
ACAD_GROUP
350
D
3
ACAD_MLINESTYLE
350
17
0
DICTIONARY
5
D
100
AcDbDictionary
0
DICTIONARY
5
1A
330
C
100
AcDbDictionary
0
DICTIONARY
5
17
100
AcDbDictionary
0
ENDSEC
0
EOF
