M48
; DRILL file {KiCad 6.0.2-378541a8eb~116~ubuntu20.04.1} date Fri 27 Jan 2023 04:22:21 PM CET
; FORMAT={-:-/ absolute / metric / decimal}
; #@! TF.CreationDate,2023-01-27T16:22:21+01:00
; #@! TF.GenerationSoftware,Kicad,Pcbnew,6.0.2-378541a8eb~116~ubuntu20.04.1
; #@! TF.FileFunction,Plated,1,2,PTH
FMAT,2
METRIC
; #@! TA.AperFunction,Plated,PTH,ViaDrill
T1C0.300
; #@! TA.AperFunction,Plated,PTH,ViaDrill
T2C0.400
; #@! TA.AperFunction,Plated,PTH,ComponentDrill
T3C1.000
; #@! TA.AperFunction,Plated,PTH,ComponentDrill
T4C1.040
%
G90
G05
T1
X62.34Y-111.46
X65.68Y-108.73
X74.41Y-108.01
X86.61Y-98.36
X86.61Y-105.56
X104.78Y-61.48
X121.41Y-71.51
X143.31Y-164.46
X154.11Y-28.36
X163.16Y-82.26
X173.61Y-51.76
X174.11Y-38.06
X180.31Y-89.76
X181.34Y-88.23
X181.97Y-46.55
X183.33Y-86.8
X212.2Y-96.39
X222.21Y-76.76
X227.81Y-113.66
X229.6Y-110.51
X232.94Y-102.96
X235.61Y-113.66
T2
X163.95Y-49.25
X190.41Y-93.76
X193.71Y-94.96
X204.41Y-110.86
X206.8Y-105.0
X213.41Y-106.66
X227.91Y-115.06
T3
X114.45Y-94.975
X114.45Y-117.0
X116.99Y-94.975
X116.99Y-117.0
X119.53Y-94.975
X119.53Y-117.0
X122.07Y-94.975
X122.07Y-117.0
X123.85Y-155.335
X123.85Y-157.875
X126.39Y-155.335
X126.39Y-157.875
X128.93Y-155.335
X128.93Y-157.875
X131.47Y-155.335
X131.47Y-157.875
X134.01Y-155.335
X134.01Y-157.875
X136.55Y-155.335
X136.55Y-157.875
X142.9Y-94.975
X142.9Y-117.0
X145.44Y-94.975
X145.44Y-117.0
X147.98Y-94.975
X147.98Y-117.0
X150.52Y-94.975
X150.52Y-117.0
X156.05Y-155.335
X156.05Y-157.875
X158.59Y-155.335
X158.59Y-157.875
X161.13Y-155.335
X161.13Y-157.875
X163.67Y-155.335
X163.67Y-157.875
X166.21Y-155.335
X166.21Y-157.875
X168.75Y-155.335
X168.75Y-157.875
X172.7Y-94.975
X172.7Y-117.0
X175.24Y-94.975
X175.24Y-117.0
X177.78Y-94.975
X177.78Y-117.0
X180.32Y-94.975
X180.32Y-117.0
X183.15Y-127.3
X183.15Y-129.84
X183.15Y-132.38
X183.15Y-134.92
X183.15Y-137.46
X183.15Y-140.0
X185.69Y-127.3
X185.69Y-129.84
X185.69Y-132.38
X185.69Y-134.92
X185.69Y-137.46
X185.69Y-140.0
T4
X134.3Y-36.54
X134.3Y-39.08
X134.3Y-41.62
X134.3Y-44.16
X134.3Y-46.7
X134.3Y-49.24
X134.3Y-51.78
X134.3Y-54.32
X134.3Y-56.86
X134.3Y-59.4
X134.3Y-61.94
X134.3Y-64.48
X134.3Y-67.02
X134.3Y-69.56
X134.3Y-72.1
X134.3Y-74.64
X134.3Y-77.18
X134.3Y-79.72
X134.3Y-82.26
X159.7Y-36.54
X159.7Y-39.08
X159.7Y-41.62
X159.7Y-44.16
X159.7Y-46.7
X159.7Y-49.24
X159.7Y-51.78
X159.7Y-54.32
X159.7Y-56.86
X159.7Y-59.4
X159.7Y-61.94
X159.7Y-64.48
X159.7Y-67.02
X159.7Y-69.56
X159.7Y-72.1
X159.7Y-74.64
X159.7Y-77.18
X159.7Y-79.72
X159.7Y-82.26
T0
M30
