G04 #@! TF.GenerationSoftware,KiCad,Pcbnew,6.0.2-378541a8eb~116~ubuntu20.04.1*
G04 #@! TF.CreationDate,2023-01-27T16:22:06+01:00*
G04 #@! TF.ProjectId,BUCKY_MAIN,4255434b-595f-44d4-9149-4e2e6b696361,rev?*
G04 #@! TF.SameCoordinates,Original*
G04 #@! TF.FileFunction,Profile,NP*
%FSLAX46Y46*%
G04 Gerber Fmt 4.6, Leading zero omitted, Abs format (unit mm)*
G04 Created by KiCad (PCBNEW 6.0.2-378541a8eb~116~ubuntu20.04.1) date 2023-01-27 16:22:06*
%MOMM*%
%LPD*%
G01*
G04 APERTURE LIST*
G04 #@! TA.AperFunction,Profile*
%ADD10C,0.300000*%
G04 #@! TD*
G04 #@! TA.AperFunction,Profile*
%ADD11C,0.100000*%
G04 #@! TD*
G04 APERTURE END LIST*
D10*
X90731786Y-179100000D02*
X202468214Y-179100000D01*
X222421147Y-169162552D02*
G75*
G03*
X70778853Y-169162552I-75821147J57237697D01*
G01*
X203701906Y-166745364D02*
G75*
G03*
X203701906Y-166745364I-2150000J0D01*
G01*
D11*
X160250000Y-97500000D02*
X198500000Y-97500000D01*
X198500000Y-97500000D02*
X198500000Y-114500000D01*
X198500000Y-114500000D02*
X160250000Y-114500000D01*
X160250000Y-114500000D02*
X160250000Y-97500000D01*
D10*
X128750000Y-36924854D02*
G75*
G03*
X128750000Y-36924854I-2150000J0D01*
G01*
D11*
X96250000Y-97500000D02*
X134500000Y-97500000D01*
X134500000Y-97500000D02*
X134500000Y-114500000D01*
X134500000Y-114500000D02*
X96250000Y-114500000D01*
X96250000Y-114500000D02*
X96250000Y-97500000D01*
D10*
X168750000Y-36924854D02*
G75*
G03*
X168750000Y-36924854I-2150000J0D01*
G01*
X93798094Y-166745364D02*
G75*
G03*
X93798094Y-166745364I-2150000J0D01*
G01*
X202468214Y-179100000D02*
G75*
G03*
X222421147Y-169162552I2J24999997D01*
G01*
X73798094Y-132104347D02*
G75*
G03*
X73798094Y-132104347I-2150000J0D01*
G01*
X70778853Y-169162552D02*
G75*
G03*
X90731786Y-179100000I19952931J15062549D01*
G01*
X223701906Y-132104347D02*
G75*
G03*
X223701906Y-132104347I-2150000J0D01*
G01*
D11*
X104750000Y-143375000D02*
X92250000Y-143375000D01*
X92250000Y-143375000D02*
X92250000Y-127125000D01*
X92250000Y-127125000D02*
X104750000Y-127125000D01*
X104750000Y-127125000D02*
X104750000Y-143375000D01*
M02*
