G04 #@! TF.GenerationSoftware,KiCad,Pcbnew,6.0.2-378541a8eb~116~ubuntu20.04.1*
G04 #@! TF.CreationDate,2023-01-27T16:22:06+01:00*
G04 #@! TF.ProjectId,BUCKY_MAIN,4255434b-595f-44d4-9149-4e2e6b696361,rev?*
G04 #@! TF.SameCoordinates,Original*
G04 #@! TF.FileFunction,Soldermask,Bot*
G04 #@! TF.FilePolarity,Negative*
%FSLAX46Y46*%
G04 Gerber Fmt 4.6, Leading zero omitted, Abs format (unit mm)*
G04 Created by KiCad (PCBNEW 6.0.2-378541a8eb~116~ubuntu20.04.1) date 2023-01-27 16:22:06*
%MOMM*%
%LPD*%
G01*
G04 APERTURE LIST*
%ADD10R,1.500000X3.000000*%
%ADD11O,1.500000X3.000000*%
%ADD12R,1.560000X1.560000*%
%ADD13C,1.560000*%
%ADD14O,2.000000X2.000000*%
%ADD15R,2.000000X2.000000*%
G04 APERTURE END LIST*
D10*
X114450000Y-117000000D03*
D11*
X116990000Y-117000000D03*
X119530000Y-117000000D03*
X122070000Y-117000000D03*
D10*
X114450000Y-94975000D03*
D11*
X116990000Y-94975000D03*
X119530000Y-94975000D03*
X122070000Y-94975000D03*
D10*
X142900000Y-117000000D03*
D11*
X145440000Y-117000000D03*
X147980000Y-117000000D03*
X150520000Y-117000000D03*
D10*
X142900000Y-94975000D03*
D11*
X145440000Y-94975000D03*
X147980000Y-94975000D03*
X150520000Y-94975000D03*
D12*
X159700000Y-82260000D03*
D13*
X159700000Y-79720000D03*
X159700000Y-77180000D03*
X159700000Y-74640000D03*
X159700000Y-72100000D03*
X159700000Y-69560000D03*
X159700000Y-67020000D03*
X159700000Y-64480000D03*
X159700000Y-61940000D03*
X159700000Y-59400000D03*
X159700000Y-56860000D03*
X159700000Y-54320000D03*
X159700000Y-51780000D03*
X159700000Y-49240000D03*
X159700000Y-46700000D03*
X159700000Y-44160000D03*
X159700000Y-41620000D03*
X159700000Y-39080000D03*
X159700000Y-36540000D03*
X134300000Y-82260000D03*
X134300000Y-79720000D03*
X134300000Y-77180000D03*
X134300000Y-74640000D03*
X134300000Y-72100000D03*
X134300000Y-69560000D03*
X134300000Y-67020000D03*
X134300000Y-64480000D03*
X134300000Y-61940000D03*
X134300000Y-59400000D03*
X134300000Y-56860000D03*
X134300000Y-54320000D03*
X134300000Y-51780000D03*
X134300000Y-49240000D03*
X134300000Y-46700000D03*
X134300000Y-44160000D03*
X134300000Y-41620000D03*
X134300000Y-39080000D03*
X134300000Y-36540000D03*
D14*
X123850000Y-157875000D03*
X134010000Y-155335000D03*
X123850000Y-155335000D03*
X126390000Y-157875000D03*
X126390000Y-155335000D03*
X136550000Y-155335000D03*
X131470000Y-155335000D03*
X131470000Y-157875000D03*
X128930000Y-155335000D03*
X128930000Y-157875000D03*
X134010000Y-157875000D03*
D15*
X136550000Y-157875000D03*
D14*
X163670000Y-157875000D03*
X166210000Y-155335000D03*
X158590000Y-157875000D03*
X161130000Y-155335000D03*
X166210000Y-157875000D03*
X168750000Y-155335000D03*
X161130000Y-157875000D03*
D15*
X168750000Y-157875000D03*
D14*
X163670000Y-155335000D03*
X185690000Y-132380000D03*
X185690000Y-137460000D03*
X185690000Y-127300000D03*
X183150000Y-129840000D03*
X183150000Y-132380000D03*
D15*
X183150000Y-140000000D03*
D14*
X185690000Y-134920000D03*
X185690000Y-129840000D03*
X183150000Y-134920000D03*
X185690000Y-140000000D03*
X183150000Y-127300000D03*
X183150000Y-137460000D03*
X158590000Y-155335000D03*
X156050000Y-155335000D03*
X156050000Y-157875000D03*
D10*
X172700000Y-117000000D03*
D11*
X175240000Y-117000000D03*
X177780000Y-117000000D03*
X180320000Y-117000000D03*
D10*
X172700000Y-94975000D03*
D11*
X175240000Y-94975000D03*
X177780000Y-94975000D03*
X180320000Y-94975000D03*
M02*
