G04 #@! TF.GenerationSoftware,KiCad,Pcbnew,6.0.2-378541a8eb~116~ubuntu20.04.1*
G04 #@! TF.CreationDate,2023-01-27T16:22:06+01:00*
G04 #@! TF.ProjectId,BUCKY_MAIN,4255434b-595f-44d4-9149-4e2e6b696361,rev?*
G04 #@! TF.SameCoordinates,Original*
G04 #@! TF.FileFunction,Soldermask,Top*
G04 #@! TF.FilePolarity,Negative*
%FSLAX46Y46*%
G04 Gerber Fmt 4.6, Leading zero omitted, Abs format (unit mm)*
G04 Created by KiCad (PCBNEW 6.0.2-378541a8eb~116~ubuntu20.04.1) date 2023-01-27 16:22:06*
%MOMM*%
%LPD*%
G01*
G04 APERTURE LIST*
G04 Aperture macros list*
%AMRoundRect*
0 Rectangle with rounded corners*
0 $1 Rounding radius*
0 $2 $3 $4 $5 $6 $7 $8 $9 X,Y pos of 4 corners*
0 Add a 4 corners polygon primitive as box body*
4,1,4,$2,$3,$4,$5,$6,$7,$8,$9,$2,$3,0*
0 Add four circle primitives for the rounded corners*
1,1,$1+$1,$2,$3*
1,1,$1+$1,$4,$5*
1,1,$1+$1,$6,$7*
1,1,$1+$1,$8,$9*
0 Add four rect primitives between the rounded corners*
20,1,$1+$1,$2,$3,$4,$5,0*
20,1,$1+$1,$4,$5,$6,$7,0*
20,1,$1+$1,$6,$7,$8,$9,0*
20,1,$1+$1,$8,$9,$2,$3,0*%
%AMRotRect*
0 Rectangle, with rotation*
0 The origin of the aperture is its center*
0 $1 length*
0 $2 width*
0 $3 Rotation angle, in degrees counterclockwise*
0 Add horizontal line*
21,1,$1,$2,0,0,$3*%
G04 Aperture macros list end*
%ADD10R,1.500000X3.000000*%
%ADD11O,1.500000X3.000000*%
%ADD12R,1.500000X1.000000*%
%ADD13R,1.000000X1.900000*%
%ADD14R,1.900000X1.000000*%
%ADD15RoundRect,0.250000X-1.500000X0.250000X-1.500000X-0.250000X1.500000X-0.250000X1.500000X0.250000X0*%
%ADD16RoundRect,0.250001X-1.449999X0.499999X-1.449999X-0.499999X1.449999X-0.499999X1.449999X0.499999X0*%
%ADD17RotRect,1.500000X1.000000X225.000000*%
%ADD18R,1.000000X1.500000*%
%ADD19RoundRect,0.150000X0.625000X-0.150000X0.625000X0.150000X-0.625000X0.150000X-0.625000X-0.150000X0*%
%ADD20RoundRect,0.250000X0.650000X-0.350000X0.650000X0.350000X-0.650000X0.350000X-0.650000X-0.350000X0*%
%ADD21R,1.560000X1.560000*%
%ADD22C,1.560000*%
%ADD23RoundRect,0.250000X-0.450000X0.350000X-0.450000X-0.350000X0.450000X-0.350000X0.450000X0.350000X0*%
%ADD24RotRect,1.500000X1.000000X135.000000*%
%ADD25RoundRect,0.150000X-0.825000X-0.150000X0.825000X-0.150000X0.825000X0.150000X-0.825000X0.150000X0*%
%ADD26RoundRect,0.250000X0.450000X-0.350000X0.450000X0.350000X-0.450000X0.350000X-0.450000X-0.350000X0*%
%ADD27O,2.000000X2.000000*%
%ADD28R,2.000000X2.000000*%
%ADD29R,3.200000X1.000000*%
%ADD30R,1.000000X1.000000*%
G04 APERTURE END LIST*
D10*
X114450000Y-117000000D03*
D11*
X116990000Y-117000000D03*
X119530000Y-117000000D03*
X122070000Y-117000000D03*
D10*
X114450000Y-94975000D03*
D11*
X116990000Y-94975000D03*
X119530000Y-94975000D03*
X122070000Y-94975000D03*
D12*
X149150000Y-22800000D03*
X149150000Y-19600000D03*
X144250000Y-19600000D03*
X144250000Y-22800000D03*
X103550000Y-174000000D03*
X103550000Y-177200000D03*
X108450000Y-177200000D03*
X108450000Y-174000000D03*
D10*
X142900000Y-117000000D03*
D11*
X145440000Y-117000000D03*
X147980000Y-117000000D03*
X150520000Y-117000000D03*
D10*
X142900000Y-94975000D03*
D11*
X145440000Y-94975000D03*
X147980000Y-94975000D03*
X150520000Y-94975000D03*
D13*
X142940000Y-31650000D03*
X145480000Y-28350000D03*
X148020000Y-31650000D03*
X150560000Y-28350000D03*
D14*
X65650000Y-115560000D03*
X62350000Y-113020000D03*
X65650000Y-110480000D03*
X62350000Y-107940000D03*
D12*
X185550000Y-174000000D03*
X185550000Y-177200000D03*
X190450000Y-177200000D03*
X190450000Y-174000000D03*
D15*
X206800000Y-101000000D03*
X206800000Y-103000000D03*
X206800000Y-105000000D03*
X206800000Y-107000000D03*
X206800000Y-109000000D03*
X206800000Y-111000000D03*
D16*
X201050000Y-98650000D03*
X201050000Y-113350000D03*
D17*
X81213782Y-51698959D03*
X78951041Y-49436218D03*
X75486218Y-52901041D03*
X77748959Y-55163782D03*
D18*
X236400000Y-113700000D03*
X239600000Y-113700000D03*
X239600000Y-108800000D03*
X236400000Y-108800000D03*
D19*
X120025000Y-74550000D03*
X120025000Y-73550000D03*
X120025000Y-72550000D03*
X120025000Y-71550000D03*
D20*
X117500000Y-70250000D03*
X117500000Y-75850000D03*
D12*
X144550000Y-174000000D03*
X144550000Y-177200000D03*
X149450000Y-177200000D03*
X149450000Y-174000000D03*
D18*
X54400000Y-114450000D03*
X57600000Y-114450000D03*
X57600000Y-109550000D03*
X54400000Y-109550000D03*
D14*
X229600000Y-107440000D03*
X232900000Y-109980000D03*
X229600000Y-112520000D03*
X232900000Y-115060000D03*
D21*
X159700000Y-82260000D03*
D22*
X159700000Y-79720000D03*
X159700000Y-77180000D03*
X159700000Y-74640000D03*
X159700000Y-72100000D03*
X159700000Y-69560000D03*
X159700000Y-67020000D03*
X159700000Y-64480000D03*
X159700000Y-61940000D03*
X159700000Y-59400000D03*
X159700000Y-56860000D03*
X159700000Y-54320000D03*
X159700000Y-51780000D03*
X159700000Y-49240000D03*
X159700000Y-46700000D03*
X159700000Y-44160000D03*
X159700000Y-41620000D03*
X159700000Y-39080000D03*
X159700000Y-36540000D03*
X134300000Y-82260000D03*
X134300000Y-79720000D03*
X134300000Y-77180000D03*
X134300000Y-74640000D03*
X134300000Y-72100000D03*
X134300000Y-69560000D03*
X134300000Y-67020000D03*
X134300000Y-64480000D03*
X134300000Y-61940000D03*
X134300000Y-59400000D03*
X134300000Y-56860000D03*
X134300000Y-54320000D03*
X134300000Y-51780000D03*
X134300000Y-49240000D03*
X134300000Y-46700000D03*
X134300000Y-44160000D03*
X134300000Y-41620000D03*
X134300000Y-39080000D03*
X134300000Y-36540000D03*
D13*
X150810000Y-166850000D03*
X148270000Y-170150000D03*
X145730000Y-166850000D03*
X143190000Y-170150000D03*
D23*
X201000000Y-93450000D03*
X201000000Y-95450000D03*
D24*
X215901041Y-55713782D03*
X218163782Y-53451041D03*
X214698959Y-49986218D03*
X212436218Y-52248959D03*
D25*
X192325000Y-92445000D03*
X192325000Y-93715000D03*
X192325000Y-94985000D03*
X192325000Y-96255000D03*
X197275000Y-96255000D03*
X197275000Y-94985000D03*
X197275000Y-93715000D03*
X197275000Y-92445000D03*
D26*
X176800000Y-49700000D03*
X176800000Y-47700000D03*
D27*
X123850000Y-157875000D03*
X134010000Y-155335000D03*
X123850000Y-155335000D03*
X126390000Y-157875000D03*
X126390000Y-155335000D03*
X136550000Y-155335000D03*
X131470000Y-155335000D03*
X131470000Y-157875000D03*
X128930000Y-155335000D03*
X128930000Y-157875000D03*
X134010000Y-157875000D03*
D28*
X136550000Y-157875000D03*
D27*
X163670000Y-157875000D03*
X166210000Y-155335000D03*
X158590000Y-157875000D03*
X161130000Y-155335000D03*
X166210000Y-157875000D03*
X168750000Y-155335000D03*
X161130000Y-157875000D03*
D28*
X168750000Y-157875000D03*
D27*
X163670000Y-155335000D03*
X185690000Y-132380000D03*
X185690000Y-137460000D03*
X185690000Y-127300000D03*
X183150000Y-129840000D03*
X183150000Y-132380000D03*
D28*
X183150000Y-140000000D03*
D27*
X185690000Y-134920000D03*
X185690000Y-129840000D03*
X183150000Y-134920000D03*
X185690000Y-140000000D03*
X183150000Y-127300000D03*
X183150000Y-137460000D03*
X158590000Y-155335000D03*
X156050000Y-155335000D03*
X156050000Y-157875000D03*
D10*
X172700000Y-117000000D03*
D11*
X175240000Y-117000000D03*
X177780000Y-117000000D03*
X180320000Y-117000000D03*
D10*
X172700000Y-94975000D03*
D11*
X175240000Y-94975000D03*
X177780000Y-94975000D03*
X180320000Y-94975000D03*
D13*
X94180000Y-98890000D03*
X91640000Y-102190000D03*
X89100000Y-98890000D03*
X86560000Y-102190000D03*
D29*
X172902000Y-47650000D03*
X166302000Y-47650000D03*
X166298000Y-43650000D03*
X172902000Y-43650000D03*
D30*
X166298000Y-45650000D03*
M02*
