G04 #@! TF.GenerationSoftware,KiCad,Pcbnew,6.0.2-378541a8eb~116~ubuntu20.04.1*
G04 #@! TF.CreationDate,2023-01-27T16:22:06+01:00*
G04 #@! TF.ProjectId,BUCKY_MAIN,4255434b-595f-44d4-9149-4e2e6b696361,rev?*
G04 #@! TF.SameCoordinates,Original*
G04 #@! TF.FileFunction,Paste,Top*
G04 #@! TF.FilePolarity,Positive*
%FSLAX46Y46*%
G04 Gerber Fmt 4.6, Leading zero omitted, Abs format (unit mm)*
G04 Created by KiCad (PCBNEW 6.0.2-378541a8eb~116~ubuntu20.04.1) date 2023-01-27 16:22:06*
%MOMM*%
%LPD*%
G01*
G04 APERTURE LIST*
G04 Aperture macros list*
%AMRoundRect*
0 Rectangle with rounded corners*
0 $1 Rounding radius*
0 $2 $3 $4 $5 $6 $7 $8 $9 X,Y pos of 4 corners*
0 Add a 4 corners polygon primitive as box body*
4,1,4,$2,$3,$4,$5,$6,$7,$8,$9,$2,$3,0*
0 Add four circle primitives for the rounded corners*
1,1,$1+$1,$2,$3*
1,1,$1+$1,$4,$5*
1,1,$1+$1,$6,$7*
1,1,$1+$1,$8,$9*
0 Add four rect primitives between the rounded corners*
20,1,$1+$1,$2,$3,$4,$5,0*
20,1,$1+$1,$4,$5,$6,$7,0*
20,1,$1+$1,$6,$7,$8,$9,0*
20,1,$1+$1,$8,$9,$2,$3,0*%
%AMRotRect*
0 Rectangle, with rotation*
0 The origin of the aperture is its center*
0 $1 length*
0 $2 width*
0 $3 Rotation angle, in degrees counterclockwise*
0 Add horizontal line*
21,1,$1,$2,0,0,$3*%
G04 Aperture macros list end*
%ADD10R,1.500000X1.000000*%
%ADD11R,1.000000X1.900000*%
%ADD12R,1.900000X1.000000*%
%ADD13RoundRect,0.250000X-1.500000X0.250000X-1.500000X-0.250000X1.500000X-0.250000X1.500000X0.250000X0*%
%ADD14RoundRect,0.250001X-1.449999X0.499999X-1.449999X-0.499999X1.449999X-0.499999X1.449999X0.499999X0*%
%ADD15RotRect,1.500000X1.000000X225.000000*%
%ADD16R,1.000000X1.500000*%
%ADD17RoundRect,0.150000X0.625000X-0.150000X0.625000X0.150000X-0.625000X0.150000X-0.625000X-0.150000X0*%
%ADD18RoundRect,0.250000X0.650000X-0.350000X0.650000X0.350000X-0.650000X0.350000X-0.650000X-0.350000X0*%
%ADD19RoundRect,0.250000X-0.450000X0.350000X-0.450000X-0.350000X0.450000X-0.350000X0.450000X0.350000X0*%
%ADD20RotRect,1.500000X1.000000X135.000000*%
%ADD21RoundRect,0.150000X-0.825000X-0.150000X0.825000X-0.150000X0.825000X0.150000X-0.825000X0.150000X0*%
%ADD22RoundRect,0.250000X0.450000X-0.350000X0.450000X0.350000X-0.450000X0.350000X-0.450000X-0.350000X0*%
%ADD23R,3.200000X1.000000*%
%ADD24R,1.000000X1.000000*%
G04 APERTURE END LIST*
D10*
X149150000Y-22800000D03*
X149150000Y-19600000D03*
X144250000Y-19600000D03*
X144250000Y-22800000D03*
X103550000Y-174000000D03*
X103550000Y-177200000D03*
X108450000Y-177200000D03*
X108450000Y-174000000D03*
D11*
X142940000Y-31650000D03*
X145480000Y-28350000D03*
X148020000Y-31650000D03*
X150560000Y-28350000D03*
D12*
X65650000Y-115560000D03*
X62350000Y-113020000D03*
X65650000Y-110480000D03*
X62350000Y-107940000D03*
D10*
X185550000Y-174000000D03*
X185550000Y-177200000D03*
X190450000Y-177200000D03*
X190450000Y-174000000D03*
D13*
X206800000Y-101000000D03*
X206800000Y-103000000D03*
X206800000Y-105000000D03*
X206800000Y-107000000D03*
X206800000Y-109000000D03*
X206800000Y-111000000D03*
D14*
X201050000Y-98650000D03*
X201050000Y-113350000D03*
D15*
X81213782Y-51698959D03*
X78951041Y-49436218D03*
X75486218Y-52901041D03*
X77748959Y-55163782D03*
D16*
X236400000Y-113700000D03*
X239600000Y-113700000D03*
X239600000Y-108800000D03*
X236400000Y-108800000D03*
D17*
X120025000Y-74550000D03*
X120025000Y-73550000D03*
X120025000Y-72550000D03*
X120025000Y-71550000D03*
D18*
X117500000Y-70250000D03*
X117500000Y-75850000D03*
D10*
X144550000Y-174000000D03*
X144550000Y-177200000D03*
X149450000Y-177200000D03*
X149450000Y-174000000D03*
D16*
X54400000Y-114450000D03*
X57600000Y-114450000D03*
X57600000Y-109550000D03*
X54400000Y-109550000D03*
D12*
X229600000Y-107440000D03*
X232900000Y-109980000D03*
X229600000Y-112520000D03*
X232900000Y-115060000D03*
D11*
X150810000Y-166850000D03*
X148270000Y-170150000D03*
X145730000Y-166850000D03*
X143190000Y-170150000D03*
D19*
X201000000Y-93450000D03*
X201000000Y-95450000D03*
D20*
X215901041Y-55713782D03*
X218163782Y-53451041D03*
X214698959Y-49986218D03*
X212436218Y-52248959D03*
D21*
X192325000Y-92445000D03*
X192325000Y-93715000D03*
X192325000Y-94985000D03*
X192325000Y-96255000D03*
X197275000Y-96255000D03*
X197275000Y-94985000D03*
X197275000Y-93715000D03*
X197275000Y-92445000D03*
D22*
X176800000Y-49700000D03*
X176800000Y-47700000D03*
D11*
X94180000Y-98890000D03*
X91640000Y-102190000D03*
X89100000Y-98890000D03*
X86560000Y-102190000D03*
D23*
X172902000Y-47650000D03*
X166302000Y-47650000D03*
X166298000Y-43650000D03*
X172902000Y-43650000D03*
D24*
X166298000Y-45650000D03*
M02*
