G04 #@! TF.GenerationSoftware,KiCad,Pcbnew,6.0.2-378541a8eb~116~ubuntu20.04.1*
G04 #@! TF.CreationDate,2023-01-27T16:40:07+01:00*
G04 #@! TF.ProjectId,BUCKY_MOTOR_DRIVER,4255434b-595f-44d4-9f54-4f525f445249,rev?*
G04 #@! TF.SameCoordinates,Original*
G04 #@! TF.FileFunction,Copper,L1,Top*
G04 #@! TF.FilePolarity,Positive*
%FSLAX46Y46*%
G04 Gerber Fmt 4.6, Leading zero omitted, Abs format (unit mm)*
G04 Created by KiCad (PCBNEW 6.0.2-378541a8eb~116~ubuntu20.04.1) date 2023-01-27 16:40:07*
%MOMM*%
%LPD*%
G01*
G04 APERTURE LIST*
G04 Aperture macros list*
%AMRoundRect*
0 Rectangle with rounded corners*
0 $1 Rounding radius*
0 $2 $3 $4 $5 $6 $7 $8 $9 X,Y pos of 4 corners*
0 Add a 4 corners polygon primitive as box body*
4,1,4,$2,$3,$4,$5,$6,$7,$8,$9,$2,$3,0*
0 Add four circle primitives for the rounded corners*
1,1,$1+$1,$2,$3*
1,1,$1+$1,$4,$5*
1,1,$1+$1,$6,$7*
1,1,$1+$1,$8,$9*
0 Add four rect primitives between the rounded corners*
20,1,$1+$1,$2,$3,$4,$5,0*
20,1,$1+$1,$4,$5,$6,$7,0*
20,1,$1+$1,$6,$7,$8,$9,0*
20,1,$1+$1,$8,$9,$2,$3,0*%
G04 Aperture macros list end*
G04 #@! TA.AperFunction,SMDPad,CuDef*
%ADD10RoundRect,0.237500X0.237500X-0.300000X0.237500X0.300000X-0.237500X0.300000X-0.237500X-0.300000X0*%
G04 #@! TD*
G04 #@! TA.AperFunction,SMDPad,CuDef*
%ADD11RoundRect,0.250000X-1.500000X-0.550000X1.500000X-0.550000X1.500000X0.550000X-1.500000X0.550000X0*%
G04 #@! TD*
G04 #@! TA.AperFunction,ComponentPad*
%ADD12R,1.500000X3.000000*%
G04 #@! TD*
G04 #@! TA.AperFunction,ComponentPad*
%ADD13O,1.500000X3.000000*%
G04 #@! TD*
G04 #@! TA.AperFunction,SMDPad,CuDef*
%ADD14RoundRect,0.250000X-0.475000X0.337500X-0.475000X-0.337500X0.475000X-0.337500X0.475000X0.337500X0*%
G04 #@! TD*
G04 #@! TA.AperFunction,SMDPad,CuDef*
%ADD15R,2.000000X0.650000*%
G04 #@! TD*
G04 #@! TA.AperFunction,SMDPad,CuDef*
%ADD16R,4.500000X8.100000*%
G04 #@! TD*
G04 #@! TA.AperFunction,ComponentPad*
%ADD17R,3.000000X1.500000*%
G04 #@! TD*
G04 #@! TA.AperFunction,ComponentPad*
%ADD18O,3.000000X1.500000*%
G04 #@! TD*
G04 #@! TA.AperFunction,ViaPad*
%ADD19C,0.800000*%
G04 #@! TD*
G04 #@! TA.AperFunction,Conductor*
%ADD20C,0.610000*%
G04 #@! TD*
G04 APERTURE END LIST*
D10*
X138900000Y-67962500D03*
X138900000Y-66237500D03*
D11*
X128100000Y-51000000D03*
X133500000Y-51000000D03*
D12*
X134775000Y-68000000D03*
D13*
X132235000Y-68000000D03*
D14*
X124900000Y-50762500D03*
X124900000Y-52837500D03*
D10*
X128300000Y-67862500D03*
X128300000Y-66137500D03*
D15*
X128700000Y-56750000D03*
X128700000Y-57750000D03*
X128700000Y-58750000D03*
X128700000Y-59750000D03*
X128700000Y-60750000D03*
X128700000Y-61750000D03*
X138300000Y-61750000D03*
X138300000Y-60750000D03*
X138300000Y-59750000D03*
X138300000Y-58750000D03*
X138300000Y-57750000D03*
X138300000Y-56750000D03*
D16*
X133500000Y-59250000D03*
D17*
X144275000Y-55950000D03*
D18*
X144275000Y-58490000D03*
X144275000Y-61030000D03*
X144275000Y-63570000D03*
D17*
X122250000Y-55950000D03*
D18*
X122250000Y-58490000D03*
X122250000Y-61030000D03*
X122250000Y-63570000D03*
D19*
X142000000Y-48400000D03*
X145000000Y-51400000D03*
X145000000Y-66600000D03*
X141800000Y-69800000D03*
X124400000Y-69800000D03*
X121400000Y-67000000D03*
X121600000Y-50600000D03*
X124200000Y-48400000D03*
X123000000Y-49400000D03*
X143400000Y-49800000D03*
X143400000Y-68200000D03*
X123000000Y-68400000D03*
X130600000Y-57700000D03*
X128700000Y-60750000D03*
X128300000Y-67862500D03*
X133600000Y-64300000D03*
X128300000Y-64300000D03*
X138900000Y-64300000D03*
X138937500Y-67962500D03*
X138300000Y-61750000D03*
D20*
X130550000Y-57750000D02*
X128700000Y-57750000D01*
X130600000Y-57700000D02*
X130550000Y-57750000D01*
X122250000Y-58490000D02*
X124090000Y-58490000D01*
X124090000Y-58490000D02*
X125350000Y-59750000D01*
X127862500Y-50762500D02*
X128100000Y-51000000D01*
X124900000Y-50762500D02*
X127862500Y-50762500D01*
X122250000Y-55950000D02*
X122250000Y-52581250D01*
X124068750Y-50762500D02*
X124900000Y-50762500D01*
X125350000Y-59750000D02*
X128700000Y-59750000D01*
X122250000Y-58490000D02*
X122250000Y-55950000D01*
X122250000Y-52581250D02*
X124068750Y-50762500D01*
X128300000Y-67862500D02*
X132097500Y-67862500D01*
X126200000Y-61600000D02*
X126200000Y-67300000D01*
X126762500Y-67862500D02*
X128300000Y-67862500D01*
X128700000Y-60750000D02*
X127050000Y-60750000D01*
X127050000Y-60750000D02*
X126200000Y-61600000D01*
X126200000Y-67300000D02*
X126762500Y-67862500D01*
X132097500Y-67862500D02*
X132235000Y-68000000D01*
X134812500Y-67962500D02*
X134775000Y-68000000D01*
X139750000Y-61750000D02*
X140600000Y-62600000D01*
X140600000Y-62600000D02*
X140600000Y-67300000D01*
X138300000Y-61750000D02*
X139750000Y-61750000D01*
X140600000Y-67300000D02*
X139937500Y-67962500D01*
X138900000Y-67962500D02*
X134812500Y-67962500D01*
X138937500Y-67962500D02*
X138900000Y-67962500D01*
X139937500Y-67962500D02*
X138937500Y-67962500D01*
X142925000Y-54600000D02*
X129300000Y-54600000D01*
X128700000Y-55200000D02*
X128700000Y-56750000D01*
X129300000Y-54600000D02*
X128700000Y-55200000D01*
X144275000Y-55950000D02*
X142925000Y-54600000D01*
X143625000Y-61030000D02*
X140345000Y-57750000D01*
X144275000Y-61030000D02*
X143625000Y-61030000D01*
X140345000Y-57750000D02*
X138300000Y-57750000D01*
X143625000Y-58490000D02*
X141885000Y-56750000D01*
X144275000Y-58490000D02*
X143625000Y-58490000D01*
X141885000Y-56750000D02*
X138300000Y-56750000D01*
G04 #@! TA.AperFunction,Conductor*
G36*
X142462621Y-55179502D02*
G01*
X142509114Y-55233158D01*
X142520500Y-55285500D01*
X142520501Y-56290059D01*
X142500499Y-56358180D01*
X142446843Y-56404673D01*
X142376569Y-56414777D01*
X142311989Y-56385284D01*
X142305406Y-56379154D01*
X142291389Y-56365137D01*
X142287735Y-56361328D01*
X142266166Y-56337872D01*
X142244992Y-56314845D01*
X142207324Y-56291489D01*
X142197548Y-56284770D01*
X142169087Y-56263167D01*
X142169082Y-56263164D01*
X142162243Y-56257973D01*
X142154259Y-56254812D01*
X142154256Y-56254810D01*
X142147863Y-56252279D01*
X142127853Y-56242215D01*
X142122011Y-56238593D01*
X142122010Y-56238592D01*
X142114709Y-56234066D01*
X142087071Y-56226037D01*
X142072158Y-56221704D01*
X142060928Y-56217859D01*
X142027703Y-56204704D01*
X142027696Y-56204702D01*
X142019714Y-56201542D01*
X142011174Y-56200644D01*
X142011172Y-56200644D01*
X142004329Y-56199925D01*
X141982348Y-56195612D01*
X141973842Y-56193141D01*
X141973843Y-56193141D01*
X141967502Y-56191299D01*
X141960104Y-56190756D01*
X141958929Y-56190669D01*
X141958918Y-56190669D01*
X141956622Y-56190500D01*
X141921258Y-56190500D01*
X141908088Y-56189810D01*
X141875805Y-56186417D01*
X141867261Y-56185519D01*
X141858789Y-56186952D01*
X141858787Y-56186952D01*
X141848247Y-56188735D01*
X141827234Y-56190500D01*
X139430673Y-56190500D01*
X139399494Y-56184298D01*
X139399301Y-56185266D01*
X139331135Y-56171707D01*
X139325067Y-56170500D01*
X138300166Y-56170500D01*
X137274934Y-56170501D01*
X137239182Y-56177612D01*
X137212874Y-56182844D01*
X137212872Y-56182845D01*
X137200699Y-56185266D01*
X137190379Y-56192161D01*
X137190378Y-56192162D01*
X137171608Y-56204704D01*
X137116516Y-56241516D01*
X137109623Y-56251832D01*
X137067519Y-56314845D01*
X137060266Y-56325699D01*
X137045500Y-56399933D01*
X137045501Y-57100066D01*
X137060266Y-57174301D01*
X137067162Y-57184621D01*
X137071911Y-57196087D01*
X137069432Y-57197114D01*
X137085288Y-57247745D01*
X137069133Y-57302765D01*
X137071910Y-57303915D01*
X137067161Y-57315379D01*
X137060266Y-57325699D01*
X137045500Y-57399933D01*
X137045501Y-58100066D01*
X137052612Y-58135818D01*
X137054691Y-58146269D01*
X137060266Y-58174301D01*
X137067161Y-58184621D01*
X137067162Y-58184622D01*
X137106985Y-58244220D01*
X137116516Y-58258484D01*
X137200699Y-58314734D01*
X137274933Y-58329500D01*
X138299834Y-58329500D01*
X139325066Y-58329499D01*
X139399301Y-58314734D01*
X139399494Y-58315702D01*
X139430671Y-58309500D01*
X140061057Y-58309500D01*
X140129178Y-58329502D01*
X140150152Y-58346405D01*
X142507607Y-60703860D01*
X142541633Y-60766172D01*
X142540443Y-60824715D01*
X142527206Y-60875533D01*
X142516525Y-61079323D01*
X142547041Y-61281097D01*
X142617506Y-61472615D01*
X142725041Y-61646051D01*
X142865254Y-61794323D01*
X142870484Y-61797985D01*
X142870485Y-61797986D01*
X142962180Y-61862191D01*
X143032418Y-61911372D01*
X143219703Y-61992418D01*
X143419460Y-62034149D01*
X143424300Y-62034403D01*
X143424303Y-62034403D01*
X143424359Y-62034406D01*
X143426158Y-62034500D01*
X145075997Y-62034500D01*
X145124216Y-62029602D01*
X145221676Y-62019703D01*
X145221678Y-62019703D01*
X145228024Y-62019058D01*
X145422755Y-61958033D01*
X145601238Y-61859098D01*
X145738002Y-61741877D01*
X145802741Y-61712733D01*
X145872960Y-61723215D01*
X145926364Y-61769997D01*
X145946000Y-61837545D01*
X145946000Y-62765321D01*
X145925998Y-62833442D01*
X145872342Y-62879935D01*
X145802068Y-62890039D01*
X145737488Y-62860545D01*
X145728451Y-62851894D01*
X145689131Y-62810314D01*
X145684746Y-62805677D01*
X145627112Y-62765321D01*
X145522815Y-62692292D01*
X145522814Y-62692291D01*
X145517582Y-62688628D01*
X145330297Y-62607582D01*
X145130540Y-62565851D01*
X145125700Y-62565597D01*
X145125697Y-62565597D01*
X145125641Y-62565594D01*
X145123842Y-62565500D01*
X143474003Y-62565500D01*
X143425784Y-62570398D01*
X143328324Y-62580297D01*
X143328322Y-62580297D01*
X143321976Y-62580942D01*
X143127245Y-62641967D01*
X142948762Y-62740902D01*
X142793818Y-62873705D01*
X142668743Y-63034951D01*
X142665928Y-63040672D01*
X142581460Y-63212332D01*
X142581458Y-63212337D01*
X142578645Y-63218054D01*
X142527206Y-63415533D01*
X142516525Y-63619323D01*
X142547041Y-63821097D01*
X142617506Y-64012615D01*
X142725041Y-64186051D01*
X142865254Y-64334323D01*
X142870484Y-64337985D01*
X142870485Y-64337986D01*
X142962180Y-64402191D01*
X143032418Y-64451372D01*
X143219703Y-64532418D01*
X143419460Y-64574149D01*
X143424300Y-64574403D01*
X143424303Y-64574403D01*
X143424359Y-64574406D01*
X143426158Y-64574500D01*
X145075997Y-64574500D01*
X145124216Y-64569602D01*
X145221676Y-64559703D01*
X145221678Y-64559703D01*
X145228024Y-64559058D01*
X145422755Y-64498033D01*
X145601238Y-64399098D01*
X145738002Y-64281877D01*
X145802741Y-64252733D01*
X145872960Y-64263215D01*
X145926364Y-64309997D01*
X145946000Y-64377545D01*
X145946000Y-67042599D01*
X145925998Y-67110720D01*
X145909095Y-67131694D01*
X142431695Y-70609095D01*
X142369383Y-70643121D01*
X142342600Y-70646000D01*
X124057401Y-70646000D01*
X123989280Y-70625998D01*
X123968306Y-70609095D01*
X120490905Y-67131695D01*
X120456879Y-67069383D01*
X120454000Y-67042600D01*
X120454000Y-59151553D01*
X120474002Y-59083432D01*
X120527658Y-59036939D01*
X120597932Y-59026835D01*
X120662512Y-59056329D01*
X120687084Y-59085154D01*
X120700041Y-59106051D01*
X120840254Y-59254323D01*
X120845484Y-59257985D01*
X120845485Y-59257986D01*
X121002185Y-59367708D01*
X121007418Y-59371372D01*
X121194703Y-59452418D01*
X121394460Y-59494149D01*
X121399300Y-59494403D01*
X121399303Y-59494403D01*
X121399359Y-59494406D01*
X121401158Y-59494500D01*
X123050997Y-59494500D01*
X123099216Y-59489602D01*
X123196676Y-59479703D01*
X123196678Y-59479703D01*
X123203024Y-59479058D01*
X123397755Y-59418033D01*
X123576238Y-59319098D01*
X123731182Y-59186295D01*
X123736753Y-59179114D01*
X123758849Y-59150627D01*
X123816404Y-59109060D01*
X123887296Y-59105208D01*
X123947504Y-59138757D01*
X124943611Y-60134863D01*
X124947265Y-60138672D01*
X124990008Y-60185155D01*
X125027676Y-60208511D01*
X125037452Y-60215230D01*
X125065916Y-60236835D01*
X125065919Y-60236837D01*
X125072757Y-60242027D01*
X125080737Y-60245186D01*
X125080743Y-60245190D01*
X125087139Y-60247722D01*
X125107148Y-60257785D01*
X125120291Y-60265934D01*
X125162848Y-60278298D01*
X125174077Y-60282143D01*
X125207297Y-60295296D01*
X125207301Y-60295297D01*
X125215285Y-60298458D01*
X125223828Y-60299356D01*
X125223829Y-60299356D01*
X125226751Y-60299663D01*
X125230664Y-60300074D01*
X125252650Y-60304387D01*
X125267498Y-60308701D01*
X125274075Y-60309184D01*
X125276071Y-60309331D01*
X125276082Y-60309331D01*
X125278378Y-60309500D01*
X125313741Y-60309500D01*
X125326911Y-60310190D01*
X125359194Y-60313583D01*
X125359195Y-60313583D01*
X125367739Y-60314481D01*
X125376211Y-60313048D01*
X125376213Y-60313048D01*
X125386753Y-60311265D01*
X125407766Y-60309500D01*
X126395058Y-60309500D01*
X126463179Y-60329502D01*
X126509672Y-60383158D01*
X126519776Y-60453432D01*
X126490282Y-60518012D01*
X126484153Y-60524595D01*
X125815137Y-61193611D01*
X125811328Y-61197265D01*
X125764845Y-61240008D01*
X125743284Y-61274782D01*
X125741493Y-61277671D01*
X125734770Y-61287452D01*
X125713167Y-61315913D01*
X125713164Y-61315918D01*
X125707973Y-61322757D01*
X125704812Y-61330741D01*
X125704810Y-61330744D01*
X125702279Y-61337137D01*
X125692215Y-61357147D01*
X125689623Y-61361328D01*
X125684066Y-61370291D01*
X125681670Y-61378539D01*
X125671704Y-61412842D01*
X125667859Y-61424072D01*
X125654704Y-61457297D01*
X125654702Y-61457304D01*
X125651542Y-61465286D01*
X125650644Y-61473826D01*
X125650644Y-61473828D01*
X125649925Y-61480671D01*
X125645612Y-61502652D01*
X125641299Y-61517498D01*
X125640500Y-61528378D01*
X125640500Y-61563742D01*
X125639810Y-61576912D01*
X125635519Y-61617739D01*
X125636952Y-61626211D01*
X125636952Y-61626213D01*
X125638735Y-61636753D01*
X125640500Y-61657766D01*
X125640500Y-67284819D01*
X125640389Y-67290096D01*
X125637746Y-67353148D01*
X125640783Y-67366095D01*
X125647867Y-67396299D01*
X125650030Y-67407971D01*
X125654788Y-67442703D01*
X125656044Y-67451875D01*
X125659455Y-67459757D01*
X125659455Y-67459758D01*
X125662186Y-67466069D01*
X125669218Y-67487332D01*
X125670788Y-67494024D01*
X125672751Y-67502392D01*
X125676891Y-67509922D01*
X125676891Y-67509923D01*
X125694101Y-67541229D01*
X125699323Y-67551888D01*
X125716924Y-67592561D01*
X125722331Y-67599237D01*
X125722331Y-67599238D01*
X125726654Y-67604576D01*
X125739153Y-67623175D01*
X125746601Y-67636724D01*
X125753729Y-67644982D01*
X125778732Y-67669985D01*
X125787557Y-67679785D01*
X125813395Y-67711692D01*
X125820397Y-67716668D01*
X125820400Y-67716671D01*
X125829118Y-67722867D01*
X125845223Y-67736476D01*
X126356123Y-68247375D01*
X126359777Y-68251185D01*
X126402508Y-68297655D01*
X126440176Y-68321011D01*
X126449952Y-68327730D01*
X126478416Y-68349335D01*
X126478419Y-68349337D01*
X126485257Y-68354527D01*
X126493237Y-68357686D01*
X126493243Y-68357690D01*
X126499639Y-68360222D01*
X126519648Y-68370285D01*
X126532791Y-68378434D01*
X126575348Y-68390798D01*
X126586577Y-68394643D01*
X126619797Y-68407796D01*
X126619801Y-68407797D01*
X126627785Y-68410958D01*
X126636328Y-68411856D01*
X126636329Y-68411856D01*
X126639251Y-68412163D01*
X126643164Y-68412574D01*
X126665150Y-68416887D01*
X126679998Y-68421201D01*
X126686575Y-68421684D01*
X126688571Y-68421831D01*
X126688582Y-68421831D01*
X126690878Y-68422000D01*
X126726241Y-68422000D01*
X126739411Y-68422690D01*
X126771694Y-68426083D01*
X126771695Y-68426083D01*
X126780239Y-68426981D01*
X126788711Y-68425548D01*
X126788713Y-68425548D01*
X126799253Y-68423765D01*
X126820266Y-68422000D01*
X127579068Y-68422000D01*
X127647189Y-68442002D01*
X127679895Y-68472436D01*
X127705641Y-68506790D01*
X127705645Y-68506794D01*
X127711026Y-68513974D01*
X127823801Y-68598493D01*
X127832202Y-68601643D01*
X127832205Y-68601644D01*
X127865096Y-68613974D01*
X127955764Y-68647964D01*
X128015930Y-68654500D01*
X128584070Y-68654500D01*
X128644236Y-68647964D01*
X128734904Y-68613974D01*
X128767795Y-68601644D01*
X128767798Y-68601643D01*
X128776199Y-68598493D01*
X128888974Y-68513974D01*
X128894355Y-68506794D01*
X128894359Y-68506790D01*
X128920105Y-68472436D01*
X128976964Y-68429920D01*
X129020932Y-68422000D01*
X131104500Y-68422000D01*
X131172621Y-68442002D01*
X131219114Y-68495658D01*
X131230500Y-68548000D01*
X131230500Y-68800997D01*
X131245942Y-68953024D01*
X131306967Y-69147755D01*
X131405902Y-69326238D01*
X131538705Y-69481182D01*
X131699951Y-69606257D01*
X131705673Y-69609072D01*
X131705672Y-69609072D01*
X131877332Y-69693540D01*
X131877337Y-69693542D01*
X131883054Y-69696355D01*
X131889227Y-69697963D01*
X131889230Y-69697964D01*
X131995919Y-69725754D01*
X132080533Y-69747794D01*
X132182428Y-69753135D01*
X132277942Y-69758141D01*
X132277946Y-69758141D01*
X132284323Y-69758475D01*
X132486097Y-69727959D01*
X132677615Y-69657494D01*
X132851051Y-69549959D01*
X132999323Y-69409746D01*
X133116372Y-69242582D01*
X133197418Y-69055297D01*
X133239149Y-68855540D01*
X133239500Y-68848842D01*
X133239500Y-67199003D01*
X133226485Y-67070869D01*
X133224703Y-67053324D01*
X133224703Y-67053322D01*
X133224058Y-67046976D01*
X133163033Y-66852245D01*
X133064098Y-66673762D01*
X132931295Y-66518818D01*
X132874719Y-66474933D01*
X133770500Y-66474933D01*
X133770501Y-69525066D01*
X133785266Y-69599301D01*
X133841516Y-69683484D01*
X133925699Y-69739734D01*
X133999933Y-69754500D01*
X134774874Y-69754500D01*
X135550066Y-69754499D01*
X135591877Y-69746183D01*
X135612126Y-69742156D01*
X135612128Y-69742155D01*
X135624301Y-69739734D01*
X135634621Y-69732839D01*
X135634622Y-69732838D01*
X135698168Y-69690377D01*
X135708484Y-69683484D01*
X135764734Y-69599301D01*
X135779500Y-69525067D01*
X135779500Y-68648000D01*
X135799502Y-68579879D01*
X135853158Y-68533386D01*
X135905500Y-68522000D01*
X138179068Y-68522000D01*
X138247189Y-68542002D01*
X138279895Y-68572436D01*
X138305641Y-68606790D01*
X138305645Y-68606794D01*
X138311026Y-68613974D01*
X138423801Y-68698493D01*
X138432202Y-68701643D01*
X138432205Y-68701644D01*
X138510613Y-68731037D01*
X138555764Y-68747964D01*
X138615930Y-68754500D01*
X139184070Y-68754500D01*
X139244236Y-68747964D01*
X139289387Y-68731037D01*
X139367795Y-68701644D01*
X139367798Y-68701643D01*
X139376199Y-68698493D01*
X139488974Y-68613974D01*
X139494355Y-68606794D01*
X139494359Y-68606790D01*
X139520105Y-68572436D01*
X139576964Y-68529920D01*
X139620932Y-68522000D01*
X139922319Y-68522000D01*
X139927596Y-68522111D01*
X139990648Y-68524754D01*
X140033802Y-68514632D01*
X140045468Y-68512471D01*
X140055676Y-68511072D01*
X140080866Y-68507622D01*
X140080869Y-68507621D01*
X140089375Y-68506456D01*
X140097257Y-68503045D01*
X140097258Y-68503045D01*
X140103569Y-68500314D01*
X140124832Y-68493282D01*
X140131524Y-68491712D01*
X140131526Y-68491711D01*
X140139892Y-68489749D01*
X140147423Y-68485609D01*
X140178729Y-68468399D01*
X140189388Y-68463177D01*
X140222177Y-68448988D01*
X140222178Y-68448987D01*
X140230061Y-68445576D01*
X140242076Y-68435846D01*
X140260677Y-68423346D01*
X140274224Y-68415899D01*
X140282482Y-68408771D01*
X140307485Y-68383768D01*
X140317285Y-68374943D01*
X140335464Y-68360222D01*
X140349192Y-68349105D01*
X140360366Y-68333381D01*
X140373979Y-68317273D01*
X140984863Y-67706389D01*
X140988672Y-67702735D01*
X141013630Y-67679785D01*
X141035155Y-67659992D01*
X141043448Y-67646618D01*
X141058510Y-67622324D01*
X141065234Y-67612540D01*
X141086834Y-67584083D01*
X141092026Y-67577243D01*
X141095189Y-67569254D01*
X141097719Y-67562865D01*
X141107784Y-67542854D01*
X141111405Y-67537014D01*
X141111406Y-67537011D01*
X141115934Y-67529709D01*
X141121683Y-67509923D01*
X141128300Y-67487147D01*
X141132145Y-67475918D01*
X141145296Y-67442703D01*
X141145297Y-67442699D01*
X141148458Y-67434715D01*
X141150074Y-67419336D01*
X141154388Y-67397346D01*
X141154693Y-67396299D01*
X141158701Y-67382502D01*
X141159500Y-67371622D01*
X141159500Y-67336259D01*
X141160190Y-67323089D01*
X141163583Y-67290806D01*
X141163583Y-67290805D01*
X141164481Y-67282261D01*
X141161265Y-67263247D01*
X141159500Y-67242234D01*
X141159500Y-62615182D01*
X141159611Y-62609905D01*
X141161416Y-62566843D01*
X141162254Y-62546852D01*
X141160292Y-62538487D01*
X141152132Y-62503695D01*
X141149969Y-62492023D01*
X141145122Y-62456640D01*
X141143956Y-62448125D01*
X141137818Y-62433941D01*
X141130781Y-62412665D01*
X141129212Y-62405973D01*
X141129211Y-62405970D01*
X141127250Y-62397609D01*
X141123112Y-62390082D01*
X141123110Y-62390077D01*
X141105899Y-62358771D01*
X141100676Y-62348111D01*
X141087280Y-62317155D01*
X141083076Y-62307439D01*
X141073342Y-62295419D01*
X141060844Y-62276820D01*
X141056578Y-62269059D01*
X141056577Y-62269057D01*
X141053399Y-62263277D01*
X141046271Y-62255018D01*
X141021268Y-62230015D01*
X141012443Y-62220215D01*
X140992011Y-62194984D01*
X140986605Y-62188308D01*
X140970881Y-62177134D01*
X140954773Y-62163521D01*
X140156389Y-61365137D01*
X140152735Y-61361328D01*
X140122356Y-61328291D01*
X140109992Y-61314845D01*
X140072324Y-61291489D01*
X140062548Y-61284770D01*
X140034087Y-61263167D01*
X140034082Y-61263164D01*
X140027243Y-61257973D01*
X140019259Y-61254812D01*
X140019256Y-61254810D01*
X140012863Y-61252279D01*
X139992853Y-61242215D01*
X139987011Y-61238593D01*
X139987010Y-61238592D01*
X139979709Y-61234066D01*
X139952071Y-61226037D01*
X139937158Y-61221704D01*
X139925928Y-61217859D01*
X139892703Y-61204704D01*
X139892696Y-61204702D01*
X139884714Y-61201542D01*
X139876174Y-61200644D01*
X139876172Y-61200644D01*
X139869329Y-61199925D01*
X139847348Y-61195612D01*
X139838842Y-61193141D01*
X139838843Y-61193141D01*
X139832502Y-61191299D01*
X139825104Y-61190756D01*
X139823929Y-61190669D01*
X139823918Y-61190669D01*
X139821622Y-61190500D01*
X139786258Y-61190500D01*
X139773088Y-61189810D01*
X139740805Y-61186417D01*
X139732261Y-61185519D01*
X139723789Y-61186952D01*
X139723787Y-61186952D01*
X139713247Y-61188735D01*
X139692234Y-61190500D01*
X139430673Y-61190500D01*
X139399494Y-61184298D01*
X139399301Y-61185266D01*
X139331135Y-61171707D01*
X139325067Y-61170500D01*
X138635596Y-61170500D01*
X138576637Y-61155855D01*
X138536274Y-61134484D01*
X138382633Y-61095892D01*
X138375034Y-61095852D01*
X138375033Y-61095852D01*
X138309181Y-61095507D01*
X138224221Y-61095062D01*
X138216841Y-61096834D01*
X138216839Y-61096834D01*
X138077569Y-61130270D01*
X138070184Y-61132043D01*
X138022865Y-61156466D01*
X137965076Y-61170501D01*
X137274934Y-61170501D01*
X137239182Y-61177612D01*
X137212874Y-61182844D01*
X137212872Y-61182845D01*
X137200699Y-61185266D01*
X137190379Y-61192161D01*
X137190378Y-61192162D01*
X137171608Y-61204704D01*
X137116516Y-61241516D01*
X137109623Y-61251832D01*
X137067519Y-61314845D01*
X137060266Y-61325699D01*
X137045500Y-61399933D01*
X137045501Y-62100066D01*
X137060266Y-62174301D01*
X137116516Y-62258484D01*
X137200699Y-62314734D01*
X137274933Y-62329500D01*
X137963579Y-62329500D01*
X138023701Y-62344769D01*
X138057293Y-62363008D01*
X138210522Y-62403207D01*
X138294477Y-62404526D01*
X138361319Y-62405576D01*
X138361322Y-62405576D01*
X138368916Y-62405695D01*
X138523332Y-62370329D01*
X138567507Y-62348111D01*
X138577801Y-62342934D01*
X138634415Y-62329499D01*
X139325066Y-62329499D01*
X139399301Y-62314734D01*
X139399494Y-62315702D01*
X139430671Y-62309500D01*
X139466057Y-62309500D01*
X139534178Y-62329502D01*
X139555152Y-62346405D01*
X140003595Y-62794848D01*
X140037621Y-62857160D01*
X140040500Y-62883943D01*
X140040500Y-67016058D01*
X140020498Y-67084179D01*
X140003595Y-67105153D01*
X139742653Y-67366095D01*
X139680341Y-67400121D01*
X139653558Y-67403000D01*
X139620932Y-67403000D01*
X139552811Y-67382998D01*
X139520105Y-67352564D01*
X139494359Y-67318210D01*
X139494355Y-67318206D01*
X139488974Y-67311026D01*
X139376199Y-67226507D01*
X139367798Y-67223357D01*
X139367795Y-67223356D01*
X139289387Y-67193963D01*
X139244236Y-67177036D01*
X139184070Y-67170500D01*
X138615930Y-67170500D01*
X138555764Y-67177036D01*
X138510613Y-67193963D01*
X138432205Y-67223356D01*
X138432202Y-67223357D01*
X138423801Y-67226507D01*
X138311026Y-67311026D01*
X138305645Y-67318206D01*
X138305641Y-67318210D01*
X138279895Y-67352564D01*
X138223036Y-67395080D01*
X138179068Y-67403000D01*
X135905499Y-67403000D01*
X135837378Y-67382998D01*
X135790885Y-67329342D01*
X135779499Y-67277000D01*
X135779499Y-66474934D01*
X135764734Y-66400699D01*
X135708484Y-66316516D01*
X135624301Y-66260266D01*
X135550067Y-66245500D01*
X134775126Y-66245500D01*
X133999934Y-66245501D01*
X133967902Y-66251872D01*
X133937874Y-66257844D01*
X133937872Y-66257845D01*
X133925699Y-66260266D01*
X133915379Y-66267161D01*
X133915378Y-66267162D01*
X133863187Y-66302036D01*
X133841516Y-66316516D01*
X133785266Y-66400699D01*
X133770500Y-66474933D01*
X132874719Y-66474933D01*
X132770049Y-66393743D01*
X132661439Y-66340300D01*
X132592668Y-66306460D01*
X132592663Y-66306458D01*
X132586946Y-66303645D01*
X132580773Y-66302037D01*
X132580770Y-66302036D01*
X132446884Y-66267162D01*
X132389467Y-66252206D01*
X132284548Y-66246707D01*
X132192058Y-66241859D01*
X132192054Y-66241859D01*
X132185677Y-66241525D01*
X131983903Y-66272041D01*
X131792385Y-66342506D01*
X131618949Y-66450041D01*
X131470677Y-66590254D01*
X131353628Y-66757418D01*
X131272582Y-66944703D01*
X131230851Y-67144460D01*
X131230500Y-67151158D01*
X131230500Y-67177000D01*
X131210498Y-67245121D01*
X131156842Y-67291614D01*
X131104500Y-67303000D01*
X129020932Y-67303000D01*
X128952811Y-67282998D01*
X128920105Y-67252564D01*
X128894359Y-67218210D01*
X128894355Y-67218206D01*
X128888974Y-67211026D01*
X128776199Y-67126507D01*
X128767798Y-67123357D01*
X128767795Y-67123356D01*
X128689387Y-67093963D01*
X128644236Y-67077036D01*
X128584070Y-67070500D01*
X128015930Y-67070500D01*
X127955764Y-67077036D01*
X127910613Y-67093963D01*
X127832205Y-67123356D01*
X127832202Y-67123357D01*
X127823801Y-67126507D01*
X127711026Y-67211026D01*
X127705645Y-67218206D01*
X127705641Y-67218210D01*
X127679895Y-67252564D01*
X127623036Y-67295080D01*
X127579068Y-67303000D01*
X127046444Y-67303000D01*
X126978323Y-67282998D01*
X126957349Y-67266096D01*
X126796405Y-67105153D01*
X126762380Y-67042841D01*
X126759500Y-67016057D01*
X126759500Y-61883943D01*
X126779502Y-61815822D01*
X126796405Y-61794848D01*
X127244848Y-61346405D01*
X127307160Y-61312379D01*
X127333943Y-61309500D01*
X127569327Y-61309500D01*
X127600506Y-61315702D01*
X127600699Y-61314734D01*
X127674933Y-61329500D01*
X128363579Y-61329500D01*
X128423701Y-61344769D01*
X128457293Y-61363008D01*
X128610522Y-61403207D01*
X128694477Y-61404526D01*
X128761319Y-61405576D01*
X128761322Y-61405576D01*
X128768916Y-61405695D01*
X128923332Y-61370329D01*
X128968541Y-61347591D01*
X128977801Y-61342934D01*
X129034415Y-61329499D01*
X129725066Y-61329499D01*
X129760818Y-61322388D01*
X129787126Y-61317156D01*
X129787128Y-61317155D01*
X129799301Y-61314734D01*
X129809621Y-61307839D01*
X129809622Y-61307838D01*
X129873168Y-61265377D01*
X129883484Y-61258484D01*
X129922612Y-61199925D01*
X129932839Y-61184620D01*
X129939734Y-61174301D01*
X129954500Y-61100067D01*
X129954499Y-60399934D01*
X129944575Y-60350039D01*
X129942156Y-60337874D01*
X129942155Y-60337872D01*
X129939734Y-60325699D01*
X129932838Y-60315379D01*
X129928089Y-60303913D01*
X129930568Y-60302886D01*
X129914712Y-60252255D01*
X129930867Y-60197235D01*
X129928090Y-60196085D01*
X129932839Y-60184621D01*
X129939734Y-60174301D01*
X129954500Y-60100067D01*
X129954499Y-59399934D01*
X129939734Y-59325699D01*
X129932838Y-59315379D01*
X129928089Y-59303913D01*
X129930568Y-59302886D01*
X129914712Y-59252255D01*
X129930867Y-59197235D01*
X129928090Y-59196085D01*
X129932839Y-59184621D01*
X129939734Y-59174301D01*
X129954500Y-59100067D01*
X129954499Y-58435500D01*
X129974501Y-58367379D01*
X130028157Y-58320886D01*
X130080499Y-58309500D01*
X130327667Y-58309500D01*
X130359641Y-58313624D01*
X130510522Y-58353207D01*
X130594477Y-58354526D01*
X130661319Y-58355576D01*
X130661322Y-58355576D01*
X130668916Y-58355695D01*
X130823332Y-58320329D01*
X130894141Y-58284716D01*
X130958072Y-58252563D01*
X130958075Y-58252561D01*
X130964855Y-58249151D01*
X130970626Y-58244222D01*
X130970629Y-58244220D01*
X131079536Y-58151204D01*
X131079536Y-58151203D01*
X131085314Y-58146269D01*
X131177755Y-58017624D01*
X131236842Y-57870641D01*
X131259162Y-57713807D01*
X131259307Y-57700000D01*
X131240276Y-57542733D01*
X131184280Y-57394546D01*
X131145329Y-57337872D01*
X131098855Y-57270251D01*
X131098854Y-57270249D01*
X131094553Y-57263992D01*
X130976275Y-57158611D01*
X130968889Y-57154700D01*
X130842988Y-57088039D01*
X130842989Y-57088039D01*
X130836274Y-57084484D01*
X130682633Y-57045892D01*
X130675034Y-57045852D01*
X130675033Y-57045852D01*
X130609181Y-57045507D01*
X130524221Y-57045062D01*
X130516841Y-57046834D01*
X130516839Y-57046834D01*
X130377563Y-57080271D01*
X130377560Y-57080272D01*
X130370184Y-57082043D01*
X130229414Y-57154700D01*
X130223694Y-57159690D01*
X130217406Y-57163963D01*
X130216635Y-57162828D01*
X130159486Y-57189157D01*
X130141140Y-57190500D01*
X130080500Y-57190500D01*
X130012379Y-57170498D01*
X129965886Y-57116842D01*
X129954500Y-57064500D01*
X129954499Y-56406123D01*
X129954499Y-56399934D01*
X129939734Y-56325699D01*
X129932482Y-56314845D01*
X129890377Y-56251832D01*
X129883484Y-56241516D01*
X129799301Y-56185266D01*
X129725067Y-56170500D01*
X129385500Y-56170500D01*
X129317379Y-56150498D01*
X129270886Y-56096842D01*
X129259500Y-56044500D01*
X129259500Y-55483944D01*
X129279502Y-55415823D01*
X129296404Y-55394849D01*
X129494847Y-55196405D01*
X129557159Y-55162380D01*
X129583943Y-55159500D01*
X142394500Y-55159500D01*
X142462621Y-55179502D01*
G37*
G04 #@! TD.AperFunction*
G04 #@! TA.AperFunction,Conductor*
G36*
X142410721Y-47574002D02*
G01*
X142431695Y-47590905D01*
X145909095Y-51068306D01*
X145943121Y-51130618D01*
X145946000Y-51157401D01*
X145946000Y-54821463D01*
X145925998Y-54889584D01*
X145872342Y-54936077D01*
X145807651Y-54946856D01*
X145806132Y-54946706D01*
X145800067Y-54945500D01*
X145615888Y-54945500D01*
X144113943Y-54945501D01*
X144045822Y-54925499D01*
X144024848Y-54908596D01*
X143331389Y-54215137D01*
X143327735Y-54211328D01*
X143324328Y-54207623D01*
X143284992Y-54164845D01*
X143247324Y-54141489D01*
X143237548Y-54134770D01*
X143209087Y-54113167D01*
X143209082Y-54113164D01*
X143202243Y-54107973D01*
X143194259Y-54104812D01*
X143194256Y-54104810D01*
X143187863Y-54102279D01*
X143167853Y-54092215D01*
X143162011Y-54088593D01*
X143162010Y-54088592D01*
X143154709Y-54084066D01*
X143127071Y-54076037D01*
X143112158Y-54071704D01*
X143100928Y-54067859D01*
X143067703Y-54054704D01*
X143067696Y-54054702D01*
X143059714Y-54051542D01*
X143051174Y-54050644D01*
X143051172Y-54050644D01*
X143044329Y-54049925D01*
X143022348Y-54045612D01*
X143013842Y-54043141D01*
X143013843Y-54043141D01*
X143007502Y-54041299D01*
X143000104Y-54040756D01*
X142998929Y-54040669D01*
X142998918Y-54040669D01*
X142996622Y-54040500D01*
X142961258Y-54040500D01*
X142948088Y-54039810D01*
X142915805Y-54036417D01*
X142907261Y-54035519D01*
X142898789Y-54036952D01*
X142898787Y-54036952D01*
X142888247Y-54038735D01*
X142867234Y-54040500D01*
X129315181Y-54040500D01*
X129309904Y-54040389D01*
X129309252Y-54040362D01*
X129246852Y-54037746D01*
X129203698Y-54047868D01*
X129192032Y-54050029D01*
X129187546Y-54050644D01*
X129156634Y-54054878D01*
X129156631Y-54054879D01*
X129148125Y-54056044D01*
X129140243Y-54059455D01*
X129140242Y-54059455D01*
X129133931Y-54062186D01*
X129112668Y-54069218D01*
X129105976Y-54070788D01*
X129105974Y-54070789D01*
X129097608Y-54072751D01*
X129090078Y-54076891D01*
X129090077Y-54076891D01*
X129058771Y-54094101D01*
X129048112Y-54099323D01*
X129015323Y-54113512D01*
X129015322Y-54113513D01*
X129007439Y-54116924D01*
X129000763Y-54122331D01*
X129000762Y-54122331D01*
X128995424Y-54126654D01*
X128976825Y-54139153D01*
X128963276Y-54146601D01*
X128955018Y-54153729D01*
X128930015Y-54178732D01*
X128920215Y-54187557D01*
X128888308Y-54213395D01*
X128883333Y-54220396D01*
X128883332Y-54220397D01*
X128877134Y-54229119D01*
X128863521Y-54245227D01*
X128315137Y-54793611D01*
X128311328Y-54797265D01*
X128264845Y-54840008D01*
X128245107Y-54871842D01*
X128241493Y-54877671D01*
X128234770Y-54887452D01*
X128213167Y-54915913D01*
X128213164Y-54915918D01*
X128207973Y-54922757D01*
X128204812Y-54930741D01*
X128204810Y-54930744D01*
X128202279Y-54937137D01*
X128192215Y-54957147D01*
X128188593Y-54962989D01*
X128184066Y-54970291D01*
X128181670Y-54978539D01*
X128171704Y-55012842D01*
X128167859Y-55024072D01*
X128154704Y-55057297D01*
X128154702Y-55057304D01*
X128151542Y-55065286D01*
X128150644Y-55073826D01*
X128150644Y-55073828D01*
X128149925Y-55080671D01*
X128145612Y-55102652D01*
X128141299Y-55117498D01*
X128140500Y-55128378D01*
X128140500Y-55163742D01*
X128139810Y-55176912D01*
X128135519Y-55217739D01*
X128136952Y-55226211D01*
X128136952Y-55226213D01*
X128138735Y-55236753D01*
X128140500Y-55257766D01*
X128140500Y-56044501D01*
X128120498Y-56112622D01*
X128066842Y-56159115D01*
X128014500Y-56170501D01*
X127674934Y-56170501D01*
X127639182Y-56177612D01*
X127612874Y-56182844D01*
X127612872Y-56182845D01*
X127600699Y-56185266D01*
X127590379Y-56192161D01*
X127590378Y-56192162D01*
X127571608Y-56204704D01*
X127516516Y-56241516D01*
X127509623Y-56251832D01*
X127467519Y-56314845D01*
X127460266Y-56325699D01*
X127445500Y-56399933D01*
X127445501Y-57100066D01*
X127460266Y-57174301D01*
X127467162Y-57184621D01*
X127471911Y-57196087D01*
X127469432Y-57197114D01*
X127485288Y-57247745D01*
X127469133Y-57302765D01*
X127471910Y-57303915D01*
X127467161Y-57315379D01*
X127460266Y-57325699D01*
X127445500Y-57399933D01*
X127445501Y-58100066D01*
X127452612Y-58135818D01*
X127454691Y-58146269D01*
X127460266Y-58174301D01*
X127467162Y-58184621D01*
X127471911Y-58196087D01*
X127469432Y-58197114D01*
X127485288Y-58247745D01*
X127469133Y-58302765D01*
X127471910Y-58303915D01*
X127467161Y-58315379D01*
X127460266Y-58325699D01*
X127445500Y-58399933D01*
X127445501Y-58747090D01*
X127445501Y-59064500D01*
X127425499Y-59132621D01*
X127371843Y-59179114D01*
X127319501Y-59190500D01*
X125633943Y-59190500D01*
X125565822Y-59170498D01*
X125544848Y-59153595D01*
X124496389Y-58105137D01*
X124492735Y-58101328D01*
X124455805Y-58061167D01*
X124449992Y-58054845D01*
X124412324Y-58031489D01*
X124402548Y-58024770D01*
X124374087Y-58003167D01*
X124374082Y-58003164D01*
X124367243Y-57997973D01*
X124359259Y-57994812D01*
X124359256Y-57994810D01*
X124352863Y-57992279D01*
X124332853Y-57982215D01*
X124327011Y-57978593D01*
X124327010Y-57978592D01*
X124319709Y-57974066D01*
X124292071Y-57966037D01*
X124277158Y-57961704D01*
X124265928Y-57957859D01*
X124232703Y-57944704D01*
X124232696Y-57944702D01*
X124224714Y-57941542D01*
X124216174Y-57940644D01*
X124216172Y-57940644D01*
X124209329Y-57939925D01*
X124187348Y-57935612D01*
X124178842Y-57933141D01*
X124178843Y-57933141D01*
X124172502Y-57931299D01*
X124165104Y-57930756D01*
X124163929Y-57930669D01*
X124163918Y-57930669D01*
X124161622Y-57930500D01*
X124126258Y-57930500D01*
X124113088Y-57929810D01*
X124080805Y-57926417D01*
X124072261Y-57925519D01*
X124063789Y-57926952D01*
X124063787Y-57926952D01*
X124053247Y-57928735D01*
X124032234Y-57930500D01*
X123904695Y-57930500D01*
X123836574Y-57910498D01*
X123804866Y-57881377D01*
X123803319Y-57879368D01*
X123799959Y-57873949D01*
X123724077Y-57793705D01*
X123664131Y-57730314D01*
X123659746Y-57725677D01*
X123648627Y-57717891D01*
X123497815Y-57612292D01*
X123497814Y-57612291D01*
X123492582Y-57608628D01*
X123305297Y-57527582D01*
X123105540Y-57485851D01*
X123100700Y-57485597D01*
X123100697Y-57485597D01*
X123100641Y-57485594D01*
X123098842Y-57485500D01*
X122935500Y-57485500D01*
X122867379Y-57465498D01*
X122820886Y-57411842D01*
X122809500Y-57359500D01*
X122809500Y-57080499D01*
X122829502Y-57012378D01*
X122883158Y-56965885D01*
X122935500Y-56954499D01*
X123775066Y-56954499D01*
X123810818Y-56947388D01*
X123837126Y-56942156D01*
X123837128Y-56942155D01*
X123849301Y-56939734D01*
X123859621Y-56932839D01*
X123859622Y-56932838D01*
X123923168Y-56890377D01*
X123933484Y-56883484D01*
X123989734Y-56799301D01*
X124004500Y-56725067D01*
X124004499Y-55174934D01*
X123997388Y-55139182D01*
X123992156Y-55112874D01*
X123992155Y-55112872D01*
X123989734Y-55100699D01*
X123966072Y-55065286D01*
X123940377Y-55026832D01*
X123933484Y-55016516D01*
X123849301Y-54960266D01*
X123775067Y-54945500D01*
X122935500Y-54945500D01*
X122867379Y-54925498D01*
X122820886Y-54871842D01*
X122809500Y-54819500D01*
X122809500Y-52865193D01*
X122829502Y-52797072D01*
X122846405Y-52776098D01*
X123445759Y-52176744D01*
X124046674Y-51575828D01*
X124108986Y-51541803D01*
X124179801Y-51546867D01*
X124180217Y-51547057D01*
X124180236Y-51547071D01*
X124256946Y-51575828D01*
X124308157Y-51595026D01*
X124308159Y-51595026D01*
X124315552Y-51597798D01*
X124323402Y-51598651D01*
X124323403Y-51598651D01*
X124373847Y-51604131D01*
X124377244Y-51604500D01*
X125422756Y-51604500D01*
X125426153Y-51604131D01*
X125476597Y-51598651D01*
X125476598Y-51598651D01*
X125484448Y-51597798D01*
X125491841Y-51595026D01*
X125491843Y-51595026D01*
X125543054Y-51575828D01*
X125619764Y-51547071D01*
X125626943Y-51541691D01*
X125626946Y-51541689D01*
X125728224Y-51465785D01*
X125735404Y-51460404D01*
X125801333Y-51372435D01*
X125858192Y-51329920D01*
X125902159Y-51322000D01*
X125969500Y-51322000D01*
X126037621Y-51342002D01*
X126084114Y-51395658D01*
X126095500Y-51448000D01*
X126095500Y-51597756D01*
X126102202Y-51659448D01*
X126152929Y-51794764D01*
X126158309Y-51801943D01*
X126158311Y-51801946D01*
X126224287Y-51889977D01*
X126239596Y-51910404D01*
X126246776Y-51915785D01*
X126348054Y-51991689D01*
X126348057Y-51991691D01*
X126355236Y-51997071D01*
X126444954Y-52030704D01*
X126483157Y-52045026D01*
X126483159Y-52045026D01*
X126490552Y-52047798D01*
X126498402Y-52048651D01*
X126498403Y-52048651D01*
X126548847Y-52054131D01*
X126552244Y-52054500D01*
X129647756Y-52054500D01*
X129651153Y-52054131D01*
X129701597Y-52048651D01*
X129701598Y-52048651D01*
X129709448Y-52047798D01*
X129716841Y-52045026D01*
X129716843Y-52045026D01*
X129755046Y-52030704D01*
X129844764Y-51997071D01*
X129851943Y-51991691D01*
X129851946Y-51991689D01*
X129953224Y-51915785D01*
X129960404Y-51910404D01*
X129975713Y-51889977D01*
X130041689Y-51801946D01*
X130041691Y-51801943D01*
X130047071Y-51794764D01*
X130097798Y-51659448D01*
X130104500Y-51597756D01*
X130104500Y-50402244D01*
X130097798Y-50340552D01*
X130087624Y-50313411D01*
X130073603Y-50276012D01*
X130047071Y-50205236D01*
X130041691Y-50198057D01*
X130041689Y-50198054D01*
X129965785Y-50096776D01*
X129965784Y-50096775D01*
X129960404Y-50089596D01*
X129936627Y-50071776D01*
X129851946Y-50008311D01*
X129851943Y-50008309D01*
X129844764Y-50002929D01*
X129755046Y-49969296D01*
X129716843Y-49954974D01*
X129716841Y-49954974D01*
X129709448Y-49952202D01*
X129701598Y-49951349D01*
X129701597Y-49951349D01*
X129651153Y-49945869D01*
X129651152Y-49945869D01*
X129647756Y-49945500D01*
X126552244Y-49945500D01*
X126548848Y-49945869D01*
X126548847Y-49945869D01*
X126498403Y-49951349D01*
X126498402Y-49951349D01*
X126490552Y-49952202D01*
X126483159Y-49954974D01*
X126483157Y-49954974D01*
X126444954Y-49969296D01*
X126355236Y-50002929D01*
X126348057Y-50008309D01*
X126348054Y-50008311D01*
X126263373Y-50071776D01*
X126239596Y-50089596D01*
X126192404Y-50152565D01*
X126135546Y-50195080D01*
X126091578Y-50203000D01*
X125902159Y-50203000D01*
X125834038Y-50182998D01*
X125801333Y-50152565D01*
X125740785Y-50071776D01*
X125735404Y-50064596D01*
X125648919Y-49999779D01*
X125626946Y-49983311D01*
X125626943Y-49983309D01*
X125619764Y-49977929D01*
X125530046Y-49944296D01*
X125491843Y-49929974D01*
X125491841Y-49929974D01*
X125484448Y-49927202D01*
X125476598Y-49926349D01*
X125476597Y-49926349D01*
X125426153Y-49920869D01*
X125426152Y-49920869D01*
X125422756Y-49920500D01*
X124377244Y-49920500D01*
X124373848Y-49920869D01*
X124373847Y-49920869D01*
X124323403Y-49926349D01*
X124323402Y-49926349D01*
X124315552Y-49927202D01*
X124308159Y-49929974D01*
X124308157Y-49929974D01*
X124269954Y-49944296D01*
X124180236Y-49977929D01*
X124173057Y-49983309D01*
X124173054Y-49983311D01*
X124151081Y-49999779D01*
X124064596Y-50064596D01*
X124049893Y-50084215D01*
X123982318Y-50174380D01*
X123925459Y-50216895D01*
X123922944Y-50217713D01*
X123916875Y-50218544D01*
X123908988Y-50221957D01*
X123902681Y-50224686D01*
X123881418Y-50231718D01*
X123874722Y-50233289D01*
X123874720Y-50233290D01*
X123866358Y-50235251D01*
X123858836Y-50239387D01*
X123858832Y-50239388D01*
X123827528Y-50256599D01*
X123816862Y-50261824D01*
X123784073Y-50276012D01*
X123784071Y-50276013D01*
X123776189Y-50279424D01*
X123769514Y-50284830D01*
X123769513Y-50284830D01*
X123764170Y-50289157D01*
X123745574Y-50301654D01*
X123732027Y-50309101D01*
X123723768Y-50316229D01*
X123698765Y-50341232D01*
X123688965Y-50350057D01*
X123657058Y-50375895D01*
X123652084Y-50382894D01*
X123645885Y-50391617D01*
X123632274Y-50407723D01*
X121865137Y-52174861D01*
X121861328Y-52178515D01*
X121814845Y-52221258D01*
X121791493Y-52258921D01*
X121784770Y-52268702D01*
X121763167Y-52297163D01*
X121763164Y-52297168D01*
X121757973Y-52304007D01*
X121754812Y-52311991D01*
X121754810Y-52311994D01*
X121752279Y-52318387D01*
X121742215Y-52338397D01*
X121734066Y-52351541D01*
X121731670Y-52359789D01*
X121721704Y-52394092D01*
X121717859Y-52405322D01*
X121704704Y-52438547D01*
X121704702Y-52438554D01*
X121701542Y-52446536D01*
X121700644Y-52455076D01*
X121700644Y-52455078D01*
X121699925Y-52461921D01*
X121695612Y-52483902D01*
X121691299Y-52498748D01*
X121690500Y-52509628D01*
X121690500Y-52544992D01*
X121689810Y-52558162D01*
X121685519Y-52598989D01*
X121686952Y-52607461D01*
X121686952Y-52607463D01*
X121688735Y-52618003D01*
X121690500Y-52639016D01*
X121690500Y-54819501D01*
X121670498Y-54887622D01*
X121616842Y-54934115D01*
X121564500Y-54945501D01*
X120724934Y-54945501D01*
X120689182Y-54952612D01*
X120662874Y-54957844D01*
X120662872Y-54957845D01*
X120650699Y-54960266D01*
X120640379Y-54967162D01*
X120628913Y-54971911D01*
X120627234Y-54967858D01*
X120582284Y-54981946D01*
X120513812Y-54963182D01*
X120466354Y-54910378D01*
X120454000Y-54855967D01*
X120454000Y-51157400D01*
X120474002Y-51089279D01*
X120490905Y-51068305D01*
X123968306Y-47590905D01*
X124030618Y-47556879D01*
X124057401Y-47554000D01*
X142342600Y-47554000D01*
X142410721Y-47574002D01*
G37*
G04 #@! TD.AperFunction*
M02*
