G04 #@! TF.GenerationSoftware,KiCad,Pcbnew,6.0.2-378541a8eb~116~ubuntu20.04.1*
G04 #@! TF.CreationDate,2023-01-27T16:40:07+01:00*
G04 #@! TF.ProjectId,BUCKY_MOTOR_DRIVER,4255434b-595f-44d4-9f54-4f525f445249,rev?*
G04 #@! TF.SameCoordinates,Original*
G04 #@! TF.FileFunction,Legend,Bot*
G04 #@! TF.FilePolarity,Positive*
%FSLAX46Y46*%
G04 Gerber Fmt 4.6, Leading zero omitted, Abs format (unit mm)*
G04 Created by KiCad (PCBNEW 6.0.2-378541a8eb~116~ubuntu20.04.1) date 2023-01-27 16:40:07*
%MOMM*%
%LPD*%
G01*
G04 APERTURE LIST*
%ADD10C,0.100000*%
%ADD11C,0.150000*%
%ADD12C,0.120000*%
%ADD13R,1.500000X3.000000*%
%ADD14O,1.500000X3.000000*%
%ADD15R,3.000000X1.500000*%
%ADD16O,3.000000X1.500000*%
G04 APERTURE END LIST*
D10*
X136690476Y-65476190D02*
X136690476Y-65833333D01*
X136714285Y-65904761D01*
X136761904Y-65952380D01*
X136833333Y-65976190D01*
X136880952Y-65976190D01*
X136238095Y-65642857D02*
X136238095Y-65976190D01*
X136452380Y-65642857D02*
X136452380Y-65904761D01*
X136428571Y-65952380D01*
X136380952Y-65976190D01*
X136309523Y-65976190D01*
X136261904Y-65952380D01*
X136238095Y-65928571D01*
X136000000Y-65976190D02*
X136000000Y-65642857D01*
X136000000Y-65476190D02*
X136023809Y-65500000D01*
X136000000Y-65523809D01*
X135976190Y-65500000D01*
X136000000Y-65476190D01*
X136000000Y-65523809D01*
X135547619Y-65952380D02*
X135595238Y-65976190D01*
X135690476Y-65976190D01*
X135738095Y-65952380D01*
X135761904Y-65928571D01*
X135785714Y-65880952D01*
X135785714Y-65738095D01*
X135761904Y-65690476D01*
X135738095Y-65666666D01*
X135690476Y-65642857D01*
X135595238Y-65642857D01*
X135547619Y-65666666D01*
X135142857Y-65952380D02*
X135190476Y-65976190D01*
X135285714Y-65976190D01*
X135333333Y-65952380D01*
X135357142Y-65904761D01*
X135357142Y-65714285D01*
X135333333Y-65666666D01*
X135285714Y-65642857D01*
X135190476Y-65642857D01*
X135142857Y-65666666D01*
X135119047Y-65714285D01*
X135119047Y-65761904D01*
X135357142Y-65809523D01*
X134452380Y-65976190D02*
X134500000Y-65952380D01*
X134523809Y-65904761D01*
X134523809Y-65476190D01*
X134071428Y-65952380D02*
X134119047Y-65976190D01*
X134214285Y-65976190D01*
X134261904Y-65952380D01*
X134285714Y-65904761D01*
X134285714Y-65714285D01*
X134261904Y-65666666D01*
X134214285Y-65642857D01*
X134119047Y-65642857D01*
X134071428Y-65666666D01*
X134047619Y-65714285D01*
X134047619Y-65761904D01*
X134285714Y-65809523D01*
X133619047Y-65976190D02*
X133619047Y-65714285D01*
X133642857Y-65666666D01*
X133690476Y-65642857D01*
X133785714Y-65642857D01*
X133833333Y-65666666D01*
X133619047Y-65952380D02*
X133666666Y-65976190D01*
X133785714Y-65976190D01*
X133833333Y-65952380D01*
X133857142Y-65904761D01*
X133857142Y-65857142D01*
X133833333Y-65809523D01*
X133785714Y-65785714D01*
X133666666Y-65785714D01*
X133619047Y-65761904D01*
X133428571Y-65642857D02*
X133309523Y-65976190D01*
X133190476Y-65642857D01*
X132809523Y-65952380D02*
X132857142Y-65976190D01*
X132952380Y-65976190D01*
X133000000Y-65952380D01*
X133023809Y-65904761D01*
X133023809Y-65714285D01*
X133000000Y-65666666D01*
X132952380Y-65642857D01*
X132857142Y-65642857D01*
X132809523Y-65666666D01*
X132785714Y-65714285D01*
X132785714Y-65761904D01*
X133023809Y-65809523D01*
X132595238Y-65952380D02*
X132547619Y-65976190D01*
X132452380Y-65976190D01*
X132404761Y-65952380D01*
X132380952Y-65904761D01*
X132380952Y-65880952D01*
X132404761Y-65833333D01*
X132452380Y-65809523D01*
X132523809Y-65809523D01*
X132571428Y-65785714D01*
X132595238Y-65738095D01*
X132595238Y-65714285D01*
X132571428Y-65666666D01*
X132523809Y-65642857D01*
X132452380Y-65642857D01*
X132404761Y-65666666D01*
X131785714Y-65976190D02*
X131785714Y-65476190D01*
X131571428Y-65976190D02*
X131571428Y-65714285D01*
X131595238Y-65666666D01*
X131642857Y-65642857D01*
X131714285Y-65642857D01*
X131761904Y-65666666D01*
X131785714Y-65690476D01*
X131142857Y-65952380D02*
X131190476Y-65976190D01*
X131285714Y-65976190D01*
X131333333Y-65952380D01*
X131357142Y-65904761D01*
X131357142Y-65714285D01*
X131333333Y-65666666D01*
X131285714Y-65642857D01*
X131190476Y-65642857D01*
X131142857Y-65666666D01*
X131119047Y-65714285D01*
X131119047Y-65761904D01*
X131357142Y-65809523D01*
X130904761Y-65976190D02*
X130904761Y-65642857D01*
X130904761Y-65738095D02*
X130880952Y-65690476D01*
X130857142Y-65666666D01*
X130809523Y-65642857D01*
X130761904Y-65642857D01*
X130404761Y-65952380D02*
X130452380Y-65976190D01*
X130547619Y-65976190D01*
X130595238Y-65952380D01*
X130619047Y-65904761D01*
X130619047Y-65714285D01*
X130595238Y-65666666D01*
X130547619Y-65642857D01*
X130452380Y-65642857D01*
X130404761Y-65666666D01*
X130380952Y-65714285D01*
X130380952Y-65761904D01*
X130619047Y-65809523D01*
X130166666Y-65928571D02*
X130142857Y-65952380D01*
X130166666Y-65976190D01*
X130190476Y-65952380D01*
X130166666Y-65928571D01*
X130166666Y-65976190D01*
D11*
X144608333Y-52632380D02*
X144608333Y-53346666D01*
X144655952Y-53489523D01*
X144751190Y-53584761D01*
X144894047Y-53632380D01*
X144989285Y-53632380D01*
X144179761Y-52727619D02*
X144132142Y-52680000D01*
X144036904Y-52632380D01*
X143798809Y-52632380D01*
X143703571Y-52680000D01*
X143655952Y-52727619D01*
X143608333Y-52822857D01*
X143608333Y-52918095D01*
X143655952Y-53060952D01*
X144227380Y-53632380D01*
X143608333Y-53632380D01*
X123133333Y-52632380D02*
X123133333Y-53346666D01*
X123180952Y-53489523D01*
X123276190Y-53584761D01*
X123419047Y-53632380D01*
X123514285Y-53632380D01*
X122133333Y-53632380D02*
X122704761Y-53632380D01*
X122419047Y-53632380D02*
X122419047Y-52632380D01*
X122514285Y-52775238D01*
X122609523Y-52870476D01*
X122704761Y-52918095D01*
D12*
X142475000Y-57220000D02*
X142475000Y-64900000D01*
X144275000Y-54620000D02*
X142475000Y-54620000D01*
X145605000Y-57220000D02*
X142475000Y-57220000D01*
X142475000Y-54620000D02*
X142475000Y-55950000D01*
X120450000Y-57220000D02*
X120450000Y-64900000D01*
X124050000Y-57220000D02*
X120450000Y-57220000D01*
X122250000Y-54620000D02*
X120450000Y-54620000D01*
X124050000Y-57220000D02*
X124050000Y-64900000D01*
X124050000Y-64900000D02*
X120450000Y-64900000D01*
X120450000Y-54620000D02*
X120450000Y-55950000D01*
%LPC*%
D13*
X134775000Y-68000000D03*
D14*
X132235000Y-68000000D03*
D15*
X144275000Y-55950000D03*
D16*
X144275000Y-58490000D03*
X144275000Y-61030000D03*
X144275000Y-63570000D03*
D15*
X122250000Y-55950000D03*
D16*
X122250000Y-58490000D03*
X122250000Y-61030000D03*
X122250000Y-63570000D03*
M02*
