M48
; DRILL file {KiCad 6.0.2-378541a8eb~116~ubuntu20.04.1} date Fri 27 Jan 2023 04:40:12 PM CET
; FORMAT={-:-/ absolute / metric / decimal}
; #@! TF.CreationDate,2023-01-27T16:40:12+01:00
; #@! TF.GenerationSoftware,Kicad,Pcbnew,6.0.2-378541a8eb~116~ubuntu20.04.1
; #@! TF.FileFunction,Plated,1,2,PTH
FMAT,2
METRIC
; #@! TA.AperFunction,Plated,PTH,ViaDrill
T1C0.400
; #@! TA.AperFunction,Plated,PTH,ComponentDrill
T2C1.000
%
G90
G05
T1
X121.4Y-67.0
X121.6Y-50.6
X123.0Y-49.4
X123.0Y-68.4
X124.2Y-48.4
X124.4Y-69.8
X128.3Y-64.3
X128.3Y-67.862
X128.7Y-60.75
X130.6Y-57.7
X133.6Y-64.3
X138.3Y-61.75
X138.9Y-64.3
X138.938Y-67.962
X141.8Y-69.8
X142.0Y-48.4
X143.4Y-49.8
X143.4Y-68.2
X145.0Y-51.4
X145.0Y-66.6
T2
X122.25Y-55.95
X122.25Y-58.49
X122.25Y-61.03
X122.25Y-63.57
X132.235Y-68.0
X134.775Y-68.0
X144.275Y-55.95
X144.275Y-58.49
X144.275Y-61.03
X144.275Y-63.57
T0
M30
