G04 #@! TF.GenerationSoftware,KiCad,Pcbnew,6.0.2-378541a8eb~116~ubuntu20.04.1*
G04 #@! TF.CreationDate,2023-01-27T16:40:07+01:00*
G04 #@! TF.ProjectId,BUCKY_MOTOR_DRIVER,4255434b-595f-44d4-9f54-4f525f445249,rev?*
G04 #@! TF.SameCoordinates,Original*
G04 #@! TF.FileFunction,Legend,Top*
G04 #@! TF.FilePolarity,Positive*
%FSLAX46Y46*%
G04 Gerber Fmt 4.6, Leading zero omitted, Abs format (unit mm)*
G04 Created by KiCad (PCBNEW 6.0.2-378541a8eb~116~ubuntu20.04.1) date 2023-01-27 16:40:07*
%MOMM*%
%LPD*%
G01*
G04 APERTURE LIST*
G04 Aperture macros list*
%AMRoundRect*
0 Rectangle with rounded corners*
0 $1 Rounding radius*
0 $2 $3 $4 $5 $6 $7 $8 $9 X,Y pos of 4 corners*
0 Add a 4 corners polygon primitive as box body*
4,1,4,$2,$3,$4,$5,$6,$7,$8,$9,$2,$3,0*
0 Add four circle primitives for the rounded corners*
1,1,$1+$1,$2,$3*
1,1,$1+$1,$4,$5*
1,1,$1+$1,$6,$7*
1,1,$1+$1,$8,$9*
0 Add four rect primitives between the rounded corners*
20,1,$1+$1,$2,$3,$4,$5,0*
20,1,$1+$1,$4,$5,$6,$7,0*
20,1,$1+$1,$6,$7,$8,$9,0*
20,1,$1+$1,$8,$9,$2,$3,0*%
G04 Aperture macros list end*
%ADD10C,0.150000*%
%ADD11C,0.100000*%
%ADD12C,0.120000*%
%ADD13RoundRect,0.237500X0.237500X-0.300000X0.237500X0.300000X-0.237500X0.300000X-0.237500X-0.300000X0*%
%ADD14RoundRect,0.250000X-1.500000X-0.550000X1.500000X-0.550000X1.500000X0.550000X-1.500000X0.550000X0*%
%ADD15R,1.500000X3.000000*%
%ADD16O,1.500000X3.000000*%
%ADD17RoundRect,0.250000X-0.475000X0.337500X-0.475000X-0.337500X0.475000X-0.337500X0.475000X0.337500X0*%
%ADD18R,2.000000X0.650000*%
%ADD19R,4.500000X8.100000*%
%ADD20R,3.000000X1.500000*%
%ADD21O,3.000000X1.500000*%
G04 APERTURE END LIST*
D10*
X142261904Y-56700000D02*
X141461904Y-56700000D01*
X141461904Y-56509523D01*
X141500000Y-56395238D01*
X141576190Y-56319047D01*
X141652380Y-56280952D01*
X141804761Y-56242857D01*
X141919047Y-56242857D01*
X142071428Y-56280952D01*
X142147619Y-56319047D01*
X142223809Y-56395238D01*
X142261904Y-56509523D01*
X142261904Y-56700000D01*
X142261904Y-55900000D02*
X141461904Y-55900000D01*
X142261904Y-55061904D02*
X141880952Y-55328571D01*
X142261904Y-55519047D02*
X141461904Y-55519047D01*
X141461904Y-55214285D01*
X141500000Y-55138095D01*
X141538095Y-55100000D01*
X141614285Y-55061904D01*
X141728571Y-55061904D01*
X141804761Y-55100000D01*
X141842857Y-55138095D01*
X141880952Y-55214285D01*
X141880952Y-55519047D01*
X141461904Y-64490476D02*
X141461904Y-63995238D01*
X141766666Y-64261904D01*
X141766666Y-64147619D01*
X141804761Y-64071428D01*
X141842857Y-64033333D01*
X141919047Y-63995238D01*
X142109523Y-63995238D01*
X142185714Y-64033333D01*
X142223809Y-64071428D01*
X142261904Y-64147619D01*
X142261904Y-64376190D01*
X142223809Y-64452380D01*
X142185714Y-64490476D01*
X141461904Y-63766666D02*
X142261904Y-63500000D01*
X141461904Y-63233333D01*
X141461904Y-63042857D02*
X141461904Y-62547619D01*
X141766666Y-62814285D01*
X141766666Y-62700000D01*
X141804761Y-62623809D01*
X141842857Y-62585714D01*
X141919047Y-62547619D01*
X142109523Y-62547619D01*
X142185714Y-62585714D01*
X142223809Y-62623809D01*
X142261904Y-62700000D01*
X142261904Y-62928571D01*
X142223809Y-63004761D01*
X142185714Y-63042857D01*
X130247619Y-66300000D02*
X130247619Y-66490476D01*
X130200000Y-66585714D01*
X130104761Y-66680952D01*
X129914285Y-66728571D01*
X129580952Y-66728571D01*
X129390476Y-66680952D01*
X129295238Y-66585714D01*
X129247619Y-66490476D01*
X129247619Y-66300000D01*
X129295238Y-66204761D01*
X129390476Y-66109523D01*
X129580952Y-66061904D01*
X129914285Y-66061904D01*
X130104761Y-66109523D01*
X130200000Y-66204761D01*
X130247619Y-66300000D01*
X130247619Y-67157142D02*
X129438095Y-67157142D01*
X129342857Y-67204761D01*
X129295238Y-67252380D01*
X129247619Y-67347619D01*
X129247619Y-67538095D01*
X129295238Y-67633333D01*
X129342857Y-67680952D01*
X129438095Y-67728571D01*
X130247619Y-67728571D01*
X130247619Y-68061904D02*
X130247619Y-68633333D01*
X129247619Y-68347619D02*
X130247619Y-68347619D01*
X129771428Y-69300000D02*
X129723809Y-69442857D01*
X129676190Y-69490476D01*
X129580952Y-69538095D01*
X129438095Y-69538095D01*
X129342857Y-69490476D01*
X129295238Y-69442857D01*
X129247619Y-69347619D01*
X129247619Y-68966666D01*
X130247619Y-68966666D01*
X130247619Y-69300000D01*
X130200000Y-69395238D01*
X130152380Y-69442857D01*
X130057142Y-69490476D01*
X129961904Y-69490476D01*
X129866666Y-69442857D01*
X129819047Y-69395238D01*
X129771428Y-69300000D01*
X129771428Y-68966666D01*
X124347619Y-56880952D02*
X124347619Y-56309523D01*
X124347619Y-56595238D02*
X125347619Y-56595238D01*
X125204761Y-56500000D01*
X125109523Y-56404761D01*
X125061904Y-56309523D01*
X125252380Y-57261904D02*
X125300000Y-57309523D01*
X125347619Y-57404761D01*
X125347619Y-57642857D01*
X125300000Y-57738095D01*
X125252380Y-57785714D01*
X125157142Y-57833333D01*
X125061904Y-57833333D01*
X124919047Y-57785714D01*
X124347619Y-57214285D01*
X124347619Y-57833333D01*
X125347619Y-58119047D02*
X124347619Y-58452380D01*
X125347619Y-58785714D01*
X142261904Y-59623809D02*
X141461904Y-59623809D01*
X141461904Y-59319047D01*
X141500000Y-59242857D01*
X141538095Y-59204761D01*
X141614285Y-59166666D01*
X141728571Y-59166666D01*
X141804761Y-59204761D01*
X141842857Y-59242857D01*
X141880952Y-59319047D01*
X141880952Y-59623809D01*
X141461904Y-58900000D02*
X142261904Y-58709523D01*
X141690476Y-58557142D01*
X142261904Y-58404761D01*
X141461904Y-58214285D01*
X142261904Y-57909523D02*
X141461904Y-57909523D01*
X142033333Y-57642857D01*
X141461904Y-57376190D01*
X142261904Y-57376190D01*
X125300000Y-61538095D02*
X125347619Y-61442857D01*
X125347619Y-61300000D01*
X125300000Y-61157142D01*
X125204761Y-61061904D01*
X125109523Y-61014285D01*
X124919047Y-60966666D01*
X124776190Y-60966666D01*
X124585714Y-61014285D01*
X124490476Y-61061904D01*
X124395238Y-61157142D01*
X124347619Y-61300000D01*
X124347619Y-61395238D01*
X124395238Y-61538095D01*
X124442857Y-61585714D01*
X124776190Y-61585714D01*
X124776190Y-61395238D01*
X124347619Y-62014285D02*
X125347619Y-62014285D01*
X124347619Y-62585714D01*
X125347619Y-62585714D01*
X124347619Y-63061904D02*
X125347619Y-63061904D01*
X125347619Y-63300000D01*
X125300000Y-63442857D01*
X125204761Y-63538095D01*
X125109523Y-63585714D01*
X124919047Y-63633333D01*
X124776190Y-63633333D01*
X124585714Y-63585714D01*
X124490476Y-63538095D01*
X124395238Y-63442857D01*
X124347619Y-63300000D01*
X124347619Y-63061904D01*
X136852380Y-69328571D02*
X136852380Y-69138095D01*
X136900000Y-69042857D01*
X136995238Y-68947619D01*
X137185714Y-68900000D01*
X137519047Y-68900000D01*
X137709523Y-68947619D01*
X137804761Y-69042857D01*
X137852380Y-69138095D01*
X137852380Y-69328571D01*
X137804761Y-69423809D01*
X137709523Y-69519047D01*
X137519047Y-69566666D01*
X137185714Y-69566666D01*
X136995238Y-69519047D01*
X136900000Y-69423809D01*
X136852380Y-69328571D01*
X136852380Y-68471428D02*
X137661904Y-68471428D01*
X137757142Y-68423809D01*
X137804761Y-68376190D01*
X137852380Y-68280952D01*
X137852380Y-68090476D01*
X137804761Y-67995238D01*
X137757142Y-67947619D01*
X137661904Y-67900000D01*
X136852380Y-67900000D01*
X136852380Y-67566666D02*
X136852380Y-66995238D01*
X137852380Y-67280952D02*
X136852380Y-67280952D01*
X137566666Y-66709523D02*
X137566666Y-66233333D01*
X137852380Y-66804761D02*
X136852380Y-66471428D01*
X137852380Y-66138095D01*
X141842857Y-61690476D02*
X141842857Y-61423809D01*
X142261904Y-61309523D02*
X142261904Y-61690476D01*
X141461904Y-61690476D01*
X141461904Y-61309523D01*
X142261904Y-60966666D02*
X141461904Y-60966666D01*
X142261904Y-60509523D01*
X141461904Y-60509523D01*
D11*
X136523809Y-50823690D02*
X136523809Y-50323690D01*
X136928571Y-50561785D02*
X136761904Y-50561785D01*
X136761904Y-50823690D02*
X136761904Y-50323690D01*
X137000000Y-50323690D01*
X137142857Y-50323690D02*
X137476190Y-50823690D01*
X137476190Y-50323690D02*
X137142857Y-50823690D01*
X137690476Y-50823690D02*
X137785714Y-50823690D01*
X137833333Y-50799880D01*
X137857142Y-50776071D01*
X137904761Y-50704642D01*
X137928571Y-50609404D01*
X137928571Y-50418928D01*
X137904761Y-50371309D01*
X137880952Y-50347500D01*
X137833333Y-50323690D01*
X137738095Y-50323690D01*
X137690476Y-50347500D01*
X137666666Y-50371309D01*
X137642857Y-50418928D01*
X137642857Y-50537976D01*
X137666666Y-50585595D01*
X137690476Y-50609404D01*
X137738095Y-50633214D01*
X137833333Y-50633214D01*
X137880952Y-50609404D01*
X137904761Y-50585595D01*
X137928571Y-50537976D01*
X138119047Y-50371309D02*
X138142857Y-50347500D01*
X138190476Y-50323690D01*
X138309523Y-50323690D01*
X138357142Y-50347500D01*
X138380952Y-50371309D01*
X138404761Y-50418928D01*
X138404761Y-50466547D01*
X138380952Y-50537976D01*
X138095238Y-50823690D01*
X138404761Y-50823690D01*
X138714285Y-50323690D02*
X138761904Y-50323690D01*
X138809523Y-50347500D01*
X138833333Y-50371309D01*
X138857142Y-50418928D01*
X138880952Y-50514166D01*
X138880952Y-50633214D01*
X138857142Y-50728452D01*
X138833333Y-50776071D01*
X138809523Y-50799880D01*
X138761904Y-50823690D01*
X138714285Y-50823690D01*
X138666666Y-50799880D01*
X138642857Y-50776071D01*
X138619047Y-50728452D01*
X138595238Y-50633214D01*
X138595238Y-50514166D01*
X138619047Y-50418928D01*
X138642857Y-50371309D01*
X138666666Y-50347500D01*
X138714285Y-50323690D01*
X139357142Y-50823690D02*
X139071428Y-50823690D01*
X139214285Y-50823690D02*
X139214285Y-50323690D01*
X139166666Y-50395119D01*
X139119047Y-50442738D01*
X139071428Y-50466547D01*
X139547619Y-50799880D02*
X139619047Y-50823690D01*
X139738095Y-50823690D01*
X139785714Y-50799880D01*
X139809523Y-50776071D01*
X139833333Y-50728452D01*
X139833333Y-50680833D01*
X139809523Y-50633214D01*
X139785714Y-50609404D01*
X139738095Y-50585595D01*
X139642857Y-50561785D01*
X139595238Y-50537976D01*
X139571428Y-50514166D01*
X139547619Y-50466547D01*
X139547619Y-50418928D01*
X139571428Y-50371309D01*
X139595238Y-50347500D01*
X139642857Y-50323690D01*
X139761904Y-50323690D01*
X139833333Y-50347500D01*
X140309523Y-50347500D02*
X140261904Y-50323690D01*
X140190476Y-50323690D01*
X140119047Y-50347500D01*
X140071428Y-50395119D01*
X140047619Y-50442738D01*
X140023809Y-50537976D01*
X140023809Y-50609404D01*
X140047619Y-50704642D01*
X140071428Y-50752261D01*
X140119047Y-50799880D01*
X140190476Y-50823690D01*
X140238095Y-50823690D01*
X140309523Y-50799880D01*
X140333333Y-50776071D01*
X140333333Y-50609404D01*
X140238095Y-50609404D01*
X141095238Y-50561785D02*
X141166666Y-50585595D01*
X141190476Y-50609404D01*
X141214285Y-50657023D01*
X141214285Y-50728452D01*
X141190476Y-50776071D01*
X141166666Y-50799880D01*
X141119047Y-50823690D01*
X140928571Y-50823690D01*
X140928571Y-50323690D01*
X141095238Y-50323690D01*
X141142857Y-50347500D01*
X141166666Y-50371309D01*
X141190476Y-50418928D01*
X141190476Y-50466547D01*
X141166666Y-50514166D01*
X141142857Y-50537976D01*
X141095238Y-50561785D01*
X140928571Y-50561785D01*
X141428571Y-50823690D02*
X141428571Y-50490357D01*
X141428571Y-50585595D02*
X141452380Y-50537976D01*
X141476190Y-50514166D01*
X141523809Y-50490357D01*
X141571428Y-50490357D01*
X141928571Y-50799880D02*
X141880952Y-50823690D01*
X141785714Y-50823690D01*
X141738095Y-50799880D01*
X141714285Y-50752261D01*
X141714285Y-50561785D01*
X141738095Y-50514166D01*
X141785714Y-50490357D01*
X141880952Y-50490357D01*
X141928571Y-50514166D01*
X141952380Y-50561785D01*
X141952380Y-50609404D01*
X141714285Y-50657023D01*
X142380952Y-50823690D02*
X142380952Y-50561785D01*
X142357142Y-50514166D01*
X142309523Y-50490357D01*
X142214285Y-50490357D01*
X142166666Y-50514166D01*
X142380952Y-50799880D02*
X142333333Y-50823690D01*
X142214285Y-50823690D01*
X142166666Y-50799880D01*
X142142857Y-50752261D01*
X142142857Y-50704642D01*
X142166666Y-50657023D01*
X142214285Y-50633214D01*
X142333333Y-50633214D01*
X142380952Y-50609404D01*
X142619047Y-50823690D02*
X142619047Y-50323690D01*
X142666666Y-50633214D02*
X142809523Y-50823690D01*
X142809523Y-50490357D02*
X142619047Y-50680833D01*
X143095238Y-50823690D02*
X143047619Y-50799880D01*
X143023809Y-50776071D01*
X143000000Y-50728452D01*
X143000000Y-50585595D01*
X143023809Y-50537976D01*
X143047619Y-50514166D01*
X143095238Y-50490357D01*
X143166666Y-50490357D01*
X143214285Y-50514166D01*
X143238095Y-50537976D01*
X143261904Y-50585595D01*
X143261904Y-50728452D01*
X143238095Y-50776071D01*
X143214285Y-50799880D01*
X143166666Y-50823690D01*
X143095238Y-50823690D01*
X143690476Y-50490357D02*
X143690476Y-50823690D01*
X143476190Y-50490357D02*
X143476190Y-50752261D01*
X143500000Y-50799880D01*
X143547619Y-50823690D01*
X143619047Y-50823690D01*
X143666666Y-50799880D01*
X143690476Y-50776071D01*
X143857142Y-50490357D02*
X144047619Y-50490357D01*
X143928571Y-50323690D02*
X143928571Y-50752261D01*
X143952380Y-50799880D01*
X144000000Y-50823690D01*
X144047619Y-50823690D01*
X136190476Y-51628690D02*
X136190476Y-51128690D01*
X136309523Y-51128690D01*
X136380952Y-51152500D01*
X136428571Y-51200119D01*
X136452380Y-51247738D01*
X136476190Y-51342976D01*
X136476190Y-51414404D01*
X136452380Y-51509642D01*
X136428571Y-51557261D01*
X136380952Y-51604880D01*
X136309523Y-51628690D01*
X136190476Y-51628690D01*
X136880952Y-51604880D02*
X136833333Y-51628690D01*
X136738095Y-51628690D01*
X136690476Y-51604880D01*
X136666666Y-51557261D01*
X136666666Y-51366785D01*
X136690476Y-51319166D01*
X136738095Y-51295357D01*
X136833333Y-51295357D01*
X136880952Y-51319166D01*
X136904761Y-51366785D01*
X136904761Y-51414404D01*
X136666666Y-51462023D01*
X137095238Y-51604880D02*
X137142857Y-51628690D01*
X137238095Y-51628690D01*
X137285714Y-51604880D01*
X137309523Y-51557261D01*
X137309523Y-51533452D01*
X137285714Y-51485833D01*
X137238095Y-51462023D01*
X137166666Y-51462023D01*
X137119047Y-51438214D01*
X137095238Y-51390595D01*
X137095238Y-51366785D01*
X137119047Y-51319166D01*
X137166666Y-51295357D01*
X137238095Y-51295357D01*
X137285714Y-51319166D01*
X137523809Y-51628690D02*
X137523809Y-51295357D01*
X137523809Y-51128690D02*
X137500000Y-51152500D01*
X137523809Y-51176309D01*
X137547619Y-51152500D01*
X137523809Y-51128690D01*
X137523809Y-51176309D01*
X137976190Y-51295357D02*
X137976190Y-51700119D01*
X137952380Y-51747738D01*
X137928571Y-51771547D01*
X137880952Y-51795357D01*
X137809523Y-51795357D01*
X137761904Y-51771547D01*
X137976190Y-51604880D02*
X137928571Y-51628690D01*
X137833333Y-51628690D01*
X137785714Y-51604880D01*
X137761904Y-51581071D01*
X137738095Y-51533452D01*
X137738095Y-51390595D01*
X137761904Y-51342976D01*
X137785714Y-51319166D01*
X137833333Y-51295357D01*
X137928571Y-51295357D01*
X137976190Y-51319166D01*
X138214285Y-51295357D02*
X138214285Y-51628690D01*
X138214285Y-51342976D02*
X138238095Y-51319166D01*
X138285714Y-51295357D01*
X138357142Y-51295357D01*
X138404761Y-51319166D01*
X138428571Y-51366785D01*
X138428571Y-51628690D01*
X138857142Y-51604880D02*
X138809523Y-51628690D01*
X138714285Y-51628690D01*
X138666666Y-51604880D01*
X138642857Y-51557261D01*
X138642857Y-51366785D01*
X138666666Y-51319166D01*
X138714285Y-51295357D01*
X138809523Y-51295357D01*
X138857142Y-51319166D01*
X138880952Y-51366785D01*
X138880952Y-51414404D01*
X138642857Y-51462023D01*
X139309523Y-51628690D02*
X139309523Y-51128690D01*
X139309523Y-51604880D02*
X139261904Y-51628690D01*
X139166666Y-51628690D01*
X139119047Y-51604880D01*
X139095238Y-51581071D01*
X139071428Y-51533452D01*
X139071428Y-51390595D01*
X139095238Y-51342976D01*
X139119047Y-51319166D01*
X139166666Y-51295357D01*
X139261904Y-51295357D01*
X139309523Y-51319166D01*
X139928571Y-51628690D02*
X139928571Y-51128690D01*
X139928571Y-51319166D02*
X139976190Y-51295357D01*
X140071428Y-51295357D01*
X140119047Y-51319166D01*
X140142857Y-51342976D01*
X140166666Y-51390595D01*
X140166666Y-51533452D01*
X140142857Y-51581071D01*
X140119047Y-51604880D01*
X140071428Y-51628690D01*
X139976190Y-51628690D01*
X139928571Y-51604880D01*
X140333333Y-51295357D02*
X140452380Y-51628690D01*
X140571428Y-51295357D02*
X140452380Y-51628690D01*
X140404761Y-51747738D01*
X140380952Y-51771547D01*
X140333333Y-51795357D01*
X141142857Y-51628690D02*
X141142857Y-51128690D01*
X141333333Y-51128690D01*
X141380952Y-51152500D01*
X141404761Y-51176309D01*
X141428571Y-51223928D01*
X141428571Y-51295357D01*
X141404761Y-51342976D01*
X141380952Y-51366785D01*
X141333333Y-51390595D01*
X141142857Y-51390595D01*
X141642857Y-51628690D02*
X141642857Y-51295357D01*
X141642857Y-51128690D02*
X141619047Y-51152500D01*
X141642857Y-51176309D01*
X141666666Y-51152500D01*
X141642857Y-51128690D01*
X141642857Y-51176309D01*
X141833333Y-51628690D02*
X142095238Y-51295357D01*
X141833333Y-51295357D02*
X142095238Y-51628690D01*
X142476190Y-51604880D02*
X142428571Y-51628690D01*
X142333333Y-51628690D01*
X142285714Y-51604880D01*
X142261904Y-51557261D01*
X142261904Y-51366785D01*
X142285714Y-51319166D01*
X142333333Y-51295357D01*
X142428571Y-51295357D01*
X142476190Y-51319166D01*
X142500000Y-51366785D01*
X142500000Y-51414404D01*
X142261904Y-51462023D01*
X142785714Y-51628690D02*
X142738095Y-51604880D01*
X142714285Y-51557261D01*
X142714285Y-51128690D01*
X142976190Y-51295357D02*
X142976190Y-51723928D01*
X142952380Y-51771547D01*
X142904761Y-51795357D01*
X142880952Y-51795357D01*
X142976190Y-51128690D02*
X142952380Y-51152500D01*
X142976190Y-51176309D01*
X143000000Y-51152500D01*
X142976190Y-51128690D01*
X142976190Y-51176309D01*
X143285714Y-51628690D02*
X143238095Y-51604880D01*
X143214285Y-51581071D01*
X143190476Y-51533452D01*
X143190476Y-51390595D01*
X143214285Y-51342976D01*
X143238095Y-51319166D01*
X143285714Y-51295357D01*
X143357142Y-51295357D01*
X143404761Y-51319166D01*
X143428571Y-51342976D01*
X143452380Y-51390595D01*
X143452380Y-51533452D01*
X143428571Y-51581071D01*
X143404761Y-51604880D01*
X143357142Y-51628690D01*
X143285714Y-51628690D01*
X143880952Y-51604880D02*
X143833333Y-51628690D01*
X143738095Y-51628690D01*
X143690476Y-51604880D01*
X143666666Y-51581071D01*
X143642857Y-51533452D01*
X143642857Y-51390595D01*
X143666666Y-51342976D01*
X143690476Y-51319166D01*
X143738095Y-51295357D01*
X143833333Y-51295357D01*
X143880952Y-51319166D01*
X144095238Y-51628690D02*
X144095238Y-51128690D01*
X144309523Y-51628690D02*
X144309523Y-51366785D01*
X144285714Y-51319166D01*
X144238095Y-51295357D01*
X144166666Y-51295357D01*
X144119047Y-51319166D01*
X144095238Y-51342976D01*
D10*
X139257142Y-64566666D02*
X139304761Y-64614285D01*
X139352380Y-64757142D01*
X139352380Y-64852380D01*
X139304761Y-64995238D01*
X139209523Y-65090476D01*
X139114285Y-65138095D01*
X138923809Y-65185714D01*
X138780952Y-65185714D01*
X138590476Y-65138095D01*
X138495238Y-65090476D01*
X138400000Y-64995238D01*
X138352380Y-64852380D01*
X138352380Y-64757142D01*
X138400000Y-64614285D01*
X138447619Y-64566666D01*
X138685714Y-63709523D02*
X139352380Y-63709523D01*
X138304761Y-63947619D02*
X139019047Y-64185714D01*
X139019047Y-63566666D01*
X135607142Y-48966666D02*
X135654761Y-49014285D01*
X135702380Y-49157142D01*
X135702380Y-49252380D01*
X135654761Y-49395238D01*
X135559523Y-49490476D01*
X135464285Y-49538095D01*
X135273809Y-49585714D01*
X135130952Y-49585714D01*
X134940476Y-49538095D01*
X134845238Y-49490476D01*
X134750000Y-49395238D01*
X134702380Y-49252380D01*
X134702380Y-49157142D01*
X134750000Y-49014285D01*
X134797619Y-48966666D01*
X135702380Y-48014285D02*
X135702380Y-48585714D01*
X135702380Y-48300000D02*
X134702380Y-48300000D01*
X134845238Y-48395238D01*
X134940476Y-48490476D01*
X134988095Y-48585714D01*
X133166666Y-64952380D02*
X133166666Y-65666666D01*
X133119047Y-65809523D01*
X133023809Y-65904761D01*
X132880952Y-65952380D01*
X132785714Y-65952380D01*
X133547619Y-64952380D02*
X134166666Y-64952380D01*
X133833333Y-65333333D01*
X133976190Y-65333333D01*
X134071428Y-65380952D01*
X134119047Y-65428571D01*
X134166666Y-65523809D01*
X134166666Y-65761904D01*
X134119047Y-65857142D01*
X134071428Y-65904761D01*
X133976190Y-65952380D01*
X133690476Y-65952380D01*
X133595238Y-65904761D01*
X133547619Y-65857142D01*
X125207142Y-48966666D02*
X125254761Y-49014285D01*
X125302380Y-49157142D01*
X125302380Y-49252380D01*
X125254761Y-49395238D01*
X125159523Y-49490476D01*
X125064285Y-49538095D01*
X124873809Y-49585714D01*
X124730952Y-49585714D01*
X124540476Y-49538095D01*
X124445238Y-49490476D01*
X124350000Y-49395238D01*
X124302380Y-49252380D01*
X124302380Y-49157142D01*
X124350000Y-49014285D01*
X124397619Y-48966666D01*
X124397619Y-48585714D02*
X124350000Y-48538095D01*
X124302380Y-48442857D01*
X124302380Y-48204761D01*
X124350000Y-48109523D01*
X124397619Y-48061904D01*
X124492857Y-48014285D01*
X124588095Y-48014285D01*
X124730952Y-48061904D01*
X125302380Y-48633333D01*
X125302380Y-48014285D01*
X128657142Y-64566666D02*
X128704761Y-64614285D01*
X128752380Y-64757142D01*
X128752380Y-64852380D01*
X128704761Y-64995238D01*
X128609523Y-65090476D01*
X128514285Y-65138095D01*
X128323809Y-65185714D01*
X128180952Y-65185714D01*
X127990476Y-65138095D01*
X127895238Y-65090476D01*
X127800000Y-64995238D01*
X127752380Y-64852380D01*
X127752380Y-64757142D01*
X127800000Y-64614285D01*
X127847619Y-64566666D01*
X127752380Y-64233333D02*
X127752380Y-63614285D01*
X128133333Y-63947619D01*
X128133333Y-63804761D01*
X128180952Y-63709523D01*
X128228571Y-63661904D01*
X128323809Y-63614285D01*
X128561904Y-63614285D01*
X128657142Y-63661904D01*
X128704761Y-63709523D01*
X128752380Y-63804761D01*
X128752380Y-64090476D01*
X128704761Y-64185714D01*
X128657142Y-64233333D01*
X134738095Y-53652380D02*
X134738095Y-54461904D01*
X134785714Y-54557142D01*
X134833333Y-54604761D01*
X134928571Y-54652380D01*
X135119047Y-54652380D01*
X135214285Y-54604761D01*
X135261904Y-54557142D01*
X135309523Y-54461904D01*
X135309523Y-53652380D01*
X136309523Y-54652380D02*
X135738095Y-54652380D01*
X136023809Y-54652380D02*
X136023809Y-53652380D01*
X135928571Y-53795238D01*
X135833333Y-53890476D01*
X135738095Y-53938095D01*
D12*
X138390000Y-67246267D02*
X138390000Y-66953733D01*
X139410000Y-67246267D02*
X139410000Y-66953733D01*
X127390000Y-48654437D02*
X128454437Y-47590000D01*
X126756250Y-48758750D02*
X126756250Y-49546250D01*
X126362500Y-49152500D02*
X127150000Y-49152500D01*
X127390000Y-53345563D02*
X127390000Y-52060000D01*
X127390000Y-53345563D02*
X128454437Y-54410000D01*
X128454437Y-47590000D02*
X134210000Y-47590000D01*
X134210000Y-54410000D02*
X134210000Y-52060000D01*
X127390000Y-48654437D02*
X127390000Y-49940000D01*
X128454437Y-54410000D02*
X134210000Y-54410000D01*
X134210000Y-47590000D02*
X134210000Y-49940000D01*
X136105000Y-66670000D02*
X136105000Y-68000000D01*
X133505000Y-66670000D02*
X130905000Y-66670000D01*
X130905000Y-66670000D02*
X130905000Y-69330000D01*
X133505000Y-66670000D02*
X133505000Y-69330000D01*
X134775000Y-66670000D02*
X136105000Y-66670000D01*
X133505000Y-69330000D02*
X130905000Y-69330000D01*
X124165000Y-51538748D02*
X124165000Y-52061252D01*
X125635000Y-51538748D02*
X125635000Y-52061252D01*
X127790000Y-67146267D02*
X127790000Y-66853733D01*
X128810000Y-67146267D02*
X128810000Y-66853733D01*
D10*
X137400000Y-56250000D02*
X137400000Y-55900000D01*
X129600000Y-62600000D02*
X131150000Y-62600000D01*
X127700000Y-55900000D02*
X131100000Y-55900000D01*
X129600000Y-62250000D02*
X129600000Y-62600000D01*
X137400000Y-62250000D02*
X137400000Y-62600000D01*
X137400000Y-62600000D02*
X135850000Y-62600000D01*
X137400000Y-55900000D02*
X135850000Y-55900000D01*
%LPC*%
D13*
X138900000Y-67962500D03*
X138900000Y-66237500D03*
D14*
X128100000Y-51000000D03*
X133500000Y-51000000D03*
D15*
X134775000Y-68000000D03*
D16*
X132235000Y-68000000D03*
D17*
X124900000Y-50762500D03*
X124900000Y-52837500D03*
D13*
X128300000Y-67862500D03*
X128300000Y-66137500D03*
D18*
X128700000Y-56750000D03*
X128700000Y-57750000D03*
X128700000Y-58750000D03*
X128700000Y-59750000D03*
X128700000Y-60750000D03*
X128700000Y-61750000D03*
X138300000Y-61750000D03*
X138300000Y-60750000D03*
X138300000Y-59750000D03*
X138300000Y-58750000D03*
X138300000Y-57750000D03*
X138300000Y-56750000D03*
D19*
X133500000Y-59250000D03*
D20*
X144275000Y-55950000D03*
D21*
X144275000Y-58490000D03*
X144275000Y-61030000D03*
X144275000Y-63570000D03*
D20*
X122250000Y-55950000D03*
D21*
X122250000Y-58490000D03*
X122250000Y-61030000D03*
X122250000Y-63570000D03*
M02*
